<?xml version="1.0" encoding="UTF-8"?>
<svg id="uuid-d1a16133-8ef9-458f-ad02-21838b95bec5" data-name="Calque 1" xmlns="http://www.w3.org/2000/svg" viewBox="0 0 800 800">
  <defs>
    <style>
      .uuid-4149e7c5-38a0-4c99-9780-2199fd5e3563 {
        stroke-width: 0px;
      }
    </style>
  </defs>
  <path class="uuid-4149e7c5-38a0-4c99-9780-2199fd5e3563" d="m656,183.64c-3.2,9.45-10.34,15.37-18.08,21.06-20.8,15.29-41.34,30.92-61.99,46.42-8.48,6.37-11.84,5.92-18.15-2.44-1.7-2.25-3.41-4.51-5.38-7.12-6.58,4.99-13.39,9.52-19.34,15-2.35,2.17-3.59,6.36-3.89,9.76-.44,4.92.47,9.96.73,14.95.62,11.96-4.24,21.27-13.76,28.34-10.14,7.53-20.22,15.13-30.6,22.9.83,1.32,1.43,2.45,2.19,3.47,11.76,15.74,23.55,31.47,35.32,47.21,4.1,5.48,3.87,6.14-2.67,7.54-55.86,11.94-111.72,23.87-167.58,35.8-.32.07-.67.16-.99.12-1.97-.27-3.94-.58-5.91-.88.36-1.83.31-3.88,1.15-5.45,8.95-16.9,18.03-33.74,27.08-50.58,18.03-33.55,36.05-67.1,54.09-100.65,3.46-6.44,4.39-6.54,8.65-.87,12.49,16.64,24.97,33.29,37.76,50.36-8.86,6.68-17.59,13.28-26.32,19.86-3.46,2.61-7.04,5.06-10.35,7.84-3.63,3.05-4.22,8.09-1.71,11.67,2.76,3.93,7.74,5.15,11.89,2.15,12.25-8.87,24.28-18.04,36.76-27.36-3.57-4.82-6.9-9.31-10.51-14.19,9.62-7.22,18.77-14.66,28.51-21.22,7.44-5.01,10.34-11.28,9.01-19.93-.45-2.96-.61-5.97-.76-8.96-.6-11.9,3.96-21.36,13.53-28.45,5.6-4.15,11.15-8.36,16.96-12.72-2.65-3.55-5.12-6.68-7.37-9.95-3.4-4.95-2.84-9.5,1.98-13.14,24.34-18.35,48.62-36.76,73.21-54.77,11.25-8.24,26.14-6.3,35.06,4.42,4.49,5.39,7.69,11.85,11.47,17.83v12Zm-86.9,50.23c9.34-7.02,18.12-13.61,26.9-20.2,12.38-9.28,24.79-18.53,37.13-27.86,5.93-4.48,6.6-8.73,2.53-14.48-.96-1.36-1.98-2.67-3-3.99-4.52-5.88-8.86-6.48-14.91-1.97-9.47,7.06-18.9,14.17-28.35,21.26-11.81,8.86-23.61,17.72-35.69,26.79,5.21,6.93,10.18,13.53,15.39,20.46Z"/>
  <path class="uuid-4149e7c5-38a0-4c99-9780-2199fd5e3563" d="m144,585.7c39.14.04,78.27.08,117.41.12,1.95,0,3.9,0,6.59,0v69.89h-124v-70.01Z"/>
  <path class="uuid-4149e7c5-38a0-4c99-9780-2199fd5e3563" d="m285,655.71v-69.58h124v69.58h-124Z"/>
  <path class="uuid-4149e7c5-38a0-4c99-9780-2199fd5e3563" d="m426,655.71c.07-21.16.15-42.32.22-63.48,0-1.95,0-3.89,0-6.12h123.78v69.6h-124Z"/>
  <path class="uuid-4149e7c5-38a0-4c99-9780-2199fd5e3563" d="m144,409.67c14.32-.08,28.64-.2,42.96-.22,24.82-.04,49.64,0,74.46,0h6.14v70.49c-2.02.12-4.09.35-6.17.35-37.14.02-74.29.01-111.43.03-1.98,0-3.97.23-5.95.36,0-12,0-24,0-36.01,6,0,12.01.21,17.99-.06,5.04-.22,8.27-4.03,8.16-8.9-.1-4.75-3.18-8.08-8.19-8.21-5.98-.16-11.98.09-17.97.17v-18Zm70.5,17.76c-5.81,0-11.63-.12-17.44.03-5.1.13-8.68,3.64-8.82,8.28-.15,4.75,3.61,8.82,8.83,8.9,11.62.17,23.25.15,34.87.02,5.23-.06,9.04-3.96,9.05-8.69,0-4.87-3.6-8.39-9.06-8.52-5.81-.14-11.62-.03-17.44-.02Z"/>
  <path class="uuid-4149e7c5-38a0-4c99-9780-2199fd5e3563" d="m620.67,498.09v70.19h-123.3v-70.19h123.3Z"/>
  <path class="uuid-4149e7c5-38a0-4c99-9780-2199fd5e3563" d="m214.78,568.29v-70.31h123.21v70.31h-123.21Z"/>
  <path class="uuid-4149e7c5-38a0-4c99-9780-2199fd5e3563" d="m479.29,568.36h-123.12v-70.32h123.12v70.32Z"/>
  <path class="uuid-4149e7c5-38a0-4c99-9780-2199fd5e3563" d="m549.76,480.05h-123.14v-51.42c9.91-2.12,19.95-4.27,30-6.41,18.03-3.84,35.94-8.45,54.13-11.26,12.69-1.96,25.77-1.47,39.01-2.08v71.17Z"/>
  <path class="uuid-4149e7c5-38a0-4c99-9780-2199fd5e3563" d="m285.31,479.87v-70.11h47.34c-1.05,2.2-1.93,3.95-2.72,5.73-3.44,7.7-2.62,15.04,2.66,21.52,5.26,6.45,12.19,8.92,20.49,7.15,17.37-3.72,34.74-7.42,52.12-11.11.96-.2,1.96-.25,3.35-.42v47.23h-123.25Z"/>
</svg>