<?xml version="1.0" encoding="UTF-8"?>
<svg id="uuid-85d55355-37f6-4eef-95ec-a794a123d625" data-name="Calque 1" xmlns="http://www.w3.org/2000/svg" viewBox="0 0 800 800">
  <defs>
    <style>
      .uuid-90ed9cd1-41b5-4279-8eec-c2e0e415de6b {
        stroke-width: 0px;
      }
    </style>
  </defs>
  <path class="uuid-90ed9cd1-41b5-4279-8eec-c2e0e415de6b" d="m370.65,414.95c-7.32-.18-12.79-4.26-14.74-10.57-1.91-6.2-.02-12.74,5.49-16.24,2.68-1.7,6.12-2.87,9.28-3,9.32-.39,18.66-.23,27.99-.12,6.45.08,11.59,2.73,15.02,9.11,14.02-11.4,29.05-20.71,45.69-27.28,16.52-6.53,33.61-10.38,51.35-11.85-6.27,0-12.54.06-18.81-.01-9.93-.11-17.06-6.59-16.86-15.24.2-8.56,7.1-14.66,16.84-14.75,8.5-.08,17-.04,25.5,0,9.51.04,15.25,4.13,17.11,12.11,1.65,7.08-1.96,13.21-11.69,18.04,38.76,1.4,72.2,13.7,101.89,37.62v-97.77H144v289c3.68,8.33,10.02,11.17,19.09,11.13,67.83-.25,135.66-.14,203.5-.14h6.3c-2.8-6.92-5.66-13.41-8.07-20.07-11.56-31.96-12.69-64.36-3.57-97.07.95-3.4.84-5.6-1.98-8.23-4.23-3.93-5.25-9.23-3.17-14.71,2.28-6.01,6.95-9.45,13.28-9.72,3.53-.15,5.15-1.53,6.82-4.4,4.97-8.58,10.33-16.93,15.82-25.82-7.19,0-14.28.14-21.37-.04Zm-91.34,119.99c-9.49.21-18.98.2-28.47.01-8.97-.18-15.62-6.57-15.78-14.75-.16-8.3,6.67-14.91,15.87-15.18,4.66-.14,9.32-.02,13.99-.02,4.83,0,9.66-.14,14.48.04,8.87.33,15.57,6.9,15.54,15-.03,8.13-6.71,14.7-15.62,14.9Zm.33-60c-4.99.22-9.99.04-14.98.04-4.66.01-9.33.15-13.98-.02-8.9-.32-15.59-6.79-15.62-14.92-.03-8.11,6.66-14.77,15.54-14.98,9.65-.22,19.32-.24,28.97.01,8.85.23,15.53,7.06,15.37,15.14-.16,7.98-6.65,14.36-15.29,14.73Zm0-60c-4.82.21-9.66.04-14.48.04-4.83.01-9.66.15-14.48-.02-8.91-.31-15.59-6.79-15.62-14.92-.03-8.11,6.66-14.78,15.54-14.98,9.65-.22,19.32-.24,28.97.01,8.85.23,15.53,7.06,15.37,15.14-.16,7.97-6.65,14.36-15.29,14.74Zm-.92-59.96c-4.66.11-9.32.02-13.99.02-4.5,0-8.99.09-13.49-.02-9.29-.22-16.1-6.51-16.2-14.86-.1-8.3,6.75-14.92,15.96-15.08,9.32-.17,18.65-.17,27.97,0,9.21.17,16.05,6.8,15.95,15.09-.11,8.36-6.91,14.64-16.21,14.85Zm92.53-29.96c9.16-.14,18.32-.14,27.47,0,9.3.14,16.1,6.49,16.2,14.85.1,8.48-6.88,14.94-16.45,15.11-4.49.08-8.99.01-13.49.01s-8.99.07-13.49-.01c-9.57-.18-16.55-6.63-16.45-15.11.1-8.35,6.9-14.71,16.2-14.85Z"/>
  <path class="uuid-90ed9cd1-41b5-4279-8eec-c2e0e415de6b" d="m653.29,493.87c-5.37-25.15-16.51-47.39-34.57-65.76-34.55-35.14-76.39-48.4-124.76-39.29-29.36,5.53-54.27,19.99-73.76,42.69-33.3,38.78-43.11,83.26-27.09,131.77,15.49,46.88,48.55,76.36,96.43,88.89,6.07,1.59,12.3,2.58,18.45,3.84h26c6.15-1.27,12.37-2.25,18.44-3.84,48.26-12.61,80.46-42.77,96.93-89.65,2.73-7.76,3.74-16.13,5.56-24.21.32-1.44.71-2.87,1.06-4.3v-26c-.9-4.71-1.71-9.44-2.71-14.13Zm-71.9,41.94c-20.32.46-40.66.38-60.99,0-8.36-.15-14.21-6.56-14.31-15.07-.23-19.83-.24-39.67,0-59.5.1-8.61,6.88-15.12,14.82-15.18,8.11-.06,14.86,6.64,15.01,15.52.23,12.83.07,25.66.07,38.5,0,1.79,0,3.59,0,5.91,14.95,0,29.11-.05,43.27.02,7.6.04,13.26,3.62,15.55,9.56,3.68,9.57-2.75,19.99-13.43,20.23Z"/>
  <path class="uuid-90ed9cd1-41b5-4279-8eec-c2e0e415de6b" d="m535.07,175.08c0-.05,0-.1,0-.15h-.14c0,.05,0,.1,0,.15.05,0,.09,0,.14,0Z"/>
  <path class="uuid-90ed9cd1-41b5-4279-8eec-c2e0e415de6b" d="m445.07,175.08c0-.05,0-.1,0-.15h-.14c0,.05,0,.1,0,.15h.14Z"/>
  <path class="uuid-90ed9cd1-41b5-4279-8eec-c2e0e415de6b" d="m624.96,263.08c.02-24.65.12-49.31-.04-73.96-.05-8.17-6.52-14.07-15.03-14.09-24.94-.05-49.88.02-74.82.05-.02,14.61.09,29.22-.11,43.83-.16,11.5-9.56,18.49-19.85,15.1-6.28-2.07-10.04-7.72-10.09-15.6-.1-14.44-.07-28.89-.09-43.33h-59.86c-.02,14.61.09,29.22-.11,43.83-.16,11.5-9.56,18.49-19.85,15.1-6.28-2.07-10.04-7.72-10.09-15.6-.1-14.44-.07-28.89-.09-43.33h-59.86c-.02,14.61.09,29.22-.11,43.83-.16,11.5-9.56,18.49-19.85,15.1-6.28-2.07-10.04-7.72-10.09-15.6-.1-14.44-.07-28.89-.09-43.33-19.95,0-39.91,0-59.86,0-.02,14.61.09,29.22-.11,43.83-.16,11.5-9.56,18.49-19.85,15.1-6.28-2.07-10.04-7.72-10.09-15.6-.1-14.44-.07-28.89-.09-43.33-25.33-.02-50.66-.04-75.98-.08-7.72-.01-11.96,4.62-14.94,11v79h480.54c.22-.99.42-1.45.42-1.92Z"/>
  <path class="uuid-90ed9cd1-41b5-4279-8eec-c2e0e415de6b" d="m265.07,175.08c0-.05,0-.1,0-.15h-.14c0,.05,0,.1,0,.15h.14Z"/>
  <path class="uuid-90ed9cd1-41b5-4279-8eec-c2e0e415de6b" d="m355.07,175.08c0-.05,0-.1,0-.15h-.14c0,.05,0,.1,0,.15h.14Z"/>
  <path class="uuid-90ed9cd1-41b5-4279-8eec-c2e0e415de6b" d="m235.07,174.93h-.14c0,.05,0,.1,0,.15.05,0,.09,0,.14,0,0-.05,0-.1,0-.15Z"/>
  <path class="uuid-90ed9cd1-41b5-4279-8eec-c2e0e415de6b" d="m265.05,162.74c.74-8.95-2.69-15.25-11.05-18.74h-8c-8.36,3.49-11.79,9.8-11.05,18.74.33,4.04.1,8.12.12,12.19h29.86c.01-4.06-.21-8.15.12-12.19Z"/>
  <path class="uuid-90ed9cd1-41b5-4279-8eec-c2e0e415de6b" d="m325.07,174.93h-.14c0,.05,0,.1,0,.15h.14c0-.05,0-.1,0-.15Z"/>
  <path class="uuid-90ed9cd1-41b5-4279-8eec-c2e0e415de6b" d="m355.05,162.74c.74-8.95-2.69-15.25-11.05-18.74h-8c-8.36,3.49-11.79,9.8-11.05,18.74.33,4.04.1,8.12.12,12.19h29.86c.01-4.06-.21-8.15.12-12.19Z"/>
  <path class="uuid-90ed9cd1-41b5-4279-8eec-c2e0e415de6b" d="m445.05,162.74c.74-8.95-2.69-15.25-11.05-18.74h-8c-8.36,3.49-11.79,9.8-11.05,18.74.33,4.04.1,8.12.12,12.19h29.86c.01-4.06-.21-8.15.12-12.19Z"/>
  <path class="uuid-90ed9cd1-41b5-4279-8eec-c2e0e415de6b" d="m415.07,174.93h-.14c0,.05,0,.1,0,.15h.14c0-.05,0-.1,0-.15Z"/>
  <path class="uuid-90ed9cd1-41b5-4279-8eec-c2e0e415de6b" d="m535.05,162.74c.74-8.95-2.69-15.25-11.05-18.74h-8c-8.36,3.49-11.79,9.8-11.05,18.74.33,4.04.1,8.12.12,12.19h29.86c.01-4.06-.21-8.15.12-12.19Z"/>
  <path class="uuid-90ed9cd1-41b5-4279-8eec-c2e0e415de6b" d="m505.07,174.93h-.14c0,.05,0,.1,0,.15h.14c0-.05,0-.1,0-.15Z"/>
</svg>