<?xml version="1.0" encoding="UTF-8"?>
<svg id="uuid-5b9b9376-5284-45c3-ac1e-68595e2a1c91" data-name="Calque 1" xmlns="http://www.w3.org/2000/svg" viewBox="0 0 800 800">
  <defs>
    <style>
      .uuid-23b0da7c-f32f-481c-9258-1a94a2e55459 {
        stroke-width: 0px;
      }
    </style>
  </defs>
  <path class="uuid-23b0da7c-f32f-481c-9258-1a94a2e55459" d="m113,395.52c4.07-9.39,11.19-12.88,21.37-12.47,13.98.57,27.99.11,41.99.15,10.31.03,17.74,7.11,17.74,16.79,0,9.7-7.42,16.77-17.73,16.8-14,.05-28.02-.41-41.99.15-10.18.41-17.28-3.1-21.37-12.47v-8.97Z"/>
  <path class="uuid-23b0da7c-f32f-481c-9258-1a94a2e55459" d="m404.48,113c9.37,4.09,12.88,11.19,12.47,21.37-.56,13.98-.11,27.99-.15,41.99-.03,10.31-7.11,17.73-16.8,17.73-9.69,0-16.77-7.43-16.8-17.74-.04-14,.43-28.02-.16-41.99-.43-10.2,3.11-17.27,12.47-21.36h8.97Z"/>
  <path class="uuid-23b0da7c-f32f-481c-9258-1a94a2e55459" d="m687,404.48c-4.11,9.33-11.19,12.88-21.37,12.47-13.98-.57-27.99-.11-42-.15-10.3-.03-17.74-7.13-17.74-16.8,0-9.67,7.44-16.76,17.74-16.79,14-.04,28.02.42,41.99-.16,10.19-.42,17.27,3.13,21.37,12.47v8.97Z"/>
  <path class="uuid-23b0da7c-f32f-481c-9258-1a94a2e55459" d="m395.52,687c-9.33-4.11-12.9-11.17-12.47-21.37.58-13.98.11-27.99.16-41.99.03-10.31,7.11-17.73,16.8-17.73,9.69,0,16.77,7.42,16.8,17.73.04,14-.41,28.02.15,41.99.41,10.18-3.14,17.26-12.47,21.37h-8.97Z"/>
  <path class="uuid-23b0da7c-f32f-481c-9258-1a94a2e55459" d="m400.28,230.01c93.72.39,170.24,77.16,169.73,170.27-.52,93.81-77.12,170.15-170.31,169.72-93.71-.44-170.24-77.22-169.73-170.29.51-93.79,77.08-170.09,170.3-169.7Zm16.54,153.17c0-8.95.05-17.13-.01-25.32-.08-11.36-6.87-18.71-17.07-18.6-9.85.11-16.5,7.51-16.55,18.57-.06,13.24-.05,26.49,0,39.73.04,12.42,6.94,19.22,19.51,19.25,12.5.04,25,.04,37.49,0,11.22-.04,19.14-6.97,19.22-16.71.08-9.71-7.9-16.85-19.01-16.91-7.62-.05-15.24,0-23.57,0Z"/>
  <path class="uuid-23b0da7c-f32f-481c-9258-1a94a2e55459" d="m517.78,649.49c-.07,8.94-4.99,15.38-12.28,17.32-7.61,2.02-15.92-.82-19.01-7.95-6.96-16.02-13.5-32.25-19.55-48.64-2.78-7.52,2.54-16.44,10.23-19.42,8.19-3.18,17.66.12,21.23,8.41,6.56,15.2,12.51,30.66,18.62,46.05.67,1.68.66,3.63.76,4.23Z"/>
  <path class="uuid-23b0da7c-f32f-481c-9258-1a94a2e55459" d="m191.88,210.7c.67-8.89,3.63-14.2,10.1-17.05,6.38-2.82,12.81-2.3,17.78,2.44,12.16,11.6,24.11,23.45,35.64,35.67,6.1,6.47,5.13,16.76-1.06,22.83-6.18,6.07-16.39,6.76-22.86.61-12.04-11.45-23.78-23.25-35.21-35.31-2.61-2.75-3.47-7.17-4.39-9.18Z"/>
  <path class="uuid-23b0da7c-f32f-481c-9258-1a94a2e55459" d="m149.98,517.79c-8.46.03-14.93-4.96-16.88-12.6-1.97-7.73,1.38-16.01,8.79-19.17,15.39-6.57,30.93-12.83,46.59-18.73,8.04-3.03,17.01,1.42,20.42,9.16,3.47,7.88.91,17.67-7.01,21.21-15.95,7.12-32.32,13.31-48.55,19.8-1.16.46-2.58.26-3.36.33Z"/>
  <path class="uuid-23b0da7c-f32f-481c-9258-1a94a2e55459" d="m333.71,192.9c-.06,8.13-5.27,14.7-12.92,16.82-7.14,1.97-15.47-.92-18.52-7.86-6.96-15.83-13.53-31.85-19.53-48.06-2.95-7.96,2.24-17.1,9.98-20.13,7.73-3.03,17.36-.3,20.72,7.32,7.11,16.16,13.32,32.72,19.85,49.14.4,1.01.34,2.19.43,2.78Z"/>
  <path class="uuid-23b0da7c-f32f-481c-9258-1a94a2e55459" d="m607.96,211.54c-1.13,2.05-2.61,6.69-5.62,9.88-10.51,11.14-21.46,21.87-32.41,32.58-7.34,7.18-17.87,7.16-24.55.3-6.55-6.73-6.48-16.97.54-24.14,10.85-11.08,21.83-22.02,32.89-32.89,5.44-5.34,11.93-6.67,19.05-3.69,6.18,2.58,10.18,8.85,10.09,17.96Z"/>
  <path class="uuid-23b0da7c-f32f-481c-9258-1a94a2e55459" d="m210.84,608.06c-8.46-.43-13.94-3.17-16.98-9.53-3.09-6.47-2.69-13.13,2.22-18.29,11.59-12.17,23.46-24.1,35.67-35.64,6.44-6.09,16.77-5.13,22.83,1.06,5.91,6.04,6.88,16.11.95,22.41-11.64,12.37-23.78,24.29-36.07,36.02-2.49,2.38-6.58,3.08-8.62,3.98Z"/>
  <path class="uuid-23b0da7c-f32f-481c-9258-1a94a2e55459" d="m608.12,589.18c-.64,8.82-3.48,14.23-9.94,17.12-6.57,2.94-13.11,2.3-18.25-2.64-11.99-11.51-23.8-23.23-35.23-35.29-6.14-6.48-5.32-16.68.84-22.84,6.17-6.16,16.33-6.98,22.84-.83,12.07,11.42,23.79,23.23,35.24,35.28,2.62,2.76,3.53,7.14,4.49,9.2Z"/>
  <path class="uuid-23b0da7c-f32f-481c-9258-1a94a2e55459" d="m649.49,282.21c8.99.09,15.47,5.08,17.36,12.36,1.97,7.58-.92,15.9-8.07,19-16.03,6.95-32.26,13.47-48.66,19.48-7.79,2.86-16.58-2.65-19.49-10.85-2.95-8.3.67-17.26,9.17-20.86,14.9-6.32,29.98-12.21,45.03-18.18,1.85-.73,3.96-.82,4.66-.95Z"/>
  <path class="uuid-23b0da7c-f32f-481c-9258-1a94a2e55459" d="m490.67,211.75c-15.09.14-23.63-11.23-19.31-22.33,6-15.41,12.62-30.59,19.47-45.65,3.75-8.24,13.18-11.41,21.31-8.11,8.16,3.32,12.85,12.79,9.49,21.29-6.1,15.38-12.73,30.55-19.46,45.67-2.73,6.13-8.04,9.06-11.49,9.13Z"/>
  <path class="uuid-23b0da7c-f32f-481c-9258-1a94a2e55459" d="m312.93,588.22c11.76.05,19.99,11.46,15.6,22.63-5.99,15.22-12.48,30.25-19.23,45.15-3.88,8.56-13.36,11.77-21.69,8.21-8.14-3.48-12.55-12.92-9.14-21.44,6.08-15.18,12.58-30.21,19.23-45.15,2.82-6.33,8.23-9.39,15.24-9.41Z"/>
  <path class="uuid-23b0da7c-f32f-481c-9258-1a94a2e55459" d="m588.22,487.05c.04-11.75,11.44-19.97,22.64-15.58,15.22,5.96,30.25,12.48,45.15,19.22,8.53,3.86,11.76,13.41,8.2,21.71-3.51,8.17-12.9,12.56-21.41,9.14-15.18-6.09-30.21-12.58-45.16-19.24-6.32-2.82-9.41-8.23-9.41-15.24Z"/>
  <path class="uuid-23b0da7c-f32f-481c-9258-1a94a2e55459" d="m211.8,310.11c-.13,14.73-11.6,22.79-22.79,18.37-15.04-5.94-29.9-12.36-44.67-18.95-8.55-3.81-12.05-13.22-8.71-21.56,3.37-8.42,12.99-12.95,21.75-9.44,15.01,6.01,29.87,12.43,44.66,18.96,6.55,2.9,9.77,8.37,9.76,12.62Z"/>
</svg>