<?xml version="1.0" encoding="UTF-8"?>
<svg id="uuid-0adef76a-0162-471d-8d6b-5e77c2937c25" data-name="Calque 1" xmlns="http://www.w3.org/2000/svg" viewBox="0 0 800 800">
  <defs>
    <style>
      .uuid-d9d87785-4e8d-49af-8a68-ab5009779ca4 {
        stroke-width: 0px;
      }
    </style>
  </defs>
  <path class="uuid-d9d87785-4e8d-49af-8a68-ab5009779ca4" d="m324.5,657.6c0-3.65,0-6.57,0-9.48,0-65.86,0-131.72,0-197.58,0-15.4-3.33-18.81-18.45-18.82-29.98-.02-59.95-.03-89.93,0-13.56.02-17.01,3.48-17.01,16.99-.02,66.6,0,133.2,0,199.79,0,2.86,0,5.73,0,9.21-17.91,0-34.81.37-51.67-.17-7.54-.24-11.55-5.85-11.6-14.34-.12-22.61-.05-45.22-.05-67.83,0-43.01.08-86.01-.1-129.02-.02-5.08,1.17-7.86,6.37-9.61,60.53-20.45,120.98-41.14,181.46-61.73,10.89-3.71,21.79-7.43,32.79-10.79,4.15-1.27,6.03-3.13,5.73-7.72-.41-6.34-.1-12.73-.1-20.19-3.13.92-5.58,1.55-7.98,2.35-65.47,21.85-130.97,43.59-196.36,65.66-13.44,4.54-26.45,10.32-39.67,15.49-9.06,3.54-15.94,1.28-19.01-6.18-3-7.27.42-14.25,9.73-17.54,52.4-18.48,104.84-36.86,157.36-54.96,29.62-10.21,59.41-19.97,89.23-29.6,5.44-1.75,6.95-4.38,6.86-9.93-.35-21.37-.14-42.76-.14-64.14,0-2.67,0-5.35,0-9.09,5.95,1.45,11.11,2.59,16.21,3.98,93.03,25.36,186.03,50.82,279.12,75.98,5.66,1.53,7.17,3.79,7.17,9.39-.16,107.64-.11,215.27-.13,322.91,0,13.75-3.73,17.42-17.43,17.42-23.32,0-46.64,0-71.05,0,0-3.3,0-6.15,0-8.99-.02-39.32.25-78.64-.15-117.96-.32-31.16-21.95-55.65-52.6-60.67-34.03-5.58-66.94,18.94-71.44,53.39-.79,6.07-1.17,12.23-1.19,18.35-.11,35.63-.05,71.27-.05,106.9v8.49h-125.86Zm188.63-364.11c-27.98.06-49.85,22.04-49.83,50.06.03,27.72,22.52,50.14,50.13,49.98,27.63-.16,50.28-22.89,50.13-50.28-.15-27.69-22.58-49.82-50.43-49.76Z"/>
  <path class="uuid-d9d87785-4e8d-49af-8a68-ab5009779ca4" d="m339.38,169.89c8.57,2.27,18.74,4.91,28.88,7.67,106.44,28.99,212.87,58,319.3,87.02,1.65.45,3.31.89,4.93,1.44,7.21,2.48,11.04,8.88,9.24,15.35-1.96,7.05-8.51,11.01-16.08,9.13-11.16-2.78-22.21-5.99-33.3-9.01-104.36-28.41-208.71-56.82-313.07-85.24-7.01-1.91-14.06-3.79-14.58-12.97-.46-8.03,4.96-13.6,14.69-13.39Z"/>
  <path class="uuid-d9d87785-4e8d-49af-8a68-ab5009779ca4" d="m613.81,218.74c-24.39-6.59-48.2-12.93-71.92-19.61-1.53-.43-3.27-3.44-3.31-5.28-.27-13-.28-26.01-.05-39.02.15-8.06,4.92-12.72,12.96-12.8,16.44-.16,32.88-.14,49.32,0,7.4.06,12.8,4.52,12.89,11.32.27,21.56.1,43.14.1,65.4Z"/>
  <path class="uuid-d9d87785-4e8d-49af-8a68-ab5009779ca4" d="m223.93,657.41v-49.33h75.16v49.33h-75.16Z"/>
  <path class="uuid-d9d87785-4e8d-49af-8a68-ab5009779ca4" d="m299.18,482.21c-15.25,0-29.92,0-44.6,0-8.59,0-17.19.24-25.76-.2-1.83-.09-4.92-2.51-5.05-4.05-.56-6.79-.24-13.64-.24-21.07h75.66v25.32Z"/>
  <path class="uuid-d9d87785-4e8d-49af-8a68-ab5009779ca4" d="m299.11,532.13h-75.55c0-7.43-.17-14.71.17-21.96.06-1.22,2.3-3.35,3.55-3.37,23.76-.2,47.52-.15,71.83-.15v25.48Z"/>
  <path class="uuid-d9d87785-4e8d-49af-8a68-ab5009779ca4" d="m299.08,582.42c-1.74.14-3.16.34-4.58.34-23.25.02-46.5.01-70.37.01v-24.95h74.95v24.59Z"/>
</svg>