<?xml version="1.0" encoding="UTF-8"?>
<svg id="uuid-2fa7a852-e6a5-4b79-a434-e9e0edcab4e5" data-name="uuid-85d55355-37f6-4eef-95ec-a794a123d625" xmlns="http://www.w3.org/2000/svg" viewBox="0 0 800 800">
  <defs>
    <style>
      .uuid-c0c52440-c288-4e36-945f-c5c96db86c31 {
        stroke-width: 0px;
      }
    </style>
  </defs>
  <path class="uuid-c0c52440-c288-4e36-945f-c5c96db86c31" d="M372.85,616.17c3.68-5.99,6.49-11.23,10.01-15.95,1.13-1.52,4.1-2.34,6.23-2.35,39.08-.14,78.16-.1,117.25-.1,15.64,0,22.4-6.76,22.41-22.36,0-13.8-.09-27.59.02-41.39.21-26.55,20.07-46.41,46.63-46.61,14.75-.11,29.5.05,44.25-.05,11.46-.08,19.4-7.7,19.42-18.97.08-60.17.04-120.33.03-180.5,0-.74-.14-1.47-.26-2.54H160.85c0,2.2,0,4.25,0,6.3,0,47.52.07,95.04-.16,142.56-.02,3.22-1.73,6.8-3.61,9.58-4.33,6.42-9.23,12.44-14.63,19.59v-6.45c0-77.79-.01-155.59,0-233.38,0-29.53,19.4-48.89,48.95-48.92,21.46-.02,42.91,0,64.37,0,1.88,0,3.75,0,6.24,0,0,8.85-.02,17.22,0,25.59.06,17.14,11.73,29.62,27.65,29.59,15.91-.03,27.47-12.48,27.53-29.71.03-8.22,0-16.44,0-25.06h165.58c0,9.34-.16,18.66.04,27.98.25,11.47,7.81,21.61,18.48,25.3,10.99,3.8,23.75.65,30.31-9.02,3.36-4.95,5.37-11.42,6.06-17.43,1-8.69.26-17.57.26-27.24,2.07,0,3.89,0,5.71,0,22.03,0,44.06-.05,66.09.01,28,.08,47.73,19.76,47.75,47.82.06,81.63,0,163.25.05,244.88,0,11.36-3.99,20.79-12.01,28.8-35.65,35.61-71.28,71.25-106.76,107.02-8.9,8.97-19.21,13.17-31.87,13.1-42.53-.23-85.07-.09-127.6-.09-1.88,0-3.76,0-6.46,0Z"/>
  <path class="uuid-c0c52440-c288-4e36-945f-c5c96db86c31" d="M381.58,533.77c-.46,66.64-54.34,119.65-121.11,119.15-65.76-.49-118.63-55.01-118-121.69.62-65.15,55.07-117.94,121.1-117.42,65.06.51,118.45,54.78,118,119.96ZM257.38,455.04c-9.81.11-21.9,5.8-31.17,17.15-6.76,8.28-10.22,17.92-10.09,28.66.06,5.31,4.16,9.24,9.06,9.27,4.65.03,8.5-3.55,9.19-8.59.15-1.14.08-2.3.21-3.44,1.77-15.4,14.92-25.91,30.64-24.52,14.23,1.26,25.4,14.39,24.3,29.13-.87,11.54-7.12,19.42-17.72,24.08-12.38,5.44-19.7,16.7-18.99,28.78.3,5.13,3.69,8.85,8.45,9.27,4.83.43,9.65-2.78,9.67-7.71.03-8.04,4.32-11.71,11.03-14.87,19.81-9.34,29.79-30.99,24.72-52.26-4.83-20.28-23.33-34.82-49.3-34.93ZM262.24,589.55c-6.29-.11-11.42,4.8-11.48,10.98-.05,5.93,4.76,10.94,10.72,11.16,6.29.23,11.48-4.5,11.76-10.71.27-6.1-4.76-11.32-11.01-11.43Z"/>
  <path class="uuid-c0c52440-c288-4e36-945f-c5c96db86c31" d="M298.81,179.8c0,7.09.09,14.18-.03,21.27-.1,6.29-3.8,10.31-9.18,10.31-5.39,0-9.11-4.02-9.15-10.33-.09-14.56-.09-29.12,0-43.68.04-6.31,3.76-10.3,9.17-10.29,5.4,0,9.07,4,9.16,10.31.11,7.47.03,14.94.03,22.41Z"/>
  <path class="uuid-c0c52440-c288-4e36-945f-c5c96db86c31" d="M501.16,179.21c0-7.28-.09-14.56.03-21.84.1-6.31,3.76-10.3,9.17-10.3,5.4,0,9.12,4,9.16,10.31.1,14.56.1,29.12,0,43.68-.04,6.29-3.79,10.31-9.17,10.31-5.39,0-9.06-4.02-9.16-10.32-.11-7.28-.03-14.56-.03-21.84Z"/>
</svg>