<?xml version="1.0" encoding="UTF-8"?>
<svg id="uuid-730d64a8-4b1a-4347-9552-810da6d22776" data-name="Calque 1" xmlns="http://www.w3.org/2000/svg" viewBox="0 0 800 800">
  <defs>
    <style>
      .uuid-5a3ab61c-2af1-4ac0-9d56-7c80159db4cb {
        stroke-width: 0px;
      }
    </style>
  </defs>
  <path class="uuid-5a3ab61c-2af1-4ac0-9d56-7c80159db4cb" d="m251.2,441.51c2.03,0,3.84,0,5.66,0,24.06,0,48.12.41,72.17-.11,32.76-.71,61.27,10.19,86.85,29.94,6.34,4.9,12.76,9.69,19.06,14.64,4.9,3.85,10.3,5.48,16.58,5.38,15.29-.24,30.58-.19,45.87-.04,12.04.12,21.11,6.54,23.43,16.16,3.37,13.95-6.74,26.7-21.48,26.74-32.63.1-65.27.03-97.9.03-8.11,0-10.93,1.65-10.82,6.3.11,4.53,2.98,6.11,11.13,6.11,32.07,0,64.15.02,96.22,0,15.2-.01,26.37-6.58,33.14-20.41.81-1.65,2.47-3.29,4.14-4.07,30.51-14.22,61.03-28.43,91.67-42.39,13.72-6.25,28.85-1.25,35.78,11.27,7.05,12.72,3.09,27.41-9.52,36.22-48.11,33.64-97.3,65.52-149.87,91.84-22.29,11.16-45.09,21.04-69.69,26.37-16.2,3.51-31.42.34-46.57-4.61-36.6-11.96-70.65-29.53-104.31-47.9-9.64-5.26-19.23-10.64-28.63-16.3-1.65-.99-3.25-3.67-3.26-5.57-.18-41.95-.14-83.91-.12-125.86,0-1.07.25-2.14.45-3.76Z"/>
  <path class="uuid-5a3ab61c-2af1-4ac0-9d56-7c80159db4cb" d="m419.92,328.34c-44.1,38.75-104.35,31.71-139.13-2.62-34.35-33.91-39.91-87.77-12.93-128.05,27.25-40.69,79.45-55.71,124.39-36.18,40.83,17.74,72.48,66.53,55.3,123.53,13.89,12.89,30.62,19.42,48.96,22.13,6.16.91,9.96,3.85,12.27,9.71,2.38,6.04,5.39,11.88,8.63,17.51,1.07,1.85,3.61,3.7,5.68,3.98,8.3,1.12,16.72,1.31,25,2.55,2.68.4,5.9,2.38,7.38,4.62,5.03,7.59,9.18,15.77,14.18,23.39,1.36,2.06,4.4,3.76,6.91,4.19,8.8,1.5,17.76,2.07,26.52,3.7,2.33.43,5.4,3.07,6.05,5.31,3.77,12.83,7.03,25.81,10.22,38.8,1.46,5.93-.84,8.63-7,9.29-9.44,1.01-18.86,2.36-28.32,2.94-2.84.18-6.19-1.11-8.66-2.73-50.18-32.86-100.26-65.86-150.36-98.83-1.7-1.12-3.43-2.19-5.08-3.25Zm-76.75-96.39c-.09-13.57-11.19-24.53-24.68-24.37-13.53.16-24.42,11.36-24.2,24.87.22,13.58,11.32,24.52,24.75,24.37,13.56-.15,24.22-11.13,24.13-24.88Z"/>
  <path class="uuid-5a3ab61c-2af1-4ac0-9d56-7c80159db4cb" d="m133.85,508.05c0-22.94-.02-45.88,0-68.81.02-15.71,8.88-24.51,24.66-24.53,18.65-.03,37.3-.05,55.95,0,14.81.04,23.9,8.75,23.94,23.53.13,46.62.13,93.24,0,139.86-.04,14.95-8.83,23.42-23.78,23.46-19.21.04-38.42.06-57.63,0-14.12-.05-23.07-8.89-23.12-23.01-.1-23.5-.03-46.99-.03-70.49Zm42.23,45.26c.03,7.45,6.21,13.59,13.49,13.4,7.1-.18,13.03-6.17,13.18-13.3.15-7.29-5.98-13.49-13.38-13.51-7.56-.03-13.33,5.79-13.29,13.42Z"/>
</svg>