<?xml version="1.0" encoding="UTF-8"?>
<svg id="uuid-c7ec171a-47af-454a-b974-a0e0a5b0b775" data-name="Calque 1" xmlns="http://www.w3.org/2000/svg" viewBox="0 0 800 800">
  <defs>
    <style>
      .uuid-d053606b-4836-448e-977a-ef8202e99020 {
        stroke-width: 0px;
      }
    </style>
  </defs>
  <path class="uuid-d053606b-4836-448e-977a-ef8202e99020" d="m420.15,570.22v-240.99h180.84v240.99h-180.84Zm31.21-140.57c1.18-.61,4.01-1.36,5.82-3.14,20.12-19.88,40.14-39.87,60.05-59.96,4.13-4.17,4.02-9.87.37-13.78-3.7-3.96-10.01-4.36-14.24-.18-20.25,20.03-40.33,40.23-60.46,60.39-.68.68-1.23,1.54-1.67,2.4-3.37,6.55,1.24,14.14,10.12,14.26Zm19.51-71.08c-2.2-2.69-3.93-6.67-6.76-7.73-2.91-1.1-7.52-.34-10.27,1.39-4.05,2.55-7.26,6.55-10.57,10.17-3.89,4.25-3.79,10.02-.08,13.79,3.74,3.81,9.46,4.05,13.78.19,3.65-3.27,7.13-6.77,10.34-10.47,1.44-1.66,2.02-4.06,3.55-7.34Z"/>
  <path class="uuid-d053606b-4836-448e-977a-ef8202e99020" d="m197.9,399.89h60.39c0,10.42.29,20.58-.06,30.73-.69,20.02,6.69,35.58,22.07,48.91,25.98,22.52,34.88,51.61,24.71,84.57-10.13,32.81-33.65,52.21-67.61,56.9-48.15,6.65-90.83-32.02-90.28-80.68.29-25.31,10.36-46.13,29.94-61.97,14.2-11.49,20.97-25.99,20.87-44.02-.06-11.35-.01-22.71-.01-34.44Z"/>
  <path class="uuid-d053606b-4836-448e-977a-ef8202e99020" d="m400.36,641.18c88.87,0,177.73-.04,266.6.13,4.03,0,8.78,1,11.92,3.28,4.63,3.36,4.29,29.66.04,33.64-1.73,1.62-4.33,2.48-6.69,3.19-1.63.49-3.51.12-5.28.12-178.12,0-356.25,0-534.37,0-12.12,0-14.76-2.67-14.77-14.89,0-4.91-.08-9.83.02-14.74.15-6.6,3.57-10.19,10.04-10.63,2.15-.15,4.32-.08,6.49-.09,88.67,0,177.34,0,266.01,0Z"/>
  <path class="uuid-d053606b-4836-448e-977a-ef8202e99020" d="m370.75,293.92c9.61,9.65,18.67,18.6,27.5,27.78,1.14,1.18,1.45,3.55,1.46,5.37.07,81.94.07,163.88-.02,245.82,0,1.95-.59,4.44-1.86,5.78-8.65,9.09-17.56,17.93-26.5,26.97-2.54-4.65-3.1-303.12-.58-311.72Z"/>
  <path class="uuid-d053606b-4836-448e-977a-ef8202e99020" d="m651.07,606.34c-10.2-10.12-19.43-19.13-28.42-28.38-1.14-1.17-1.41-3.58-1.41-5.41-.07-81.78-.06-163.55-.02-245.33,0-1.69.04-3.95,1.05-4.99,9.1-9.35,18.43-18.49,28.8-28.8v312.91Z"/>
  <path class="uuid-d053606b-4836-448e-977a-ef8202e99020" d="m636.8,279.2c-10.21,10.27-19.36,19.61-28.73,28.73-1.03,1.01-3.28,1.07-4.97,1.07-61.69.05-123.38.05-185.07-.01-1.84,0-4.24-.24-5.41-1.37-9.29-8.92-18.36-18.09-28.73-28.42h252.91Z"/>
  <path class="uuid-d053606b-4836-448e-977a-ef8202e99020" d="m636.38,620.72h-251.89c2.1-2.34,3.37-3.88,4.77-5.29,7.2-7.25,14.32-14.59,21.76-21.58,1.77-1.66,4.69-2.97,7.08-2.97,61.7-.16,123.41-.13,185.11-.09,1.5,0,3.54-.05,4.43.83,9.42,9.33,18.66,18.84,28.74,29.1Z"/>
  <path class="uuid-d053606b-4836-448e-977a-ef8202e99020" d="m228.7,359.35c12.55,0,25.11-.05,37.66.02,8.09.04,12.16,3.65,11.99,10.37-.16,6.3-4.37,9.79-12.03,9.8-25.5.03-51,.03-76.5,0-7.64,0-11.85-3.52-11.99-9.83-.15-6.64,4-10.29,12.03-10.33,12.94-.06,25.89-.02,38.84-.02Z"/>
  <path class="uuid-d053606b-4836-448e-977a-ef8202e99020" d="m191.67,181.4c-4.23,11.84-4.63,22.75-.35,33.5-12.15,7.76-40.07,4.89-50.82-7.81-5.23-6.18-4.79-12.82,1.75-18.56,9.22-8.08,20.4-10.65,32.28-10.04,5.55.28,11.04,1.83,17.14,2.9Z"/>
  <path class="uuid-d053606b-4836-448e-977a-ef8202e99020" d="m232.47,238.54c11.96-1.61,21.24-7.37,28.56-16.77,14.77,12.11,21.15,27.4,19.33,45.92-.84,8.51-7.98,12.8-16.26,10.6-14.89-3.97-30.43-23.2-31.64-39.74Z"/>
  <path class="uuid-d053606b-4836-448e-977a-ef8202e99020" d="m260.66,175.4c-7.12-9.65-16.61-14.97-29.12-16.78,1.19-4.19,1.94-8.17,3.44-11.82,4.53-11.03,11.97-19.72,22.42-25.55,11.37-6.34,20.05-2.14,22.41,10.59,2.5,13.45-5.37,31.77-19.16,43.56Z"/>
  <path class="uuid-d053606b-4836-448e-977a-ef8202e99020" d="m175.33,136.64c.11-1.96.11-3.94.33-5.89,1.03-9.11,7.89-14.06,16.69-11.5,10.07,2.93,17.31,9.84,23.09,18.29.7,1.02.5,2.92.2,4.3-1.19,5.54-2.74,11-3.85,16.55-1.2,5.99-5.23,8.16-11.04,6.09-4.96-1.76-10.21-2.72-15.13-4.56-2.29-.86-5.19-2.54-5.95-4.56-2.27-5.96-3.61-12.28-5.31-18.45.32-.09.64-.19.95-.28Z"/>
  <path class="uuid-d053606b-4836-448e-977a-ef8202e99020" d="m286.79,178.57c10.52.88,18.85,3.47,26,9.04,8.8,6.85,8.65,15.61-.25,22.43-6.87,5.26-14.78,8.03-23.3,8.67-1.9.14-4.27-1.3-5.85-2.66-4.29-3.69-8.13-7.89-12.41-11.59-4.13-3.56-4.3-8.08-.34-11.59,4.23-3.76,8.15-7.86,12.33-11.68,1.42-1.3,3.22-2.2,3.83-2.61Z"/>
  <path class="uuid-d053606b-4836-448e-977a-ef8202e99020" d="m175.79,260.9c.45-3.23.62-6.4,1.36-9.43,1.9-7.71,3.78-15.31,14.43-15.17,3.31.04,6.68-2.03,9.97-3.28,5.21-1.97,9.68.67,10.55,6.05.72,4.42,1,9.21,2.98,13.06,2.74,5.34,1.13,9.04-2.51,12.49-3.96,3.75-7.92,7.63-12.44,10.61-5.16,3.4-11.15,5.49-17.17,2.05-6.33-3.61-6.44-10.25-7.17-16.39Z"/>
  <path class="uuid-d053606b-4836-448e-977a-ef8202e99020" d="m227.73,218.99c-10.95-.25-20.27-9.89-19.99-20.69.28-11.01,9.82-20.16,20.77-19.92,11,.24,20.37,9.93,19.98,20.68-.4,11.11-9.84,20.17-20.76,19.93Z"/>
  <path class="uuid-d053606b-4836-448e-977a-ef8202e99020" d="m227.84,277.63c9.2,4.96,11.03,12.48,10.51,21.87-.72,13.06-.18,26.18-.18,39.58h-20.12v-10.27c0-11.38.15-22.77-.07-34.15-.09-4.74.36-8.74,4.8-11.62,2.06-1.34,3.48-3.67,5.06-5.4Z"/>
</svg>
