<?xml version="1.0" encoding="UTF-8"?>
<svg id="uuid-96ea2f8f-ffed-4086-ab75-8aff192c9f11" data-name="Calque 1" xmlns="http://www.w3.org/2000/svg" viewBox="0 0 800 800">
  <defs>
    <style>
      .uuid-dc13ccfc-0ad6-4f21-9a50-eef77a8c2f4e {
        stroke-width: 0px;
      }
    </style>
  </defs>
  <path class="uuid-dc13ccfc-0ad6-4f21-9a50-eef77a8c2f4e" d="m699.35,432.39c-16.92,16.9-33.79,33.87-50.79,50.69-31.44,31.11-62.96,62.15-94.45,93.21-8.46,8.34-12.72,8.38-21.09.11-54.74-54.11-109.42-108.29-164.27-162.29-9.97-9.81-15.34-21.04-15.68-35.18-.27-11.58-1.94-23.12-3.03-35.24-16.06,6.77-31.85,9.77-49.37,8.35,2.94-6.51,5.2-12.26,8.18-17.6.81-1.44,3.77-1.83,5.83-2.4,9.84-2.73,19.73-5.31,29.57-8.05,3.07-.85,3.89-2.82,3.52-6.18-1.43-13.15-2.42-26.36-3.63-39.54-1.74-19,11.35-39,29.88-45.56,1.62-.57,3.25-1.09,4.85-1.63-6.03-23.37-33.95-44.52-62.6-47.7-28.74-3.19-60.2,13.28-72.99,38.51,1.96.79,3.88,1.6,5.82,2.33,42.35,16.04,67.5,60.11,59.61,104.21-.62,3.48-1.93,4.36-5.43,3.99-14.25-1.51-27.23-6.18-38.79-14.69-4.46-3.28-9.38-3.67-13.44-.2-2.27,1.94-4.32,5.88-4.01,8.64.33,2.93,3.04,6.24,5.62,8.16,13.7,10.21,29.26,15.9,46.86,17.8-.53,1.59-.8,3.05-1.47,4.29-15.21,28.12-37.09,47.72-69.36,53.82-4.08.77-5.62,3.12-6.71,6.89-18.19,62.86-36.56,125.66-54.7,188.53-1.51,5.22-3.91,8.82-8.78,11.45-10.26,5.55-20.29,11.54-30.28,17.57-4.68,2.82-7.79,2.15-10.42-2.77-5.12-9.61-10.47-19.1-15.84-28.58-2.42-4.28-1.6-7.3,2.82-9.53,3.99-2.02,7.79-4.42,11.82-6.35,4.77-2.29,5.43-5.46,3.11-9.96-2.41-4.66-4.26-9.61-6.8-14.19-2.68-4.84-1.34-7.94,3.12-10.6,4.84-2.89,9.45-6.18,14.24-9.16,3.45-2.14,4.12-4.91,2.44-8.45-2.5-5.27-4.9-10.59-7.54-15.78-2.05-4.03-1.26-7.02,2.52-9.44,4.92-3.15,9.66-6.59,14.67-9.57,4.44-2.64,5-5.87,2.9-10.31-2.83-5.97-5.16-12.18-8.1-18.08-2.23-4.47-2.21-8.62-.92-13.4,5.94-21.92,11.39-43.98,17.35-65.9,1.06-3.91.03-6.18-2.69-8.63-29.55-26.64-38.86-59.64-27.81-97.35,11.06-37.72,37.45-60.06,75.87-67.65,7.85-1.55,16.22-.48,24.36-.62-2.02,6.66-4.29,13.26-5.96,20-.88,3.55-2.49,5.4-5.97,6.78-15.58,6.18-23.57,20.94-20.79,37.56,2.56,15.25,16.48,27.43,32.2,28.15,17.71.81,31.6-8.91,36.01-25.22,4.06-15.03-3.32-31.56-17.44-39.03-1.66-.88-3.36-1.69-5.44-2.73,2-6.21,3.89-12.07,5.99-18.61-6.18-2.2-12.5-4.45-18.82-6.69,13.35-28.32,35.73-45.9,65.88-52.57,47.54-10.52,93.87,15.43,110.69,61.1,1.33,3.62,3.28,4.77,6.65,5.07,23.06,2.03,46.11,4.1,69.16,6.17,9.1.82,18.25,1.32,27.29,2.6,9.31,1.32,17.28,5.87,23.94,12.44,56.14,55.4,112.23,110.84,168.33,166.28,1.48,1.46,2.86,3.02,4.28,4.54v8.19Zm-175.49,33.99c3.45-2.2,6.51-3.53,8.77-5.7,10.94-10.52,21.67-21.26,32.46-31.93,4.84-4.79,9.85-9.43,14.45-14.44,4.09-4.46,3.77-9.56-.28-13.52-3.86-3.77-9.36-3.91-13.7-.3-.75.62-1.43,1.32-2.12,2.01-14.67,14.5-29.35,29-44,43.51-1.24,1.23-3.09,2.44-3.37,3.91-.62,3.23-1.48,7.1-.23,9.79,1.24,2.68,4.92,4.24,8.02,6.67Zm-56.84-55.93c3.39-1.62,6.06-2.19,7.71-3.8,16.29-15.88,32.52-31.83,48.53-48,4.23-4.27,3.53-10.27-.78-13.96-4.25-3.64-9.21-3.29-14,1.37-10.58,10.32-21.04,20.76-31.55,31.16-5.25,5.2-10.98,10.02-15.51,15.79-2,2.54-2.79,7.37-1.86,10.47.84,2.79,4.8,4.64,7.46,6.97Z"/>
  <path class="uuid-dc13ccfc-0ad6-4f21-9a50-eef77a8c2f4e" d="m224.01,261.64c8.33,0,15.59,7.41,15.39,15.7-.19,7.68-7.58,14.65-15.4,14.52-8.02-.14-15.34-7.47-15.35-15.38-.01-8.33,6.73-14.85,15.37-14.84Z"/>
</svg>
