<?xml version="1.0" encoding="UTF-8"?>
<svg id="uuid-c50fa61a-302d-45a5-829a-f5347571b19e" data-name="Calque 1" xmlns="http://www.w3.org/2000/svg" viewBox="0 0 800 800">
  <defs>
    <style>
      .uuid-a17e9234-6df8-40f8-8e4b-7b2a9fcdd5c6 {
        stroke-width: 0px;
      }
    </style>
  </defs>
  <path class="uuid-a17e9234-6df8-40f8-8e4b-7b2a9fcdd5c6" d="m386.44,406.55c-79.85.2-145.64-66.72-143.7-148.92,1.79-75.49,67.16-139.58,144.4-139.29,80.05.3,144.84,65.89,144.04,145.82-.79,78.94-65.91,143-144.73,142.39Z"/>
  <path class="uuid-a17e9234-6df8-40f8-8e4b-7b2a9fcdd5c6" d="m425.71,431.24c-29.21,31.47-44.74,68.63-45.13,111.38-.39,42.55,14.31,79.85,43.31,112.41-2.55.21-4.24.47-5.92.47-84.04.02-168.07-.34-252.1.24-24.66.17-48.09-17.82-47.42-47.24.37-16.33-.58-32.84,1.45-48.96,2.95-23.4,16-42.06,32.8-58.04,25.23-24.01,55.75-38.83,88.34-49.83,52.85-17.83,107.31-24.11,162.87-22.3,7.09.23,14.19.03,21.28.03.18.62.35,1.23.53,1.85Z"/>
  <path class="uuid-a17e9234-6df8-40f8-8e4b-7b2a9fcdd5c6" d="m681.57,544.44c-.61,76.33-62.39,137.8-137.93,137.22-76.69-.59-137.98-62.71-137.31-139.16.66-75.41,63.51-136.82,139.26-136.07,75.14.75,136.58,63.1,135.98,138.01Zm-118.2,32.41c0-10.83.09-21.65-.02-32.48-.12-11.06-7.87-19.16-18.53-19.6-10.71-.44-19.72,7.03-19.94,17.99-.46,22.66-.46,45.34-.01,68,.21,10.88,9.3,18.5,19.89,18.1,10.65-.4,18.47-8.5,18.59-19.54.12-10.82.03-21.65.03-32.48Zm6.54-91.66c0-14.36-11.88-26.26-26.08-26.13-14.11.13-26.18,12.41-25.98,26.42.2,14.02,11.88,25.54,25.99,25.63,14.56.09,26.06-11.35,26.06-25.93Z"/>
</svg>
