<?xml version="1.0" encoding="UTF-8"?>
<svg id="uuid-28766a42-83b4-4946-b4d7-38cd832a0d72" data-name="Calque 1" xmlns="http://www.w3.org/2000/svg" viewBox="0 0 18.41 18.41">
  <defs>
    <style>
      .uuid-011bcccb-7135-4f91-a93c-ec0444cce8ac {
        fill: #50575e;
      }

      .uuid-011bcccb-7135-4f91-a93c-ec0444cce8ac, .uuid-17df634e-fd95-4876-be25-bd7712adf2d2 {
        stroke-width: 0px;
      }

      .uuid-17df634e-fd95-4876-be25-bd7712adf2d2 {
        fill: #fff;
      }
    </style>
  </defs>
  <path class="uuid-011bcccb-7135-4f91-a93c-ec0444cce8ac" d="m2.28,18.41c-.63,0-1.17-.22-1.61-.67-.44-.44-.67-.98-.67-1.61V2.28c0-.63.22-1.17.67-1.61C1.11.22,1.65,0,2.28,0h13.86c.63,0,1.17.22,1.61.67.44.44.67.98.67,1.61v13.86c0,.63-.22,1.17-.67,1.61-.44.44-.98.67-1.61.67,0,0-13.86,0-13.86,0Z"/>
  <polygon class="uuid-17df634e-fd95-4876-be25-bd7712adf2d2" points="12.43 11.08 10.01 14.3 6.79 10.01 2.65 15.58 15.76 15.58 12.43 11.08"/>
  <path class="uuid-17df634e-fd95-4876-be25-bd7712adf2d2" d="m16.06,7.46c0,1.58-1.16,2.7-2.84,2.7s-2.84-1.11-2.84-2.7c0-.59.16-1.13.45-1.55l2.34-3.55h2.01l-1.66,2.41c1.52.12,2.55,1.2,2.55,2.69Zm-1.75,0c0-.67-.51-1.06-1.09-1.06s-1.09.38-1.09,1.06.5,1.06,1.09,1.06,1.09-.39,1.09-1.06Z"/>
</svg>