<?xml version="1.0" encoding="UTF-8"?>
<svg id="uuid-1018d339-c3f9-4e93-a506-c68372e16f7a" data-name="Calque 1" xmlns="http://www.w3.org/2000/svg" viewBox="0 0 18.41 18.41">
  <defs>
    <style>
      .uuid-cd463925-601e-459f-ab8f-7868e7472d74 {
        fill: #50575e;
      }

      .uuid-cd463925-601e-459f-ab8f-7868e7472d74, .uuid-66f5d90e-a456-4ebd-8a0f-450632220302 {
        stroke-width: 0px;
      }

      .uuid-66f5d90e-a456-4ebd-8a0f-450632220302 {
        fill: #fff;
      }
    </style>
  </defs>
  <path class="uuid-cd463925-601e-459f-ab8f-7868e7472d74" d="m2.28,18.41c-.63,0-1.17-.22-1.61-.67-.44-.44-.67-.98-.67-1.61V2.28c0-.63.22-1.17.67-1.61C1.11.22,1.65,0,2.28,0h13.86c.63,0,1.17.22,1.61.67.44.44.67.98.67,1.61v13.86c0,.63-.22,1.17-.67,1.61-.44.44-.98.67-1.61.67,0,0-13.86,0-13.86,0Z"/>
  <polygon class="uuid-66f5d90e-a456-4ebd-8a0f-450632220302" points="12.43 11.08 10.01 14.3 6.79 10.01 2.65 15.58 15.76 15.58 12.43 11.08"/>
  <path class="uuid-66f5d90e-a456-4ebd-8a0f-450632220302" d="m15.95,7.6c0,1.68-1.31,2.56-2.79,2.56-1.16,0-2.21-.51-2.68-1.64l1.51-.87c.17.5.5.81,1.17.81.72,0,1.04-.38,1.04-.85s-.32-.85-1.04-.85h-.36l-.67-.99,1.39-1.76h-2.8v-1.64h4.92v1.42l-1.32,1.68c.94.33,1.63,1.08,1.63,2.14Z"/>
</svg>