<?xml version="1.0" encoding="UTF-8"?>
<svg id="uuid-61653fde-c634-4468-a010-e99bc580772d" data-name="Calque 1" xmlns="http://www.w3.org/2000/svg" viewBox="0 0 18.41 18.41">
  <defs>
    <style>
      .uuid-5d3c8cbc-d2e2-4b1f-954c-accdf7a49c04 {
        fill: #50575e;
      }

      .uuid-5d3c8cbc-d2e2-4b1f-954c-accdf7a49c04, .uuid-9818fef7-e0a2-40cb-be4c-71d4b861f039 {
        stroke-width: 0px;
      }

      .uuid-9818fef7-e0a2-40cb-be4c-71d4b861f039 {
        fill: #fff;
      }
    </style>
  </defs>
  <path class="uuid-5d3c8cbc-d2e2-4b1f-954c-accdf7a49c04" d="m2.28,18.41c-.63,0-1.17-.22-1.61-.67-.44-.44-.67-.98-.67-1.61V2.28c0-.63.22-1.17.67-1.61C1.11.22,1.65,0,2.28,0h13.86c.63,0,1.17.22,1.61.67.44.44.67.98.67,1.61v13.86c0,.63-.22,1.17-.67,1.61-.44.44-.98.67-1.61.67,0,0-13.86,0-13.86,0Z"/>
  <polygon class="uuid-9818fef7-e0a2-40cb-be4c-71d4b861f039" points="12.43 11.08 10.01 14.3 6.79 10.01 2.65 15.58 15.76 15.58 12.43 11.08"/>
  <path class="uuid-9818fef7-e0a2-40cb-be4c-71d4b861f039" d="m16.01,7.6c0,1.68-1.31,2.56-2.79,2.56-1.21,0-2.26-.51-2.73-1.64l1.51-.87c.17.5.5.81,1.22.81s1.04-.38,1.04-.85-.32-.85-.98-.85h-2.39l.32-4.39h4.42v1.64h-2.79l-.08,1.05h.62c1.42,0,2.62.87,2.62,2.56Z"/>
</svg>