<?xml version="1.0" encoding="UTF-8"?>
<svg id="uuid-57ceb8c8-ea8d-458b-b6f1-ad18a94790f7" data-name="Calque 1" xmlns="http://www.w3.org/2000/svg" viewBox="0 0 18.41 18.41">
  <defs>
    <style>
      .uuid-d0bc2484-f584-435a-a923-db4b2a61ac19 {
        fill: #50575e;
      }

      .uuid-d0bc2484-f584-435a-a923-db4b2a61ac19, .uuid-8a1f1df3-9ece-45db-822e-33ce1e36e62a {
        stroke-width: 0px;
      }

      .uuid-8a1f1df3-9ece-45db-822e-33ce1e36e62a {
        fill: #fff;
      }
    </style>
  </defs>
  <path class="uuid-d0bc2484-f584-435a-a923-db4b2a61ac19" d="m2.28,18.41c-.63,0-1.17-.22-1.61-.67-.44-.44-.67-.98-.67-1.61V2.28c0-.63.22-1.17.67-1.61C1.11.22,1.65,0,2.28,0h13.86c.63,0,1.17.22,1.61.67.44.44.67.98.67,1.61v13.86c0,.63-.22,1.17-.67,1.61-.44.44-.98.67-1.61.67,0,0-13.86,0-13.86,0Z"/>
  <polygon class="uuid-8a1f1df3-9ece-45db-822e-33ce1e36e62a" points="12.43 11.08 10.01 14.3 6.79 10.01 2.65 15.58 15.76 15.58 12.43 11.08"/>
  <path class="uuid-8a1f1df3-9ece-45db-822e-33ce1e36e62a" d="m10.7,8.74l2.57-2.67c.45-.46.78-.91.78-1.35,0-.48-.31-.81-.82-.81s-.92.35-1.12.83l-1.47-.86c.49-1.14,1.52-1.67,2.58-1.67,1.37,0,2.59.9,2.59,2.44,0,.92-.49,1.7-1.19,2.4l-1.27,1.28h2.57v1.68h-5.2v-1.27Z"/>
</svg>