<?xml version="1.0" encoding="UTF-8"?>
<svg id="uuid-a4286197-62f8-40cf-9a4b-e226d3c389a7" data-name="Calque 1" xmlns="http://www.w3.org/2000/svg" xmlns:xlink="http://www.w3.org/1999/xlink" viewBox="0 0 642.9 120.13">
  <defs>
    <style>
      .uuid-4645dcd0-10c7-4acc-9f45-5dd495cd3fe5 {
        fill: url(#uuid-da09a79f-6f17-461d-9782-c8e0497ebd42);
      }

      .uuid-4645dcd0-10c7-4acc-9f45-5dd495cd3fe5, .uuid-c97dfc61-865a-43f4-9f34-a44688b40746, .uuid-946bf2d5-45a3-4ab0-a60d-802ff602b415, .uuid-707c1141-fc98-4081-93d6-c739b0429d6c, .uuid-f24c4f43-0d38-4574-b387-d0d76d76185f, .uuid-06eba22f-f883-46c0-82a6-f731b5284de2, .uuid-2dcfdfe0-3777-4617-8bb8-7e78f2d2c69b, .uuid-ff0d5860-2fb1-4845-a1ec-54f98e997460, .uuid-d562b7b6-867b-450e-86cd-11c3956b2808, .uuid-49c1c7ee-1cb0-42a0-81b4-5672bda2bd97 {
        stroke-width: 0px;
      }

      .uuid-c97dfc61-865a-43f4-9f34-a44688b40746 {
        fill: #eb001b;
      }

      .uuid-946bf2d5-45a3-4ab0-a60d-802ff602b415 {
        fill: #f79e1b;
      }

      .uuid-707c1141-fc98-4081-93d6-c739b0429d6c {
        fill: #fff;
      }

      .uuid-f24c4f43-0d38-4574-b387-d0d76d76185f {
        fill: #10427a;
      }

      .uuid-3917ecf0-37f3-4d5f-b32f-ee0774070ba4 {
        filter: url(#uuid-99fa9184-317d-49e5-b1f9-06d95d5009c7);
      }

      .uuid-06eba22f-f883-46c0-82a6-f731b5284de2 {
        fill: #ff5f00;
      }

      .uuid-2dcfdfe0-3777-4617-8bb8-7e78f2d2c69b {
        fill: #fefefe;
        fill-rule: evenodd;
      }

      .uuid-ff0d5860-2fb1-4845-a1ec-54f98e997460 {
        fill: #fc0;
      }

      .uuid-d562b7b6-867b-450e-86cd-11c3956b2808 {
        fill: #000e8f;
      }

      .uuid-49c1c7ee-1cb0-42a0-81b4-5672bda2bd97 {
        fill: #efefef;
      }
    </style>
    <linearGradient id="uuid-da09a79f-6f17-461d-9782-c8e0497ebd42" data-name="Dégradé sans nom 7" x1="-140.58" y1="-312.82" x2="-143.73" y2="-322.47" gradientTransform="translate(2045.56 -4312.28) scale(13.79 -13.79)" gradientUnits="userSpaceOnUse">
      <stop offset="0" stop-color="#222e72"/>
      <stop offset="1" stop-color="#40cbff"/>
    </linearGradient>
    <filter id="uuid-99fa9184-317d-49e5-b1f9-06d95d5009c7" data-name="drop-shadow-1" filterUnits="userSpaceOnUse">
      <feOffset dx="0" dy="3.75"/>
      <feGaussianBlur result="uuid-2b3f987b-568d-4afe-8d1d-192889ff855c" stdDeviation="15.02"/>
      <feFlood flood-color="#000e8f" flood-opacity=".15"/>
      <feComposite in2="uuid-2b3f987b-568d-4afe-8d1d-192889ff855c" operator="in"/>
      <feComposite in="SourceGraphic"/>
    </filter>
  </defs>
  <g id="uuid-33c3d603-00c2-4986-a344-5c5b0bf0b5c1" data-name="Rounded">
    <g id="uuid-c02915a4-6386-413e-9578-54b79bbc7377" data-name="Large">
      <g id="uuid-bc0acb8b-0ffc-42b9-8ada-7154ced7c5dc" data-name="large/mastercard">
        <rect id="uuid-7fdcea46-ff3c-4c1f-8052-0cb3bb28c8ec" data-name="Background" class="uuid-f24c4f43-0d38-4574-b387-d0d76d76185f" x="442.69" width="200.21" height="120.13" rx="8.01" ry="8.01"/>
        <g id="uuid-fe4ac168-474a-4307-8863-6bf822a5e077" data-name="Logo">
          <g id="uuid-efbcd429-2043-4345-9126-6d8f644b963b" data-name="mastercard">
            <rect id="uuid-6a428883-d05d-492e-a035-bfbc3b0e4dc6" data-name="Rectangle-path" class="uuid-06eba22f-f883-46c0-82a6-f731b5284de2" x="531.23" y="26.82" width="27.04" height="50"/>
            <path id="uuid-730381f8-bc30-4319-b978-1dbfe945a271" data-name="Shape" class="uuid-c97dfc61-865a-43f4-9f34-a44688b40746" d="M532.94,51.83c0-10.16,4.64-19.17,11.76-25-5.24-4.24-11.85-6.8-19.06-6.8-17.08,0-30.9,14.22-30.9,31.8s13.82,31.8,30.9,31.8c7.21,0,13.82-2.56,19.06-6.8-7.13-5.74-11.76-14.84-11.76-25Z"/>
            <path id="uuid-4ce40a26-b916-45de-a5b6-ccc6b043c674" data-name="Shape" class="uuid-946bf2d5-45a3-4ab0-a60d-802ff602b415" d="M594.75,51.83c0,17.58-13.82,31.8-30.9,31.8-7.21,0-13.82-2.56-19.06-6.8,7.21-5.83,11.76-14.84,11.76-25s-4.64-19.17-11.76-25c5.24-4.24,11.85-6.8,19.06-6.8,17.08,0,30.9,14.31,30.9,31.8Z"/>
          </g>
          <path id="uuid-e4340b1b-9fc5-48c3-a841-37facb80f0b3" data-name="Shape" class="uuid-707c1141-fc98-4081-93d6-c739b0429d6c" d="M509.33,103.94v-5.3c0-2.03-1.33-3.36-3.62-3.36-1.14,0-2.38.35-3.24,1.5-.67-.97-1.62-1.5-3.05-1.5-.95,0-1.91.26-2.67,1.24v-1.06h-2v8.48h2v-4.68c0-1.5.86-2.21,2.19-2.21s2,.79,2,2.21v4.68h2v-4.68c0-1.5.95-2.21,2.19-2.21,1.33,0,2,.79,2,2.21v4.68h2.19ZM538.98,95.46h-3.24v-2.56h-2v2.56h-1.81v1.68h1.81v3.89c0,1.94.86,3.09,3.15,3.09.86,0,1.81-.26,2.48-.62l-.57-1.59c-.57.35-1.24.44-1.72.44-.95,0-1.33-.53-1.33-1.41v-3.8h3.24v-1.68h0ZM555.95,95.28c-1.14,0-1.91.53-2.38,1.24v-1.06h-2v8.48h2v-4.77c0-1.41.67-2.21,1.91-2.21.38,0,.86.09,1.24.18l.57-1.77c-.38-.09-.95-.09-1.33-.09h0ZM530.3,96.16c-.95-.62-2.29-.88-3.72-.88-2.29,0-3.81,1.06-3.81,2.74,0,1.41,1.14,2.21,3.15,2.47l.95.09c1.05.18,1.62.44,1.62.88,0,.62-.76,1.06-2.1,1.06s-2.38-.44-3.05-.88l-.95,1.41c1.05.71,2.48,1.06,3.91,1.06,2.67,0,4.19-1.15,4.19-2.74,0-1.5-1.24-2.3-3.15-2.56l-.95-.09c-.86-.09-1.53-.26-1.53-.79,0-.62.67-.97,1.72-.97,1.14,0,2.29.44,2.86.71l.86-1.5h0ZM583.5,95.28c-1.14,0-1.91.53-2.38,1.24v-1.06h-2v8.48h2v-4.77c0-1.41.67-2.21,1.91-2.21.38,0,.86.09,1.24.18l.57-1.77c-.38-.09-.95-.09-1.33-.09h0ZM557.95,99.7c0,2.56,1.91,4.42,4.86,4.42,1.33,0,2.29-.26,3.24-.97l-.95-1.5c-.76.53-1.53.79-2.38.79-1.62,0-2.76-1.06-2.76-2.74,0-1.59,1.14-2.65,2.76-2.74.86,0,1.62.26,2.38.79l.95-1.5c-.95-.71-1.91-.97-3.24-.97-2.96,0-4.86,1.85-4.86,4.42h0ZM576.45,99.7v-4.24h-2v1.06c-.67-.79-1.62-1.24-2.86-1.24-2.57,0-4.58,1.85-4.58,4.42s2,4.42,4.58,4.42c1.33,0,2.29-.44,2.86-1.24v1.06h2v-4.24ZM569.11,99.7c0-1.5,1.05-2.74,2.76-2.74,1.62,0,2.76,1.15,2.76,2.74,0,1.5-1.14,2.74-2.76,2.74-1.72-.09-2.76-1.24-2.76-2.74h0ZM545.18,95.28c-2.67,0-4.58,1.77-4.58,4.42s1.91,4.42,4.67,4.42c1.33,0,2.67-.35,3.72-1.15l-.95-1.32c-.76.53-1.72.88-2.67.88-1.24,0-2.48-.53-2.76-2.03h6.77v-.71c.1-2.74-1.62-4.5-4.19-4.5h0ZM545.18,96.87c1.24,0,2.1.71,2.29,2.03h-4.77c.19-1.15,1.05-2.03,2.48-2.03h0ZM594.85,99.7v-7.6h-2v4.42c-.67-.79-1.62-1.24-2.86-1.24-2.57,0-4.58,1.85-4.58,4.42s2,4.42,4.58,4.42c1.33,0,2.29-.44,2.86-1.24v1.06h2v-4.24ZM587.51,99.7c0-1.5,1.05-2.74,2.76-2.74,1.62,0,2.76,1.15,2.76,2.74,0,1.5-1.14,2.74-2.76,2.74-1.72-.09-2.76-1.24-2.76-2.74h0ZM520.58,99.7v-4.24h-2v1.06c-.67-.79-1.62-1.24-2.86-1.24-2.57,0-4.58,1.85-4.58,4.42s2,4.42,4.58,4.42c1.33,0,2.29-.44,2.86-1.24v1.06h2v-4.24ZM513.14,99.7c0-1.5,1.05-2.74,2.76-2.74,1.62,0,2.76,1.15,2.76,2.74,0,1.5-1.14,2.74-2.76,2.74-1.72-.09-2.76-1.24-2.76-2.74Z"/>
        </g>
      </g>
    </g>
  </g>
  <g>
    <rect class="uuid-4645dcd0-10c7-4acc-9f45-5dd495cd3fe5" x="0" y=".13" width="175.38" height="120" rx="7.69" ry="7.69"/>
    <path class="uuid-2dcfdfe0-3777-4617-8bb8-7e78f2d2c69b" d="M59.52,57.8h30.83c-.27-6.66-1.83-13.54-6.54-17.95-5.61-5.26-15.44-7.21-24.22-7.21s-19.25,2.14-24.89,7.78c-4.86,4.86-5.91,12.68-5.91,19.7s2.06,15.92,7.33,20.85c5.61,5.25,14.7,6.64,23.47,6.64s17.74-1.57,23.32-6.55c5.56-4.97,7.48-13.35,7.48-20.93v-.04h-30.88v-2.29ZM92.42,60.09v26.29h42.89v-.04c6.28-.34,11.27-6,11.27-12.95s-4.99-12.97-11.27-13.32h0s-42.89.01-42.89.01ZM134.83,33.75c6.12,0,10.97,5.31,10.97,12,0,6.34-4.46,11.52-10.13,12.05h-43.24v-24.09h41.05c.25-.03.55,0,.83.01.18.01.36.03.52.03Z"/>
  </g>
  <g id="uuid-aa715c92-df5e-4fb3-a7f4-28a4820d5c06" data-name="visa" class="uuid-3917ecf0-37f3-4d5f-b32f-ee0774070ba4">
    <path class="uuid-49c1c7ee-1cb0-42a0-81b4-5672bda2bd97" d="M396.89,120.13h-175.72c-6.26,0-11.34-4.48-11.34-10.01V10.01c0-5.53,5.08-10.01,11.34-10.01h175.72c6.26,0,11.34,4.48,11.34,10.01v100.11c0,5.53-5.08,10.01-11.34,10.01Z"/>
    <g>
      <polygon class="uuid-d562b7b6-867b-450e-86cd-11c3956b2808" points="288.33 80.93 295.43 39.3 306.77 39.3 299.68 80.93 288.33 80.93"/>
      <path class="uuid-d562b7b6-867b-450e-86cd-11c3956b2808" d="M340.83,40.33c-2.25-.84-5.77-1.75-10.17-1.75-11.21,0-19.11,5.65-19.18,13.74-.06,5.98,5.64,9.32,9.94,11.31,4.42,2.04,5.9,3.34,5.88,5.16-.03,2.79-3.53,4.07-6.79,4.07-4.54,0-6.95-.63-10.68-2.19l-1.46-.66-1.59,9.32c2.65,1.16,7.55,2.17,12.64,2.22,11.93,0,19.67-5.58,19.76-14.22.04-4.74-2.98-8.34-9.53-11.31-3.97-1.93-6.4-3.21-6.37-5.16,0-1.73,2.06-3.58,6.5-3.58,3.71-.06,6.4.75,8.49,1.59l1.02.48,1.54-9.02"/>
      <path class="uuid-d562b7b6-867b-450e-86cd-11c3956b2808" d="M369.93,39.34h-8.77c-2.72,0-4.75.74-5.94,3.45l-16.85,38.15h11.92s1.95-5.13,2.39-6.26c1.3,0,12.88.02,14.53.02.34,1.46,1.38,6.24,1.38,6.24h10.53l-9.18-41.6M355.93,66.17c.94-2.4,4.52-11.64,4.52-11.64-.07.11.93-2.41,1.5-3.97l.77,3.59s2.17,9.94,2.63,12.02h-9.42Z"/>
      <path class="uuid-d562b7b6-867b-450e-86cd-11c3956b2808" d="M278.82,39.33l-11.11,28.39-1.18-5.77c-2.07-6.65-8.51-13.86-15.71-17.46l10.16,36.41h12.01s17.86-41.56,17.86-41.56h-12.02"/>
      <path class="uuid-ff0d5860-2fb1-4845-a1ec-54f98e997460" d="M257.4,39.31h-18.3l-.14.87c14.23,3.45,23.65,11.77,27.56,21.78l-3.98-19.13c-.69-2.64-2.68-3.42-5.14-3.51"/>
    </g>
  </g>
</svg>