<svg xmlns="http://www.w3.org/2000/svg" id="uuid-767a202a-ec83-4b3f-950a-d0b918a563eb" data-name="Layer 1" viewBox="0 0 150 34"><defs><style>      .uuid-8122fe1d-1149-432c-b3c0-5dc61b23ac36 {        stroke-width: 0px;      }    </style></defs><path class="uuid-8122fe1d-1149-432c-b3c0-5dc61b23ac36" d="M146,0H3.73C1.67,0,0,1.67,0,3.73h0v26.54c0,2.06,1.67,3.73,3.73,3.73h142.27c2.21,0,4-1.79,4-4V4c0-2.21-1.79-4-4-4ZM149,30c0,1.66-1.34,3-3,3H3.73c-1.51,0-2.72-1.22-2.73-2.73V3.73c0-1.51,1.22-2.72,2.73-2.73h142.27c1.66,0,3,1.34,3,3v26Z"></path><path class="uuid-8122fe1d-1149-432c-b3c0-5dc61b23ac36" d="M17.07,11.24h-4.3v10.76h1.92v-4.16h2.38c2.4,0,3.9-1.16,3.9-3.3s-1.5-3.3-3.9-3.3ZM16.97,16.24h-2.28v-3.3h2.31c1.38,0,2.11.59,2.11,1.65s-.76,1.6-2.11,1.6l-.03.05Z"></path><path class="uuid-8122fe1d-1149-432c-b3c0-5dc61b23ac36" d="M25.1,14c-2.08-.02-3.79,1.64-3.81,3.73,0,.12,0,.24.01.36-.19,2.1,1.36,3.95,3.46,4.13,2.1.19,3.95-1.36,4.13-3.46.02-.22.02-.45,0-.68.18-2.07-1.35-3.89-3.42-4.08-.12-.01-.25-.02-.37-.01ZM25.1,20.67c-1.22,0-2-1-2-2.58s.76-2.58,2-2.58,2,1,2,2.58-.79,2.57-2,2.57h0Z"></path><polygon class="uuid-8122fe1d-1149-432c-b3c0-5dc61b23ac36" points="36.78 19.35 35.37 14.13 33.89 14.13 32.49 19.35 31.07 14.13 29.22 14.13 31.59 22.01 33.15 22.01 34.59 16.85 36.03 22.01 37.59 22.01 39.96 14.13 38.18 14.13 36.78 19.35"></polygon><path class="uuid-8122fe1d-1149-432c-b3c0-5dc61b23ac36" d="M44,14c-2.11.04-3.8,1.79-3.76,3.9,0,.06,0,.13,0,.19-.17,2.09,1.39,3.91,3.48,4.08.12,0,.23.01.35.01,1.49.08,2.86-.8,3.41-2.18l-1.49-.62c-.24.8-1,1.32-1.83,1.26-1.17.03-2.14-.9-2.17-2.07,0-.03,0-.07,0-.1h5.52v-.6c.02-2.16-1.2-3.87-3.52-3.87ZM42.07,17.13c.14-.95.97-1.65,1.93-1.63.86-.07,1.61.56,1.69,1.42,0,.07,0,.13,0,.2h-3.62Z"></path><path class="uuid-8122fe1d-1149-432c-b3c0-5dc61b23ac36" d="M50.69,15.3v-1.17h-1.8v7.87h1.8v-4.13c-.06-1.04.73-1.94,1.77-2,.08,0,.15,0,.23,0,.22-.02.44-.02.66,0v-1.8h-.51c-.9-.05-1.74.43-2.15,1.23Z"></path><path class="uuid-8122fe1d-1149-432c-b3c0-5dc61b23ac36" d="M57.48,14c-2.11.04-3.8,1.79-3.76,3.9,0,.06,0,.13,0,.19-.17,2.09,1.39,3.91,3.48,4.08.12,0,.23.01.35.01,1.47.06,2.82-.81,3.37-2.18l-1.54-.59c-.24.8-1,1.32-1.83,1.26-1.17-.01-2.11-.97-2.1-2.14,0-.01,0-.02,0-.03h5.54v-.6c0-2.19-1.24-3.9-3.52-3.9ZM55.55,17.13c.15-.94.97-1.63,1.92-1.62.86-.07,1.61.56,1.69,1.42,0,.07,0,.13,0,.2h-3.61Z"></path><path class="uuid-8122fe1d-1149-432c-b3c0-5dc61b23ac36" d="M67.56,15c-.56-.66-1.39-1.03-2.26-1-2.21,0-3.47,1.85-3.47,4.09s1.26,4.09,3.47,4.09c.87.03,1.7-.34,2.26-1v.82h1.8v-10.76h-1.8v3.76ZM67.56,18.35c.15,1.09-.61,2.11-1.7,2.26-.1.01-.2.02-.3.02-1.31,0-2-1-2-2.52s.7-2.52,2-2.52c1.11,0,2,.81,2,2.29v.47Z"></path><path class="uuid-8122fe1d-1149-432c-b3c0-5dc61b23ac36" d="M79.31,14c-.88-.04-1.73.33-2.31,1v-3.76h-1.8v10.76h1.8v-.83c.57.66,1.4,1.03,2.27,1,2.2,0,3.46-1.86,3.46-4.09s-1.22-4.08-3.42-4.08ZM79,20.6c-1.1.01-2.01-.88-2.02-1.98,0-.1,0-.2.02-.3v-.47c0-1.48.84-2.29,2-2.29,1.3,0,2,1,2,2.52s-.75,2.52-2,2.52Z"></path><path class="uuid-8122fe1d-1149-432c-b3c0-5dc61b23ac36" d="M86.93,19.66l-1.93-5.53h-1.9l2.9,7.59-.3.74c-.11.53-.61.88-1.14.79-.2.01-.4.01-.6,0v1.51c.24.04.49.05.73.05,1.29.09,2.46-.75,2.78-2l3.24-8.62h-1.89l-1.89,5.47Z"></path><path class="uuid-8122fe1d-1149-432c-b3c0-5dc61b23ac36" d="M125,12.43c-.8,0-1.56.31-2.13.87l-.14-.69h-2.39v12.92l2.72-.59v-3.13c.54.45,1.22.7,1.93.7,1.94,0,3.72-1.59,3.72-5.11,0-3.22-1.8-4.97-3.71-4.97ZM124.35,20.06c-.48.03-.95-.16-1.28-.52v-4.11c.33-.37.81-.57,1.3-.55,1,0,1.68,1.13,1.68,2.58s-.69,2.6-1.7,2.6Z"></path><path class="uuid-8122fe1d-1149-432c-b3c0-5dc61b23ac36" d="M133.73,12.43c-2.62,0-4.21,2.26-4.21,5.11,0,3.37,1.88,5.08,4.56,5.08,1.05.02,2.08-.23,3-.73v-2.25c-.84.42-1.76.63-2.7.62-1.08,0-2-.39-2.14-1.7h5.38v-1c.09-2.87-1.27-5.13-3.89-5.13ZM132.26,16.5c0-1.26.77-1.79,1.45-1.79s1.4.53,1.4,1.79h-2.85Z"></path><path class="uuid-8122fe1d-1149-432c-b3c0-5dc61b23ac36" d="M113,13.36l-.17-.82h-2.32v9.71h2.68v-6.58c.5-.6,1.31-.83,2.05-.58v-2.55c-.85-.33-1.81.02-2.24.82Z"></path><path class="uuid-8122fe1d-1149-432c-b3c0-5dc61b23ac36" d="M99.46,15.46c0-.44.36-.61.93-.61.94.02,1.87.27,2.7.72v-2.63c-.86-.35-1.78-.52-2.7-.51-2.21,0-3.68,1.18-3.68,3.16,0,3.1,4.14,2.6,4.14,3.93,0,.52-.44.69-1,.69-1.06-.06-2.08-.37-3-.9v2.69c.94.42,1.97.64,3,.64,2.26,0,3.82-1.15,3.82-3.16-.05-3.36-4.21-2.76-4.21-4.02Z"></path><path class="uuid-8122fe1d-1149-432c-b3c0-5dc61b23ac36" d="M107.28,10.24l-2.65.58v8.93c-.06,1.53,1.14,2.81,2.67,2.87.05,0,.1,0,.15,0,.66.03,1.31-.1,1.91-.37v-2.25c-.35.15-2.06.66-2.06-1v-4h2.06v-2.34h-2.06l-.02-2.42Z"></path><polygon class="uuid-8122fe1d-1149-432c-b3c0-5dc61b23ac36" points="116.25 11.7 118.98 11.13 118.98 8.97 116.25 9.54 116.25 11.7"></polygon><rect class="uuid-8122fe1d-1149-432c-b3c0-5dc61b23ac36" x="116.25" y="12.61" width="2.73" height="9.64"></rect></svg>