<?xml version="1.0" encoding="UTF-8"?><svg xmlns="http://www.w3.org/2000/svg" viewBox="0 0 512 512"><path fill="currentColor" d="M376,30c-27.78,0-53.26,8.8-75.71,26.17-21.52,16.65-35.86,37.85-44.29,53.27-8.44-15.42-22.77-36.62-44.29-53.27-22.45-17.36-47.92-26.17-75.71-26.17C58.47,30,0,93.42,0,177.51c0,90.85,72.94,153.01,183.37,247.12,18.75,15.98,40.01,34.1,62.1,53.41,2.91,2.55,6.65,3.95,10.53,3.95s7.62-1.4,10.53-3.95c22.09-19.32,43.35-37.43,62.11-53.42,110.41-94.09,183.36-156.25,183.36-247.11,0-84.1-58.47-147.51-136-147.51Z"/></svg>