<?xml version="1.0" encoding="utf-8"?>
<!-- Generator: Adobe Illustrator 26.5.0, SVG Export Plug-In . SVG Version: 6.00 Build 0)  -->
<svg version="1.1" id="Icons" xmlns="http://www.w3.org/2000/svg" xmlns:xlink="http://www.w3.org/1999/xlink" x="0px" y="0px"
	 viewBox="0 0 24 24" enable-background="new 0 0 24 24" xml:space="preserve">
<path id="Air-Conditioner" d="M6.009,7.336c-0.553,0-1-0.448-1-1s0.447-1,1-1h1.626c0.553,0,1,0.448,1,1s-0.447,1-1,1H6.009z
	 M12.577,17.941c0-0.068,0.017-0.199,0.128-0.311c0.391-0.391,0.391-1.024,0-1.415c-0.391-0.39-1.023-0.39-1.414,0
	c-0.461,0.461-0.715,1.075-0.714,1.727c0,0.652,0.255,1.265,0.716,1.725c0.113,0.113,0.13,0.244,0.13,0.312
	s-0.017,0.199-0.129,0.312c-0.391,0.391-0.391,1.023,0,1.415C11.489,21.902,11.745,22,12.001,22s0.512-0.098,0.707-0.292
	c0.462-0.461,0.716-1.075,0.715-1.728c0-0.652-0.255-1.265-0.717-1.727C12.594,18.141,12.577,18.01,12.577,17.941z M16.745,17.941
	c0-0.073,0.023-0.183,0.135-0.286c0.404-0.376,0.427-1.009,0.05-1.414c-0.375-0.404-1.01-0.425-1.413-0.05
	c-0.498,0.464-0.771,1.086-0.771,1.752c0.001,0.666,0.276,1.288,0.774,1.75c0.112,0.104,0.136,0.213,0.136,0.287
	c0,0.073-0.023,0.183-0.135,0.287c-0.404,0.376-0.428,1.009-0.052,1.414C15.666,21.893,15.934,22,16.201,22
	c0.244,0,0.488-0.088,0.681-0.268c0.499-0.464,0.773-1.086,0.773-1.752c0-0.667-0.275-1.289-0.774-1.752
	C16.769,18.125,16.745,18.015,16.745,17.941z M8.345,17.941c0-0.073,0.023-0.183,0.135-0.286c0.404-0.376,0.427-1.009,0.05-1.414
	c-0.375-0.404-1.01-0.425-1.413-0.05c-0.498,0.464-0.771,1.086-0.771,1.752c0.001,0.666,0.276,1.288,0.774,1.75
	c0.112,0.104,0.136,0.213,0.136,0.287c0,0.073-0.023,0.183-0.135,0.287c-0.404,0.376-0.428,1.009-0.052,1.414
	C7.266,21.893,7.533,22,7.801,22c0.244,0,0.488-0.088,0.681-0.268c0.499-0.464,0.773-1.086,0.773-1.752
	c0-0.667-0.275-1.289-0.774-1.752C8.368,18.125,8.345,18.015,8.345,17.941z M21.997,4.83v7.557c0,1.561-1.27,2.83-2.83,2.83H4.83
	c-1.561,0-2.83-1.27-2.83-2.83v-1.995c0-0.552,0.447-1,1-1h16.997V4.83c0-0.458-0.372-0.83-0.83-0.83H4.83C4.372,4,4,4.373,4,4.83
	v2.146c0,0.552-0.447,1-1,1s-1-0.448-1-1V4.83C2,3.27,3.27,2,4.83,2h14.337C20.728,2,21.997,3.27,21.997,4.83z M19.997,11.392H4
	v0.995c0,0.458,0.372,0.83,0.83,0.83h14.337c0.458,0,0.83-0.373,0.83-0.83V11.392z"/>
</svg>
