<?xml version="1.0" encoding="utf-8"?>
<!-- Generator: Adobe Illustrator 26.3.1, SVG Export Plug-In . SVG Version: 6.00 Build 0)  -->
<svg version="1.1" id="Icons" xmlns="http://www.w3.org/2000/svg" xmlns:xlink="http://www.w3.org/1999/xlink" x="0px" y="0px"
	 viewBox="0 0 24 24" style="enable-background:new 0 0 24 24;" xml:space="preserve">
<g id="Airport">
	<path d="M12.008,6.704c-0.552,0-1,0.448-1,1v1.481l-3.302,1.762c-0.487,0.26-0.671,0.866-0.412,1.353
		c0.18,0.337,0.526,0.529,0.883,0.529c0.159,0,0.32-0.038,0.47-0.118l2.36-1.26v2.387l-1.082,0.656
		c-0.472,0.286-0.623,0.901-0.336,1.374c0.188,0.31,0.518,0.481,0.856,0.481c0.177,0,0.355-0.047,0.518-0.145l1.044-0.633
		l1.045,0.633c0.472,0.286,1.087,0.135,1.374-0.337c0.286-0.472,0.135-1.087-0.338-1.374l-1.081-0.655v-2.386l2.36,1.259
		c0.487,0.26,1.092,0.076,1.354-0.412c0.26-0.487,0.075-1.093-0.412-1.353l-3.302-1.761V7.704
		C13.008,7.151,12.56,6.704,12.008,6.704z"/>
	<path d="M20.759,8.994l-5.753-5.752C14.206,2.441,13.139,2,12,2c-1.138,0-2.206,0.44-3.006,1.241L7.409,4.826
		c-0.391,0.391-0.391,1.023,0,1.414s1.023,0.391,1.414,0l1.584-1.584c0.846-0.846,2.338-0.846,3.184,0l5.753,5.752
		c0.878,0.878,0.878,2.307,0,3.185l-5.753,5.752c-0.846,0.846-2.338,0.846-3.184,0l-5.752-5.752c-0.878-0.878-0.878-2.307,0-3.185
		l1.753-1.753c0.391-0.39,0.391-1.023,0-1.414s-1.023-0.391-1.414,0L3.241,8.994c-1.658,1.658-1.658,4.355,0,6.013l5.752,5.752
		C9.794,21.56,10.862,22,12,22c1.139,0,2.206-0.441,3.006-1.241l5.753-5.752C22.417,13.349,22.417,10.651,20.759,8.994z"/>
</g>
</svg>
