<?xml version="1.0" encoding="utf-8"?>
<!-- Generator: Adobe Illustrator 25.4.1, SVG Export Plug-In . SVG Version: 6.00 Build 0)  -->
<svg version="1.1" id="Icons" xmlns="http://www.w3.org/2000/svg" xmlns:xlink="http://www.w3.org/1999/xlink" x="0px" y="0px"
	 viewBox="0 0 24 24" style="enable-background:new 0 0 24 24;" xml:space="preserve">
<g id="Airport-location">
	<path d="M12,5.174c-0.552,0-1,0.448-1,1v1.48L7.698,9.417c-0.487,0.26-0.671,0.866-0.412,1.353c0.26,0.487,0.866,0.673,1.353,0.412
		L11,9.922v2.387l-1.082,0.656c-0.472,0.287-0.623,0.901-0.336,1.374c0.287,0.473,0.902,0.623,1.374,0.336L12,14.041l1.045,0.634
		c0.162,0.098,0.341,0.145,0.518,0.145c0.338,0,0.668-0.171,0.856-0.482c0.286-0.472,0.135-1.087-0.337-1.373L13,12.309V9.922
		l2.36,1.26c0.149,0.08,0.311,0.118,0.47,0.118c0.357,0,0.703-0.192,0.883-0.529c0.261-0.487,0.076-1.093-0.411-1.353L13,7.655
		V6.174C13,5.622,12.552,5.174,12,5.174z"/>
	<path d="M12,2c-4.415,0-8.007,3.592-8.007,8.007c0,1.375,0.596,3.004,1.822,4.983c0.291,0.469,0.907,0.614,1.377,0.323
		c0.469-0.291,0.614-0.907,0.323-1.377c-1.258-2.03-1.522-3.257-1.522-3.929C5.993,6.695,8.688,4,12,4s6.007,2.695,6.007,6.007
		c0,2.928-3.839,7.407-5.99,9.579c-0.625-0.659-1.6-1.726-2.584-2.961c-0.344-0.432-0.973-0.503-1.405-0.16s-0.504,0.973-0.16,1.405
		c1.716,2.157,3.36,3.776,3.429,3.844C11.492,21.904,11.745,22,11.998,22c0.245,0,0.49-0.089,0.683-0.27
		c0.75-0.7,7.326-6.982,7.326-11.723C20.007,5.592,16.415,2,12,2z"/>
</g>
</svg>
