<?xml version="1.0" encoding="utf-8"?>
<!-- Generator: Adobe Illustrator 16.0.0, SVG Export Plug-In . SVG Version: 6.00 Build 0)  -->
<!DOCTYPE svg PUBLIC "-//W3C//DTD SVG 1.0//EN" "http://www.w3.org/TR/2001/REC-SVG-20010904/DTD/svg10.dtd">
<svg version="1.0" id="Layer_1" xmlns="http://www.w3.org/2000/svg" xmlns:xlink="http://www.w3.org/1999/xlink" x="0px" y="0px"
	 width="100px" height="100px" viewBox="0 0 100 100" enable-background="new 0 0 100 100" xml:space="preserve">
<path d="M83.333,23.334h-6.666v-6.667H70v6.667h-6.667v-6.667h-6.666v6.667h-40C13.001,23.334,10,26.333,10,30v40
	c0,3.665,3.001,6.667,6.667,6.667h6.666v6.666H30v-6.666h40v6.666h6.667v-6.666h6.666C86.999,76.667,90,73.665,90,70V30
	C90,26.333,86.999,23.334,83.333,23.334z M83.333,70H16.667V30h66.666V70z"/>
<rect x="42.5" y="42.5" width="5" height="5"/>
<rect x="42.5" y="52.5" width="5" height="5"/>
<rect x="52.5" y="37.5" width="5" height="25"/>
<path d="M77.5,42.5v-5h-15v15h7.493c1.381,0,2.5,1.12,2.5,2.5s-1.119,2.5-2.5,2.5H62.5v5H70l0,0c4.138-0.003,7.493-3.362,7.493-7.5
	c0-4.139-3.355-7.495-7.493-7.5l0,0h-2.5v-5H77.5z"/>
<path d="M37.497,45c0-4.141-3.356-7.5-7.5-7.5c-4.145,0-7.5,3.359-7.5,7.5s3.355,7.5,7.5,7.5c0.003,0,0.003,0,0.003,0h2.5V55
	c0,1.38-1.12,2.5-2.5,2.5s-2.5-1.12-2.5-2.5h-5c0,4.141,3.359,7.5,7.5,7.5s7.5-3.359,7.5-7.5V45H37.497z M32.5,47.5H30l0,0
	c0,0,0,0-0.003,0c-1.381,0-2.5-1.119-2.5-2.5c0-1.38,1.119-2.5,2.5-2.5c1.38,0,2.5,1.12,2.5,2.5H32.5V47.5z"/>
</svg>
