<?xml version="1.0" encoding="utf-8"?>
<!-- Generator: Adobe Illustrator 16.0.0, SVG Export Plug-In . SVG Version: 6.00 Build 0)  -->
<!DOCTYPE svg PUBLIC "-//W3C//DTD SVG 1.1//EN" "http://www.w3.org/Graphics/SVG/1.1/DTD/svg11.dtd">
<svg version="1.1" id="Icons" xmlns="http://www.w3.org/2000/svg" xmlns:xlink="http://www.w3.org/1999/xlink" x="0px" y="0px"
	 width="24px" height="24px" viewBox="0 0 24 24" enable-background="new 0 0 24 24" xml:space="preserve">
<path id="Angle-up_1_" d="M20.293,19.707L12,11.414L3.707,19.69c-0.287,0.286-0.717,0.37-1.09,0.216C2.244,19.751,2,19.387,2,18.982
	v-5c0-0.266,0.105-0.52,0.293-0.708l9-8.982c0.391-0.39,1.023-0.389,1.414,0.001l3.502,3.502c0.391,0.391,0.391,1.023,0,1.414
	s-1.023,0.391-1.414,0L12,6.414l-8,7.983v2.175l7.293-7.28c0.391-0.39,1.023-0.389,1.414,0.001L20,16.586v-2.172l-2.792-2.792
	c-0.391-0.391-0.391-1.023,0-1.414s1.023-0.391,1.414,0l3.084,3.084C21.895,13.48,22,13.735,22,14v5
	c0,0.404-0.234,0.794-0.617,0.924C20.682,20.16,20.293,19.707,20.293,19.707z"/>
</svg>
