<?xml version="1.0" encoding="utf-8"?>
<!-- Generator: Adobe Illustrator 16.0.0, SVG Export Plug-In . SVG Version: 6.00 Build 0)  -->
<!DOCTYPE svg PUBLIC "-//W3C//DTD SVG 1.1//EN" "http://www.w3.org/Graphics/SVG/1.1/DTD/svg11.dtd">
<svg version="1.1" id="Icons" xmlns="http://www.w3.org/2000/svg" xmlns:xlink="http://www.w3.org/1999/xlink" x="0px" y="0px"
	 width="24px" height="24px" viewBox="0 0 24 24" enable-background="new 0 0 24 24" xml:space="preserve">
<path id="Angle-double-left_1_" d="M16.982,22h-5c-0.266,0-0.52-0.105-0.708-0.293l-8.982-9c-0.39-0.391-0.389-1.023,0.001-1.414
	l3.502-3.502c0.391-0.391,1.023-0.391,1.414,0s0.391,1.023,0,1.414L4.414,12l7.983,8h2.175l-7.28-7.293
	c-0.39-0.391-0.389-1.023,0.001-1.414L14.586,4h-2.172L9.623,6.792c-0.391,0.391-1.023,0.391-1.414,0s-0.391-1.023,0-1.414
	l3.084-3.084C11.48,2.105,11.735,2,12,2h5c0.404,0,0.769,0.244,0.924,0.617c0.155,0.374,0.069,0.804-0.217,1.09L9.414,12
	l8.277,8.293c0.285,0.286,0.371,0.716,0.216,1.09C17.751,21.756,17.387,22,16.982,22z M21.707,20.223
	c0.425-0.352,0.392-1.023,0.001-1.415L14.914,12l6.793-6.793c0.391-0.391,0.391-1.023,0-1.414s-1.023-0.391-1.414,0l-7.5,7.5
	c-0.39,0.39-0.391,1.023-0.001,1.414l7.5,7.515C20.292,20.221,20.934,20.862,21.707,20.223z"/>
</svg>
