<?xml version="1.0" encoding="utf-8"?>
<!-- Generator: Adobe Illustrator 16.0.0, SVG Export Plug-In . SVG Version: 6.00 Build 0)  -->
<!DOCTYPE svg PUBLIC "-//W3C//DTD SVG 1.1//EN" "http://www.w3.org/Graphics/SVG/1.1/DTD/svg11.dtd">
<svg version="1.1" id="Icons" xmlns="http://www.w3.org/2000/svg" xmlns:xlink="http://www.w3.org/1999/xlink" x="0px" y="0px"
	 width="24px" height="24px" viewBox="0 0 24 24" enable-background="new 0 0 24 24" xml:space="preserve">
<path id="Angle-double-right_1_" d="M12,22H7c-0.404,0-0.77-0.244-0.924-0.617c-0.155-0.374-0.069-0.804,0.217-1.09L14.587,12
	L6.31,3.707C6.024,3.42,5.939,2.99,6.094,2.617C6.249,2.244,6.613,2,7.018,2h5c0.266,0,0.521,0.105,0.708,0.293l8.982,9
	c0.39,0.391,0.39,1.023-0.001,1.414l-3.502,3.502c-0.391,0.391-1.023,0.391-1.414,0s-0.391-1.023,0-1.414L19.587,12l-7.984-8H9.429
	l7.279,7.293c0.39,0.391,0.39,1.023-0.001,1.414L9.414,20h2.172l2.791-2.792c0.391-0.391,1.023-0.391,1.414,0
	c0.391,0.39,0.391,1.023,0,1.414l-3.084,3.084C12.52,21.895,12.266,22,12,22z M3.707,20.207l7.5-7.5
	c0.391-0.39,0.391-1.023,0.001-1.414l-7.5-7.515C3.317,3.387,2.685,3.388,2.294,3.777c-0.392,0.39-0.392,1.023-0.002,1.415L9.087,12
	l-6.794,6.793c-0.391,0.391-0.391,1.023,0,1.414C2.293,20.207,2.852,20.883,3.707,20.207z"/>
</svg>
