<?xml version="1.0" encoding="utf-8"?>
<!-- Generator: Adobe Illustrator 16.0.0, SVG Export Plug-In . SVG Version: 6.00 Build 0)  -->
<!DOCTYPE svg PUBLIC "-//W3C//DTD SVG 1.1//EN" "http://www.w3.org/Graphics/SVG/1.1/DTD/svg11.dtd">
<svg version="1.1" id="Icons" xmlns="http://www.w3.org/2000/svg" xmlns:xlink="http://www.w3.org/1999/xlink" x="0px" y="0px"
	 width="24px" height="24px" viewBox="0 0 24 24" enable-background="new 0 0 24 24" xml:space="preserve">
<path id="Angle-double-down" d="M12,22c-0.256,0-0.512-0.098-0.707-0.293l-3.502-3.502c-0.391-0.391-0.391-1.023,0-1.414
	s1.023-0.391,1.414,0L12,19.586l8-7.983V9.428l-7.293,7.28c-0.391,0.39-1.023,0.389-1.414-0.001L4,9.414v2.172l2.792,2.792
	c0.391,0.391,0.391,1.023,0,1.414s-1.023,0.391-1.414,0l-3.084-3.084C2.105,12.52,2,12.265,2,12V7c0-0.404,0.244-0.769,0.617-0.924
	c0.374-0.155,0.803-0.069,1.09,0.217L12,14.586l8.293-8.277c0.287-0.285,0.717-0.369,1.09-0.216C21.756,6.249,22,6.613,22,7.018v5
	c0,0.266-0.105,0.52-0.293,0.708l-9,8.982C12.511,21.903,12.255,22,12,22z M12.707,11.208l7.515-7.5
	c0.391-0.39,0.392-1.023,0.001-1.415c-0.39-0.391-1.023-0.392-1.415-0.001L12,9.086L5.207,2.293c-0.391-0.391-1.023-0.391-1.414,0
	s-0.391,1.023,0,1.414l7.5,7.5C11.488,11.402,11.744,11.5,12,11.5C12.255,11.5,12.511,11.403,12.707,11.208z"/>
</svg>
