<?xml version="1.0" encoding="utf-8"?>
<!-- Generator: Adobe Illustrator 16.0.0, SVG Export Plug-In . SVG Version: 6.00 Build 0)  -->
<!DOCTYPE svg PUBLIC "-//W3C//DTD SVG 1.1//EN" "http://www.w3.org/Graphics/SVG/1.1/DTD/svg11.dtd">
<svg version="1.1" id="Icons" xmlns="http://www.w3.org/2000/svg" xmlns:xlink="http://www.w3.org/1999/xlink" x="0px" y="0px"
	 width="24px" height="24px" viewBox="0 0 24 24" enable-background="new 0 0 24 24" xml:space="preserve">
<path id="Angle-double-up_1_" d="M21,18c-0.26,0-0.516-0.102-0.707-0.293L12,9.414L3.707,17.69c-0.286,0.286-0.717,0.37-1.09,0.216
	C2.244,17.751,2,17.387,2,16.982v-5c0-0.266,0.105-0.52,0.293-0.708l9-8.982c0.391-0.39,1.023-0.389,1.414,0.001l3.502,3.501
	c0.391,0.39,0.391,1.023,0,1.414s-1.023,0.391-1.414,0L12,4.414l-8,7.983v2.175l7.293-7.28c0.391-0.39,1.023-0.389,1.414,0.001
	L20,14.586v-2.172l-2.791-2.792c-0.391-0.391-0.391-1.024,0-1.414c0.391-0.391,1.023-0.391,1.414,0l3.084,3.084
	C21.895,11.48,22,11.735,22,12v5c0,0.404-0.243,0.769-0.617,0.924C21.259,17.975,21.129,18,21,18z M5.192,21.708L12,14.914
	l6.793,6.793c0.391,0.391,1.023,0.391,1.414,0s0.391-1.023,0-1.414l-7.5-7.5c-0.39-0.39-1.023-0.391-1.414-0.001l-7.515,7.5
	c-0.391,0.39-0.392,1.023-0.001,1.415C3.777,21.707,4.384,22.333,5.192,21.708z"/>
</svg>
