<?xml version="1.0" encoding="utf-8"?>
<!-- Generator: Adobe Illustrator 25.4.1, SVG Export Plug-In . SVG Version: 6.00 Build 0)  -->
<svg version="1.1" id="Icons" xmlns="http://www.w3.org/2000/svg" xmlns:xlink="http://www.w3.org/1999/xlink" x="0px" y="0px"
	 viewBox="0 0 24 24" style="enable-background:new 0 0 24 24;" xml:space="preserve">
<g id="Apps">
	<g>
		<g>
			<path d="M17.765,11.482h-4.247c-0.552,0-1-0.448-1-1V6.235c0-0.552,0.448-1,1-1h4.247c0.553,0,1,0.448,1,1v4.247
				C18.765,11.034,18.317,11.482,17.765,11.482z M14.518,9.482h2.247V7.235h-2.247V9.482z"/>
		</g>
		<g>
			<path d="M10.482,18.765H6.235c-0.552,0-1-0.448-1-1v-4.248c0-0.552,0.448-1,1-1h4.247c0.552,0,1,0.448,1,1v4.248
				C11.482,18.317,11.034,18.765,10.482,18.765z M7.235,16.765h2.247v-2.248H7.235V16.765z"/>
		</g>
		<g>
			<path d="M17.765,18.765h-4.247c-0.552,0-1-0.448-1-1v-4.248c0-0.552,0.448-1,1-1h4.247c0.553,0,1,0.448,1,1v4.248
				C18.765,18.317,18.317,18.765,17.765,18.765z M14.518,16.765h2.247v-2.248h-2.247V16.765z"/>
		</g>
		<g>
			<path d="M10.482,11.482H6.235c-0.552,0-1-0.448-1-1V6.235c0-0.552,0.448-1,1-1h4.247c0.552,0,1,0.448,1,1v4.247
				C11.482,11.034,11.034,11.482,10.482,11.482z M7.235,9.482h2.247V7.235H7.235V9.482z"/>
		</g>
	</g>
	<g>
		<path d="M17.002,22H7C4.243,22,2,19.758,2,17.002v-5.75c0-0.552,0.448-1,1-1s1,0.448,1,1v5.75C4,18.655,5.346,20,7,20h10.002
			C18.655,20,20,18.655,20,17.002V6.999C20,5.345,18.655,4,17.002,4H7C5.346,4,4,5.345,4,6.999v0.844c0,0.552-0.448,1-1,1
			s-1-0.448-1-1V6.999C2,4.243,4.243,2,7,2h10.002C19.758,2,22,4.243,22,6.999v10.003C22,19.758,19.758,22,17.002,22z"/>
	</g>
</g>
</svg>
