<?xml version="1.0" encoding="utf-8"?>
<!-- Generator: Adobe Illustrator 25.4.1, SVG Export Plug-In . SVG Version: 6.00 Build 0)  -->
<svg version="1.1" id="Icons" xmlns="http://www.w3.org/2000/svg" xmlns:xlink="http://www.w3.org/1999/xlink" x="0px" y="0px"
	 viewBox="0 0 24 24" style="enable-background:new 0 0 24 24;" xml:space="preserve">
<g id="Archive-open">
	<g>
		<path d="M7.127,17.515c-1.222-0.001-2.254-1.021-2.254-2.228V8.731c0-1.222,0.993-2.215,2.215-2.215h3.115
			c0.285,0,0.558,0.122,0.747,0.335l1.093,1.228h3.02c1.201,0,2.216,1.039,2.216,2.268v1.481h1.23c0.358,0,0.688,0.191,0.867,0.502
			s0.177,0.692-0.003,1.002l-2.15,3.687c-0.18,0.307-0.509,0.496-0.864,0.496H7.127z M8.885,15.515h6.899l0.983-1.687H9.885
			L8.885,15.515z M7.088,8.516c-0.116,0-0.215,0.099-0.215,0.215v6.255l1.582-2.668c0.181-0.304,0.507-0.49,0.86-0.49h5.963v-1.481
			c0-0.135-0.124-0.268-0.216-0.268h-3.469c-0.285,0-0.558-0.122-0.747-0.335L9.754,8.516H7.088z"/>
	</g>
	<g>
		<path d="M17.002,22H7c-2.757,0-4.999-2.242-4.999-4.998v-5.75c0-0.552,0.447-1,1-1s1,0.448,1,1v5.75C4.001,18.655,5.347,20,7,20
			h10.002C18.655,20,20,18.655,20,17.002V6.999C20,5.345,18.655,4,17.002,4H7C5.347,4,4.001,5.345,4.001,6.999v0.844
			c0,0.552-0.447,1-1,1s-1-0.448-1-1V6.999C2.001,4.243,4.243,2,7,2h10.002C19.758,2,22,4.243,22,6.999v10.003
			C22,19.758,19.758,22,17.002,22z"/>
	</g>
</g>
</svg>
