<?xml version="1.0" encoding="utf-8"?>
<!-- Generator: Adobe Illustrator 25.4.1, SVG Export Plug-In . SVG Version: 6.00 Build 0)  -->
<svg version="1.1" id="Icons" xmlns="http://www.w3.org/2000/svg" xmlns:xlink="http://www.w3.org/1999/xlink" x="0px" y="0px"
	 viewBox="0 0 24 24" style="enable-background:new 0 0 24 24;" xml:space="preserve">
<g id="Archive">
	<path d="M16.329,17.706c1.279,0,2.319-1.04,2.319-2.319v-5.021c0-1.288-1.062-2.376-2.32-2.376h-3.316l-1.212-1.361
		c-0.19-0.213-0.462-0.335-0.747-0.335H7.671c-1.279,0-2.319,1.04-2.319,2.319v6.761c0,1.264,1.082,2.332,2.363,2.332H16.329z
		 M7.671,8.294h2.932l1.212,1.361c0.19,0.213,0.462,0.335,0.747,0.335h3.765c0.158,0,0.32,0.19,0.32,0.376v0.83H7.353V8.613
		C7.353,8.44,7.499,8.294,7.671,8.294z M7.353,15.374v-2.178h9.295v2.191c0,0.173-0.146,0.319-0.319,0.319H7.715
		C7.536,15.706,7.353,15.539,7.353,15.374z"/>
	<path d="M17.002,2H7C4.243,2,2,4.243,2,6.999v0.844c0,0.552,0.448,1,1,1s1-0.448,1-1V6.999C4,5.345,5.346,4,7,4h10.002
		C18.655,4,20,5.345,20,6.999v10.003C20,18.655,18.655,20,17.002,20H7C5.346,20,4,18.655,4,17.002v-5.75c0-0.552-0.448-1-1-1
		s-1,0.448-1,1v5.75C2,19.758,4.243,22,7,22h10.002C19.758,22,22,19.758,22,17.002V6.999C22,4.243,19.758,2,17.002,2z"/>
</g>
</svg>
