<?xml version="1.0" encoding="utf-8"?>
<!-- Generator: Adobe Illustrator 16.0.0, SVG Export Plug-In . SVG Version: 6.00 Build 0)  -->
<!DOCTYPE svg PUBLIC "-//W3C//DTD SVG 1.1//EN" "http://www.w3.org/Graphics/SVG/1.1/DTD/svg11.dtd">
<svg version="1.1" id="Icons" xmlns="http://www.w3.org/2000/svg" xmlns:xlink="http://www.w3.org/1999/xlink" x="0px" y="0px"
	 width="24px" height="24px" viewBox="0 0 24 24" enable-background="new 0 0 24 24" xml:space="preserve">
<path id="Arrow-right" d="M11.999,22H7c-0.404,0-0.77-0.244-0.924-0.617c-0.155-0.374-0.069-0.804,0.217-1.09L11.586,15L3,15
	c-0.553,0-1-0.448-1-1v-4c0-0.552,0.447-1,1-1h8.593L6.31,3.707C6.024,3.42,5.939,2.99,6.094,2.617C6.249,2.244,6.613,2,7.018,2l0,0
	l5,0c0.266,0,0.521,0.105,0.708,0.293l8.982,9c0.39,0.391,0.39,1.023-0.001,1.414l-3.502,3.502c-0.391,0.391-1.023,0.391-1.414,0
	c-0.391-0.39-0.391-1.023,0-1.414L19.587,12l-7.984-8L9.429,4l5.283,5.294c0.285,0.286,0.37,0.716,0.216,1.09
	C14.772,10.757,14.408,11,14.004,11H4v2l10,0c0.404,0,0.77,0.244,0.924,0.617c0.155,0.374,0.069,0.804-0.217,1.09L9.414,20h2.171
	l2.791-2.791c0.391-0.391,1.023-0.391,1.414,0s0.391,1.024,0,1.414l-3.084,3.083C12.519,21.895,12.265,22,11.999,22z"/>
</svg>
