<?xml version="1.0" encoding="utf-8"?>
<!-- Generator: Adobe Illustrator 16.0.0, SVG Export Plug-In . SVG Version: 6.00 Build 0)  -->
<!DOCTYPE svg PUBLIC "-//W3C//DTD SVG 1.1//EN" "http://www.w3.org/Graphics/SVG/1.1/DTD/svg11.dtd">
<svg version="1.1" id="Icons" xmlns="http://www.w3.org/2000/svg" xmlns:xlink="http://www.w3.org/1999/xlink" x="0px" y="0px"
	 width="24px" height="24px" viewBox="0 0 24 24" enable-background="new 0 0 24 24" xml:space="preserve">
<path id="Arrow-to-right" d="M21,22c-0.552,0-1-0.447-1-1V3c0-0.553,0.448-1,1-1s1,0.447,1,1v18C22,21.553,21.552,22,21,22z
	 M9.707,21.707l3.084-3.084c0.391-0.391,0.391-1.023,0-1.414s-1.023-0.391-1.414,0L8.586,20H6.414l5.293-5.293
	c0.286-0.286,0.372-0.716,0.217-1.09S11.404,13,11,13H4v-2h7.004c0.404,0,0.769-0.243,0.924-0.617
	c0.155-0.373,0.069-0.803-0.216-1.089L6.428,4h2.175l7.983,7.999l-2.795,2.796c-0.391,0.391-0.391,1.023,0,1.414
	s1.023,0.391,1.414,0l3.502-3.502c0.39-0.391,0.391-1.022,0.001-1.413l-8.982-9C9.538,2.105,9.283,2,9.018,2h-5
	C3.613,2,3.249,2.243,3.094,2.617C2.939,2.99,3.024,3.42,3.31,3.706L8.593,9H3c-0.552,0-1,0.447-1,1v4c0,0.553,0.448,1,1,1h5.586
	l-5.293,5.293c-0.286,0.286-0.372,0.716-0.217,1.09S3.596,22,4,22h5C9.265,22,9.52,21.895,9.707,21.707z"/>
</svg>
