<?xml version="1.0" encoding="utf-8"?>
<!-- Generator: Adobe Illustrator 16.0.0, SVG Export Plug-In . SVG Version: 6.00 Build 0)  -->
<!DOCTYPE svg PUBLIC "-//W3C//DTD SVG 1.1//EN" "http://www.w3.org/Graphics/SVG/1.1/DTD/svg11.dtd">
<svg version="1.1" id="Icons" xmlns="http://www.w3.org/2000/svg" xmlns:xlink="http://www.w3.org/1999/xlink" x="0px" y="0px"
	 width="24px" height="24px" viewBox="0 0 24 24" enable-background="new 0 0 24 24" xml:space="preserve">
<path id="Arrows-h" d="M21.629,12.708l-3.379,3.378c-0.195,0.195-0.451,0.293-0.707,0.293s-0.512-0.098-0.707-0.293
	c-0.391-0.391-0.391-1.024,0-1.414L18.509,13H15v8c0,0.552-0.447,1-1,1h-4c-0.552,0-1-0.448-1-1v-8H5.493l1.671,1.671
	c0.391,0.39,0.391,1.023,0,1.414c-0.195,0.195-0.451,0.293-0.707,0.293S5.945,16.28,5.75,16.085l-3.379-3.378
	c-0.39-0.39-0.391-1.022-0.001-1.413l3.371-3.379c0.39-0.391,1.023-0.393,1.414-0.002c0.391,0.39,0.392,1.023,0.002,1.414L5.488,11
	H9V8.955c0-0.552,0.448-1,1-1s1,0.448,1,1V20h2V4h-2v1.542c0,0.552-0.448,1-1,1s-1-0.448-1-1V3c0-0.552,0.448-1,1-1h4
	c0.553,0,1,0.448,1,1v8h3.511l-1.668-1.672c-0.39-0.391-0.39-1.024,0.002-1.414c0.391-0.39,1.023-0.39,1.414,0.002l3.371,3.379
	C22.02,11.686,22.02,12.318,21.629,12.708z"/>
</svg>
