<?xml version="1.0" encoding="utf-8"?>
<!-- Generator: Adobe Illustrator 16.0.0, SVG Export Plug-In . SVG Version: 6.00 Build 0)  -->
<!DOCTYPE svg PUBLIC "-//W3C//DTD SVG 1.1//EN" "http://www.w3.org/Graphics/SVG/1.1/DTD/svg11.dtd">
<svg version="1.1" id="Icons" xmlns="http://www.w3.org/2000/svg" xmlns:xlink="http://www.w3.org/1999/xlink" x="0px" y="0px"
	 width="24px" height="24px" viewBox="0 0 24 24" enable-background="new 0 0 24 24" xml:space="preserve">
<path id="Arrow-down" d="M11.998,22c-0.256,0-0.512-0.098-0.707-0.293L7.79,18.205c-0.391-0.391-0.391-1.024,0-1.414
	c0.391-0.391,1.023-0.391,1.414,0l2.795,2.795l8-7.984L20,9.429l-5.295,5.283c-0.286,0.286-0.717,0.371-1.089,0.216
	c-0.374-0.155-0.617-0.52-0.617-0.924V4h-2v10c0,0.404-0.244,0.769-0.617,0.924c-0.374,0.154-0.804,0.069-1.09-0.217L4,9.415v2.17
	l2.79,2.791c0.391,0.391,0.391,1.024,0,1.414c-0.391,0.391-1.023,0.391-1.414,0l-3.083-3.084C2.105,12.519,2,12.264,2,11.999V7
	c0-0.404,0.244-0.769,0.617-0.924c0.374-0.155,0.804-0.07,1.09,0.217l5.292,5.292V3c0-0.552,0.448-1,1-1h4c0.553,0,1,0.448,1,1
	v8.593l5.295-5.284c0.286-0.286,0.718-0.371,1.089-0.216C21.757,6.249,22,6.613,22,7.018l-0.001,5c0,0.266-0.105,0.521-0.294,0.708
	l-9,8.982C12.509,21.903,12.253,22,11.998,22z"/>
</svg>
