<?xml version="1.0" encoding="utf-8"?>
<!-- Generator: Adobe Illustrator 16.0.0, SVG Export Plug-In . SVG Version: 6.00 Build 0)  -->
<!DOCTYPE svg PUBLIC "-//W3C//DTD SVG 1.1//EN" "http://www.w3.org/Graphics/SVG/1.1/DTD/svg11.dtd">
<svg version="1.1" id="Icons" xmlns="http://www.w3.org/2000/svg" xmlns:xlink="http://www.w3.org/1999/xlink" x="0px" y="0px"
	 width="24px" height="24px" viewBox="0 0 24 24" enable-background="new 0 0 24 24" xml:space="preserve">
<path id="Arrow-to-bottom" d="M21,22H3c-0.553,0-1-0.447-1-1s0.447-1,1-1h18c0.553,0,1,0.447,1,1S21.553,22,21,22z M12.706,18.708
	l9-8.982C21.895,9.538,22,9.283,22,9.018v-5c0-0.404-0.243-0.769-0.617-0.924c-0.374-0.153-0.804-0.069-1.089,0.216L15,8.593V3
	c0-0.553-0.447-1-1-1h-4C9.447,2,9,2.447,9,3v5.586L3.707,3.293C3.421,3.007,2.991,2.92,2.617,3.076C2.243,3.23,2,3.596,2,4v5
	c0,0.266,0.105,0.52,0.293,0.707l3.084,3.084c0.391,0.391,1.023,0.391,1.414,0s0.391-1.023,0-1.414L4,8.586V6.414l5.293,5.293
	c0.287,0.286,0.716,0.373,1.09,0.217C10.757,11.77,11,11.404,11,11V4h2v7.004c0,0.404,0.243,0.769,0.617,0.924
	c0.374,0.152,0.804,0.069,1.089-0.216L20,6.429v2.174l-7.999,7.984l-2.796-2.796c-0.391-0.391-1.023-0.391-1.414,0
	s-0.391,1.023,0,1.414l3.502,3.502C11.488,18.902,11.744,19,12,19S12.512,18.902,12.706,18.708z"/>
</svg>
