<?xml version="1.0" encoding="utf-8"?>
<!-- Generator: Adobe Illustrator 16.0.0, SVG Export Plug-In . SVG Version: 6.00 Build 0)  -->
<!DOCTYPE svg PUBLIC "-//W3C//DTD SVG 1.1//EN" "http://www.w3.org/Graphics/SVG/1.1/DTD/svg11.dtd">
<svg version="1.1" id="Icons" xmlns="http://www.w3.org/2000/svg" xmlns:xlink="http://www.w3.org/1999/xlink" x="0px" y="0px"
	 width="24px" height="24px" viewBox="0 0 24 24" enable-background="new 0 0 24 24" xml:space="preserve">
<path id="Arrow-to-left" d="M3,22c-0.553,0-1-0.447-1-1V3c0-0.553,0.447-1,1-1s1,0.447,1,1v18C4,21.553,3.553,22,3,22z
	 M20.906,21.383c0.154-0.373,0.069-0.803-0.216-1.089L15.407,15H21c0.553,0,1-0.447,1-1v-4c0-0.553-0.447-1-1-1h-5.586l5.293-5.293
	c0.286-0.286,0.372-0.716,0.217-1.09C20.77,2.243,20.404,2,20,2h-5c-0.266,0-0.52,0.105-0.707,0.293l-3.084,3.084
	c-0.391,0.391-0.391,1.023,0,1.414s1.023,0.391,1.414,0L15.414,4h2.172l-5.293,5.293c-0.286,0.286-0.372,0.716-0.217,1.09
	C12.23,10.757,12.596,11,13,11h7v2h-7.004c-0.404,0-0.769,0.243-0.924,0.617c-0.154,0.373-0.069,0.803,0.216,1.089L17.571,20h-2.174
	l-7.984-7.999l2.796-2.796c0.391-0.391,0.391-1.023,0-1.414s-1.023-0.391-1.414,0l-3.502,3.502
	c-0.391,0.391-0.391,1.022-0.001,1.413l8.982,9C14.462,21.895,14.717,22,14.982,22h5C20.387,22,20.751,21.757,20.906,21.383z"/>
</svg>
