<?xml version="1.0" encoding="utf-8"?>
<!-- Generator: Adobe Illustrator 16.0.0, SVG Export Plug-In . SVG Version: 6.00 Build 0)  -->
<!DOCTYPE svg PUBLIC "-//W3C//DTD SVG 1.1//EN" "http://www.w3.org/Graphics/SVG/1.1/DTD/svg11.dtd">
<svg version="1.1" id="Icons" xmlns="http://www.w3.org/2000/svg" xmlns:xlink="http://www.w3.org/1999/xlink" x="0px" y="0px"
	 width="24px" height="24px" viewBox="0 0 24 24" enable-background="new 0 0 24 24" xml:space="preserve">
<path id="Arrow-from-top" d="M21,4H3C2.447,4,2,3.553,2,3s0.447-1,1-1h18c0.553,0,1,0.447,1,1S21.553,4,21,4z M12.706,21.708
	l9-8.982C21.895,12.538,22,12.283,22,12.018v-5c0-0.404-0.243-0.769-0.617-0.924c-0.374-0.153-0.804-0.069-1.089,0.216L15,11.593V6
	c0-0.553-0.447-1-1-1h-4C9.447,5,9,5.447,9,6v5.586L3.707,6.293C3.421,6.007,2.992,5.92,2.617,6.076C2.243,6.23,2,6.596,2,7v5
	c0,0.266,0.105,0.52,0.293,0.707l3.084,3.084c0.391,0.391,1.023,0.391,1.414,0s0.391-1.023,0-1.414L4,11.586V9.414l5.293,5.293
	c0.286,0.286,0.716,0.373,1.09,0.217C10.757,14.77,11,14.404,11,14V7h2v7.004c0,0.404,0.243,0.769,0.617,0.924
	c0.374,0.152,0.805,0.069,1.089-0.216L20,9.429v2.174l-7.999,7.984l-2.796-2.796c-0.391-0.391-1.023-0.391-1.414,0
	s-0.391,1.023,0,1.414l3.502,3.502C11.488,21.902,11.744,22,12,22S12.512,21.902,12.706,21.708z"/>
</svg>
