<?xml version="1.0" encoding="utf-8"?>
<!-- Generator: Adobe Illustrator 16.0.0, SVG Export Plug-In . SVG Version: 6.00 Build 0)  -->
<!DOCTYPE svg PUBLIC "-//W3C//DTD SVG 1.1//EN" "http://www.w3.org/Graphics/SVG/1.1/DTD/svg11.dtd">
<svg version="1.1" id="Icons" xmlns="http://www.w3.org/2000/svg" xmlns:xlink="http://www.w3.org/1999/xlink" x="0px" y="0px"
	 width="24px" height="24px" viewBox="0 0 24 24" enable-background="new 0 0 24 24" xml:space="preserve">
<path id="Arrow-from-left" d="M3,22c-0.552,0-1-0.447-1-1V3c0-0.553,0.448-1,1-1s1,0.447,1,1v18C4,21.553,3.552,22,3,22z
	 M12.707,21.707l3.084-3.084c0.391-0.391,0.391-1.023,0-1.414s-1.023-0.391-1.414,0L11.586,20H9.414l5.293-5.293
	c0.286-0.286,0.372-0.716,0.217-1.09C14.77,13.243,14.404,13,14,13H7v-2h7.004c0.404,0,0.769-0.243,0.924-0.617
	c0.154-0.373,0.069-0.803-0.216-1.089L9.428,4h2.175l7.984,7.999l-2.796,2.796c-0.391,0.391-0.391,1.023,0,1.414
	s1.023,0.391,1.414,0l3.502-3.502c0.391-0.391,0.391-1.022,0.001-1.413l-8.982-9C12.538,2.105,12.283,2,12.018,2h-5
	C6.613,2,6.249,2.243,6.094,2.617C5.939,2.99,6.024,3.42,6.31,3.706L11.593,9H6c-0.552,0-1,0.447-1,1v4c0,0.553,0.448,1,1,1h5.586
	l-5.293,5.293c-0.286,0.286-0.372,0.716-0.217,1.09S6.596,22,7,22h5C12.265,22,12.52,21.895,12.707,21.707z"/>
</svg>
