<?xml version="1.0" encoding="utf-8"?>
<!-- Generator: Adobe Illustrator 16.0.0, SVG Export Plug-In . SVG Version: 6.00 Build 0)  -->
<!DOCTYPE svg PUBLIC "-//W3C//DTD SVG 1.1//EN" "http://www.w3.org/Graphics/SVG/1.1/DTD/svg11.dtd">
<svg version="1.1" id="Icons" xmlns="http://www.w3.org/2000/svg" xmlns:xlink="http://www.w3.org/1999/xlink" x="0px" y="0px"
	 width="24px" height="24px" viewBox="0 0 24 24" enable-background="new 0 0 24 24" xml:space="preserve">
<path id="Arrow-from-bottom" d="M21,22H3c-0.553,0-1-0.447-1-1s0.447-1,1-1h18c0.553,0,1,0.447,1,1S21.553,22,21,22z M15,18v-5.586
	l5.293,5.293c0.286,0.286,0.716,0.374,1.09,0.217C21.757,17.77,22,17.404,22,17v-5c0-0.266-0.105-0.52-0.293-0.707l-3.084-3.084
	c-0.391-0.391-1.023-0.391-1.414,0s-0.391,1.023,0,1.414L20,12.414v2.172l-5.293-5.293c-0.286-0.286-0.716-0.373-1.09-0.217
	C13.243,9.23,13,9.596,13,10v7h-2V9.996c0-0.404-0.243-0.769-0.617-0.924c-0.374-0.153-0.804-0.069-1.089,0.216L4,14.571v-2.174
	l7.999-7.984l2.796,2.796c0.391,0.391,1.023,0.391,1.414,0s0.391-1.023,0-1.414l-3.502-3.502c-0.391-0.391-1.024-0.39-1.413-0.001
	l-9,8.982C2.105,11.462,2,11.717,2,11.982v5c0,0.404,0.243,0.769,0.617,0.924c0.374,0.153,0.804,0.069,1.089-0.216L9,12.407V18
	c0,0.553,0.447,1,1,1h4C14.553,19,15,18.553,15,18z"/>
</svg>
