<?xml version="1.0" encoding="utf-8"?>
<!-- Generator: Adobe Illustrator 16.0.0, SVG Export Plug-In . SVG Version: 6.00 Build 0)  -->
<!DOCTYPE svg PUBLIC "-//W3C//DTD SVG 1.1//EN" "http://www.w3.org/Graphics/SVG/1.1/DTD/svg11.dtd">
<svg version="1.1" id="Icons" xmlns="http://www.w3.org/2000/svg" xmlns:xlink="http://www.w3.org/1999/xlink" x="0px" y="0px"
	 width="24px" height="24px" viewBox="0 0 24 24" enable-background="new 0 0 24 24" xml:space="preserve">
<path id="Arrow-up" d="M14,22h-4c-0.552,0-1-0.448-1-1v-8.593L3.707,17.69c-0.287,0.286-0.717,0.371-1.09,0.216S2,17.387,2,16.982
	v-5c0-0.266,0.105-0.52,0.293-0.708l9-8.982c0.391-0.39,1.023-0.389,1.414,0.001l3.502,3.502c0.391,0.391,0.391,1.023,0,1.414
	s-1.023,0.391-1.414,0L12,4.414l-8,7.983v2.175l5.293-5.284c0.288-0.285,0.718-0.37,1.09-0.216C10.756,9.228,11,9.592,11,9.996V20h2
	V10c0-0.404,0.244-0.769,0.617-0.924c0.374-0.155,0.803-0.069,1.09,0.217L20,14.586v-2.172l-2.791-2.791
	c-0.391-0.391-0.391-1.023,0-1.414s1.023-0.391,1.414,0l3.084,3.084C21.895,11.48,22,11.735,22,12v5
	c0,0.404-0.244,0.769-0.617,0.924c-0.375,0.155-0.804,0.07-1.09-0.217L15,12.414V21C15,21.552,14.552,22,14,22z"/>
</svg>
