<?xml version="1.0" encoding="utf-8"?>
<!-- Generator: Adobe Illustrator 16.0.0, SVG Export Plug-In . SVG Version: 6.00 Build 0)  -->
<!DOCTYPE svg PUBLIC "-//W3C//DTD SVG 1.1//EN" "http://www.w3.org/Graphics/SVG/1.1/DTD/svg11.dtd">
<svg version="1.1" id="Icons" xmlns="http://www.w3.org/2000/svg" xmlns:xlink="http://www.w3.org/1999/xlink" x="0px" y="0px"
	 width="24px" height="24px" viewBox="0 0 24 24" enable-background="new 0 0 24 24" xml:space="preserve">
<path id="Arrows-v" d="M11.292,21.629L7.914,18.25c-0.391-0.391-0.391-1.024,0-1.414c0.391-0.391,1.023-0.391,1.414,0L11,18.508V15
	H3c-0.552,0-1-0.448-1-1v-4c0-0.552,0.448-1,1-1h8V5.493L9.329,7.164c-0.817,0.643-1.414,0-1.414,0c-0.391-0.39-0.391-1.023,0-1.414
	l3.378-3.379c0.389-0.39,1.023-0.391,1.413-0.001l3.379,3.371c0.391,0.39,0.392,1.023,0.002,1.414
	c-0.39,0.391-1.023,0.392-1.414,0.002L13,5.488V9h2.045c0.552,0,1,0.448,1,1s-0.448,1-1,1H4v2h16v-2h-1.542c-0.552,0-1-0.448-1-1
	s0.448-1,1-1H21c0.552,0,1,0.448,1,1v4c0,0.552-0.448,1-1,1h-8v3.511l1.672-1.668c0.391-0.391,1.024-0.389,1.414,0.002
	c0.39,0.391,0.389,1.024-0.002,1.414l-3.379,3.371C12,22.297,11.292,21.629,11.292,21.629z"/>
</svg>
