<?xml version="1.0" encoding="utf-8"?>
<!-- Generator: Adobe Illustrator 16.0.0, SVG Export Plug-In . SVG Version: 6.00 Build 0)  -->
<!DOCTYPE svg PUBLIC "-//W3C//DTD SVG 1.1//EN" "http://www.w3.org/Graphics/SVG/1.1/DTD/svg11.dtd">
<svg version="1.1" id="Icons" xmlns="http://www.w3.org/2000/svg" xmlns:xlink="http://www.w3.org/1999/xlink" x="0px" y="0px"
	 width="24px" height="24px" viewBox="0 0 24 24" enable-background="new 0 0 24 24" xml:space="preserve">
<path id="Arrow-from-right" d="M21,22c-0.552,0-1-0.447-1-1V3c0-0.553,0.448-1,1-1s1,0.447,1,1v18C22,21.553,21.552,22,21,22z
	 M17.906,21.383c0.155-0.373,0.069-0.803-0.216-1.089L12.407,15H18c0.552,0,1-0.447,1-1v-4c0-0.553-0.448-1-1-1h-5.586l5.293-5.293
	c0.286-0.286,0.372-0.716,0.217-1.09S17.404,2,17,2h-5c-0.265,0-0.52,0.105-0.707,0.293L8.209,5.377
	c-0.391,0.391-0.391,1.023,0,1.414s1.023,0.391,1.414,0L12.414,4h2.172L9.293,9.293c-0.286,0.286-0.372,0.716-0.217,1.09
	S9.596,11,10,11h7v2H9.996c-0.404,0-0.769,0.243-0.924,0.617c-0.155,0.373-0.069,0.803,0.216,1.089L14.572,20h-2.175l-7.983-7.999
	l2.795-2.796c0.391-0.391,0.391-1.023,0-1.414s-1.023-0.391-1.414,0l-3.502,3.502c-0.39,0.391-0.391,1.022-0.001,1.413l8.982,9
	C11.462,21.895,11.717,22,11.982,22h5C17.387,22,17.751,21.757,17.906,21.383z"/>
</svg>
