<?xml version="1.0" encoding="utf-8"?>
<!-- Generator: Adobe Illustrator 16.0.0, SVG Export Plug-In . SVG Version: 6.00 Build 0)  -->
<!DOCTYPE svg PUBLIC "-//W3C//DTD SVG 1.1//EN" "http://www.w3.org/Graphics/SVG/1.1/DTD/svg11.dtd">
<svg version="1.1" id="Icons" xmlns="http://www.w3.org/2000/svg" xmlns:xlink="http://www.w3.org/1999/xlink" x="0px" y="0px"
	 width="24px" height="24px" viewBox="0 0 24 24" enable-background="new 0 0 24 24" xml:space="preserve">
<path id="Arrow-left" d="M16.982,22h-5c-0.266,0-0.52-0.105-0.708-0.293l-8.982-9c-0.39-0.391-0.389-1.023,0.001-1.414l3.502-3.502
	c0.391-0.391,1.023-0.391,1.414,0s0.391,1.023,0,1.414L4.414,12l7.983,8h2.175l-5.284-5.293c-0.285-0.286-0.371-0.716-0.216-1.09
	C9.228,13.244,9.592,13,9.996,13H20v-2H10c-0.404,0-0.769-0.244-0.924-0.617c-0.155-0.374-0.069-0.804,0.217-1.09L14.586,4h-2.172
	L9.623,6.791c-0.391,0.391-1.023,0.391-1.414,0s-0.391-1.023,0-1.414l3.084-3.084C11.48,2.105,11.735,2,12,2h5
	c0.404,0,0.769,0.244,0.924,0.617c0.155,0.374,0.069,0.804-0.217,1.09L12.414,9H21c0.552,0,1,0.448,1,1v4c0,0.552-0.448,1-1,1
	h-8.593l5.284,5.293c0.285,0.286,0.371,0.716,0.216,1.09C17.751,21.756,17.387,22,16.982,22z"/>
</svg>
