<?xml version="1.0" encoding="utf-8"?>
<!-- Generator: Adobe Illustrator 16.0.0, SVG Export Plug-In . SVG Version: 6.00 Build 0)  -->
<!DOCTYPE svg PUBLIC "-//W3C//DTD SVG 1.1//EN" "http://www.w3.org/Graphics/SVG/1.1/DTD/svg11.dtd">
<svg version="1.1" id="Icons" xmlns="http://www.w3.org/2000/svg" xmlns:xlink="http://www.w3.org/1999/xlink" x="0px" y="0px"
	 width="24px" height="24px" viewBox="0 0 24 24" enable-background="new 0 0 24 24" xml:space="preserve">
<path id="Arrow-to-up" d="M21,4H3C2.448,4,2,3.553,2,3s0.448-1,1-1h18c0.553,0,1,0.447,1,1S21.553,4,21,4z M15,21v-5.586
	l5.293,5.293c0.287,0.287,0.716,0.373,1.09,0.217C21.757,20.77,22,20.404,22,20v-5c0-0.266-0.105-0.52-0.293-0.707l-3.084-3.084
	c-0.391-0.391-1.023-0.391-1.414,0s-0.391,1.023,0,1.414L20,15.414v2.172l-5.293-5.293c-0.286-0.287-0.716-0.373-1.09-0.217
	C13.243,12.23,13,12.596,13,13v7h-2v-7.004c0-0.404-0.244-0.769-0.617-0.924c-0.373-0.151-0.802-0.068-1.09,0.216L4,17.571v-2.174
	l8-7.984l2.795,2.796c0.391,0.391,1.023,0.391,1.414,0s0.391-1.023,0-1.414l-3.502-3.502c-0.39-0.39-1.023-0.391-1.414-0.001
	l-9,8.982C2.105,14.462,2,14.717,2,14.982v5c0,0.404,0.244,0.769,0.617,0.924c0.373,0.153,0.804,0.069,1.09-0.216L9,15.407V21
	c0,0.553,0.448,1,1,1h4C14.553,22,15,21.553,15,21z"/>
</svg>
