<?xml version="1.0" encoding="utf-8"?>
<!-- Generator: Adobe Illustrator 25.4.1, SVG Export Plug-In . SVG Version: 6.00 Build 0)  -->
<svg version="1.1" id="Icons" xmlns="http://www.w3.org/2000/svg" xmlns:xlink="http://www.w3.org/1999/xlink" x="0px" y="0px"
	 viewBox="0 0 24 24" style="enable-background:new 0 0 24 24;" xml:space="preserve">
<g id="ATM">
	<path d="M11.234,16.293c0,1.492,1.214,2.707,2.706,2.707s2.707-1.214,2.707-2.707c0-0.581-0.188-1.117-0.502-1.559
		c0.319-0.454,0.502-0.992,0.502-1.551c0-1.492-1.215-2.707-2.707-2.707s-2.706,1.214-2.706,2.707c0,0.56,0.182,1.097,0.502,1.551
		C11.423,15.176,11.234,15.712,11.234,16.293z M13.94,17c-0.39,0-0.706-0.317-0.706-0.707s0.316-0.707,0.706-0.707
		s0.707,0.317,0.707,0.707S14.33,17,13.94,17z M13.94,12.477c0.39,0,0.707,0.317,0.707,0.707c0,0.215-0.092,0.367-0.17,0.458
		c-0.174-0.035-0.353-0.054-0.537-0.054s-0.363,0.019-0.537,0.054c-0.078-0.091-0.169-0.242-0.169-0.458
		C13.234,12.793,13.551,12.477,13.94,12.477z"/>
	<path d="M21,2H3C2.448,2,2,2.447,2,3v3.989c0,0.552,0.448,1,1,1h1.138v1.784c0,0.552,0.448,1,1,1s1-0.448,1-1V7.988h1.824V20h-1.09
		c-0.404,0-0.733-0.329-0.733-0.733v-6.083c0-0.552-0.448-1-1-1s-1,0.448-1,1v6.083C4.138,20.773,5.364,22,6.871,22h10.258
		c1.507,0,2.733-1.226,2.733-2.733V7.988H21c0.553,0,1-0.448,1-1V3C22,2.447,21.553,2,21,2z M17.862,19.266
		c0,0.404-0.329,0.733-0.733,0.733H9.961V7.988h7.901V19.266z M20,5.988H4V4h16V5.988z"/>
</g>
</svg>
