<svg fill="#000000" xmlns="http://www.w3.org/2000/svg"  viewBox="0 0 16 16" width="16px" height="16px"><path d="M 7.492188 0.15625 C 7.492188 0.15625 7.242188 0.480469 7.117188 0.960938 C 7.042969 1.261719 7.035156 1.660156 7.15625 2.066406 C 4.476563 2.449219 2.394531 4.621094 2.085938 7.328125 C 1.472656 7.664063 1 8.246094 1 9 C 1 9.964844 1.691406 10.777344 2.609375 10.960938 L 2.640625 10.96875 L 2.679688 10.96875 C 2.757813 10.972656 2.824219 10.976563 2.898438 10.980469 C 3.9375 12.753906 5.796875 14 8 14 C 10.191406 14 12.054688 12.769531 13.097656 11.007813 C 13.191406 10.996094 13.277344 10.980469 13.382813 10.964844 L 13.390625 10.964844 L 13.394531 10.960938 C 14.308594 10.777344 15 9.964844 15 9 C 15 8.246094 14.527344 7.664063 13.917969 7.328125 C 13.582031 4.40625 11.183594 2.109375 8.199219 2.007813 C 8.019531 1.703125 8.027344 1.441406 8.085938 1.207031 C 8.15625 0.933594 8.289063 0.761719 8.289063 0.761719 Z M 8 3 C 10.644531 3 12.792969 5.042969 12.980469 7.636719 L 13.003906 7.96875 L 13.316406 8.074219 C 13.71875 8.210938 14 8.5625 14 9 C 14 9.488281 13.652344 9.890625 13.199219 9.980469 C 13.0625 10.003906 12.9375 10.019531 12.804688 10.042969 L 12.550781 10.078125 L 12.4375 10.304688 C 11.601563 11.90625 9.933594 13 8 13 C 6.050781 13 4.371094 11.886719 3.546875 10.265625 L 3.414063 10.003906 L 3.125 9.992188 C 3.019531 9.984375 2.910156 9.980469 2.796875 9.976563 C 2.34375 9.878906 2 9.484375 2 9 C 2 8.5625 2.28125 8.210938 2.683594 8.074219 L 2.992188 7.96875 L 3.019531 7.636719 C 3.207031 5.042969 5.355469 3 8 3 Z M 6.5 7 C 6.222656 7 6 7.222656 6 7.5 C 6 7.777344 6.222656 8 6.5 8 C 6.777344 8 7 7.777344 7 7.5 C 7 7.222656 6.777344 7 6.5 7 Z M 9.5 7 C 9.222656 7 9 7.222656 9 7.5 C 9 7.777344 9.222656 8 9.5 8 C 9.777344 8 10 7.777344 10 7.5 C 10 7.222656 9.777344 7 9.5 7 Z M 6.585938 9.414063 L 5.878906 10.121094 C 7.046875 11.289063 8.953125 11.289063 10.121094 10.121094 L 9.414063 9.414063 C 8.628906 10.199219 7.371094 10.199219 6.585938 9.414063 Z"/></svg>