<?xml version="1.0" encoding="utf-8"?>
<!-- Generator: Adobe Illustrator 25.4.1, SVG Export Plug-In . SVG Version: 6.00 Build 0)  -->
<svg version="1.1" id="Icons" xmlns="http://www.w3.org/2000/svg" xmlns:xlink="http://www.w3.org/1999/xlink" x="0px" y="0px"
	 viewBox="0 0 24 24" style="enable-background:new 0 0 24 24;" xml:space="preserve">
<g id="Bag-2">
	<g>
		<path d="M13.109,12.684h-2.218c-1.715,0-3.11-1.396-3.11-3.11v-1.93c0-0.552,0.448-1,1-1s1,0.448,1,1v1.93
			c0,0.612,0.498,1.11,1.11,1.11h2.218c0.612,0,1.11-0.498,1.11-1.11v-1.93c0-0.552,0.448-1,1-1s1,0.448,1,1v1.93
			C16.219,11.288,14.824,12.684,13.109,12.684z"/>
	</g>
	<g>
		<path d="M18.595,20.811H5.405c-1.859,0-3.371-1.557-3.371-3.47l0.206-2.884c0.04-0.551,0.531-0.961,1.07-0.925
			c0.551,0.04,0.965,0.519,0.925,1.07l-0.204,2.812c0.002,0.738,0.618,1.398,1.374,1.398h13.19c0.756,0,1.371-0.66,1.371-1.47
			L18.968,5.189H4.916L4.48,11.202c-0.04,0.551-0.523,0.955-1.07,0.925c-0.551-0.04-0.965-0.519-0.925-1.07l0.502-6.94
			c0.038-0.523,0.473-0.928,0.998-0.928h15.904c0.521,0,0.954,0.399,0.997,0.918l1.077,13.151
			C21.966,19.254,20.454,20.811,18.595,20.811z"/>
	</g>
</g>
</svg>
