<?xml version="1.0" encoding="utf-8"?>
<!-- Generator: Adobe Illustrator 25.4.1, SVG Export Plug-In . SVG Version: 6.00 Build 0)  -->
<svg version="1.1" id="Icons" xmlns="http://www.w3.org/2000/svg" xmlns:xlink="http://www.w3.org/1999/xlink" x="0px" y="0px"
	 viewBox="0 0 24 24" style="enable-background:new 0 0 24 24;" xml:space="preserve">
<g id="Baking-glove">
	<path d="M20.53,8.046c-0.95-0.953-2.527-1.089-3.647-0.215c-0.471-3.228-3.521-5.811-7.079-5.811c-0.905,0-1.806,0.183-2.677,0.543
		C6.617,2.774,6.375,3.359,6.586,3.87C6.798,4.38,7.384,4.623,7.893,4.411c0.626-0.259,1.27-0.391,1.911-0.391
		c2.483,0,5.142,1.879,5.142,4.676l-0.001,1.676c0,0.418,0.26,0.792,0.652,0.938c0.39,0.145,0.833,0.033,1.105-0.285l1.343-1.565
		c0.287-0.286,0.783-0.287,1.07,0c0.144,0.143,0.222,0.333,0.222,0.534c0,0.202-0.078,0.393-0.27,0.586l-3.877,4.46
		c-0.158,0.182-0.245,0.415-0.245,0.656v1.282H4.663V8.897c0-0.957,0.328-1.898,0.948-2.723c0.332-0.441,0.244-1.068-0.197-1.4
		c-0.443-0.333-1.069-0.244-1.4,0.198C3.13,6.146,2.663,7.503,2.663,8.897v9.082c0,0.552,0.447,1,1,1h0.103l-0.001,2
		c0,0.266,0.105,0.52,0.293,0.708s0.441,0.293,0.707,0.293h9.83c0.552,0,1-0.448,1-1l0.001-2h0.349c0.553,0,1-0.448,1-1v-1.909
		l3.584-4.126c0.521-0.521,0.808-1.213,0.808-1.95S21.05,8.566,20.53,8.046z M13.596,19.979h-7.83l0-1h7.83L13.596,19.979z"/>
</g>
</svg>
