<?xml version="1.0" encoding="utf-8"?>
<!-- Generator: Adobe Illustrator 25.4.1, SVG Export Plug-In . SVG Version: 6.00 Build 0)  -->
<svg version="1.1" id="Icons" xmlns="http://www.w3.org/2000/svg" xmlns:xlink="http://www.w3.org/1999/xlink" x="0px" y="0px"
	 viewBox="0 0 24 24" style="enable-background:new 0 0 24 24;" xml:space="preserve">
<g id="Balance-2">
	<path d="M15.546,15.664c0-1.956-1.591-3.546-3.546-3.546s-3.546,1.591-3.546,3.546S10.044,19.21,12,19.21
		S15.546,17.62,15.546,15.664z M10.454,15.664c0-0.853,0.694-1.546,1.546-1.546s1.546,0.694,1.546,1.546S12.853,17.21,12,17.21
		S10.454,16.517,10.454,15.664z"/>
	<path d="M16.944,9.328h-0.356V7.804h1.268c3.102-0.07,4.359-3.079,4.134-4.89C21.945,2.397,21.512,2,20.993,2H3.007
		C2.488,2,2.055,2.397,2.011,2.914c-0.21,1.827,0.982,4.772,4.134,4.89h1.268v1.524H7.034c-2.34,0.043-3.288,1.852-3.463,2.806
		l-0.244,1.363c-0.097,0.543,0.265,1.063,0.808,1.161c0.545,0.098,1.063-0.265,1.161-0.808l0.241-1.346
		c0.041-0.192,0.308-1.153,1.517-1.176h9.874c1.227,0.022,1.494,0.983,1.532,1.158L19.805,20H4.195l0.499-2.789
		c0.097-0.544-0.265-1.063-0.808-1.161c-0.548-0.1-1.064,0.265-1.161,0.809l-0.709,3.964c-0.052,0.292,0.027,0.591,0.218,0.818
		C2.423,21.869,2.704,22,3,22h18c0.296,0,0.577-0.131,0.767-0.358s0.27-0.527,0.217-0.818l-1.559-8.694
		C20.251,11.179,19.303,9.372,16.944,9.328z M4.071,4h15.858c-0.164,0.747-0.665,1.665-2.118,1.804L6.229,5.807
		C4.744,5.682,4.236,4.752,4.071,4z M9.412,7.804h5.176v1.524H9.412V7.804z"/>
</g>
</svg>
