<?xml version="1.0" encoding="utf-8"?>
<!-- Generator: Adobe Illustrator 25.4.1, SVG Export Plug-In . SVG Version: 6.00 Build 0)  -->
<svg version="1.1" id="Icons" xmlns="http://www.w3.org/2000/svg" xmlns:xlink="http://www.w3.org/1999/xlink" x="0px" y="0px"
	 viewBox="0 0 24 24" style="enable-background:new 0 0 24 24;" xml:space="preserve">
<g id="Balance-1">
	<path d="M14.788,4.014C14.382,2.857,13.29,2.02,11.995,2.02c-1.294,0-2.387,0.838-2.793,1.996L5.975,4.016
		c-0.389,0-0.741,0.225-0.906,0.576l-2.979,6.371c-0.062,0.133-0.094,0.277-0.094,0.424c0,2.194,1.785,3.979,3.979,3.979
		s3.979-1.785,3.979-3.979c0-0.146-0.032-0.291-0.094-0.424L7.547,6.016l1.671,0c0.304,0.82,0.954,1.464,1.777,1.76v8.338H7.756
		c-1.654,0-3,1.32-3,2.943V21c0,0.552,0.447,1,1,1h2.753c0.553,0,1-0.448,1-1s-0.447-1-1-1H6.756v-0.943c0-0.52,0.448-0.943,1-0.943
		h8.488c0.552,0,1,0.423,1,0.943V20h-5.32c-0.553,0-1,0.448-1,1s0.447,1,1,1h6.32c0.553,0,1-0.448,1-1v-1.943
		c0-1.623-1.346-2.943-3-2.943h-3.249V7.776c0.824-0.297,1.475-0.942,1.779-1.762l1.679,0l-2.313,4.946
		c-0.062,0.133-0.094,0.277-0.094,0.424c0,2.194,1.785,3.979,3.979,3.979s3.979-1.785,3.979-3.979c0-0.146-0.032-0.291-0.094-0.424
		l-2.979-6.37c-0.165-0.352-0.518-0.576-0.906-0.576L14.788,4.014z M5.975,7.376l1.408,3.01H4.567L5.975,7.376z M5.975,13.366
		c-0.725,0-1.354-0.396-1.699-0.979h3.399C7.329,12.97,6.7,13.366,5.975,13.366z M11.995,4.02c0.536,0,0.972,0.436,0.972,0.971
		c0,0.535-0.436,0.971-0.972,0.971c-0.535,0-0.971-0.436-0.971-0.971C11.024,4.455,11.46,4.02,11.995,4.02z M19.433,10.383h-2.816
		l1.408-3.01L19.433,10.383z M18.025,13.363c-0.725,0-1.354-0.396-1.699-0.979h3.399C19.38,12.967,18.75,13.363,18.025,13.363z"/>
</g>
</svg>
