<?xml version="1.0" encoding="utf-8"?>
<!-- Generator: Adobe Illustrator 16.0.0, SVG Export Plug-In . SVG Version: 6.00 Build 0)  -->
<!DOCTYPE svg PUBLIC "-//W3C//DTD SVG 1.0//EN" "http://www.w3.org/TR/2001/REC-SVG-20010904/DTD/svg10.dtd">
<svg version="1.0" id="Layer_1" xmlns="http://www.w3.org/2000/svg" xmlns:xlink="http://www.w3.org/1999/xlink" x="0px" y="0px"
	 width="100px" height="100px" viewBox="0 0 100 100" enable-background="new 0 0 100 100" xml:space="preserve">
<path d="M90,50H76.667V10H23.333v40H10v6.667h7.757c-1.833,8.86-1.23,18.014,1.829,26.666H15V90h70v-6.667h-4.59
	c3.06-8.648,3.662-17.806,1.829-26.666H90V50z M70,50H53.333V16.667H70V50z M46.667,56.667v26.666H40V56.667H46.667z M53.333,56.667
	H60v26.666h-6.667V56.667z M30,16.667h16.667V50H30V16.667z M24.577,56.667h8.757v26.666h-6.65
	C23.252,75.075,22.406,65.765,24.577,56.667z M73.317,83.333h-6.65V56.667h8.772C77.483,65.261,76.963,74.548,73.317,83.333z"/>
</svg>
