<?xml version="1.0" encoding="utf-8"?>
<!-- Generator: Adobe Illustrator 26.3.1, SVG Export Plug-In . SVG Version: 6.00 Build 0)  -->
<svg version="1.1" id="Icons" xmlns="http://www.w3.org/2000/svg" xmlns:xlink="http://www.w3.org/1999/xlink" x="0px" y="0px"
	 viewBox="0 0 24 24" style="enable-background:new 0 0 24 24;" xml:space="preserve">
<g id="Bank">
	<path d="M13.02,7.437c-0.552,0-1,0.448-1,1v0.351l-0.9,0.001c-0.854,0.062-1.839,0.668-1.981,1.854
		c-0.004,0.04-0.007,0.079-0.007,0.119l0.001,1.231c0.038,0.769,0.603,1.939,2.059,2.011h3.641v1.223l-3.666,0.015
		c-0.008-0.01-0.031-0.058-0.044-0.157c-0.074-0.548-0.58-0.929-1.125-0.857c-0.547,0.074-0.931,0.578-0.857,1.125
		c0.186,1.374,1.264,1.873,1.943,1.873h0.936v0.378c0,0.552,0.448,1,1,1s1-0.448,1-1v-0.378h1.047c0.084,0,0.168-0.011,0.25-0.032
		c1.145-0.295,1.616-1.323,1.571-2.097l0-1.083c-0.046-1.236-1.018-1.905-1.9-2.003c-0.037-0.004-0.073-0.006-0.11-0.006L11.188,12
		v-1.214l3.448-0.002c0.078,0.005,0.222,0.015,0.276,0.197c0.117,0.525,0.63,0.865,1.166,0.763c0.542-0.105,0.896-0.63,0.792-1.172
		c-0.112-0.575-0.693-1.688-2.166-1.785l-0.684,0v-0.35C14.02,7.885,13.572,7.437,13.02,7.437z"/>
	<path d="M21,4c0.552,0,1-0.448,1-1s-0.448-1-1-1H3C2.448,2,2,2.448,2,3v18c0,0.552,0.448,1,1,1s1-0.448,1-1V4h3.083v1H6
		C5.448,5,5,5.448,5,6v3.121c0,0.552,0.448,1,1,1s1-0.448,1-1V7h12.021v12.041H7v-6.505c0-0.552-0.448-1-1-1s-1,0.448-1,1v7.505
		c0,0.552,0.448,1,1,1h14.021c0.552,0,1-0.448,1-1V6c0-0.552-0.448-1-1-1h-0.979V4H21z M17.042,5H9.083V4h7.959V5z"/>
</g>
</svg>
