<?xml version="1.0" encoding="utf-8"?>
<!-- Generator: Adobe Illustrator 25.4.1, SVG Export Plug-In . SVG Version: 6.00 Build 0)  -->
<svg version="1.1" id="Icons" xmlns="http://www.w3.org/2000/svg" xmlns:xlink="http://www.w3.org/1999/xlink" x="0px" y="0px"
	 viewBox="0 0 24 24" style="enable-background:new 0 0 24 24;" xml:space="preserve">
<g id="Bank-location">
	<path d="M13.733,13.814h-0.725v0.161c0,0.552-0.448,1-1,1s-1-0.448-1-1v-0.161H9.842c-0.552,0-1-0.448-1-1s0.448-1,1-1h3.577
		l0.004-0.706L10.468,11.1C9.129,11.033,8.61,9.96,8.576,9.255L8.575,8.21c0.059-0.747,0.441-1.131,0.441-1.131
		c0.575-0.662,1.38-0.689,1.38-0.689l0.612,0V6.25c0-0.552,0.448-1,1-1s1,0.448,1,1v0.139l1.296,0c0.552,0,1,0.448,1,1s-0.448,1-1,1
		h0l-3.729-0.001v0.711L13.573,9.1c0.721,0.053,1.156,0.446,1.156,0.446c0.69,0.491,0.695,1.398,0.695,1.398l0,0.919
		c0,0,0.05,0.761-0.46,1.32C14.964,13.183,14.549,13.758,13.733,13.814z"/>
	<path d="M12,2c-4.415,0-8.007,3.592-8.007,8.007c0,1.375,0.596,3.004,1.822,4.983c0.291,0.469,0.907,0.614,1.377,0.323
		c0.469-0.291,0.614-0.907,0.323-1.377c-1.258-2.03-1.522-3.257-1.522-3.929C5.993,6.695,8.688,4,12,4s6.007,2.695,6.007,6.007
		c0,2.928-3.839,7.407-5.991,9.579c-0.625-0.659-1.6-1.726-2.584-2.961c-0.344-0.433-0.973-0.503-1.405-0.16
		c-0.432,0.344-0.504,0.973-0.16,1.405c1.716,2.157,3.36,3.776,3.429,3.844C11.492,21.904,11.745,22,11.998,22
		c0.245,0,0.49-0.089,0.683-0.27c0.75-0.7,7.327-6.982,7.327-11.723C20.007,5.592,16.415,2,12,2z"/>
</g>
</svg>
