<?xml version="1.0" encoding="utf-8"?>
<!-- Generator: Adobe Illustrator 25.4.1, SVG Export Plug-In . SVG Version: 6.00 Build 0)  -->
<svg version="1.1" id="Icons" xmlns="http://www.w3.org/2000/svg" xmlns:xlink="http://www.w3.org/1999/xlink" x="0px" y="0px"
	 viewBox="0 0 24 24" style="enable-background:new 0 0 24 24;" xml:space="preserve">
<g id="Barbeque">
	<path d="M7,6.144c0.552,0,1-0.448,1-1V3c0-0.552-0.448-1-1-1S6,2.447,6,3v2.145C6,5.696,6.448,6.144,7,6.144z"/>
	<path d="M12,6.144c0.552,0,1-0.448,1-1V3c0-0.552-0.448-1-1-1s-1,0.448-1,1v2.145C11,5.696,11.448,6.144,12,6.144z"/>
	<path d="M17,6.144c0.552,0,1-0.448,1-1V3c0-0.552-0.448-1-1-1s-1,0.448-1,1v2.145C16,5.696,16.448,6.144,17,6.144z"/>
	<path d="M16.907,15.33c2.423-1.319,4.097-4.056,4.097-7.222c0-0.552-0.448-1-1-1H3.996c-0.552,0-1,0.448-1,1
		c0,1.169,0.229,2.306,0.681,3.38c0.214,0.509,0.8,0.749,1.31,0.533c0.509-0.214,0.748-0.8,0.534-1.31
		C5.303,10.194,5.152,9.657,5.07,9.107h13.862c-0.421,2.869-2.623,5.063-5.268,5.063h-3.327c-1.103,0-2.167-0.386-3.075-1.116
		c-0.43-0.345-1.06-0.276-1.406,0.153c-0.346,0.431-0.277,1.06,0.153,1.406c0.421,0.338,0.874,0.602,1.34,0.833l-2.729,5.079
		c-0.261,0.486-0.079,1.093,0.408,1.354c0.15,0.081,0.312,0.119,0.472,0.119c0.356,0,0.701-0.191,0.882-0.527l0.861-1.603h9.612
		l0.743,1.56C17.769,21.79,18.127,22,18.5,22c0.144,0,0.291-0.031,0.429-0.097c0.499-0.237,0.71-0.834,0.473-1.333L16.907,15.33z
		 M8.317,17.87l0.962-1.791c0.348,0.056,0.701,0.091,1.058,0.091h3.327c0.465,0,0.919-0.053,1.361-0.144l0.878,1.844H8.317z"/>
	<path d="M13.903,12.436c0.552,0,1-0.448,1-1s-0.448-1-1-1h-3.807c-0.552,0-1,0.448-1,1s0.448,1,1,1H13.903z"/>
</g>
</svg>
