<?xml version="1.0" encoding="utf-8"?>
<!-- Generator: Adobe Illustrator 25.4.1, SVG Export Plug-In . SVG Version: 6.00 Build 0)  -->
<svg version="1.1" id="Icons" xmlns="http://www.w3.org/2000/svg" xmlns:xlink="http://www.w3.org/1999/xlink" x="0px" y="0px"
	 viewBox="0 0 24 24" style="enable-background:new 0 0 24 24;" xml:space="preserve">
<g id="Barcode">
	<g>
		<path d="M6.098,17.509c-0.552,0-1-0.448-1-1V7.491c0-0.552,0.448-1,1-1s1,0.448,1,1v9.018C7.098,17.061,6.65,17.509,6.098,17.509z
			"/>
	</g>
	<g>
		<path d="M12,17.509H9.106c-0.552,0-1-0.448-1-1V7.491c0-0.552,0.448-1,1-1H12c0.552,0,1,0.448,1,1v9.018
			C13,17.061,12.552,17.509,12,17.509z M10.106,15.509H11V8.491h-0.894V15.509z"/>
	</g>
	<g>
		<path d="M14.983,17.509c-0.552,0-1-0.448-1-1V7.491c0-0.552,0.448-1,1-1s1,0.448,1,1v9.018
			C15.983,17.061,15.536,17.509,14.983,17.509z"/>
	</g>
	<g>
		<path d="M17.902,17.509c-0.552,0-1-0.448-1-1V7.491c0-0.552,0.448-1,1-1s1,0.448,1,1v9.018
			C18.902,17.061,18.454,17.509,17.902,17.509z"/>
	</g>
	<g>
		<path d="M18,22H6c-2.206,0-4-1.794-4-4v-6.93c0-0.552,0.448-1,1-1s1,0.448,1,1V18c0,1.103,0.897,2,2,2h12c1.103,0,2-0.897,2-2V6
			c0-1.103-0.897-2-2-2H6C4.897,4,4,4.897,4,6v1.655c0,0.552-0.448,1-1,1s-1-0.448-1-1V6c0-2.206,1.794-4,4-4h12
			c2.206,0,4,1.794,4,4v12C22,20.206,20.206,22,18,22z"/>
	</g>
</g>
</svg>
