<?xml version="1.0" encoding="utf-8"?>
<!-- Generator: Adobe Illustrator 25.4.1, SVG Export Plug-In . SVG Version: 6.00 Build 0)  -->
<svg version="1.1" id="Icons" xmlns="http://www.w3.org/2000/svg" xmlns:xlink="http://www.w3.org/1999/xlink" x="0px" y="0px"
	 viewBox="0 0 24 24" style="enable-background:new 0 0 24 24;" xml:space="preserve">
<g id="Barcode-read">
	<path d="M3.003,8.153c0.552,0,1-0.448,1-1V4h3.153c0.552,0,1-0.448,1-1s-0.448-1-1-1H3.003c-0.552,0-1,0.448-1,1v4.153
		C2.003,7.706,2.451,8.153,3.003,8.153z"/>
	<path d="M21,2h-4.153c-0.552,0-1,0.448-1,1s0.448,1,1,1H20v3.153c0,0.552,0.448,1,1,1s1-0.448,1-1V3C22,2.448,21.552,2,21,2z"/>
	<path d="M7.153,20H4v-3.153c0-0.552-0.448-1-1-1s-1,0.448-1,1V21c0,0.552,0.448,1,1,1h4.153c0.552,0,1-0.448,1-1S7.706,20,7.153,20
		z"/>
	<path d="M20.997,15.847c-0.552,0-1,0.448-1,1V20h-3.153c-0.552,0-1,0.448-1,1s0.448,1,1,1h4.153c0.552,0,1-0.448,1-1v-4.153
		C21.997,16.294,21.549,15.847,20.997,15.847z"/>
	<path d="M20.999,10.991C20.998,10.991,20.998,10.991,20.999,10.991l-2.474,0.002l0-4.665c0-0.265-0.105-0.52-0.293-0.707
		s-0.442-0.293-0.707-0.293H6.476c-0.552,0-1,0.448-1,1v4.678L3,11.009c-0.552,0-1,0.449-0.999,1.001c0,0.552,0.448,0.999,1,0.999
		c0,0,0,0,0.001,0l2.474-0.002v4.665c0,0.552,0.448,1,1,1h2.196c0.552,0,1-0.448,1-1s-0.448-1-1-1H7.476v-3.667l9.048-0.009l0,3.676
		h-4.437c-0.552,0-1,0.448-1,1s0.448,1,1,1h5.437c0.552,0,1-0.448,1-1l0-4.678L21,12.991c0.552,0,1-0.449,0.999-1.001
		C21.998,11.438,21.55,10.991,20.999,10.991z M7.476,11.004V7.329h9.048l0,3.667L7.476,11.004z"/>
</g>
</svg>
