<?xml version="1.0" encoding="utf-8"?>
<!-- Generator: Adobe Illustrator 25.4.1, SVG Export Plug-In . SVG Version: 6.00 Build 0)  -->
<svg version="1.1" id="Icons" xmlns="http://www.w3.org/2000/svg" xmlns:xlink="http://www.w3.org/1999/xlink" x="0px" y="0px"
	 viewBox="0 0 24 24" style="enable-background:new 0 0 24 24;" xml:space="preserve">
<g id="Barcode-scan">
	<path d="M5.098,14.734v1.775c0,0.552,0.447,1,1,1s1-0.448,1-1v-1.775c0-0.552-0.447-1-1-1S5.098,14.182,5.098,14.734z"/>
	<path d="M9.106,13.734c-0.553,0-1,0.448-1,1v1.775c0,0.552,0.447,1,1,1H12c0.553,0,1-0.448,1-1v-1.775c0-0.552-0.447-1-1-1
		s-1,0.448-1,1v0.775h-0.894v-0.775C10.106,14.182,9.659,13.734,9.106,13.734z"/>
	<path d="M13.983,14.734v1.775c0,0.552,0.447,1,1,1s1-0.448,1-1v-1.775c0-0.552-0.447-1-1-1S13.983,14.182,13.983,14.734z"/>
	<path d="M17.902,13.734c-0.553,0-1,0.448-1,1v1.775c0,0.552,0.447,1,1,1s1-0.448,1-1v-1.775
		C18.902,14.182,18.455,13.734,17.902,13.734z"/>
	<path d="M6.098,6.491c-0.553,0-1,0.448-1,1v3.561c-0.446,0.101-0.786,0.482-0.785,0.958c0.001,0.552,0.448,0.999,1,0.999h0.001
		l13.375-0.018c0.553,0,1-0.449,0.999-1.001c-0.001-0.476-0.34-0.854-0.785-0.955V7.491c0-0.552-0.447-1-1-1s-1,0.448-1,1v3.502
		l-0.919,0.001V7.491c0-0.552-0.447-1-1-1s-1,0.448-1,1v3.506L13,10.999V7.491c0-0.552-0.447-1-1-1H9.106c-0.553,0-1,0.448-1,1
		v3.514l-1.009,0.001V7.491C7.098,6.939,6.65,6.491,6.098,6.491z M10.106,8.491H11v2.51l-0.894,0.001V8.491z"/>
	<path d="M18,2H6C3.794,2,2,3.794,2,6v1.655c0,0.552,0.447,1,1,1s1-0.448,1-1V6c0-1.103,0.897-2,2-2h12c1.103,0,2,0.897,2,2v12
		c0,1.103-0.897,2-2,2H6c-1.103,0-2-0.897-2-2v-6.93c0-0.552-0.447-1-1-1s-1,0.448-1,1V18c0,2.206,1.794,4,4,4h12
		c2.206,0,4-1.794,4-4V6C22,3.794,20.206,2,18,2z"/>
</g>
</svg>
