<?xml version="1.0" encoding="utf-8"?>
<!-- Generator: Adobe Illustrator 26.5.0, SVG Export Plug-In . SVG Version: 6.00 Build 0)  -->
<svg version="1.1" id="Icons" xmlns="http://www.w3.org/2000/svg" xmlns:xlink="http://www.w3.org/1999/xlink" x="0px" y="0px"
	 viewBox="0 0 24 24" enable-background="new 0 0 24 24" xml:space="preserve">
<path id="Bathtub" d="M22,11.086c0,0.552-0.447,1-1,1h-0.443l-0.628,4.315c-0.11,0.92-0.56,1.731-1.213,2.318l0.543,1.111
	c0.242,0.496,0.037,1.095-0.459,1.338c-0.142,0.069-0.291,0.102-0.438,0.102c-0.37,0-0.726-0.206-0.899-0.561l-0.535-1.095
	c-0.237,0.047-0.481,0.074-0.73,0.074H7.804c-0.249,0-0.49-0.033-0.727-0.08l-0.538,1.1C6.294,21.206,5.696,21.411,5.2,21.17
	c-0.496-0.243-0.701-0.842-0.459-1.338l0.545-1.115c-0.405-0.369-0.733-0.829-0.952-1.36c-0.21-0.511,0.033-1.095,0.544-1.306
	c0.513-0.209,1.095,0.033,1.306,0.544c0.273,0.666,0.909,1.095,1.619,1.095h8.393c0.892,0,1.644-0.667,1.75-1.552l0.59-4.052H5.464
	l0.201,1.38c0.08,0.546-0.299,1.054-0.845,1.134c-0.544,0.079-1.054-0.299-1.134-0.846l-0.243-1.668H3c-0.553,0-1-0.448-1-1
	s0.447-1,1-1h2.642V5.885C5.693,3.805,7.28,2.729,8.82,2.729c0,0,0,0,0.001,0c1.54,0,3.126,1.074,3.179,3.129l0,0.157h0.078
	c0.553,0,1,0.448,1,1s-0.447,1-1,1H9.922c-0.553,0-1-0.448-1-1s0.447-1,1-1H10l0-0.13C9.972,4.786,9.013,4.729,8.82,4.729
	c-0.191,0-1.15,0.057-1.179,1.18v4.177H21C21.553,10.086,22,10.534,22,11.086z"/>
</svg>
