<?xml version="1.0" encoding="utf-8"?>
<!-- Generator: Adobe Illustrator 26.5.0, SVG Export Plug-In . SVG Version: 6.00 Build 0)  -->
<svg version="1.1" id="Icons" xmlns="http://www.w3.org/2000/svg" xmlns:xlink="http://www.w3.org/1999/xlink" x="0px" y="0px"
	 viewBox="0 0 24 24" enable-background="new 0 0 24 24" xml:space="preserve">
<path id="Bath" d="M11.294,6.582c-0.976-0.974-0.978-2.561-0.004-3.538c0.391-0.391,1.023-0.392,1.414-0.002
	c0.391,0.39,0.393,1.023,0.002,1.415c-0.195,0.196-0.195,0.515,0,0.71c0.474,0.472,0.734,1.1,0.735,1.769
	c0,0.668-0.261,1.297-0.733,1.771c-0.195,0.195-0.451,0.293-0.707,0.293s-0.512-0.098-0.707-0.293c-0.391-0.391-0.391-1.023,0-1.414
	c0.128-0.128,0.147-0.278,0.147-0.355C11.441,6.859,11.422,6.709,11.294,6.582z M15.556,6.937c0,0.132-0.053,0.257-0.147,0.351
	C15.016,7.676,15.012,8.31,15.4,8.702c0.196,0.197,0.453,0.296,0.711,0.296c0.254,0,0.509-0.096,0.703-0.29
	c0.479-0.473,0.741-1.103,0.741-1.772c0-0.67-0.264-1.3-0.742-1.774c-0.096-0.094-0.148-0.219-0.148-0.351
	c0-0.132,0.053-0.257,0.147-0.351c0.393-0.389,0.395-1.022,0.006-1.414c-0.39-0.394-1.022-0.395-1.414-0.006
	c-0.478,0.473-0.739,1.103-0.739,1.773c0.001,0.67,0.265,1.299,0.742,1.771C15.503,6.68,15.556,6.805,15.556,6.937z M7.337,6.937
	c0,0.132-0.053,0.257-0.147,0.352C6.797,7.676,6.793,8.31,7.182,8.702c0.196,0.197,0.453,0.296,0.711,0.296
	c0.254,0,0.509-0.096,0.703-0.29c0.479-0.473,0.741-1.103,0.741-1.773c-0.001-0.671-0.264-1.3-0.742-1.773
	C8.499,5.068,8.446,4.944,8.446,4.812c0-0.132,0.053-0.257,0.147-0.351C8.986,4.072,8.988,3.438,8.6,3.046
	C8.21,2.653,7.577,2.652,7.186,3.041C6.708,3.514,6.446,4.143,6.446,4.813c0.001,0.67,0.265,1.299,0.742,1.772
	C7.284,6.68,7.337,6.804,7.337,6.937z M21,10.086H3c-0.553,0-1,0.448-1,1s0.447,1,1,1h0.444l0.243,1.668
	c0.079,0.546,0.586,0.924,1.134,0.846c0.546-0.08,0.925-0.587,0.845-1.134l-0.201-1.38h13.072l-0.59,4.052
	c-0.106,0.885-0.858,1.552-1.75,1.552H7.804c-0.71,0-1.346-0.43-1.619-1.095c-0.211-0.511-0.793-0.752-1.306-0.544
	c-0.511,0.21-0.754,0.795-0.544,1.306c0.219,0.531,0.547,0.992,0.952,1.36l-0.545,1.115C4.499,20.328,4.704,20.927,5.2,21.17
	c0.496,0.241,1.095,0.036,1.338-0.459l0.538-1.101c0.237,0.047,0.479,0.08,0.727,0.08h8.393c0.25,0,0.493-0.027,0.73-0.074
	l0.535,1.095c0.243,0.496,0.841,0.701,1.338,0.459c0.496-0.243,0.701-0.842,0.459-1.338l-0.543-1.111
	c0.654-0.587,1.103-1.398,1.213-2.318l0.628-4.315H21c0.553,0,1-0.448,1-1S21.553,10.086,21,10.086z"/>
</svg>
