<?xml version="1.0" encoding="utf-8"?>
<!-- Generator: Adobe Illustrator 26.5.0, SVG Export Plug-In . SVG Version: 6.00 Build 0)  -->
<svg version="1.1" id="Icons" xmlns="http://www.w3.org/2000/svg" xmlns:xlink="http://www.w3.org/1999/xlink" x="0px" y="0px"
	 viewBox="0 0 24 24" enable-background="new 0 0 24 24" xml:space="preserve">
<path id="Bed" d="M20.654,11.525V7.141c0-1.837-1.495-3.333-3.333-3.333H6.679c-1.482,0-2.762,0.96-3.186,2.39
	C3.336,6.728,3.639,7.284,4.168,7.441c0.528,0.155,1.086-0.145,1.243-0.675C5.581,6.193,6.09,5.808,6.679,5.808h10.643
	c0.735,0,1.333,0.598,1.333,1.333v3.804h-1.866V9.443c0-1.242-1.01-2.252-2.252-2.252H9.514c-1.242,0-2.252,1.01-2.252,2.252v1.501
	H5.346V9.898c0-0.552-0.448-1-1-1s-1,0.448-1,1v1.627C2.534,12.097,2,13.038,2,14.104V21c0,0.552,0.448,1,1,1h3.482
	c0.552,0,1-0.448,1-1v-2.769h9.036V21c0,0.552,0.448,1,1,1H21c0.552,0,1-0.448,1-1v-6.896C22,13.038,21.466,12.097,20.654,11.525z
	 M4,16.231v-2.126c0-0.64,0.521-1.16,1.16-1.16h13.68c0.64,0,1.16,0.521,1.16,1.16v2.126H4z M9.261,9.443
	c0-0.139,0.113-0.252,0.252-0.252h5.021c0.139,0,0.252,0.113,0.252,0.252v1.501H9.261V9.443z M5.482,20H4v-1.769h1.482V20z
	 M18.518,20v-1.769H20V20H18.518z"/>
</svg>
