<?xml version="1.0" encoding="utf-8"?>
<!-- Generator: Adobe Illustrator 25.4.1, SVG Export Plug-In . SVG Version: 6.00 Build 0)  -->
<svg version="1.1" id="Icons" xmlns="http://www.w3.org/2000/svg" xmlns:xlink="http://www.w3.org/1999/xlink" x="0px" y="0px"
	 viewBox="0 0 24 24" style="enable-background:new 0 0 24 24;" xml:space="preserve">
<g id="Bicycle">
	<path d="M17.563,11.014c-0.175,0-0.342,0.032-0.512,0.052l-1.853-5.181h2.586c0.158,0,0.287,0.128,0.287,0.287
		s-0.128,0.287-0.287,0.287c-0.552,0-1,0.448-1,1s0.448,1,1,1c1.261,0,2.287-1.026,2.287-2.287c0-1.261-1.026-2.287-2.287-2.287
		h-4.006c-0.325,0-0.63,0.158-0.817,0.424c-0.188,0.266-0.234,0.606-0.124,0.913l1.294,3.618h-4.088L9.28,6.794h0.728
		c0.552,0,1-0.448,1-1s-0.448-1-1-1H6.072c-0.552,0-1,0.448-1,1s0.448,1,1,1h1.072l1.118,2.994l-0.675,1.395
		c-0.369-0.1-0.75-0.17-1.151-0.17c-2.455,0-4.451,1.997-4.451,4.451c0,0.461,0.081,0.925,0.248,1.419
		c0.177,0.523,0.741,0.805,1.268,0.627c0.523-0.177,0.804-0.744,0.627-1.268c-0.096-0.284-0.143-0.539-0.143-0.778
		c0-1.352,1.1-2.451,2.451-2.451c0.087,0,0.169,0.017,0.253,0.026l-0.884,1.826c-0.24,0.497-0.032,1.095,0.465,1.335
		c0.14,0.068,0.289,0.1,0.435,0.1c0.371,0,0.728-0.208,0.901-0.564l0.819-1.694c0.288,0.402,0.462,0.891,0.462,1.422
		c0,1.517-1.39,2.722-2.958,2.398c-0.545-0.112-1.07,0.234-1.183,0.775s0.234,1.07,0.775,1.183c0.305,0.063,0.612,0.096,0.914,0.096
		c2.455,0,4.452-1.997,4.452-4.452c0-1.335-0.603-2.52-1.536-3.336l0.624-1.289h4.871l0.318,0.888
		c-1.231,0.793-2.053,2.168-2.053,3.738c0,2.455,1.997,4.452,4.452,4.452s4.451-1.997,4.451-4.452S20.018,11.014,17.563,11.014z
		 M17.563,17.917c-1.352,0-2.452-1.1-2.452-2.452c0-0.694,0.293-1.319,0.758-1.765l0.752,2.102c0.146,0.409,0.531,0.664,0.941,0.664
		c0.112,0,0.226-0.019,0.337-0.059c0.52-0.186,0.791-0.758,0.604-1.278l-0.749-2.095c1.261,0.1,2.259,1.146,2.259,2.432
		C20.015,16.817,18.915,17.917,17.563,17.917z"/>
</g>
</svg>
