<?xml version="1.0" encoding="utf-8"?>
<!-- Generator: Adobe Illustrator 25.4.1, SVG Export Plug-In . SVG Version: 6.00 Build 0)  -->
<svg version="1.1" id="Icons" xmlns="http://www.w3.org/2000/svg" xmlns:xlink="http://www.w3.org/1999/xlink" x="0px" y="0px"
	 viewBox="0 0 24 24" style="enable-background:new 0 0 24 24;" xml:space="preserve">
<g id="Big-shopping">
	<path d="M17.278,13.131c-0.552,0.002-0.998,0.452-0.996,1.004c-0.027,0.37,0.099,0.927-0.135,0.91H14.95
		c-0.074,0-0.139-0.065-0.139-0.143l-0.003-0.775c-0.002-0.551-0.449-0.996-1-0.996c-0.554,0-1.002,0.45-1,1.004l0.003,0.771
		c0,1.179,0.959,2.139,2.139,2.139h1.197c1.179,0,2.139-0.959,2.139-2.143l-0.003-0.775C18.279,13.575,17.82,13.165,17.278,13.131z"
		/>
	<path d="M21.379,11.275c-0.033-0.439-0.352-0.778-0.762-0.88l-0.325-4.028c-0.042-0.52-0.476-0.92-0.997-0.92H16.42V5.238
		c0-1.788-1.454-3.242-3.242-3.242h-2.356c-1.788,0-3.242,1.454-3.242,3.242v0.209H4.588c-0.525,0-0.96,0.406-0.998,0.929
		l-0.396,5.567c-0.044,0.576,0.422,1.073,0.999,1.071c0.52,0,0.959-0.402,0.997-0.929l0.33-4.638H7.58v0.849c0,0.552,0.448,1,1,1
		s1-0.448,1-1V7.448h4.84v0.849c0,0.552,0.448,1,1,1s1-0.448,1-1V7.448h1.953l0.234,2.903h-7.906c-0.523,0-0.958,0.403-0.997,0.925
		l-0.621,8.281c0,0.152,0.014,0.301,0.041,0.446l-3.224,0.001c-0.658,0-1.193-0.535-1.195-1.122l0.242-3.397
		c0.039-0.551-0.375-1.029-0.927-1.068c-0.539-0.034-1.029,0.375-1.068,0.927l-0.244,3.468c0,1.761,1.432,3.193,3.193,3.193
		L19.557,22c1.347,0,2.443-1.096,2.44-2.519L21.379,11.275z M9.58,5.448V5.238c0-0.685,0.557-1.242,1.242-1.242h2.356
		c0.685,0,1.242,0.557,1.242,1.242v0.209H9.58z M19.556,20l-7.965,0.002c-0.259-0.019-0.507-0.19-0.51-0.37l0.548-7.281h7.826
		L20,19.557C20,19.797,19.797,20,19.556,20z"/>
</g>
</svg>
