<svg fill="#000000" xmlns="http://www.w3.org/2000/svg"  viewBox="0 0 16 16" width="16px" height="16px"><path d="M 7.5 1 C 6.0138619 1 4.8674888 1.482486 4.1113281 2.2402344 C 3.3551674 2.9979827 3 4.007 3 5 A 0.50005 0.50005 0 0 0 3.0195312 5.1484375 C 3.0660895 5.4706126 3.2482293 5.7493962 3.4824219 5.9570312 C 3.5003853 5.9729576 3.5243683 5.9845708 3.5429688 6 L 1.5 6 A 0.50005 0.50005 0 1 0 1.5 7 L 3.0253906 7 C 3.0864127 8.3991943 3.3921409 9.7756819 4.0332031 10.876953 C 4.0827128 10.962005 4.1394069 11.041435 4.1933594 11.123047 A 0.50005 0.50005 0 0 0 4.1835938 11.140625 L 3.0585938 13.265625 A 0.50005 0.50005 0 1 0 3.9414062 13.734375 L 4.8867188 11.949219 C 5.5699366 12.589933 6.4478891 13 7.5 13 C 8.5521109 13 9.4300634 12.589933 10.113281 11.949219 L 11.058594 13.734375 A 0.50005 0.50005 0 1 0 11.941406 13.265625 L 10.816406 11.140625 A 0.50005 0.50005 0 0 0 10.806641 11.123047 C 10.860593 11.041435 10.917287 10.962005 10.966797 10.876953 C 11.607859 9.7756819 11.913587 8.3991943 11.974609 7 L 13.5 7 A 0.50005 0.50005 0 1 0 13.5 6 L 11.457031 6 C 11.475632 5.9845708 11.499615 5.9729576 11.517578 5.9570312 C 11.752699 5.7485735 11.934875 5.46835 11.980469 5.1445312 A 0.50005 0.50005 0 0 0 12 5 C 12 4.007 11.644833 2.9979827 10.888672 2.2402344 C 10.132511 1.482486 8.9861381 1 7.5 1 z M 7.5 2 C 8.7748619 2 9.6280509 2.392514 10.181641 2.9472656 C 10.352867 3.1188513 10.486839 3.3134434 10.603516 3.515625 C 10.568598 3.5016464 10.53977 3.4841519 10.503906 3.4707031 C 9.701759 3.1698978 8.6552358 3 7.5 3 C 6.3447642 3 5.2982411 3.1698978 4.4960938 3.4707031 C 4.4602305 3.4841519 4.4314015 3.5016464 4.3964844 3.515625 C 4.5131609 3.3134434 4.6471332 3.1188513 4.8183594 2.9472656 C 5.3719487 2.392514 6.2251381 2 7.5 2 z M 7.5 4 C 8.5539032 4 9.5067758 4.1661152 10.152344 4.4082031 C 10.475128 4.5292471 10.718764 4.6715445 10.853516 4.7910156 C 10.988268 4.9104867 11 4.9730399 11 5 C 11 5.02696 10.98827 5.089513 10.853516 5.2089844 C 10.718764 5.3284555 10.475128 5.4707529 10.152344 5.5917969 C 9.5067758 5.8338848 8.5539032 6 7.5 6 C 6.4460968 6 5.493224 5.8338848 4.8476562 5.5917969 C 4.5248724 5.4707529 4.2812364 5.3284555 4.1464844 5.2089844 C 4.0117323 5.0895133 4 5.0269601 4 5 C 4 4.9730399 4.0117323 4.9104867 4.1464844 4.7910156 C 4.2812364 4.6715445 4.5248725 4.5292471 4.8476562 4.4082031 C 5.493224 4.1661152 6.4460968 4 7.5 4 z M 4.0546875 7 L 10.945312 7 C 10.881412 8.2537619 10.624884 9.4773953 10.103516 10.373047 C 9.5113683 11.390287 8.6994062 12 7.5 12 C 6.3005938 12 5.4886313 11.390287 4.8964844 10.373047 C 4.3751157 9.4773953 4.1185854 8.2537619 4.0546875 7 z"/></svg>