<?xml version="1.0" encoding="utf-8"?>
<!-- Generator: Adobe Illustrator 25.4.1, SVG Export Plug-In . SVG Version: 6.00 Build 0)  -->
<svg version="1.1" id="Icons" xmlns="http://www.w3.org/2000/svg" xmlns:xlink="http://www.w3.org/1999/xlink" x="0px" y="0px"
	 viewBox="0 0 24 24" style="enable-background:new 0 0 24 24;" xml:space="preserve">
<g id="Black-Friday-2">
	<path d="M8.817,13.112c0.553,0,1-0.448,1-1s-0.447-1-1-1H6.354c-0.553,0-1,0.448-1,1v5.743c0,0.552,0.447,1,1,1s1-0.448,1-1v-1.737
		h1.463c0.553,0,1-0.448,1-1s-0.447-1-1-1H7.354v-1.006H8.817z"/>
	<path d="M15.743,15.118v-3.006c0-0.552-0.447-1-1-1h-3.478c-0.553,0-1,0.448-1,1v5.743c0,0.552,0.447,1,1,1s1-0.448,1-1v-1.737
		h0.392l1.16,2.203c0.257,0.489,0.862,0.675,1.351,0.419c0.488-0.257,0.677-0.862,0.419-1.351l-0.686-1.303
		C15.375,16.008,15.743,15.615,15.743,15.118z M12.266,13.112h1.478v1.006h-1.478V13.112z"/>
	<path d="M18.612,17.855v-5.743c0-0.552-0.447-1-1-1s-1,0.448-1,1v5.743c0,0.552,0.447,1,1,1S18.612,18.408,18.612,17.855z"/>
	<path d="M19.591,7.966h-1.572c-0.532-0.568-5.288-5.651-5.288-5.651c-0.19-0.202-0.454-0.317-0.73-0.317
		c-0.275,0-0.539,0.114-0.729,0.314c0,0-4.175,4.434-5.323,5.653H4.409c-1.326,0-2.405,1.079-2.405,2.406v1.997c0,0.552,0.447,1,1,1
		s1-0.448,1-1v-1.997c0-0.22,0.186-0.406,0.405-0.406h15.182c0.22,0,0.405,0.186,0.405,0.406v9.224c0,0.22-0.186,0.406-0.405,0.406
		H4.409c-0.22,0-0.405-0.186-0.405-0.406v-3.813c0-0.552-0.447-1-1-1s-1,0.448-1,1v3.813c0,1.327,1.079,2.406,2.405,2.406h15.182
		c1.326,0,2.405-1.079,2.405-2.406v-9.224C21.996,9.045,20.917,7.966,19.591,7.966z M11.998,4.459l3.281,3.507H8.696L11.998,4.459z"
		/>
</g>
</svg>
