<?xml version="1.0" encoding="utf-8"?>
<!-- Generator: Adobe Illustrator 25.4.1, SVG Export Plug-In . SVG Version: 6.00 Build 0)  -->
<svg version="1.1" id="Icons" xmlns="http://www.w3.org/2000/svg" xmlns:xlink="http://www.w3.org/1999/xlink" x="0px" y="0px"
	 viewBox="0 0 24 24" style="enable-background:new 0 0 24 24;" xml:space="preserve">
<g id="Black-Friday-1">
	<path d="M8.832,13.257c0.552,0,1-0.448,1-1s-0.448-1-1-1H6.369c-0.552,0-1,0.448-1,1V18c0,0.552,0.448,1,1,1s1-0.448,1-1v-1.738
		h1.463c0.552,0,1-0.448,1-1s-0.448-1-1-1H7.369v-1.005H8.832z"/>
	<path d="M15.759,15.262v-3.005c0-0.552-0.447-1-1-1h-3.478c-0.552,0-1,0.448-1,1V18c0,0.552,0.448,1,1,1s1-0.448,1-1v-1.738h0.391
		l1.16,2.203c0.257,0.49,0.862,0.676,1.351,0.419c0.489-0.257,0.676-0.862,0.419-1.351l-0.686-1.303
		C15.39,16.153,15.759,15.759,15.759,15.262z M12.281,13.257h1.478v1.005h-1.478V13.257z"/>
	<path d="M18.627,18v-5.743c0-0.552-0.447-1-1-1s-1,0.448-1,1V18c0,0.552,0.447,1,1,1S18.627,18.552,18.627,18z"/>
	<path d="M18,3.707h-1.418V3c0-0.552-0.447-1-1-1s-1,0.448-1,1v0.707H9.418V3c0-0.552-0.448-1-1-1s-1,0.448-1,1v0.707H6
		c-2.206,0-4,1.794-4,4v4.001c0,0.552,0.448,1,1,1s1-0.448,1-1v-1.521h16V18c0,1.103-0.897,2-2,2H6c-1.103,0-2-0.897-2-2v-2.877
		c0-0.552-0.448-1-1-1s-1,0.448-1,1V18c0,2.206,1.794,4,4,4h12c2.206,0,4-1.794,4-4V7.707C22,5.501,20.206,3.707,18,3.707z M4,8.187
		v-0.48c0-1.103,0.897-2,2-2h1.418v0.645c0,0.552,0.448,1,1,1s1-0.448,1-1V5.707h5.164v0.645c0,0.552,0.447,1,1,1s1-0.448,1-1V5.707
		H18c1.103,0,2,0.897,2,2v0.48H4z"/>
</g>
</svg>
