<?xml version="1.0" encoding="utf-8"?>
<!-- Generator: Adobe Illustrator 26.5.0, SVG Export Plug-In . SVG Version: 6.00 Build 0)  -->
<svg version="1.1" id="Icons" xmlns="http://www.w3.org/2000/svg" xmlns:xlink="http://www.w3.org/1999/xlink" x="0px" y="0px"
	 viewBox="0 0 24 24" enable-background="new 0 0 24 24" xml:space="preserve">
<path id="Blender" d="M12.425,18c0,0.552-0.447,1-1,1h-1.85c-0.553,0-1-0.448-1-1s0.447-1,1-1h1.85
	C11.978,17,12.425,17.448,12.425,18z M21.484,5.301l-1.148,6.367c-0.236,1.312-1.376,2.264-2.709,2.264h-1.058l-0.247,1.388
	c0.342,0.385,0.619,0.835,0.789,1.347l1.338,4.023c0.102,0.305,0.05,0.64-0.139,0.9c-0.188,0.261-0.489,0.415-0.811,0.415h-14
	c-0.321,0-0.624-0.155-0.812-0.416c-0.188-0.261-0.239-0.597-0.137-0.902l1.351-4.039c0.166-0.497,0.434-0.935,0.764-1.313
	L2.516,3.169c-0.052-0.291,0.028-0.59,0.218-0.816C2.924,2.126,3.204,1.995,3.5,1.995h3.158c0.553,0,1,0.448,1,1s-0.447,1-1,1H4.692
	l0.38,2.148h2.463c0.553,0,1,0.448,1,1s-0.447,1-1,1h-2.11L5.73,9.87h2.257c0.553,0,1,0.448,1,1s-0.447,1-1,1H6.084l0.405,2.293
	c0.35-0.103,0.716-0.164,1.094-0.164c0.002,0,0.004,0,0.007,0l5.845,0.011c0.367,0.001,0.721,0.061,1.061,0.158l1.811-10.172h-6.233
	c-0.553,0-1-0.448-1-1s0.447-1,1-1H17.5c0.296,0,0.576,0.131,0.767,0.358c0.19,0.227,0.27,0.526,0.218,0.817l-0.17,0.953H20.5
	c0.296,0,0.577,0.131,0.768,0.359C21.457,4.709,21.537,5.009,21.484,5.301z M16.113,20.005l-0.9-2.708
	c-0.255-0.769-0.972-1.286-1.782-1.288l-5.845-0.011c-0.001,0-0.002,0-0.003,0c-0.811,0-1.527,0.516-1.784,1.285l-0.91,2.721H16.113
	z M19.304,6.123h-1.345l-1.034,5.809h0.702c0.364,0,0.676-0.26,0.74-0.619L19.304,6.123z"/>
</svg>
