<svg fill="#000000" xmlns="http://www.w3.org/2000/svg"  viewBox="0 0 16 16" width="16px" height="16px"><path d="M 1 2 L 1 3 L 15 3 L 15 2 L 1 2 z M 1 4 L 1 5 L 15 5 L 15 4 L 1 4 z M 1 6 L 1 7 L 3 7 L 3 12.5 C 3 13.322531 3.6774686 14 4.5 14 L 11.5 14 C 12.322531 14 13 13.322531 13 12.5 L 13 7 L 15 7 L 15 6 L 1 6 z M 4 7 L 12 7 L 12 12.5 C 12 12.781469 11.781469 13 11.5 13 L 4.5 13 C 4.2185314 13 4 12.781469 4 12.5 L 4 7 z M 14.5 8 A 0.5 0.5 0 0 0 14 8.5 A 0.5 0.5 0 0 0 14.5 9 A 0.5 0.5 0 0 0 15 8.5 A 0.5 0.5 0 0 0 14.5 8 z M 5.5 9 L 8 11.5 L 10.5 9 L 5.5 9 z M 14.5 10 A 0.5 0.5 0 0 0 14 10.5 A 0.5 0.5 0 0 0 14.5 11 A 0.5 0.5 0 0 0 15 10.5 A 0.5 0.5 0 0 0 14.5 10 z M 14.5 12 A 0.5 0.5 0 0 0 14 12.5 A 0.5 0.5 0 0 0 14.5 13 A 0.5 0.5 0 0 0 15 12.5 A 0.5 0.5 0 0 0 14.5 12 z"/></svg>