<?xml version="1.0" encoding="utf-8"?>
<!-- Generator: Adobe Illustrator 25.4.1, SVG Export Plug-In . SVG Version: 6.00 Build 0)  -->
<svg version="1.1" id="Icons" xmlns="http://www.w3.org/2000/svg" xmlns:xlink="http://www.w3.org/1999/xlink" x="0px" y="0px"
	 viewBox="0 0 24 24" style="enable-background:new 0 0 24 24;" xml:space="preserve">
<g id="Bluetooth">
	<g>
		<path d="M17.002,22H7C4.243,22,2,19.758,2,17.002v-5.75c0-0.552,0.448-1,1-1s1,0.448,1,1v5.75C4,18.655,5.346,20,7,20h10.002
			C18.655,20,20,18.655,20,17.002V6.999C20,5.345,18.655,4,17.002,4H7C5.346,4,4,5.345,4,6.999v0.844c0,0.552-0.448,1-1,1
			s-1-0.448-1-1V6.999C2,4.243,4.243,2,7,2h10.002C19.758,2,22,4.243,22,6.999v10.003C22,19.758,19.758,22,17.002,22z"/>
	</g>
	<g>
		<path d="M11.863,19.448c-0.152,0-0.305-0.035-0.446-0.105c-0.339-0.169-0.554-0.516-0.554-0.895v-4.44l-2.395,1.808
			C8.027,16.148,7.4,16.06,7.068,15.62c-0.333-0.441-0.245-1.068,0.196-1.401L10.204,12L7.264,9.781
			C6.823,9.448,6.736,8.821,7.068,8.38c0.333-0.44,0.958-0.528,1.401-0.196l2.394,1.808v-4.44c0-0.379,0.215-0.726,0.554-0.895
			c0.339-0.169,0.746-0.132,1.048,0.097l4.271,3.224c0.25,0.189,0.397,0.484,0.397,0.798s-0.147,0.609-0.397,0.798L13.523,12
			l3.213,2.425c0.25,0.189,0.397,0.485,0.397,0.798s-0.147,0.609-0.397,0.798l-4.271,3.224
			C12.289,19.379,12.077,19.448,11.863,19.448z M12.863,14.008v2.432l1.61-1.216L12.863,14.008z M12.863,7.56v2.432l1.61-1.216
			L12.863,7.56z"/>
	</g>
</g>
</svg>
