<?xml version="1.0" encoding="utf-8"?>
<!-- Generator: Adobe Illustrator 25.4.1, SVG Export Plug-In . SVG Version: 6.00 Build 0)  -->
<svg version="1.1" id="Icons" xmlns="http://www.w3.org/2000/svg" xmlns:xlink="http://www.w3.org/1999/xlink" x="0px" y="0px"
	 viewBox="0 0 24 24" style="enable-background:new 0 0 24 24;" xml:space="preserve">
<g id="Boiled-Egg">
	<g>
		<path d="M12,18.313c-2.633,0-4.775-2.143-4.775-4.776S9.367,8.762,12,8.762c2.633,0,4.775,2.142,4.775,4.775
			S14.633,18.313,12,18.313z M12,10.762c-1.53,0-2.775,1.245-2.775,2.775c0,1.531,1.245,2.776,2.775,2.776s2.775-1.245,2.775-2.776
			C14.775,12.007,13.53,10.762,12,10.762z"/>
	</g>
	<g>
		<path d="M12,21.994c-4.458,0-8.086-3.627-8.086-8.086c0-1.611,0.48-3.66,1.316-5.62C5.448,7.78,6.035,7.543,6.543,7.76
			C7.051,7.977,7.287,8.565,7.07,9.073c-0.724,1.696-1.156,3.503-1.156,4.835c0,3.356,2.73,6.086,6.086,6.086
			c3.355,0,6.086-2.73,6.086-6.086c0-1.798-0.75-4.3-1.912-6.375C14.907,5.293,13.385,4.006,12,4.006
			c-1.084,0-2.28,0.814-3.368,2.292C8.306,6.742,7.679,6.839,7.234,6.51c-0.445-0.327-0.54-0.953-0.212-1.398
			C8.517,3.081,10.239,2.006,12,2.006c2.157,0,4.259,1.614,5.917,4.545c1.339,2.392,2.169,5.209,2.169,7.356
			C20.086,18.366,16.459,21.994,12,21.994z"/>
	</g>
</g>
</svg>
