<?xml version="1.0" encoding="utf-8"?>
<!-- Generator: Adobe Illustrator 25.4.1, SVG Export Plug-In . SVG Version: 6.00 Build 0)  -->
<svg version="1.1" id="Icons" xmlns="http://www.w3.org/2000/svg" xmlns:xlink="http://www.w3.org/1999/xlink" x="0px" y="0px"
	 viewBox="0 0 24 24" style="enable-background:new 0 0 24 24;" xml:space="preserve">
<g id="Bowl">
	<path d="M15.044,15.545c1.603-0.015,4.957-4.997,2.517-5.59c-0.563-0.072-1.052,0.311-1.125,0.857
		c-0.159,1.186-0.871,2.259-1.903,2.874C13.659,14.165,14.068,15.583,15.044,15.545z"/>
	<path d="M8,6.144c0.552,0,1-0.448,1-1V3c0-0.552-0.448-1-1-1S7,2.447,7,3v2.144C7,5.696,7.448,6.144,8,6.144z"/>
	<path d="M12,6.144c0.552,0,1-0.448,1-1V3c0-0.552-0.448-1-1-1s-1,0.448-1,1v2.144C11,5.696,11.448,6.144,12,6.144z"/>
	<path d="M16,6.144c0.553,0,1-0.448,1-1V2.999c0-0.552-0.447-1-1-1s-1,0.448-1,1v2.145C15,5.696,15.447,6.144,16,6.144z"/>
	<path d="M21.966,10.271c0-0.851-0.117-1.72-0.35-2.585c-0.117-0.437-0.514-0.741-0.966-0.741H3.35
		c-0.453,0-0.849,0.304-0.966,0.741c-0.232,0.865-0.35,1.734-0.35,2.585c0,0.608,0.068,1.247,0.209,1.953
		c0.108,0.542,0.635,0.894,1.176,0.785c0.542-0.108,0.893-0.635,0.785-1.176c-0.115-0.575-0.17-1.085-0.17-1.561
		c0-0.436,0.04-0.879,0.117-1.326h15.697c0.078,0.447,0.117,0.89,0.117,1.326c0,2.558-1.223,4.945-3.285,6.445l-9.364-0.002
		c-0.762-0.557-1.422-1.255-1.963-2.078c-0.303-0.461-0.922-0.588-1.385-0.286c-0.461,0.304-0.589,0.924-0.286,1.385
		c0.64,0.973,1.424,1.798,2.319,2.477V21c0,0.552,0.448,1,1,1h9.994c0.553,0,1-0.448,1-1v-2.792
		C20.483,16.327,21.966,13.409,21.966,10.271z M8.001,20v-1.285l7.994,0.002V20H8.001z"/>
</g>
</svg>
