<?xml version="1.0" encoding="utf-8"?>
<!-- Generator: Adobe Illustrator 25.4.1, SVG Export Plug-In . SVG Version: 6.00 Build 0)  -->
<svg version="1.1" id="Icons" xmlns="http://www.w3.org/2000/svg" xmlns:xlink="http://www.w3.org/1999/xlink" x="0px" y="0px"
	 viewBox="0 0 24 24" style="enable-background:new 0 0 24 24;" xml:space="preserve">
<g id="Box-3">
	<path d="M14.621,14.604c1.489,0,2.7-1.169,2.7-2.606c0-1.437-1.211-2.605-2.7-2.605H9.379c-1.489,0-2.7,1.169-2.7,2.605
		c0,1.437,1.211,2.606,2.7,2.606H14.621z M8.679,11.998c0-0.328,0.32-0.605,0.7-0.605h5.242c0.38,0,0.7,0.277,0.7,0.605
		c0,0.329-0.32,0.606-0.7,0.606H9.379C8.999,12.604,8.679,12.327,8.679,11.998z"/>
	<path d="M21.996,6.913c0-0.219-0.072-0.433-0.206-0.607l-2.995-3.914C18.605,2.145,18.312,2,18.001,2h-12
		C5.69,2,5.398,2.144,5.209,2.39L2.194,6.303C2.06,6.479,1.986,6.693,1.986,6.915c0,0,0.003,3.656,0.003,3.656
		c0.021,1.315,1.982,1.31,2-0.002c0,0-0.002-1.809-0.002-2.655h16.01l0.009,10.631c0,0.802-0.653,1.455-1.456,1.455H5.452
		c-0.803,0-1.456-0.653-1.456-1.456l-0.004-4.56c0-0.552-0.448-0.999-1-0.999c-0.552,0-1,0.448-1,1.001l0.004,4.559
		C1.996,20.45,3.547,22,5.452,22H18.55c1.905,0,3.456-1.55,3.456-3.456L21.996,6.913z M18.971,5.914h-5.967L12.996,4h4.511
		L18.971,5.914z M6.493,4h4.503l0.008,1.914H5.019L6.493,4z"/>
</g>
</svg>
