<?xml version="1.0" encoding="utf-8"?>
<!-- Generator: Adobe Illustrator 25.4.1, SVG Export Plug-In . SVG Version: 6.00 Build 0)  -->
<svg version="1.1" id="Icons" xmlns="http://www.w3.org/2000/svg" xmlns:xlink="http://www.w3.org/1999/xlink" x="0px" y="0px"
	 viewBox="0 0 24 24" style="enable-background:new 0 0 24 24;" xml:space="preserve">
<g id="Box-1">
	<path d="M9,18c0.552,0,1-0.448,1-1s-0.448-1-1-1H6.354c-0.552,0-1,0.448-1,1s0.448,1,1,1H9z"/>
	<path d="M21,2H3C2.448,2,2,2.448,2,3v3.495c0,0.552,0.448,1,1,1s1-0.448,1-1V4h4v7c0,0.367,0.201,0.704,0.523,0.879
		c0.322,0.175,0.715,0.16,1.022-0.041L12,10.24l2.455,1.598C14.62,11.946,14.81,12,15,12c0.164,0,0.328-0.04,0.477-0.121
		C15.799,11.704,16,11.367,16,11V4h4v16H4V9.909c0-0.552-0.448-1-1-1s-1,0.448-1,1V21c0,0.552,0.448,1,1,1h18c0.552,0,1-0.448,1-1V3
		C22,2.448,21.552,2,21,2z M14,9.156l-1.455-0.947c-0.331-0.216-0.76-0.216-1.091,0L10,9.156V4h4V9.156z"/>
</g>
</svg>
