<?xml version="1.0" encoding="utf-8"?>
<!-- Generator: Adobe Illustrator 25.4.1, SVG Export Plug-In . SVG Version: 6.00 Build 0)  -->
<svg version="1.1" id="Icons" xmlns="http://www.w3.org/2000/svg" xmlns:xlink="http://www.w3.org/1999/xlink" x="0px" y="0px"
	 viewBox="0 0 24 24" style="enable-background:new 0 0 24 24;" xml:space="preserve">
<g id="Box-2">
	<path d="M14.621,14.604c1.489,0,2.7-1.169,2.7-2.606c0-1.437-1.211-2.605-2.7-2.605H9.379c-1.489,0-2.7,1.169-2.7,2.605
		c0,1.437,1.211,2.606,2.7,2.606H14.621z M8.679,11.998c0-0.328,0.32-0.605,0.7-0.605h5.242c0.38,0,0.7,0.277,0.7,0.605
		c0,0.329-0.32,0.606-0.7,0.606H9.379C8.999,12.604,8.679,12.327,8.679,11.998z"/>
	<path d="M21,2H3C2.447,2,2,2.448,2,3v7.57c0,0.552,0.447,1,1,1s1-0.448,1-1V7.988h16V20H4v-6.015c0-0.552-0.447-1-1-1s-1,0.448-1,1
		V21c0,0.552,0.447,1,1,1h18c0.553,0,1-0.448,1-1V3C22,2.448,21.553,2,21,2z M4,5.988V4h16v1.988H4z"/>
</g>
</svg>
