<?xml version="1.0" encoding="utf-8"?>
<!-- Generator: Adobe Illustrator 25.4.1, SVG Export Plug-In . SVG Version: 6.00 Build 0)  -->
<svg version="1.1" id="Icons" xmlns="http://www.w3.org/2000/svg" xmlns:xlink="http://www.w3.org/1999/xlink" x="0px" y="0px"
	 viewBox="0 0 24 24" style="enable-background:new 0 0 24 24;" xml:space="preserve">
<g id="Brackets">
	<g>
		<path d="M9.446,17.995H7c-0.553,0-1-0.448-1-1V7c0-0.552,0.447-1,1-1h2.446c0.553,0,1,0.448,1,1s-0.447,1-1,1H8v7.995h1.446
			c0.553,0,1,0.448,1,1S9.999,17.995,9.446,17.995z"/>
	</g>
	<g>
		<path d="M17,17.995h-2.446c-0.553,0-1-0.448-1-1s0.447-1,1-1H16V8h-1.446c-0.553,0-1-0.448-1-1s0.447-1,1-1H17
			c0.553,0,1,0.448,1,1v9.995C18,17.547,17.553,17.995,17,17.995z"/>
	</g>
	<g>
		<path d="M17.002,22H7c-2.757,0-4.999-2.242-4.999-4.998v-5.75c0-0.552,0.447-1,1-1s1,0.448,1,1v5.75C4.001,18.655,5.347,20,7,20
			h10.002C18.655,20,20,18.655,20,17.002V6.999C20,5.345,18.655,4,17.002,4H7C5.347,4,4.001,5.345,4.001,6.999v0.844
			c0,0.552-0.447,1-1,1s-1-0.448-1-1V6.999C2.001,4.243,4.243,2,7,2h10.002C19.758,2,22,4.243,22,6.999v10.003
			C22,19.758,19.758,22,17.002,22z"/>
	</g>
</g>
</svg>
