<?xml version="1.0" encoding="utf-8"?>
<!-- Generator: Adobe Illustrator 25.4.1, SVG Export Plug-In . SVG Version: 6.00 Build 0)  -->
<svg version="1.1" id="Icons" xmlns="http://www.w3.org/2000/svg" xmlns:xlink="http://www.w3.org/1999/xlink" x="0px" y="0px"
	 viewBox="0 0 24 24" style="enable-background:new 0 0 24 24;" xml:space="preserve">
<g id="Braces">
	<g>
		<path d="M9.931,18.408H9.346C8.053,18.408,7,17.355,7,16.062v-1.986l-1.508-1.341c-0.214-0.189-0.336-0.461-0.336-0.747
			s0.122-0.558,0.336-0.748L7,9.9V7.938c0-1.293,1.053-2.346,2.346-2.346h0.585c0.553,0,1,0.448,1,1s-0.447,1-1,1H9.346
			C9.158,7.592,9,7.75,9,7.938v2.412c0,0.286-0.122,0.558-0.336,0.748l-1.003,0.891l1.003,0.892C8.878,13.07,9,13.342,9,13.627
			v2.435c0,0.188,0.158,0.346,0.346,0.346h0.585c0.553,0,1,0.448,1,1S10.483,18.408,9.931,18.408z"/>
	</g>
	<g>
		<path d="M14.652,18.408h-0.584c-0.553,0-1-0.448-1-1s0.447-1,1-1h0.584c0.188,0,0.347-0.159,0.347-0.346v-2.435
			c0-0.286,0.122-0.558,0.336-0.747l1.003-0.892l-1.003-0.891c-0.214-0.19-0.336-0.462-0.336-0.748V7.938
			c0-0.188-0.159-0.346-0.347-0.346h-0.584c-0.553,0-1-0.448-1-1s0.447-1,1-1h0.584c1.294,0,2.347,1.053,2.347,2.346V9.9l1.508,1.34
			c0.214,0.19,0.336,0.462,0.336,0.748s-0.122,0.558-0.336,0.747l-1.508,1.341v1.986C16.999,17.355,15.946,18.408,14.652,18.408z"/>
	</g>
	<g>
		<path d="M17.002,22H7c-2.757,0-4.999-2.242-4.999-4.998v-5.75c0-0.552,0.447-1,1-1s1,0.448,1,1v5.75C4.001,18.655,5.347,20,7,20
			h10.002C18.655,20,20,18.655,20,17.002V6.999C20,5.345,18.655,4,17.002,4H7C5.347,4,4.001,5.345,4.001,6.999v0.844
			c0,0.552-0.447,1-1,1s-1-0.448-1-1V6.999C2.001,4.243,4.243,2,7,2h10.002C19.758,2,22,4.243,22,6.999v10.003
			C22,19.758,19.758,22,17.002,22z"/>
	</g>
</g>
</svg>
