<?xml version="1.0" encoding="utf-8"?>
<!-- Generator: Adobe Illustrator 25.4.1, SVG Export Plug-In . SVG Version: 6.00 Build 0)  -->
<svg version="1.1" id="Icons" xmlns="http://www.w3.org/2000/svg" xmlns:xlink="http://www.w3.org/1999/xlink" x="0px" y="0px"
	 viewBox="0 0 24 24" style="enable-background:new 0 0 24 24;" xml:space="preserve">
<g id="Bread">
	<path d="M20.79,13.396c0.809-0.762,1.219-1.826,1.219-3.18c0-4.531-4.49-8.217-10.01-8.217s-10.01,3.686-10.01,8.217
		c0,1.354,0.41,2.419,1.22,3.181c-0.777,1.167-1.219,2.505-1.219,3.927c0,4.145,3.791,4.477,5.218,4.602
		c0.547,0.057,1.036-0.358,1.083-0.909c0.048-0.55-0.359-1.035-0.909-1.083c-2.853-0.25-3.393-1.11-3.393-2.609
		c0-1.883,1.088-3.569,2.796-4.71v2.185c0,0.552,0.448,1,1,1s1-0.448,1-1v-3.166c0.693-0.237,1.438-0.396,2.215-0.472l0.005,2.64
		c0.001,0.552,0.449,0.998,1,0.998c0.553,0,1.001-0.449,1-1.002l-0.005-2.636c0.776,0.077,1.52,0.236,2.212,0.472v3.165
		c0,0.552,0.447,1,1,1s1-0.448,1-1v-2.185c1.708,1.141,2.796,2.827,2.796,4.71c0,1.68-0.705,2.556-4.526,2.676h-4.778
		c-0.552,0-1,0.448-1,1s0.448,1,1,1l4.81,0c2.108-0.066,6.495-0.204,6.495-4.676C22.01,15.902,21.567,14.564,20.79,13.396z
		 M19.479,11.881C17.644,10.184,14.976,9.106,12,9.106c-2.976,0-5.645,1.077-7.48,2.775c-0.305-0.32-0.531-0.814-0.531-1.665
		c0-1.883,1.088-3.569,2.796-4.71v2.185c0,0.552,0.448,1,1,1s1-0.448,1-1V4.525c0.693-0.237,1.438-0.396,2.215-0.472l0.005,2.64
		c0.001,0.552,0.448,0.998,1,0.998c0.553,0,1.001-0.449,1-1.002l-0.005-2.636c0.776,0.077,1.519,0.236,2.211,0.472v3.166
		c0,0.552,0.447,1,1,1s1-0.448,1-1V5.506c1.709,1.141,2.797,2.828,2.797,4.711C20.009,11.067,19.783,11.561,19.479,11.881z"/>
</g>
</svg>
