<?xml version="1.0" encoding="utf-8"?>
<!-- Generator: Adobe Illustrator 26.3.1, SVG Export Plug-In . SVG Version: 6.00 Build 0)  -->
<svg version="1.1" id="Icons" xmlns="http://www.w3.org/2000/svg" xmlns:xlink="http://www.w3.org/1999/xlink" x="0px" y="0px"
	 viewBox="0 0 24 24" style="enable-background:new 0 0 24 24;" xml:space="preserve">
<g id="Bridge">
	<path d="M20.999,7.73h-0.736V5.5h0.738c0.553,0,1-0.448,1-1s-0.447-1-1-1h-18c-0.553,0-1,0.448-1,1s0.447,1,1,1h0.734v2.23H2.999
		c-0.266,0-0.52,0.105-0.707,0.293S1.999,8.465,1.999,8.73L2,12.408c0,0.552,0.448,1,1,1c0.553,0,1-0.448,1-1L3.999,9.73h16
		l0.002,8.77h-2.383v-0.974c0-3.099-2.521-5.619-5.619-5.619S6.38,14.427,6.38,17.526V18.5H4.001L4,15.822c0-0.552-0.448-1-1-1
		c-0.553,0-1,0.448-1,1L2.001,19.5c0,0.552,0.448,1,1,1H7.38c0.553,0,1-0.448,1-1v-1.974c0-1.996,1.624-3.619,3.619-3.619
		s3.619,1.624,3.619,3.619V19.5c0,0.552,0.447,1,1,1h4.383c0.266,0,0.52-0.105,0.707-0.293s0.293-0.442,0.293-0.707L21.999,8.73
		C21.999,8.178,21.551,7.73,20.999,7.73z M18.263,7.73h-1.632V5.5h1.632V7.73z M12.999,5.5h1.632v2.23h-1.632V5.5z M10.999,7.73
		H9.367V5.5h1.632V7.73z M5.735,5.5h1.632v2.23H5.735V5.5z"/>
</g>
</svg>
