<?xml version="1.0" encoding="utf-8"?>
<!-- Generator: Adobe Illustrator 25.4.1, SVG Export Plug-In . SVG Version: 6.00 Build 0)  -->
<svg version="1.1" id="Icons" xmlns="http://www.w3.org/2000/svg" xmlns:xlink="http://www.w3.org/1999/xlink" x="0px" y="0px"
	 viewBox="0 0 24 24" style="enable-background:new 0 0 24 24;" xml:space="preserve">
<g id="Bug-1">
	<path d="M7.287,11.671H6.262c-0.553,0-1,0.448-1,1s0.447,1,1,1h1.025v0.305c0,0.392,0.062,0.767,0.153,1.131H6.941
		c-0.553,0-1,0.448-1,1v1.381c0,0.552,0.447,1,1,1s1-0.448,1-1v-0.381h0.565c0.862,0.959,2.098,1.574,3.486,1.574
		c1.387,0,2.623-0.615,3.485-1.574h0.565v0.381c0,0.552,0.447,1,1,1s1-0.448,1-1v-1.381c0-0.552-0.447-1-1-1h-0.499
		c0.091-0.364,0.153-0.739,0.153-1.131v-0.305h1.025c0.553,0,1-0.448,1-1s-0.447-1-1-1h-1.025v-0.835
		c0-1.254-0.501-2.389-1.304-3.234c0.094-0.188,0.283-0.32,0.506-0.32c0.553,0,1-0.448,1-1s-0.447-1-1-1
		c-0.909,0-1.705,0.478-2.162,1.192c-0.54-0.217-1.127-0.344-1.744-0.344c-0.612,0-1.194,0.126-1.731,0.34
		c-0.458-0.712-1.252-1.188-2.16-1.188c-0.553,0-1,0.448-1,1s0.447,1,1,1c0.219,0,0.403,0.128,0.499,0.309
		c-0.809,0.845-1.313,1.985-1.313,3.245V11.671z M9.287,13.976v-1.851h1.705v4.359C9.995,16.085,9.287,15.114,9.287,13.976z
		 M12.992,16.484v-4.359h1.704v1.851C14.696,15.113,13.989,16.085,12.992,16.484z M14.589,10.125H9.394
		c0.315-1.146,1.355-1.994,2.598-1.994S14.275,8.979,14.589,10.125z"/>
	<path d="M17.002,2H7C4.243,2,2.001,4.243,2.001,6.999v0.844c0,0.552,0.447,1,1,1s1-0.448,1-1V6.999C4.001,5.345,5.347,4,7,4h10.002
		C18.655,4,20,5.345,20,6.999v10.003C20,18.655,18.655,20,17.002,20H7c-1.653,0-2.999-1.345-2.999-2.998v-5.75c0-0.552-0.447-1-1-1
		s-1,0.448-1,1v5.75C2.001,19.758,4.243,22,7,22h10.002C19.758,22,22,19.758,22,17.002V6.999C22,4.243,19.758,2,17.002,2z"/>
</g>
</svg>
