<?xml version="1.0" encoding="utf-8"?>
<!-- Generator: Adobe Illustrator 26.3.1, SVG Export Plug-In . SVG Version: 6.00 Build 0)  -->
<svg version="1.1" id="Icons" xmlns="http://www.w3.org/2000/svg" xmlns:xlink="http://www.w3.org/1999/xlink" x="0px" y="0px"
	 viewBox="0 0 24 24" style="enable-background:new 0 0 24 24;" xml:space="preserve">
<g id="Bus-Stop">
	<path d="M13.666,15.703h1.331c0.552,0,1-0.448,1-1s-0.448-1-1-1h-1.331c-0.552,0-1,0.448-1,1S13.113,15.703,13.666,15.703z"/>
	<path d="M9,15.703h1.331c0.552,0,1-0.448,1-1s-0.448-1-1-1H9c-0.552,0-1,0.448-1,1S8.448,15.703,9,15.703z"/>
	<path d="M15.426,19.591c0.552,0,1-0.448,1-1v-0.614c1.255-0.445,2.162-1.632,2.162-3.038V8.235C18.587,6.451,17.136,5,15.353,5
		H8.647C6.864,5,5.413,6.451,5.413,8.235v6.705c0,1.404,0.905,2.59,2.158,3.037v0.615c0,0.552,0.448,1,1,1s1-0.448,1-1v-0.417h4.855
		v0.417C14.426,19.144,14.874,19.591,15.426,19.591z M8.647,7h6.705c0.681,0,1.235,0.554,1.235,1.235v3.007h-0.599
		c0.046-0.729-0.215-1.457-0.751-1.994c-1.011-1.01-2.655-1.012-3.666,0c-0.533,0.534-0.789,1.266-0.745,1.994H7.413V8.235
		C7.413,7.554,7.967,7,8.647,7z M12.856,11.242c-0.058-0.204-0.023-0.427,0.13-0.58c0.231-0.23,0.606-0.23,0.836,0
		c0.154,0.154,0.195,0.375,0.136,0.581H12.856z M7.413,13.242h9.175v1.698c0,0.681-0.554,1.235-1.235,1.235H8.647
		c-0.681,0-1.235-0.554-1.235-1.235V13.242z"/>
	<path d="M18,2H6C3.794,2,2,3.794,2,6v1.925c0,0.552,0.448,1,1,1s1-0.448,1-1V6c0-1.103,0.897-2,2-2h12c1.103,0,2,0.897,2,2v12
		c0,1.103-0.897,2-2,2H6c-1.103,0-2-0.897-2-2v-6.66c0-0.552-0.448-1-1-1s-1,0.448-1,1V18c0,2.206,1.794,4,4,4h12
		c2.206,0,4-1.794,4-4V6C22,3.794,20.206,2,18,2z"/>
</g>
</svg>
