<?xml version="1.0" encoding="utf-8"?>
<!-- Generator: Adobe Illustrator 26.3.1, SVG Export Plug-In . SVG Version: 6.00 Build 0)  -->
<svg version="1.1" id="Icons" xmlns="http://www.w3.org/2000/svg" xmlns:xlink="http://www.w3.org/1999/xlink" x="0px" y="0px"
	 viewBox="0 0 24 24" style="enable-background:new 0 0 24 24;" xml:space="preserve">
<g id="Cafe">
	<path d="M10.941,7.861c0.554,0,1.003-0.451,1-1.004l-0.004-0.861C11.935,5.445,11.488,5,10.938,5c-0.554,0-1.003,0.451-1,1.004
		l0.004,0.861C9.944,7.416,10.391,7.861,10.941,7.861z"/>
	<path d="M13.593,7.861c0.554,0,1.003-0.451,1-1.005l-0.004-0.861C14.586,5.444,14.139,5,13.589,5c-0.554,0-1.003,0.451-1,1.005
		l0.004,0.861C12.596,7.417,13.043,7.861,13.593,7.861z"/>
	<path d="M8.281,7.861c0.554,0,1.003-0.451,1-1.004L9.277,5.996C9.275,5.445,8.828,5,8.277,5c-0.554,0-1.003,0.451-1,1.004
		l0.004,0.861C7.284,7.416,7.731,7.861,8.281,7.861z"/>
	<path d="M5.608,9.428v6.049c0,1.841,1.498,3.339,3.338,3.339h3.957c1.585,0,2.909-1.113,3.248-2.596h0.89
		c1.08,0,1.958-0.878,1.958-1.958V10.93c0-0.552-0.448-1-1-1h-1.758V9.428c0-0.552-0.448-1-1-1H6.608
		C6.056,8.428,5.608,8.876,5.608,9.428z M17.013,11.93l0.029,2.291h-0.8V11.93H17.013z M7.608,10.428h6.634v5.049
		c0,0.738-0.601,1.339-1.338,1.339H8.946c-0.738,0-1.338-0.601-1.338-1.339V10.428z"/>
	<path d="M18,2H6C3.794,2,2,3.794,2,6v1.925c0,0.552,0.448,1,1,1s1-0.448,1-1V6c0-1.103,0.897-2,2-2h12c1.103,0,2,0.897,2,2v12
		c0,1.103-0.897,2-2,2H6c-1.103,0-2-0.897-2-2v-6.66c0-0.552-0.448-1-1-1s-1,0.448-1,1V18c0,2.206,1.794,4,4,4h12
		c2.206,0,4-1.794,4-4V6C22,3.794,20.206,2,18,2z"/>
</g>
</svg>
