<?xml version="1.0" encoding="utf-8"?>
<!-- Generator: Adobe Illustrator 25.4.1, SVG Export Plug-In . SVG Version: 6.00 Build 0)  -->
<svg version="1.1" id="Icons" xmlns="http://www.w3.org/2000/svg" xmlns:xlink="http://www.w3.org/1999/xlink" x="0px" y="0px"
	 viewBox="0 0 24 24" style="enable-background:new 0 0 24 24;" xml:space="preserve">
<g id="Calculator">
	<g>
		<path d="M15.622,10.502H8.508c-1.187,0-2.152-0.965-2.152-2.152V6.991c0-1.187,0.965-2.152,2.152-2.152h7.114
			c1.187,0,2.152,0.965,2.152,2.152V8.35C17.774,9.537,16.809,10.502,15.622,10.502z M8.508,6.838c-0.081,0-0.152,0.071-0.152,0.152
			V8.35c0,0.081,0.071,0.152,0.152,0.152h7.114c0.081,0,0.152-0.071,0.152-0.152V6.991c0-0.081-0.071-0.152-0.152-0.152H8.508z"/>
	</g>
	<g>
		<path d="M12.619,13.384h-1.237c-0.552,0-1-0.448-1-1s0.448-1,1-1h1.237c0.552,0,1,0.448,1,1S13.171,13.384,12.619,13.384z"/>
	</g>
	<g>
		<path d="M12.619,16.226h-1.237c-0.552,0-1-0.448-1-1s0.448-1,1-1h1.237c0.552,0,1,0.448,1,1S13.171,16.226,12.619,16.226z"/>
	</g>
	<g>
		<g>
			<path d="M16.618,13.384h-1.236c-0.553,0-1-0.448-1-1s0.447-1,1-1h1.236c0.553,0,1,0.448,1,1S17.171,13.384,16.618,13.384z"/>
		</g>
		<g>
			<path d="M16.618,16.226h-1.236c-0.553,0-1-0.448-1-1s0.447-1,1-1h1.236c0.553,0,1,0.448,1,1S17.171,16.226,16.618,16.226z"/>
		</g>
		<g>
			<path d="M16.618,19.145h-1.236c-0.553,0-1-0.448-1-1s0.447-1,1-1h1.236c0.553,0,1,0.448,1,1S17.171,19.145,16.618,19.145z"/>
		</g>
	</g>
	<g>
		<g>
			<path d="M8.619,13.384H7.381c-0.552,0-1-0.448-1-1s0.448-1,1-1h1.237c0.552,0,1,0.448,1,1S9.171,13.384,8.619,13.384z"/>
		</g>
		<g>
			<path d="M8.619,16.226H7.381c-0.552,0-1-0.448-1-1s0.448-1,1-1h1.237c0.552,0,1,0.448,1,1S9.171,16.226,8.619,16.226z"/>
		</g>
		<g>
			<path d="M12.619,19.145H7.381c-0.552,0-1-0.448-1-1s0.448-1,1-1h5.237c0.552,0,1,0.448,1,1S13.171,19.145,12.619,19.145z"/>
		</g>
	</g>
	<g>
		<path d="M16.905,22H7.084c-1.976,0.041-3.729-1.713-3.685-3.69c0,0,0.005-6.298,0.005-6.298c0.026-1.316,1.978-1.312,2,0.002
			c0,0-0.005,6.298-0.005,6.298c-0.02,0.9,0.784,1.707,1.685,1.687c0,0,9.821,0,9.821,0c0.932,0,1.691-0.758,1.692-1.69l0.01-12.612
			c0.001-0.448-0.175-0.871-0.495-1.191c-0.319-0.32-0.742-0.497-1.19-0.497H7.101c-0.932,0-1.69,0.758-1.692,1.69L5.407,8.604
			c-0.022,1.315-1.981,1.311-2-0.002c0,0,0.002-2.904,0.002-2.904c0.003-2.034,1.659-3.688,3.692-3.688h9.821
			c1.976-0.041,3.73,1.713,3.686,3.69c0,0-0.01,12.612-0.01,12.612C20.595,20.346,18.938,22,16.905,22z"/>
	</g>
</g>
</svg>
