<?xml version="1.0" encoding="utf-8"?>
<!-- Generator: Adobe Illustrator 25.4.1, SVG Export Plug-In . SVG Version: 6.00 Build 0)  -->
<svg version="1.1" id="Icons" xmlns="http://www.w3.org/2000/svg" xmlns:xlink="http://www.w3.org/1999/xlink" x="0px" y="0px"
	 viewBox="0 0 24 24" style="enable-background:new 0 0 24 24;" xml:space="preserve">
<g id="Car">
	<path d="M7.048,15.686c1.468,0,2.662-1.194,2.662-2.662s-1.194-2.662-2.662-2.662c-1.468,0-2.663,1.194-2.663,2.662
		S5.58,15.686,7.048,15.686z M7.048,12.361c0.365,0,0.662,0.297,0.662,0.662s-0.297,0.662-0.662,0.662s-0.663-0.297-0.663-0.662
		S6.683,12.361,7.048,12.361z"/>
	<path d="M19.606,13.023c0-1.468-1.194-2.662-2.662-2.662c-1.469,0-2.663,1.194-2.663,2.662s1.194,2.662,2.663,2.662
		C18.412,15.686,19.606,14.491,19.606,13.023z M16.281,13.023c0-0.365,0.298-0.662,0.663-0.662s0.662,0.297,0.662,0.662
		s-0.297,0.662-0.662,0.662S16.281,13.389,16.281,13.023z"/>
	<path d="M11.213,15.199h1.565c0.553,0,1-0.448,1-1s-0.447-1-1-1h-1.565c-0.552,0-1,0.448-1,1S10.661,15.199,11.213,15.199z"/>
	<path d="M11.213,12.846h1.565c0.553,0,1-0.448,1-1s-0.447-1-1-1h-1.565c-0.552,0-1,0.448-1,1S10.661,12.846,11.213,12.846z"/>
	<path d="M19.617,7.622l-2.679-4.614c-0.18-0.308-0.509-0.498-0.865-0.498H7.926c-0.356,0-0.686,0.19-0.865,0.498L4.384,7.622
		c-1.361,0.284-2.387,1.492-2.387,2.935c0,0,0,0.761,0,0.761c0.02,1.313,1.979,1.316,2,0.001l0-0.761c0-0.551,0.449-1,1-1h14.006
		c0.552,0,1,0.449,1,1l-0.001,4.932c0,0.551-0.448,1-1,1H4.996c-0.551,0-1-0.449-1-1c0,0,0-0.761,0-0.761
		c-0.023-1.313-1.974-1.318-2-0.001l0,0.761c0,1.385,0.948,2.543,2.227,2.886v1.115c0,1.103,0.897,2,2,2h2.554c1.103,0,2-0.897,2-2
		v-1.001h2.445v1.001c0,1.103,0.897,2,2,2h2.555c1.103,0,2-0.897,2-2v-1.115c1.278-0.344,2.227-1.501,2.227-2.886l0.001-4.932
		C22.004,9.114,20.978,7.906,19.617,7.622z M8.502,4.509h6.995l1.77,3.048H6.734L8.502,4.509z M8.776,19.491H6.222v-1.001h2.554
		V19.491z M15.222,19.491v-1.001h2.555v1.001H15.222z"/>
</g>
</svg>
