<svg fill="#000000" xmlns="http://www.w3.org/2000/svg"  viewBox="0 0 16 16" width="16px" height="16px"><path d="M 2.5 2 A 0.50005 0.50005 0 0 0 2.2773438 2.0527344 C 2.2773438 2.0527344 1.9204101 2.2365171 1.609375 2.625 C 1.2983399 3.0134833 1 3.6369358 1 4.4980469 C 1 5.359158 1.2985183 5.9861182 1.609375 6.375 C 1.7444714 6.5440056 1.8809575 6.6568047 2 6.75 L 2 12.375 L 2 12.5 L 2 14 L 3 14 L 3 13 L 4 13 L 4 14 L 5 14 L 5 13 L 6 13 L 6 14 L 7 14 L 7 13 L 8 13 L 8 14 L 9 14 L 9 13 L 10 13 L 10 14 L 11 14 L 11 13 L 12 13 L 12 14 L 13 14 L 13 12.5 L 13 6.75 C 13.119043 6.6568047 13.255528 6.5440056 13.390625 6.375 C 13.701482 5.9861178 14 5.359158 14 4.4980469 C 14 3.6369358 13.70166 3.0134829 13.390625 2.625 C 13.07959 2.2365171 12.722656 2.0527344 12.722656 2.0527344 A 0.50005 0.50005 0 0 0 12.5 2 L 2.5 2 z M 2.6640625 3 L 12.335938 3 C 12.375076 3.021756 12.453562 3.055389 12.609375 3.25 C 12.79834 3.4860171 13 3.859158 13 4.4980469 C 13 5.1369358 12.798518 5.5133818 12.609375 5.75 C 12.453309 5.9452391 12.37311 5.978184 12.333984 6 L 2.6660156 6 C 2.6268901 5.978184 2.5466914 5.9452391 2.390625 5.75 C 2.2014817 5.5133818 2 5.1369358 2 4.4980469 C 2 3.859158 2.2016601 3.4860171 2.390625 3.25 C 2.5464385 3.055389 2.6249209 3.0217563 2.6640625 3 z M 3 7 L 4 7 L 4 10.5 A 0.50005 0.50005 0 0 0 4.5 11 L 10.5 11 A 0.50005 0.50005 0 0 0 11 10.5 L 11 7 L 12 7 L 12 12 L 3 12 L 3 7 z M 5 7 L 6.0527344 7 L 7.03125 8.6757812 C 7.10425 8.8707813 7.292 9 7.5 9 C 7.708 9 7.89575 8.8707813 7.96875 8.6757812 L 8.9472656 7 L 10 7 L 10 10 L 5 10 L 5 7 z"/></svg>