<?xml version="1.0" encoding="utf-8"?>
<!-- Generator: Adobe Illustrator 25.4.1, SVG Export Plug-In . SVG Version: 6.00 Build 0)  -->
<svg version="1.1" id="Icons" xmlns="http://www.w3.org/2000/svg" xmlns:xlink="http://www.w3.org/1999/xlink" x="0px" y="0px"
	 viewBox="0 0 24 24" style="enable-background:new 0 0 24 24;" xml:space="preserve">
<g id="Cart-3">
	<path d="M22,10.264c0-1.522-1.342-2.76-2.993-2.763l-4.252-5.138c-0.354-0.425-0.983-0.486-1.408-0.133
		c-0.426,0.352-0.484,0.982-0.133,1.408L16.41,7.5h-2.705c-0.553,0-1,0.448-1,1s0.447,1,1,1H19c0.542,0,1,0.35,1,0.764
		c0,0.415-0.458,0.765-1,0.765H5c-0.542,0-1-0.35-1-0.765C4,9.85,4.458,9.5,5,9.5h5.295c0.553,0,1-0.448,1-1s-0.447-1-1-1H7.59
		l3.196-3.862c0.352-0.426,0.293-1.056-0.133-1.408S9.598,1.938,9.244,2.362L4.993,7.5C3.342,7.504,2,8.742,2,10.264
		c0,1.017,0.605,1.897,1.495,2.377l0.801,7.419c0.148,1.083,1.12,1.932,2.213,1.932h11.029c1.097,0,2.065-0.853,2.208-1.967
		l0.748-7.379C21.39,12.168,22,11.284,22,10.264z M10.431,15.429l-0.172-2.4h3.483l-0.172,2.4H10.431z M13.426,17.429l-0.184,2.563
		h-2.485l-0.184-2.563H13.426z M8.426,15.429H5.807l-0.259-2.4h2.706L8.426,15.429z M15.746,13.028h2.699l-0.243,2.4h-2.628
		L15.746,13.028z M6.281,19.818l-0.258-2.389h2.546l0.184,2.563H6.509C6.418,19.992,6.29,19.881,6.281,19.818z M17.538,19.992
		h-2.291l0.184-2.563h2.568l-0.24,2.369C17.748,19.885,17.626,19.992,17.538,19.992z"/>
</g>
</svg>
