<?xml version="1.0" encoding="utf-8"?>
<!-- Generator: Adobe Illustrator 25.4.1, SVG Export Plug-In . SVG Version: 6.00 Build 0)  -->
<svg version="1.1" id="Icons" xmlns="http://www.w3.org/2000/svg" xmlns:xlink="http://www.w3.org/1999/xlink" x="0px" y="0px"
	 viewBox="0 0 24 24" style="enable-background:new 0 0 24 24;" xml:space="preserve">
<g id="Cart-2">
	<path d="M10.73,15.953c-1.507,0-2.732,1.226-2.732,2.732c0,1.506,1.226,2.732,2.732,2.732s2.732-1.226,2.732-2.732
		C13.463,17.178,12.237,15.953,10.73,15.953z M10.73,19.417c-0.404,0-0.732-0.328-0.732-0.732s0.329-0.732,0.732-0.732
		s0.732,0.329,0.732,0.732S11.134,19.417,10.73,19.417z"/>
	<path d="M16.999,15.953c-1.506,0-2.731,1.226-2.731,2.732c0,1.506,1.226,2.732,2.731,2.732c1.507,0,2.732-1.226,2.732-2.732
		C19.731,17.178,18.506,15.953,16.999,15.953z M16.999,19.417c-0.403,0-0.731-0.328-0.731-0.732s0.328-0.732,0.731-0.732
		c0.404,0,0.732,0.329,0.732,0.732S17.403,19.417,16.999,19.417z"/>
	<path d="M21.802,5.845c-0.189-0.249-0.484-0.396-0.797-0.396H7.506L6.967,3.336C6.854,2.893,6.455,2.583,5.998,2.583
		c0,0-3.003,0-3.003,0c-1.315,0.022-1.313,1.979,0,2h2.227l1.16,4.549C6.497,9.584,6.903,9.885,7.35,9.885
		C7.99,9.893,8.487,9.259,8.319,8.638L8.016,7.449h11.672l-1.506,5.399H9.393l-0.229-0.902c-0.137-0.534-0.679-0.857-1.216-0.722
		c-0.535,0.137-0.858,0.681-0.722,1.216l0.422,1.655c0.113,0.443,0.512,0.753,0.969,0.753H18.94c0.449,0,0.843-0.299,0.963-0.731
		l2.064-7.399C22.052,6.417,21.99,6.094,21.802,5.845z"/>
</g>
</svg>
