<?xml version="1.0" encoding="utf-8"?>
<!-- Generator: Adobe Illustrator 25.4.1, SVG Export Plug-In . SVG Version: 6.00 Build 0)  -->
<svg version="1.1" id="Icons" xmlns="http://www.w3.org/2000/svg" xmlns:xlink="http://www.w3.org/1999/xlink" x="0px" y="0px"
	 viewBox="0 0 24 24" style="enable-background:new 0 0 24 24;" xml:space="preserve">
<g id="Cart-1">
	<path d="M9.507,18v-3.001c0-0.552-0.448-1-1-1s-1,0.448-1,1V18c0,0.552,0.448,1,1,1S9.507,18.552,9.507,18z"/>
	<path d="M13,18v-3.001c0-0.552-0.448-1-1-1s-1,0.448-1,1V18c0,0.552,0.448,1,1,1S13,18.552,13,18z"/>
	<path d="M16.493,18v-3.001c0-0.552-0.448-1-1-1s-1,0.448-1,1V18c0,0.552,0.448,1,1,1S16.493,18.552,16.493,18z"/>
	<path d="M22,10.264c0-1.522-1.342-2.76-2.993-2.764l-4.251-5.138c-0.352-0.426-0.983-0.485-1.408-0.133s-0.485,0.982-0.133,1.408
		L16.41,7.5H7.59l3.195-3.862c0.352-0.426,0.292-1.056-0.133-1.408c-0.425-0.352-1.056-0.293-1.408,0.133L4.993,7.5
		C3.342,7.504,2,8.742,2,10.264c0,1.016,0.605,1.897,1.495,2.377l0.229,2.124c0.055,0.513,0.489,0.893,0.993,0.893
		c0.59,0.004,1.063-0.52,0.996-1.107l-0.164-1.522h12.897l-0.686,6.769c-0.011,0.087-0.133,0.195-0.222,0.195H6.509
		c-0.091,0-0.218-0.111-0.228-0.174l-0.203-1.877c-0.06-0.549-0.56-0.949-1.102-0.887c-0.549,0.059-0.946,0.552-0.887,1.102
		l0.206,1.905c0.147,1.083,1.12,1.932,2.212,1.932h11.029c1.097,0,2.066-0.853,2.208-1.967l0.748-7.379
		C21.39,12.168,22,11.285,22,10.264z M5,9.5h14c0.542,0,1,0.35,1,0.765c0,0.414-0.458,0.764-1,0.764H5c-0.542,0-1-0.35-1-0.764
		C4,9.85,4.458,9.5,5,9.5z"/>
</g>
</svg>
