<?xml version="1.0" encoding="utf-8"?>
<!-- Generator: Adobe Illustrator 25.4.1, SVG Export Plug-In . SVG Version: 6.00 Build 0)  -->
<svg version="1.1" id="Icons" xmlns="http://www.w3.org/2000/svg" xmlns:xlink="http://www.w3.org/1999/xlink" x="0px" y="0px"
	 viewBox="0 0 24 24" style="enable-background:new 0 0 24 24;" xml:space="preserve">
<g id="Cashier-3">
	<path d="M20.492,16.476l0.007-6.098c0-1.327-1.079-2.406-2.406-2.406h-2.042l0.001-0.95h1.77c0.266,0,0.52-0.105,0.707-0.293
		c0.188-0.188,0.293-0.442,0.293-0.708l-0.002-3.012c0-0.552-0.448-1-1-1h-5.536c-0.265,0-0.52,0.105-0.708,0.293
		c-0.188,0.188-0.292,0.442-0.292,0.708l0.002,3.012c0,0.552,0.448,1,1,1h1.766l-0.001,0.95h-8.14c-1.327,0-2.406,1.079-2.406,2.405
		l-0.001,1.297c-0.001,0.553,0.447,1.001,1,1.001c0.552,0,1-0.447,1-0.999l0.001-1.298c0-0.22,0.186-0.406,0.406-0.406h12.182
		c0.22,0,0.406,0.186,0.406,0.405c0,0-0.006,4.867-0.007,5.919H5.499L5.5,15.091c0-0.552-0.447-1-0.999-1.001
		C3.949,14.09,3.5,14.537,3.5,15.089c0,0-0.001,0.866-0.001,1.389c-0.877,0.359-1.497,1.22-1.497,2.224v0.892
		C2.001,20.921,3.081,22,4.407,22h15.182c1.327,0,2.406-1.079,2.406-2.406v-0.892C21.995,17.696,21.372,16.834,20.492,16.476z
		 M13.284,4.012h3.536v1.012h-3.535L13.284,4.012z M19.995,19.594c0,0.22-0.187,0.406-0.406,0.406H4.407
		c-0.22,0-0.406-0.186-0.406-0.406v-0.892c0-0.22,0.186-0.405,0.406-0.405h15.182c0.22,0,0.406,0.186,0.406,0.405V19.594z"/>
	<path d="M12.656,10.676H7.555c-0.552,0-1,0.448-1,1s0.448,1,1,1h5.101c0.553,0,1-0.448,1-1S13.209,10.676,12.656,10.676z"/>
	<path d="M15.555,12.676h1.102c0.553,0,1-0.448,1-1s-0.447-1-1-1h-1.102c-0.553,0-1,0.448-1,1S15.002,12.676,15.555,12.676z"/>
	<path d="M15.555,15.676h1.102c0.553,0,1-0.448,1-1s-0.447-1-1-1h-1.102c-0.553,0-1,0.448-1,1S15.002,15.676,15.555,15.676z"/>
	<path d="M7.555,15.676h1.101c0.552,0,1-0.448,1-1s-0.448-1-1-1H7.555c-0.552,0-1,0.448-1,1S7.003,15.676,7.555,15.676z"/>
	<path d="M12.656,13.676h-1.101c-0.552,0-1,0.448-1,1s0.448,1,1,1h1.101c0.553,0,1-0.448,1-1S13.209,13.676,12.656,13.676z"/>
</g>
</svg>
