<?xml version="1.0" encoding="utf-8"?>
<!-- Generator: Adobe Illustrator 25.4.1, SVG Export Plug-In . SVG Version: 6.00 Build 0)  -->
<svg version="1.1" id="Icons" xmlns="http://www.w3.org/2000/svg" xmlns:xlink="http://www.w3.org/1999/xlink" x="0px" y="0px"
	 viewBox="0 0 24 24" style="enable-background:new 0 0 24 24;" xml:space="preserve">
<g id="Cashier-list">
	<g>
		<g>
			<path d="M15.386,8.161h-3.647c-0.552,0-1-0.448-1-1s0.448-1,1-1h3.647c0.552,0,1,0.448,1,1S15.938,8.161,15.386,8.161z"/>
		</g>
		<g>
			<path d="M15.386,15.542h-3.647c-0.552,0-1-0.448-1-1s0.448-1,1-1h3.647c0.552,0,1,0.448,1,1S15.938,15.542,15.386,15.542z"/>
		</g>
		<g>
			<path d="M15.385,11.852h-3.647c-0.552,0-1-0.448-1-1s0.448-1,1-1h3.647c0.552,0,1,0.448,1,1S15.938,11.852,15.385,11.852z"/>
		</g>
	</g>
	<g>
		<g>
			<path d="M8.932,8.161H8.614c-0.552,0-1-0.448-1-1s0.448-1,1-1h0.318c0.552,0,1,0.448,1,1S9.484,8.161,8.932,8.161z"/>
		</g>
		<g>
			<path d="M8.932,15.542H8.614c-0.552,0-1-0.448-1-1s0.448-1,1-1h0.318c0.552,0,1,0.448,1,1S9.484,15.542,8.932,15.542z"/>
		</g>
		<g>
			<path d="M8.932,11.852H8.614c-0.552,0-1-0.448-1-1s0.448-1,1-1h0.318c0.552,0,1,0.448,1,1S9.484,11.852,8.932,11.852z"/>
		</g>
	</g>
	<g>
		<path d="M12,22.011c-0.19,0-0.38-0.054-0.545-0.162l-3.08-2.005l-3.081,2.005c-0.307,0.2-0.7,0.217-1.022,0.041
			c-0.323-0.175-0.523-0.512-0.523-0.879V11.42c0-0.552,0.448-1,1-1s1,0.448,1,1v7.747l2.081-1.354c0.331-0.216,0.76-0.216,1.091,0
			L12,19.817l3.081-2.005c0.331-0.216,0.76-0.216,1.091,0l2.08,1.354V4.989c0-0.551-0.449-1-1-1H6.749c-0.551,0-1,0.449-1,1V8.01
			c0,0.552-0.448,1-1,1s-1-0.448-1-1V4.989c0-1.654,1.346-3,3-3h10.503c1.654,0,3,1.346,3,3v16.021c0,0.367-0.201,0.704-0.523,0.879
			c-0.322,0.176-0.715,0.159-1.022-0.041l-3.08-2.005l-3.081,2.005C12.38,21.957,12.19,22.011,12,22.011z"/>
	</g>
</g>
</svg>
