<?xml version="1.0" encoding="utf-8"?>
<!-- Generator: Adobe Illustrator 25.4.1, SVG Export Plug-In . SVG Version: 6.00 Build 0)  -->
<svg version="1.1" id="Icons" xmlns="http://www.w3.org/2000/svg" xmlns:xlink="http://www.w3.org/1999/xlink" x="0px" y="0px"
	 viewBox="0 0 24 24" style="enable-background:new 0 0 24 24;" xml:space="preserve">
<g id="Cashier-1">
	<path d="M18.513,14.985c0.552,0,1-0.448,1-1v-3.939c0-0.552-0.448-1-1-1h-3.939c-0.552,0-1,0.448-1,1v3.939c0,0.552,0.448,1,1,1
		H18.513z M15.573,11.046h1.939v1.939h-1.939V11.046z"/>
	<path d="M11.998,14.985c0.552,0,1-0.448,1-1s-0.448-1-1-1H5.774c-0.552,0-1,0.448-1,1s0.448,1,1,1H11.998z"/>
	<path d="M20.015,6.156h-2.211l0-2.156h1.34c0.552,0,1-0.448,1-1s-0.448-1-1-1h-4.679c-0.552,0-1,0.448-1,1s0.448,1,1,1h1.339
		l0,2.156h-3.622V4.601c0-0.552-0.448-1-1-1H6.651c-0.552,0-1,0.448-1,1v1.556H3.985c-1.096,0-1.988,0.892-1.988,1.987v2.506
		c0,0.552,0.448,1,1,1s1-0.448,1-1L3.985,8.156h1.666v1.518c-0.491,0.063-0.877,0.467-0.877,0.975c0,0.552,0.448,1,1,1h6.224
		c0.552,0,1-0.448,1-1c0-0.487-0.355-0.874-0.816-0.963V8.155l7.821-0.011l0.008,7.924H3.998v-2.004c0-0.552-0.448-1-1-1
		s-1,0.448-1,1v5.949C1.998,21.108,2.889,22,3.985,22h16.029c1.096,0,1.988-0.892,1.988-1.988V8.144
		C22.002,7.048,21.111,6.156,20.015,6.156z M10.182,5.601v4.048H7.651V5.601H10.182z M3.998,20.012v-1.944h16.015L20.015,20
		L3.998,20.012z"/>
</g>
</svg>
