<?xml version="1.0" encoding="utf-8"?>
<!-- Generator: Adobe Illustrator 26.3.1, SVG Export Plug-In . SVG Version: 6.00 Build 0)  -->
<svg version="1.1" id="Icons" xmlns="http://www.w3.org/2000/svg" xmlns:xlink="http://www.w3.org/1999/xlink" x="0px" y="0px"
	 viewBox="0 0 24 24" style="enable-background:new 0 0 24 24;" xml:space="preserve">
<g id="CCTV">
	<path d="M12.062,7.702h-0.538c-0.553,0-1,0.448-1,1s0.447,1,1,1h0.538c0.553,0,1-0.448,1-1S12.615,7.702,12.062,7.702z"/>
	<path d="M18,2H6C3.794,2,2,3.794,2,6v1.925c0,0.552,0.447,1,1,1s1-0.448,1-1V6c0-1.103,0.897-2,2-2h12c1.103,0,2,0.897,2,2v10.407
		h-5.132c-0.201,0-0.371-0.17-0.371-0.371v-0.188c1.238-0.407,2.141-1.533,2.211-2.888h0.102c1.308,0,2.371-1.063,2.371-2.371V7.484
		c0-1.307-1.063-2.371-2.371-2.371h-6.625c-0.926,0-1.721,0.539-2.111,1.314L6.374,5.295C6.067,5.09,5.672,5.072,5.348,5.246
		C5.022,5.42,4.819,5.759,4.819,6.127v5.818c0,0.369,0.203,0.708,0.528,0.882c0.147,0.079,0.31,0.118,0.472,0.118
		c0.194,0,0.388-0.057,0.555-0.168l1.699-1.133c0.39,0.776,1.185,1.315,2.112,1.315h0.102c0.07,1.355,0.973,2.481,2.211,2.888v0.188
		c0,1.308,1.063,2.371,2.371,2.371h5.09C19.77,19.315,18.963,20,18,20H6c-1.103,0-2-0.897-2-2v-6.66c0-0.552-0.447-1-1-1
		s-1,0.448-1,1V18c0,2.206,1.794,4,4,4h12c2.206,0,4-1.794,4-4V6C22,3.794,20.206,2,18,2z M6.819,7.996l0.994,0.663v0.755
		l-0.994,0.663V7.996z M9.813,10.588V7.484c0-0.201,0.17-0.371,0.371-0.371h6.625c0.201,0,0.371,0.17,0.371,0.371v3.104
		c0,0.201-0.17,0.371-0.371,0.371h-6.625C9.983,10.959,9.813,10.79,9.813,10.588z M14.691,12.959
		c-0.084,0.596-0.576,1.062-1.194,1.062s-1.11-0.467-1.194-1.062H14.691z"/>
</g>
</svg>
