<?xml version="1.0" encoding="utf-8"?>
<!-- Generator: Adobe Illustrator 26.5.0, SVG Export Plug-In . SVG Version: 6.00 Build 0)  -->
<svg version="1.1" id="Icons" xmlns="http://www.w3.org/2000/svg" xmlns:xlink="http://www.w3.org/1999/xlink" x="0px" y="0px"
	 viewBox="0 0 24 24" enable-background="new 0 0 24 24" xml:space="preserve">
<path id="Ceiling-fan" d="M15,18.708V21c0,0.552-0.448,1-1,1s-1-0.448-1-1v-2.292c0-0.552,0.448-1,1-1S15,18.156,15,18.708z
	 M10,17.708c-0.552,0-1,0.448-1,1V21c0,0.552,0.448,1,1,1s1-0.448,1-1v-2.292C11,18.156,10.552,17.708,10,17.708z M18,17.708
	c-0.552,0-1,0.448-1,1V21c0,0.552,0.448,1,1,1s1-0.448,1-1v-2.292C19,18.156,18.552,17.708,18,17.708z M6,17.708
	c-0.552,0-1,0.448-1,1V21c0,0.552,0.448,1,1,1s1-0.448,1-1v-2.292C7,18.156,6.552,17.708,6,17.708z M22,13.452
	c0,0.85-0.366,1.661-1.003,2.223c-0.544,0.48-1.243,0.741-1.959,0.741c-0.124,0-0.247-0.008-0.371-0.023l-4.298-0.542
	c-0.556,0.703-1.405,1.163-2.369,1.163c-0.963,0-1.813-0.46-2.368-1.163l-4.298,0.542c-0.124,0.016-0.248,0.023-0.371,0.023
	c-0.717,0-1.415-0.261-1.959-0.741C2.366,15.113,2,14.303,2,13.453s0.366-1.66,1.003-2.222c0.638-0.562,1.485-0.825,2.331-0.718
	l3.719,0.469c0.154-0.355,0.506-0.604,0.917-0.604H11V7.267h-0.841c-1.786,0-3.239-1.453-3.239-3.239V4H6C5.448,4,5,3.552,5,3
	s0.448-1,1-1h3.49c0.552,0,1,0.448,1,1s-0.448,1-1,1H8.92v0.028c0,0.683,0.556,1.239,1.239,1.239h3.679
	c0.683,0,1.239-0.556,1.239-1.239V4h-2.171c-0.552,0-1-0.448-1-1s0.448-1,1-1H18c0.552,0,1,0.448,1,1s-0.448,1-1,1h-0.923v0.028
	c0,1.786-1.453,3.239-3.239,3.239H13v3.111h1.031c0.411,0,0.763,0.249,0.917,0.604l3.719-0.469c0.844-0.106,1.692,0.155,2.33,0.717
	C21.634,11.792,22,12.602,22,13.452z M8.969,13.918v-0.931l-3.886-0.49c-0.278-0.036-0.547,0.047-0.757,0.233
	C4.116,12.916,4,13.172,4,13.453s0.116,0.537,0.326,0.723c0.21,0.185,0.479,0.268,0.757,0.233L8.969,13.918z M13.031,12.378h-2.062
	v1.605c0,0.568,0.462,1.031,1.031,1.031s1.031-0.462,1.031-1.031V12.378z M20,13.452c0-0.28-0.116-0.537-0.326-0.722
	s-0.479-0.269-0.757-0.233l-3.886,0.49v0.931l3.886,0.49c0.278,0.035,0.547-0.048,0.757-0.233C19.884,13.989,20,13.732,20,13.452z"
	/>
</svg>
