<?xml version="1.0" encoding="utf-8"?>
<!-- Generator: Adobe Illustrator 26.3.1, SVG Export Plug-In . SVG Version: 6.00 Build 0)  -->
<svg version="1.1" id="Icons" xmlns="http://www.w3.org/2000/svg" xmlns:xlink="http://www.w3.org/1999/xlink" x="0px" y="0px"
	 viewBox="0 0 24 24" style="enable-background:new 0 0 24 24;" xml:space="preserve">
<g id="Cemetery">
	<path d="M20.343,16.398v-6.053c0-4.6-3.742-8.343-8.343-8.343c-1.172,0-2.313,0.244-3.392,0.725
		C8.104,2.952,7.877,3.543,8.102,4.047c0.226,0.505,0.818,0.73,1.321,0.506C10.244,4.188,11.111,4.002,12,4.002
		c3.497,0,6.343,2.845,6.343,6.343v5.936H5.657v-5.936c0-1.472,0.492-2.854,1.421-3.998C7.427,5.918,7.362,5.289,6.934,4.94
		C6.505,4.592,5.875,4.657,5.527,5.085c-1.206,1.482-1.87,3.35-1.87,5.26v6.053C2.701,16.697,2,17.581,2,18.635V21
		c0,0.552,0.448,1,1,1h18c0.553,0,1-0.448,1-1v-2.365C22,17.581,21.299,16.697,20.343,16.398z M20,20H4v-1.365
		c0-0.192,0.163-0.355,0.355-0.355h15.291c0.192,0,0.354,0.163,0.354,0.355V20z"/>
	<path d="M12,5.723c-0.552,0-1,0.448-1,1V8.56H8.852c-0.552,0-1,0.448-1,1s0.448,1,1,1H11v4.022c0,0.552,0.448,1,1,1s1-0.448,1-1
		V10.56h2.148c0.553,0,1-0.448,1-1s-0.447-1-1-1H13V6.723C13,6.17,12.552,5.723,12,5.723z"/>
</g>
</svg>
