<?xml version="1.0" encoding="utf-8"?>
<!-- Generator: Adobe Illustrator 26.5.0, SVG Export Plug-In . SVG Version: 6.00 Build 0)  -->
<svg version="1.1" id="Icons" xmlns="http://www.w3.org/2000/svg" xmlns:xlink="http://www.w3.org/1999/xlink" x="0px" y="0px"
	 viewBox="0 0 24 24" enable-background="new 0 0 24 24" xml:space="preserve">
<path id="Chair" d="M19.472,11.412h-0.472L19.001,3c0-0.265-0.105-0.52-0.293-0.707S18.267,2,18.001,2H11.83c-0.553,0-1,0.448-1,1
	s0.447,1,1,1h5.171L17,6.953H7L7.001,4h1.414c0.553,0,1-0.448,1-1s-0.447-1-1-1H6.001c-0.552,0-1,0.448-1,1l-0.002,8.412H4.528
	c-0.553,0-1,0.448-1,1v3.971c0,0.542,0.432,0.978,0.971,0.994v3.576c0,0.552,0.447,1,1,1s1-0.448,1-1v-3.57h11v3.57
	c0,0.552,0.447,1,1,1s1-0.448,1-1v-3.575c0.539-0.015,0.973-0.452,0.973-0.995v-3.971C20.472,11.86,20.024,11.412,19.472,11.412z
	 M5.528,15.383v-1.971h12.943v1.971H5.528z M7,8.953h10l-0.001,2.459h-10L7,8.953z"/>
</svg>
