<?xml version="1.0" encoding="utf-8"?>
<!-- Generator: Adobe Illustrator 26.5.0, SVG Export Plug-In . SVG Version: 6.00 Build 0)  -->
<svg version="1.1" id="Icons" xmlns="http://www.w3.org/2000/svg" xmlns:xlink="http://www.w3.org/1999/xlink" x="0px" y="0px"
	 viewBox="0 0 24 24" enable-background="new 0 0 24 24" xml:space="preserve">
<path id="Chandelier" d="M21.846,15.92l-1.853-4.625c-0.152-0.38-0.52-0.628-0.929-0.628H16.29c-0.409,0-0.776,0.249-0.929,0.628
	L13.51,15.92c-0.123,0.308-0.086,0.657,0.101,0.932c0.186,0.275,0.496,0.439,0.828,0.439h2.318v0.8c0,1.036-0.843,1.878-1.879,1.878
	c-1.035,0-1.878-0.843-1.878-1.878v-7.744c1.033-0.402,1.77-1.401,1.77-2.575V7.24l2.382,0c2.535-0.128,3.303-2.805,3.354-4.203
	c0.011-0.271-0.091-0.535-0.279-0.73C20.037,2.11,19.777,2,19.506,2H10.46c-0.553,0-1,0.448-1,1s0.447,1,1,1h7.854
	c-0.183,0.585-0.536,1.207-1.213,1.241L6.95,5.243C6.245,5.207,5.879,4.585,5.69,4h1.354c0.553,0,1-0.448,1-1s-0.447-1-1-1H4.494
	c-0.271,0-0.531,0.11-0.72,0.306c-0.188,0.195-0.29,0.459-0.279,0.73c0.051,1.398,0.818,4.075,3.404,4.205l2.331,0v0.532
	c0,1.174,0.737,2.173,1.77,2.576v7.744c0,1.036-0.843,1.878-1.878,1.878c-1.036,0-1.879-0.843-1.879-1.878v-0.8h2.318
	c0.332,0,0.643-0.165,0.828-0.439c0.187-0.275,0.224-0.625,0.101-0.933l-1.854-4.625c-0.152-0.379-0.521-0.628-0.929-0.628H4.934
	c-0.409,0-0.776,0.249-0.929,0.628L2.154,15.92c-0.123,0.308-0.085,0.657,0.101,0.932c0.187,0.275,0.496,0.439,0.828,0.439h2.16v0.8
	c0,2.139,1.74,3.878,3.879,3.878c1.147,0,2.167-0.51,2.878-1.303c0.711,0.794,1.731,1.303,2.878,1.303
	c2.139,0,3.879-1.74,3.879-3.878v-0.8h2.16c0.332,0,0.643-0.165,0.828-0.439C21.932,16.578,21.969,16.229,21.846,15.92z
	 M5.61,12.667h1.421l1.053,2.625H4.561L5.61,12.667z M12.77,7.24v0.534c0,0.424-0.345,0.769-0.769,0.769
	c-0.425,0-0.771-0.345-0.771-0.77V7.241L12.77,7.24z M15.916,15.292l1.051-2.625h1.421l1.052,2.625H15.916z"/>
</svg>
