<?xml version="1.0"?><svg fill="#000000" xmlns="http://www.w3.org/2000/svg"  viewBox="0 0 16 16" width="16px" height="16px">    <path d="M 3.5 1 A 0.50005 0.50005 0 0 0 3.0527344 1.2773438 L 2.0527344 3.2773438 A 0.50005 0.50005 0 0 0 2 3.5 L 2 13.5 A 0.50005 0.50005 0 0 0 2.5 14 L 10.5 14 A 0.50005 0.50005 0 0 0 10.859375 13.847656 L 12.841797 11.990234 A 0.50005 0.50005 0 0 0 13 11.625 L 13 3.5 A 0.50005 0.50005 0 0 0 12.947266 3.2773438 L 11.953125 1.2871094 A 0.50005 0.50005 0 0 0 11.5 1 L 3.5 1 z M 3.8085938 2 L 10.691406 2 L 10.052734 3.2773438 A 0.50005 0.50005 0 0 0 10 3.5 L 10 13 L 3 13 L 3 3.6171875 L 3.8085938 2 z M 11.5 2.6171875 L 12 3.6171875 L 12 11.408203 L 11 12.345703 L 11 3.6171875 L 11.5 2.6171875 z M 4 3 L 4 4 L 5 4 L 5 3 L 4 3 z M 6 3 L 6 4 L 7 4 L 7 3 L 6 3 z M 8 3 L 8 4 L 9 4 L 9 3 L 8 3 z M 6.5 5.25 C 6.5 5.25 4 7.769 4 9.5 C 4 10.88 5.12 12 6.5 12 C 7.88 12 9 10.88 9 9.5 C 9 7.769 6.5 5.25 6.5 5.25 z M 6.5019531 6.7441406 C 7.2599531 7.6621406 8 8.811 8 9.5 C 8 10.151091 7.5810254 10.701285 7 10.908203 L 7 9.5 A 0.50005 0.50005 0 0 0 6.4921875 8.9921875 A 0.50005 0.50005 0 0 0 6 9.5 L 6 10.908203 C 5.4189746 10.701285 5 10.151091 5 9.5 C 5 8.814 5.7429531 7.6641406 6.5019531 6.7441406 z"/></svg>