<?xml version="1.0" encoding="utf-8"?>
<!-- Generator: Adobe Illustrator 25.4.1, SVG Export Plug-In . SVG Version: 6.00 Build 0)  -->
<svg version="1.1" id="Icons" xmlns="http://www.w3.org/2000/svg" xmlns:xlink="http://www.w3.org/1999/xlink" x="0px" y="0px"
	 viewBox="0 0 24 24" style="enable-background:new 0 0 24 24;" xml:space="preserve">
<g id="Chart-line-2">
	<path d="M9.187,10.697c0,0.552,0.447,1,1,1h3.868c0.553,0,1-0.448,1-1V6.83c0-0.552-0.447-1-1-1s-1,0.448-1,1v1.453L10.652,5.88
		c-0.391-0.391-1.023-0.391-1.414,0s-0.391,1.023,0,1.414l2.403,2.403h-1.454C9.634,9.697,9.187,10.145,9.187,10.697z"/>
	<path d="M18,2.007H6c-2.206,0-4,1.794-4,4v1.474c0,0.552,0.447,1,1,1s1-0.448,1-1V6.007c0-1.103,0.897-2,2-2h12
		c1.103,0,2,0.897,2,2v6.854H4v-1.965c0-0.552-0.447-1-1-1s-1,0.448-1,1v3.595c0,2.206,1.794,4,4,4h2.75v1.502H7.125
		c-0.553,0-1,0.448-1,1s0.447,1,1,1h9.75c0.553,0,1-0.448,1-1s-0.447-1-1-1H15.25v-1.502H18c2.206,0,4-1.794,4-4V6.007
		C22,3.801,20.206,2.007,18,2.007z M13.25,19.993h-2.5v-1.502h2.5V19.993z M18,16.491H6c-0.976,0-1.788-0.704-1.963-1.63h15.925
		C19.788,15.787,18.976,16.491,18,16.491z"/>
</g>
</svg>
