<?xml version="1.0" encoding="utf-8"?>
<!-- Generator: Adobe Illustrator 25.4.1, SVG Export Plug-In . SVG Version: 6.00 Build 0)  -->
<svg version="1.1" id="Icons" xmlns="http://www.w3.org/2000/svg" xmlns:xlink="http://www.w3.org/1999/xlink" x="0px" y="0px"
	 viewBox="0 0 24 24" style="enable-background:new 0 0 24 24;" xml:space="preserve">
<g id="Chart-bar-1">
	<path d="M8.996,10.923V9.206c0-0.552-0.448-1-1-1s-1,0.448-1,1v1.717c0,0.552,0.448,1,1,1S8.996,11.476,8.996,10.923z"/>
	<path d="M13.017,10.923V7.737c0-0.552-0.448-1-1-1s-1,0.448-1,1v3.186c0,0.552,0.448,1,1,1S13.017,11.476,13.017,10.923z"/>
	<path d="M17.004,10.923v-4.85c0-0.552-0.448-1-1-1s-1,0.448-1,1v4.85c0,0.552,0.448,1,1,1S17.004,11.476,17.004,10.923z"/>
	<path d="M18,2.007H6c-2.206,0-4,1.794-4,4v1.474c0,0.552,0.448,1,1,1s1-0.448,1-1V6.007c0-1.103,0.897-2,2-2h12
		c1.103,0,2,0.897,2,2v6.854H4v-1.965c0-0.552-0.448-1-1-1s-1,0.448-1,1v3.595c0,2.206,1.794,4,4,4h2.75v1.502H7.125
		c-0.552,0-1,0.448-1,1s0.448,1,1,1h9.75c0.552,0,1-0.448,1-1s-0.448-1-1-1H15.25v-1.502H18c2.206,0,4-1.794,4-4V6.007
		C22,3.801,20.206,2.007,18,2.007z M13.25,19.993h-2.5v-1.502h2.5V19.993z M18,16.491H6c-0.976,0-1.788-0.704-1.963-1.63h15.925
		C19.788,15.787,18.976,16.491,18,16.491z"/>
</g>
</svg>
