<?xml version="1.0" encoding="utf-8"?>
<!-- Generator: Adobe Illustrator 25.4.1, SVG Export Plug-In . SVG Version: 6.00 Build 0)  -->
<svg version="1.1" id="Icons" xmlns="http://www.w3.org/2000/svg" xmlns:xlink="http://www.w3.org/1999/xlink" x="0px" y="0px"
	 viewBox="0 0 24 24" style="enable-background:new 0 0 24 24;" xml:space="preserve">
<g id="Chart-pie">
	<path d="M11.304,2c-0.553,0-1,0.448-1,1v0.449C8.16,3.677,6.179,4.633,4.647,6.202C4.262,6.597,4.27,7.23,4.665,7.616
		C4.859,7.806,5.111,7.9,5.363,7.9c0.26,0,0.52-0.101,0.716-0.302C7.23,6.419,8.704,5.688,10.304,5.47v7.227c0,0.552,0.447,1,1,1
		h7.226C18.04,17.251,14.99,20,11.304,20C7.276,20,4,16.724,4,12.697c0-0.868,0.159-1.73,0.473-2.564
		C4.668,9.616,4.406,9.039,3.89,8.844C3.371,8.65,2.796,8.911,2.602,9.428C2.202,10.488,2,11.588,2,12.697
		C2,17.827,6.174,22,11.304,22c4.792,0,8.746-3.642,9.247-8.303H21c0.553,0,1-0.448,1-1C22,6.798,17.202,2,11.304,2z M12.304,4.057
		c3.998,0.459,7.18,3.642,7.639,7.64h-7.639V4.057z"/>
</g>
</svg>
