<?xml version="1.0" encoding="utf-8"?>
<!-- Generator: Adobe Illustrator 25.4.1, SVG Export Plug-In . SVG Version: 6.00 Build 0)  -->
<svg version="1.1" id="Icons" xmlns="http://www.w3.org/2000/svg" xmlns:xlink="http://www.w3.org/1999/xlink" x="0px" y="0px"
	 viewBox="0 0 24 24" style="enable-background:new 0 0 24 24;" xml:space="preserve">
<g id="Chat-question">
	<g>
		<g>
			<path d="M12.508,14.37c-0.552,0-1-0.448-1-1v-1.275c0-0.552,0.448-1,1-1c0.898,0,1.629-0.731,1.629-1.629
				s-0.731-1.629-1.629-1.629s-1.629,0.731-1.629,1.629c0,0.552-0.448,1-1,1s-1-0.448-1-1c0-2.001,1.628-3.629,3.629-3.629
				s3.629,1.628,3.629,3.629c0,1.655-1.113,3.054-2.629,3.489v0.415C13.508,13.922,13.06,14.37,12.508,14.37z"/>
		</g>
		<g>
			<path d="M12.507,17.173c-0.55,0-0.997-0.444-1-0.995l-0.001-0.2c-0.003-0.554,0.446-1.005,1-1.005c0.55,0,0.997,0.444,1,0.995
				l0.001,0.2C13.509,16.722,13.061,17.173,12.507,17.173z"/>
		</g>
	</g>
	<g>
		<path d="M3.021,21.979c-0.261,0-0.517-0.103-0.707-0.293c-0.266-0.265-0.36-0.657-0.245-1.014l1.606-4.976
			c-1.46-3.112-1.152-6.746,0.839-9.581c0.317-0.452,0.941-0.561,1.393-0.244s0.561,0.941,0.244,1.393
			c-1.642,2.337-1.838,5.36-0.514,7.888c0.125,0.238,0.148,0.516,0.066,0.771l-1.131,3.503l3.501-1.131
			c0.257-0.082,0.534-0.059,0.771,0.066c2.964,1.552,6.542,1.004,8.905-1.36c1.437-1.436,2.228-3.346,2.228-5.376
			s-0.791-3.94-2.228-5.376c-2.523-2.523-6.396-2.958-9.416-1.059C7.869,5.484,7.251,5.343,6.957,4.875
			C6.663,4.408,6.804,3.79,7.271,3.496c3.816-2.4,8.707-1.849,11.894,1.338c1.814,1.813,2.813,4.225,2.813,6.79
			s-1,4.977-2.813,6.791c-2.885,2.885-7.203,3.627-10.863,1.909L3.329,21.93C3.228,21.963,3.124,21.979,3.021,21.979z"/>
	</g>
</g>
</svg>
