<?xml version="1.0" encoding="utf-8"?>
<!-- Generator: Adobe Illustrator 25.4.1, SVG Export Plug-In . SVG Version: 6.00 Build 0)  -->
<svg version="1.1" id="Icons" xmlns="http://www.w3.org/2000/svg" xmlns:xlink="http://www.w3.org/1999/xlink" x="0px" y="0px"
	 viewBox="0 0 24 24" style="enable-background:new 0 0 24 24;" xml:space="preserve">
<g id="Chat-code">
	<g>
		<g>
			<path d="M10.28,15.191c-0.236,0-0.474-0.083-0.664-0.253L6.729,12.37c-0.214-0.189-0.336-0.461-0.336-0.747
				s0.122-0.558,0.336-0.748l2.889-2.566c0.412-0.367,1.043-0.331,1.412,0.083c0.366,0.413,0.329,1.045-0.084,1.412l-2.048,1.819
				l2.047,1.82c0.413,0.367,0.45,0.999,0.083,1.412C10.83,15.078,10.556,15.191,10.28,15.191z"/>
		</g>
		<g>
			<path d="M14.508,15.189c-0.275,0-0.55-0.113-0.747-0.335c-0.367-0.413-0.33-1.045,0.083-1.412l2.047-1.82l-2.048-1.819
				c-0.413-0.367-0.45-0.999-0.084-1.412c0.367-0.414,1-0.451,1.412-0.083l2.889,2.566c0.214,0.19,0.336,0.462,0.336,0.748
				s-0.122,0.558-0.336,0.747l-2.888,2.568C14.981,15.105,14.744,15.189,14.508,15.189z"/>
		</g>
	</g>
	<g>
		<path d="M3.021,21.979c-0.261,0-0.517-0.103-0.707-0.293c-0.266-0.265-0.36-0.657-0.244-1.014l1.606-4.976
			C2.216,12.583,2.524,8.95,4.516,6.115c0.316-0.452,0.942-0.56,1.394-0.244C6.36,6.188,6.47,6.813,6.152,7.264
			c-1.642,2.337-1.839,5.36-0.514,7.888c0.125,0.238,0.148,0.516,0.065,0.771l-1.131,3.503l3.502-1.131
			c0.256-0.082,0.534-0.059,0.771,0.066c2.96,1.551,6.54,1.004,8.905-1.36c1.437-1.436,2.228-3.346,2.228-5.376
			s-0.791-3.94-2.228-5.376c-2.523-2.522-6.395-2.958-9.416-1.059C7.869,5.484,7.252,5.343,6.957,4.875
			C6.663,4.408,6.804,3.79,7.271,3.496c3.816-2.4,8.706-1.85,11.895,1.338c1.814,1.813,2.813,4.225,2.813,6.79
			s-0.999,4.977-2.813,6.791c-2.884,2.886-7.199,3.63-10.863,1.909L3.329,21.93C3.228,21.963,3.124,21.979,3.021,21.979z"/>
	</g>
</g>
</svg>
