<?xml version="1.0" encoding="utf-8"?>
<!-- Generator: Adobe Illustrator 25.4.1, SVG Export Plug-In . SVG Version: 6.00 Build 0)  -->
<svg version="1.1" id="Icons" xmlns="http://www.w3.org/2000/svg" xmlns:xlink="http://www.w3.org/1999/xlink" x="0px" y="0px"
	 viewBox="0 0 24 24" style="enable-background:new 0 0 24 24;" xml:space="preserve">
<g id="Checkout-euro">
	<path d="M6.987,11.622c0,0.552,0.447,1,1,1h0.894c0.884,1.814,2.741,3.07,4.891,3.07c0.96,0,1.884-0.257,2.747-0.764
		c0.476-0.28,0.635-0.893,0.355-1.369c-0.28-0.477-0.893-0.634-1.369-0.356c-0.551,0.324-1.135,0.488-1.733,0.488
		c-0.977,0-1.856-0.414-2.484-1.07h2.681c0.553,0,1-0.448,1-1s-0.447-1-1-1h-3.603c-0.014-0.124-0.038-0.245-0.038-0.373
		S10.353,10,10.367,9.876h3.603c0.553,0,1-0.448,1-1s-0.447-1-1-1h-2.681c0.627-0.656,1.506-1.07,2.484-1.07
		c0.6,0,1.183,0.164,1.733,0.488c0.477,0.281,1.089,0.121,1.369-0.355c0.279-0.476,0.121-1.089-0.355-1.369
		c-0.862-0.507-1.786-0.764-2.747-0.764c-2.15,0-4.008,1.256-4.891,3.07H7.987c-0.553,0-1,0.448-1,1s0.447,1,1,1h0.361
		C8.339,10,8.329,10.123,8.329,10.249s0.01,0.249,0.019,0.373H7.987C7.435,10.622,6.987,11.07,6.987,11.622z"/>
	<path d="M18,2.007H6c-2.206,0-4,1.794-4,4v1.474c0,0.552,0.447,1,1,1s1-0.448,1-1V6.007c0-1.103,0.897-2,2-2h12
		c1.103,0,2,0.897,2,2v8.484c0,1.103-0.897,2-2,2H6c-1.103,0-2-0.897-2-2v-3.595c0-0.552-0.447-1-1-1s-1,0.448-1,1v3.595
		c0,2.206,1.794,4,4,4h2.75v1.502H7.125c-0.553,0-1,0.448-1,1s0.447,1,1,1h9.75c0.553,0,1-0.448,1-1s-0.447-1-1-1H15.25v-1.502H18
		c2.206,0,4-1.794,4-4V6.007C22,3.801,20.206,2.007,18,2.007z M13.25,19.993h-2.5v-1.502h2.5V19.993z"/>
</g>
</svg>
