<?xml version="1.0" encoding="utf-8"?>
<!-- Generator: Adobe Illustrator 25.4.1, SVG Export Plug-In . SVG Version: 6.00 Build 0)  -->
<svg version="1.1" id="Icons" xmlns="http://www.w3.org/2000/svg" xmlns:xlink="http://www.w3.org/1999/xlink" x="0px" y="0px"
	 viewBox="0 0 24 24" style="enable-background:new 0 0 24 24;" xml:space="preserve">
<g id="Checkout-pound">
	<path d="M8.85,13.285c-0.552,0-1,0.448-1,1s0.448,1,1,1h6.3c0.553,0,1-0.448,1-1s-0.447-1-1-1h-3.749V11.51h1.721
		c0.553,0,1-0.448,1-1c0-0.552-0.447-1-1-1h-1.721V8.788c0-0.869,0.707-1.575,1.575-1.575c0.42,0,0.816,0.164,1.114,0.461
		c0.391,0.392,1.023,0.391,1.414,0.001c0.391-0.39,0.391-1.023,0-1.414c-0.675-0.676-1.572-1.048-2.528-1.048
		c-1.971,0-3.575,1.604-3.575,3.575V9.51H8.85c-0.552,0-1,0.448-1,1c0,0.552,0.448,1,1,1h0.552v1.775H8.85z"/>
	<path d="M18,2.007H6c-2.206,0-4,1.794-4,4v1.474c0,0.552,0.448,1,1,1s1-0.448,1-1V6.007c0-1.103,0.897-2,2-2h12
		c1.103,0,2,0.897,2,2v8.484c0,1.103-0.897,2-2,2H6c-1.103,0-2-0.897-2-2v-3.595c0-0.552-0.448-1-1-1s-1,0.448-1,1v3.595
		c0,2.206,1.794,4,4,4h2.75v1.502H7.125c-0.552,0-1,0.448-1,1s0.448,1,1,1h9.75c0.553,0,1-0.448,1-1s-0.447-1-1-1H15.25v-1.502H18
		c2.206,0,4-1.794,4-4V6.007C22,3.801,20.206,2.007,18,2.007z M13.25,19.993h-2.5v-1.502h2.5V19.993z"/>
</g>
</svg>
