<?xml version="1.0" encoding="utf-8"?>
<!-- Generator: Adobe Illustrator 16.0.0, SVG Export Plug-In . SVG Version: 6.00 Build 0)  -->
<!DOCTYPE svg PUBLIC "-//W3C//DTD SVG 1.1//EN" "http://www.w3.org/Graphics/SVG/1.1/DTD/svg11.dtd">
<svg version="1.1" id="Icons" xmlns="http://www.w3.org/2000/svg" xmlns:xlink="http://www.w3.org/1999/xlink" x="0px" y="0px"
	 width="24px" height="24px" viewBox="0 0 24 24" enable-background="new 0 0 24 24" xml:space="preserve">
<path id="Check" d="M2.451,13.41l6.371,6.37c0,0,0.63,0.613,1.414,0L21.549,8.467c0.391-0.391,0.391-1.023,0-1.414l-2.832-2.833
	c-0.375-0.375-1.039-0.375-1.414,0L16.09,5.435c-0.391,0.391-0.391,1.024,0,1.415c0.391,0.39,1.023,0.39,1.414,0l0.506-0.506
	l1.418,1.418l-9.898,9.898L8.111,16.24l6.98-6.979c0.391-0.39,0.391-1.023,0-1.414s-1.023-0.391-1.414,0l-4.149,4.148L6.697,9.165
	c-0.391-0.391-1.023-0.39-1.414,0l-2.832,2.831C2.451,11.995,1.777,12.549,2.451,13.41z M5.99,11.286l2.124,2.124l-1.418,1.417
	l-2.124-2.125L5.99,11.286z"/>
</svg>
