<?xml version="1.0" encoding="utf-8"?>
<!-- Generator: Adobe Illustrator 25.4.1, SVG Export Plug-In . SVG Version: 6.00 Build 0)  -->
<svg version="1.1" id="Icons" xmlns="http://www.w3.org/2000/svg" xmlns:xlink="http://www.w3.org/1999/xlink" x="0px" y="0px"
	 viewBox="0 0 24 24" style="enable-background:new 0 0 24 24;" xml:space="preserve">
<g id="Cheese">
	<g>
		<path d="M13.557,12.181c-1.957,0-3.549-1.592-3.549-3.549s1.592-3.549,3.549-3.549s3.549,1.592,3.549,3.549
			S15.514,12.181,13.557,12.181z M13.557,7.083c-0.854,0-1.549,0.695-1.549,1.549c0,0.854,0.695,1.549,1.549,1.549
			c0.854,0,1.549-0.695,1.549-1.549C15.106,7.778,14.411,7.083,13.557,7.083z"/>
	</g>
	<g>
		<path d="M9.304,17.417c-1.491,0-2.704-1.213-2.704-2.704c0-1.491,1.213-2.704,2.704-2.704s2.704,1.213,2.704,2.704
			C12.008,16.205,10.795,17.417,9.304,17.417z M9.304,14.01c-0.388,0-0.704,0.316-0.704,0.704s0.315,0.704,0.704,0.704
			s0.704-0.315,0.704-0.704S9.692,14.01,9.304,14.01z"/>
	</g>
	<g>
		<path d="M21,22h-4.973c-0.552,0-1-0.448-1-1c0-0.869-0.708-1.576-1.577-1.576S11.874,20.131,11.874,21c0,0.552-0.448,1-1,1H2.997
			c-0.552,0-1-0.448-1-1v-2.487c0-0.552,0.448-1,1-1s1,0.448,1,1V20h6.02c0.434-1.487,1.809-2.576,3.434-2.576s3,1.089,3.435,2.576
			H20v-4.866c-1.487-0.434-2.576-1.809-2.576-3.434s1.089-3,2.576-3.434v-4.27H3.997v2.308c1.489,0.433,2.58,1.809,2.58,3.435
			s-1.091,3.003-2.58,3.436v1.928c0,0.552-0.448,1-1,1s-1-0.448-1-1v-2.787c0-0.552,0.451-1,1.003-1
			c0.869,0,1.576-0.708,1.576-1.577S3.869,8.163,3,8.163c-0.552,0-1.003-0.447-1.003-1V2.997c0-0.552,0.448-1,1-1H21
			c0.552,0,1,0.448,1,1v6.127c0,0.552-0.448,1-1,1c-0.869,0-1.576,0.707-1.576,1.576s0.707,1.576,1.576,1.576c0.552,0,1,0.448,1,1
			V21C22,21.552,21.552,22,21,22z"/>
	</g>
</g>
</svg>
