<?xml version="1.0" encoding="utf-8"?>
<!-- Generator: Adobe Illustrator 25.4.1, SVG Export Plug-In . SVG Version: 6.00 Build 0)  -->
<svg version="1.1" id="Icons" xmlns="http://www.w3.org/2000/svg" xmlns:xlink="http://www.w3.org/1999/xlink" x="0px" y="0px"
	 viewBox="0 0 24 24" style="enable-background:new 0 0 24 24;" xml:space="preserve">
<g id="Chef-hat">
	<path d="M17.771,4.982c-0.37,0-0.736,0.049-1.092,0.146C15.895,3.283,14.084,2.04,12,2.04S8.105,3.283,7.32,5.127
		C6.965,5.031,6.598,4.982,6.229,4.982c-2.345,0-4.253,1.908-4.253,4.253c0,2.001,1.389,3.684,3.253,4.134L5.234,21
		c0,0.552,0.448,1,1,1h11.535c0.552,0,1-0.447,1-1l0.002-7.631c1.864-0.451,3.253-2.133,3.253-4.134
		C22.024,6.89,20.117,4.982,17.771,4.982z M17.771,11.488c-0.552,0-1,0.447-1,1l-0.001,3.512l-4.221,0c-0.552,0-1,0.448-1,1
		s0.448,1,1,1l4.22,0L16.769,20H7.233l-0.001-2.001H9.14c0.552,0,1-0.448,1-1s-0.448-1-1-1H7.231l-0.002-3.511c0-0.552-0.448-1-1-1
		c-1.242,0-2.253-1.011-2.253-2.253s1.011-2.253,2.253-2.253c0.418,0,0.833,0.122,1.198,0.354c0.285,0.18,0.64,0.205,0.946,0.066
		c0.306-0.138,0.522-0.421,0.576-0.752C9.192,5.137,10.476,4.04,12,4.04s2.808,1.098,3.052,2.61c0.054,0.332,0.27,0.614,0.576,0.752
		c0.308,0.139,0.662,0.113,0.946-0.066c0.365-0.231,0.78-0.354,1.198-0.354c1.242,0,2.253,1.011,2.253,2.253
		S19.014,11.488,17.771,11.488z"/>
</g>
</svg>
