<?xml version="1.0" encoding="utf-8"?>
<!-- Generator: Adobe Illustrator 25.4.1, SVG Export Plug-In . SVG Version: 6.00 Build 0)  -->
<svg version="1.1" id="Icons" xmlns="http://www.w3.org/2000/svg" xmlns:xlink="http://www.w3.org/1999/xlink" x="0px" y="0px"
	 viewBox="0 0 24 24" style="enable-background:new 0 0 24 24;" xml:space="preserve">
<g id="Chicken-leg">
	<path d="M13.386,8.714c0.302,0,0.601-0.136,0.798-0.396c0.417-0.549,0.977-0.958,1.537-1.12c0.267-0.077,0.773-0.165,1.158,0.126
		c0.44,0.335,1.067,0.248,1.401-0.193c0.333-0.44,0.248-1.067-0.193-1.401c-0.788-0.598-1.853-0.764-2.922-0.454
		c-0.979,0.283-1.893,0.934-2.574,1.833c-0.333,0.44-0.248,1.067,0.193,1.401C12.964,8.648,13.176,8.714,13.386,8.714z"/>
	<path d="M15.482,15.969c2.401-1.012,4.086-2.72,4.086-2.72c2.899-2.899,3.28-7.235,0.85-9.666
		c-1.678-1.677-4.297-2.077-6.833-1.043c-0.512,0.208-0.757,0.792-0.549,1.303c0.208,0.511,0.791,0.756,1.303,0.549
		c1.779-0.726,3.567-0.494,4.666,0.605c1.65,1.651,1.27,4.719-0.85,6.838c-2.347,2.346-7.229,4.127-8.674,2.685
		c-1.38-1.38,0.23-5.98,2.439-8.406c0.372-0.408,0.342-1.041-0.066-1.413c-0.41-0.373-1.042-0.342-1.413,0.066
		c-1.906,2.093-3.592,5.7-3.438,8.479l-1.015,1.015c-1.054-0.417-2.299-0.195-3.133,0.639c-1.137,1.137-1.137,2.987,0,4.124
		c0.38,0.38,0.849,0.64,1.357,0.764c0.124,0.509,0.384,0.978,0.764,1.357c0.568,0.568,1.315,0.853,2.062,0.853
		c0.747,0,1.493-0.284,2.062-0.853c0.834-0.834,1.055-2.08,0.639-3.134l1.017-1.017C12.855,17.16,15.482,15.969,15.482,15.969z
		 M7.728,18.496c0.313,0.367,0.294,0.898-0.042,1.236c-0.357,0.357-0.938,0.357-1.295,0c-0.195-0.195-0.288-0.471-0.253-0.757
		c0.036-0.305-0.069-0.608-0.286-0.825c-0.216-0.216-0.518-0.321-0.825-0.286c-0.286,0.037-0.562-0.059-0.757-0.253
		c-0.357-0.357-0.357-0.938,0-1.295c0.336-0.337,0.867-0.355,1.235-0.042c0.396,0.337,0.987,0.314,1.355-0.054l0.792-0.792
		c0.12,0.181,0.258,0.351,0.415,0.508c0.157,0.157,0.336,0.284,0.518,0.405l-0.802,0.802C7.413,17.509,7.39,18.099,7.728,18.496z"/>
</g>
</svg>
