<?xml version="1.0" encoding="utf-8"?>
<!-- Generator: Adobe Illustrator 26.3.1, SVG Export Plug-In . SVG Version: 6.00 Build 0)  -->
<svg version="1.1" id="Icons" xmlns="http://www.w3.org/2000/svg" xmlns:xlink="http://www.w3.org/1999/xlink" x="0px" y="0px"
	 viewBox="0 0 24 24" style="enable-background:new 0 0 24 24;" xml:space="preserve">
<g id="Church">
	<path d="M21.496,16.153l-2.997-1.713l0-1.751l0.049,0.033c0.171,0.114,0.364,0.169,0.555,0.169c0.323,0,0.639-0.156,0.832-0.444
		c0.307-0.459,0.184-1.08-0.275-1.387L13,6.603v-1.11h0.656c0.552,0,1-0.448,1-1s-0.448-1-1-1H13V3c0-0.552-0.448-1-1-1
		s-1,0.448-1,1v0.493h-0.656c-0.552,0-1,0.448-1,1s0.448,1,1,1H11V6.6L9.817,7.392C9.358,7.699,9.235,8.32,9.542,8.779
		c0.307,0.458,0.927,0.583,1.387,0.275l1.068-0.715l4.5,3.012l0.002,8.67h-1.389v-2.338c0-1.753-1.396-3.179-3.111-3.179
		s-3.111,1.426-3.111,3.179v2.338H7.5l-0.002-8.67l0.593-0.397c0.459-0.308,0.582-0.929,0.275-1.387
		C8.058,9.108,7.437,8.985,6.979,9.292l-2.642,1.769c-0.459,0.308-0.582,0.929-0.275,1.387c0.193,0.288,0.509,0.444,0.832,0.444
		c0.191,0,0.385-0.055,0.555-0.169l0.05-0.033l0,1.752l-2.995,1.711C2.192,16.331,2,16.663,2,17.021v3.999c0,0.552,0.448,1,1,1h18
		c0.552,0,1-0.448,1-1v-3.999C22,16.663,21.808,16.331,21.496,16.153z M10.889,17.682c0-0.65,0.499-1.179,1.111-1.179
		s1.111,0.529,1.111,1.179v2.338h-2.222V17.682z M4,17.602l1.499-0.857L5.5,20.021H4V17.602z M20,20.021h-1.5l-0.001-3.276
		L20,17.602V20.021z"/>
	<path d="M10.523,13.323h2.953c0.552,0,1-0.448,1-1s-0.448-1-1-1h-2.953c-0.552,0-1,0.448-1,1S9.971,13.323,10.523,13.323z"/>
</g>
</svg>
