<?xml version="1.0" encoding="utf-8"?>
<!-- Generator: Adobe Illustrator 26.3.1, SVG Export Plug-In . SVG Version: 6.00 Build 0)  -->
<svg version="1.1" id="Icons" xmlns="http://www.w3.org/2000/svg" xmlns:xlink="http://www.w3.org/1999/xlink" x="0px" y="0px"
	 viewBox="0 0 24 24" style="enable-background:new 0 0 24 24;" xml:space="preserve">
<g id="Cinema">
	<path d="M10.118,16.091c0.202,0,0.403-0.061,0.575-0.182l4.425-3.108c0.267-0.188,0.426-0.494,0.425-0.821s-0.161-0.632-0.43-0.819
		l-4.425-3.074c-0.306-0.212-0.702-0.236-1.034-0.065C9.325,8.195,9.118,8.537,9.118,8.909v6.182c0,0.373,0.208,0.715,0.539,0.887
		C9.802,16.054,9.96,16.091,10.118,16.091z M11.118,10.821l1.679,1.166l-1.679,1.179V10.821z"/>
	<path d="M5.651,7.575h0.953c0.553,0,1-0.448,1-1s-0.447-1-1-1H5.651c-0.553,0-1,0.448-1,1S5.099,7.575,5.651,7.575z"/>
	<path d="M5.651,11.191h0.953c0.553,0,1-0.448,1-1s-0.447-1-1-1H5.651c-0.553,0-1,0.448-1,1S5.099,11.191,5.651,11.191z"/>
	<path d="M5.651,14.809h0.953c0.553,0,1-0.448,1-1s-0.447-1-1-1H5.651c-0.553,0-1,0.448-1,1S5.099,14.809,5.651,14.809z"/>
	<path d="M5.651,18.425h0.953c0.553,0,1-0.448,1-1s-0.447-1-1-1H5.651c-0.553,0-1,0.448-1,1S5.099,18.425,5.651,18.425z"/>
	<path d="M17.396,7.573h0.953c0.553,0,1-0.448,1-1s-0.447-1-1-1h-0.953c-0.553,0-1,0.448-1,1S16.843,7.573,17.396,7.573z"/>
	<path d="M17.396,11.19h0.953c0.553,0,1-0.448,1-1s-0.447-1-1-1h-0.953c-0.553,0-1,0.448-1,1S16.843,11.19,17.396,11.19z"/>
	<path d="M17.396,14.807h0.953c0.553,0,1-0.448,1-1s-0.447-1-1-1h-0.953c-0.553,0-1,0.448-1,1S16.843,14.807,17.396,14.807z"/>
	<path d="M17.396,18.423h0.953c0.553,0,1-0.448,1-1s-0.447-1-1-1h-0.953c-0.553,0-1,0.448-1,1S16.843,18.423,17.396,18.423z"/>
	<path d="M18,2H6C3.794,2,2,3.794,2,6v1.925c0,0.552,0.447,1,1,1s1-0.448,1-1V6c0-1.103,0.897-2,2-2h12c1.103,0,2,0.897,2,2v12
		c0,1.103-0.897,2-2,2H6c-1.103,0-2-0.897-2-2v-6.66c0-0.552-0.447-1-1-1s-1,0.448-1,1V18c0,2.206,1.794,4,4,4h12
		c2.206,0,4-1.794,4-4V6C22,3.794,20.206,2,18,2z"/>
</g>
</svg>
