<?xml version="1.0" encoding="utf-8"?>
<!-- Generator: Adobe Illustrator 25.4.1, SVG Export Plug-In . SVG Version: 6.00 Build 0)  -->
<svg version="1.1" id="Icons" xmlns="http://www.w3.org/2000/svg" xmlns:xlink="http://www.w3.org/1999/xlink" x="0px" y="0px"
	 viewBox="0 0 24 24" style="enable-background:new 0 0 24 24;" xml:space="preserve">
<g id="Circle-lock">
	<path d="M12,5.645c-1.872,0-3.396,1.536-3.396,3.422l-0.001,1.51h-0.29c-0.266,0-0.52,0.105-0.707,0.293s-0.293,0.442-0.293,0.708
		l0.002,4.417c0,0.552,0.448,1,1,1h7.369c0.266,0,0.52-0.105,0.707-0.293s0.293-0.442,0.293-0.708l-0.002-4.417c0-0.552-0.448-1-1-1
		h-0.289l0.001-1.51C15.395,7.18,13.872,5.645,12,5.645z M10.604,9.067c0-0.785,0.626-1.423,1.396-1.423
		c0.769,0,1.395,0.638,1.395,1.422l-0.001,1.51h-2.79L10.604,9.067z M9.315,14.994l-0.002-2.417h5.369l0.002,2.417H9.315z"/>
	<path d="M12,2C9.203,2,6.513,3.192,4.617,5.271C4.245,5.679,4.274,6.311,4.683,6.683c0.406,0.371,1.039,0.343,1.413-0.065
		C7.612,4.954,9.765,4,12,4c4.411,0,8,3.589,8,8s-3.589,8-8,8s-8-3.589-8-8c0-0.945,0.173-1.886,0.514-2.796
		c0.193-0.517-0.068-1.093-0.586-1.287C3.411,7.722,2.835,7.986,2.641,8.503C2.216,9.638,2,10.814,2,12c0,5.514,4.486,10,10,10
		s10-4.486,10-10S17.514,2,12,2z"/>
</g>
</svg>
