<?xml version="1.0" encoding="utf-8"?>
<!-- Generator: Adobe Illustrator 25.4.1, SVG Export Plug-In . SVG Version: 6.00 Build 0)  -->
<svg version="1.1" id="Icons" xmlns="http://www.w3.org/2000/svg" xmlns:xlink="http://www.w3.org/1999/xlink" x="0px" y="0px"
	 viewBox="0 0 24 24" style="enable-background:new 0 0 24 24;" xml:space="preserve">
<g id="Circle-login">
	<path d="M12,2C9.204,2,6.513,3.192,4.617,5.271C4.245,5.679,4.274,6.311,4.682,6.683c0.409,0.374,1.042,0.344,1.413-0.065
		C7.612,4.954,9.765,4,12,4c4.411,0,8,3.589,8,8s-3.589,8-8,8c-4.072,0-7.436-3.06-7.931-7h8.52l-1.669,1.672
		c-0.39,0.391-0.389,1.024,0.001,1.415c0.195,0.195,0.451,0.292,0.707,0.292c0.256,0,0.513-0.098,0.708-0.293l3.371-3.378
		c0.39-0.391,0.389-1.023-0.001-1.414l-3.379-3.378c-0.391-0.391-1.023-0.391-1.414,0s-0.391,1.024,0,1.414L12.585,11H4.073
		c0.079-0.607,0.221-1.208,0.441-1.796C4.707,8.687,4.444,8.11,3.927,7.917C3.411,7.724,2.834,7.986,2.64,8.503
		C2.215,9.639,2,10.815,2,12c0,5.514,4.486,10,10,10s10-4.486,10-10S17.514,2,12,2z"/>
</g>
</svg>
