<?xml version="1.0" encoding="utf-8"?>
<!-- Generator: Adobe Illustrator 25.4.1, SVG Export Plug-In . SVG Version: 6.00 Build 0)  -->
<svg version="1.1" id="Icons" xmlns="http://www.w3.org/2000/svg" xmlns:xlink="http://www.w3.org/1999/xlink" x="0px" y="0px"
	 viewBox="0 0 24 24" style="enable-background:new 0 0 24 24;" xml:space="preserve">
<g id="Circle-logout">
	<path d="M12,2C9.203,2,6.513,3.192,4.617,5.271C4.245,5.679,4.274,6.311,4.683,6.683c0.406,0.371,1.039,0.343,1.413-0.065
		C7.612,4.954,9.765,4,12,4c4.072,0,7.436,3.06,7.931,7h-8.516l1.672-1.671c0.391-0.39,0.391-1.023,0-1.414s-1.023-0.391-1.414,0
		l-3.379,3.378c-0.391,0.39-0.391,1.022-0.001,1.414l3.371,3.378c0.195,0.195,0.452,0.293,0.708,0.293s0.511-0.097,0.706-0.292
		c0.392-0.39,0.392-1.023,0.002-1.415L11.41,13h8.52c-0.495,3.94-3.859,7-7.931,7c-4.411,0-8-3.589-8-8
		c0-0.945,0.173-1.886,0.514-2.796c0.193-0.517-0.068-1.093-0.586-1.287C3.411,7.722,2.835,7.986,2.641,8.503
		C2.216,9.638,2,10.814,2,12c0,5.514,4.486,10,10,10s10-4.486,10-10S17.514,2,12,2z"/>
</g>
</svg>
