<?xml version="1.0" encoding="utf-8"?>
<!-- Generator: Adobe Illustrator 25.4.1, SVG Export Plug-In . SVG Version: 6.00 Build 0)  -->
<svg version="1.1" id="Icons" xmlns="http://www.w3.org/2000/svg" xmlns:xlink="http://www.w3.org/1999/xlink" x="0px" y="0px"
	 viewBox="0 0 24 24" style="enable-background:new 0 0 24 24;" xml:space="preserve">
<g id="Circle-code">
	<g>
		<g>
			<path d="M9.66,15.843c-0.236,0-0.474-0.083-0.664-0.252l-3.197-2.842C5.585,12.558,5.463,12.286,5.463,12
				s0.122-0.558,0.336-0.748l3.197-2.841c0.413-0.367,1.045-0.33,1.412,0.083c0.367,0.413,0.33,1.045-0.083,1.412L7.969,12
				l2.356,2.095c0.413,0.367,0.45,1,0.083,1.412C10.21,15.729,9.936,15.843,9.66,15.843z"/>
		</g>
		<g>
			<path d="M14.34,15.841c-0.276,0-0.55-0.113-0.748-0.335c-0.367-0.413-0.33-1.045,0.083-1.412l2.356-2.095l-2.356-2.094
				c-0.413-0.367-0.45-0.999-0.083-1.412c0.367-0.413,0.999-0.451,1.412-0.083l3.197,2.841c0.214,0.19,0.336,0.462,0.336,0.748
				s-0.122,0.558-0.335,0.748l-3.197,2.842C14.814,15.757,14.577,15.841,14.34,15.841z"/>
		</g>
	</g>
	<g>
		<path d="M12,22C6.486,22,2,17.514,2,12c0-1.185,0.215-2.361,0.64-3.497c0.194-0.517,0.771-0.78,1.287-0.586
			c0.518,0.193,0.78,0.77,0.586,1.287C4.173,10.114,4,11.055,4,12c0,4.411,3.589,8,8,8s8-3.589,8-8s-3.589-8-8-8
			C9.765,4,7.612,4.954,6.095,6.618C5.724,7.026,5.091,7.056,4.682,6.683C4.274,6.311,4.245,5.679,4.617,5.271
			C6.513,3.192,9.204,2,12,2c5.514,0,10,4.486,10,10S17.514,22,12,22z"/>
	</g>
</g>
</svg>
