<?xml version="1.0" encoding="utf-8"?>
<!-- Generator: Adobe Illustrator 26.3.1, SVG Export Plug-In . SVG Version: 6.00 Build 0)  -->
<svg version="1.1" id="Icons" xmlns="http://www.w3.org/2000/svg" xmlns:xlink="http://www.w3.org/1999/xlink" x="0px" y="0px"
	 viewBox="0 0 24 24" style="enable-background:new 0 0 24 24;" xml:space="preserve">
<g id="City-Building">
	<path d="M20.988,20.019l-0.796-0.001V8.916c0-0.552-0.447-1-1-1h-1.992c0-1.545-0.003-4.801-0.001-4.933
		c0.04-0.407-0.4-1.008-0.947-1.001C16.201,1.977,5.121,1.986,4.843,1.982C4.536,1.918,3.81,2.36,3.841,2.928
		c-0.008,0.079,0.005,4.69-0.002,4.877c-0.038,0.435,0.428,1.035,1,1.002c0.552,0,1-0.448,1-1L5.84,3.981h9.359L15.2,7.916h-3.14
		c-0.553,0-1,0.448-1,1v11.095l-5.225-0.004l0.003-8.784c0-0.552-0.447-1-1-1c-0.534,0-0.971,0.419-0.999,0.947
		c-0.004,0.042-0.003,6.848-0.004,8.837l-0.821-0.001H3.013c-0.552,0-1,0.447-1,0.999c0,0.553,0.447,1,0.999,1.001l17.975,0.014
		h0.001c0.552,0,1-0.447,1-0.999C21.987,20.467,21.54,20.019,20.988,20.019z M18.192,20.016l-5.133-0.004V9.916h5.133V20.016z"/>
	<path d="M15.032,13.003h1.188c0.553,0,1-0.448,1-1s-0.447-1-1-1h-1.188c-0.553,0-1,0.448-1,1S14.479,13.003,15.032,13.003z"/>
	<path d="M15.032,16.114h1.188c0.553,0,1-0.448,1-1s-0.447-1-1-1h-1.188c-0.553,0-1,0.448-1,1S14.479,16.114,15.032,16.114z"/>
	<path d="M15.032,19.225h1.188c0.553,0,1-0.448,1-1s-0.447-1-1-1h-1.188c-0.553,0-1,0.448-1,1S14.479,19.225,15.032,19.225z"/>
	<path d="M8.032,13.003H9.22c0.553,0,1-0.448,1-1s-0.447-1-1-1H8.032c-0.553,0-1,0.448-1,1S7.479,13.003,8.032,13.003z"/>
	<path d="M8.032,16.114H9.22c0.553,0,1-0.448,1-1s-0.447-1-1-1H8.032c-0.553,0-1,0.448-1,1S7.479,16.114,8.032,16.114z"/>
	<path d="M8.032,19.225H9.22c0.553,0,1-0.448,1-1s-0.447-1-1-1H8.032c-0.553,0-1,0.448-1,1S7.479,19.225,8.032,19.225z"/>
	<path d="M8.032,9.893H9.22c0.553,0,1-0.448,1-1s-0.447-1-1-1H8.032c-0.553,0-1,0.448-1,1S7.479,9.893,8.032,9.893z"/>
	<path d="M8.032,6.781H9.22c0.553,0,1-0.448,1-1s-0.447-1-1-1H8.032c-0.553,0-1,0.448-1,1S7.479,6.781,8.032,6.781z"/>
	<path d="M12.032,6.781h1.188c0.553,0,1-0.448,1-1s-0.447-1-1-1h-1.188c-0.553,0-1,0.448-1,1S11.479,6.781,12.032,6.781z"/>
</g>
</svg>
