<?xml version="1.0" encoding="utf-8"?>
<!-- Generator: Adobe Illustrator 26.3.1, SVG Export Plug-In . SVG Version: 6.00 Build 0)  -->
<svg version="1.1" id="Icons" xmlns="http://www.w3.org/2000/svg" xmlns:xlink="http://www.w3.org/1999/xlink" x="0px" y="0px"
	 viewBox="0 0 24 24" style="enable-background:new 0 0 24 24;" xml:space="preserve">
<g id="City">
	<path d="M10.465,9.806h0.782c0.552,0,1-0.448,1-1s-0.448-1-1-1h-0.782c-0.552,0-1,0.448-1,1S9.913,9.806,10.465,9.806z"/>
	<path d="M10.465,12.917h0.782c0.552,0,1-0.448,1-1s-0.448-1-1-1h-0.782c-0.552,0-1,0.448-1,1S9.913,12.917,10.465,12.917z"/>
	<path d="M10.465,16.028h0.782c0.552,0,1-0.448,1-1s-0.448-1-1-1h-0.782c-0.552,0-1,0.448-1,1S9.913,16.028,10.465,16.028z"/>
	<path d="M10.465,19.139h0.782c0.552,0,1-0.448,1-1s-0.448-1-1-1h-0.782c-0.552,0-1,0.448-1,1S9.913,19.139,10.465,19.139z"/>
	<path d="M6.597,9.806h0.782c0.552,0,1-0.448,1-1s-0.448-1-1-1H6.597c-0.552,0-1,0.448-1,1S6.044,9.806,6.597,9.806z"/>
	<path d="M6.597,12.917h0.782c0.552,0,1-0.448,1-1s-0.448-1-1-1H6.597c-0.552,0-1,0.448-1,1S6.044,12.917,6.597,12.917z"/>
	<path d="M6.597,16.028h0.782c0.552,0,1-0.448,1-1s-0.448-1-1-1H6.597c-0.552,0-1,0.448-1,1S6.044,16.028,6.597,16.028z"/>
	<path d="M6.597,19.139h0.782c0.552,0,1-0.448,1-1s-0.448-1-1-1H6.597c-0.552,0-1,0.448-1,1S6.044,19.139,6.597,19.139z"/>
	<path d="M17.465,12.917h0.782c0.552,0,1-0.448,1-1s-0.448-1-1-1h-0.782c-0.552,0-1,0.448-1,1S16.913,12.917,17.465,12.917z"/>
	<path d="M17.465,16.028h0.782c0.552,0,1-0.448,1-1s-0.448-1-1-1h-0.782c-0.552,0-1,0.448-1,1S16.913,16.028,17.465,16.028z"/>
	<path d="M18.247,17.139h-0.782c-0.552,0-1,0.448-1,1s0.448,1,1,1h0.782c0.552,0,1-0.448,1-1S18.799,17.139,18.247,17.139z"/>
	<path d="M21.759,8.283c-0.188-0.188-0.442-0.294-0.708-0.294h-5.449V5.921c0-0.552-0.448-1-1-1H13.62l0.003-1.913
		c0-0.265-0.105-0.52-0.292-0.708s-0.442-0.293-0.708-0.293H5.221c-0.552,0-0.999,0.447-1,0.999L4.218,4.921H3.242
		c-0.552,0-1,0.448-1,1v3.867c0,0.552,0.448,1,1,1s1-0.448,1-1V6.921h9.359v13.103l-9.359,0v-6.821c0-0.552-0.448-1-1-1
		s-1,0.448-1,1v7.821c0,0.265,0.105,0.52,0.293,0.707s0.442,0.293,0.707,0.293l17.758,0c0.551,0,0.998-0.445,1-0.996l0.051-12.036
		C22.052,8.727,21.947,8.471,21.759,8.283z M6.22,4.007h5.401L11.62,4.921H6.218L6.22,4.007z M20.004,20.024l-4.403,0V9.988h4.445
		L20.004,20.024z"/>
</g>
</svg>
