<?xml version="1.0" encoding="utf-8"?>
<!-- Generator: Adobe Illustrator 26.3.1, SVG Export Plug-In . SVG Version: 6.00 Build 0)  -->
<svg version="1.1" id="Icons" xmlns="http://www.w3.org/2000/svg" xmlns:xlink="http://www.w3.org/1999/xlink" x="0px" y="0px"
	 viewBox="0 0 24 24" style="enable-background:new 0 0 24 24;" xml:space="preserve">
<g id="City-Hall">
	<path d="M21,8.997h-0.998l0.006-2.553c0.001-0.266-0.104-0.521-0.292-0.708c-0.188-0.188-0.442-0.294-0.708-0.294H13V4.003h1.441
		c0.553,0,1-0.448,1-1s-0.447-1-1-1H12c-0.553,0-1,0.448-1,1v2.438H4.992c-0.552,0-0.999,0.446-1,0.998L3.986,8.997H3
		c-0.553,0-1,0.448-1,1v3.427c0,0.552,0.447,1,1,1s1-0.448,1-1v-2.427h16v9h-1.415l0.001-4.121c0-1.685-1.342-3.055-2.99-3.055
		c-1.649,0-2.991,1.371-2.991,3.055l-0.001,4.121h-1.208l0.001-4.121c0-1.685-1.342-3.055-2.99-3.055
		c-1.649,0-2.991,1.371-2.991,3.055l-0.001,4.121H4v-3.158c0-0.552-0.447-1-1-1s-1,0.448-1,1v4.158c0,0.552,0.447,1,1,1h18
		c0.553,0,1-0.448,1-1v-11C22,9.444,21.553,8.997,21,8.997z M14.604,15.876c0-0.582,0.444-1.055,0.991-1.055
		c0.546,0,0.99,0.473,0.99,1.055l-0.001,4.121h-1.981L14.604,15.876z M7.415,15.876c0-0.582,0.444-1.055,0.991-1.055
		c0.546,0,0.99,0.473,0.99,1.055l-0.001,4.121H7.414L7.415,15.876z M5.99,7.441h12.016l-0.004,1.556H5.986L5.99,7.441z"/>
</g>
</svg>
