<svg fill="#000000" xmlns="http://www.w3.org/2000/svg"  viewBox="0 0 16 16" width="16px" height="16px"><path d="M 7.5 2 C 6.6774686 2 6 2.6774686 6 3.5 A 0.50005 0.50005 0 1 0 7 3.5 C 7 3.2185314 7.2185314 3 7.5 3 C 7.7814686 3 8 3.2185314 8 3.5 C 8 3.6619916 7.9274638 3.7968012 7.8125 3.8886719 A 0.50005 0.50005 0 0 0 7.8125 3.890625 C 7.375545 4.2414059 7 4.7667242 7 5.4199219 L 7 5.7070312 L 0.47851562 9.1582031 A 0.50005 0.50005 0 0 0 0.4140625 9.1992188 C 0.05161625 9.4703473 -0.058906215 9.9463284 0.064453125 10.316406 C 0.18781248 10.686484 0.56111363 11 1.0136719 11 L 2 11 L 2 10 L 1.0253906 10 L 7.5 6.5761719 L 13.957031 10 L 13 10 L 13 11 L 13.96875 11 C 14.421308 11 14.794893 10.686368 14.917969 10.316406 C 15.041045 9.946445 14.930189 9.4705938 14.568359 9.1992188 A 0.50005 0.50005 0 0 0 14.503906 9.1582031 L 8 5.7070312 L 8 5.4199219 C 8 5.1491196 8.154455 4.8971441 8.4375 4.6699219 C 8.7805362 4.3957925 9 3.9700084 9 3.5 C 9 2.6774686 8.3225314 2 7.5 2 z M 3.5 10 A 0.50005 0.50005 0 0 0 3 10.5 L 3 13.5 A 0.50005 0.50005 0 0 0 3.5 14 L 11.5 14 A 0.50005 0.50005 0 0 0 12 13.5 L 12 10.5 A 0.50005 0.50005 0 0 0 11.5 10 L 3.5 10 z M 4 11 L 11 11 L 11 13 L 4 13 L 4 11 z"/></svg>