<?xml version="1.0" encoding="utf-8"?>
<!-- Generator: Adobe Illustrator 16.0.0, SVG Export Plug-In . SVG Version: 6.00 Build 0)  -->
<!DOCTYPE svg PUBLIC "-//W3C//DTD SVG 1.0//EN" "http://www.w3.org/TR/2001/REC-SVG-20010904/DTD/svg10.dtd">
<svg version="1.0" id="Layer_1" xmlns="http://www.w3.org/2000/svg" xmlns:xlink="http://www.w3.org/1999/xlink" x="0px" y="0px"
	 width="100px" height="100px" viewBox="0 0 100 100" enable-background="new 0 0 100 100" xml:space="preserve">
<path d="M70,53.333v-6.666H53.333v-10h-6.666V50c0,1.843,1.49,3.333,3.333,3.333H70z"/>
<path d="M78.957,23.334h-32.29v-6.667H40v6.667h-6.666v-6.667h-6.667v6.667h-5.618C6.32,38.054,6.316,61.943,21.042,76.665h5.625
	v6.667h6.667v-6.667h33.333v6.667h6.666v-6.667h5.614C93.681,61.946,93.684,38.057,78.957,23.334z M76.03,70H53.333v-6.667h-6.666
	V70H23.959c-4.004-4.743-6.445-10.508-7.097-16.667h6.472v-6.666h-6.472c0.654-6.159,3.096-11.926,7.103-16.667H76.04
	c4.004,4.74,6.445,10.507,7.097,16.667h-6.472v6.666h6.472C82.482,59.492,80.041,65.26,76.03,70z"/>
<circle cx="30.001" cy="63.333" r="3.333"/>
<circle cx="30.001" cy="36.667" r="3.333"/>
<circle cx="69.997" cy="63.333" r="3.333"/>
<circle cx="69.997" cy="36.667" r="3.333"/>
</svg>
