<?xml version="1.0" encoding="utf-8"?>
<!-- Generator: Adobe Illustrator 16.0.0, SVG Export Plug-In . SVG Version: 6.00 Build 0)  -->
<!DOCTYPE svg PUBLIC "-//W3C//DTD SVG 1.0//EN" "http://www.w3.org/TR/2001/REC-SVG-20010904/DTD/svg10.dtd">
<svg version="1.0" id="Layer_1" xmlns="http://www.w3.org/2000/svg" xmlns:xlink="http://www.w3.org/1999/xlink" x="0px" y="0px"
	 width="100px" height="100px" viewBox="0 0 100 100" enable-background="new 0 0 100 100" xml:space="preserve">
<rect x="46.667" y="10" width="6.666" height="13.333"/>
<rect x="13.737" y="10.404" transform="matrix(0.7071 -0.7071 0.7071 0.7071 -7.0706 17.0702)" width="6.666" height="13.332"/>
<rect x="79.596" y="76.264" transform="matrix(0.7071 -0.7071 0.7071 0.7071 -34.3506 82.9297)" width="6.666" height="13.331"/>
<rect x="13.737" y="76.264" transform="matrix(0.7071 0.7071 -0.7071 0.7071 63.6399 12.219)" width="6.666" height="13.331"/>
<rect x="46.667" y="76.667" width="6.666" height="13.333"/>
<rect x="10" y="46.667" width="13.333" height="6.666"/>
<rect x="76.667" y="46.667" width="13.333" height="6.666"/>
<path d="M90,14.713L85.286,10L54.284,41.003c-2.712-1.289-5.856-1.289-8.568,0L31.38,26.667l-4.713,4.713l14.336,14.336
	c-1.765,3.718-1.146,8.278,1.927,11.354c3.906,3.906,10.241,3.906,14.144,0.003c3.076-3.076,3.688-7.64,1.921-11.357L90,14.713z
	 M50,53.333c-1.843,0-3.333-1.494-3.333-3.333c0-1.843,1.49-3.333,3.333-3.333s3.333,1.49,3.333,3.333
	C53.333,51.839,51.843,53.333,50,53.333z"/>
</svg>
