<?xml version="1.0" encoding="utf-8"?>
<!-- Generator: Adobe Illustrator 16.0.0, SVG Export Plug-In . SVG Version: 6.00 Build 0)  -->
<!DOCTYPE svg PUBLIC "-//W3C//DTD SVG 1.0//EN" "http://www.w3.org/TR/2001/REC-SVG-20010904/DTD/svg10.dtd">
<svg version="1.0" id="Layer_1" xmlns="http://www.w3.org/2000/svg" xmlns:xlink="http://www.w3.org/1999/xlink" x="0px" y="0px"
	 width="100px" height="100px" viewBox="0 0 100 100" enable-background="new 0 0 100 100" xml:space="preserve">
<path d="M76.667,28.047L54.714,50c-2.592,2.591-6.836,2.591-9.428,0L30,34.714L34.714,30L50,45.286l21.953-21.953L76.667,28.047z"/>
<path d="M76.667,10H23.333C15.999,10,10,16,10,23.333v53.333C10,84.001,15.999,90,23.333,90h53.334C84.001,90,90,84.001,90,76.667
	V23.333C90,16,84.001,10,76.667,10z M76.667,83.333H53.333v-6.666h-6.666v6.666H23.333c-3.678,0-6.666-2.991-6.666-6.666V53.333
	h6.666v-6.666h-6.666V23.333c0-3.679,2.988-6.667,6.666-6.667h23.334v6.667h6.666v-6.667h23.334c3.675,0,6.666,2.988,6.666,6.667
	v23.333h-6.666v6.666h6.666v23.334C83.333,80.342,80.342,83.333,76.667,83.333z"/>
</svg>
