<?xml version="1.0" encoding="utf-8"?>
<!-- Generator: Adobe Illustrator 16.0.0, SVG Export Plug-In . SVG Version: 6.00 Build 0)  -->
<!DOCTYPE svg PUBLIC "-//W3C//DTD SVG 1.1//EN" "http://www.w3.org/Graphics/SVG/1.1/DTD/svg11.dtd">
<svg version="1.1" id="Icons" xmlns="http://www.w3.org/2000/svg" xmlns:xlink="http://www.w3.org/1999/xlink" x="0px" y="0px"
	 width="24px" height="24px" viewBox="0 0 24 24" enable-background="new 0 0 24 24" xml:space="preserve">
<path id="Close" d="M16.246,12l4.241-4.241c0.188-0.188,0.293-0.442,0.293-0.707s-0.105-0.52-0.293-0.707l-2.832-2.831
	c-0.375-0.375-1.039-0.375-1.414,0l-1.213,1.213c-0.391,0.391-0.391,1.024,0,1.414c0.391,0.391,1.024,0.391,1.414,0l0.506-0.506
	l1.417,1.417L7.053,18.365l-1.417-1.417l8.393-8.393c0.391-0.391,0.391-1.023,0-1.414s-1.023-0.391-1.414,0L12,7.755L7.76,3.514
	c-0.391-0.391-1.023-0.391-1.414,0L3.514,6.345C3.326,6.533,3.221,6.787,3.221,7.052s0.105,0.52,0.293,0.707L7.755,12l-4.241,4.241
	c-0.188,0.188-0.293,0.442-0.293,0.707s0.105,0.52,0.293,0.707l2.832,2.831c0.195,0.195,0.451,0.293,0.707,0.293
	s0.512-0.098,0.707-0.293l4.24-4.24l4.24,4.24c0.195,0.195,0.451,0.293,0.707,0.293s0.512-0.098,0.707-0.293l2.832-2.831
	c0.188-0.188,0.293-0.442,0.293-0.707s-0.105-0.52-0.293-0.707L16.246,12z M5.635,7.052l1.417-1.417l3.533,3.534l-1.417,1.417
	L5.635,7.052z M16.947,18.365l-3.533-3.533l1.417-1.417l3.534,3.534L16.947,18.365z"/>
</svg>
