<?xml version="1.0" encoding="utf-8"?>
<!-- Generator: Adobe Illustrator 25.4.1, SVG Export Plug-In . SVG Version: 6.00 Build 0)  -->
<svg version="1.1" id="Icons" xmlns="http://www.w3.org/2000/svg" xmlns:xlink="http://www.w3.org/1999/xlink" x="0px" y="0px"
	 viewBox="0 0 24 24" style="enable-background:new 0 0 24 24;" xml:space="preserve">
<g id="Closed-2">
	<path d="M9.088,17.896c0.195,0.195,0.451,0.293,0.707,0.293s0.512-0.098,0.707-0.293L12,16.398l1.498,1.498
		c0.195,0.195,0.451,0.293,0.707,0.293s0.512-0.098,0.707-0.293c0.391-0.391,0.391-1.023,0-1.414l-1.498-1.498l1.498-1.498
		c0.391-0.391,0.391-1.023,0-1.414s-1.023-0.391-1.414,0L12,13.57l-1.498-1.498c-0.391-0.391-1.023-0.391-1.414,0
		s-0.391,1.023,0,1.414l1.498,1.498l-1.498,1.498C8.697,16.873,8.697,17.505,9.088,17.896z"/>
	<path d="M19.591,7.966h-1.572c-0.532-0.568-5.288-5.651-5.288-5.651C12.542,2.113,12.277,1.999,12,1.999
		c-0.275,0-0.539,0.114-0.728,0.314c0,0-4.175,4.434-5.323,5.653h-1.54c-1.327,0-2.406,1.079-2.406,2.406v1.997c0,0.552,0.448,1,1,1
		s1-0.448,1-1v-1.997c0-0.22,0.186-0.406,0.406-0.406h15.182c0.22,0,0.406,0.186,0.406,0.406v9.224c0,0.22-0.186,0.406-0.406,0.406
		H4.409c-0.22,0-0.406-0.186-0.406-0.406v-3.813c0-0.552-0.448-1-1-1s-1,0.448-1,1v3.813c0,1.327,1.079,2.406,2.406,2.406h15.182
		c1.327,0,2.406-1.079,2.406-2.406v-9.224C21.997,9.045,20.917,7.966,19.591,7.966z M11.998,4.459l3.282,3.507H8.696L11.998,4.459z"
		/>
</g>
</svg>
