<?xml version="1.0" encoding="utf-8"?>
<!-- Generator: Adobe Illustrator 25.4.1, SVG Export Plug-In . SVG Version: 6.00 Build 0)  -->
<svg version="1.1" id="Icons" xmlns="http://www.w3.org/2000/svg" xmlns:xlink="http://www.w3.org/1999/xlink" x="0px" y="0px"
	 viewBox="0 0 24 24" style="enable-background:new 0 0 24 24;" xml:space="preserve">
<g id="Closed-1">
	<path d="M21,4c0.553,0,1-0.448,1-1s-0.447-1-1-1H3C2.447,2,2,2.448,2,3v18c0,0.552,0.447,1,1,1s1-0.448,1-1V4h3.083v1H5.979
		c-0.553,0-1,0.448-1,1v3.134c0,0.552,0.447,1,1,1s1-0.448,1-1V7h12.041v12.041H6.979v-6.493c0-0.552-0.447-1-1-1s-1,0.448-1,1
		v7.493c0,0.552,0.447,1,1,1h14.041c0.553,0,1-0.448,1-1V6c0-0.552-0.447-1-1-1h-0.979V4H21z M17.042,5H9.083V4h7.959V5z"/>
	<path d="M9.846,16.175c0.195,0.195,0.451,0.293,0.707,0.293s0.512-0.098,0.707-0.293L13,14.435l1.74,1.741
		c0.195,0.195,0.451,0.293,0.707,0.293s0.512-0.098,0.707-0.293c0.391-0.39,0.391-1.023,0-1.414l-1.74-1.741l1.74-1.741
		c0.391-0.391,0.391-1.024,0-1.414c-0.391-0.391-1.023-0.391-1.414,0L13,11.606l-1.74-1.741c-0.391-0.391-1.023-0.391-1.414,0
		c-0.391,0.39-0.391,1.023,0,1.414l1.74,1.741l-1.74,1.741C9.455,15.152,9.455,15.785,9.846,16.175z"/>
</g>
</svg>
