<?xml version="1.0" encoding="utf-8"?>
<!-- Generator: Adobe Illustrator 25.4.1, SVG Export Plug-In . SVG Version: 6.00 Build 0)  -->
<svg version="1.1" id="Icons" xmlns="http://www.w3.org/2000/svg" xmlns:xlink="http://www.w3.org/1999/xlink" x="0px" y="0px"
	 viewBox="0 0 24 24" style="enable-background:new 0 0 24 24;" xml:space="preserve">
<g id="Code-slash">
	<path d="M9.207,8.834c-0.367-0.413-1-0.45-1.411-0.083l-2.831,2.516c-0.214,0.19-0.336,0.462-0.336,0.748s0.122,0.558,0.336,0.748
		l2.831,2.517c0.19,0.169,0.428,0.252,0.664,0.252c0.275,0,0.55-0.113,0.747-0.335c0.367-0.413,0.33-1.045-0.083-1.412l-1.99-1.77
		l1.99-1.769C9.537,9.879,9.574,9.248,9.207,8.834z"/>
	<path d="M14.793,15.179c0.197,0.222,0.472,0.335,0.747,0.335c0.236,0,0.474-0.083,0.664-0.252l2.831-2.517
		c0.214-0.19,0.336-0.462,0.336-0.748s-0.122-0.558-0.336-0.748l-2.831-2.516c-0.413-0.367-1.045-0.332-1.411,0.083
		c-0.367,0.413-0.33,1.045,0.083,1.412l1.99,1.768l-1.99,1.77C14.463,14.134,14.426,14.766,14.793,15.179z"/>
	<path d="M12.256,14.854c0,0,1.418-5.181,1.418-5.181c0.325-1.274-1.559-1.789-1.93-0.528l-1.418,5.181
		c-0.181,0.625,0.318,1.272,0.966,1.265C11.731,15.591,12.134,15.299,12.256,14.854z"/>
	<path d="M17.002,2H7C4.243,2,2.001,4.243,2.001,6.999v0.844c0,0.552,0.447,1,1,1s1-0.448,1-1V6.999C4.001,5.345,5.347,4,7,4h10.002
		C18.655,4,20,5.345,20,6.999v10.003C20,18.655,18.655,20,17.002,20H7c-1.653,0-2.999-1.345-2.999-2.998v-5.75c0-0.552-0.447-1-1-1
		s-1,0.448-1,1v5.75C2.001,19.758,4.243,22,7,22h10.002C19.758,22,22,19.758,22,17.002V6.999C22,4.243,19.758,2,17.002,2z"/>
</g>
</svg>
