<?xml version="1.0" encoding="utf-8"?>
<!-- Generator: Adobe Illustrator 25.4.1, SVG Export Plug-In . SVG Version: 6.00 Build 0)  -->
<svg version="1.1" id="Icons" xmlns="http://www.w3.org/2000/svg" xmlns:xlink="http://www.w3.org/1999/xlink" x="0px" y="0px"
	 viewBox="0 0 24 24" style="enable-background:new 0 0 24 24;" xml:space="preserve">
<g id="Code-window">
	<path d="M6.955,5.111H6.417c-0.552,0-1,0.448-1,1s0.448,1,1,1h0.539c0.552,0,1-0.448,1-1S7.507,5.111,6.955,5.111z"/>
	<path d="M14.539,5.111H10c-0.552,0-1,0.448-1,1s0.448,1,1,1h4.539c0.552,0,1-0.448,1-1S15.091,5.111,14.539,5.111z"/>
	<path d="M9.402,11.972c-0.368-0.414-0.999-0.451-1.412-0.083l-2.676,2.378c-0.214,0.19-0.336,0.462-0.336,0.748
		s0.122,0.558,0.335,0.747l2.675,2.379c0.19,0.169,0.428,0.253,0.664,0.253c0.276,0,0.55-0.113,0.748-0.335
		c0.367-0.413,0.33-1.045-0.083-1.412l-1.834-1.632l1.834-1.63C9.731,13.017,9.769,12.385,9.402,11.972z"/>
	<path d="M14.599,18.042c0.197,0.222,0.472,0.335,0.748,0.335c0.236,0,0.474-0.083,0.664-0.253l2.675-2.379
		c0.213-0.189,0.335-0.461,0.335-0.747s-0.122-0.558-0.335-0.748l-2.676-2.378c-0.414-0.368-1.045-0.33-1.412,0.083
		c-0.367,0.413-0.33,1.045,0.083,1.412l1.835,1.631l-1.835,1.632C14.269,16.997,14.232,17.629,14.599,18.042z"/>
	<path d="M11.331,18.449c0.439,0,0.842-0.292,0.964-0.736l1.34-4.896c0.326-1.272-1.561-1.792-1.929-0.528
		c0,0-1.34,4.896-1.34,4.896C10.184,17.809,10.684,18.457,11.331,18.449z"/>
	<path d="M17.002,2H7C4.243,2,2,4.243,2,6.999v3.296c0,0.552,0.448,1,1,1s1-0.448,1-1v-0.148h16v6.856
		C20,18.655,18.655,20,17.002,20H7c-1.654,0-3-1.345-3-2.998v-3.297c0-0.552-0.448-1-1-1s-1,0.448-1,1v3.297C2,19.758,4.243,22,7,22
		h10.002C19.758,22,22,19.758,22,17.002V6.999C22,4.243,19.758,2,17.002,2z M20,8.146H4V6.999C4,5.345,5.346,4,7,4h10.002
		C18.655,4,20,5.345,20,6.999V8.146z"/>
</g>
</svg>
