<?xml version="1.0" encoding="utf-8"?>
<!-- Generator: Adobe Illustrator 25.4.1, SVG Export Plug-In . SVG Version: 6.00 Build 0)  -->
<svg version="1.1" id="Icons" xmlns="http://www.w3.org/2000/svg" xmlns:xlink="http://www.w3.org/1999/xlink" x="0px" y="0px"
	 viewBox="0 0 24 24" style="enable-background:new 0 0 24 24;" xml:space="preserve">
<g id="Code">
	<g>
		<path d="M9.663,15.844c-0.236,0-0.473-0.083-0.664-0.252L5.802,12.75c-0.213-0.19-0.335-0.462-0.335-0.748
			s0.122-0.558,0.336-0.748L9,8.415c0.414-0.367,1.046-0.329,1.412,0.083c0.367,0.413,0.33,1.045-0.083,1.412l-2.355,2.093
			l2.355,2.094c0.413,0.367,0.45,0.999,0.083,1.412C10.213,15.731,9.938,15.844,9.663,15.844z"/>
	</g>
	<g>
		<path d="M14.342,15.842c-0.276,0-0.55-0.113-0.748-0.335c-0.367-0.413-0.33-1.045,0.083-1.412l2.355-2.094l-2.355-2.093
			c-0.413-0.367-0.45-0.999-0.083-1.412c0.367-0.414,1-0.451,1.412-0.083l3.196,2.84c0.214,0.19,0.336,0.462,0.336,0.748
			s-0.122,0.558-0.335,0.748l-3.196,2.841C14.816,15.759,14.579,15.842,14.342,15.842z"/>
	</g>
	<g>
		<path d="M17.002,22H7C4.243,22,2,19.758,2,17.002v-5.75c0-0.552,0.448-1,1-1s1,0.448,1,1v5.75C4,18.655,5.346,20,7,20h10.002
			C18.655,20,20,18.655,20,17.002V6.999C20,5.345,18.655,4,17.002,4H7C5.346,4,4,5.345,4,6.999v0.844c0,0.552-0.448,1-1,1
			s-1-0.448-1-1V6.999C2,4.243,4.243,2,7,2h10.002C19.758,2,22,4.243,22,6.999v10.003C22,19.758,19.758,22,17.002,22z"/>
	</g>
</g>
</svg>
