<?xml version="1.0" encoding="utf-8"?>
<!-- Generator: Adobe Illustrator 26.5.0, SVG Export Plug-In . SVG Version: 6.00 Build 0)  -->
<svg version="1.1" id="Icons" xmlns="http://www.w3.org/2000/svg" xmlns:xlink="http://www.w3.org/1999/xlink" x="0px" y="0px"
	 viewBox="0 0 24 24" enable-background="new 0 0 24 24" xml:space="preserve">
<path id="Coffee-Maker" d="M16.242,9.943c0.552,0,1-0.448,1-1V8.405H21c0.552,0,1-0.448,1-1v-1.25C22,3.864,20.136,2,17.845,2H7.094
	C4.285,2,2,4.285,2,7.094v2.958c0,0.552,0.448,1,1,1s1-0.448,1-1V7.094C4,5.388,5.388,4,7.094,4h10.751C19.033,4,20,4.967,20,6.155
	v0.25H9.922c-0.552,0-1,0.448-1,1v9.288H4v-3.226c0-0.552-0.448-1-1-1s-1,0.448-1,1v7.552c0,0.552,0.448,1,1,1h17.966
	c0.552,0,1-0.448,1-1v-3.326c0-0.552-0.448-1-1-1h-1.181c0.398-0.641,0.649-1.384,0.649-2.192v-3.192c0-0.552-0.448-1-1-1H13.05
	c-0.552,0-1,0.448-1,1V14.5c0,0.804,0.232,1.553,0.627,2.192h-1.755V8.405h4.32v0.538C15.242,9.496,15.689,9.943,16.242,9.943z
	 M19.966,20.019H4v-1.326h15.966V20.019z M14.05,14.5v-2.192h4.384V14.5c0,1.209-0.983,2.192-2.192,2.192
	C15.033,16.693,14.05,15.709,14.05,14.5z M6.423,15.385c-0.552,0-1-0.448-1-1v-1.818c0-0.552,0.448-1,1-1s1,0.448,1,1v1.818
	C7.423,14.937,6.975,15.385,6.423,15.385z"/>
</svg>
