<?xml version="1.0" encoding="utf-8"?>
<!-- Generator: Adobe Illustrator 25.4.1, SVG Export Plug-In . SVG Version: 6.00 Build 0)  -->
<svg version="1.1" id="Icons" xmlns="http://www.w3.org/2000/svg" xmlns:xlink="http://www.w3.org/1999/xlink" x="0px" y="0px"
	 viewBox="0 0 24 24" style="enable-background:new 0 0 24 24;" xml:space="preserve">
<g id="Command">
	<g>
		<path d="M15.725,18.452c-1.504,0-2.727-1.223-2.727-2.726V15h-1.996v0.727c0,1.503-1.223,2.726-2.727,2.726
			c-1.503,0-2.726-1.223-2.726-2.726C5.549,14.223,6.772,13,8.275,13h0.727V11H8.275c-1.503,0-2.726-1.223-2.726-2.727
			c0-1.503,1.223-2.726,2.726-2.726c1.503,0,2.727,1.223,2.727,2.726V9h1.996V8.274c0-1.503,1.223-2.726,2.727-2.726
			c1.503,0,2.726,1.223,2.726,2.726c0,1.503-1.223,2.727-2.726,2.727h-0.727V13h0.727c1.503,0,2.726,1.223,2.726,2.727
			C18.45,17.229,17.228,18.452,15.725,18.452z M14.998,15v0.727c0,0.4,0.326,0.726,0.727,0.726s0.726-0.326,0.726-0.726
			S16.125,15,15.725,15H14.998z M8.275,15c-0.4,0-0.726,0.326-0.726,0.727s0.326,0.726,0.726,0.726s0.727-0.326,0.727-0.726V15
			H8.275z M11.002,13h1.996V11h-1.996V13z M14.998,9h0.727c0.4,0,0.726-0.326,0.726-0.727s-0.325-0.726-0.726-0.726
			s-0.727,0.326-0.727,0.726V9z M8.275,7.548c-0.4,0-0.726,0.326-0.726,0.726S7.875,9,8.275,9h0.727V8.274
			C9.002,7.874,8.676,7.548,8.275,7.548z"/>
	</g>
	<g>
		<path d="M17.002,22H7C4.243,22,2,19.758,2,17.002v-5.75c0-0.552,0.448-1,1-1s1,0.448,1,1v5.75C4,18.655,5.346,20,7,20h10.002
			C18.655,20,20,18.655,20,17.002V6.999C20,5.345,18.655,4,17.002,4H7C5.346,4,4,5.345,4,6.999v0.844c0,0.552-0.448,1-1,1
			s-1-0.448-1-1V6.999C2,4.243,4.243,2,7,2h10.002C19.758,2,22,4.243,22,6.999v10.003C22,19.758,19.758,22,17.002,22z"/>
	</g>
</g>
</svg>
