<?xml version="1.0" encoding="utf-8"?>
<!-- Generator: Adobe Illustrator 25.4.1, SVG Export Plug-In . SVG Version: 6.00 Build 0)  -->
<svg version="1.1" id="Icons" xmlns="http://www.w3.org/2000/svg" xmlns:xlink="http://www.w3.org/1999/xlink" x="0px" y="0px"
	 viewBox="0 0 24 24" style="enable-background:new 0 0 24 24;" xml:space="preserve">
<g id="Compass-2">
	<path d="M12,2C9.984,2,8.04,2.599,6.376,3.733C5.92,4.044,5.802,4.666,6.113,5.122c0.311,0.457,0.933,0.576,1.389,0.263
		c1.054-0.718,2.251-1.155,3.503-1.311v1.344c0,0.552,0.448,1,1,1s1-0.448,1-1V4.07c3.609,0.456,6.471,3.32,6.925,6.93h-1.386
		c-0.553,0-1,0.448-1,1s0.447,1,1,1h1.386c-0.453,3.61-3.316,6.474-6.925,6.93v-1.348c0-0.552-0.448-1-1-1s-1,0.448-1,1v1.35
		C7.392,19.48,4.523,16.614,4.069,13h1.355c0.552,0,1-0.448,1-1s-0.448-1-1-1H4.074C4.228,9.764,4.658,8.581,5.36,7.539
		c0.309-0.458,0.187-1.08-0.271-1.388C4.629,5.843,4.01,5.964,3.701,6.422C2.588,8.074,2,10.003,2,12c0,5.514,4.486,10,10,10
		c5.514,0,10-4.486,10-10S17.514,2,12,2z"/>
	<path d="M8.176,17.153l6.088-2.308c0.271-0.103,0.483-0.317,0.583-0.588l2.27-6.129c0.137-0.368,0.045-0.781-0.233-1.057
		s-0.694-0.366-1.059-0.225L9.737,9.154c-0.27,0.103-0.483,0.317-0.583,0.588l-2.27,6.129c-0.136,0.368-0.045,0.781,0.233,1.057
		c0.191,0.189,0.445,0.29,0.705,0.29C7.94,17.218,8.061,17.197,8.176,17.153z M10.487,11.9l1.622,1.623l-2.587,0.981L10.487,11.9z
		 M13.513,12.1l-1.622-1.623l2.586-0.98L13.513,12.1z"/>
</g>
</svg>
