<?xml version="1.0" encoding="utf-8"?>
<!-- Generator: Adobe Illustrator 25.4.1, SVG Export Plug-In . SVG Version: 6.00 Build 0)  -->
<svg version="1.1" id="Icons" xmlns="http://www.w3.org/2000/svg" xmlns:xlink="http://www.w3.org/1999/xlink" x="0px" y="0px"
	 viewBox="0 0 24 24" style="enable-background:new 0 0 24 24;" xml:space="preserve">
<g id="Compass-1">
	<path d="M8.176,17.153l6.088-2.308c0.271-0.103,0.483-0.317,0.583-0.588l2.27-6.129c0.137-0.368,0.045-0.781-0.233-1.057
		c-0.278-0.276-0.694-0.365-1.059-0.225L9.737,9.154C9.467,9.257,9.255,9.471,9.154,9.742l-2.271,6.129
		c-0.137,0.367-0.045,0.781,0.233,1.057c0.19,0.189,0.445,0.29,0.704,0.29C7.94,17.218,8.061,17.197,8.176,17.153z M10.487,11.899
		l1.622,1.624l-2.587,0.981L10.487,11.899z M13.513,12.1l-1.622-1.623l2.586-0.98L13.513,12.1z"/>
	<path d="M12,2C9.984,2,8.04,2.599,6.376,3.733C5.92,4.044,5.802,4.666,6.113,5.122c0.31,0.457,0.931,0.574,1.39,0.263
		C8.833,4.479,10.388,4,12,4c4.411,0,8,3.589,8,8s-3.589,8-8,8s-8-3.589-8-8c0-1.598,0.47-3.14,1.359-4.461
		c0.309-0.458,0.188-1.08-0.271-1.388c-0.456-0.308-1.08-0.187-1.388,0.271C2.588,8.074,2,10.003,2,12c0,5.514,4.486,10,10,10
		s10-4.486,10-10S17.514,2,12,2z"/>
</g>
</svg>
