<?xml version="1.0" encoding="utf-8"?>
<!-- Generator: Adobe Illustrator 25.4.1, SVG Export Plug-In . SVG Version: 6.00 Build 0)  -->
<svg version="1.1" id="Icons" xmlns="http://www.w3.org/2000/svg" xmlns:xlink="http://www.w3.org/1999/xlink" x="0px" y="0px"
	 viewBox="0 0 24 24" style="enable-background:new 0 0 24 24;" xml:space="preserve">
<g id="Cooking-book">
	<path d="M10.128,13.902h7.809c0.552,0,1-0.448,1-1c0-0.462-0.32-0.834-0.746-0.949c-0.266-1.685-1.522-3.034-3.158-3.435V8.098
		c0-0.552-0.448-1-1-1s-1,0.448-1,1v0.421c-1.637,0.401-2.893,1.751-3.159,3.435c-0.426,0.115-0.746,0.487-0.746,0.949
		C9.128,13.455,9.576,13.902,10.128,13.902z M14.032,10.386c0.978,0,1.801,0.638,2.098,1.517h-4.197
		C12.231,11.024,13.054,10.386,14.032,10.386z"/>
	<path d="M17.937,14.902h-7.809c-0.552,0-1,0.448-1,1s0.448,1,1,1h7.809c0.552,0,1-0.448,1-1S18.489,14.902,17.937,14.902z"/>
	<path d="M20.5,2h-17c-0.552,0-1,0.448-1,1v3.584c0,0.552,0.448,1,1,1s1-0.448,1-1V4h2v16h-2V9.995c0-0.552-0.448-1-1-1
		s-1,0.448-1,1V21c0,0.552,0.448,1,1,1h17c0.552,0,1-0.448,1-1V3C21.5,2.448,21.052,2,20.5,2z M19.5,20h-11V4h11V20z"/>
</g>
</svg>
