<?xml version="1.0" encoding="utf-8"?>
<!-- Generator: Adobe Illustrator 26.5.0, SVG Export Plug-In . SVG Version: 6.00 Build 0)  -->
<svg version="1.1" id="Icons" xmlns="http://www.w3.org/2000/svg" xmlns:xlink="http://www.w3.org/1999/xlink" x="0px" y="0px"
	 viewBox="0 0 24 24" enable-background="new 0 0 24 24" xml:space="preserve">
<path id="Cooking-Pot" d="M21,9.227h-0.917c-0.549-2.261-2.596-3.688-5.548-3.807V4.535C14.535,3.137,13.397,2,12,2
	S9.465,3.137,9.465,4.535v0.885C6.514,5.54,4.467,6.967,3.919,9.227H3c-0.552,0-1,0.448-1,1s0.448,1,1,1h0.758
	c0,0.539-0.001,1.177-0.001,1.177c0.02,1.314,1.978,1.316,2,0.002l0.001-1.179h12.486l-0.001,6.384c0,1.318-1.072,2.39-2.39,2.39
	H8.142c-1.317,0-2.389-1.072-2.389-2.389c0,0,0.001-1.791,0.001-1.791c-0.022-1.313-1.975-1.318-2-0.001L3.753,17.61
	c0,2.42,1.969,4.39,4.389,4.39h7.711c2.421,0,4.39-1.969,4.39-4.39l0.001-6.384H21c0.553,0,1-0.448,1-1S21.553,9.227,21,9.227z
	 M12,4c0.295,0,0.535,0.24,0.535,0.535v0.857h-1.07V4.535C11.465,4.24,11.705,4,12,4z M9.859,7.392h4.286
	c1.013,0,3.128,0.207,3.849,1.834H6.009C6.731,7.6,8.845,7.392,9.859,7.392z"/>
</svg>
