<svg fill="#000000" xmlns="http://www.w3.org/2000/svg"  viewBox="0 0 16 16" width="16px" height="16px"><path d="M 2.484375 2 A 0.50005 0.50005 0 0 0 2 2.5 L 2 13.5 A 0.50005 0.50005 0 0 0 2.8535156 13.853516 L 6.7070312 10 L 9.2929688 10 L 13.146484 13.853516 A 0.50005 0.50005 0 0 0 14 13.5 L 14 2.5 A 0.50005 0.50005 0 0 0 13.484375 2 A 0.50005 0.50005 0 0 0 13.146484 2.1464844 L 9.2929688 6 L 6.8320312 6 L 2.8476562 2.140625 A 0.50005 0.50005 0 0 0 2.484375 2 z M 3 3.6796875 L 4 4.6484375 L 4 11.292969 L 3 12.292969 L 3 3.6796875 z M 13 3.7070312 L 13 12.292969 L 12 11.292969 L 12 4.7070312 L 13 3.7070312 z M 5 5.6171875 L 6 6.5859375 L 6 9.2929688 L 5 10.292969 L 5 5.6171875 z M 11 5.7070312 L 11 10.292969 L 10 9.2929688 L 10 6.7070312 L 11 5.7070312 z M 7 7 L 9 7 L 9 9 L 7 9 L 7 7 z"/></svg>