<?xml version="1.0" encoding="utf-8"?>
<!-- Generator: Adobe Illustrator 25.4.1, SVG Export Plug-In . SVG Version: 6.00 Build 0)  -->
<svg version="1.1" id="Icons" xmlns="http://www.w3.org/2000/svg" xmlns:xlink="http://www.w3.org/1999/xlink" x="0px" y="0px"
	 viewBox="0 0 24 24" style="enable-background:new 0 0 24 24;" xml:space="preserve">
<g id="Credit-card">
	<g>
		<path d="M12.959,16.31h-1.919c-0.552,0-1-0.448-1-1s0.448-1,1-1h1.919c0.552,0,1,0.448,1,1S13.512,16.31,12.959,16.31z"/>
	</g>
	<g>
		<path d="M18.005,16.31h-1.919c-0.552,0-1-0.448-1-1s0.448-1,1-1h1.919c0.552,0,1,0.448,1,1S18.558,16.31,18.005,16.31z"/>
	</g>
	<g>
		<path d="M7.914,16.31H5.995c-0.552,0-1-0.448-1-1s0.448-1,1-1h1.919c0.552,0,1,0.448,1,1S8.466,16.31,7.914,16.31z"/>
	</g>
	<g>
		<path d="M17.829,12.775h-3.485c-0.552,0-1-0.448-1-1V8.29c0-0.552,0.448-1,1-1h3.485c0.552,0,1,0.448,1,1v3.485
			C18.829,12.328,18.381,12.775,17.829,12.775z M15.344,10.775h1.485V9.29h-1.485V10.775z"/>
	</g>
	<g>
		<path d="M19.267,19.862H4.733C3.226,19.862,2,18.636,2,17.129v-5.116c0-0.552,0.448-1,1-1s1,0.448,1,1v5.116
			c0,0.404,0.329,0.733,0.733,0.733h14.533c0.404,0,0.733-0.329,0.733-0.733V6.871c0-0.404-0.329-0.733-0.733-0.733H4.733
			C4.329,6.138,4,6.467,4,6.871v1.732c0,0.552-0.448,1-1,1s-1-0.448-1-1V6.871c0-1.507,1.226-2.733,2.733-2.733h14.533
			C20.774,4.138,22,5.364,22,6.871v10.258C22,18.636,20.774,19.862,19.267,19.862z"/>
	</g>
</g>
</svg>
