<?xml version="1.0" encoding="utf-8"?>
<!-- Generator: Adobe Illustrator 25.4.1, SVG Export Plug-In . SVG Version: 6.00 Build 0)  -->
<svg version="1.1" id="Icons" xmlns="http://www.w3.org/2000/svg" xmlns:xlink="http://www.w3.org/1999/xlink" x="0px" y="0px"
	 viewBox="0 0 24 24" style="enable-background:new 0 0 24 24;" xml:space="preserve">
<g id="Croissant">
	<path d="M9.481,20.65c0.044-0.07,0.908-1.519,0.628-3.497c0.691-0.3,1.659-1.11,1.854-2.626c1.416-0.504,2.189-1.634,2.544-2.57
		c1.523-0.191,2.344-1.154,2.646-1.846c0.273,0.039,0.539,0.062,0.79,0.062c1.563,0,2.643-0.652,2.693-0.683
		c1.023-0.61,1.3-1.36,1.353-1.882c0.119-1.187-0.811-2.069-0.906-2.155c-1.33-1.247-3.235-1.964-4.2-2.269
		c-0.058-0.35-0.289-0.649-0.626-0.775c-2.502-0.938-5.045-0.04-6.377,0.603C9.644,2.662,9.216,2.495,8.806,2.601
		C4.26,3.783,2.682,8.549,2.617,8.751c-0.136,0.423,0.028,0.881,0.394,1.13c-0.642,1.33-1.542,3.876-0.603,6.377
		c0.126,0.336,0.425,0.568,0.775,0.626c0.304,0.964,1.02,2.867,2.259,4.189C5.533,21.173,6.317,22,7.397,22 M7.771,19.612
		C7.597,19.906,7.458,19.994,7.408,20c-0.116,0.013-0.363-0.143-0.497-0.283c-0.724-0.773-1.237-1.854-1.557-2.686l2.732,0.166
		C8.371,18.554,7.802,19.561,7.771,19.612z M11.183,12.682l-1.622-1.024c-0.466-0.293-1.084-0.155-1.379,0.312
		s-0.155,1.084,0.312,1.379l1.475,0.931c-0.083,0.601-0.378,0.887-0.555,0.994l-5.311-0.323c-0.329-1.524,0.176-3.043,0.61-3.989
		l0.897,0.567c0.466,0.295,1.083,0.155,1.379-0.312c0.295-0.467,0.155-1.084-0.312-1.379L4.812,8.659
		c0.499-1.062,1.677-3.042,3.815-3.898l4.046,6.407C12.522,11.613,12.13,12.396,11.183,12.682z M14.281,9.968l-3.317-5.253
		c0.936-0.425,2.468-0.937,3.988-0.611l0.323,5.312C15.172,9.587,14.886,9.885,14.281,9.968z M19.607,7.775
		c-0.046,0.027-1.054,0.597-2.41,0.311l-0.166-2.732c0.832,0.32,1.914,0.834,2.689,1.56c0.137,0.131,0.292,0.38,0.28,0.494
		C19.994,7.458,19.906,7.597,19.607,7.775z"/>
</g>
</svg>
