<svg fill="#000000" xmlns="http://www.w3.org/2000/svg"  viewBox="0 0 16 16" width="16px" height="16px"><path d="M 2.5 2 A 0.50005 0.50005 0 0 0 2 2.5 L 2 9.5 L 2 13.5 A 0.50005 0.50005 0 0 0 2.5 14 L 5.5 14 A 0.50005 0.50005 0 0 0 6 13.5 C 6 11.544114 5.369522 10.199548 5.0117188 9.5839844 C 5.5352653 9.0943306 6.7666811 7.7957669 7.5 5.5917969 C 8.2333189 7.7957669 9.4647347 9.0943306 9.9882812 9.5839844 C 9.6304779 10.199548 9 11.544114 9 13.5 A 0.50005 0.50005 0 0 0 9.5 14 L 12.5 14 A 0.50005 0.50005 0 0 0 13 13.5 L 13 9.5 L 13 2.5 A 0.50005 0.50005 0 0 0 12.5 2 L 7.5 2 L 2.5 2 z M 3 3 L 6.9199219 3 C 6.6911493 6.7858041 4.3245087 8.8618539 4.15625 9 L 3 9 L 3 3 z M 8.0800781 3 L 12 3 L 12 9 L 10.84375 9 C 10.675491 8.8618539 8.3088507 6.7858041 8.0800781 3 z M 3 10 L 4.0917969 10 C 4.3056737 10.394631 4.7894631 11.435192 4.9082031 13 L 3 13 L 3 10 z M 10.908203 10 L 12 10 L 12 13 L 10.091797 13 C 10.210537 11.435192 10.694326 10.394631 10.908203 10 z"/></svg>