<svg fill="#000000" xmlns="http://www.w3.org/2000/svg"  viewBox="0 0 16 16" width="16px" height="16px"><path d="M 2.2402344 1 C 1.8221571 0.9730406 1.4628906 1.0019531 1.4628906 1.0019531 L 1.0332031 1.0332031 L 1.0019531 1.4628906 C 1.0019531 1.4628906 0.9730376 1.8221571 1 2.2402344 C 1.026959 2.6583117 1.029924 3.1520653 1.4394531 3.5605469 C 1.7202304 3.8420441 2.0892537 3.9829404 2.4609375 3.9921875 C 2.2527921 4.8431151 2 6.0602851 2 7.4726562 C 2 8.8953174 2.2354082 10.139805 2.4257812 11 C 2.0662428 11.017552 1.7112932 11.155895 1.4394531 11.427734 C 1.0308566 11.836331 1.0269605 12.332043 1 12.75 C 0.9730395 13.167957 1.0019531 13.525391 1.0019531 13.525391 L 1.0332031 13.955078 L 1.4628906 13.988281 C 1.4628906 13.988281 1.8221571 14.015241 2.2402344 13.988281 C 2.6583117 13.961321 3.1520653 13.958361 3.5605469 13.548828 C 3.8287036 13.280672 3.9691764 12.932439 3.9902344 12.578125 C 4.8543745 12.768389 6.0903753 13 7.5 13 C 8.9246586 13 10.149382 12.74344 10.996094 12.535156 C 11.007091 12.90424 11.14872 13.269792 11.427734 13.548828 C 11.836216 13.958357 12.331923 13.961322 12.75 13.988281 C 13.168077 14.015241 13.525391 13.988281 13.525391 13.988281 L 13.955078 13.955078 L 13.988281 13.525391 C 13.988281 13.525391 14.015241 13.167957 13.988281 12.75 C 13.961321 12.332043 13.957421 11.836331 13.548828 11.427734 C 13.279437 11.158344 12.930177 11.019658 12.574219 11 C 12.764592 10.139805 13 8.8953174 13 7.4726562 C 13 6.0602851 12.747208 4.8431151 12.539062 3.9921875 C 12.906362 3.9801357 13.270926 3.8384379 13.548828 3.5605469 C 13.958357 3.1520653 13.961322 2.6583117 13.988281 2.2402344 C 14.015241 1.8221571 13.988281 1.4628906 13.988281 1.4628906 L 13.955078 1.0332031 L 13.525391 1.0019531 C 13.525391 1.0019531 13.168077 0.9730376 12.75 1 C 12.331923 1.026959 11.836216 1.029924 11.427734 1.4394531 C 11.146506 1.7214023 11.004569 2.0918368 10.996094 2.4648438 C 10.149382 2.2565596 8.9246586 2 7.5 2 C 6.0889951 2 4.85202 2.2315947 3.9882812 2.421875 C 3.9695424 2.06358 3.8309244 1.710524 3.5605469 1.4394531 C 3.1520622 1.0299272 2.6583117 1.0269593 2.2402344 1 z M 1.9980469 1.9980469 C 2.0805699 1.9987939 2.0817419 1.9919869 2.1757812 1.9980469 C 2.513704 2.0198379 2.8719972 2.1650134 2.8535156 2.1464844 C 3.0532703 2.3467512 3.0526882 2.6548524 2.8535156 2.8535156 C 2.6532488 3.0532703 2.3451476 3.0526882 2.1464844 2.8535156 C 2.1650134 2.8719976 2.0198375 2.5137041 1.9980469 2.1757812 C 1.9919869 2.0817412 1.9987939 2.0805702 1.9980469 1.9980469 z M 12.814453 1.9980469 C 12.907743 1.9920269 12.908233 1.9988189 12.990234 1.9980469 C 12.989487 2.0805699 12.996334 2.0817419 12.990234 2.1757812 C 12.968444 2.513704 12.825221 2.8719972 12.84375 2.8535156 L 12.841797 2.8535156 C 12.643134 3.0526882 12.335032 3.0532703 12.134766 2.8535156 C 11.935593 2.6548524 11.936917 2.3467512 12.136719 2.1464844 C 12.118239 2.1650134 12.47653 2.0198375 12.814453 1.9980469 z M 7.5 3 C 9.2480982 3 11.044385 3.4940354 11.412109 3.5976562 C 11.527361 4.0099799 12 5.7520623 12 7.4726562 C 12 9.1883069 11.573759 10.947124 11.462891 11.390625 C 11.156899 11.477651 9.2840702 12 7.5 12 C 5.7924064 12 4.0480416 11.580517 3.5917969 11.466797 C 3.5802581 11.454475 3.5725837 11.43974 3.5605469 11.427734 C 3.5545336 11.421736 3.5471082 11.417983 3.5410156 11.412109 C 3.4355935 10.992038 3 9.2031853 3 7.4726562 C 3 5.7050367 3.508703 3.8663004 3.6035156 3.53125 C 4.0719635 3.4147397 5.8004855 3 7.5 3 z M 2.5 11.986328 C 2.6269225 11.986731 2.7535335 12.036969 2.8535156 12.136719 C 3.05299 12.335683 3.0537234 12.641589 2.8535156 12.841797 L 2.8535156 12.84375 C 2.8719976 12.82522 2.513704 12.968444 2.1757812 12.990234 C 2.0817412 12.996334 2.0805702 12.989487 1.9980469 12.990234 C 1.9988191 12.908284 1.9920269 12.907714 1.9980469 12.814453 C 2.0198359 12.476661 2.1640809 12.117169 2.1464844 12.134766 C 2.2458436 12.035406 2.3730775 11.985926 2.5 11.986328 z M 12.488281 11.986328 C 12.615204 11.985926 12.742437 12.03543 12.841797 12.134766 C 12.824197 12.117166 12.968445 12.476661 12.990234 12.814453 C 12.996234 12.907713 12.989462 12.908283 12.990234 12.990234 C 12.908234 12.989462 12.907744 12.996234 12.814453 12.990234 C 12.47653 12.968444 12.118237 12.825221 12.136719 12.84375 L 12.136719 12.841797 L 12.134766 12.841797 C 11.934558 12.641589 11.935291 12.335683 12.134766 12.136719 C 12.234748 12.036992 12.361359 11.986731 12.488281 11.986328 z"/></svg>