<?xml version="1.0" encoding="utf-8"?>
<!-- Generator: Adobe Illustrator 25.4.1, SVG Export Plug-In . SVG Version: 6.00 Build 0)  -->
<svg version="1.1" id="Icons" xmlns="http://www.w3.org/2000/svg" xmlns:xlink="http://www.w3.org/1999/xlink" x="0px" y="0px"
	 viewBox="0 0 24 24" style="enable-background:new 0 0 24 24;" xml:space="preserve">
<g id="Cutting-board">
	<g>
		<path d="M15.011,10.135H8.989c-1.127,0-2.044-0.917-2.044-2.044V7.145c0-1.127,0.917-2.044,2.044-2.044h6.021
			c1.127,0,2.044,0.917,2.044,2.044v0.947C17.055,9.218,16.138,10.135,15.011,10.135z M8.989,7.101L8.945,8.091l6.065,0.044
			c0.024,0,0.044-0.02,0.044-0.044V7.145L8.989,7.101z"/>
	</g>
	<g>
		<path d="M17.223,22H6.777c-1.636,0-2.967-1.331-2.967-2.967v-3.226c0-0.552,0.447-1,1-1s1,0.448,1,1v3.226
			C5.811,19.566,6.244,20,6.777,20h10.445c0.533,0,0.967-0.434,0.967-0.967V4.967C18.189,4.434,17.756,4,17.223,4H6.777
			C6.244,4,5.811,4.434,5.811,4.967v7.43c0,0.552-0.447,1-1,1s-1-0.448-1-1v-7.43C3.811,3.331,5.142,2,6.777,2h10.445
			c1.636,0,2.967,1.331,2.967,2.967v14.066C20.189,20.669,18.858,22,17.223,22z"/>
	</g>
</g>
</svg>
