<?xml version="1.0" encoding="utf-8"?>
<!-- Generator: Adobe Illustrator 25.4.1, SVG Export Plug-In . SVG Version: 6.00 Build 0)  -->
<svg version="1.1" id="Icons" xmlns="http://www.w3.org/2000/svg" xmlns:xlink="http://www.w3.org/1999/xlink" x="0px" y="0px"
	 viewBox="0 0 24 24" style="enable-background:new 0 0 24 24;" xml:space="preserve">
<g id="Dashboard">
	<path d="M7.275,12c0-2.605,2.12-4.725,4.725-4.725c2.605,0,4.725,2.12,4.725,4.725c0,0.552,0.447,1,1,1s1-0.448,1-1
		c0-3.708-3.017-6.725-6.725-6.725S5.275,8.292,5.275,12c0,0.552,0.448,1,1,1S7.275,12.552,7.275,12z"/>
	<path d="M13.787,12.501l0.694-1.33c0.255-0.49,0.065-1.094-0.424-1.349c-0.493-0.255-1.094-0.065-1.35,0.424l-0.833,1.597
		c-0.667,0.03-1.326,0.29-1.834,0.798c-0.574,0.574-0.837,1.337-0.801,2.092H4.491C4.179,13.879,4,12.961,4,12
		c0-0.945,0.173-1.886,0.513-2.796C4.707,8.687,4.444,8.11,3.927,7.917C3.413,7.723,2.834,7.986,2.64,8.503
		C2.215,9.639,2,10.815,2,12c0,5.514,4.486,10,10,10c5.514,0,10-4.486,10-10S17.514,2,12,2C9.204,2,6.513,3.192,4.617,5.271
		C4.245,5.679,4.274,6.311,4.682,6.683c0.41,0.373,1.041,0.344,1.413-0.065C7.612,4.954,9.765,4,12,4c4.411,0,8,3.589,8,8
		c0,0.961-0.179,1.879-0.491,2.733H14.76C14.79,13.168,13.787,12.501,13.787,12.501z M11.455,14.055c0.3-0.301,0.79-0.3,1.09,0
		c0.185,0.185,0.246,0.438,0.204,0.678h-1.498C11.208,14.493,11.27,14.24,11.455,14.055z M12,20c-2.639,0-4.977-1.29-6.435-3.267
		h12.87C16.977,18.71,14.639,20,12,20z"/>
</g>
</svg>
