<?xml version="1.0" encoding="utf-8"?>
<!-- Generator: Adobe Illustrator 25.4.1, SVG Export Plug-In . SVG Version: 6.00 Build 0)  -->
<svg version="1.1" id="Icons" xmlns="http://www.w3.org/2000/svg" xmlns:xlink="http://www.w3.org/1999/xlink" x="0px" y="0px"
	 viewBox="0 0 24 24" style="enable-background:new 0 0 24 24;" xml:space="preserve">
<g id="Data-stats">
	<path d="M17.002,2H7C4.243,2,2,4.243,2,6.999v0.844c0,0.552,0.448,1,1,1s1-0.448,1-1V6.999C4,5.345,5.346,4,7,4h10.002
		C18.655,4,20,5.345,20,6.999v4.685l-4.419,0.001c-0.348,0-0.671,0.181-0.853,0.477l-1.441,2.35l-1.924-7.826
		c-0.104-0.422-0.469-0.729-0.903-0.759C10.028,5.901,9.624,6.15,9.463,6.555l-2.041,5.134L4,11.688v-0.436c0-0.552-0.448-1-1-1
		s-1,0.448-1,1v5.75C2,19.758,4.243,22,7,22h10.002C19.758,22,22,19.758,22,17.002V6.999C22,4.243,19.758,2,17.002,2z
		 M12.888,18.076c0.344,0.008,0.669-0.178,0.853-0.477l2.4-3.914L20,13.684v3.319C20,18.655,18.655,20,17.002,20H7
		C5.346,20,4,18.655,4,17.002v-3.314l4.1,0.002c0,0,0,0,0,0c0.41,0,0.778-0.25,0.929-0.631l1.137-2.861l1.75,7.116
		C11.917,17.314,12.053,18.056,12.888,18.076z"/>
</g>
</svg>
