<?xml version="1.0" encoding="utf-8"?>
<!-- Generator: Adobe Illustrator 25.4.1, SVG Export Plug-In . SVG Version: 6.00 Build 0)  -->
<svg version="1.1" id="Icons" xmlns="http://www.w3.org/2000/svg" xmlns:xlink="http://www.w3.org/1999/xlink" x="0px" y="0px"
	 viewBox="0 0 24 24" style="enable-background:new 0 0 24 24;" xml:space="preserve">
<g id="Database">
	<path d="M9.244,10.388h0.984c0.552,0,1-0.448,1-1s-0.448-1-1-1H9.244c-0.552,0-1,0.448-1,1S8.691,10.388,9.244,10.388z"/>
	<path d="M5.27,15.698c0,1.378,1.122,2.5,2.5,2.5h8.46c1.378,0,2.5-1.122,2.5-2.5v-2.207c0-0.565-0.195-1.081-0.513-1.5
		c0.317-0.419,0.513-0.935,0.513-1.5V8.285c0-1.378-1.122-2.5-2.5-2.5H7.77c-1.378,0-2.5,1.122-2.5,2.5v2.207
		c0,0.565,0.195,1.081,0.513,1.5c-0.317,0.419-0.513,0.935-0.513,1.5V15.698z M16.73,15.698c0,0.271-0.229,0.5-0.5,0.5H7.77
		c-0.271,0-0.5-0.229-0.5-0.5v-2.207c0-0.271,0.229-0.5,0.5-0.5h8.46c0.271,0,0.5,0.229,0.5,0.5V15.698z M7.27,8.285
		c0-0.271,0.229-0.5,0.5-0.5h8.46c0.271,0,0.5,0.229,0.5,0.5v2.207c0,0.271-0.229,0.5-0.5,0.5H7.77c-0.271,0-0.5-0.229-0.5-0.5
		V8.285z"/>
	<path d="M10.228,13.595H9.244c-0.552,0-1,0.448-1,1s0.448,1,1,1h0.984c0.552,0,1-0.448,1-1S10.78,13.595,10.228,13.595z"/>
	<path d="M17.002,2H7C4.243,2,2,4.243,2,6.999v0.844c0,0.552,0.448,1,1,1s1-0.448,1-1V6.999C4,5.345,5.346,4,7,4h10.002
		C18.655,4,20,5.345,20,6.999v10.003C20,18.655,18.655,20,17.002,20H7C5.346,20,4,18.655,4,17.002v-5.75c0-0.552-0.448-1-1-1
		s-1,0.448-1,1v5.75C2,19.758,4.243,22,7,22h10.002C19.758,22,22,19.758,22,17.002V6.999C22,4.243,19.758,2,17.002,2z"/>
</g>
</svg>
