<?xml version="1.0" encoding="utf-8"?>
<!-- Generator: Adobe Illustrator 25.4.1, SVG Export Plug-In . SVG Version: 6.00 Build 0)  -->
<svg version="1.1" id="Icons" xmlns="http://www.w3.org/2000/svg" xmlns:xlink="http://www.w3.org/1999/xlink" x="0px" y="0px"
	 viewBox="0 0 24 24" style="enable-background:new 0 0 24 24;" xml:space="preserve">
<g id="Delete-location">
	<path d="M18.218,12.245c-0.391-0.391-1.023-0.391-1.414,0l-0.57,0.57l-0.57-0.57c-0.391-0.391-1.023-0.391-1.414,0
		s-0.391,1.024,0,1.414l0.57,0.57l-0.57,0.57c-0.391,0.39-0.391,1.023,0,1.414c0.195,0.195,0.451,0.293,0.707,0.293
		s0.512-0.098,0.707-0.293l0.57-0.57l0.57,0.57c0.195,0.195,0.451,0.293,0.707,0.293s0.512-0.098,0.707-0.293
		c0.391-0.391,0.391-1.024,0-1.414l-0.57-0.57l0.57-0.57C18.608,13.269,18.608,12.636,18.218,12.245z"/>
	<path d="M20,9.873C19.927,5.52,16.37,2,12,2c-4.415,0-8.007,3.592-8.007,8.007c0,1.375,0.596,3.004,1.822,4.983
		c0.189,0.305,0.516,0.473,0.851,0.473c0.18,0,0.362-0.048,0.526-0.15c0.469-0.291,0.614-0.908,0.323-1.377
		c-1.258-2.03-1.522-3.257-1.522-3.929C5.993,6.695,8.688,4,12,4c2.863,0,5.261,2.015,5.859,4.701
		c-0.494-0.146-1.015-0.227-1.554-0.234C15.664,6.675,13.959,5.411,12,5.411c-2.536,0-4.598,2.062-4.598,4.598
		c0,1.965,1.27,3.673,3.069,4.31c0.028,1.834,0.917,3.458,2.28,4.495c-0.276,0.294-0.527,0.554-0.738,0.768
		c-0.625-0.659-1.599-1.725-2.581-2.958c-0.344-0.432-0.973-0.503-1.405-0.16s-0.504,0.973-0.16,1.405
		c1.716,2.157,3.36,3.776,3.429,3.844C11.492,21.904,11.745,22,11.998,22c0.245,0,0.49-0.089,0.683-0.269
		c0.039-0.036,0.85-0.797,1.924-1.974c0.517,0.153,1.063,0.238,1.629,0.238c3.18,0,5.767-2.586,5.767-5.766
		C22,12.49,21.222,10.931,20,9.873z M10.807,12.296c-0.839-0.435-1.405-1.304-1.405-2.287c0-1.433,1.166-2.598,2.598-2.598
		c0.98,0,1.848,0.564,2.284,1.399C12.667,9.393,11.386,10.677,10.807,12.296z M16.233,17.995c-2.077,0-3.767-1.689-3.767-3.766
		s1.689-3.766,3.767-3.766S20,12.153,20,14.229S18.311,17.995,16.233,17.995z"/>
</g>
</svg>
