<?xml version="1.0" encoding="utf-8"?>
<!-- Generator: Adobe Illustrator 26.5.0, SVG Export Plug-In . SVG Version: 6.00 Build 0)  -->
<svg version="1.1" id="Icons" xmlns="http://www.w3.org/2000/svg" xmlns:xlink="http://www.w3.org/1999/xlink" x="0px" y="0px"
	 viewBox="0 0 24 24" enable-background="new 0 0 24 24" xml:space="preserve">
<path id="Desk-Lamp" d="M21.137,6.868c-1.306-2.002-3.655-3.09-6.009-2.83C13.292,0.49,9.352,2.089,9.262,4.846L6.106,7.915
	C5.909,7.87,5.705,7.842,5.495,7.842c-1.541,0-2.794,1.253-2.794,2.794c0,1.458,1.127,2.645,2.553,2.77l1.639,2.86l-0.347,0
	c-2.812,0.142-3.664,3.134-3.722,4.697c-0.01,0.271,0.091,0.536,0.279,0.731C3.292,21.89,3.552,22,3.824,22h2.104
	c0.552,0,1-0.448,1-1s-0.448-1-1-1H4.996c0.206-0.768,0.65-1.687,1.6-1.735l3.571-0.001c0.98,0.05,1.437,0.97,1.647,1.737H9.343
	c-0.552,0-1,0.448-1,1s0.448,1,1,1h3.647c0.271,0,0.532-0.11,0.72-0.306c0.188-0.195,0.289-0.459,0.279-0.731
	c-0.058-1.562-0.91-4.555-3.772-4.698l-1.02,0l-1.977-3.449c0.645-0.512,1.068-1.294,1.068-2.18c0-0.585-0.182-1.127-0.491-1.577
	l2.154-2.094c0.086,0.126,0.155,0.251,0.259,0.377c-1.089,2.033-0.999,4.503,0.28,6.466c0.181,0.281,0.504,0.456,0.838,0.454
	c0.192,0,0.382-0.056,0.546-0.162l1.331-0.868c0.712,0.863,1.787,1.397,2.938,1.397c2.098,0,3.805-1.707,3.805-3.804
	c0-0.608-0.157-1.186-0.424-1.712l1.322-0.862C21.308,7.95,21.438,7.331,21.137,6.868z M5.495,9.842
	c0.438,0,0.794,0.356,0.794,0.794S5.933,11.43,5.495,11.43s-0.794-0.356-0.794-0.794S5.057,9.842,5.495,9.842z M11.716,11.816
	c-0.468-1.295-0.3-2.755,0.501-3.931c0.227-0.334,0.231-0.771,0.011-1.11c0,0-0.836-1.279-0.836-1.279
	C10.964,4.887,11.459,3.976,12.2,4c0.32-0.003,0.638,0.167,0.807,0.431c0.469,0.606,0.859,1.919,1.853,1.676
	c1.434-0.322,2.921,0.105,3.957,1.081L11.716,11.816z M17.948,10.826c0,0.995-0.81,1.804-1.805,1.804
	c-0.469,0-0.899-0.201-1.228-0.512l2.92-1.904C17.905,10.408,17.948,10.613,17.948,10.826z"/>
</svg>
