<svg fill="#000000" xmlns="http://www.w3.org/2000/svg"  viewBox="0 0 16 16" width="16px" height="16px"><path d="M 5.4589844 2 C 4.6372536 2 4.0294242 2.6051317 3.6191406 3.2734375 C 3.208857 3.9417433 2.959598 4.7257171 2.9589844 5.4277344 C 2.9578959 6.6730099 3.8371847 7.725682 5 7.9511719 L 5 14 L 6 14 L 6 7.9355469 C 7.1228864 7.6793871 7.9589844 6.6456531 7.9589844 5.4296875 C 7.9589844 4.7272971 7.7092731 3.9417752 7.2988281 3.2734375 C 6.8883831 2.6050998 6.2807151 2 5.4589844 2 z M 10 2 L 10 14 L 11 14 L 11 10 L 13 10 L 13 4.5 C 13 4.5 13.0069 3.8966007 12.697266 3.2773438 C 12.387637 2.6580868 11.666667 2 10.5 2 L 10 2 z M 5.4589844 3 C 5.7422536 3 6.1339606 3.2867127 6.4472656 3.796875 C 6.7605706 4.3070373 6.9589844 4.9880779 6.9589844 5.4296875 C 6.9589844 6.3129066 6.2838007 7.0007464 5.4589844 7 C 4.6330758 6.9992526 3.9582128 6.3123797 3.9589844 5.4296875 C 3.9593707 4.9877048 4.1574867 4.3070692 4.4707031 3.796875 C 4.7839195 3.2866808 5.1757151 3 5.4589844 3 z M 11 3.1230469 C 11.402625 3.2441048 11.665696 3.4485797 11.802734 3.7226562 C 11.993106 4.1033994 12 4.5 12 4.5 L 12 9 L 11 9 L 11 3.1230469 z"/></svg>