<?xml version="1.0" encoding="utf-8"?>
<!-- Generator: Adobe Illustrator 25.4.1, SVG Export Plug-In . SVG Version: 6.00 Build 0)  -->
<svg version="1.1" id="Icons" xmlns="http://www.w3.org/2000/svg" xmlns:xlink="http://www.w3.org/1999/xlink" x="0px" y="0px"
	 viewBox="0 0 24 24" style="enable-background:new 0 0 24 24;" xml:space="preserve">
<g id="Dinner">
	<path d="M21.002,16.524c0.134-0.633,0.221-1.266,0.221-1.887c0-4.748-3.607-8.667-8.224-9.167V4.337h0.863c0.553,0,1-0.448,1-1
		s-0.447-1-1-1h-3.732c-0.552,0-1,0.448-1,1s0.448,1,1,1H11v1.145C9.677,5.628,8.391,6.05,7.236,6.748
		c-0.473,0.286-0.624,0.9-0.338,1.373c0.286,0.472,0.901,0.625,1.373,0.338C9.403,7.774,10.692,7.413,12,7.413
		c3.983,0,7.224,3.241,7.224,7.224c0,0.374-0.043,0.756-0.106,1.14c-0.022,0-0.042-0.006-0.063-0.006H4.946
		c-0.022,0-0.042,0.006-0.064,0.006c-0.064-0.384-0.107-0.766-0.107-1.14c0-1.483,0.451-2.913,1.304-4.132
		c0.317-0.453,0.207-1.076-0.246-1.393C5.381,8.795,4.758,8.906,4.441,9.358c-1.09,1.558-1.666,3.383-1.666,5.279
		c0,0.622,0.087,1.255,0.222,1.887C2.391,17.064,2,17.842,2,18.717c0,1.625,1.322,2.946,2.946,2.946h14.107
		c1.625,0,2.946-1.322,2.946-2.946C22,17.842,21.609,17.064,21.002,16.524z M19.054,19.663H4.946C4.424,19.663,4,19.239,4,18.717
		s0.424-0.946,0.946-0.946h14.107c0.521,0,0.946,0.424,0.946,0.946S19.575,19.663,19.054,19.663z"/>
	<path d="M7.237,14.209c0.525,0.124,1.077-0.208,1.199-0.75c0.372-1.619,1.795-2.75,3.46-2.75c1.313-0.021,1.316-1.978,0-2
		c-2.602,0-4.827,1.769-5.409,4.302C6.363,13.548,6.699,14.085,7.237,14.209z"/>
</g>
</svg>
