<?xml version="1.0" encoding="utf-8"?>
<!-- Generator: Adobe Illustrator 25.4.1, SVG Export Plug-In . SVG Version: 6.00 Build 0)  -->
<svg version="1.1" id="Icons" xmlns="http://www.w3.org/2000/svg" xmlns:xlink="http://www.w3.org/1999/xlink" x="0px" y="0px"
	 viewBox="0 0 24 24" style="enable-background:new 0 0 24 24;" xml:space="preserve">
<g id="Directions-1">
	<path d="M13.758,22h-3.522c-0.552,0-1-0.448-1-1v-2.803c0-0.552,0.448-1,1-1s1,0.448,1,1V20h1.523l0.006-7.277
		c0-0.266,0.106-0.52,0.294-0.708l4.742-4.722c0.39-0.389,1.022-0.389,1.413,0.001L20,8.081V4h-4.082l0.799,0.799
		c0.188,0.188,0.293,0.442,0.293,0.708c0,0.265-0.106,0.52-0.293,0.708l-4.01,4.002c-0.391,0.39-1.024,0.389-1.413,0L7.287,6.213
		C7.099,6.026,6.994,5.771,6.994,5.506c0-0.265,0.105-0.52,0.293-0.707L8.085,4H4.004v4.081L4.79,7.295
		c0.391-0.39,1.022-0.391,1.413-0.001l4.738,4.722c0.188,0.188,0.294,0.442,0.294,0.708l0,2.062c0,0.552-0.447,1-1,1
		c-0.552,0-1-0.447-1-1l0-1.647L5.498,9.416l-1.787,1.787c-0.286,0.286-0.716,0.371-1.09,0.217c-0.374-0.155-0.617-0.52-0.617-0.924
		V3c0-0.552,0.448-1,1-1H10.5c0.404,0,0.769,0.244,0.924,0.617c0.155,0.374,0.069,0.804-0.217,1.09L9.408,5.505L12,8.095l2.595-2.59
		l-1.798-1.798c-0.286-0.286-0.372-0.716-0.217-1.09C12.735,2.244,13.1,2,13.504,2H21c0.552,0,1,0.448,1,1v7.495
		c0,0.404-0.244,0.769-0.617,0.924c-0.374,0.155-0.803,0.069-1.09-0.217l-1.788-1.787l-3.741,3.725l-0.007,7.861
		C14.757,21.553,14.31,22,13.758,22z"/>
</g>
</svg>
