<?xml version="1.0" encoding="utf-8"?>
<!-- Generator: Adobe Illustrator 25.4.1, SVG Export Plug-In . SVG Version: 6.00 Build 0)  -->
<svg version="1.1" id="Icons" xmlns="http://www.w3.org/2000/svg" xmlns:xlink="http://www.w3.org/1999/xlink" x="0px" y="0px"
	 viewBox="0 0 24 24" style="enable-background:new 0 0 24 24;" xml:space="preserve">
<g id="Directions-2">
	<path d="M20.293,11.202c0.286,0.287,0.716,0.372,1.09,0.217C21.757,11.264,22,10.899,22,10.495V3c0-0.552-0.447-1-1-1h-7.496
		c-0.404,0-0.77,0.244-0.924,0.617c-0.155,0.374-0.069,0.804,0.217,1.09l1.798,1.798L12,8.095L9.408,5.505l1.799-1.798
		c0.286-0.286,0.372-0.716,0.217-1.09C11.27,2.244,10.904,2,10.5,2H3.004c-0.553,0-1,0.448-1,1v7.495
		c0,0.404,0.243,0.769,0.617,0.924s0.804,0.069,1.09-0.217l1.788-1.788l2.596,2.578l-2.597,2.592l-1.787-1.786
		c-0.286-0.286-0.715-0.371-1.09-0.217c-0.374,0.155-0.617,0.52-0.617,0.924v2.871c0,0.552,0.447,1,1,1s1-0.448,1-1v-0.458
		l0.786,0.786c0.391,0.391,1.022,0.391,1.413,0.001L16.716,6.214c0.188-0.188,0.294-0.442,0.294-0.708
		c0-0.265-0.105-0.52-0.293-0.708L15.918,4H20v4.081l-0.786-0.786c-0.391-0.391-1.022-0.391-1.413-0.001L7.288,17.786
		c-0.188,0.188-0.294,0.442-0.294,0.708c0,0.265,0.105,0.52,0.293,0.708L8.086,20H4.004v-0.214c0-0.552-0.447-1-1-1s-1,0.448-1,1V21
		c0,0.552,0.447,1,1,1H10.5c0.404,0,0.77-0.244,0.924-0.617c0.155-0.374,0.069-0.804-0.217-1.09l-1.798-1.798l2.594-2.589
		l2.592,2.589l-1.799,1.798c-0.286,0.286-0.372,0.716-0.217,1.09C12.734,21.756,13.1,22,13.504,22H21c0.553,0,1-0.448,1-1v-7.495
		c0-0.404-0.243-0.769-0.617-0.924s-0.804-0.07-1.09,0.217l-1.787,1.787l-2.593-2.581l2.593-2.587L20.293,11.202z M6.202,7.293
		C5.811,6.904,5.18,6.906,4.79,7.295L4.004,8.081V4h4.082L7.287,4.799C7.1,4.986,6.994,5.241,6.994,5.506
		c0,0.266,0.105,0.52,0.293,0.708l3.297,3.294l-1.073,1.071L6.202,7.293z M17.801,16.706c0.391,0.389,1.022,0.389,1.413-0.001
		L20,15.919V20h-4.082l0.799-0.799c0.188-0.188,0.293-0.442,0.293-0.707c0-0.266-0.105-0.52-0.293-0.708l-3.297-3.294l1.078-1.076
		L17.801,16.706z"/>
</g>
</svg>
