<?xml version="1.0" encoding="utf-8"?>
<!-- Generator: Adobe Illustrator 25.4.1, SVG Export Plug-In . SVG Version: 6.00 Build 0)  -->
<svg version="1.1" id="Icons" xmlns="http://www.w3.org/2000/svg" xmlns:xlink="http://www.w3.org/1999/xlink" x="0px" y="0px"
	 viewBox="0 0 24 24" style="enable-background:new 0 0 24 24;" xml:space="preserve">
<g id="Discount-coupon">
	<g>
		<path d="M7.96,17.04c-0.256,0-0.512-0.098-0.707-0.293c-0.391-0.391-0.391-1.023,0-1.414l8.08-8.08
			c0.391-0.391,1.023-0.391,1.414,0s0.391,1.023,0,1.414l-8.08,8.08C8.472,16.942,8.216,17.04,7.96,17.04z"/>
	</g>
	<g>
		<g>
			<path d="M9.125,11.694c-1.432,0-2.597-1.165-2.597-2.596c0-1.432,1.165-2.597,2.597-2.597s2.597,1.165,2.597,2.597
				C11.722,10.529,10.557,11.694,9.125,11.694z M9.125,8.5c-0.329,0-0.597,0.268-0.597,0.597c0,0.329,0.268,0.596,0.597,0.596
				s0.597-0.268,0.597-0.596C9.722,8.769,9.454,8.5,9.125,8.5z"/>
		</g>
		<g>
			<path d="M14.875,17.5c-1.432,0-2.597-1.165-2.597-2.597c0-1.432,1.165-2.597,2.597-2.597s2.597,1.165,2.597,2.597
				C17.472,16.334,16.307,17.5,14.875,17.5z M14.875,14.306c-0.329,0-0.597,0.268-0.597,0.597s0.268,0.597,0.597,0.597
				s0.597-0.268,0.597-0.597S15.204,14.306,14.875,14.306z"/>
		</g>
	</g>
	<g>
		<path d="M19.219,21.998h-4.762c-0.409,0-0.776-0.249-0.929-0.628c-0.469-1.171-1.392-1.212-1.495-1.213
			c-1.205,0.094-1.489,0.917-1.534,1.08c-0.117,0.437-0.519,0.761-0.971,0.761H4.781c-0.553,0-1-0.448-1-1v-6.336
			c0-0.552,0.447-1,1-1s1,0.448,1,1v5.336h3.08c0.459-0.816,1.408-1.71,3.082-1.838c0.8-0.021,2.259,0.353,3.135,1.838h3.141V4.002
			h-2.986c-0.459,0.816-1.408,1.71-3.082,1.838c-0.804,0.032-2.258-0.353-3.135-1.838H5.781v7.25c0,0.552-0.447,1-1,1s-1-0.448-1-1
			v-8.25c0-0.552,0.447-1,1-1h4.855c0.409,0,0.776,0.249,0.929,0.628c0.469,1.171,1.392,1.212,1.495,1.213
			c1.205-0.094,1.489-0.917,1.534-1.08c0.117-0.437,0.519-0.761,0.971-0.761h4.653c0.553,0,1,0.448,1,1v17.996
			C20.219,21.55,19.771,21.998,19.219,21.998z"/>
	</g>
</g>
</svg>
