<?xml version="1.0" encoding="utf-8"?>
<!-- Generator: Adobe Illustrator 25.4.1, SVG Export Plug-In . SVG Version: 6.00 Build 0)  -->
<svg version="1.1" id="Icons" xmlns="http://www.w3.org/2000/svg" xmlns:xlink="http://www.w3.org/1999/xlink" x="0px" y="0px"
	 viewBox="0 0 24 24" style="enable-background:new 0 0 24 24;" xml:space="preserve">
<g id="Discount-dollar">
	<g>
		<path d="M19.219,21.998h-4.761c-0.409,0-0.776-0.249-0.928-0.628c-0.469-1.171-1.393-1.213-1.496-1.213
			c-1.205,0.094-1.49,0.917-1.534,1.08c-0.118,0.437-0.52,0.761-0.971,0.761H4.781c-0.552,0-1-0.448-1-1v-6.336c0-0.552,0.448-1,1-1
			s1,0.448,1,1v5.336h3.081c0.459-0.816,1.408-1.71,3.081-1.838c0.817-0.038,2.259,0.353,3.136,1.838h3.14V4.002h-2.987
			c-0.459,0.816-1.408,1.71-3.081,1.838c-0.84,0.019-2.259-0.354-3.136-1.838H5.781v7.25c0,0.552-0.448,1-1,1s-1-0.448-1-1v-8.25
			c0-0.552,0.448-1,1-1h4.855c0.409,0,0.776,0.249,0.928,0.628c0.469,1.171,1.393,1.213,1.496,1.213
			c1.205-0.094,1.49-0.917,1.534-1.08c0.118-0.437,0.52-0.761,0.971-0.761h4.653c0.552,0,1,0.448,1,1v17.996
			C20.219,21.55,19.771,21.998,19.219,21.998z"/>
	</g>
	<path d="M13.879,14.21l-3.721,0.012c-0.07-0.58-0.535-1.108-1.169-1.014c-0.547,0.074-0.931,0.578-0.857,1.125
		c0.186,1.374,1.264,1.873,1.943,1.873h0.936v0.378c0,0.552,0.448,1,1,1s1-0.448,1-1v-0.378h1.047
		c1.213-0.086,1.903-1.313,1.82-2.129l0-1.083c-0.056-1.279-1.07-1.956-2.01-2.009l-3.746-0.003l0-1.215l3.506-0.002
		c0.078,0.005,0.222,0.015,0.276,0.197c0.3,1.256,2.185,0.87,1.958-0.409c-0.112-0.575-0.693-1.688-2.166-1.785l-0.684,0v-0.35
		c0-0.552-0.448-1-1-1s-1,0.448-1,1v0.351l-0.9,0.001C9.229,7.817,8.175,8.527,8.122,9.742l0.001,1.231
		c0.038,0.769,0.603,1.939,2.059,2.011h3.697L13.879,14.21z"/>
</g>
</svg>
