<?xml version="1.0" encoding="utf-8"?>
<!-- Generator: Adobe Illustrator 25.4.1, SVG Export Plug-In . SVG Version: 6.00 Build 0)  -->
<svg version="1.1" id="Icons" xmlns="http://www.w3.org/2000/svg" xmlns:xlink="http://www.w3.org/1999/xlink" x="0px" y="0px"
	 viewBox="0 0 24 24" style="enable-background:new 0 0 24 24;" xml:space="preserve">
<g id="Discount-euro">
	<path d="M6.987,13.373c0,0.552,0.448,1,1,1h0.894c0.884,1.814,2.741,3.07,4.891,3.07c0.961,0,1.885-0.257,2.747-0.764
		c0.477-0.28,0.635-0.893,0.355-1.369c-0.28-0.476-0.893-0.636-1.369-0.355c-0.551,0.324-1.134,0.488-1.733,0.488
		c-0.977,0-1.856-0.414-2.483-1.07h2.681c0.553,0,1-0.448,1-1s-0.447-1-1-1h-3.602C10.354,12.249,10.33,12.128,10.33,12
		s0.024-0.249,0.038-0.373h3.602c0.553,0,1-0.448,1-1s-0.447-1-1-1h-2.681c0.627-0.656,1.506-1.07,2.483-1.07
		c0.6,0,1.183,0.164,1.733,0.488c0.477,0.28,1.089,0.121,1.369-0.355c0.279-0.476,0.121-1.089-0.355-1.369
		c-0.862-0.507-1.786-0.764-2.747-0.764c-2.15,0-4.007,1.256-4.891,3.07H7.987c-0.552,0-1,0.448-1,1s0.448,1,1,1h0.361
		C8.34,11.751,8.33,11.874,8.33,12s0.01,0.249,0.019,0.373H7.987C7.435,12.373,6.987,12.821,6.987,13.373z"/>
	<path d="M19.219,2.002h-4.653c-0.452,0-0.854,0.325-0.971,0.761c-0.045,0.164-0.329,0.986-1.534,1.08
		c-0.104,0-1.027-0.042-1.496-1.213c-0.152-0.379-0.52-0.628-0.928-0.628H4.781c-0.552,0-1,0.448-1,1v8.25c0,0.552,0.448,1,1,1
		s1-0.448,1-1v-7.25h3.234c0.876,1.485,2.302,1.868,3.136,1.838c1.673-0.128,2.623-1.022,3.082-1.838h2.986v15.996h-3.141
		c-0.876-1.485-2.311-1.88-3.135-1.838c-1.673,0.128-2.622,1.022-3.081,1.838H5.781v-5.336c0-0.552-0.448-1-1-1s-1,0.448-1,1v6.336
		c0,0.552,0.448,1,1,1h4.747c0.452,0,0.853-0.325,0.971-0.761c0.044-0.164,0.329-0.986,1.534-1.08c0.104,0,1.026,0.042,1.495,1.213
		c0.152,0.379,0.52,0.628,0.929,0.628h4.762c0.553,0,1-0.448,1-1V3.002C20.219,2.45,19.771,2.002,19.219,2.002z"/>
</g>
</svg>
