<?xml version="1.0" encoding="utf-8"?>
<!-- Generator: Adobe Illustrator 25.4.1, SVG Export Plug-In . SVG Version: 6.00 Build 0)  -->
<svg version="1.1" id="Icons" xmlns="http://www.w3.org/2000/svg" xmlns:xlink="http://www.w3.org/1999/xlink" x="0px" y="0px"
	 viewBox="0 0 24 24" style="enable-background:new 0 0 24 24;" xml:space="preserve">
<g id="Discount-pound">
	<path d="M8.85,15.036c-0.553,0-1,0.448-1,1s0.447,1,1,1h6.301c0.553,0,1-0.448,1-1s-0.447-1-1-1h-3.748v-1.775h1.721
		c0.553,0,1-0.448,1-1s-0.447-1-1-1h-1.721v-0.722c0-0.869,0.707-1.575,1.575-1.575c0.421,0,0.815,0.164,1.113,0.461
		c0.391,0.392,1.023,0.391,1.414,0.001c0.391-0.39,0.391-1.023,0-1.414c-0.675-0.676-1.572-1.048-2.527-1.048
		c-1.972,0-3.575,1.604-3.575,3.575v0.722H8.85c-0.553,0-1,0.448-1,1s0.447,1,1,1h0.553v1.775H8.85z"/>
	<path d="M19.219,2.002h-4.653c-0.452,0-0.854,0.325-0.971,0.761c-0.045,0.164-0.329,0.986-1.534,1.08
		c-0.104,0-1.026-0.042-1.495-1.213c-0.152-0.379-0.52-0.628-0.929-0.628H4.781c-0.553,0-1,0.448-1,1v8.25c0,0.552,0.447,1,1,1
		s1-0.448,1-1v-7.25h3.234c0.876,1.486,2.338,1.87,3.135,1.838c1.674-0.128,2.623-1.022,3.082-1.838h2.986v15.996h-3.141
		c-0.877-1.486-2.328-1.86-3.135-1.838c-1.674,0.128-2.623,1.022-3.082,1.838h-3.08v-5.336c0-0.552-0.447-1-1-1s-1,0.448-1,1v6.336
		c0,0.552,0.447,1,1,1h4.747c0.452,0,0.854-0.325,0.971-0.761c0.045-0.164,0.329-0.986,1.534-1.08c0.104,0,1.026,0.042,1.495,1.213
		c0.152,0.379,0.52,0.628,0.929,0.628h4.762c0.553,0,1-0.448,1-1V3.002C20.219,2.45,19.771,2.002,19.219,2.002z"/>
</g>
</svg>
