<?xml version="1.0" encoding="utf-8"?>
<!-- Generator: Adobe Illustrator 25.4.1, SVG Export Plug-In . SVG Version: 6.00 Build 0)  -->
<svg version="1.1" id="Icons" xmlns="http://www.w3.org/2000/svg" xmlns:xlink="http://www.w3.org/1999/xlink" x="0px" y="0px"
	 viewBox="0 0 24 24" style="enable-background:new 0 0 24 24;" xml:space="preserve">
<g id="Dish">
	<g>
		<path d="M12,18.006c-3.312,0-6.006-2.694-6.006-6.006S8.688,5.994,12,5.994c3.312,0,6.007,2.694,6.007,6.006
			S15.312,18.006,12,18.006z M12,7.994c-2.209,0-4.006,1.797-4.006,4.006S9.791,16.006,12,16.006s4.007-1.797,4.007-4.006
			S14.209,7.994,12,7.994z"/>
	</g>
	<g>
		<path d="M12,22C6.486,22,2,17.514,2,12c0-2.072,0.635-4.065,1.836-5.764C4.155,5.785,4.779,5.678,5.23,5.997
			C5.681,6.316,5.788,6.94,5.469,7.391C4.508,8.75,4,10.344,4,12c0,4.411,3.589,8,8,8s8-3.589,8-8s-3.589-8-8-8
			c-1.542,0-3.044,0.446-4.344,1.289C7.191,5.588,6.573,5.457,6.273,4.994C5.972,4.531,6.104,3.911,6.567,3.611
			C8.192,2.557,10.07,2,12,2c5.514,0,10,4.486,10,10S17.514,22,12,22z"/>
	</g>
</g>
</svg>
