<?xml version="1.0" encoding="utf-8"?>
<!-- Generator: Adobe Illustrator 25.4.1, SVG Export Plug-In . SVG Version: 6.00 Build 0)  -->
<svg version="1.1" id="Icons" xmlns="http://www.w3.org/2000/svg" xmlns:xlink="http://www.w3.org/1999/xlink" x="0px" y="0px"
	 viewBox="0 0 24 24" style="enable-background:new 0 0 24 24;" xml:space="preserve">
<g id="Dishes">
	<path d="M21.012,16.317C21.66,14.974,22,13.507,22,12c0-5.514-4.486-10-10-10c-1.93,0-3.808,0.557-5.433,1.611
		c-0.463,0.3-0.595,0.92-0.294,1.383c0.3,0.463,0.918,0.595,1.383,0.294C8.956,4.446,10.458,4,12,4c4.411,0,8,3.589,8,8
		c0,1.538-0.456,3.019-1.293,4.314h-2.538c1.131-1.093,1.837-2.621,1.837-4.314c0-3.312-2.694-6.006-6.007-6.006
		c-3.312,0-6.006,2.694-6.006,6.006c0,1.693,0.707,3.222,1.837,4.314H5.293C4.456,15.02,4,13.538,4,12
		c0-1.656,0.508-3.25,1.469-4.609C5.788,6.94,5.681,6.316,5.23,5.997C4.779,5.678,4.155,5.785,3.836,6.236C2.635,7.935,2,9.928,2,12
		c0,1.507,0.34,2.974,0.989,4.317c-0.267,0.003-0.523,0.111-0.709,0.304C2.091,16.816,1.991,17.08,2,17.352
		C2.058,18.897,2.901,21.858,5.736,22l12.58-0.001c2.783-0.14,3.627-3.101,3.684-4.647c0.011-0.271-0.091-0.535-0.279-0.73
		C21.534,16.428,21.279,16.32,21.012,16.317z M12,7.994c2.209,0,4.007,1.797,4.007,4.006S14.209,16.006,12,16.006
		S7.994,14.209,7.994,12S9.791,7.994,12,7.994z M18.265,20L5.786,20.001c-0.952-0.048-1.4-0.938-1.608-1.687h15.648
		C19.623,19.064,19.188,19.953,18.265,20z"/>
</g>
</svg>
