<?xml version="1.0" encoding="utf-8"?>
<!-- Generator: Adobe Illustrator 25.4.1, SVG Export Plug-In . SVG Version: 6.00 Build 0)  -->
<svg version="1.1" id="Icons" xmlns="http://www.w3.org/2000/svg" xmlns:xlink="http://www.w3.org/1999/xlink" x="0px" y="0px"
	 viewBox="0 0 24 24" style="enable-background:new 0 0 24 24;" xml:space="preserve">
<g id="Distance-1">
	<path d="M5.203,7.521C5.398,7.717,5.654,7.814,5.91,7.814s0.512-0.098,0.707-0.293c0.391-0.391,0.391-1.023,0-1.414L6.413,5.903
		h11.173l-0.203,0.203c-0.391,0.391-0.391,1.023,0,1.414c0.195,0.195,0.451,0.293,0.707,0.293s0.512-0.098,0.707-0.293l1.91-1.91
		c0.391-0.391,0.391-1.023,0-1.414l-1.913-1.913c-0.391-0.391-1.023-0.391-1.414,0c-0.391,0.39-0.391,1.023,0,1.414l0.206,0.206
		H6.415L6.62,3.698c0.391-0.391,0.391-1.024,0-1.414c-0.391-0.391-1.023-0.391-1.414,0L3.293,4.197
		c-0.391,0.391-0.391,1.023,0,1.414L5.203,7.521z"/>
	<path d="M20.219,13.821c0.321-0.52,0.516-1.127,0.516-1.782c0-1.879-1.53-3.409-3.41-3.409c-1.88,0-3.41,1.529-3.41,3.409
		c0,0.655,0.195,1.262,0.516,1.782c-1.099,0.816-1.798,2.114-1.798,3.518L12.63,21c0,0.266,0.105,0.52,0.292,0.708
		c0.188,0.188,0.442,0.293,0.708,0.293h7.383c0.552,0,1-0.447,1-0.999l0.003-3.663C22.017,15.935,21.318,14.637,20.219,13.821z
		 M17.325,10.63c0.777,0,1.41,0.632,1.41,1.409c0,0.777-0.633,1.41-1.41,1.41s-1.41-0.633-1.41-1.41
		C15.916,11.262,16.548,10.63,17.325,10.63z M20.015,20.001h-5.383l0.002-2.662c0-0.92,0.552-1.759,1.379-2.155
		c0.404,0.169,0.847,0.264,1.313,0.264c0.465,0,0.908-0.095,1.313-0.264c0.827,0.396,1.379,1.235,1.379,2.154L20.015,20.001z"/>
	<path d="M9.569,13.821c0.322-0.52,0.516-1.127,0.516-1.782c0-1.879-1.53-3.409-3.41-3.409c-1.88,0-3.41,1.529-3.41,3.409
		c0,0.655,0.195,1.262,0.516,1.782c-1.099,0.817-1.798,2.114-1.798,3.518L1.98,21c0,0.266,0.105,0.52,0.292,0.708
		c0.188,0.188,0.442,0.293,0.708,0.293h1.988c0.552,0,1-0.448,1-1s-0.448-1-1-1H3.981l0.002-2.662c0-0.92,0.552-1.759,1.378-2.155
		c0.405,0.17,0.848,0.265,1.313,0.265c0.465,0,0.908-0.095,1.312-0.264c0.827,0.396,1.379,1.235,1.379,2.154l-0.002,2.663H8.378
		c-0.552,0-1,0.448-1,1s0.448,1,1,1h1.985c0.552,0,1-0.447,1-0.999l0.003-3.663C11.367,15.935,10.668,14.637,9.569,13.821z
		 M5.265,12.039c0-0.777,0.633-1.409,1.41-1.409s1.41,0.632,1.41,1.409c0,0.777-0.632,1.41-1.41,1.41S5.265,12.816,5.265,12.039z"/>
</g>
</svg>
