<?xml version="1.0" encoding="utf-8"?>
<!-- Generator: Adobe Illustrator 25.4.1, SVG Export Plug-In . SVG Version: 6.00 Build 0)  -->
<svg version="1.1" id="Icons" xmlns="http://www.w3.org/2000/svg" xmlns:xlink="http://www.w3.org/1999/xlink" x="0px" y="0px"
	 viewBox="0 0 24 24" style="enable-background:new 0 0 24 24;" xml:space="preserve">
<g id="Distance-2">
	<path d="M7.915,10.812c1.592,0,2.888-1.295,2.888-2.888S9.507,5.036,7.915,5.036S5.027,6.332,5.027,7.924
		S6.323,10.812,7.915,10.812z M7.915,7.036c0.489,0,0.888,0.398,0.888,0.888S8.404,8.812,7.915,8.812S7.027,8.413,7.027,7.924
		S7.426,7.036,7.915,7.036z"/>
	<path d="M19.794,16.468c-0.391-0.391-1.023-0.391-1.414,0s-0.391,1.023,0,1.414l0.206,0.206H5.416l0.205-0.205
		c0.391-0.391,0.391-1.023,0-1.414s-1.023-0.391-1.414,0l-1.913,1.913c-0.391,0.391-0.391,1.023,0,1.414l1.91,1.91
		C4.398,21.902,4.654,22,4.91,22s0.512-0.098,0.707-0.293c0.391-0.391,0.391-1.023,0-1.414l-0.205-0.205h13.174l-0.204,0.204
		c-0.391,0.391-0.391,1.024,0,1.414c0.195,0.195,0.451,0.293,0.707,0.293s0.512-0.098,0.707-0.293l1.91-1.911
		c0.391-0.391,0.391-1.023,0-1.414L19.794,16.468z"/>
	<path d="M4.922,12.191c0.462-0.302,0.593-0.921,0.291-1.384C4.21,9.271,4,8.386,4,7.915C4,5.756,5.756,4,7.915,4
		s3.915,1.756,3.915,3.915c0,1.708-2.166,4.504-3.898,6.289c-0.21-0.226-0.457-0.497-0.722-0.8
		c-0.363-0.415-0.995-0.458-1.411-0.096c-0.416,0.363-0.459,0.995-0.096,1.411c0.832,0.953,1.482,1.593,1.51,1.62
		c0.194,0.191,0.447,0.287,0.701,0.287c0.245,0,0.49-0.089,0.683-0.269c0.314-0.293,2.05-1.955,3.439-3.973
		c1.452,2.086,3.257,3.865,3.349,3.956c0.194,0.19,0.447,0.286,0.7,0.286c0.245,0,0.49-0.089,0.683-0.27
		C17.303,15.854,22,11.366,22,7.914c0-3.262-2.653-5.915-5.915-5.915c-1.542,0-2.994,0.604-4.084,1.649C10.938,2.63,9.5,2,7.915,2
		C4.653,2,2,4.653,2,7.915c0,1.096,0.503,2.399,1.538,3.985C3.84,12.362,4.46,12.492,4.922,12.191z M16.085,3.999
		C18.244,3.999,20,5.755,20,7.914c0,1.708-2.165,4.504-3.897,6.289c-0.775-0.832-2.044-2.287-2.94-3.752
		c0.172-0.367,0.318-0.734,0.429-1.099c0.499,0.867,1.424,1.458,2.494,1.458c1.592,0,2.888-1.295,2.888-2.888
		s-1.296-2.888-2.888-2.888c-1.04,0-1.945,0.558-2.454,1.385c-0.105-0.399-0.249-0.782-0.43-1.143
		C13.938,4.47,14.977,3.999,16.085,3.999z M15.197,7.923c0-0.489,0.398-0.888,0.888-0.888s0.888,0.398,0.888,0.888
		s-0.398,0.888-0.888,0.888S15.197,8.412,15.197,7.923z"/>
</g>
</svg>
