<?xml version="1.0" encoding="utf-8"?>
<!-- Generator: Adobe Illustrator 25.4.1, SVG Export Plug-In . SVG Version: 6.00 Build 0)  -->
<svg version="1.1" id="Icons" xmlns="http://www.w3.org/2000/svg" xmlns:xlink="http://www.w3.org/1999/xlink" x="0px" y="0px"
	 viewBox="0 0 24 24" style="enable-background:new 0 0 24 24;" xml:space="preserve">
<g id="Donut">
	<path d="M8.209,12c0,2.09,1.701,3.791,3.791,3.791S15.791,14.09,15.791,12S14.09,8.209,12,8.209S8.209,9.91,8.209,12z M13.791,12
		c0,0.988-0.803,1.791-1.791,1.791S10.209,12.988,10.209,12s0.803-1.791,1.791-1.791S13.791,11.012,13.791,12z"/>
	<path d="M17.687,12.333c0.147,0.076,0.304,0.112,0.459,0.112c0.362,0,0.711-0.197,0.889-0.54c0.254-0.49,0.063-1.094-0.428-1.348
		l-0.294-0.152c-0.491-0.254-1.094-0.063-1.348,0.428c-0.254,0.49-0.063,1.094,0.428,1.348L17.687,12.333z"/>
	<path d="M4.965,11.905c0.178,0.343,0.527,0.54,0.889,0.54c0.155,0,0.312-0.036,0.459-0.112l0.294-0.152
		c0.491-0.254,0.682-0.857,0.428-1.348c-0.253-0.49-0.855-0.681-1.348-0.428l-0.294,0.152C4.902,10.811,4.711,11.415,4.965,11.905z"
		/>
	<path d="M15.184,8c0.1,0,0.202-0.015,0.302-0.047l0.315-0.1c0.526-0.166,0.819-0.728,0.652-1.255
		c-0.167-0.526-0.73-0.817-1.255-0.652l-0.315,0.1c-0.526,0.167-0.819,0.728-0.652,1.255C14.366,7.728,14.76,8,15.184,8z"/>
	<path d="M9.117,6.046l-0.315-0.1C8.276,5.781,7.713,6.072,7.546,6.599s0.126,1.088,0.652,1.255l0.315,0.1
		C8.614,7.985,8.716,8,8.816,8C9.24,8,9.634,7.728,9.769,7.301C9.936,6.774,9.643,6.213,9.117,6.046z"/>
	<path d="M12,2c-1.93,0-3.808,0.557-5.433,1.611c-0.463,0.3-0.595,0.92-0.294,1.383c0.3,0.462,0.917,0.594,1.383,0.294
		C8.956,4.446,10.458,4,12,4c4.411,0,8,3.589,8,8c0,1.412-0.371,2.737-1.015,3.89c-0.558-0.466-1.313-0.938-2.512-0.938
		c-1.505,0-2.316,0.744-2.909,1.287C13.046,16.713,12.734,17,12.006,17c-0.727,0-1.04-0.287-1.557-0.761
		c-0.592-0.543-1.403-1.287-2.909-1.287c-1.205,0-1.961,0.476-2.521,0.945C4.373,14.742,4,13.414,4,12
		c0-1.656,0.508-3.25,1.469-4.609C5.788,6.94,5.681,6.316,5.23,5.997C4.778,5.678,4.156,5.785,3.836,6.236C2.635,7.935,2,9.928,2,12
		c0,5.514,4.486,10,10,10s10-4.486,10-10S17.514,2,12,2z M12,20c-2.276,0-4.329-0.961-5.787-2.492
		c0.393-0.346,0.716-0.556,1.327-0.556c0.728,0,1.04,0.287,1.558,0.761C9.69,18.256,10.501,19,12.006,19
		c1.506,0,2.317-0.744,2.909-1.287c0.518-0.474,0.83-0.761,1.557-0.761c0.607,0,0.93,0.208,1.32,0.55C16.334,19.037,14.279,20,12,20
		z"/>
</g>
</svg>
