<svg fill="#000000" xmlns="http://www.w3.org/2000/svg"  viewBox="0 0 16 16" width="16px" height="16px"><path d="M 5.5 1 C 4.8162698 1 4.2589844 1.3046875 3.7714844 1.5546875 C 3.2839844 1.8046875 2.8662698 2 2.5 2 A 0.50005 0.50005 0 0 0 2 2.5 L 2 12.5 A 0.50005 0.50005 0 0 0 2.5 13 C 2.9611111 13 3.3564475 13.194012 3.8203125 13.441406 C 4.2841775 13.688801 4.8162698 14 5.5 14 C 6.1837302 14 6.7158225 13.688801 7.1796875 13.441406 C 7.6435525 13.194012 8.0388889 13 8.5 13 A 0.50005 0.50005 0 0 0 9 12.5 L 9 7.578125 C 9.320539 7.6976915 9.6239722 7.82463 9.921875 7.9570312 C 11.034314 8.4514486 12.154762 9 14 9 C 14.546531 9 15 8.5465314 15 8 C 15 7.4534686 14.546531 7 14 7 C 12.392857 7 11.399275 6.3323546 10.205078 5.578125 C 9.8320032 5.3424987 9.4271823 5.1086986 9 4.8867188 L 9 2.5 A 0.50005 0.50005 0 0 0 8.5 2 C 8.1337302 2 7.7160156 1.8046875 7.2285156 1.5546875 C 6.7410156 1.3046875 6.1837302 1 5.5 1 z M 5.5 2 C 5.8662698 2 6.2839844 2.1953125 6.7714844 2.4453125 C 7.1179917 2.6230086 7.5627376 2.7358228 8 2.8398438 L 8 4.4355469 C 7.2996719 4.1815632 6.5042916 4.0089913 5.5585938 4.0019531 A 0.50005 0.50005 0 0 0 5.5 4 A 0.50005 0.50005 0 0 0 5.3808594 4.0117188 C 4.6139164 4.0742105 4 4.7181714 4 5.5 C 4 6.2838101 4.6170479 6.9286236 5.3867188 6.9882812 A 0.50005 0.50005 0 0 0 5.5 7 C 6.5365561 7 7.3261482 7.1100457 8 7.2734375 L 8 12.15625 C 7.528711 12.259286 7.0503711 12.376521 6.7089844 12.558594 C 6.2353494 12.811199 5.8662698 13 5.5 13 C 5.1337302 13 4.7646506 12.811199 4.2910156 12.558594 C 3.9496289 12.376521 3.471289 12.259286 3 12.15625 L 3 2.8398438 C 3.4372624 2.7358228 3.8820083 2.6230086 4.2285156 2.4453125 C 4.7160156 2.1953125 5.1337302 2 5.5 2 z M 5.5 5 C 7.375 5 8.4891188 5.6761046 9.6699219 6.421875 C 10.676884 7.0578512 11.742287 7.7513436 13.207031 7.9433594 C 12.047705 7.8214092 11.262748 7.4583568 10.328125 7.0429688 C 9.1986158 6.5409646 7.8410753 6.0094784 5.546875 6.0019531 C 5.5427719 6.0019397 5.5392653 6.0000101 5.5351562 6 A 0.50005 0.50005 0 0 0 5.5 6 C 5.2185314 6 5 5.7814686 5 5.5 C 5 5.2185314 5.2185314 5 5.5 5 z M 5.4921875 8.9921875 A 0.50005 0.50005 0 0 0 5 9.5 L 5 10.5 A 0.50005 0.50005 0 1 0 6 10.5 L 6 9.5 A 0.50005 0.50005 0 0 0 5.4921875 8.9921875 z"/></svg>