<?xml version="1.0" encoding="utf-8"?>
<!-- Generator: Adobe Illustrator 16.0.0, SVG Export Plug-In . SVG Version: 6.00 Build 0)  -->
<!DOCTYPE svg PUBLIC "-//W3C//DTD SVG 1.1//EN" "http://www.w3.org/Graphics/SVG/1.1/DTD/svg11.dtd">
<svg version="1.1" id="Icons" xmlns="http://www.w3.org/2000/svg" xmlns:xlink="http://www.w3.org/1999/xlink" x="0px" y="0px"
	 width="24px" height="24px" viewBox="0 0 24 24" enable-background="new 0 0 24 24" xml:space="preserve">
<path id="Double-check" d="M2.451,11.482l6.371,6.37c0,0,0.662,0.648,1.414,0L21.549,6.54c0.391-0.391,0.391-1.023,0-1.414
	l-2.832-2.833c-0.375-0.375-1.04-0.375-1.415,0l-1.213,1.214c-0.39,0.391-0.39,1.024,0,1.415c0.391,0.39,1.024,0.39,1.415,0
	l0.505-0.506l1.418,1.418L9.529,15.73l-1.418-1.418l6.98-6.979c0.391-0.39,0.391-1.023,0-1.414s-1.023-0.391-1.414,0l-4.149,4.148
	L6.697,7.237c-0.391-0.391-1.023-0.39-1.414,0l-2.832,2.831C1.766,10.844,2.451,11.482,2.451,11.482z M5.99,9.358l2.124,2.124
	l-1.417,1.417l-2.124-2.125L5.99,9.358z M8.822,21.707l-6.371-6.37c-0.391-0.39-0.391-1.023,0-1.414s1.023-0.391,1.414,0
	l5.664,5.663L20.135,8.981c0.391-0.391,1.023-0.391,1.414,0s0.391,1.023,0,1.414L10.236,21.707
	C9.529,22.414,8.822,21.707,8.822,21.707z"/>
</svg>
