<?xml version="1.0" encoding="utf-8"?>
<!-- Generator: Adobe Illustrator 26.5.0, SVG Export Plug-In . SVG Version: 6.00 Build 0)  -->
<svg version="1.1" id="Icons" xmlns="http://www.w3.org/2000/svg" xmlns:xlink="http://www.w3.org/1999/xlink" x="0px" y="0px"
	 viewBox="0 0 24 24" enable-background="new 0 0 24 24" xml:space="preserve">
<path id="Double-Bed" d="M20.728,11.503c0.004-0.038,0.022-0.072,0.022-0.111V5.994c0-1.926-1.567-3.494-3.493-3.494H6.743
	C4.817,2.5,3.25,4.067,3.25,5.994V6.67c0,0.552,0.447,1,1,1s1-0.448,1-1V5.994C5.25,5.17,5.92,4.5,6.743,4.5h10.514
	c0.823,0,1.493,0.67,1.493,1.494v4.478c-0.255-0.051-0.518-0.08-0.787-0.08v-1.14c0-1.384-1.126-2.51-2.51-2.51H13.51
	c-0.569,0-1.088,0.198-1.51,0.518c-0.421-0.32-0.941-0.518-1.51-0.518H8.547c-1.384,0-2.51,1.126-2.51,2.51v1.14
	c-0.27,0-0.532,0.029-0.787,0.08v-0.387c0-0.552-0.447-1-1-1s-1,0.448-1,1v1.307c0,0.039,0.018,0.073,0.022,0.111
	c-0.779,0.736-1.271,1.772-1.271,2.926v4.179c0,0.552,0.447,1,1,1H4.5V20.5c0,0.552,0.447,1,1,1s1-0.448,1-1v-0.892h11V20.5
	c0,0.552,0.447,1,1,1s1-0.448,1-1v-0.892h1.499c0.553,0,1-0.448,1-1v-4.179C21.999,13.275,21.506,12.24,20.728,11.503z M13.51,8.743
	h1.943c0.281,0,0.51,0.229,0.51,0.51v1.14H13v-1.14C13,8.971,13.229,8.743,13.51,8.743z M8.037,9.252c0-0.281,0.229-0.51,0.51-0.51
	h1.943c0.281,0,0.51,0.229,0.51,0.51v1.14H8.037V9.252z M17.963,12.392c1.059,0,1.921,0.815,2.017,1.85H4.02
	c0.096-1.034,0.958-1.85,2.017-1.85H17.963z M4.001,17.608v-1.366h15.998v1.366H4.001z"/>
</svg>
