<?xml version="1.0" encoding="utf-8"?>
<!-- Generator: Adobe Illustrator 16.0.0, SVG Export Plug-In . SVG Version: 6.00 Build 0)  -->
<!DOCTYPE svg PUBLIC "-//W3C//DTD SVG 1.1//EN" "http://www.w3.org/Graphics/SVG/1.1/DTD/svg11.dtd">
<svg version="1.1" id="Icons" xmlns="http://www.w3.org/2000/svg" xmlns:xlink="http://www.w3.org/1999/xlink" x="0px" y="0px"
	 width="24px" height="24px" viewBox="0 0 24 24" enable-background="new 0 0 24 24" xml:space="preserve">
<path id="Down" d="M18,2H6C3.794,2,2,3.794,2,6v12c0,2.206,1.794,4,4,4h12c2.206,0,4-1.794,4-4V6C22,3.794,20.206,2,18,2z M20,6
	v0.603l-5.001,4.991V4H18C19.103,4,20,4.897,20,6z M6,4h2.999v7.586L4,6.586V6C4,4.897,4.897,4,6,4z M4,18v-3.586l1.376,1.376
	c0.195,0.195,0.451,0.293,0.707,0.293s0.512-0.098,0.707-0.293c0.391-0.391,0.391-1.023,0-1.414L4,11.585V9.414l5.292,5.293
	C9.483,14.898,9.739,15,9.999,15c0.129,0,0.259-0.024,0.383-0.076c0.374-0.154,0.617-0.52,0.617-0.924V4h2v10.004
	c0,0.404,0.244,0.769,0.617,0.924c0.124,0.051,0.254,0.076,0.383,0.076c0.26,0,0.515-0.102,0.707-0.292L20,9.429v2.173l-8.001,7.984
	l-2.795-2.795c-0.391-0.391-1.023-0.391-1.414,0s-0.391,1.023,0,1.414L9.584,20H6C4.897,20,4,19.103,4,18z M18,20h-3.584L20,14.428
	V18C20,19.103,19.103,20,18,20z"/>
</svg>
