<?xml version="1.0" encoding="utf-8"?>
<!-- Generator: Adobe Illustrator 16.0.0, SVG Export Plug-In . SVG Version: 6.00 Build 0)  -->
<!DOCTYPE svg PUBLIC "-//W3C//DTD SVG 1.1//EN" "http://www.w3.org/Graphics/SVG/1.1/DTD/svg11.dtd">
<svg version="1.1" id="Icons" xmlns="http://www.w3.org/2000/svg" xmlns:xlink="http://www.w3.org/1999/xlink" x="0px" y="0px"
	 width="24px" height="24px" viewBox="0 0 24 24" enable-background="new 0 0 24 24" xml:space="preserve">
<path id="Down-Left" d="M16.59,21.138L16.59,21.138L3.873,21.125c-0.552-0.001-0.999-0.448-0.999-1l0.001-4.952c0-0.553,0.448-1,1-1
	l0,0c0.553,0,1,0.448,1,1l-0.001,3.953l11.302,0.012l1.538-1.537l-7.479-0.008c-0.404,0-0.769-0.244-0.923-0.618
	c-0.154-0.373-0.069-0.803,0.217-1.089l7.074-7.074l-1.414-1.414l-7.071,7.071c-0.287,0.286-0.716,0.373-1.09,0.217
	c-0.374-0.154-0.617-0.52-0.617-0.924l0.001-7.485L4.876,7.812l-0.001,3.946c0,0.553-0.448,1-1,1l0,0c-0.553,0-1-0.448-1-1
	l0.001-4.36c0-0.266,0.105-0.52,0.293-0.707l3.535-3.535C6.99,2.869,7.42,2.783,7.794,2.938c0.374,0.154,0.617,0.52,0.617,0.924
	L8.41,11.348l6.071-6.071c0.391-0.391,1.023-0.391,1.414,0l2.828,2.828c0.391,0.391,0.391,1.023,0,1.414l-6.076,6.076l7.479,0.008
	c0.404,0,0.769,0.244,0.923,0.618c0.154,0.373,0.069,0.803-0.217,1.089l-3.536,3.535C17.109,21.032,16.855,21.138,16.59,21.138z"/>
</svg>
