<?xml version="1.0" encoding="utf-8"?>
<!-- Generator: Adobe Illustrator 16.0.0, SVG Export Plug-In . SVG Version: 6.00 Build 0)  -->
<!DOCTYPE svg PUBLIC "-//W3C//DTD SVG 1.1//EN" "http://www.w3.org/Graphics/SVG/1.1/DTD/svg11.dtd">
<svg version="1.1" id="Icons" xmlns="http://www.w3.org/2000/svg" xmlns:xlink="http://www.w3.org/1999/xlink" x="0px" y="0px"
	 width="24px" height="24px" viewBox="0 0 24 24" enable-background="new 0 0 24 24" xml:space="preserve">
<path id="Down-Right" d="M20.125,21.126h-4.952c-0.553,0-1-0.447-1-1s0.447-1,1-1h3.953l0.012-11.302l-1.537-1.538l-0.008,7.479
	c0,0.404-0.244,0.769-0.618,0.923c-0.37,0.156-0.803,0.069-1.089-0.217L8.812,7.397L7.397,8.812l7.071,7.071
	c0.286,0.286,0.372,0.716,0.217,1.09c-0.154,0.374-0.52,0.617-0.924,0.617H6.276l1.535,1.535h3.946c0.552,0,1,0.447,1,1
	s-0.448,1-1,1h-4.36c-0.265,0-0.52-0.105-0.707-0.293l-3.535-3.535c-0.286-0.286-0.372-0.716-0.217-1.09s0.52-0.617,0.924-0.617
	h7.485L5.276,9.519c-0.391-0.391-0.391-1.023,0-1.414l2.828-2.828c0.391-0.391,1.023-0.391,1.414,0l6.076,6.076l0.008-7.479
	c0-0.404,0.244-0.769,0.618-0.923c0.371-0.156,0.803-0.069,1.089,0.217l3.535,3.536c0.188,0.188,0.293,0.442,0.293,0.708
	l-0.013,12.716C21.124,20.679,20.677,21.126,20.125,21.126z"/>
</svg>
