<?xml version="1.0" encoding="utf-8"?>
<!-- Generator: Adobe Illustrator 16.0.0, SVG Export Plug-In . SVG Version: 6.00 Build 0)  -->
<!DOCTYPE svg PUBLIC "-//W3C//DTD SVG 1.1//EN" "http://www.w3.org/Graphics/SVG/1.1/DTD/svg11.dtd">
<svg version="1.1" id="Icons" xmlns="http://www.w3.org/2000/svg" xmlns:xlink="http://www.w3.org/1999/xlink" x="0px" y="0px"
	 width="24px" height="24px" viewBox="0 0 24 24" enable-background="new 0 0 24 24" xml:space="preserve">
<path id="Downscale" d="M22,6v12c0,2.206-1.794,4-4,4H6c-2.206,0-4-1.794-4-4v-7.212c0-0.552,0.448-1,1-1s1,0.448,1,1V18
	c0,1.103,0.897,2,2,2h12c1.103,0,2-0.897,2-2V6c0-1.103-0.897-2-2-2H6C4.897,4,4,4.897,4,6v1.375c0,0.552-0.448,1-1,1s-1-0.448-1-1
	V6c0-2.206,1.794-4,4-4h12C20.206,2,22,3.794,22,6z M13,6.405c-0.552,0-1,0.448-1,1V11c0,0.552,0.448,1,1,1h3.596
	c0.553,0,1-0.448,1-1s-0.447-1-1-1h-1.182l2.771-2.772c0.391-0.391,0.391-1.024,0-1.414c-0.391-0.391-1.023-0.391-1.414,0L14,8.586
	V7.405C14,6.853,13.553,6.405,13,6.405z M5.814,18.187c0.195,0.195,0.451,0.293,0.707,0.293s0.512-0.098,0.707-0.293L10,15.414
	v1.178c0,0.552,0.448,1,1,1s1-0.448,1-1V13c0-0.552-0.448-1-1-1H7.408c-0.552,0-1,0.448-1,1s0.448,1,1,1h1.178l-2.772,2.772
	C5.423,17.163,5.423,17.796,5.814,18.187z"/>
</svg>
