<?xml version="1.0" encoding="utf-8"?>
<!-- Generator: Adobe Illustrator 16.0.0, SVG Export Plug-In . SVG Version: 6.00 Build 0)  -->
<!DOCTYPE svg PUBLIC "-//W3C//DTD SVG 1.1//EN" "http://www.w3.org/Graphics/SVG/1.1/DTD/svg11.dtd">
<svg version="1.1" id="Icons" xmlns="http://www.w3.org/2000/svg" xmlns:xlink="http://www.w3.org/1999/xlink" x="0px" y="0px"
	 width="24px" height="24px" viewBox="0 0 24 24" enable-background="new 0 0 24 24" xml:space="preserve">
<path id="Drag" d="M15.598,17.35c0.391,0.391,0.391,1.023,0,1.414l-2.89,2.889c-0.195,0.195-0.451,0.293-0.707,0.293
	s-0.512-0.098-0.707-0.293l-2.889-2.889c-0.391-0.391-0.391-1.023,0-1.414s1.023-0.391,1.414,0L11,18.531l0.001-1.984
	c0-0.553,0.448-1,1-1h0c0.552,0,1,0.448,1,1L13,18.532l1.183-1.183C14.574,16.959,15.207,16.959,15.598,17.35z M17.347,15.598
	c-0.391-0.391-0.391-1.023,0-1.414l1.18-1.18l-3.575-0.001v0.948c0,0.553-0.448,1-1,1h-3.938c-0.552,0-1-0.447-1-1v-0.947
	l-3.542-0.001l1.181,1.181c0.391,0.391,0.403,1.036,0,1.414c-0.738,0.691-1.414,0-1.414,0l-2.891-2.892
	c-0.391-0.391-0.391-1.023,0-1.414l2.889-2.89c0.391-0.391,1.023-0.391,1.414,0s0.391,1.023,0,1.414l-1.186,1.187l3.549,0.001v-0.99
	c0-0.553,0.448-1,1-1h0.987V5.468L9.816,6.652c-0.391,0.391-1.023,0.391-1.414,0s-0.391-1.023,0-1.414l2.892-2.891
	c0.188-0.188,0.442-0.293,0.707-0.293c0.266,0,0.52,0.105,0.707,0.293l2.89,2.891c0.391,0.391,0.391,1.023,0,1.414
	c-0.195,0.195-0.451,0.293-0.707,0.293s-0.512-0.098-0.707-0.293L13.001,5.47v3.544h0.95c0.552,0,1,0.447,1,1v0.989l3.584,0.001
	l-1.188-1.188c-0.391-0.391-0.391-1.023,0-1.414s1.023-0.391,1.414,0l2.89,2.89c0.391,0.391,0.391,1.023,0,1.414l-2.892,2.892
	C18.006,16.258,17.347,15.598,17.347,15.598z M12.952,11.014h-1.938v1.938h1.938V11.014z"/>
</svg>
