<?xml version="1.0" encoding="utf-8"?>
<!-- Generator: Adobe Illustrator 25.4.1, SVG Export Plug-In . SVG Version: 6.00 Build 0)  -->
<svg version="1.1" id="Icons" xmlns="http://www.w3.org/2000/svg" xmlns:xlink="http://www.w3.org/1999/xlink" x="0px" y="0px"
	 viewBox="0 0 24 24" style="enable-background:new 0 0 24 24;" xml:space="preserve">
<g id="Driving">
	<path d="M14.757,11.827c0-1.52-1.236-2.757-2.757-2.757c-1.52,0-2.757,1.237-2.757,2.757S10.48,14.584,12,14.584
		C13.521,14.584,14.757,13.347,14.757,11.827z M12,12.584c-0.417,0-0.757-0.339-0.757-0.757S11.583,11.07,12,11.07
		s0.757,0.339,0.757,0.757S12.417,12.584,12,12.584z"/>
	<path d="M12,2c-0.306,0-0.606,0.019-0.905,0.045c-0.55,0.049-0.957,0.534-0.908,1.084c0.049,0.55,0.541,0.957,1.084,0.908
		C11.512,4.016,11.754,4,12,4c2.489,0,4.716,1.143,6.184,2.932c-1.997-0.283-4.294-0.436-6.666-0.436
		c-1.962,0-3.849,0.107-5.58,0.303c0.665-0.772,1.476-1.43,2.421-1.915c0.491-0.252,0.685-0.854,0.433-1.346
		C8.54,3.046,7.937,2.849,7.446,3.104C4.087,4.827,2,8.236,2,12c0,5.514,4.486,10,10,10c5.514,0,10-4.486,10-10S17.514,2,12,2z
		 M4.384,14.442c1.221-0.006,2.388,0.465,3.266,1.343c0.959,0.959,1.434,2.282,1.326,3.618C6.804,18.512,5.108,16.694,4.384,14.442z
		 M10.923,19.919c0.276-2.036-0.396-4.086-1.858-5.548c-1.344-1.344-3.163-2.022-5.041-1.909C4.015,12.308,4,12.156,4,12
		c0-1.051,0.215-2.063,0.595-3c2.039-0.326,4.414-0.504,6.923-0.504c2.947,0,5.754,0.244,7.959,0.684C19.81,10.058,20,11.006,20,12
		c0,0.156-0.015,0.308-0.023,0.462c-1.876-0.114-3.697,0.565-5.041,1.909c-1.462,1.462-2.135,3.512-1.858,5.548
		C12.724,19.967,12.366,20,12,20C11.634,20,11.276,19.967,10.923,19.919z M15.023,19.403c-0.108-1.336,0.367-2.659,1.326-3.618
		c0.877-0.877,2.044-1.348,3.266-1.342C18.891,16.694,17.196,18.512,15.023,19.403z"/>
</g>
</svg>
