<?xml version="1.0" encoding="utf-8"?>
<!-- Generator: Adobe Illustrator 25.4.1, SVG Export Plug-In . SVG Version: 6.00 Build 0)  -->
<svg version="1.1" id="Icons" xmlns="http://www.w3.org/2000/svg" xmlns:xlink="http://www.w3.org/1999/xlink" x="0px" y="0px"
	 viewBox="0 0 24 24" style="enable-background:new 0 0 24 24;" xml:space="preserve">
<g id="Edit">
	<path d="M12,2C9.204,2,6.513,3.192,4.617,5.271C4.245,5.679,4.274,6.311,4.682,6.683c0.409,0.373,1.042,0.343,1.413-0.065
		C7.612,4.954,9.765,4,12,4c0.825,0,1.62,0.126,2.369,0.358l-5.99,6.01c-0.116,0.117-0.202,0.261-0.249,0.418l-1.62,5.396
		c-0.106,0.353-0.01,0.735,0.25,0.995c0.19,0.19,0.446,0.292,0.707,0.292c0.096,0,0.193-0.014,0.289-0.042l5.392-1.624
		c0.158-0.048,0.302-0.134,0.418-0.25l6.035-6.035C19.857,10.301,20,11.133,20,12c0,4.411-3.589,8-8,8s-8-3.589-8-8
		c0-0.945,0.173-1.886,0.513-2.796C4.707,8.687,4.444,8.11,3.927,7.917C3.411,7.723,2.834,7.986,2.64,8.503
		C2.215,9.639,2,10.815,2,12c0,5.514,4.486,10,10,10s10-4.486,10-10S17.514,2,12,2z M9.564,12.965l1.406,1.406l-2.01,0.605
		L9.564,12.965z M12.859,13.432L10.5,11.074l5.793-5.812c0.951,0.608,1.766,1.408,2.387,2.35L12.859,13.432z"/>
</g>
</svg>
