<?xml version="1.0" encoding="utf-8"?>
<!-- Generator: Adobe Illustrator 26.3.1, SVG Export Plug-In . SVG Version: 6.00 Build 0)  -->
<svg version="1.1" id="Icons" xmlns="http://www.w3.org/2000/svg" xmlns:xlink="http://www.w3.org/1999/xlink" x="0px" y="0px"
	 viewBox="0 0 24 24" style="enable-background:new 0 0 24 24;" xml:space="preserve">
<g id="Electric-Pole">
	<path d="M21,10.112h-0.06V9.157c0-0.552-0.447-1-1-1s-1,0.448-1,1v0.955H18.06V9.157c0-0.552-0.447-1-1-1s-1,0.448-1,1v0.955
		h-1.226l0-2.725h6.169c0.553,0,1-0.448,1-1s-0.447-1-1-1h-0.06V4.433c0-0.552-0.447-1-1-1s-1,0.448-1,1v0.955h-0.881V4.433
		c0-0.552-0.447-1-1-1s-1,0.448-1,1v0.955h-1.228l0-0.555C14.833,3.271,13.562,2,12,2S9.167,3.271,9.167,4.833v0.555H7.942V4.433
		c0-0.552-0.448-1-1-1s-1,0.448-1,1v0.955H5.061V4.433c0-0.552-0.448-1-1-1s-1,0.448-1,1v0.955H3.002c-0.552,0-1,0.448-1,1
		s0.448,1,1,1h6.165v2.725H7.94V9.157c0-0.552-0.448-1-1-1s-1,0.448-1,1v0.955H5.06V9.157c0-0.552-0.448-1-1-1s-1,0.448-1,1v0.955H3
		c-0.552,0-1,0.448-1,1s0.448,1,1,1h9.833l0,7.888h-1.667l0-5.472c0-0.552-0.448-1-1-1s-1,0.448-1,1l0,6.472c0,0.552,0.448,1,1,1
		h3.667c0.266,0,0.52-0.105,0.707-0.293s0.293-0.442,0.293-0.707l-0.001-8.888H21c0.553,0,1-0.448,1-1S21.553,10.112,21,10.112z
		 M11.167,4.833C11.167,4.374,11.541,4,12,4s0.833,0.374,0.833,0.833l0,0.555h-1.667V4.833z M11.167,10.112V7.388h1.667l0,2.725
		H11.167z"/>
</g>
</svg>
