<?xml version="1.0" encoding="utf-8"?>
<!-- Generator: Adobe Illustrator 26.3.1, SVG Export Plug-In . SVG Version: 6.00 Build 0)  -->
<svg version="1.1" id="Icons" xmlns="http://www.w3.org/2000/svg" xmlns:xlink="http://www.w3.org/1999/xlink" x="0px" y="0px"
	 viewBox="0 0 24 24" style="enable-background:new 0 0 24 24;" xml:space="preserve">
<g id="Factory">
	<path d="M15.292,15.012h2.635c0.553,0,1-0.448,1-1s-0.447-1-1-1h-2.635c-0.553,0-1,0.448-1,1S14.739,15.012,15.292,15.012z"/>
	<path d="M15.292,18.012h2.635c0.553,0,1-0.448,1-1s-0.447-1-1-1h-2.635c-0.553,0-1,0.448-1,1S14.739,18.012,15.292,18.012z"/>
	<path d="M21.626,8.243c-0.237-0.189-0.549-0.261-0.843-0.196L9.604,10.531V3c0-0.552-0.447-1-1-1H3C2.447,2,2,2.448,2,3v12.304
		c0,0.552,0.447,1,1,1s1-0.448,1-1v-1.479l16-3.555V20h-7v-4c0-0.552-0.447-1-1-1H7c-0.553,0-1,0.448-1,1v4H4v-1.281
		c0-0.552-0.447-1-1-1s-1,0.448-1,1V21c0,0.552,0.447,1,1,1h18c0.553,0,1-0.448,1-1V9.023C22,8.72,21.862,8.433,21.626,8.243z
		 M7.604,4v2.016H4V4H7.604z M4,8.016h3.604v2.96L4,11.777V8.016z M8,17h3v3H8V17z"/>
</g>
</svg>
