<?xml version="1.0" encoding="utf-8"?>
<!-- Generator: Adobe Illustrator 25.4.1, SVG Export Plug-In . SVG Version: 6.00 Build 0)  -->
<svg version="1.1" id="Icons" xmlns="http://www.w3.org/2000/svg" xmlns:xlink="http://www.w3.org/1999/xlink" x="0px" y="0px"
	 viewBox="0 0 24 24" style="enable-background:new 0 0 24 24;" xml:space="preserve">
<g id="Favorite-location">
	<g>
		<path d="M12,14.883c-0.17,0-0.34-0.043-0.492-0.129c-0.161-0.091-3.95-2.272-3.95-5.605c0-1.702,1.301-3.14,2.84-3.14
			c0.583,0,1.139,0.188,1.603,0.524c0.464-0.336,1.02-0.524,1.603-0.524c1.539,0,2.84,1.438,2.84,3.14
			c0,3.333-3.789,5.514-3.95,5.605C12.34,14.84,12.17,14.883,12,14.883z M10.397,8.008c-0.424,0-0.84,0.565-0.84,1.14
			c0,1.5,1.479,2.866,2.442,3.547c0.962-0.68,2.442-2.046,2.442-3.547c0-0.575-0.416-1.14-0.84-1.14
			c-0.287,0-0.561,0.185-0.713,0.482c-0.342,0.667-1.438,0.667-1.779,0C10.958,8.192,10.685,8.008,10.397,8.008z"/>
	</g>
	<g>
		<path d="M11.998,22c-0.253,0-0.506-0.096-0.7-0.286c-0.069-0.068-1.713-1.687-3.43-3.844c-0.344-0.432-0.272-1.061,0.159-1.405
			c0.434-0.345,1.062-0.271,1.405,0.16c0.983,1.236,1.959,2.303,2.584,2.961c2.151-2.171,5.99-6.651,5.99-9.579
			C18.007,6.695,15.312,4,12,4s-6.007,2.695-6.007,6.007c0,0.672,0.264,1.9,1.521,3.929c0.291,0.47,0.146,1.086-0.323,1.377
			s-1.087,0.146-1.376-0.323c-1.227-1.978-1.822-3.608-1.822-4.983C3.993,5.592,7.585,2,12,2s8.007,3.592,8.007,8.007
			c0,4.741-6.576,11.023-7.326,11.723C12.488,21.911,12.243,22,11.998,22z"/>
	</g>
</g>
</svg>
