<?xml version="1.0" encoding="utf-8"?>
<!-- Generator: Adobe Illustrator 16.0.0, SVG Export Plug-In . SVG Version: 6.00 Build 0)  -->
<!DOCTYPE svg PUBLIC "-//W3C//DTD SVG 1.0//EN" "http://www.w3.org/TR/2001/REC-SVG-20010904/DTD/svg10.dtd">
<svg version="1.0" id="Layer_1" xmlns="http://www.w3.org/2000/svg" xmlns:xlink="http://www.w3.org/1999/xlink" x="0px" y="0px"
	 width="100px" height="100px" viewBox="0 0 100 100" enable-background="new 0 0 100 100" xml:space="preserve">
<path d="M83.333,43.333c0-5.5-8.343-10.202-20.228-12.239l-0.01-0.023c-1.702-4.256-6.846-7.737-11.429-7.737h-3.333
	c-4.583,0-9.727,3.481-11.429,7.737l-0.01,0.026c-11.883,2.036-20.228,6.738-20.228,12.236L10,66.523
	c9.391,6.413,23.226,10.144,40,10.144c16.774,0,30.608-3.73,40-10.144L83.333,43.333z M76.501,43.333
	c-0.785,0.996-3.193,2.468-6.989,3.777l-3.425-8.56C71.946,40.034,75.501,42.065,76.501,43.333z M48.333,30h3.333
	c1.855,0,4.551,1.822,5.237,3.546l6.101,15.256C59.343,49.505,55.049,50,50,50c-5.05,0-9.344-0.495-13.008-1.198l6.102-15.256
	C43.784,31.822,46.478,30,48.333,30z M33.91,38.561l-3.421,8.55c-3.795-1.31-6.203-2.781-6.989-3.777
	C24.499,42.065,28.06,40.042,33.91,38.561z M50,70c-12.672,0-23.883-2.312-32.173-6.575l3.776-13.135
	c5.863,3.821,16.371,6.377,28.397,6.377c12.028,0,22.536-2.556,28.398-6.377l3.776,13.135C73.884,67.688,62.673,70,50,70z"/>
</svg>
