<?xml version="1.0" encoding="utf-8"?>
<!-- Generator: Adobe Illustrator 16.0.0, SVG Export Plug-In . SVG Version: 6.00 Build 0)  -->
<!DOCTYPE svg PUBLIC "-//W3C//DTD SVG 1.0//EN" "http://www.w3.org/TR/2001/REC-SVG-20010904/DTD/svg10.dtd">
<svg version="1.0" id="Layer_1" xmlns="http://www.w3.org/2000/svg" xmlns:xlink="http://www.w3.org/1999/xlink" x="0px" y="0px"
	 width="100px" height="100px" viewBox="0 0 100 100" enable-background="new 0 0 100 100" xml:space="preserve">
<path d="M90,40v-6.667h-5v-6.666l-10-10l-10,10v6.666h-5v-6.666l-10-10l-10,10v6.666h-5v-6.666l-10-10l-10,10v6.666h-5V40h5v26.667
	h-5v6.666h5v10h20v-10h5v10h20v-10h5v10h20v-10h5v-6.666h-5V40H90z M28.333,76.667h-6.666v-47.24L25,26.094l3.333,3.333V76.667z
	 M40,66.667h-5V40h5V66.667z M53.333,76.667h-6.666v-47.24L50,26.094l3.333,3.333V76.667z M65,66.667h-5V40h5V66.667z
	 M78.333,76.667h-6.666v-47.24L75,26.094l3.333,3.333V76.667z"/>
</svg>
