<?xml version="1.0" encoding="utf-8"?>
<!-- Generator: Adobe Illustrator 25.4.1, SVG Export Plug-In . SVG Version: 6.00 Build 0)  -->
<svg version="1.1" id="Icons" xmlns="http://www.w3.org/2000/svg" xmlns:xlink="http://www.w3.org/1999/xlink" x="0px" y="0px"
	 viewBox="0 0 24 24" style="enable-background:new 0 0 24 24;" xml:space="preserve">
<g id="File-structure">
	<path d="M17.002,2H7C4.243,2,2.001,4.243,2.001,6.999v0.844c0,0.552,0.447,1,1,1s1-0.448,1-1V6.999
		c0-1.384,0.948-2.541,2.225-2.885v11.735c0,0.265,0.105,0.52,0.293,0.708c0.188,0.187,0.442,0.292,0.707,0.292l3.084-0.001v0.603
		c0,0.552,0.447,1,1,1h6.052c0.553,0,1-0.448,1-1v-3.208c0-0.552-0.447-1-1-1H11.31c-0.553,0-1,0.448-1,1v0.605l-2.084,0.001V10.7
		l2.084-0.003v0.606c0,0.552,0.447,1,1,1h6.052c0.553,0,1-0.448,1-1V8.096c0-0.552-0.447-1-1-1H11.31c-0.553,0-1,0.448-1,1v0.601
		L8.226,8.7V4h8.776C18.655,4,20,5.345,20,6.999v10.003C20,18.655,18.655,20,17.002,20H7c-1.653,0-2.999-1.345-2.999-2.998v-5.75
		c0-0.552-0.447-1-1-1s-1,0.448-1,1v5.75C2.001,19.758,4.243,22,7,22h10.002C19.758,22,22,19.758,22,17.002V6.999
		C22,4.243,19.758,2,17.002,2z M12.31,15.243h4.052v1.208H12.31V15.243z M12.31,9.096h4.052v1.208H12.31V9.096z"/>
</g>
</svg>
