<?xml version="1.0" encoding="utf-8"?>
<!-- Generator: Adobe Illustrator 25.4.1, SVG Export Plug-In . SVG Version: 6.00 Build 0)  -->
<svg version="1.1" id="Icons" xmlns="http://www.w3.org/2000/svg" xmlns:xlink="http://www.w3.org/1999/xlink" x="0px" y="0px"
	 viewBox="0 0 24 24" style="enable-background:new 0 0 24 24;" xml:space="preserve">
<g id="Finger-print">
	<g>
		<path d="M13.872,18.376c-0.552,0-1-0.448-1-1v-5.672c0-0.481-0.391-0.872-0.872-0.872s-0.872,0.391-0.872,0.872v5.672
			c0,0.552-0.448,1-1,1s-1-0.448-1-1v-5.672c0-1.583,1.289-2.872,2.872-2.872s2.872,1.289,2.872,2.872v5.672
			C14.872,17.928,14.424,18.376,13.872,18.376z"/>
	</g>
	<g>
		<path d="M17.336,18.376c-0.552,0-1-0.448-1-1v-5.905c0-2.391-1.945-4.335-4.336-4.335s-4.336,1.945-4.336,4.335l0,5.905
			c0,0.552-0.448,1-1,1s-1-0.448-1-1l0-5.905c0-3.493,2.842-6.335,6.336-6.335s6.336,2.842,6.336,6.335v5.905
			C18.336,17.928,17.888,18.376,17.336,18.376z"/>
	</g>
	<g>
		<path d="M17.002,22H7C4.243,22,2,19.758,2,17.002v-5.75c0-0.552,0.448-1,1-1s1,0.448,1,1v5.75C4,18.655,5.346,20,7,20h10.002
			C18.655,20,20,18.655,20,17.002V6.999C20,5.345,18.655,4,17.002,4H7C5.346,4,4,5.345,4,6.999v0.844c0,0.552-0.448,1-1,1
			s-1-0.448-1-1V6.999C2,4.243,4.243,2,7,2h10.002C19.758,2,22,4.243,22,6.999v10.003C22,19.758,19.758,22,17.002,22z"/>
	</g>
</g>
</svg>
