<?xml version="1.0" encoding="utf-8"?>
<!-- Generator: Adobe Illustrator 26.3.1, SVG Export Plug-In . SVG Version: 6.00 Build 0)  -->
<svg version="1.1" id="Icons" xmlns="http://www.w3.org/2000/svg" xmlns:xlink="http://www.w3.org/1999/xlink" x="0px" y="0px"
	 viewBox="0 0 24 24" style="enable-background:new 0 0 24 24;" xml:space="preserve">
<g id="Fire-Truck">
	<path d="M19.004,11.492c0.552,0,1,0.449,1,1v3.278c0,0.46-0.318,0.832-0.743,0.948c-0.442-1.301-1.66-2.246-3.108-2.246
		c-1.467,0-2.699,0.97-3.125,2.298l-2.074,0c-0.426-1.328-1.659-2.298-3.127-2.298c-1.448,0-2.666,0.943-3.109,2.242
		c-0.414-0.123-0.722-0.491-0.722-0.944v-3.921c0-0.552-0.447-1-1-1s-1,0.448-1,1v3.921c0,1.55,1.185,2.814,2.694,2.969
		c0.417,1.344,1.657,2.329,3.137,2.329c1.468,0,2.701-0.97,3.127-2.297l2.074,0c0.426,1.328,1.658,2.298,3.125,2.298
		c1.477,0,2.716-0.984,3.133-2.326c1.52-0.145,2.717-1.414,2.717-2.971v-3.278c0-1.441-1.021-2.648-2.379-2.935l-2.68-4.768
		c-0.178-0.315-0.511-0.51-0.872-0.51h-4.707V3.932c0-0.552-0.447-1-1-1s-1,0.448-1,1v0.347H7.207V3.932c0-0.552-0.447-1-1-1
		s-1,0.448-1,1v0.347H4.996c-1.654,0-3,1.346-3,3v1.155c0,0.552,0.447,1,1,1s1-0.448,1-1V7.279c0-0.551,0.448-1,1-1h0.211v6.639
		c0,0.552,0.447,1,1,1s1-0.448,1-1v-0.345h2.159v0.345c0,0.552,0.447,1,1,1s1-0.448,1-1V6.279h0.838v2.212c0,1.654,1.346,3,3,3
		L19.004,11.492z M9.366,10.573H7.207V9.425h2.159V10.573z M9.366,7.425H7.207V6.279h2.159V7.425z M15.204,9.491
		c-0.552,0-1-0.449-1-1V6.279h1.284l1.806,3.212H15.204z M7.827,19.068c-0.716,0-1.299-0.582-1.299-1.297
		c0-0.716,0.583-1.298,1.299-1.298s1.299,0.583,1.299,1.298C9.126,18.486,8.543,19.068,7.827,19.068z M16.153,19.068
		c-0.715,0-1.297-0.582-1.297-1.297c0-0.716,0.582-1.298,1.297-1.298s1.296,0.583,1.296,1.298
		C17.449,18.486,16.868,19.068,16.153,19.068z"/>
</g>
</svg>
