<?xml version="1.0" encoding="utf-8"?>
<!-- Generator: Adobe Illustrator 26.3.1, SVG Export Plug-In . SVG Version: 6.00 Build 0)  -->
<svg version="1.1" id="Icons" xmlns="http://www.w3.org/2000/svg" xmlns:xlink="http://www.w3.org/1999/xlink" x="0px" y="0px"
	 viewBox="0 0 24 24" style="enable-background:new 0 0 24 24;" xml:space="preserve">
<g id="Fire-Hydrant">
	<path d="M15.19,14.068c0-1.759-1.432-3.19-3.19-3.19s-3.19,1.431-3.19,3.19s1.432,3.19,3.19,3.19S15.19,15.827,15.19,14.068z
		 M10.81,14.068c0-0.656,0.534-1.19,1.19-1.19s1.19,0.534,1.19,1.19s-0.534,1.19-1.19,1.19S10.81,14.725,10.81,14.068z"/>
	<path d="M20.003,13.469H19.37l0.001-0.96c0-0.266-0.104-0.52-0.292-0.708s-0.442-0.293-0.708-0.293h-0.767L17.598,9.82h0.41
		c0.553,0,1-0.448,1-1s-0.447-1-1-1h-0.632c-0.58-2.025-2.273-3.581-4.375-3.961C13,3.428,12.998,2.996,12.998,2.996
		C12.996,2.444,12.546,1.998,11.994,2c-0.553,0.002-0.998,0.452-0.996,1.004l0.003,0.856C8.904,4.243,7.214,5.797,6.635,7.82H5.992
		c-0.553,0-1,0.448-1,1s0.447,1,1,1h0.423l0.001,1.688H5.654c-0.552,0-0.999,0.447-1,0.999l-0.001,0.963H4.008c-0.553,0-1,0.448-1,1
		s0.447,1,1,1H4.65l-0.001,0.96c0,0.266,0.104,0.52,0.292,0.708s0.442,0.293,0.708,0.293h0.763L6.41,20.029H5.342
		c-0.553,0-1,0.448-1,1s0.447,1,1,1h3.754c0.553,0,1-0.448,1-1s-0.447-1-1-1H8.41l0.002-3.598c0-0.265-0.105-0.52-0.293-0.708
		s-0.441-0.293-0.707-0.293H6.65l0.002-1.923h0.764c0.266,0,0.52-0.105,0.707-0.293s0.293-0.442,0.293-0.708L8.415,9.82h7.182
		l0.011,2.691c0.002,0.551,0.449,0.996,1,0.996h0.761l-0.002,1.923h-0.765c-0.552,0-1,0.448-1,1l-0.001,3.598h-3.091
		c-0.553,0-1,0.448-1,1s0.447,1,1,1h6.147c0.553,0,1-0.448,1-1s-0.447-1-1-1h-1.056l0.001-2.598h0.763c0.552,0,0.999-0.447,1-0.999
		l0.001-0.963h0.636c0.553,0,1-0.448,1-1S20.556,13.469,20.003,13.469z M12.005,5.765c1.428,0,2.654,0.844,3.232,2.055H8.773
		C9.351,6.61,10.577,5.765,12.005,5.765z"/>
</g>
</svg>
