<?xml version="1.0" encoding="utf-8"?>
<!-- Generator: Adobe Illustrator 25.4.1, SVG Export Plug-In . SVG Version: 6.00 Build 0)  -->
<svg version="1.1" id="Icons" xmlns="http://www.w3.org/2000/svg" xmlns:xlink="http://www.w3.org/1999/xlink" x="0px" y="0px"
	 viewBox="0 0 24 24" style="enable-background:new 0 0 24 24;" xml:space="preserve">
<g id="Flag-2">
	<path d="M17.002,2H7C4.243,2,2.001,4.243,2.001,6.999v0.844c0,0.552,0.447,1,1,1s1-0.448,1-1V6.999C4.001,5.345,5.347,4,7,4h10.002
		C18.655,4,20,5.345,20,6.999v10.003C20,18.655,18.655,20,17.002,20H7.994v-4H17c0.404,0,0.769-0.243,0.924-0.617
		c0.154-0.374,0.069-0.803-0.216-1.089l-3.295-3.302L17.707,7.7c0.286-0.286,0.372-0.716,0.217-1.09
		C17.77,6.236,17.404,5.993,17,5.993H6.994c-0.553,0-1,0.448-1,1v12.821c-1.158-0.416-1.993-1.513-1.993-2.811v-5.75
		c0-0.552-0.447-1-1-1s-1,0.448-1,1v5.75C2.001,19.758,4.243,22,7,22h10.002C19.758,22,22,19.758,22,17.002V6.999
		C22,4.243,19.758,2,17.002,2z M7.994,7.993h6.591l-2.292,2.292c-0.391,0.39-0.391,1.022-0.001,1.413L14.59,14H7.994V7.993z"/>
</g>
</svg>
