<?xml version="1.0" encoding="utf-8"?>
<!-- Generator: Adobe Illustrator 25.4.1, SVG Export Plug-In . SVG Version: 6.00 Build 0)  -->
<svg version="1.1" id="Icons" xmlns="http://www.w3.org/2000/svg" xmlns:xlink="http://www.w3.org/1999/xlink" x="0px" y="0px"
	 viewBox="0 0 24 24" style="enable-background:new 0 0 24 24;" xml:space="preserve">
<g id="Flag-1">
	<path d="M17.002,2H7C4.243,2,2,4.243,2,6.999v0.844c0,0.552,0.448,1,1,1s1-0.448,1-1V6.999C4,5.345,5.346,4,7,4h10.002
		C18.655,4,20,5.345,20,6.999v10.003C20,18.655,18.655,20,17.002,20H7.995v-4.321l9.377-3.759C17.751,11.767,18,11.399,18,10.991
		s-0.249-0.776-0.629-0.928L7.366,6.064C7.059,5.941,6.709,5.979,6.434,6.165S5.995,6.661,5.995,6.993v12.822
		C4.836,19.399,4,18.301,4,17.002v-5.75c0-0.552-0.448-1-1-1s-1,0.448-1,1v5.75C2,19.758,4.243,22,7,22h10.002
		C19.758,22,22,19.758,22,17.002V6.999C22,4.243,19.758,2,17.002,2z M7.995,8.469l6.314,2.523l-6.314,2.531V8.469z"/>
</g>
</svg>
