<?xml version="1.0" encoding="utf-8"?>
<!-- Generator: Adobe Illustrator 25.4.1, SVG Export Plug-In . SVG Version: 6.00 Build 0)  -->
<svg version="1.1" id="Icons" xmlns="http://www.w3.org/2000/svg" xmlns:xlink="http://www.w3.org/1999/xlink" x="0px" y="0px"
	 viewBox="0 0 24 24" style="enable-background:new 0 0 24 24;" xml:space="preserve">
<g id="Flight">
	<path d="M11.066,21.677l2.549-2.239c0.276-0.244,0.397-0.62,0.313-0.979l-0.744-3.192c0.343-0.296,0.723-0.635,1.092-0.969
		l2.576,4.365c0.157,0.266,0.429,0.445,0.735,0.484c0.303,0.039,0.614-0.066,0.833-0.285l1.953-1.951
		c0.266-0.266,0.36-0.659,0.244-1.017L20.06,14.18c-0.171-0.525-0.736-0.815-1.261-0.641c-0.525,0.171-0.812,0.735-0.642,1.26
		l0.369,1.131l-0.606,0.606l-2.546-4.313c-0.153-0.259-0.415-0.436-0.713-0.48c-0.302-0.047-0.601,0.048-0.823,0.25
		c-0.735,0.672-1.743,1.593-2.4,2.132c-0.295,0.242-0.427,0.63-0.34,1l0.747,3.205l-1.03,0.905l-1.578-3.997
		c-0.102-0.257-0.305-0.461-0.562-0.562l-3.995-1.58l0.909-1.036l3.16,0.717c0.357,0.081,0.718-0.035,0.96-0.301
		c4.272-4.682,7.036-7.174,7.103-7.236c1.711-1.71,2.599-1.061,2.713-0.965c0.429,0.368,0.481,0.665,0.484,0.856
		c0.008,0.667-0.677,1.434-0.979,1.71l-0.238,0.252c-0.818,0.866-1.135,1.202-1.921,1.984c-0.267,0.266-0.361,0.66-0.245,1.018
		l0.476,1.461c0.171,0.524,0.735,0.813,1.261,0.641c0.525-0.171,0.812-0.735,0.642-1.26l-0.286-0.879
		c0.52-0.524,0.86-0.886,1.528-1.593l0.172-0.188c0.164-0.145,1.603-1.463,1.591-3.157c-0.005-0.62-0.214-1.534-1.141-2.326
		c-0.782-0.753-2.934-1.506-5.432,0.994c-0.049,0.044-0.58,0.523-1.511,1.428L8.017,3.294C7.659,3.177,7.267,3.272,7,3.538
		L5.049,5.49C4.83,5.709,4.725,6.018,4.764,6.325C4.804,6.632,4.982,6.903,5.25,7.06l4.372,2.565
		C9.299,9.97,8.97,10.324,8.625,10.699l-3.173-0.72c-0.362-0.081-0.732,0.04-0.973,0.315l-2.239,2.55
		c-0.215,0.244-0.298,0.578-0.221,0.895c0.076,0.316,0.302,0.575,0.604,0.695l4.913,1.943l1.94,4.916
		c0.119,0.303,0.379,0.528,0.695,0.605C10.693,22.033,11.066,21.677,11.066,21.677z M7.378,5.989L7.98,5.385l4.351,1.417
		C11.933,7.206,11.5,7.65,11.034,8.135L7.378,5.989z"/>
</g>
</svg>
