<?xml version="1.0" encoding="utf-8"?>
<!-- Generator: Adobe Illustrator 25.4.1, SVG Export Plug-In . SVG Version: 6.00 Build 0)  -->
<svg version="1.1" id="Icons" xmlns="http://www.w3.org/2000/svg" xmlns:xlink="http://www.w3.org/1999/xlink" x="0px" y="0px"
	 viewBox="0 0 24 24" style="enable-background:new 0 0 24 24;" xml:space="preserve">
<g id="Fork">
	<path d="M21.678,8.134c-0.391-0.391-1.023-0.391-1.414,0l-2.608,2.608L16.164,9.25l2.603-2.615c0.39-0.392,0.388-1.025-0.004-1.415
		c-0.39-0.389-1.024-0.387-1.414,0.003l-2.6,2.612l-1.491-1.491l2.608-2.608c0.391-0.391,0.391-1.023,0-1.414s-1.023-0.391-1.414,0
		L10.61,6.163c-1.238,1.238-1.704,2.958-1.404,4.561l-2.212,2.211c-0.391,0.39-0.391,1.023,0,1.414
		c0.195,0.195,0.451,0.293,0.707,0.293s0.512-0.098,0.707-0.293l1.643-1.643c0.167,0.238,0.345,0.471,0.558,0.683
		c0.212,0.212,0.445,0.39,0.683,0.557l-5.766,5.766c-0.34,0.342-0.897,0.344-1.241,0c-0.342-0.342-0.342-0.899,0-1.241l1.712-1.712
		c0.391-0.391,0.391-1.023,0-1.414s-1.023-0.391-1.414,0l-1.712,1.712c-1.122,1.122-1.122,2.947,0,4.07
		c0.562,0.561,1.298,0.841,2.034,0.841c0.737,0,1.475-0.281,2.035-0.841l6.334-6.335c0.313,0.059,0.631,0.091,0.948,0.091
		c1.309,0,2.617-0.498,3.613-1.494l3.841-3.841C22.068,9.158,22.068,8.524,21.678,8.134z M12.024,11.976
		c-1.15-1.15-1.195-2.979-0.163-4.199l4.362,4.362C15.003,13.171,13.175,13.126,12.024,11.976z"/>
</g>
</svg>
