<?xml version="1.0" encoding="utf-8"?>
<!-- Generator: Adobe Illustrator 25.4.1, SVG Export Plug-In . SVG Version: 6.00 Build 0)  -->
<svg version="1.1" id="Icons" xmlns="http://www.w3.org/2000/svg" xmlns:xlink="http://www.w3.org/1999/xlink" x="0px" y="0px"
	 viewBox="0 0 24 24" style="enable-background:new 0 0 24 24;" xml:space="preserve">
<g id="Fork-spoon-knife">
	<g>
		<path d="M21.699,3.285c-0.195-0.188-0.463-0.296-0.732-0.278c-1.464,0.058-4.219,1.116-4.176,4.695v4.05c0,0.552,0.447,1,1,1
			h2.215v7.255c0,0.552,0.447,1,1,1s1-0.448,1-1V4.006C22.006,3.734,21.895,3.474,21.699,3.285z M20.006,10.752h-1.215V7.69
			c-0.017-1.4,0.609-2.071,1.215-2.393V10.752z"/>
	</g>
	<g>
		<path d="M12.865,9.865c-0.553,0-1.001-0.448-1-1.001l0.005-4.858c0-0.553,0.449-1,1.001-0.999c0.552,0,1,0.449,0.999,1.001
			l-0.005,4.858C13.864,9.418,13.417,9.865,12.865,9.865z"/>
	</g>
	<path d="M8.947,7.749c0-2.667-1.527-4.756-3.476-4.756c-1.371,0-2.577,1.05-3.146,2.74c-0.176,0.523,0.105,1.09,0.629,1.267
		C3.479,7.178,4.045,6.894,4.221,6.37C4.498,5.546,5,4.993,5.471,4.993c0.697,0,1.476,1.179,1.476,2.756s-0.779,2.756-1.476,2.756
		c-0.467,0-0.968-0.549-1.246-1.366C4.047,8.616,3.479,8.337,2.957,8.514C2.434,8.692,2.154,9.26,2.332,9.783
		c0.422,1.24,1.189,2.13,2.111,2.512c-0.001,0.947-0.005,7.711-0.005,7.711c0,0.552,0.448,1,1,1c0.552,0,1-0.447,1-1
		c0,0,0.004-6.752,0.005-7.706C7.901,11.736,8.947,9.949,8.947,7.749z"/>
	<path d="M15.372,3.007c-0.552,0-0.999,0.447-1,0.999l-0.005,5.003c0,0.825-0.671,1.496-1.496,1.496s-1.496-0.671-1.496-1.498
		l-0.01-5.002c-0.001-0.552-0.449-0.998-1-0.998c-0.553,0-1.001,0.449-1,1.002l0.01,5c0,1.578,1.057,2.899,2.495,3.332l-0.01,7.664
		c0,0.552,0.446,1.001,0.999,1.001c0,0,0.001,0,0.001,0c0.552,0,0.999-0.447,1-0.999l0.01-7.666
		c1.439-0.433,2.497-1.755,2.497-3.332l0.005-5.002C16.373,3.456,15.925,3.007,15.372,3.007z"/>
</g>
</svg>
