<?xml version="1.0" encoding="utf-8"?>
<!-- Generator: Adobe Illustrator 25.4.1, SVG Export Plug-In . SVG Version: 6.00 Build 0)  -->
<svg version="1.1" id="Icons" xmlns="http://www.w3.org/2000/svg" xmlns:xlink="http://www.w3.org/1999/xlink" x="0px" y="0px"
	 viewBox="0 0 24 24" style="enable-background:new 0 0 24 24;" xml:space="preserve">
<g id="Fork-spoon">
	<g>
		<path d="M7.432,6.685c0.502-0.229,0.723-0.823,0.493-1.325C7.696,4.857,7.101,4.635,6.6,4.866c-0.795,0.364-1.385,1.1-1.618,2.019
			C4.766,7.738,4.864,8.682,5.258,9.542c0.168,0.368,0.531,0.584,0.91,0.584c0.139,0,0.281-0.029,0.416-0.091
			C7.085,9.806,7.306,9.212,7.076,8.71C6.875,8.269,6.817,7.782,6.92,7.375C6.969,7.183,7.101,6.836,7.432,6.685z"/>
		<path d="M6.902,2C5.928,2,4.982,2.346,4.167,2.999c-0.431,0.346-0.5,0.975-0.155,1.406C4.358,4.836,4.988,4.904,5.418,4.56
			C5.875,4.193,6.388,4,6.902,4c1.601,0,2.904,1.728,2.904,3.853s-1.303,3.853-2.904,3.853S3.999,9.977,3.999,7.853
			c0-0.283,0.031-0.584,0.094-0.92C4.194,6.39,3.836,5.867,3.294,5.765C2.75,5.662,2.228,6.021,2.126,6.563
			C2.041,7.022,1.999,7.444,1.999,7.853c0,2.06,0.898,3.87,2.249,4.914v6.612c0,1.462,1.19,2.652,2.652,2.652
			s2.652-1.19,2.652-2.652V12.77c1.354-1.043,2.254-2.855,2.254-4.917C11.806,4.625,9.606,2,6.902,2z M7.552,19.378
			c0,0.36-0.292,0.652-0.652,0.652s-0.652-0.292-0.652-0.652v-5.731c0.215,0.034,0.432,0.058,0.655,0.058
			c0.221,0,0.437-0.024,0.65-0.058V19.378z"/>
	</g>
	<path d="M20.968,2c-0.553,0-1,0.448-1,1v4.552H18.35l-0.008-4.554C18.341,2.446,17.894,2,17.342,2c-0.552,0-1.001,0.449-1,1.002
		l0.008,4.55h-1.617V3c0-0.552-0.447-1-1-1s-1,0.448-1,1v5.661c0,1.557,0.78,2.931,1.965,3.768v6.949
		c0,1.462,1.189,2.652,2.652,2.652s2.652-1.19,2.652-2.652v-6.949c1.185-0.837,1.965-2.21,1.965-3.768V3
		C21.968,2.448,21.521,2,20.968,2z M18.003,19.378c0,0.36-0.293,0.652-0.652,0.652s-0.652-0.292-0.652-0.652v-6.166
		c0.215,0.031,0.429,0.066,0.652,0.066s0.437-0.035,0.652-0.066V19.378z M17.351,11.278c-1.129,0-2.084-0.722-2.451-1.726h4.901
		C19.435,10.556,18.48,11.278,17.351,11.278z"/>
</g>
</svg>
