<?xml version="1.0" encoding="utf-8"?>
<!-- Generator: Adobe Illustrator 25.4.1, SVG Export Plug-In . SVG Version: 6.00 Build 0)  -->
<svg version="1.1" id="Icons" xmlns="http://www.w3.org/2000/svg" xmlns:xlink="http://www.w3.org/1999/xlink" x="0px" y="0px"
	 viewBox="0 0 24 24" style="enable-background:new 0 0 24 24;" xml:space="preserve">
<g id="French-Fries">
	<path d="M20.765,8.745C20.575,8.52,20.295,8.39,20,8.39h-1.64V4c0-0.552-0.447-1-1-1h-2.573c0-0.552-0.447-1-1-1h-3.574
		c-0.553,0-1,0.448-1,1H6.64c-0.553,0-1,0.448-1,1v4.39H4c-0.295,0-0.574,0.13-0.765,0.355c-0.19,0.226-0.271,0.523-0.221,0.814
		l0.369,2.146c0.094,0.543,0.605,0.915,1.155,0.816c0.544-0.093,0.909-0.611,0.815-1.155L5.187,10.39h2.972
		c0.444,1.707,1.998,2.97,3.842,2.97s3.397-1.263,3.842-2.97h2.972L17.847,16H6.154l-0.218-1.266
		c-0.094-0.543-0.601-0.91-1.155-0.815c-0.544,0.094-0.909,0.611-0.815,1.155l1.05,6.096C5.097,21.649,5.514,22,6,22h12
		c0.486,0,0.903-0.351,0.985-0.83l2-11.61C21.035,9.269,20.955,8.971,20.765,8.745z M9.03,8.39H7.64V5h1.573v3.427
		C9.152,8.415,9.095,8.39,9.03,8.39z M11.213,11.193V4h1.574v7.193c-0.241,0.106-0.507,0.167-0.787,0.167
		S11.454,11.299,11.213,11.193z M14.97,8.39c-0.065,0-0.121,0.025-0.183,0.037V5h1.573v3.39H14.97z M6.843,20l-0.345-2h11.004
		l-0.345,2H6.843z"/>
</g>
</svg>
