<?xml version="1.0" encoding="utf-8"?>
<!-- Generator: Adobe Illustrator 26.5.0, SVG Export Plug-In . SVG Version: 6.00 Build 0)  -->
<svg version="1.1" id="Icons" xmlns="http://www.w3.org/2000/svg" xmlns:xlink="http://www.w3.org/1999/xlink" x="0px" y="0px"
	 viewBox="0 0 24 24" enable-background="new 0 0 24 24" xml:space="preserve">
<path id="Fridge" d="M6.651,17.19c-0.553,0-1.001-0.448-1-1.001l0.003-2.978c0.001-0.552,0.448-0.999,1-0.999
	c0.553,0,1.001,0.448,1,1.001l-0.003,2.978C7.65,16.743,7.203,17.19,6.651,17.19z M21.504,3.029v7.655
	c0,0.295-0.13,0.575-0.356,0.765c-0.182,0.153-0.41,0.235-0.644,0.235c-0.057,0-0.113-0.005-0.171-0.015l-1.717-0.297l0.009,5.815
	c0,1.654-1.345,2.999-2.997,2.999h-0.55c-0.004,0.415-0.008,0.836-0.008,0.836c-0.006,0.549-0.452,0.99-1,0.99
	c-0.656-0.023-1.225-0.506-1-1.01l0.008-0.816h-5c-0.004,0.415-0.008,0.836-0.008,0.836c-0.006,0.549-0.452,0.99-1,0.99
	c-0.556,0-1.006-0.455-1-1.01c0,0,0.004-0.413,0.008-0.816H5.512c-1.652,0-2.997-1.344-2.997-2.997L2.51,13.611
	c-0.001-0.553,0.447-1.001,1-1.001c0.552,0,0.999,0.447,1,0.999l0.005,3.579c0,0.551,0.447,0.999,0.997,0.999h10.116
	c0.55,0,0.997-0.447,0.997-0.997l-0.009-5.994H3.504c-0.552,0-0.999-0.447-1-0.999l-0.008-5.21c0-1.654,1.345-2.998,2.997-2.998
	h10.116c0.654,0,1.255,0.216,1.748,0.573l2.976-0.517c0.297-0.048,0.589,0.031,0.814,0.22C21.374,2.454,21.504,2.734,21.504,3.029z
	 M9.472,7.01h-1.13v2.185h1.13V7.01z M16.613,9.195l-0.007-4.209c0-0.551-0.447-0.998-0.997-0.998H5.493
	c-0.55,0-0.997,0.447-0.997,0.997l0.006,4.21h1.84V6.01c0-0.552,0.447-1,1-1h3.13c0.553,0,1,0.448,1,1v3.185h1.307V6.01
	c0-0.552,0.447-1,1-1s1,0.448,1,1v3.185H16.613z M19.504,4.217l-0.958,0.166c0.04,0.194,0.061,0.396,0.061,0.602l0.007,4.358
	l0.891,0.154V4.217z"/>
</svg>
