<?xml version="1.0" encoding="utf-8"?>
<!-- Generator: Adobe Illustrator 25.4.1, SVG Export Plug-In . SVG Version: 6.00 Build 0)  -->
<svg version="1.1" id="Icons" xmlns="http://www.w3.org/2000/svg" xmlns:xlink="http://www.w3.org/1999/xlink" x="0px" y="0px"
	 viewBox="0 0 24 24" style="enable-background:new 0 0 24 24;" xml:space="preserve">
<g id="Fried-Egg">
	<g>
		<path d="M12.81,15.95c-2.479,0-4.494-2.016-4.494-4.494s2.016-4.494,4.494-4.494c2.478,0,4.493,2.016,4.493,4.494
			S15.287,15.95,12.81,15.95z M12.81,8.962c-1.375,0-2.494,1.119-2.494,2.494c0,1.375,1.119,2.494,2.494,2.494
			s2.493-1.119,2.493-2.494C15.303,10.081,14.185,8.962,12.81,8.962z"/>
	</g>
	<g>
		<path d="M2.655,8.103C2.41,8.598,2.632,9.198,3.131,9.435c0.498,0.238,1.081,0.017,1.331-0.476
			c1.496-2.95,4.373-2.792,4.373-2.792c1.51,0,2.799-0.716,3.855-1.413c2.174-1.412,4.43-0.529,5.701,0.653
			c1.262,1.172,2.294,3.344,1.025,5.656c-0.648,1.349-0.592,2.436-0.542,3.396c0.033,0.645,0.062,1.202-0.119,1.876
			c-0.503,2.204-2.331,3.281-3.874,3.554c-1.508,0.267-3.544-0.11-4.777-2.016c-0.986-1.34-2.154-2.012-3.185-2.605
			c-1.418-0.815-2.442-1.404-2.837-3.537c-0.101-0.543-0.622-0.901-1.165-0.801c-0.544,0.101-0.902,0.623-0.802,1.166
			c0.563,3.041,2.286,4.032,3.807,4.907c0.942,0.542,1.833,1.055,2.536,2.007c1.221,1.889,3.258,2.962,5.504,2.962
			c0.416,0,0.84-0.037,1.267-0.112c2.775-0.49,4.874-2.437,5.466-5.04c0.256-0.943,0.214-1.75,0.177-2.463
			c-0.045-0.858-0.08-1.537,0.323-2.377c1.682-3.063,0.487-6.243-1.442-8.036c-1.941-1.805-5.215-2.771-8.157-0.861
			C10.74,3.646,9.813,4.167,8.839,4.167C8.839,4.167,4.724,3.926,2.655,8.103z"/>
	</g>
</g>
</svg>
