<?xml version="1.0" encoding="utf-8"?>
<!-- Generator: Adobe Illustrator 25.4.1, SVG Export Plug-In . SVG Version: 6.00 Build 0)  -->
<svg version="1.1" id="Icons" xmlns="http://www.w3.org/2000/svg" xmlns:xlink="http://www.w3.org/1999/xlink" x="0px" y="0px"
	 viewBox="0 0 24 24" style="enable-background:new 0 0 24 24;" xml:space="preserve">
<g id="Frying-pan">
	<path d="M21.707,5.39L18.61,2.293C18.423,2.105,18.169,2,17.903,2s-0.52,0.105-0.707,0.293l-2.132,2.132
		C14.117,4.04,13.084,3.823,12,3.823c-1.407,0-2.802,0.369-4.031,1.067C7.489,5.163,7.32,5.773,7.594,6.253
		c0.271,0.48,0.88,0.649,1.363,0.376C9.886,6.102,10.938,5.823,12,5.823c3.406,0,6.177,2.771,6.177,6.177
		c0,1.343-0.435,2.583-1.165,3.597l-1.275-1.275c0.994-1.153,0.956-2.894-0.137-3.988l-2.541-2.541
		c-0.391-0.391-1.023-0.391-1.414,0l-3.85,3.849c-0.188,0.188-0.293,0.442-0.293,0.707s0.105,0.52,0.293,0.707l2.541,2.541
		c0.555,0.555,1.293,0.861,2.078,0.861c0.711,0,1.376-0.262,1.909-0.722l1.274,1.274c-1.014,0.73-2.255,1.166-3.597,1.166
		c-3.406,0-6.177-2.771-6.177-6.177c0-1.191,0.345-2.352,0.996-3.355C7.12,8.182,6.988,7.562,6.525,7.261
		c-0.465-0.3-1.084-0.168-1.384,0.294C4.279,8.884,3.823,10.421,3.823,12c0,1.084,0.217,2.117,0.601,3.065l-2.131,2.13
		c-0.188,0.188-0.293,0.442-0.293,0.707s0.105,0.52,0.293,0.707l3.098,3.097C5.587,21.902,5.843,22,6.099,22
		s0.512-0.098,0.707-0.293l2.131-2.131c0.947,0.384,1.98,0.601,3.064,0.601c1.894,0,3.636-0.653,5.024-1.739l1.773,1.773
		c0.195,0.195,0.451,0.293,0.707,0.293s0.512-0.098,0.707-0.293c0.391-0.39,0.391-1.023,0-1.414l-1.773-1.773
		c1.086-1.388,1.739-3.129,1.739-5.024c0-1.084-0.217-2.117-0.601-3.064l2.131-2.131C22.098,6.414,22.098,5.781,21.707,5.39z
		 M6.099,19.585l-1.684-1.683l1.032-1.032c0.477,0.64,1.043,1.206,1.683,1.683L6.099,19.585z M11.75,14.184L9.916,12.35l0.51-0.509
		l1.264,1.264c0.195,0.195,0.451,0.293,0.707,0.293s0.512-0.098,0.707-0.293c0.391-0.391,0.391-1.023,0-1.414l-1.264-1.264
		l0.512-0.512l1.834,1.834c0.366,0.366,0.365,0.962-0.001,1.328c0,0,0,0,0,0l-1.106,1.106C12.723,14.538,12.105,14.538,11.75,14.184
		z M18.553,7.13c-0.477-0.64-1.043-1.206-1.683-1.683l1.033-1.033l1.683,1.683L18.553,7.13z"/>
</g>
</svg>
