<svg fill="#000000" xmlns="http://www.w3.org/2000/svg"  viewBox="0 0 16 16" width="16px" height="16px"><path d="M 1.4960938 0.99609375 A 0.50005 0.50005 0 0 0 1.2207031 1.9160156 C 1.2207031 1.9160156 1.9079435 2.3727379 3 2.8574219 L 3 4.09375 C 2.4209721 4.3022322 2 4.8531597 2 5.5 C 2 6.3225048 2.6774952 7 3.5 7 C 4.3225048 7 5 6.3225048 5 5.5 C 5 4.8531597 4.5790279 4.3022322 4 4.09375 L 4 3.2539062 C 4.8701597 3.5655956 5.889782 3.8252729 7 3.9335938 L 7 5.09375 C 6.4209721 5.3022322 6 5.8531597 6 6.5 C 6 7.3225048 6.6774952 8 7.5 8 C 8.3225048 8 9 7.3225048 9 6.5 C 9 5.8531597 8.5790279 5.3022322 8 5.09375 L 8 4 C 9.4950126 4 10.872055 3.6579339 12 3.2539062 L 12 4.09375 C 11.420972 4.3022322 11 4.8531597 11 5.5 C 11 6.3225048 11.677495 7 12.5 7 C 13.322505 7 14 6.3225048 14 5.5 C 14 4.8531597 13.579028 4.3022322 13 4.09375 L 13 2.8574219 C 14.092057 2.3727379 14.779297 1.9160156 14.779297 1.9160156 A 0.50107464 0.50107464 0 1 0 14.220703 1.0839844 C 14.220703 1.0839844 11.33166 3 8 3 C 4.6683401 3 1.7792969 1.0839844 1.7792969 1.0839844 A 0.50005 0.50005 0 0 0 1.4960938 0.99609375 z M 3.5 5 C 3.7820647 5 4 5.2179353 4 5.5 C 4 5.7820647 3.7820647 6 3.5 6 C 3.2179353 6 3 5.7820647 3 5.5 C 3 5.2179353 3.2179353 5 3.5 5 z M 12.5 5 C 12.782065 5 13 5.2179353 13 5.5 C 13 5.7820647 12.782065 6 12.5 6 C 12.217935 6 12 5.7820647 12 5.5 C 12 5.2179353 12.217935 5 12.5 5 z M 7.5 6 C 7.7820647 6 8 6.2179353 8 6.5 C 8 6.7820647 7.7820647 7 7.5 7 C 7.2179353 7 7 6.7820647 7 6.5 C 7 6.2179353 7.2179353 6 7.5 6 z M 1.4960938 6.9960938 A 0.50005 0.50005 0 0 0 1.2207031 7.9160156 C 1.2207031 7.9160156 1.9079435 8.3727379 3 8.8574219 L 3 10.09375 C 2.4209721 10.302232 2 10.853159 2 11.5 C 2 12.322505 2.6774952 13 3.5 13 C 4.3225048 13 5 12.322505 5 11.5 C 5 10.853159 4.5790279 10.302232 4 10.09375 L 4 9.2539062 C 5.1279451 9.6579338 6.5049874 10 8 10 L 8 11.09375 C 7.4209721 11.302232 7 11.853159 7 12.5 C 7 13.322505 7.6774952 14 8.5 14 C 9.3225048 14 10 13.322505 10 12.5 C 10 11.853159 9.5790279 11.302232 9 11.09375 L 9 9.9335938 C 10.110218 9.8252729 11.12984 9.5655956 12 9.2539062 L 12 10.09375 C 11.420972 10.302232 11 10.853159 11 11.5 C 11 12.322505 11.677495 13 12.5 13 C 13.322505 13 14 12.322505 14 11.5 C 14 10.853159 13.579028 10.302232 13 10.09375 L 13 8.8574219 C 14.092057 8.3727379 14.779297 7.9160156 14.779297 7.9160156 A 0.50107464 0.50107464 0 1 0 14.220703 7.0839844 C 14.220703 7.0839844 11.33166 9 8 9 C 4.6683401 9 1.7792969 7.0839844 1.7792969 7.0839844 A 0.50005 0.50005 0 0 0 1.4960938 6.9960938 z M 3.5 11 C 3.7820647 11 4 11.217935 4 11.5 C 4 11.782065 3.7820647 12 3.5 12 C 3.2179353 12 3 11.782065 3 11.5 C 3 11.217935 3.2179353 11 3.5 11 z M 12.5 11 C 12.782065 11 13 11.217935 13 11.5 C 13 11.782065 12.782065 12 12.5 12 C 12.217935 12 12 11.782065 12 11.5 C 12 11.217935 12.217935 11 12.5 11 z M 8.5 12 C 8.7820647 12 9 12.217935 9 12.5 C 9 12.782065 8.7820647 13 8.5 13 C 8.2179353 13 8 12.782065 8 12.5 C 8 12.217935 8.2179353 12 8.5 12 z"/></svg>