<?xml version="1.0" encoding="utf-8"?>
<!-- Generator: Adobe Illustrator 26.3.1, SVG Export Plug-In . SVG Version: 6.00 Build 0)  -->
<svg version="1.1" id="Icons" xmlns="http://www.w3.org/2000/svg" xmlns:xlink="http://www.w3.org/1999/xlink" x="0px" y="0px"
	 viewBox="0 0 24 24" style="enable-background:new 0 0 24 24;" xml:space="preserve">
<g id="Gas-Station">
	<path d="M13.462,5.256H8.836c-1.563,0-2.835,1.271-2.835,2.834v8.656c-0.545,0.009-0.984,0.45-0.984,0.997c0,0.552,0.447,1,1,1
		H16.28c0.553,0,1-0.448,1-1c0-0.546-0.439-0.987-0.983-0.997v-1.189h1.897c0.553,0,1-0.448,1-1V10.35
		c0-0.359-0.192-0.691-0.505-0.869l-2.393-1.363V8.091C16.297,6.528,15.025,5.256,13.462,5.256z M8.001,11.887h6.296v4.856H8.001
		V11.887z M8.836,7.256h4.626c0.46,0,0.835,0.375,0.835,0.834v1.796H8.001V8.091C8.001,7.631,8.376,7.256,8.836,7.256z
		 M17.194,10.931v2.627h-0.897V10.42L17.194,10.931z"/>
	<path d="M18,2H6C3.794,2,2,3.794,2,6v1.925c0,0.552,0.447,1,1,1s1-0.448,1-1V6c0-1.103,0.897-2,2-2h12c1.103,0,2,0.897,2,2v12
		c0,1.103-0.897,2-2,2H6c-1.103,0-2-0.897-2-2v-6.66c0-0.552-0.447-1-1-1s-1,0.448-1,1V18c0,2.206,1.794,4,4,4h12
		c2.206,0,4-1.794,4-4V6C22,3.794,20.206,2,18,2z"/>
</g>
</svg>
