<?xml version="1.0" encoding="utf-8"?>
<!-- Generator: Adobe Illustrator 25.4.1, SVG Export Plug-In . SVG Version: 6.00 Build 0)  -->
<svg version="1.1" id="Icons" xmlns="http://www.w3.org/2000/svg" xmlns:xlink="http://www.w3.org/1999/xlink" x="0px" y="0px"
	 viewBox="0 0 24 24" style="enable-background:new 0 0 24 24;" xml:space="preserve">
<g id="Git-pull-request">
	<path d="M4.936,16.389c0,1.465,1.192,2.658,2.658,2.658c1.465,0,2.657-1.192,2.657-2.658c0-1.111-0.687-2.062-1.657-2.458v-3.672
		c0.97-0.396,1.657-1.347,1.657-2.458c0-1.465-1.192-2.658-2.657-2.658c-1.466,0-2.658,1.192-2.658,2.658
		c0,1.111,0.687,2.063,1.658,2.459v3.671C5.623,14.327,4.936,15.278,4.936,16.389z M7.594,17.047c-0.363,0-0.658-0.295-0.658-0.658
		c0-0.362,0.295-0.657,0.658-0.657c0.362,0,0.657,0.295,0.657,0.657C8.251,16.752,7.956,17.047,7.594,17.047z M7.594,7.143
		c0.362,0,0.657,0.295,0.657,0.658c0,0.362-0.295,0.657-0.657,0.657c-0.363,0-0.658-0.295-0.658-0.657
		C6.936,7.438,7.23,7.143,7.594,7.143z"/>
	<path d="M14.23,5.289c-0.367-0.413-0.999-0.45-1.411-0.083L10.92,6.894c-0.214,0.19-0.336,0.462-0.336,0.748
		s0.122,0.558,0.336,0.747l1.899,1.689c0.19,0.169,0.428,0.253,0.664,0.253c0.275,0,0.55-0.113,0.747-0.335
		c0.35-0.394,0.322-0.981-0.039-1.353h0.397c0.268,0,0.456,0.163,0.544,0.26c0.177,0.194,0.273,0.457,0.273,0.74l-0.001,4.289
		c-0.97,0.396-1.656,1.347-1.656,2.458c0,1.465,1.192,2.658,2.657,2.658c1.466,0,2.658-1.192,2.658-2.658
		c0-1.112-0.688-2.063-1.659-2.459l0.001-4.287c0.001-0.782-0.281-1.522-0.793-2.086c-0.536-0.59-1.256-0.915-2.024-0.915h-0.397
		C14.552,6.27,14.581,5.683,14.23,5.289z M16.406,17.047c-0.362,0-0.657-0.295-0.657-0.658c0-0.362,0.295-0.657,0.657-0.657
		c0.363,0,0.658,0.295,0.658,0.657C17.064,16.752,16.77,17.047,16.406,17.047z"/>
	<path d="M17.002,2H7C4.243,2,2.001,4.243,2.001,6.999v0.844c0,0.552,0.447,1,1,1s1-0.448,1-1V6.999C4.001,5.345,5.347,4,7,4h10.002
		C18.655,4,20,5.345,20,6.999v10.003C20,18.655,18.655,20,17.002,20H7c-1.653,0-2.999-1.345-2.999-2.998v-5.75c0-0.552-0.447-1-1-1
		s-1,0.448-1,1v5.75C2.001,19.758,4.243,22,7,22h10.002C19.758,22,22,19.758,22,17.002V6.999C22,4.243,19.758,2,17.002,2z"/>
</g>
</svg>
