<?xml version="1.0" encoding="utf-8"?>
<!-- Generator: Adobe Illustrator 25.4.1, SVG Export Plug-In . SVG Version: 6.00 Build 0)  -->
<svg version="1.1" id="Icons" xmlns="http://www.w3.org/2000/svg" xmlns:xlink="http://www.w3.org/1999/xlink" x="0px" y="0px"
	 viewBox="0 0 24 24" style="enable-background:new 0 0 24 24;" xml:space="preserve">
<g id="Git-commit">
	<path d="M5.834,12.998h2.559C8.828,14.59,10.272,15.77,12,15.77s3.172-1.18,3.607-2.771h2.559c0.553,0,1-0.448,1-1s-0.447-1-1-1
		h-2.57C15.149,9.424,13.715,8.262,12,8.262s-3.149,1.163-3.596,2.736h-2.57c-0.553,0-1,0.448-1,1S5.281,12.998,5.834,12.998z
		 M12,10.262c0.967,0,1.754,0.787,1.754,1.754S12.967,13.77,12,13.77s-1.754-0.787-1.754-1.754S11.033,10.262,12,10.262z"/>
	<path d="M17.002,2H7C4.243,2,2.001,4.243,2.001,6.999v0.844c0,0.552,0.447,1,1,1s1-0.448,1-1V6.999C4.001,5.345,5.347,4,7,4h10.002
		C18.655,4,20,5.345,20,6.999v10.003C20,18.655,18.655,20,17.002,20H7c-1.653,0-2.999-1.345-2.999-2.998v-5.75c0-0.552-0.447-1-1-1
		s-1,0.448-1,1v5.75C2.001,19.758,4.243,22,7,22h10.002C19.758,22,22,19.758,22,17.002V6.999C22,4.243,19.758,2,17.002,2z"/>
</g>
</svg>
