<?xml version="1.0" encoding="utf-8"?>
<!-- Generator: Adobe Illustrator 25.4.1, SVG Export Plug-In . SVG Version: 6.00 Build 0)  -->
<svg version="1.1" id="Icons" xmlns="http://www.w3.org/2000/svg" xmlns:xlink="http://www.w3.org/1999/xlink" x="0px" y="0px"
	 viewBox="0 0 24 24" style="enable-background:new 0 0 24 24;" xml:space="preserve">
<g id="Git-merge">
	<path d="M5.843,16.294c0,1.465,1.192,2.657,2.657,2.657s2.657-1.192,2.657-2.657c0-1.111-0.687-2.062-1.657-2.459v-1.019l4-0.001
		c0.001,0,0.001,0,0.001,0c0.282,0,0.545,0.097,0.739,0.274c0.097,0.088,0.26,0.276,0.26,0.544v0.202
		c-0.97,0.396-1.657,1.348-1.657,2.459c0,1.465,1.192,2.657,2.657,2.657s2.657-1.192,2.657-2.657c0-1.111-0.687-2.062-1.657-2.459
		v-0.202c0-0.769-0.325-1.488-0.915-2.024c-0.563-0.512-1.303-0.794-2.084-0.794H13.5l-4,0.001v-0.652
		c0.97-0.396,1.657-1.348,1.657-2.459c0-1.465-1.192-2.657-2.657-2.657S5.843,6.24,5.843,7.706c0,1.111,0.687,2.062,1.657,2.459
		v3.671C6.53,14.232,5.843,15.183,5.843,16.294z M15.5,16.952c-0.362,0-0.657-0.295-0.657-0.657c0-0.363,0.295-0.658,0.657-0.658
		s0.657,0.295,0.657,0.658C16.157,16.657,15.862,16.952,15.5,16.952z M8.5,16.952c-0.362,0-0.657-0.295-0.657-0.657
		c0-0.363,0.295-0.658,0.657-0.658s0.657,0.295,0.657,0.658C9.157,16.657,8.862,16.952,8.5,16.952z M8.5,7.048
		c0.362,0,0.657,0.295,0.657,0.657c0,0.363-0.295,0.658-0.657,0.658S7.843,8.068,7.843,7.706C7.843,7.343,8.138,7.048,8.5,7.048z"/>
	<path d="M17.002,2H7C4.243,2,2.001,4.243,2.001,6.999v0.844c0,0.552,0.447,1,1,1s1-0.448,1-1V6.999C4.001,5.345,5.347,4,7,4h10.002
		C18.655,4,20,5.345,20,6.999v10.003C20,18.655,18.655,20,17.002,20H7c-1.653,0-2.999-1.345-2.999-2.998v-5.75c0-0.552-0.447-1-1-1
		s-1,0.448-1,1v5.75C2.001,19.758,4.243,22,7,22h10.002C19.758,22,22,19.758,22,17.002V6.999C22,4.243,19.758,2,17.002,2z"/>
</g>
</svg>
