<?xml version="1.0" encoding="utf-8"?>
<!-- Generator: Adobe Illustrator 25.4.1, SVG Export Plug-In . SVG Version: 6.00 Build 0)  -->
<svg version="1.1" id="Icons" xmlns="http://www.w3.org/2000/svg" xmlns:xlink="http://www.w3.org/1999/xlink" x="0px" y="0px"
	 viewBox="0 0 24 24" style="enable-background:new 0 0 24 24;" xml:space="preserve">
<g id="Git-repository-private">
	<path d="M12.001,4.76c-2.314,0-4.197,1.899-4.197,4.233l0,0.411H7.08c-0.265,0-0.52,0.105-0.707,0.293S6.08,10.14,6.08,10.405
		L6.081,18c0,0.552,0.448,1,1,1h9.836c0.266,0,0.52-0.105,0.707-0.293s0.293-0.442,0.293-0.707l-0.001-7.595c0-0.552-0.448-1-1-1
		h-0.718V8.994C16.198,6.66,14.315,4.76,12.001,4.76z M9.804,8.994c0-1.232,0.986-2.234,2.197-2.234
		c1.212,0,2.197,1.002,2.197,2.234v0.411H9.803L9.804,8.994z M8.081,17L8.08,11.405h7.836L15.917,17H8.081z"/>
	<path d="M10.602,11.984H9.771c-0.552,0-1,0.448-1,1s0.448,1,1,1h0.831c0.552,0,1-0.448,1-1S11.154,11.984,10.602,11.984z"/>
	<path d="M10.602,14.42H9.771c-0.552,0-1,0.448-1,1s0.448,1,1,1h0.831c0.552,0,1-0.448,1-1S11.154,14.42,10.602,14.42z"/>
	<path d="M17.002,2H7C4.243,2,2,4.243,2,6.999v0.844c0,0.552,0.448,1,1,1s1-0.448,1-1V6.999C4,5.345,5.346,4,7,4h10.002
		C18.655,4,20,5.345,20,6.999v10.003C20,18.655,18.655,20,17.002,20H7C5.346,20,4,18.655,4,17.002v-5.75c0-0.552-0.448-1-1-1
		s-1,0.448-1,1v5.75C2,19.758,4.243,22,7,22h10.002C19.758,22,22,19.758,22,17.002V6.999C22,4.243,19.758,2,17.002,2z"/>
</g>
</svg>
