<?xml version="1.0" encoding="utf-8"?>
<!-- Generator: Adobe Illustrator 25.4.1, SVG Export Plug-In . SVG Version: 6.00 Build 0)  -->
<svg version="1.1" id="Icons" xmlns="http://www.w3.org/2000/svg" xmlns:xlink="http://www.w3.org/1999/xlink" x="0px" y="0px"
	 viewBox="0 0 24 24" style="enable-background:new 0 0 24 24;" xml:space="preserve">
<g id="Git-repository">
	<path d="M6.718,10.407h1.496c0.552,0,1-0.448,1-1s-0.448-1-1-1H6.718c-0.552,0-1,0.448-1,1S6.166,10.407,6.718,10.407z"/>
	<path d="M6.718,13.669h1.496c0.552,0,1-0.448,1-1s-0.448-1-1-1H6.718c-0.552,0-1,0.448-1,1S6.166,13.669,6.718,13.669z"/>
	<path d="M6.718,7.145h1.496c0.552,0,1-0.448,1-1s-0.448-1-1-1H6.718c-0.552,0-1,0.448-1,1S6.166,7.145,6.718,7.145z"/>
	<path d="M17.002,2H7C4.243,2,2,4.243,2,6.999v0.844c0,0.552,0.448,1,1,1s1-0.448,1-1V6.999C4,5.345,5.346,4,7,4h4.971v6.696
		c0,0.367,0.201,0.704,0.523,0.879c0.322,0.176,0.715,0.16,1.022-0.041l1.308-0.851l1.308,0.851
		c0.165,0.108,0.355,0.162,0.545,0.162c0.164,0,0.328-0.04,0.477-0.121c0.323-0.175,0.523-0.512,0.523-0.879V4.083
		C19.005,4.391,20,5.578,20,6.999v8.055H4v-3.802c0-0.552-0.448-1-1-1s-1,0.448-1,1v5.75C2,19.758,4.243,22,7,22h10.002
		C19.758,22,22,19.758,22,17.002V6.999C22,4.243,19.758,2,17.002,2z M15.369,8.652c-0.331-0.216-0.76-0.216-1.091,0l-0.308,0.2V4
		h1.707v4.852L15.369,8.652z M17.002,20H7c-1.636,0-2.965-1.317-2.994-2.946h15.989C19.966,18.683,18.638,20,17.002,20z"/>
</g>
</svg>
