<?xml version="1.0" encoding="utf-8"?>
<!-- Generator: Adobe Illustrator 25.4.1, SVG Export Plug-In . SVG Version: 6.00 Build 0)  -->
<svg version="1.1" id="Icons" xmlns="http://www.w3.org/2000/svg" xmlns:xlink="http://www.w3.org/1999/xlink" x="0px" y="0px"
	 viewBox="0 0 24 24" style="enable-background:new 0 0 24 24;" xml:space="preserve">
<g id="Git-repository-commit">
	<path d="M6.718,10.407h1.495c0.553,0,1-0.448,1-1s-0.447-1-1-1H6.718c-0.553,0-1,0.448-1,1S6.165,10.407,6.718,10.407z"/>
	<path d="M6.718,13.669h1.495c0.553,0,1-0.448,1-1s-0.447-1-1-1H6.718c-0.553,0-1,0.448-1,1S6.165,13.669,6.718,13.669z"/>
	<path d="M6.718,7.145h1.495c0.553,0,1-0.448,1-1s-0.447-1-1-1H6.718c-0.553,0-1,0.448-1,1S6.165,7.145,6.718,7.145z"/>
	<path d="M17.002,2H7C4.243,2,2.001,4.243,2.001,6.999v0.844c0,0.552,0.447,1,1,1s1-0.448,1-1V6.999C4.001,5.345,5.347,4,7,4h10.002
		C18.655,4,20,5.345,20,6.999v8.055h-4.56V9.776l0.735,0.733c0.391,0.39,1.023,0.39,1.414-0.002c0.39-0.391,0.39-1.024-0.002-1.414
		l-2.441-2.436c-0.391-0.39-1.022-0.39-1.413,0.001L11.293,9.1c-0.391,0.391-0.391,1.024,0,1.414
		c0.195,0.195,0.451,0.293,0.707,0.293s0.512-0.098,0.707-0.293l0.733-0.734v5.274H4.001v-3.802c0-0.552-0.447-1-1-1s-1,0.448-1,1
		v5.75C2.001,19.758,4.243,22,7,22h10.002C19.758,22,22,19.758,22,17.002V6.999C22,4.243,19.758,2,17.002,2z M17.002,20H7
		c-1.636,0-2.965-1.317-2.994-2.946h15.989C19.966,18.683,18.638,20,17.002,20z"/>
</g>
</svg>
