<?xml version="1.0" encoding="utf-8"?>
<!-- Generator: Adobe Illustrator 25.4.1, SVG Export Plug-In . SVG Version: 6.00 Build 0)  -->
<svg version="1.1" id="Icons" xmlns="http://www.w3.org/2000/svg" xmlns:xlink="http://www.w3.org/1999/xlink" x="0px" y="0px"
	 viewBox="0 0 24 24" style="enable-background:new 0 0 24 24;" xml:space="preserve">
<g id="Globe-2">
	<path d="M11.998,1.997c-1.842,0-3.651,0.515-5.232,1.488c-0.47,0.29-0.617,0.906-0.327,1.376c0.289,0.47,0.906,0.616,1.376,0.327
		c0.314-0.193,0.64-0.364,0.974-0.511C8.339,5.626,7.994,6.759,7.764,8H5.1c0.15-0.257,0.296-0.516,0.476-0.759
		c0.329-0.443,0.236-1.07-0.208-1.399C4.927,5.514,4.299,5.606,3.97,6.05c-1.291,1.74-1.973,3.796-1.973,5.948
		C1.997,17.513,6.483,22,11.998,22C17.513,22,22,17.513,22,11.998C22,6.483,17.513,1.997,11.998,1.997z M11.998,20
		c-0.708,0-1.665-1.503-2.196-4h4.393C13.664,18.497,12.707,20,11.998,20z M9.502,14c-0.061-0.631-0.097-1.297-0.097-2.002
		c0-0.704,0.037-1.368,0.097-1.998h4.993c0.06,0.63,0.097,1.294,0.097,1.998c0,0.705-0.037,1.371-0.097,2.002H9.502z M16.496,10
		h3.242C19.903,10.64,20,11.307,20,11.998c0,0.692-0.098,1.361-0.264,2.002h-3.239c0.057-0.661,0.095-1.331,0.095-2.002
		C16.592,11.328,16.553,10.66,16.496,10z M18.919,8h-2.684c-0.23-1.241-0.575-2.375-1.024-3.325C16.772,5.362,18.069,6.535,18.919,8
		z M11.998,3.997c0.709,0,1.667,1.504,2.198,4.003H9.801C10.332,5.501,11.289,3.997,11.998,3.997z M7.501,10
		c-0.057,0.66-0.096,1.328-0.096,1.998c0,0.671,0.037,1.341,0.094,2.002H4.26c-0.166-0.641-0.264-1.31-0.264-2.002
		c0-0.684,0.11-1.349,0.279-1.998H7.501z M5.08,16h2.686c0.23,1.239,0.572,2.374,1.021,3.322C7.227,18.635,5.93,17.464,5.08,16z
		 M15.211,19.321c0.449-0.948,0.791-2.082,1.021-3.321h2.685C18.067,17.463,16.77,18.635,15.211,19.321z"/>
</g>
</svg>
