<?xml version="1.0" encoding="utf-8"?>
<!-- Generator: Adobe Illustrator 25.4.1, SVG Export Plug-In . SVG Version: 6.00 Build 0)  -->
<svg version="1.1" id="Icons" xmlns="http://www.w3.org/2000/svg" xmlns:xlink="http://www.w3.org/1999/xlink" x="0px" y="0px"
	 viewBox="0 0 24 24" style="enable-background:new 0 0 24 24;" xml:space="preserve">
<g id="Globe-1">
	<path d="M8.728,17.311c0.927-0.818,0.877-1.984,0.877-1.984c0-1.498-1.235-2.716-2.755-2.716H4.031C4.016,12.409,4,12.206,4,12
		c0-1.719,0.546-3.363,1.579-4.755c0.329-0.443,0.236-1.07-0.207-1.399C4.931,5.517,4.303,5.61,3.974,6.053
		C2.683,7.792,2,9.849,2,12c0,5.514,4.486,10,10,10s10-4.486,10-10S17.514,2,12,2c-1.842,0-3.65,0.515-5.23,1.488
		c-0.471,0.29-0.616,0.906-0.327,1.376c0.29,0.469,0.905,0.616,1.376,0.327C9.083,4.412,10.529,4,12,4
		c1.739,0,3.346,0.564,4.66,1.511h-5.626c-1.733,0-3.144,1.389-3.144,3.095c0,1.707,1.41,3.095,3.144,3.095h3.475
		c0.297,0,0.548,0.235,0.548,0.513s-0.251,0.513-0.548,0.513h-1.095c-1.457,0-2.642,1.168-2.642,2.604s1.185,2.604,2.642,2.604
		h3.931C15.926,19.214,14.055,20,12,20c-1.999,0-3.824-0.742-5.228-1.958C7.964,18.083,8.728,17.311,8.728,17.311z M6.85,14.611
		c0.409,0,0.755,0.328,0.755,0.716c0,0.388-0.346,0.715-0.755,0.715H5.108c-0.266-0.451-0.488-0.929-0.662-1.431H6.85z
		 M12.772,15.331c0-0.328,0.294-0.604,0.642-0.604h1.095c1.405,0,2.548-1.127,2.548-2.513s-1.143-2.513-2.548-2.513h-3.475
		c-0.631,0-1.144-0.491-1.144-1.095s0.513-1.095,1.144-1.095h7.583C19.489,8.792,20,10.337,20,12c0,1.431-0.382,2.772-1.043,3.936
		h-5.543C13.066,15.936,12.772,15.659,12.772,15.331z"/>
</g>
</svg>
