<?xml version="1.0" encoding="utf-8"?>
<!-- Generator: Adobe Illustrator 25.4.1, SVG Export Plug-In . SVG Version: 6.00 Build 0)  -->
<svg version="1.1" id="Icons" xmlns="http://www.w3.org/2000/svg" xmlns:xlink="http://www.w3.org/1999/xlink" x="0px" y="0px"
	 viewBox="0 0 24 24" style="enable-background:new 0 0 24 24;" xml:space="preserve">
<g id="Global-position">
	<path d="M21.975,12.663C21.989,12.444,22,12.224,22,12c0-5.514-4.486-10-10-10c-1.841,0-3.649,0.515-5.231,1.488
		c-0.47,0.29-0.616,0.905-0.327,1.375C6.729,5.334,7.345,5.48,7.817,5.191c0.456-0.281,0.94-0.496,1.436-0.679l0.003,3.405
		c0.003,0.038,0.065,0.94-1.47,1.19c-0.043,0.007-0.087,0.017-0.129,0.03c-0.663,0.201-1.918,1.027-1.918,2.713l0.004,1.985
		c0,0.003-0.034,0.271-0.233,0.413c-0.218,0.155-0.629,0.177-1.158,0.063c-0.003-0.001-0.005,0-0.008,0C4.122,13.579,4,12.804,4,12
		c0-1.719,0.546-3.364,1.579-4.755c0.329-0.443,0.236-1.07-0.207-1.399c-0.441-0.33-1.069-0.236-1.398,0.207
		C2.683,7.792,2,9.848,2,12c0,5.514,4.486,10,10,10c1.086,0,2.144-0.181,3.16-0.52c0.102,0.103,0.188,0.189,0.234,0.234
		c0.194,0.19,0.446,0.285,0.699,0.285c0.245,0,0.49-0.089,0.683-0.27c0.536-0.5,5.233-4.989,5.233-8.441
		C22.009,13.077,21.997,12.869,21.975,12.663z M12,20c-2.803,0-5.269-1.452-6.698-3.64c0.544-0.052,1.023-0.221,1.422-0.522
		c0.91-0.686,1.006-1.728,1.016-1.912V11.85c0-0.517,0.31-0.719,0.464-0.786c2.597-0.466,3.13-2.37,3.049-3.236V4.052
		C11.501,4.028,11.749,4,12,4c3.015,0,5.643,1.677,7.007,4.147c-0.861-0.49-1.854-0.773-2.913-0.773
		c-3.262,0-5.915,2.653-5.915,5.915c0,2.081,1.941,4.756,3.466,6.539C13.108,19.94,12.559,20,12,20z M16.106,19.583
		c-1.74-1.854-3.928-4.708-3.928-6.294c0-2.159,1.756-3.915,3.915-3.915s3.915,1.756,3.915,3.915
		C20.009,14.999,17.84,17.797,16.106,19.583z"/>
	<path d="M16.094,10.41c-1.592,0-2.888,1.295-2.888,2.888s1.296,2.888,2.888,2.888s2.888-1.295,2.888-2.888
		S17.686,10.41,16.094,10.41z M16.094,14.185c-0.489,0-0.888-0.398-0.888-0.888s0.398-0.888,0.888-0.888s0.888,0.398,0.888,0.888
		S16.583,14.185,16.094,14.185z"/>
</g>
</svg>
