<?xml version="1.0" encoding="utf-8"?>
<!-- Generator: Adobe Illustrator 25.4.1, SVG Export Plug-In . SVG Version: 6.00 Build 0)  -->
<svg version="1.1" id="Icons" xmlns="http://www.w3.org/2000/svg" xmlns:xlink="http://www.w3.org/1999/xlink" x="0px" y="0px"
	 viewBox="0 0 24 24" style="enable-background:new 0 0 24 24;" xml:space="preserve">
<g id="GPS-off">
	<path d="M20.999,10.999C20.999,10.999,20.999,10.999,20.999,10.999l-0.374,0c-0.467-3.989-3.638-7.159-7.627-7.625l0-0.376
		c0-0.552-0.448-0.999-1-0.999c-0.553,0-1,0.448-1,1.001l0,0.37C9.348,3.558,7.84,4.209,6.6,5.189L5.516,4.105
		c-0.391-0.39-1.024-0.39-1.415,0c-0.39,0.391-0.39,1.024,0,1.415L5.181,6.6c-0.988,1.238-1.645,2.749-1.838,4.401l-0.346,0
		c-0.552,0-1,0.448-0.999,1.001c0,0.552,0.448,0.999,1,0.999c0,0,0,0,0.001,0l0.349,0c0.148,1.286,0.571,2.53,1.269,3.64
		c0.293,0.466,0.912,0.609,1.379,0.313c0.467-0.294,0.608-0.911,0.313-1.379c-0.497-0.79-0.818-1.667-0.955-2.576l0.234,0
		c0.552,0,1-0.448,0.999-1.001c0-0.552-0.448-0.999-1-0.999c0,0,0,0-0.001,0l-0.223,0C5.534,9.897,5.97,8.884,6.608,8.026
		l9.369,9.364c-0.859,0.64-1.874,1.078-2.979,1.246l0-0.225c0-0.552-0.448-0.999-1-0.999c-0.553,0-1,0.448-1,1.001l0,0.232
		c-0.914-0.137-1.794-0.461-2.587-0.962c-0.468-0.296-1.084-0.156-1.38,0.311c-0.295,0.467-0.156,1.084,0.311,1.38
		c1.114,0.705,2.364,1.13,3.657,1.279l0,0.35C11,21.553,11.448,22,12,22c0.553,0,1.001-0.448,1-1.001l0-0.343
		c1.654-0.193,3.166-0.851,4.405-1.841l1.08,1.079c0.195,0.195,0.451,0.292,0.707,0.292s0.512-0.098,0.708-0.293
		c0.39-0.391,0.39-1.024,0-1.415l-1.084-1.084c0.979-1.24,1.629-2.747,1.816-4.397l0.37,0c0.552,0,1-0.448,0.999-1.001
		C21.999,11.446,21.551,10.999,20.999,10.999z M17.387,15.97l-9.36-9.355C8.886,5.984,9.899,5.554,11,5.391l0,0.23
		c0,0.552,0.448,0.999,1,0.999c0.553,0,1.001-0.448,1-1.001l0-0.223c2.884,0.441,5.164,2.721,5.604,5.605l-0.225,0
		c-0.552,0-1,0.448-0.999,1.001c0,0.552,0.448,0.999,1,0.999c0,0,0,0,0.001,0l0.227,0C18.446,14.1,18.017,15.111,17.387,15.97z"/>
</g>
</svg>
