<?xml version="1.0" encoding="utf-8"?>
<!-- Generator: Adobe Illustrator 25.4.1, SVG Export Plug-In . SVG Version: 6.00 Build 0)  -->
<svg version="1.1" id="Icons" xmlns="http://www.w3.org/2000/svg" xmlns:xlink="http://www.w3.org/1999/xlink" x="0px" y="0px"
	 viewBox="0 0 24 24" style="enable-background:new 0 0 24 24;" xml:space="preserve">
<g id="GPS-fixed">
	<path d="M20.999,10.999C20.999,10.999,20.999,10.999,20.999,10.999l-0.374,0c-0.467-3.989-3.638-7.159-7.627-7.625l0-0.376
		c0-0.552-0.448-0.999-1-0.999c-0.553,0-1,0.448-1,1.001l0,0.37c-4.003,0.454-7.188,3.631-7.655,7.63l-0.346,0
		c-0.552,0-1,0.448-0.999,1.001c0,0.552,0.448,0.999,1,0.999c0,0,0,0,0.001,0l0.349,0c0.148,1.286,0.571,2.53,1.269,3.64
		c0.294,0.467,0.911,0.609,1.379,0.313c0.467-0.294,0.608-0.911,0.313-1.379c-0.497-0.79-0.818-1.667-0.955-2.576l0.234,0
		c0.552,0,1-0.448,0.999-1.001c0-0.552-0.448-0.999-1-0.999c0,0,0,0-0.001,0l-0.223,0C5.808,8.106,8.102,5.821,11,5.391l0,0.23
		c0,0.552,0.448,0.999,1,0.999c0.553,0,1.001-0.448,1-1.001l0-0.223c2.884,0.441,5.164,2.721,5.604,5.605l-0.225,0
		c-0.552,0-1,0.448-0.999,1.001c0,0.552,0.448,0.999,1,0.999c0,0,0,0,0.001,0l0.227,0c-0.43,2.899-2.716,5.193-5.611,5.635l0-0.225
		c0-0.552-0.448-0.999-1-0.999c-0.553,0-1,0.448-1,1.001l0,0.232c-0.914-0.137-1.794-0.461-2.587-0.962
		c-0.468-0.296-1.084-0.156-1.38,0.311c-0.295,0.467-0.156,1.084,0.311,1.38c1.114,0.705,2.364,1.13,3.657,1.279l0,0.35
		C11,21.553,11.448,22,12,22c0.553,0,1.001-0.448,1-1.001l0-0.343c3.999-0.468,7.177-3.653,7.63-7.657l0.37,0
		c0.552,0,1-0.448,0.999-1.001C21.999,11.446,21.551,10.999,20.999,10.999z"/>
	<path d="M11.984,15.891c2.137,0,3.875-1.739,3.875-3.875S14.121,8.14,11.984,8.14s-3.875,1.739-3.875,3.875
		S9.848,15.891,11.984,15.891z M11.984,10.14c1.034,0,1.875,0.841,1.875,1.875s-0.841,1.875-1.875,1.875s-1.875-0.841-1.875-1.875
		S10.95,10.14,11.984,10.14z"/>
</g>
</svg>
