<?xml version="1.0" encoding="utf-8"?>
<!-- Generator: Adobe Illustrator 25.4.1, SVG Export Plug-In . SVG Version: 6.00 Build 0)  -->
<svg version="1.1" id="Icons" xmlns="http://www.w3.org/2000/svg" xmlns:xlink="http://www.w3.org/1999/xlink" x="0px" y="0px"
	 viewBox="0 0 24 24" style="enable-background:new 0 0 24 24;" xml:space="preserve">
<g id="GPS-no-fixed">
	<path d="M20.999,10.999L20.999,10.999l-0.374,0c-0.467-3.989-3.638-7.159-7.627-7.625c0-0.092,0-0.376,0-0.376
		c0-0.552-0.449-1-1.001-0.999c-0.552,0-0.999,0.448-0.999,1.001c0,0,0,0.28,0,0.37c-4.003,0.454-7.188,3.631-7.655,7.63l-0.346,0
		c-0.552,0-0.999,0.448-0.999,1.001c0,0.552,0.448,0.999,1,0.999H3l0.349,0c0.148,1.286,0.57,2.53,1.268,3.64
		c0.296,0.468,0.913,0.609,1.379,0.314c0.468-0.294,0.608-0.912,0.314-1.379c-0.497-0.79-0.818-1.668-0.955-2.577l0.234,0
		c0.552,0,0.999-0.448,0.999-1.001c0-0.552-0.448-0.999-1-0.999H5.588l-0.223,0C5.808,8.106,8.102,5.821,11,5.391
		c0,0.037,0,0.23,0,0.23c0,0.552,0.448,0.999,1,0.999c0.552,0,1-0.448,1-1.001c0,0,0-0.188,0-0.223
		c2.884,0.441,5.164,2.721,5.604,5.605l-0.225,0c-0.552,0-0.999,0.448-0.999,1.001c0,0.552,0.448,0.999,1,0.999h0.001l0.228,0
		c-0.43,2.899-2.716,5.193-5.611,5.635c0-0.036,0-0.225,0-0.225c0-0.552-0.449-1-1.001-0.999c-0.552,0-0.999,0.448-0.999,1.001
		c0,0,0,0.194,0,0.232c-0.914-0.137-1.794-0.461-2.587-0.962c-0.464-0.296-1.085-0.156-1.379,0.311
		c-0.296,0.467-0.156,1.084,0.311,1.38c1.114,0.705,2.363,1.13,3.657,1.279c0,0.082,0,0.35,0,0.35C11,21.553,11.448,22,12,22
		c0.552,0,1-0.448,1-1.001c0,0,0-0.264,0-0.343c3.999-0.468,7.177-3.653,7.63-7.657l0.37,0c0.552,0,0.999-0.448,0.999-1.001
		C21.999,11.446,21.551,10.999,20.999,10.999z"/>
</g>
</svg>
