<?xml version="1.0" encoding="utf-8"?>
<!-- Generator: Adobe Illustrator 25.4.1, SVG Export Plug-In . SVG Version: 6.00 Build 0)  -->
<svg version="1.1" id="Icons" xmlns="http://www.w3.org/2000/svg" xmlns:xlink="http://www.w3.org/1999/xlink" x="0px" y="0px"
	 viewBox="0 0 24 24" style="enable-background:new 0 0 24 24;" xml:space="preserve">
<g id="Grater">
	<path d="M19.896,20h-0.069L18.987,6.246c-0.032-0.527-0.469-0.939-0.998-0.939h-1.456V4.281C16.533,3.023,15.51,2,14.252,2H9.742
		C8.484,2,7.461,3.023,7.461,4.281v1.026H6.008c-0.529,0-0.966,0.412-0.998,0.939l-0.25,4.119c-0.034,0.551,0.386,1.025,0.938,1.059
		c0.547,0.043,1.025-0.386,1.059-0.938l0.193-3.18h10.099L17.823,20H6.177l0.372-6.109c0.034-0.551-0.386-1.025-0.937-1.059
		c-0.548-0.042-1.026,0.386-1.059,0.937L4.173,20H4.104c-0.552,0-1,0.448-1,1s0.448,1,1,1h15.791c0.552,0,1-0.448,1-1
		S20.448,20,19.896,20z M9.461,4.281C9.461,4.126,9.587,4,9.742,4h4.511c0.155,0,0.281,0.126,0.281,0.281v1.026H9.461V4.281z"/>
	<path d="M15.021,8.583c-0.378-0.499-1.216-0.499-1.594,0l-0.916,1.208c-0.333,0.44-0.247,1.067,0.193,1.401
		c0.44,0.335,1.068,0.245,1.401-0.193l0.119-0.156l0.119,0.156c0.196,0.259,0.495,0.396,0.798,0.396c0.21,0,0.422-0.066,0.603-0.203
		c0.44-0.333,0.526-0.96,0.193-1.401L15.021,8.583z"/>
	<path d="M9.658,10.999l0.119-0.156l0.119,0.156c0.196,0.259,0.495,0.396,0.798,0.396c0.21,0,0.422-0.066,0.603-0.203
		c0.44-0.333,0.526-0.96,0.193-1.401l-0.916-1.208c-0.378-0.499-1.216-0.499-1.594,0L8.064,9.791
		c-0.333,0.44-0.247,1.067,0.193,1.401C8.698,11.527,9.325,11.437,9.658,10.999z"/>
	<path d="M15.239,12.32c-0.189-0.25-0.484-0.396-0.797-0.396s-0.608,0.146-0.797,0.396l-0.916,1.208
		c-0.333,0.44-0.248,1.067,0.193,1.401c0.181,0.137,0.393,0.203,0.603,0.203c0.302,0,0.601-0.137,0.798-0.396l0.119-0.157
		l0.119,0.157c0.332,0.438,0.958,0.527,1.401,0.193c0.44-0.333,0.526-0.96,0.193-1.401L15.239,12.32z"/>
	<path d="M8.039,14.929c0.44,0.334,1.068,0.246,1.401-0.193l0.119-0.157l0.119,0.157c0.197,0.26,0.495,0.396,0.798,0.396
		c0.21,0,0.422-0.066,0.603-0.203c0.44-0.333,0.526-0.961,0.193-1.401l-0.916-1.208c-0.378-0.499-1.216-0.499-1.594,0l-0.916,1.208
		C7.512,13.969,7.599,14.596,8.039,14.929z"/>
	<path d="M13.818,16.057l-0.916,1.208c-0.333,0.44-0.247,1.067,0.193,1.401c0.44,0.335,1.068,0.246,1.401-0.193l0.119-0.156
		l0.119,0.156c0.196,0.259,0.495,0.396,0.798,0.396c0.21,0,0.422-0.066,0.603-0.203c0.44-0.333,0.526-0.96,0.193-1.401l-0.916-1.208
		C15.034,15.558,14.196,15.558,13.818,16.057z"/>
	<path d="M7.866,18.667c0.44,0.335,1.068,0.246,1.401-0.193l0.119-0.156l0.119,0.156c0.196,0.259,0.495,0.396,0.798,0.396
		c0.21,0,0.422-0.066,0.603-0.203c0.44-0.333,0.526-0.96,0.193-1.401l-0.916-1.208c-0.378-0.499-1.216-0.499-1.594,0l-0.916,1.208
		C7.339,17.706,7.426,18.333,7.866,18.667z"/>
</g>
</svg>
