<?xml version="1.0" encoding="utf-8"?>
<!-- Generator: Adobe Illustrator 25.4.1, SVG Export Plug-In . SVG Version: 6.00 Build 0)  -->
<svg version="1.1" id="Icons" xmlns="http://www.w3.org/2000/svg" xmlns:xlink="http://www.w3.org/1999/xlink" x="0px" y="0px"
	 viewBox="0 0 24 24" style="enable-background:new 0 0 24 24;" xml:space="preserve">
<g id="Grill">
	<path d="M21.999,6.399c0.055-4.402-10.002-4.402-10.002-4.402S1.898,1.995,1.995,6.407c0,0-0.142,2.88,1.117,5.394
		c0.179,0.357,0.53,0.571,0.904,0.571c0.144,0,0.29-0.031,0.429-0.097c0.498-0.237,0.711-0.834,0.474-1.333
		c-0.275-0.578-0.486-1.231-0.641-1.919c1.93,0.957,4.831,1.452,7.719,1.452c2.904,0,5.821-0.501,7.751-1.469
		c-0.594,2.815-2.461,5.831-7.751,5.831c-2.178,0-3.945-0.527-5.254-1.566C6.311,12.928,5.681,13,5.338,13.433
		c-0.344,0.433-0.271,1.062,0.161,1.405c0.386,0.306,0.802,0.574,1.241,0.81l-2.621,4.878c-0.262,0.487-0.079,1.093,0.407,1.354
		c0.15,0.081,0.312,0.119,0.473,0.119c0.356,0,0.701-0.191,0.882-0.526l0.738-1.374h10.844l0.634,1.331
		c0.172,0.36,0.53,0.57,0.904,0.57c0.144,0,0.29-0.031,0.429-0.097c0.499-0.237,0.711-0.834,0.474-1.333l-2.395-5.029
		C22.305,12.825,21.999,6.399,21.999,6.399z M10.997,8.456C10.076,8.42,9.243,8.335,8.501,8.217V4.256
		c0.742-0.118,1.575-0.203,2.496-0.239V8.456z M12.997,4.017c0.921,0.036,1.754,0.121,2.496,0.239v3.961
		c-0.742,0.118-1.575,0.203-2.496,0.239V4.017z M3.995,6.237c0-0.373,0.847-1.025,2.506-1.529v3.058
		C4.842,7.261,3.995,6.61,3.995,6.237z M17.493,7.766V4.708c1.659,0.505,2.506,1.156,2.506,1.529
		C19.999,6.61,19.152,7.261,17.493,7.766z M16.511,18.099H7.694l0.916-1.704c1.028,0.291,2.156,0.443,3.387,0.443
		c1.419,0,2.617-0.202,3.664-0.524L16.511,18.099z"/>
</g>
</svg>
