<?xml version="1.0" encoding="utf-8"?>
<!-- Generator: Adobe Illustrator 26.5.0, SVG Export Plug-In . SVG Version: 6.00 Build 0)  -->
<svg version="1.1" id="Icons" xmlns="http://www.w3.org/2000/svg" xmlns:xlink="http://www.w3.org/1999/xlink" x="0px" y="0px"
	 viewBox="0 0 24 24" enable-background="new 0 0 24 24" xml:space="preserve">
<path id="Hair-Dryer" d="M8.305,11.305c1.717,0,3.114-1.397,3.114-3.114c0-1.717-1.397-3.114-3.114-3.114
	c-1.717,0-3.114,1.397-3.114,3.114C5.19,9.908,6.587,11.305,8.305,11.305z M8.305,7.077c0.614,0,1.114,0.5,1.114,1.114
	s-0.5,1.114-1.114,1.114S7.19,8.805,7.19,8.19S7.69,7.077,8.305,7.077z M21.557,2.396c-0.279-0.185-0.634-0.219-0.94-0.089
	l-3.501,1.471l-7.52-1.623C8.036,1.818,6.458,2.034,5.145,2.761C4.662,3.029,4.486,3.637,4.754,4.121
	c0.268,0.483,0.875,0.66,1.359,0.391c0.89-0.493,1.977-0.635,3.06-0.401l7.039,1.519v5.125L9.205,12.27
	c-1.477,0.321-2.992-0.078-3.952-1.038C4.441,10.42,3.994,9.341,3.994,8.193c0-0.543,0.107-1.083,0.318-1.605
	c0.207-0.512-0.041-1.095-0.553-1.302C3.247,5.081,2.664,5.328,2.458,5.839C2.15,6.601,1.994,7.393,1.994,8.193
	c0,1.682,0.655,3.264,1.844,4.453c0.294,0.294,0.619,0.551,0.965,0.773v5.194C4.803,20.481,6.322,22,8.19,22
	s3.387-1.519,3.387-3.387V16.61h0.363c0.552,0,1-0.448,1-1s-0.448-1-1-1h-0.363v-0.807l5.539-1.198l3.501,1.469
	c0.308,0.129,0.662,0.096,0.94-0.089c0.279-0.185,0.446-0.498,0.446-0.833V3.229C22.003,2.894,21.836,2.582,21.557,2.396z M8.19,20
	c-0.765,0-1.387-0.622-1.387-1.387v-4.379c0.442,0.095,0.898,0.148,1.363,0.148c0.465,0,0.937-0.051,1.41-0.149v4.38
	C9.577,19.378,8.955,20,8.19,20z M20.003,11.648l-1.791-0.751v-5.41l1.791-0.753V11.648z"/>
</svg>
