<?xml version="1.0" encoding="utf-8"?>
<!-- Generator: Adobe Illustrator 25.4.1, SVG Export Plug-In . SVG Version: 6.00 Build 0)  -->
<svg version="1.1" id="Icons" xmlns="http://www.w3.org/2000/svg" xmlns:xlink="http://www.w3.org/1999/xlink" x="0px" y="0px"
	 viewBox="0 0 24 24" style="enable-background:new 0 0 24 24;" xml:space="preserve">
<g id="Ham">
	<path d="M7.702,7.601C7.476,8.105,7.703,8.697,8.207,8.922C8.34,8.981,8.479,9.009,8.614,9.009c0.383,0,0.748-0.221,0.914-0.593
		c0.32-0.716,0.708-1.415,1.108-2.056c0.545,1.391,1.597,2.878,2.861,4.141c1.266,1.266,2.754,2.31,4.148,2.854
		c-1.141,0.707-2.432,1.342-3.47,1.618c-2.156,0.572-3.879,0.41-4.731-0.441C8.816,13.906,8.562,12.822,8.71,11.4
		c0.057-0.55-0.343-1.041-0.893-1.098c-0.559-0.068-1.04,0.343-1.098,0.892c-0.085,0.825-0.057,1.581,0.071,2.264l-0.804,0.804
		c-1.051-0.417-2.3-0.195-3.133,0.639C2.304,15.451,2,16.184,2,16.962c0,0.779,0.304,1.512,0.854,2.062
		c0.379,0.38,0.848,0.641,1.357,0.764c0.123,0.509,0.384,0.979,0.764,1.358c0.568,0.568,1.315,0.853,2.062,0.853
		s1.493-0.284,2.062-0.852c0.834-0.834,1.056-2.08,0.64-3.134l0.824-0.824c0.408,0.074,0.835,0.129,1.293,0.122
		c2.939-0.041,5.104-1.287,5.104-1.287c2.958-1.458,4.354-2.954,4.354-2.954c1.723-1.722,0.012-5.235-2.568-7.816
		c-2.58-2.58-6.095-4.29-7.816-2.568C10.929,2.687,9.095,4.493,7.702,7.601z M7.728,18.496c0.312,0.368,0.294,0.899-0.043,1.236
		c-0.357,0.356-0.938,0.357-1.295,0c-0.195-0.195-0.287-0.47-0.253-0.756c0.036-0.304-0.069-0.608-0.286-0.825
		s-0.515-0.319-0.825-0.287c-0.281,0.035-0.561-0.058-0.757-0.254C4.095,17.437,4,17.207,4,16.962c0-0.244,0.095-0.474,0.269-0.647
		c0.34-0.337,0.87-0.354,1.235-0.042C5.9,16.61,6.49,16.586,6.859,16.218l0.759-0.759c0.126,0.173,0.261,0.338,0.411,0.488
		c0.159,0.159,0.345,0.286,0.529,0.417l-0.776,0.776C7.414,17.509,7.39,18.099,7.728,18.496z M12.343,4.101
		c0.066-0.066,0.198-0.104,0.386-0.104c0.802,0,2.612,0.683,4.603,2.671c2.454,2.455,2.919,4.637,2.568,4.988
		s-2.533-0.114-4.988-2.568C12.457,6.634,11.992,4.452,12.343,4.101z"/>
	<path d="M16.281,6.625c-0.391-0.391-1.023-0.391-1.414,0s-0.391,1.024,0,1.414l1.094,1.093c0.195,0.195,0.451,0.293,0.707,0.293
		s0.512-0.098,0.707-0.293c0.391-0.391,0.391-1.024,0-1.414L16.281,6.625z"/>
</g>
</svg>
