<?xml version="1.0" encoding="utf-8"?>
<!-- Generator: Adobe Illustrator 25.4.1, SVG Export Plug-In . SVG Version: 6.00 Build 0)  -->
<svg version="1.1" id="Icons" xmlns="http://www.w3.org/2000/svg" xmlns:xlink="http://www.w3.org/1999/xlink" x="0px" y="0px"
	 viewBox="0 0 24 24" style="enable-background:new 0 0 24 24;" xml:space="preserve">
<g id="Hamburger-2">
	<path d="M21.616,13.651c0.341-0.266,0.472-0.721,0.325-1.127l-0.665-1.846c0.417-0.121,0.728-0.489,0.728-0.945
		c0-4.048-3.293-7.341-7.341-7.341H9.337c-0.993,0-1.958,0.195-2.866,0.581C5.962,3.188,5.725,3.775,5.94,4.283
		c0.217,0.509,0.804,0.746,1.312,0.53c0.66-0.28,1.361-0.422,2.085-0.422h5.326c2.604,0,4.777,1.872,5.247,4.341H4.09
		c0.146-0.76,0.457-1.48,0.921-2.122c0.323-0.447,0.223-1.072-0.225-1.396C4.338,4.889,3.714,4.99,3.39,5.438
		c-0.911,1.26-1.394,2.745-1.394,4.294c0,0.454,0.308,0.821,0.722,0.944l-0.661,1.85c-0.146,0.406-0.014,0.859,0.326,1.125
		l1.006,0.833l0,1.439H3c-0.271,0-0.531,0.11-0.72,0.306c-0.188,0.195-0.29,0.459-0.279,0.73c0.057,1.546,0.9,4.507,3.734,4.649
		l12.58-0.001c2.783-0.14,3.627-3.101,3.684-4.647c0.011-0.271-0.091-0.535-0.279-0.73c-0.188-0.196-0.448-0.306-0.72-0.306h-0.388
		l0-1.44L21.616,13.651z M5.1,12.98c-0.409,0-0.6-0.123-0.932-0.421l0.653-1.828h14.35l0.658,1.829
		c-0.331,0.297-0.521,0.42-0.93,0.42c-0.455,0-0.64-0.152-1.049-0.528c-0.485-0.445-1.149-1.054-2.401-1.054
		c-1.251,0-1.916,0.609-2.4,1.054C12.64,12.828,12.455,12.98,12,12.98s-0.64-0.152-1.049-0.528c-0.484-0.445-1.149-1.054-2.4-1.054
		c-1.252,0-1.916,0.609-2.401,1.054C5.74,12.828,5.556,12.98,5.1,12.98z M18.265,19.609L5.786,19.61
		c-0.952-0.048-1.4-0.938-1.608-1.687h15.648C19.623,18.673,19.188,19.562,18.265,19.609z M5.389,15.923l0-0.961
		c1.064-0.087,1.666-0.628,2.112-1.036c0.409-0.375,0.594-0.528,1.05-0.528c0.455,0,0.64,0.152,1.049,0.528
		c0.484,0.445,1.149,1.054,2.4,1.054s1.916-0.609,2.4-1.054c0.409-0.375,0.594-0.528,1.049-0.528c0.456,0,0.641,0.152,1.05,0.528
		c0.446,0.409,1.049,0.95,2.113,1.036l0,0.96H5.389z"/>
	<path d="M7.634,8.042c0.553,0,1-0.448,1-1s-0.447-1-1-1H7.481c-0.553,0-1,0.448-1,1s0.447,1,1,1H7.634z"/>
	<path d="M10.258,7.082c0.553,0,1-0.448,1-1s-0.447-1-1-1h-0.152c-0.553,0-1,0.448-1,1s0.447,1,1,1H10.258z"/>
</g>
</svg>
