<?xml version="1.0" encoding="utf-8"?>
<!-- Generator: Adobe Illustrator 25.4.1, SVG Export Plug-In . SVG Version: 6.00 Build 0)  -->
<svg version="1.1" id="Icons" xmlns="http://www.w3.org/2000/svg" xmlns:xlink="http://www.w3.org/1999/xlink" x="0px" y="0px"
	 viewBox="0 0 24 24" style="enable-background:new 0 0 24 24;" xml:space="preserve">
<g id="Hamburger-1">
	<g>
		<path d="M5.736,21.609C2.901,21.467,2.058,18.506,2,16.96c-0.01-0.271,0.091-0.536,0.279-0.731
			c0.188-0.196,0.449-0.306,0.72-0.306h18c0.271,0,0.532,0.11,0.72,0.306c0.188,0.195,0.289,0.459,0.279,0.731
			c-0.057,1.546-0.901,4.507-3.685,4.647L5.736,21.609z M4.178,17.923c0.208,0.75,0.656,1.639,1.608,1.687l12.478-0.001
			c0.923-0.047,1.358-0.936,1.562-1.686H4.178z"/>
	</g>
	<g>
		<path d="M18.899,14.98c-1.251,0-1.916-0.609-2.401-1.054c-0.41-0.375-0.594-0.528-1.049-0.528c-0.456,0-0.64,0.152-1.049,0.528
			c-0.485,0.445-1.149,1.054-2.4,1.054s-1.916-0.609-2.401-1.054c-0.41-0.375-0.594-0.528-1.049-0.528
			c-0.456,0-0.64,0.152-1.05,0.528c-0.485,0.445-1.149,1.054-2.4,1.054s-1.916-0.609-2.4-1.053
			c-0.103-0.094-0.205-0.189-0.316-0.276c-0.436-0.339-0.514-0.968-0.174-1.403c0.34-0.436,0.969-0.513,1.403-0.174
			c0.153,0.12,0.296,0.249,0.438,0.379C4.46,12.828,4.645,12.98,5.1,12.98s0.64-0.152,1.049-0.528
			c0.485-0.445,1.149-1.054,2.401-1.054s1.916,0.609,2.4,1.054c0.41,0.375,0.594,0.528,1.049,0.528c0.455,0,0.639-0.152,1.049-0.528
			c0.485-0.445,1.149-1.054,2.401-1.054s1.916,0.609,2.4,1.054c0.41,0.375,0.594,0.528,1.049,0.528c0.455,0,0.64-0.152,1.049-0.528
			c0.142-0.13,0.284-0.259,0.437-0.378c0.437-0.339,1.064-0.263,1.404,0.172s0.263,1.064-0.172,1.404
			c-0.111,0.087-0.213,0.182-0.316,0.276C20.815,14.371,20.151,14.98,18.899,14.98z"/>
	</g>
	<g>
		<path d="M7.634,8.042H7.481c-0.552,0-1-0.448-1-1s0.448-1,1-1h0.152c0.552,0,1,0.448,1,1S8.186,8.042,7.634,8.042z"/>
	</g>
	<g>
		<path d="M10.258,7.082h-0.152c-0.552,0-1-0.448-1-1s0.448-1,1-1h0.152c0.552,0,1,0.448,1,1S10.81,7.082,10.258,7.082z"/>
	</g>
	<g>
		<path d="M21.004,10.732H2.996c-0.552,0-1-0.448-1-1c0-1.547,0.482-3.032,1.394-4.294c0.325-0.448,0.95-0.547,1.396-0.225
			C5.234,5.537,5.334,6.162,5.011,6.61C4.546,7.252,4.235,7.972,4.09,8.732h15.821c-0.47-2.469-2.644-4.341-5.247-4.341H9.336
			c-0.723,0-1.424,0.142-2.084,0.422c-0.508,0.216-1.095-0.021-1.311-0.53s0.021-1.096,0.53-1.311
			c0.909-0.386,1.873-0.581,2.866-0.581h5.327c4.048,0,7.341,3.293,7.341,7.341C22.004,10.284,21.557,10.732,21.004,10.732z"/>
	</g>
</g>
</svg>
