<?xml version="1.0" encoding="utf-8"?>
<!-- Generator: Adobe Illustrator 26.5.0, SVG Export Plug-In . SVG Version: 6.00 Build 0)  -->
<svg version="1.1" id="Icons" xmlns="http://www.w3.org/2000/svg" xmlns:xlink="http://www.w3.org/1999/xlink" x="0px" y="0px"
	 viewBox="0 0 24 24" enable-background="new 0 0 24 24" xml:space="preserve">
<path id="Heating-Room" d="M12.001,18.444c-0.256,0-0.512-0.098-0.707-0.292c-0.391-0.391-0.391-1.024,0-1.415
	c0.216-0.215,0.334-0.502,0.334-0.807c0-0.305-0.119-0.591-0.334-0.806c-0.593-0.592-0.921-1.38-0.921-2.219
	c-0.001-0.839,0.325-1.627,0.917-2.221c0.391-0.392,1.023-0.393,1.414-0.001c0.391,0.39,0.391,1.023,0.001,1.414
	c-0.215,0.215-0.333,0.501-0.333,0.806c0,0.305,0.119,0.59,0.334,0.805c0.595,0.593,0.922,1.382,0.922,2.221
	c0.001,0.839-0.326,1.628-0.919,2.222C12.514,18.346,12.257,18.444,12.001,18.444z M17.022,18.151
	c0.594-0.594,0.92-1.383,0.919-2.222c0-0.839-0.327-1.627-0.922-2.22c-0.444-0.444-0.444-1.167-0.001-1.612
	c0.39-0.391,0.39-1.024-0.002-1.414c-0.391-0.39-1.023-0.39-1.414,0.002c-1.223,1.225-1.221,3.216,0.005,4.439
	c0.215,0.215,0.334,0.502,0.334,0.807c0.001,0.304-0.118,0.591-0.333,0.806c-0.391,0.391-0.391,1.024,0,1.415
	c0.195,0.195,0.451,0.292,0.707,0.292S16.827,18.346,17.022,18.151z M8.395,18.151c0.594-0.593,0.92-1.382,0.92-2.222
	c0-0.839-0.328-1.627-0.922-2.221c-0.215-0.215-0.334-0.501-0.334-0.805c0-0.304,0.118-0.59,0.333-0.806
	c0.39-0.391,0.39-1.024-0.001-1.414C8,10.294,7.367,10.293,6.976,10.685c-0.593,0.593-0.918,1.382-0.918,2.221
	c0.001,0.839,0.329,1.627,0.922,2.219c0.215,0.215,0.334,0.501,0.334,0.806c0,0.305-0.119,0.591-0.334,0.807
	c-0.391,0.391-0.391,1.023,0,1.414c0.195,0.195,0.451,0.293,0.707,0.293S8.199,18.346,8.395,18.151z M22,21V11
	c0-0.286-0.122-0.558-0.336-0.748l-9-8c-0.379-0.337-0.95-0.337-1.329,0l-9,8C2.122,10.442,2,10.714,2,11v6.578c0,0.552,0.448,1,1,1
	s1-0.448,1-1v-6.128l8-7.111l8,7.111V20H3c-0.552,0-1,0.448-1,1s0.448,1,1,1h18C21.553,22,22,21.552,22,21z"/>
</svg>
