<?xml version="1.0" encoding="utf-8"?>
<!-- Generator: Adobe Illustrator 26.3.1, SVG Export Plug-In . SVG Version: 6.00 Build 0)  -->
<svg version="1.1" id="Icons" xmlns="http://www.w3.org/2000/svg" xmlns:xlink="http://www.w3.org/1999/xlink" x="0px" y="0px"
	 viewBox="0 0 24 24" style="enable-background:new 0 0 24 24;" xml:space="preserve">
<g id="Helicopter">
	<path d="M21.35,17.938c-0.515-0.194-1.093,0.069-1.287,0.586c-0.145,0.386-0.518,0.645-0.93,0.645h-0.91v-1.53
		c1.808-0.428,3.161-2.046,3.161-3.983v-0.386c0-3.043-2.476-5.519-5.519-5.519h-0.598V6.039h4.558c0.552,0,1-0.448,1-1
		s-0.448-1-1-1h-4.558V3.83c0-0.552-0.448-1-1-1s-1,0.448-1,1v0.209H8.711c-0.552,0-1,0.448-1,1s0.448,1,1,1h4.558v1.714h-1.271
		c-0.552,0-1,0.448-1,1s0.448,1,1,1h1.271v1.134c0,1.656,1.347,3.002,3.002,3.002h3.091c-0.117,1.049-0.999,1.87-2.079,1.87h-5.527
		c-0.794,0-1.441-0.646-1.441-1.44V12.03c0-0.552-0.448-1-1-1H4.801C4.359,11.03,4,10.671,4,10.229V6.708h0.728l0.925,2.403
		c0.148,0.386,0.52,0.641,0.933,0.641h1.998c0.552,0,1-0.448,1-1s-0.448-1-1-1H7.272L6.348,5.35
		c-0.149-0.386-0.52-0.641-0.934-0.641H3c-0.552,0-1,0.448-1,1v4.521c0,1.544,1.257,2.801,2.801,2.801h3.513v1.289
		c0,1.715,1.265,3.129,2.909,3.387v1.464H9.125c-0.552,0-1,0.448-1,1s0.448,1,1,1h10.008c1.242,0,2.369-0.782,2.803-1.945
		C22.13,18.708,21.868,18.132,21.35,17.938z M15.269,10.887V9.753h0.598c1.449,0,2.696,0.882,3.234,2.137h-2.83
		C15.718,11.89,15.269,11.44,15.269,10.887z M13.224,17.759h3v1.411h-3V17.759z"/>
</g>
</svg>
