<svg fill="#000000" xmlns="http://www.w3.org/2000/svg"  viewBox="0 0 16 16" width="16px" height="16px"><path d="M 11.509766 1 A 0.50005 0.50005 0 0 0 11.169922 1.1230469 C 11.169922 1.1230469 9.4209901 2.6649013 9.0742188 5.1601562 C 8.8092984 5.0657202 8.6015625 5.0097656 8.6015625 5.0097656 A 0.50005 0.50005 0 0 0 8.5019531 5 A 0.50005 0.50005 0 0 0 8 5.5 C 8 5.5 7.9923477 7.636945 9.0058594 9.6191406 C 9.0207055 10.990941 9.2705262 12.019458 9.5332031 12.708984 C 9.8038814 13.419515 10.109375 13.8125 10.109375 13.8125 L 10.259766 14 L 12.740234 14 L 12.890625 13.8125 C 12.890625 13.8125 13.196119 13.419515 13.466797 12.708984 C 13.729866 12.018427 13.979992 10.988181 13.994141 9.6132812 C 15.040965 7.5354714 15 4.5 15 4.5 A 0.50005 0.50005 0 0 0 14.484375 4 A 0.50005 0.50005 0 0 0 14.326172 4.03125 C 14.326172 4.03125 14.081419 4.1418262 13.761719 4.3125 C 13.199515 2.3181735 11.830078 1.1230469 11.830078 1.1230469 A 0.50005 0.50005 0 0 0 11.509766 1 z M 11.503906 2.2753906 C 11.871238 2.6598843 12.588824 3.492765 12.878906 4.8847656 C 12.355167 5.2904719 11.804059 5.8604753 11.382812 6.625 C 10.91864 6.1803004 10.452936 5.8483298 10.025391 5.609375 C 10.150818 3.7908697 11.093443 2.6988867 11.503906 2.2753906 z M 2.5 3 C 1.6774686 3 1 3.6774686 1 4.5 L 1 10.5 C 1 11.322531 1.6774686 12 2.5 12 L 7 12 L 7 13 L 4 13 L 4 14 L 9 14 L 9 13 L 8 13 L 8 11.5 L 8 11 L 2.5 11 C 2.2185314 11 2 10.781469 2 10.5 L 2 4.5 C 2 4.2185314 2.2185314 4 2.5 4 L 8 4 L 8 3 L 2.5 3 z M 13.931641 5.3886719 C 13.878826 6.2770206 13.738418 7.7874019 13.181641 9 L 12.96875 9 C 12.727775 8.3829145 12.427567 7.8566848 12.09375 7.4101562 C 12.581692 6.3114113 13.335015 5.7411977 13.931641 5.3886719 z M 9.0800781 6.2910156 C 9.7825254 6.535646 11.051505 7.1212389 11.886719 9 L 9.8203125 9 C 9.3047422 7.9289948 9.1440969 6.9573034 9.0800781 6.2910156 z M 10.082031 10 L 12.917969 10 C 12.855439 10.976023 12.722339 11.857033 12.533203 12.353516 C 12.355485 12.820026 12.266479 12.913553 12.205078 13 L 10.794922 13 C 10.733522 12.91355 10.644515 12.820026 10.466797 12.353516 C 10.277661 11.857033 10.144561 10.976023 10.082031 10 z"/></svg>