<?xml version="1.0" encoding="utf-8"?>
<!-- Generator: Adobe Illustrator 26.5.0, SVG Export Plug-In . SVG Version: 6.00 Build 0)  -->
<svg version="1.1" id="Icons" xmlns="http://www.w3.org/2000/svg" xmlns:xlink="http://www.w3.org/1999/xlink" x="0px" y="0px"
	 viewBox="0 0 24 24" enable-background="new 0 0 24 24" xml:space="preserve">
<path id="Home-Automation" d="M7.551,16.282c0.278,0.477,0.891,0.636,1.368,0.358l0.559-0.327c0.425,0.399,0.945,0.69,1.521,0.853
	c-0.001,0.312-0.002,0.66-0.002,0.66c-0.002,0.553,0.447,1.002,1,1.002c0.551,0,0.999-0.446,1-0.998L13,17.166
	c0.576-0.163,1.096-0.455,1.521-0.853l0.56,0.327c0.478,0.279,1.089,0.119,1.368-0.358c0.279-0.477,0.118-1.089-0.358-1.368
	l-0.54-0.316c0.086-0.312,0.147-0.635,0.147-0.974c0-0.31-0.05-0.607-0.122-0.894l0.515-0.301c0.477-0.278,0.638-0.891,0.359-1.368
	c-0.278-0.476-0.89-0.636-1.368-0.359l-0.493,0.288c-0.436-0.429-0.983-0.737-1.588-0.909C13,9.799,13.001,9.515,13.001,9.515
	c0.002-0.553-0.447-1.002-1-1.002c-0.551,0-0.999,0.446-1,0.998c0,0-0.001,0.286-0.001,0.57c-0.605,0.171-1.152,0.48-1.589,0.909
	l-0.492-0.287c-0.479-0.279-1.09-0.118-1.368,0.359c-0.279,0.477-0.118,1.089,0.359,1.368l0.513,0.3
	c-0.072,0.288-0.122,0.585-0.122,0.895c0,0.34,0.061,0.663,0.147,0.975L7.91,14.914C7.433,15.193,7.272,15.805,7.551,16.282z
	 M11.999,11.926c0.936,0,1.698,0.762,1.698,1.698s-0.762,1.697-1.698,1.697s-1.698-0.761-1.698-1.697S11.063,11.926,11.999,11.926z
	 M22,11v10c0,0.552-0.448,1-1,1H3c-0.552,0-1-0.448-1-1s0.448-1,1-1h17v-8.551l-8-7.111l-8,7.111v6.128c0,0.552-0.448,1-1,1
	s-1-0.448-1-1V11c0-0.286,0.122-0.558,0.335-0.748l9-8c0.379-0.337,0.95-0.337,1.329,0l9,8C21.878,10.442,22,10.714,22,11z"/>
</svg>
