<?xml version="1.0" encoding="utf-8"?>
<!-- Generator: Adobe Illustrator 16.0.0, SVG Export Plug-In . SVG Version: 6.00 Build 0)  -->
<!DOCTYPE svg PUBLIC "-//W3C//DTD SVG 1.0//EN" "http://www.w3.org/TR/2001/REC-SVG-20010904/DTD/svg10.dtd">
<svg version="1.0" id="Layer_1" xmlns="http://www.w3.org/2000/svg" xmlns:xlink="http://www.w3.org/1999/xlink" x="0px" y="0px"
	 width="100px" height="100px" viewBox="0 0 100 100" enable-background="new 0 0 100 100" xml:space="preserve">
<path d="M50,10c-20.247,0-36.667,16.419-36.667,36.667c0,15.198,4.633,30.374,13.757,43.333l16.354-11.514
	c-6.615-9.395-10.111-20.397-10.111-31.819C33.333,37.478,40.811,30,50,30s16.667,7.48,16.667,16.677
	c0.006,11.441-3.477,22.441-10.072,31.81L72.949,90c8.633-12.266,13.724-27.204,13.718-43.333C86.667,26.419,70.247,10,50,10z
	 M79.941,48.562l-6.631-1.169c0.003-0.241,0.022-0.479,0.022-0.72c0-4.505-1.305-8.704-3.525-12.275l5.16-4.329
	C78.142,34.827,80,40.534,80,46.673C80,47.305,79.958,47.933,79.941,48.562z M25.032,30.068l5.156,4.329
	c-2.217,3.571-3.521,7.764-3.521,12.27c0,0.24,0.02,0.481,0.022,0.723l-6.628,1.172C20.046,47.93,20,47.302,20,46.667
	C20,40.53,21.858,34.824,25.032,30.068z M34.479,76.644l-5.485,3.861c-4.46-7.829-7.321-16.374-8.447-25.261l6.582-1.159
	C28.093,62.005,30.579,69.636,34.479,76.644z M34.479,29.294l-5.144-4.32c4.626-4.411,10.645-7.367,17.331-8.112V23.6
	C42.021,24.268,37.822,26.302,34.479,29.294z M53.333,23.6v-6.738c6.687,0.746,12.705,3.701,17.331,8.112l-5.146,4.32
	C62.175,26.302,57.979,24.268,53.333,23.6z M71.042,80.501l-5.485-3.86c3.887-6.999,6.367-14.622,7.321-22.552l6.578,1.158
	C78.34,64.141,75.491,72.683,71.042,80.501z"/>
</svg>
