<?xml version="1.0" encoding="utf-8"?>
<!-- Generator: Adobe Illustrator 26.3.1, SVG Export Plug-In . SVG Version: 6.00 Build 0)  -->
<svg version="1.1" id="Icons" xmlns="http://www.w3.org/2000/svg" xmlns:xlink="http://www.w3.org/1999/xlink" x="0px" y="0px"
	 viewBox="0 0 24 24" style="enable-background:new 0 0 24 24;" xml:space="preserve">
<g id="Hospital">
	<g>
		<path d="M13.604,19.181h-3.21c-0.552,0-1-0.448-1-1V15.97H7.182c-0.552,0-1-0.448-1-1v-3.211c0-0.552,0.448-1,1-1h2.211V8.548
			c0-0.552,0.448-1,1-1h3.21c0.552,0,1,0.448,1,1v2.211h2.211c0.552,0,1,0.448,1,1v3.211c0,0.552-0.448,1-1,1h-2.211v2.211
			C14.604,18.733,14.156,19.181,13.604,19.181z M11.393,17.181h1.21V14.97c0-0.552,0.448-1,1-1h2.211v-1.211h-2.211
			c-0.552,0-1-0.448-1-1V9.548h-1.21v2.211c0,0.552-0.448,1-1,1H8.182v1.211h2.211c0.552,0,1,0.448,1,1V17.181z"/>
	</g>
	<g>
		<path d="M21,22H3c-0.552,0-1-0.448-1-1v-3.447c0-0.552,0.448-1,1-1s1,0.448,1,1V20h16v-8.551l-8-7.111l-8,7.111v2.688
			c0,0.552-0.448,1-1,1s-1-0.448-1-1V11c0-0.286,0.122-0.558,0.335-0.748l9-8c0.379-0.337,0.95-0.337,1.329,0l9,8
			C21.878,10.442,22,10.714,22,11v10C22,21.552,21.552,22,21,22z"/>
	</g>
</g>
</svg>
