<?xml version="1.0" encoding="utf-8"?>
<!-- Generator: Adobe Illustrator 25.4.1, SVG Export Plug-In . SVG Version: 6.00 Build 0)  -->
<svg version="1.1" id="Icons" xmlns="http://www.w3.org/2000/svg" xmlns:xlink="http://www.w3.org/1999/xlink" x="0px" y="0px"
	 viewBox="0 0 24 24" style="enable-background:new 0 0 24 24;" xml:space="preserve">
<g id="Hospital-location">
	<path d="M12,6.104c-0.553,0-1,0.448-1,1v1.867H9.133c-0.553,0-1,0.448-1,1s0.447,1,1,1H11v1.866c0,0.552,0.447,1,1,1s1-0.448,1-1
		v-1.866h1.867c0.553,0,1-0.448,1-1s-0.447-1-1-1H13V7.104C13,6.551,12.553,6.104,12,6.104z"/>
	<path d="M12,2c-4.415,0-8.007,3.592-8.007,8.007c0,1.375,0.596,3.005,1.822,4.983c0.289,0.469,0.906,0.614,1.376,0.323
		s0.614-0.907,0.323-1.377c-1.258-2.029-1.521-3.257-1.521-3.929C5.993,6.695,8.688,4,12,4s6.007,2.695,6.007,6.007
		c0,2.928-3.839,7.407-5.99,9.579c-0.625-0.659-1.601-1.726-2.584-2.961c-0.343-0.431-0.972-0.505-1.405-0.16
		c-0.432,0.344-0.503,0.973-0.159,1.405c1.717,2.157,3.36,3.776,3.43,3.844c0.194,0.19,0.447,0.286,0.7,0.286
		c0.245,0,0.49-0.089,0.683-0.27c0.75-0.7,7.326-6.982,7.326-11.723C20.007,5.592,16.415,2,12,2z"/>
</g>
</svg>
