<?xml version="1.0" encoding="utf-8"?>
<!-- Generator: Adobe Illustrator 25.4.1, SVG Export Plug-In . SVG Version: 6.00 Build 0)  -->
<svg version="1.1" id="Icons" xmlns="http://www.w3.org/2000/svg" xmlns:xlink="http://www.w3.org/1999/xlink" x="0px" y="0px"
	 viewBox="0 0 24 24" style="enable-background:new 0 0 24 24;" xml:space="preserve">
<g id="Hot-dog-1">
	<path d="M8,5.734c0.552,0,1-0.448,1-1V3c0-0.552-0.448-1-1-1S7,2.448,7,3v1.734C7,5.287,7.448,5.734,8,5.734z"/>
	<path d="M12,5.734c0.552,0,1-0.448,1-1V3c0-0.552-0.448-1-1-1s-1,0.448-1,1v1.734C11,5.287,11.448,5.734,12,5.734z"/>
	<path d="M16,5.734c0.553,0,1-0.448,1-1V3c0-0.552-0.447-1-1-1s-1,0.448-1,1v1.734C15,5.287,15.447,5.734,16,5.734z"/>
	<path d="M22,14.164c0-1.525-0.903-2.833-2.196-3.448c0.074-0.278,0.123-0.563,0.123-0.857c0-1.887-1.535-3.422-3.422-3.422h-4.139
		c-0.552,0-1,0.448-1,1s0.448,1,1,1h4.139c0.784,0,1.422,0.638,1.422,1.422c0,0.181-0.038,0.34-0.091,0.479H6.161
		C6.108,10.2,6.07,10.041,6.07,9.86c0-0.784,0.638-1.422,1.422-1.422h1.464c0.552,0,1-0.448,1-1s-0.448-1-1-1H7.492
		c-1.887,0-3.422,1.535-3.422,3.422c0,0.294,0.049,0.58,0.123,0.858C2.901,11.333,2,12.641,2,14.164c0,1.534,0.906,2.86,2.224,3.465
		c-0.088,0.303-0.151,0.617-0.151,0.949C4.073,20.465,5.608,22,7.495,22h9.013c1.886,0,3.422-1.535,3.423-3.422
		c0-0.332-0.062-0.647-0.151-0.951C21.096,17.021,22,15.695,22,14.164z M16.508,20H7.495c-0.784,0-1.422-0.638-1.422-1.422
		s0.638-1.422,1.422-1.422h9.013c0.784,0,1.423,0.638,1.423,1.422C17.93,19.362,17.292,20,16.508,20z M18.636,15.919
		c-0.586-0.47-1.32-0.763-2.128-0.763H7.495c-0.808,0-1.542,0.293-2.128,0.764C4.577,15.717,4,15.007,4,14.164
		c0-1.007,0.819-1.826,1.826-1.826H7v1.373c0,0.552,0.448,1,1,1s1-0.448,1-1v-1.373h2v1.373c0,0.552,0.448,1,1,1s1-0.448,1-1v-1.373
		h2v1.373c0,0.552,0.447,1,1,1s1-0.448,1-1v-1.373h1.175c1.007,0,1.825,0.819,1.825,1.826C20,15.005,19.424,15.715,18.636,15.919z"
		/>
</g>
</svg>
