<?xml version="1.0" encoding="utf-8"?>
<!-- Generator: Adobe Illustrator 25.4.1, SVG Export Plug-In . SVG Version: 6.00 Build 0)  -->
<svg version="1.1" id="Icons" xmlns="http://www.w3.org/2000/svg" xmlns:xlink="http://www.w3.org/1999/xlink" x="0px" y="0px"
	 viewBox="0 0 24 24" style="enable-background:new 0 0 24 24;" xml:space="preserve">
<g id="Hot-dog-2">
	<path d="M20.768,8.529c0.977-1.484,0.814-3.504-0.49-4.809c-1.306-1.305-3.327-1.468-4.812-0.489
		c-1.432-1.011-3.813-1.914-5.735-0.175L8.62,4.168c-0.391,0.391-0.391,1.024,0,1.414c0.195,0.195,0.451,0.293,0.707,0.293
		s0.512-0.098,0.707-0.293l1.075-1.077c0.88-0.796,2.06-0.341,2.844,0.132l-9.312,9.332c-0.478-0.78-0.95-1.959-0.171-2.822
		l3.153-3.153c0.391-0.391,0.391-1.023,0-1.414s-1.023-0.391-1.414,0L3.021,9.769c-1.715,1.897-0.796,4.284,0.22,5.714
		c-0.976,1.484-0.812,3.502,0.492,4.806c0.746,0.746,1.726,1.119,2.705,1.119c0.736,0,1.471-0.21,2.107-0.63
		c0.845,0.593,2.014,1.146,3.227,1.146c0.845,0,1.71-0.269,2.497-0.981l6.711-6.712C22.689,12.34,21.781,9.961,20.768,8.529z
		 M5.146,18.875c-0.712-0.712-0.712-1.87,0.001-2.583l0.622-0.624L6.73,16.63c0.195,0.195,0.451,0.293,0.707,0.293
		s0.512-0.098,0.707-0.293c0.391-0.391,0.391-1.023,0-1.414l-0.962-0.962l1.413-1.416l0.963,0.964
		c0.195,0.195,0.451,0.293,0.707,0.293s0.512-0.098,0.707-0.293c0.391-0.39,0.391-1.023,0-1.414l-0.965-0.965l1.413-1.416
		l0.967,0.967c0.195,0.195,0.451,0.293,0.707,0.293s0.512-0.098,0.707-0.293c0.391-0.391,0.391-1.023,0-1.414l-0.968-0.968
		l1.413-1.416l0.97,0.97c0.195,0.195,0.451,0.293,0.707,0.293s0.512-0.098,0.707-0.293c0.391-0.391,0.391-1.023,0-1.414
		l-0.971-0.971l0.624-0.625c0.356-0.356,0.823-0.534,1.291-0.534s0.935,0.178,1.291,0.534c0.712,0.712,0.712,1.87-0.001,2.583
		L7.728,18.876C7.017,19.586,5.859,19.587,5.146,18.875z M19.53,12.853l-6.64,6.642c-0.876,0.792-2.047,0.346-2.83-0.124
		l9.306-9.327C19.842,10.824,20.305,11.994,19.53,12.853z"/>
</g>
</svg>
