<?xml version="1.0" encoding="utf-8"?>
<!-- Generator: Adobe Illustrator 26.3.1, SVG Export Plug-In . SVG Version: 6.00 Build 0)  -->
<svg version="1.1" id="Icons" xmlns="http://www.w3.org/2000/svg" xmlns:xlink="http://www.w3.org/1999/xlink" x="0px" y="0px"
	 viewBox="0 0 24 24" style="enable-background:new 0 0 24 24;" xml:space="preserve">
<g id="Hotel">
	<path d="M21,2H3C2.448,2,2,2.448,2,3v3.53c0,0.552,0.448,1,1,1h0.387c-0.001,1.552,0.001,4.913,0,5.046
		c-0.041,0.425,0.427,1.037,1,1.002c0.552,0,1-0.448,1-1l0-5.048H18.61L18.606,20h-2.319l-0.002-4.573c0-0.552-0.448-1-1-1H8.708
		c-0.265,0-0.52,0.105-0.708,0.293c-0.188,0.188-0.292,0.442-0.292,0.708L7.711,20H5.387l0-4.007c0-0.552-0.448-1-1-1s-1,0.448-1,1
		l0,5.007c-0.011,0.537,0.463,1.01,1,1h15.22c0.552,0,1-0.448,1-1L20.61,7.53H21c0.553,0,1-0.448,1-1V3C22,2.448,21.553,2,21,2z
		 M14.288,20h-1.289l-0.002-3.573h1.289L14.288,20z M9.709,16.427h1.288L10.999,20H9.711L9.709,16.427z M4,4h16v1.53H4V4z"/>
	<path d="M10.351,7.956c-0.552,0-1,0.448-1,1v3.974c0,0.552,0.448,1,1,1s1-0.448,1-1v-0.987h1.299v0.987c0,0.552,0.447,1,1,1
		s1-0.448,1-1V8.956c0-0.552-0.447-1-1-1s-1,0.448-1,1v0.987h-1.299V8.956C11.351,8.403,10.903,7.956,10.351,7.956z"/>
</g>
</svg>
