<?xml version="1.0" encoding="utf-8"?>
<!-- Generator: Adobe Illustrator 25.4.1, SVG Export Plug-In . SVG Version: 6.00 Build 0)  -->
<svg version="1.1" id="Icons" xmlns="http://www.w3.org/2000/svg" xmlns:xlink="http://www.w3.org/1999/xlink" x="0px" y="0px"
	 viewBox="0 0 24 24" style="enable-background:new 0 0 24 24;" xml:space="preserve">
<g id="Html5">
	<g>
		<path d="M17.276,18.276H6.724c-0.552,0-1-0.448-1-1v-1.693c0-0.552,0.448-1,1-1s1,0.448,1,1v0.693h8.553v-3.278H6.724
			c-0.552,0-1-0.448-1-1V6.724c0-0.552,0.448-1,1-1h10.553c0.553,0,1,0.448,1,1s-0.447,1-1,1H7.724v3.274h9.553c0.553,0,1,0.448,1,1
			v5.278C18.276,17.829,17.829,18.276,17.276,18.276z"/>
	</g>
	<g>
		<path d="M17.002,22H7C4.243,22,2,19.758,2,17.002v-5.75c0-0.552,0.448-1,1-1s1,0.448,1,1v5.75C4,18.655,5.346,20,7,20h10.002
			C18.655,20,20,18.655,20,17.002V6.999C20,5.345,18.655,4,17.002,4H7C5.346,4,4,5.345,4,6.999v0.844c0,0.552-0.448,1-1,1
			s-1-0.448-1-1V6.999C2,4.243,4.243,2,7,2h10.002C19.758,2,22,4.243,22,6.999v10.003C22,19.758,19.758,22,17.002,22z"/>
	</g>
</g>
</svg>
