<?xml version="1.0" encoding="utf-8"?>
<!-- Generator: Adobe Illustrator 26.5.0, SVG Export Plug-In . SVG Version: 6.00 Build 0)  -->
<svg version="1.1" id="Icons" xmlns="http://www.w3.org/2000/svg" xmlns:xlink="http://www.w3.org/1999/xlink" x="0px" y="0px"
	 viewBox="0 0 24 24" enable-background="new 0 0 24 24" xml:space="preserve">
<path id="Humidifier" d="M13.846,18.176c0,0.552-0.447,1-1,1h-1.691c-0.553,0-1-0.448-1-1s0.447-1,1-1h1.691
	C13.398,17.176,13.846,17.624,13.846,18.176z M21.472,15.472c0,1.521-0.373,3.036-1.077,4.379C19.699,21.176,18.293,22,16.723,22
	H7.288c-1.628,0-3.087-0.917-3.807-2.395c-0.633-1.295-0.953-2.686-0.953-4.134c0-0.903,0.129-1.911,0.383-2.996
	c0.125-0.537,0.663-0.874,1.201-0.746c0.538,0.126,0.872,0.664,0.746,1.202c-0.134,0.572-0.213,1.101-0.266,1.607h4.522V8.557H6.548
	c-0.24,0.436-0.462,0.879-0.657,1.317c-0.225,0.504-0.815,0.734-1.32,0.507c-0.505-0.224-0.731-0.815-0.508-1.32
	C6.028,4.64,8.995,2,12,2C17.565,2,21.472,10.74,21.472,15.472z M14.885,8.557v5.982h4.533c-0.194-1.866-0.932-4.069-1.994-5.982
	H14.885z M7.866,6.557h8.239C14.894,5.037,13.465,4,12,4C10.462,4,9.036,5.083,7.866,6.557z M11.115,14.539h1.77V8.557h-1.77V14.539
	z M18.623,18.922c0.396-0.754,0.646-1.553,0.765-2.383H4.613c0.109,0.758,0.325,1.492,0.665,2.189C5.661,19.513,6.431,20,7.288,20
	h9.435C17.534,20,18.279,19.577,18.623,18.922z"/>
</svg>
