<?xml version="1.0" encoding="utf-8"?>
<!-- Generator: Adobe Illustrator 25.4.1, SVG Export Plug-In . SVG Version: 6.00 Build 0)  -->
<svg version="1.1" id="Icons" xmlns="http://www.w3.org/2000/svg" xmlns:xlink="http://www.w3.org/1999/xlink" x="0px" y="0px"
	 viewBox="0 0 24 24" style="enable-background:new 0 0 24 24;" xml:space="preserve">
<g id="Ice-cream">
	<path d="M16.319,11.8l0.25-0.251c0.616-0.616,0.97-1.454,0.969-2.298c0-0.776-0.293-1.495-0.824-2.023
		c-1.152-1.149-3.092-1.079-4.323,0.153l-1.929,1.928c-0.395,0.395-0.848,0.364-0.848,0.364C8.841,9.663,8.72,9.07,8.72,9.07
		C8.526,8.492,8.792,8.195,8.792,8.195l2.702-2.702c0.485-0.485,1.064-0.859,1.724-1.113c0.516-0.198,0.772-0.777,0.574-1.292
		c-0.199-0.516-0.777-0.772-1.293-0.574c-0.921,0.354-1.735,0.881-2.419,1.565l-6.397,6.397c-0.507,0.507-0.786,1.182-0.786,1.902
		s0.279,1.395,0.786,1.901l1.143,1.143l-2.009,2.008c-0.501,0.501-0.777,1.167-0.777,1.875c0,0.709,0.276,1.375,0.777,1.875
		c0.501,0.501,1.167,0.777,1.876,0.777c0.708,0,1.374-0.276,1.875-0.777l2.009-2.008l1.144,1.144
		c0.506,0.506,1.182,0.786,1.901,0.786c0.719,0,1.395-0.279,1.901-0.786l6.397-6.397c1.314-1.314,2.038-3.062,2.038-4.92
		c0-1.858-0.724-3.606-2.038-4.92c-0.939-0.94-2.133-1.587-3.45-1.871c-0.539-0.114-1.071,0.226-1.188,0.767
		c-0.116,0.54,0.227,1.072,0.767,1.188c0.94,0.203,1.791,0.663,2.458,1.33C19.443,6.43,19.959,7.675,19.959,9
		c0,1.325-0.516,2.57-1.452,3.506l-1.151,1.151c0,0-0.645,0.221-1.137-0.301C16.218,13.356,15.517,12.58,16.319,11.8z M5.154,19.768
		c-0.254,0.255-0.669,0.254-0.923,0c-0.123-0.123-0.191-0.287-0.191-0.461c0-0.174,0.068-0.337,0.191-0.461l2.009-2.009l0.923,0.923
		L5.154,19.768z M12.109,18.903c-0.258,0.258-0.717,0.258-0.975,0l-6.038-6.039c-0.129-0.128-0.2-0.302-0.2-0.487
		c0-0.186,0.071-0.359,0.2-0.488l1.868-1.868c0.138,0.302,0.322,0.583,0.562,0.822c1.166,1.165,3.117,1.111,4.35-0.122l1.929-1.928
		c0.445-0.445,1.131-0.514,1.498-0.15c0.194,0.194,0.235,0.438,0.235,0.608c0.001,0.317-0.139,0.639-0.384,0.883l-0.25,0.251
		c-1.232,1.232-1.266,3.205-0.074,4.397c0.242,0.243,0.525,0.427,0.823,0.576L12.109,18.903z"/>
</g>
</svg>
