<?xml version="1.0" encoding="utf-8"?>
<!-- Generator: Adobe Illustrator 25.4.1, SVG Export Plug-In . SVG Version: 6.00 Build 0)  -->
<svg version="1.1" id="Icons" xmlns="http://www.w3.org/2000/svg" xmlns:xlink="http://www.w3.org/1999/xlink" x="0px" y="0px"
	 viewBox="0 0 24 24" style="enable-background:new 0 0 24 24;" xml:space="preserve">
<g id="Js">
	<g>
		<path d="M6.724,18.276c-0.265,0-0.52-0.105-0.707-0.292c-0.188-0.188-0.293-0.442-0.293-0.708v-2.693c0-0.552,0.448-1,1-1
			s1,0.448,1,1v1.693l1.617-0.001V6.722c0-0.552,0.448-1,1-1s1,0.448,1,1v10.552c0,0.552-0.447,1-1,1L6.724,18.276L6.724,18.276z"/>
	</g>
	<g>
		<path d="M17.276,18.276L17.276,18.276l-3.646-0.002c-0.552,0-1-0.448-1-1s0.448-1,1-1h0l2.645,0.001v-3.278l-2.646-0.001
			c-0.552,0-1-0.448-1-1V6.722c0-0.265,0.105-0.52,0.293-0.707s0.442-0.293,0.707-0.293h0l3.645,0.001c0.552,0,1,0.448,1,1
			s-0.448,1-1,1c0,0,0,0,0,0l-2.645-0.001v3.274l2.646,0.001c0.552,0,1,0.448,1,1v5.278c0,0.265-0.105,0.52-0.293,0.708
			C17.796,18.171,17.542,18.276,17.276,18.276z"/>
	</g>
	<g>
		<path d="M17.002,22H7C4.243,22,2,19.758,2,17.002v-5.75c0-0.552,0.448-1,1-1s1,0.448,1,1v5.75C4,18.655,5.346,20,7,20h10.002
			C18.655,20,20,18.655,20,17.002V6.999C20,5.345,18.655,4,17.002,4H7C5.346,4,4,5.345,4,6.999v0.844c0,0.552-0.448,1-1,1
			s-1-0.448-1-1V6.999C2,4.243,4.243,2,7,2h10.002C19.758,2,22,4.243,22,6.999v10.003C22,19.758,19.758,22,17.002,22z"/>
	</g>
</g>
</svg>
