<?xml version="1.0" encoding="utf-8"?>
<!-- Generator: Adobe Illustrator 25.4.1, SVG Export Plug-In . SVG Version: 6.00 Build 0)  -->
<svg version="1.1" id="Icons" xmlns="http://www.w3.org/2000/svg" xmlns:xlink="http://www.w3.org/1999/xlink" x="0px" y="0px"
	 viewBox="0 0 24 24" style="enable-background:new 0 0 24 24;" xml:space="preserve">
<g id="Kitchen-scale">
	<path d="M15.738,15.538c0-2.062-1.677-3.738-3.738-3.738s-3.738,1.677-3.738,3.738S9.938,19.276,12,19.276
		S15.738,17.599,15.738,15.538z M10.262,15.538c0-0.958,0.78-1.738,1.738-1.738s1.738,0.78,1.738,1.738s-0.78,1.738-1.738,1.738
		S10.262,16.496,10.262,15.538z"/>
	<path d="M21.6,18.729l-1.249-6.808c-0.3-1.636-1.725-2.823-3.388-2.823h-1.415V7.684l2.268,0c2.783-0.14,3.627-3.101,3.684-4.647
		c0.011-0.271-0.091-0.535-0.279-0.73C21.031,2.11,20.771,2,20.5,2h-17C3.229,2,2.969,2.11,2.78,2.306
		c-0.188,0.195-0.29,0.459-0.279,0.73c0.057,1.546,0.9,4.507,3.734,4.649l2.217,0v1.413H7.037c-1.663,0-3.088,1.187-3.388,2.823
		l-0.265,1.441c-0.1,0.543,0.26,1.064,0.803,1.164c0.553,0.103,1.064-0.26,1.164-0.803l0.265-1.441
		c0.126-0.686,0.724-1.184,1.421-1.184h9.926c0.697,0,1.295,0.498,1.421,1.184l1.249,6.809c0.057,0.308-0.079,0.528-0.165,0.631
		C19.381,19.826,19.189,20,18.875,20H5.125c-0.314,0-0.506-0.174-0.593-0.277c-0.086-0.104-0.222-0.323-0.165-0.632l0.369-2.013
		c0.1-0.543-0.26-1.064-0.803-1.164c-0.549-0.1-1.064,0.26-1.164,0.803L2.4,18.729c-0.149,0.811,0.067,1.64,0.596,2.273
		C3.523,21.636,4.3,22,5.125,22h13.75c0.825,0,1.602-0.364,2.129-0.998C21.532,20.369,21.749,19.54,21.6,18.729z M4.678,4h14.648
		c-0.203,0.75-0.639,1.638-1.562,1.686L6.286,5.687C5.334,5.639,4.886,4.75,4.678,4z M10.452,7.685l3.096,0v1.414h-3.096V7.685z"/>
</g>
</svg>
