<svg fill="#000000" xmlns="http://www.w3.org/2000/svg"  viewBox="0 0 16 16" width="16px" height="16px"><path d="M 7.5 2 C 6.6774686 2 6 2.6774686 6 3.5 L 6 4 L 2.5 4 A 0.50005 0.50005 0 1 0 2.5 5 L 12.5 5 A 0.50005 0.50005 0 1 0 12.5 4 L 9 4 L 9 3.5 C 9 2.6774686 8.3225314 2 7.5 2 z M 7.5 3 C 7.7814686 3 8 3.2185314 8 3.5 L 8 4 L 7 4 L 7 3.5 C 7 3.2185314 7.2185314 3 7.5 3 z M 2.5 6 A 0.50005 0.50005 0 0 0 2 6.5 L 2 8 L 1.5 8 A 0.50005 0.50005 0 1 0 1.5 9 L 2 9 L 2 12.5 C 2 13.322531 2.6774686 14 3.5 14 L 11.5 14 C 12.322531 14 13 13.322531 13 12.5 L 13 9 L 13.5 9 A 0.50005 0.50005 0 1 0 13.5 8 L 13 8 L 13 6.5 A 0.50005 0.50005 0 0 0 12.5 6 L 2.5 6 z M 3 7 L 12 7 L 12 8.4199219 A 0.50005 0.50005 0 0 0 12 8.5820312 L 12 12.5 C 12 12.781469 11.781469 13 11.5 13 L 3.5 13 C 3.2185314 13 3 12.781469 3 12.5 L 3 8.5800781 A 0.50005 0.50005 0 0 0 3 8.4179688 L 3 7 z"/></svg>