<?xml version="1.0" encoding="utf-8"?>
<!-- Generator: Adobe Illustrator 25.4.1, SVG Export Plug-In . SVG Version: 6.00 Build 0)  -->
<svg version="1.1" id="Icons" xmlns="http://www.w3.org/2000/svg" xmlns:xlink="http://www.w3.org/1999/xlink" x="0px" y="0px"
	 viewBox="0 0 24 24" style="enable-background:new 0 0 24 24;" xml:space="preserve">
<g id="Knife-1">
	<path d="M19.081,2.315C18.896,2.118,18.638,2.004,18.368,2c-0.277-0.004-0.531,0.101-0.723,0.292l-5.099,5.095
		c-0.391,0.391-0.391,1.024,0,1.415c0.391,0.391,1.024,0.39,1.415,0l4.299-4.297c0.813,1.22,1.878,3.577-0.196,5.601l-6.284,6.279
		l-2.703-2.702l2.472-2.471c0.391-0.39,0.391-1.023,0-1.414s-1.023-0.391-1.414,0l-7.292,7.29c-1.122,1.122-1.122,2.947,0,4.069
		c0.561,0.561,1.298,0.841,2.035,0.841s1.474-0.281,2.035-0.841l3.405-3.405l0.755,0.755c0.195,0.195,0.451,0.293,0.707,0.293
		s0.512-0.098,0.707-0.292l6.983-6.978C22.882,8.199,20.708,4.046,19.081,2.315z M5.498,19.743c-0.342,0.343-0.899,0.342-1.241,0
		c-0.342-0.342-0.342-0.899,0-1.241l3.406-3.405l1.24,1.24L5.498,19.743z"/>
</g>
</svg>
