<?xml version="1.0" encoding="utf-8"?>
<!-- Generator: Adobe Illustrator 25.4.1, SVG Export Plug-In . SVG Version: 6.00 Build 0)  -->
<svg version="1.1" id="Icons" xmlns="http://www.w3.org/2000/svg" xmlns:xlink="http://www.w3.org/1999/xlink" x="0px" y="0px"
	 viewBox="0 0 24 24" style="enable-background:new 0 0 24 24;" xml:space="preserve">
<g id="Ladle">
	<path d="M21.856,4.037c-0.242-0.75-0.76-1.359-1.458-1.715c-1.445-0.741-3.222-0.165-3.959,1.279l-1.04,2.029
		c-0.252,0.491-0.058,1.094,0.434,1.346s1.095,0.058,1.346-0.434l1.041-2.03c0.113-0.222,0.309-0.387,0.55-0.465
		c0.238-0.078,0.495-0.059,0.719,0.055c0.463,0.237,0.646,0.806,0.41,1.268l-3.941,7.688l-1.678-0.859l1.344-2.623
		c0.252-0.491,0.058-1.094-0.434-1.346c-0.488-0.25-1.094-0.057-1.346,0.434l-1.801,3.513c-0.121,0.236-0.144,0.511-0.062,0.763
		c0.082,0.252,0.261,0.462,0.497,0.583L13.409,14l-1.493,2.927l-7.908-4.046c-0.234-0.12-0.509-0.142-0.763-0.062
		c-0.252,0.082-0.462,0.26-0.583,0.496C1.939,14.73,1.811,16.34,2.298,17.85c0.488,1.511,1.535,2.741,2.949,3.463
		c0.85,0.435,1.771,0.655,2.699,0.655c0.614,0,1.232-0.097,1.834-0.291c1.51-0.488,2.739-1.535,3.463-2.95l1.946-3.817l0.747,0.382
		c0.146,0.075,0.301,0.11,0.454,0.11c0.363,0,0.714-0.198,0.891-0.544l4.397-8.578C22.035,5.583,22.099,4.787,21.856,4.037z
		 M9.165,19.774c-1.001,0.324-2.068,0.239-3.008-0.241c-0.938-0.48-1.632-1.296-1.956-2.298c-0.219-0.677-0.25-1.383-0.101-2.06
		l6.793,3.475C10.433,19.168,9.841,19.556,9.165,19.774z"/>
</g>
</svg>
