<?xml version="1.0" encoding="utf-8"?>
<!-- Generator: Adobe Illustrator 26.5.0, SVG Export Plug-In . SVG Version: 6.00 Build 0)  -->
<svg version="1.1" id="Icons" xmlns="http://www.w3.org/2000/svg" xmlns:xlink="http://www.w3.org/1999/xlink" x="0px" y="0px"
	 viewBox="0 0 24 24" enable-background="new 0 0 24 24" xml:space="preserve">
<path id="Lamp" d="M13.002,7.331V3c0-0.552-0.448-1-1-1s-1,0.448-1,1v4.349C9.524,7.505,8.096,7.986,6.83,8.799
	C6.365,9.098,6.23,9.716,6.529,10.181c0.298,0.464,0.917,0.599,1.382,0.301C9.137,9.694,10.552,9.278,12,9.278
	c3.845,0,7.032,2.875,7.523,6.588H4.477c0.155-1.175,0.584-2.295,1.262-3.285c0.312-0.455,0.196-1.078-0.259-1.39
	c-0.455-0.312-1.077-0.196-1.39,0.259c-1.098,1.601-1.678,3.473-1.678,5.416c0,0.552,0.448,1,1,1h3.75C7.54,20.204,9.556,22,12,22
	c2.444,0,4.461-1.796,4.839-4.134h3.75c0.552,0,1-0.448,1-1C21.588,11.918,17.82,7.834,13.002,7.331z M12,20
	c-1.335,0-2.452-0.907-2.797-2.134h5.594C14.452,19.093,13.335,20,12,20z"/>
</svg>
