<svg fill="#000000" xmlns="http://www.w3.org/2000/svg"  viewBox="0 0 16 16" width="16px" height="16px"><path d="M 0 5 L 0 5.5 L 0 10 L 3 10 L 3 8 L 7 8 L 7 11.09375 C 6.4209721 11.302232 6 11.853159 6 12.5 C 6 13.322505 6.6774952 14 7.5 14 C 8.3225048 14 9 13.322505 9 12.5 C 9 11.853159 8.5790279 11.302232 8 11.09375 L 8 8 L 9 8 L 9 10 L 12 10 L 12 8 L 13 8 L 13 10 L 16 10 L 16 5 L 13 5 L 13 5.5 L 13 7 L 12 7 L 12 5 L 9 5 L 9 5.5 L 9 7 L 3 7 L 3 5 L 0 5 z M 1 6 L 2 6 L 2 9 L 1 9 L 1 6 z M 10 6 L 11 6 L 11 9 L 10 9 L 10 6 z M 14 6 L 15 6 L 15 9 L 14 9 L 14 6 z M 7.5 12 C 7.7820647 12 8 12.217935 8 12.5 C 8 12.782065 7.7820647 13 7.5 13 C 7.2179353 13 7 12.782065 7 12.5 C 7 12.217935 7.2179353 12 7.5 12 z"/></svg>