<?xml version="1.0" encoding="utf-8"?>
<!-- Generator: Adobe Illustrator 25.4.1, SVG Export Plug-In . SVG Version: 6.00 Build 0)  -->
<svg version="1.1" id="Icons" xmlns="http://www.w3.org/2000/svg" xmlns:xlink="http://www.w3.org/1999/xlink" x="0px" y="0px"
	 viewBox="0 0 24 24" style="enable-background:new 0 0 24 24;" xml:space="preserve">
<g id="Layout-3">
	<path d="M17.002,2H7C4.243,2,2.001,4.243,2.001,6.999v3.296c0,0.552,0.447,1,1,1s1-0.448,1-1V9.402h3.512V20H7
		c-1.653,0-2.999-1.345-2.999-2.998v-3.297c0-0.552-0.447-1-1-1s-1,0.448-1,1v3.297C2.001,19.758,4.243,22,7,22h10.002
		C19.758,22,22,19.758,22,17.002V6.999C22,4.243,19.758,2,17.002,2z M4.001,6.999C4.001,5.345,5.347,4,7,4h10.002
		C18.655,4,20,5.345,20,6.999v0.403H4.001V6.999z M20,9.402v4.079H9.513V9.402H20z M17.002,20H9.513v-4.519H20v1.521
		C20,18.655,18.655,20,17.002,20z"/>
</g>
</svg>
