<?xml version="1.0" encoding="utf-8"?>
<!-- Generator: Adobe Illustrator 25.4.1, SVG Export Plug-In . SVG Version: 6.00 Build 0)  -->
<svg version="1.1" id="Icons" xmlns="http://www.w3.org/2000/svg" xmlns:xlink="http://www.w3.org/1999/xlink" x="0px" y="0px"
	 viewBox="0 0 24 24" style="enable-background:new 0 0 24 24;" xml:space="preserve">
<g id="Layout-1">
	<path d="M17.002,2H7C4.243,2,2,4.243,2,6.999v0.844c0,0.552,0.448,1,1,1s1-0.448,1-1V6.999C4,5.345,5.346,4,7,4h0.403v16H7
		C5.346,20,4,18.655,4,17.002v-5.75c0-0.552-0.448-1-1-1s-1,0.448-1,1v5.75C2,19.758,4.243,22,7,22h10.002
		C19.758,22,22,19.758,22,17.002V6.999C22,4.243,19.758,2,17.002,2z M17.002,4C18.655,4,20,5.345,20,6.999V11H9.402V4H17.002z
		 M17.002,20h-7.6v-7H20v4.002C20,18.655,18.655,20,17.002,20z"/>
</g>
</svg>
