<?xml version="1.0" encoding="utf-8"?>
<!-- Generator: Adobe Illustrator 16.0.0, SVG Export Plug-In . SVG Version: 6.00 Build 0)  -->
<!DOCTYPE svg PUBLIC "-//W3C//DTD SVG 1.1//EN" "http://www.w3.org/Graphics/SVG/1.1/DTD/svg11.dtd">
<svg version="1.1" id="Icons" xmlns="http://www.w3.org/2000/svg" xmlns:xlink="http://www.w3.org/1999/xlink" x="0px" y="0px"
	 width="24px" height="24px" viewBox="0 0 24 24" enable-background="new 0 0 24 24" xml:space="preserve">
<path id="Left" d="M18,2H6C3.794,2,2,3.794,2,6v12c0,2.206,1.794,4,4,4h12c2.206,0,4-1.794,4-4V6C22,3.794,20.206,2,18,2z M20,6v3
	h-7.586l5-5H18C19.103,4,20,4.897,20,6z M6,4h3.586L8.209,5.377c-0.391,0.391-0.391,1.023,0,1.414
	C8.404,6.986,8.66,7.084,8.916,7.084s0.512-0.098,0.707-0.293L12.414,4h2.172L9.293,9.293c-0.286,0.286-0.372,0.716-0.217,1.09
	S9.596,11,10,11h10v2H9.996c-0.404,0-0.769,0.243-0.924,0.617c-0.155,0.373-0.069,0.803,0.216,1.089L14.572,20h-2.175l-7.983-7.999
	l2.795-2.796c0.391-0.391,0.391-1.023,0-1.414s-1.023-0.391-1.414,0L4,9.586V6C4,4.897,4.897,4,6,4z M4,18v-3.583L9.572,20H6
	C4.897,20,4,19.103,4,18z M18,20h-0.603l-4.99-5H20v3C20,19.103,19.103,20,18,20z"/>
</svg>
