<?xml version="1.0" encoding="utf-8"?>
<!-- Generator: Adobe Illustrator 26.3.1, SVG Export Plug-In . SVG Version: 6.00 Build 0)  -->
<svg version="1.1" id="Icons" xmlns="http://www.w3.org/2000/svg" xmlns:xlink="http://www.w3.org/1999/xlink" x="0px" y="0px"
	 viewBox="0 0 24 24" style="enable-background:new 0 0 24 24;" xml:space="preserve">
<g id="Liquor-Store">
	<path d="M13.625,4.584l-3.24-0.015c-0.219,0.016-0.521,0.103-0.71,0.291C9.486,5.048,9.38,5.303,9.38,5.569v3.22
		c-1.043,0.674-1.688,1.829-1.688,3.1v6.526c0,0.551,0.446,0.999,0.998,1l6.615,0.015c0,0,0.001,0,0.002,0
		c0.265,0,0.519-0.105,0.706-0.292c0.188-0.188,0.294-0.442,0.294-0.708v-6.527c0-1.271-0.645-2.426-1.688-3.1V5.584
		C14.62,5.034,14.175,4.587,13.625,4.584z M9.692,13.495h1.31v0.938h-1.31V13.495z M14.308,17.428l-4.615-0.01v-0.985h2.31
		c0.553,0,1-0.448,1-1v-2.938c0-0.552-0.447-1-1-1h-2.25c0.127-0.523,0.486-0.966,1.006-1.178c0.376-0.154,0.622-0.52,0.622-0.926
		V6.574l1.24,0.005v2.826c0,0.406,0.246,0.772,0.622,0.926c0.647,0.264,1.065,0.882,1.065,1.573V17.428z"/>
	<path d="M18,2H6C3.794,2,2,3.794,2,6v1.925c0,0.552,0.447,1,1,1s1-0.448,1-1V6c0-1.103,0.897-2,2-2h12c1.103,0,2,0.897,2,2v12
		c0,1.103-0.897,2-2,2H6c-1.103,0-2-0.897-2-2v-6.66c0-0.552-0.447-1-1-1s-1,0.448-1,1V18c0,2.206,1.794,4,4,4h12
		c2.206,0,4-1.794,4-4V6C22,3.794,20.206,2,18,2z"/>
</g>
</svg>
