<svg fill="#000000" xmlns="http://www.w3.org/2000/svg"  viewBox="0 0 16 16" width="16px" height="16px"><path d="M 7.4921875 2 C 6.948706 2 6.50509 2.1222815 6.1445312 2.3398438 C 5.8478257 2.5188767 5.6182669 2.7573998 5.3710938 3 L 4.5 3 C 3.1250151 3 2 4.1250151 2 5.5 L 2 7.09375 C 1.4209867 7.3022471 1 7.8532111 1 8.5 L 1 10.5 C 1 11.703112 1.8635326 12.715085 3 12.949219 L 3 14 L 4 14 L 4 13 L 11 13 L 11 14 L 12 14 L 12 12.949219 C 13.138324 12.716542 14.001953 11.704436 14.001953 10.5 L 14.001953 8.5 C 14.001953 7.8529637 13.580052 7.3018713 13 7.09375 L 13 5.5 C 13 4.1250151 11.874985 3 10.5 3 L 9.625 3 C 9.3760986 2.756679 9.1446519 2.518207 8.8457031 2.3398438 C 8.4822646 2.1230035 8.035669 2 7.4921875 2 z M 7.4921875 3 C 7.901706 3 8.1179229 3.0683558 8.3339844 3.1972656 C 8.5500459 3.3261755 8.7759192 3.5466428 9.09375 3.8574219 A 0.50005 0.50005 0 0 0 9.4433594 4 L 10.5 4 C 11.335015 4 12 4.6649849 12 5.5 L 12 7.09375 C 11.421891 7.3027378 11.001953 7.8538615 11.001953 8.5 L 11.001953 10.021484 L 4 10.021484 L 4 8.5 C 4 7.8536137 3.5791473 7.302364 3 7.09375 L 3 5.5 C 3 4.6649849 3.6649849 4 4.5 4 L 5.5546875 4 A 0.50005 0.50005 0 0 0 5.9042969 3.8574219 C 6.2233549 3.5454428 6.4496681 3.3254534 6.6621094 3.1972656 C 6.8745506 3.0690779 7.082669 3 7.4921875 3 z M 5.5 6 A 0.5 0.5 0 0 0 5 6.5 A 0.5 0.5 0 0 0 5.5 7 A 0.5 0.5 0 0 0 6 6.5 A 0.5 0.5 0 0 0 5.5 6 z M 9.5 6 A 0.5 0.5 0 0 0 9 6.5 A 0.5 0.5 0 0 0 9.5 7 A 0.5 0.5 0 0 0 10 6.5 A 0.5 0.5 0 0 0 9.5 6 z M 2.5 8 C 2.7829578 8 3 8.2179275 3 8.5 L 3 10.521484 A 0.50005 0.50005 0 0 0 3.5 11.021484 L 11.501953 11.021484 A 0.50005 0.50005 0 0 0 12.001953 10.521484 L 12.001953 8.5 C 12.001953 8.2164394 12.218393 8 12.501953 8 C 12.784911 8 13.001953 8.2179275 13.001953 8.5 L 13.001953 10.5 C 13.001953 11.335015 12.336968 12 11.501953 12 L 3.5 12 C 2.6649849 12 2 11.335015 2 10.5 L 2 8.5 C 2 8.2164394 2.2164394 8 2.5 8 z M 7.5 8 A 0.5 0.5 0 0 0 7 8.5 A 0.5 0.5 0 0 0 7.5 9 A 0.5 0.5 0 0 0 8 8.5 A 0.5 0.5 0 0 0 7.5 8 z"/></svg>