<?xml version="1.0" encoding="utf-8"?>
<!-- Generator: Adobe Illustrator 16.0.0, SVG Export Plug-In . SVG Version: 6.00 Build 0)  -->
<!DOCTYPE svg PUBLIC "-//W3C//DTD SVG 1.0//EN" "http://www.w3.org/TR/2001/REC-SVG-20010904/DTD/svg10.dtd">
<svg version="1.0" id="Layer_1" xmlns="http://www.w3.org/2000/svg" xmlns:xlink="http://www.w3.org/1999/xlink" x="0px" y="0px"
	 width="100px" height="100px" viewBox="0 0 100 100" enable-background="new 0 0 100 100" xml:space="preserve">
<path d="M80,16.667H61.484C59.173,12.699,54.922,10,50,10s-9.173,2.699-11.484,6.667H20L10,50v40h80V50L80,16.667z M50,16.667
	c3.682,0,6.667,2.985,6.667,6.667S53.682,30,50,30s-6.667-2.985-6.667-6.667S46.318,16.667,50,16.667z M24.961,23.333h11.706
	c0,2.441,0.705,4.697,1.849,6.667H30v6.667h40V30h-8.516c1.146-1.969,1.849-4.225,1.849-6.667h11.706l5.999,20H18.96L24.961,23.333z
	 M83.333,83.333H16.667V50h66.667V83.333z"/>
</svg>
