<?xml version="1.0" encoding="utf-8"?>
<!-- Generator: Adobe Illustrator 25.4.1, SVG Export Plug-In . SVG Version: 6.00 Build 0)  -->
<svg version="1.1" id="Icons" xmlns="http://www.w3.org/2000/svg" xmlns:xlink="http://www.w3.org/1999/xlink" x="0px" y="0px"
	 viewBox="0 0 24 24" style="enable-background:new 0 0 24 24;" xml:space="preserve">
<g id="Loader">
	<path d="M20.926,17.529h-1.415V5.502c0-0.552-0.448-1-1-1H6.471V3c0-0.552-0.448-1-1-1H3C2.448,2,2,2.448,2,3s0.448,1,1,1h1.471
		v4.367c0,0.552,0.448,1,1,1s1-0.448,1-1V6.502h2.656v3.993c0,0.552,0.448,1,1,1h3.745c0.552,0,1-0.448,1-1V6.502h2.639v11.027
		h-8.75c-0.335-1.097-1.193-1.955-2.29-2.29v-3.461c0-0.552-0.448-1-1-1s-1,0.448-1,1v3.461c-1.416,0.432-2.455,1.735-2.455,3.29
		c0,1.905,1.55,3.455,3.455,3.455c1.555,0,2.858-1.039,3.29-2.455h12.165c0.552,0,1-0.448,1-1S21.479,17.529,20.926,17.529z
		 M12.873,9.495h-1.745V6.502h1.745V9.495z M5.471,19.984c-0.802,0-1.455-0.653-1.455-1.455s0.653-1.455,1.455-1.455
		s1.455,0.653,1.455,1.455S6.273,19.984,5.471,19.984z"/>
	<path d="M15.318,16.151c0.552,0,1-0.448,1-1s-0.448-1-1-1h-2.062c-0.552,0-1,0.448-1,1s0.448,1,1,1H15.318z"/>
</g>
</svg>
