<?xml version="1.0" encoding="utf-8"?>
<!-- Generator: Adobe Illustrator 25.4.1, SVG Export Plug-In . SVG Version: 6.00 Build 0)  -->
<svg version="1.1" id="Icons" xmlns="http://www.w3.org/2000/svg" xmlns:xlink="http://www.w3.org/1999/xlink" x="0px" y="0px"
	 viewBox="0 0 24 24" style="enable-background:new 0 0 24 24;" xml:space="preserve">
<g id="Location-2">
	<g>
		<path d="M12,14.606c-2.535,0-4.598-2.062-4.598-4.598c0-2.536,2.062-4.598,4.598-4.598c2.535,0,4.597,2.062,4.597,4.598
			C16.598,12.544,14.535,14.606,12,14.606z M12,7.411c-1.432,0-2.598,1.166-2.598,2.598c0,1.432,1.166,2.598,2.598,2.598
			s2.597-1.166,2.597-2.598C14.598,8.576,13.433,7.411,12,7.411z"/>
	</g>
	<g>
		<path d="M11.998,22c-0.253,0-0.506-0.096-0.701-0.286c-0.069-0.068-1.713-1.687-3.429-3.844c-0.344-0.432-0.272-1.061,0.16-1.405
			s1.061-0.272,1.405,0.16c0.984,1.236,1.958,2.303,2.584,2.961c2.151-2.171,5.99-6.651,5.99-9.579C18.007,6.695,15.312,4,12,4
			s-6.007,2.695-6.007,6.007c0,0.672,0.264,1.899,1.522,3.929c0.291,0.47,0.146,1.086-0.323,1.377
			c-0.47,0.291-1.086,0.146-1.377-0.323c-1.226-1.979-1.822-3.608-1.822-4.983C3.993,5.592,7.585,2,12,2s8.007,3.592,8.007,8.007
			c0,4.741-6.576,11.023-7.326,11.723C12.488,21.911,12.243,22,11.998,22z"/>
	</g>
</g>
</svg>
