<?xml version="1.0" encoding="utf-8"?>
<!-- Generator: Adobe Illustrator 25.4.1, SVG Export Plug-In . SVG Version: 6.00 Build 0)  -->
<svg version="1.1" id="Icons" xmlns="http://www.w3.org/2000/svg" xmlns:xlink="http://www.w3.org/1999/xlink" x="0px" y="0px"
	 viewBox="0 0 24 24" style="enable-background:new 0 0 24 24;" xml:space="preserve">
<g id="Location-B">
	<g>
		<path d="M12.582,13.917H9.879c-0.553,0-1-0.448-1-1V6.883c0-0.552,0.447-1,1-1h2.703c1.4,0,2.539,1.125,2.539,2.508
			c0,0.566-0.19,1.088-0.512,1.509c0.321,0.42,0.512,0.943,0.512,1.509C15.121,12.792,13.982,13.917,12.582,13.917z M10.879,11.917
			h1.703c0.292,0,0.539-0.232,0.539-0.508c0-0.276-0.247-0.509-0.539-0.509h-1.703V11.917z M12.582,8.9
			c0.292,0,0.539-0.233,0.539-0.509c0-0.275-0.247-0.508-0.539-0.508h-1.703V8.9H12.582z"/>
	</g>
	<g>
		<path d="M11.998,22c-0.253,0-0.506-0.096-0.7-0.286c-0.069-0.068-1.713-1.687-3.43-3.844c-0.344-0.432-0.272-1.061,0.159-1.405
			c0.434-0.346,1.062-0.272,1.405,0.16c0.983,1.236,1.959,2.303,2.584,2.961c2.151-2.171,5.99-6.651,5.99-9.579
			C18.007,6.695,15.312,4,12,4s-6.007,2.695-6.007,6.007c0,0.672,0.264,1.9,1.521,3.929c0.291,0.47,0.146,1.086-0.323,1.377
			c-0.47,0.291-1.087,0.146-1.376-0.323c-1.227-1.978-1.822-3.608-1.822-4.983C3.993,5.592,7.585,2,12,2s8.007,3.592,8.007,8.007
			c0,4.741-6.576,11.023-7.326,11.723C12.488,21.911,12.243,22,11.998,22z"/>
	</g>
</g>
</svg>
