<?xml version="1.0" encoding="utf-8"?>
<!-- Generator: Adobe Illustrator 25.4.1, SVG Export Plug-In . SVG Version: 6.00 Build 0)  -->
<svg version="1.1" id="Icons" xmlns="http://www.w3.org/2000/svg" xmlns:xlink="http://www.w3.org/1999/xlink" x="0px" y="0px"
	 viewBox="0 0 24 24" style="enable-background:new 0 0 24 24;" xml:space="preserve">
<g id="Location-3">
	<path d="M12,5.176c-2.101,0-3.81,1.709-3.81,3.81s1.709,3.81,3.81,3.81c2.1,0,3.809-1.709,3.809-3.81S14.101,5.176,12,5.176z
		 M12,10.795c-0.998,0-1.81-0.812-1.81-1.81s0.812-1.81,1.81-1.81c0.997,0,1.809,0.812,1.809,1.81S12.998,10.795,12,10.795z"/>
	<path d="M15.936,15.533c1.545-1.972,3.048-4.43,3.048-6.549C18.984,5.133,15.851,2,12,2S5.016,5.133,5.016,8.984
		c0,2.016,1.553,4.52,3.122,6.54C5.469,15.839,2,16.634,2,18.652c0,1.35,1.544,2.323,4.59,2.892
		c0.062,0.012,0.124,0.017,0.185,0.017c0.472,0,0.892-0.335,0.982-0.816c0.102-0.543-0.256-1.065-0.799-1.167
		c-1.681-0.314-2.503-0.7-2.829-0.93c0.543-0.389,2.306-1.027,5.565-1.259c0.787,0.883,1.417,1.511,1.607,1.697
		c0.194,0.19,0.446,0.285,0.699,0.285c0.245,0,0.49-0.089,0.683-0.27c0.196-0.183,0.856-0.812,1.676-1.709
		c3.244,0.236,4.991,0.875,5.522,1.261C19.169,19.184,16.467,20,12,20c-0.609,0-1.205-0.017-1.778-0.047
		c-0.562-0.021-1.022,0.393-1.052,0.945s0.394,1.022,0.945,1.052C10.723,21.982,11.354,22,12,22c1.023,0,10-0.094,10-3.348
		C22,16.651,18.58,15.852,15.936,15.533z M12.013,16.958c-1.842-1.944-4.997-5.738-4.997-7.974C7.016,6.236,9.252,4,12,4
		s4.984,2.236,4.984,4.984C16.984,11.392,13.852,15.084,12.013,16.958z"/>
</g>
</svg>
