<?xml version="1.0" encoding="utf-8"?>
<!-- Generator: Adobe Illustrator 25.4.1, SVG Export Plug-In . SVG Version: 6.00 Build 0)  -->
<svg version="1.1" id="Icons" xmlns="http://www.w3.org/2000/svg" xmlns:xlink="http://www.w3.org/1999/xlink" x="0px" y="0px"
	 viewBox="0 0 24 24" style="enable-background:new 0 0 24 24;" xml:space="preserve">
<g id="Location-1">
	<path d="M12.001,5.176c-2.102,0-3.811,1.709-3.811,3.81s1.709,3.81,3.811,3.81c2.1,0,3.809-1.709,3.809-3.81
		S14.101,5.176,12.001,5.176z M12.001,10.795c-0.998,0-1.811-0.812-1.811-1.81s0.812-1.81,1.811-1.81
		c0.997,0,1.809,0.812,1.809,1.81S12.998,10.795,12.001,10.795z"/>
	<path d="M21.854,20.481l-3.093-5.1c-0.182-0.299-0.506-0.481-0.855-0.481h-1.491c1.362-1.85,2.569-4.019,2.569-5.917
		C18.984,5.133,15.852,2,12,2S5.016,5.133,5.016,8.984c0,1.813,1.257,4.02,2.651,5.917H6.094c-0.35,0-0.674,0.183-0.855,0.481
		l-3.093,5.1c-0.187,0.309-0.193,0.694-0.016,1.009C2.307,21.805,2.64,22,3.001,22h3.345c0.553,0,1-0.448,1-1s-0.447-1-1-1H4.777
		l1.88-3.1h2.607c0.982,1.14,1.811,1.968,2.035,2.187c0.194,0.19,0.446,0.285,0.699,0.285c0.245,0,0.49-0.089,0.683-0.269
		c0.23-0.215,1.099-1.045,2.118-2.203h2.544l1.88,3.1H9.756c-0.553,0-1,0.448-1,1s0.447,1,1,1h11.243
		c0.361,0,0.694-0.195,0.871-0.509C22.048,21.176,22.041,20.79,21.854,20.481z M12.013,16.958c-1.843-1.944-4.997-5.738-4.997-7.974
		C7.016,6.236,9.252,4,12,4s4.984,2.236,4.984,4.984C16.984,11.392,13.853,15.084,12.013,16.958z"/>
</g>
</svg>
