<?xml version="1.0" encoding="utf-8"?>
<!-- Generator: Adobe Illustrator 25.4.1, SVG Export Plug-In . SVG Version: 6.00 Build 0)  -->
<svg version="1.1" id="Icons" xmlns="http://www.w3.org/2000/svg" xmlns:xlink="http://www.w3.org/1999/xlink" x="0px" y="0px"
	 viewBox="0 0 24 24" style="enable-background:new 0 0 24 24;" xml:space="preserve">
<g id="Location-A">
	<path d="M13.999,14.108c0.552,0,1-0.448,1-1V9.11c0-1.678-1.345-3.042-2.999-3.042S9.001,7.432,9.001,9.11v3.999
		c0,0.552,0.448,1,1,1s1-0.448,1-1v-1.415h1.998v1.415C12.999,13.661,13.447,14.108,13.999,14.108z M11.001,9.694V9.11
		c0-0.575,0.448-1.042,0.999-1.042s0.999,0.468,0.999,1.042v0.584H11.001z"/>
	<path d="M12,2c-4.415,0-8.007,3.592-8.007,8.007c0,1.375,0.596,3.004,1.822,4.983c0.291,0.469,0.907,0.614,1.377,0.323
		c0.469-0.291,0.614-0.907,0.323-1.377c-1.258-2.03-1.522-3.257-1.522-3.929C5.993,6.695,8.688,4,12,4s6.007,2.695,6.007,6.007
		c0,2.928-3.839,7.407-5.991,9.579c-0.625-0.659-1.6-1.726-2.584-2.961c-0.344-0.432-0.973-0.503-1.405-0.16
		c-0.432,0.344-0.504,0.973-0.16,1.405c1.716,2.157,3.36,3.776,3.429,3.844C11.492,21.904,11.745,22,11.998,22
		c0.245,0,0.49-0.089,0.683-0.27c0.75-0.7,7.327-6.982,7.327-11.723C20.007,5.592,16.415,2,12,2z"/>
</g>
</svg>
