<?xml version="1.0" encoding="utf-8"?>
<!-- Generator: Adobe Illustrator 16.0.0, SVG Export Plug-In . SVG Version: 6.00 Build 0)  -->
<!DOCTYPE svg PUBLIC "-//W3C//DTD SVG 1.0//EN" "http://www.w3.org/TR/2001/REC-SVG-20010904/DTD/svg10.dtd">
<svg version="1.0" id="Layer_1" xmlns="http://www.w3.org/2000/svg" xmlns:xlink="http://www.w3.org/1999/xlink" x="0px" y="0px"
	 width="100px" height="100px" viewBox="0 0 100 100" enable-background="new 0 0 100 100" xml:space="preserve">
<path d="M73.333,23.334H70v-6.668h10L76.667,10H63.333v13.334H40c-9.202,0-16.667,7.462-16.667,16.666v30L10,90h33.333l13.334-20v20
	h6.666V70H90V40C90,30.796,82.536,23.334,73.333,23.334z M39.766,83.333H22.454L31.348,70h17.305L39.766,83.333z M50,63.333H30V40
	c0-5.514,4.485-10,10-10s10,4.486,10,10V63.333z M83.333,63.333H56.667V40c0-3.77-1.299-7.207-3.412-10h10.078v26.667H70V30h3.333
	c5.515,0,10,4.486,10,10V63.333z"/>
</svg>
