<?xml version="1.0" encoding="utf-8"?>
<!-- Generator: Adobe Illustrator 25.4.1, SVG Export Plug-In . SVG Version: 6.00 Build 0)  -->
<svg version="1.1" id="Icons" xmlns="http://www.w3.org/2000/svg" xmlns:xlink="http://www.w3.org/1999/xlink" x="0px" y="0px"
	 viewBox="0 0 24 24" style="enable-background:new 0 0 24 24;" xml:space="preserve">
<g id="Map-pin-1">
	<path d="M15.198,15.452l0.376-0.981h1.475c0.265,0,0.52-0.105,0.707-0.293c0.188-0.188,0.293-0.442,0.293-0.708
		c-0.001-3.038-1.71-4.543-2.672-5.15l0-1.673c1.847-1.398,1.717-3.616,1.71-3.717C17.051,2.406,16.615,2,16.09,2H7.908
		C7.382,2,6.946,2.407,6.91,2.931C6.903,3.032,6.774,5.25,8.622,6.648v1.673c-0.962,0.606-2.673,2.111-2.671,5.151
		c0,0.552,0.448,1,1,1h1.473L8.8,15.453C6.087,15.711,2,16.462,2,18.652c0,1.732,2.514,2.397,3.34,2.615
		c0.085,0.022,0.171,0.034,0.256,0.033c0.443,0,0.848-0.296,0.966-0.745c0.141-0.534-0.177-1.081-0.711-1.222
		c-0.961-0.254-1.48-0.518-1.721-0.686c0.536-0.383,2.255-1.006,5.418-1.247l0.984,2.566c-0.497-0.023-0.989-0.056-1.474-0.102
		c-0.55-0.058-1.038,0.353-1.089,0.902c-0.052,0.55,0.353,1.038,0.902,1.089C9.892,21.952,10.945,22,12,22
		c1.023,0,10-0.094,10-3.348C22,16.458,17.889,15.709,15.198,15.452z M9.987,9.848c0.382-0.15,0.634-0.52,0.634-0.931V6.11
		c0-0.36-0.194-0.693-0.508-0.871C9.526,4.907,9.223,4.425,9.067,4h5.864c-0.155,0.426-0.458,0.908-1.045,1.24
		c-0.314,0.178-0.508,0.51-0.508,0.871l0,2.806c0,0.403,0.252,0.771,0.624,0.927c0.073,0.03,1.556,0.674,1.952,2.629H8.046
		C8.439,10.517,9.923,9.875,9.987,9.848z M13.432,14.472L12,18.208l-1.434-3.736H13.432z M13.467,19.967l0.984-2.566
		c3.183,0.242,4.903,0.872,5.429,1.254C19.251,19.123,17.057,19.813,13.467,19.967z"/>
</g>
</svg>
