<?xml version="1.0" encoding="utf-8"?>
<!-- Generator: Adobe Illustrator 25.4.1, SVG Export Plug-In . SVG Version: 6.00 Build 0)  -->
<svg version="1.1" id="Icons" xmlns="http://www.w3.org/2000/svg" xmlns:xlink="http://www.w3.org/1999/xlink" x="0px" y="0px"
	 viewBox="0 0 24 24" style="enable-background:new 0 0 24 24;" xml:space="preserve">
<g id="Map-pin-3">
	<g>
		<path d="M12,14.606c-2.535,0-4.598-2.062-4.598-4.598c0-2.536,2.062-4.598,4.598-4.598c2.535,0,4.597,2.062,4.597,4.598
			C16.597,12.544,14.535,14.606,12,14.606z M12,7.411c-1.432,0-2.598,1.166-2.598,2.598c0,1.432,1.166,2.598,2.598,2.598
			c1.432,0,2.597-1.166,2.597-2.598C14.597,8.576,13.432,7.411,12,7.411z"/>
	</g>
	<g>
		<path d="M12.461,21.887c0,0,0.258-0.147,0.391-0.364l2.635-4.296c2.763-1.335,4.53-4.133,4.53-7.218
			c0-4.421-3.596-8.018-8.015-8.018c-2.663,0-5.146,1.318-6.642,3.526c-0.31,0.458-0.19,1.079,0.267,1.389
			c0.458,0.31,1.08,0.189,1.389-0.267c1.123-1.658,2.987-2.648,4.986-2.648c3.317,0,6.015,2.7,6.015,6.018
			c0,2.396-1.422,4.562-3.622,5.519c-0.188,0.082-0.346,0.219-0.454,0.394L12,19.087l-1.941-3.167
			c-0.107-0.175-0.266-0.312-0.454-0.394c-2.2-0.958-3.621-3.123-3.621-5.518c0-0.21,0.011-0.417,0.032-0.621
			C6.07,8.839,5.67,8.349,5.12,8.293c-0.543-0.058-1.04,0.346-1.095,0.895c-0.027,0.27-0.042,0.544-0.042,0.821
			c0,3.083,1.767,5.88,4.528,7.216l2.635,4.297c0,0,0.139,0.23,0.391,0.364c0,0,0.224,0.114,0.462,0.113
			C12,22,12.244,22.007,12.461,21.887z"/>
	</g>
</g>
</svg>
