<?xml version="1.0" encoding="utf-8"?>
<!-- Generator: Adobe Illustrator 25.4.1, SVG Export Plug-In . SVG Version: 6.00 Build 0)  -->
<svg version="1.1" id="Icons" xmlns="http://www.w3.org/2000/svg" xmlns:xlink="http://www.w3.org/1999/xlink" x="0px" y="0px"
	 viewBox="0 0 24 24" style="enable-background:new 0 0 24 24;" xml:space="preserve">
<g id="Map-pin-5">
	<path d="M13,5.575c0-0.552-0.448-1-1-1c-1.641,0-2.976,1.334-2.976,2.975c0,0.552,0.448,1,1,1s1-0.448,1-1
		c0-0.538,0.438-0.975,0.976-0.975C12.552,6.575,13,6.127,13,5.575z"/>
	<path d="M21.854,20.481l-3.092-5.1c-0.181-0.299-0.505-0.481-0.855-0.481H13v-1.866c2.6-0.473,4.579-2.75,4.579-5.484
		c0-3.076-2.503-5.579-5.579-5.579S6.421,4.474,6.421,7.55c0,2.734,1.979,5.011,4.579,5.484V14.9H6.093
		c-0.35,0-0.674,0.183-0.855,0.481l-3.092,5.1c-0.188,0.309-0.193,0.694-0.017,1.009C2.307,21.805,2.64,22,3.001,22h3.345
		c0.552,0,1-0.448,1-1s-0.448-1-1-1H4.777l1.879-3.1H11v1.616c0,0.552,0.448,1,1,1s1-0.448,1-1V16.9h4.344l1.879,3.1H9.756
		c-0.552,0-1,0.448-1,1s0.448,1,1,1h11.243c0.361,0,0.694-0.195,0.872-0.509C22.047,21.176,22.042,20.79,21.854,20.481z M8.421,7.55
		c0-1.974,1.605-3.579,3.579-3.579s3.579,1.605,3.579,3.579S13.974,11.129,12,11.129S8.421,9.524,8.421,7.55z"/>
</g>
</svg>
