<?xml version="1.0" encoding="utf-8"?>
<!-- Generator: Adobe Illustrator 25.4.1, SVG Export Plug-In . SVG Version: 6.00 Build 0)  -->
<svg version="1.1" id="Icons" xmlns="http://www.w3.org/2000/svg" xmlns:xlink="http://www.w3.org/1999/xlink" x="0px" y="0px"
	 viewBox="0 0 24 24" style="enable-background:new 0 0 24 24;" xml:space="preserve">
<g id="Map-2">
	<path d="M18,3H6C3.794,3,2,4.794,2,7v1.189c0,0.552,0.448,1,1,1s1-0.448,1-1V7c0-1.103,0.897-2,2-2h0.283l4.712,4.734L4,16.694
		V11.6c0-0.552-0.448-1-1-1s-1,0.448-1,1V17c0,2.206,1.794,4,4,4h12c2.206,0,4-1.794,4-4V7C22,4.794,20.206,3,18,3z M20,7v3.951
		L14.14,5H18C19.103,5,20,5.897,20,7z M4.872,18.649l8.243-8.203c0.188-0.187,0.294-0.441,0.295-0.707s-0.104-0.52-0.291-0.708
		L9.105,5h2.228L20,13.802v2.143l-4.359-4.38c-0.388-0.39-1.018-0.392-1.411-0.007L6.677,19H6C5.581,19,5.193,18.87,4.872,18.649z
		 M18,19H9.527l5.398-5.318l4.589,4.61C19.146,18.722,18.608,19,18,19z"/>
</g>
</svg>
