<?xml version="1.0" encoding="utf-8"?>
<!-- Generator: Adobe Illustrator 25.4.1, SVG Export Plug-In . SVG Version: 6.00 Build 0)  -->
<svg version="1.1" id="Icons" xmlns="http://www.w3.org/2000/svg" xmlns:xlink="http://www.w3.org/1999/xlink" x="0px" y="0px"
	 viewBox="0 0 24 24" style="enable-background:new 0 0 24 24;" xml:space="preserve">
<g id="Map-pin-6">
	<path d="M12.122,5.157c-1.651,0-2.995,1.344-2.995,2.995c0,0.552,0.447,1,1,1s1-0.448,1-1c0-0.549,0.446-0.995,0.995-0.995
		c0.553,0,1-0.448,1-1S12.675,5.157,12.122,5.157z"/>
	<path d="M14.211,15.373l0.917-2.417c1.744-1.083,2.812-2.975,2.812-5.023c0-3.275-2.664-5.939-5.939-5.939S6.061,4.659,6.061,7.934
		c0,2.047,1.067,3.938,2.811,5.022l0.917,2.417c-2.714,0.182-7.79,0.848-7.79,3.277c0,1.352,1.545,2.326,4.592,2.895
		c0.062,0.012,0.124,0.017,0.185,0.017c0.473,0,0.893-0.335,0.982-0.816c0.101-0.543-0.257-1.065-0.8-1.167
		c-1.687-0.315-2.509-0.703-2.833-0.933c0.629-0.454,2.832-1.147,6.41-1.307l0.531,1.401c0.147,0.388,0.52,0.645,0.935,0.645
		s0.788-0.257,0.935-0.646l0.531-1.4c3.591,0.16,5.795,0.858,6.414,1.312C19.175,19.181,16.472,20,11.998,20
		c-0.608,0-1.203-0.017-1.776-0.047c-0.548-0.027-1.022,0.393-1.053,0.945c-0.029,0.552,0.394,1.022,0.945,1.052
		c0.608,0.033,1.238,0.05,1.884,0.05c1.023,0,10-0.094,10-3.351C21.998,16.221,16.923,15.555,14.211,15.373z M10.614,11.914
		c-0.085-0.225-0.249-0.412-0.462-0.526c-1.29-0.693-2.092-2.017-2.092-3.455c0-2.172,1.768-3.939,3.939-3.939
		s3.939,1.767,3.939,3.939c0,1.439-0.802,2.763-2.093,3.455c-0.213,0.114-0.377,0.301-0.462,0.527L12,15.565L10.614,11.914z"/>
</g>
</svg>
