<?xml version="1.0" encoding="utf-8"?>
<!-- Generator: Adobe Illustrator 25.4.1, SVG Export Plug-In . SVG Version: 6.00 Build 0)  -->
<svg version="1.1" id="Icons" xmlns="http://www.w3.org/2000/svg" xmlns:xlink="http://www.w3.org/1999/xlink" x="0px" y="0px"
	 viewBox="0 0 24 24" style="enable-background:new 0 0 24 24;" xml:space="preserve">
<g id="Map-pin-2">
	<path d="M13,5.575c0-0.552-0.447-1-1-1c-1.641,0-2.976,1.334-2.976,2.975c0,0.552,0.447,1,1,1s1-0.448,1-1
		c0-0.538,0.438-0.975,0.976-0.975C12.553,6.575,13,6.127,13,5.575z"/>
	<path d="M13,15.319v-2.284c2.6-0.473,4.579-2.75,4.579-5.484c0-3.076-2.503-5.579-5.579-5.579S6.421,4.474,6.421,7.55
		c0,2.734,1.979,5.011,4.579,5.484v2.284c-2.602,0.087-9.002,0.578-9.002,3.331c0,1.352,1.545,2.326,4.592,2.895
		c0.551,0.103,1.065-0.257,1.167-0.799c0.101-0.543-0.257-1.065-0.8-1.167c-1.69-0.316-2.513-0.704-2.835-0.934
		C4.78,18.156,7.145,17.433,11,17.321v1.195c0,0.552,0.447,1,1,1s1-0.448,1-1v-1.194c3.867,0.112,6.234,0.84,6.882,1.328
		C19.179,19.179,16.475,20,11.998,20c-0.608,0-1.203-0.017-1.776-0.047c-0.548-0.033-1.022,0.393-1.053,0.945
		c-0.029,0.552,0.394,1.022,0.945,1.052c0.608,0.033,1.238,0.05,1.884,0.05c1.023,0,10-0.094,10-3.351
		C21.998,15.898,15.605,15.406,13,15.319z M8.421,7.55c0-1.974,1.605-3.579,3.579-3.579s3.579,1.605,3.579,3.579
		S13.974,11.129,12,11.129S8.421,9.524,8.421,7.55z"/>
</g>
</svg>
