<?xml version="1.0" encoding="utf-8"?>
<!-- Generator: Adobe Illustrator 25.4.1, SVG Export Plug-In . SVG Version: 6.00 Build 0)  -->
<svg version="1.1" id="Icons" xmlns="http://www.w3.org/2000/svg" xmlns:xlink="http://www.w3.org/1999/xlink" x="0px" y="0px"
	 viewBox="0 0 24 24" style="enable-background:new 0 0 24 24;" xml:space="preserve">
<g id="Map-1">
	<path d="M21.335,4.191l-6-2.133c-0.217-0.077-0.453-0.077-0.67,0L9,4.072L3.335,2.058C3.026,1.949,2.688,1.996,2.424,2.183
		C2.158,2.371,2,2.675,2,3v8.189c0,0.552,0.447,1,1,1s1-0.448,1-1V4.417l4,1.422v13.543l-4-2V14.6c0-0.552-0.447-1-1-1s-1,0.448-1,1
		V18c0,0.379,0.214,0.725,0.553,0.895l6,3C8.693,21.965,8.847,22,9,22s0.307-0.035,0.447-0.105l4.936-2.468
		c0.494,0.538,0.872,0.914,1.001,1.041c0.194,0.19,0.446,0.285,0.699,0.285c0.245,0,0.49-0.089,0.683-0.27
		c0.059-0.055,0.182-0.173,0.329-0.317l3.457,1.729C20.694,21.965,20.847,22,21,22c0.183,0,0.365-0.05,0.525-0.149
		C21.82,21.668,22,21.347,22,21V5.133C22,4.71,21.733,4.333,21.335,4.191z M20,7.614c-1.044-0.924-2.415-1.486-3.915-1.486
		c-0.029,0-0.056,0.004-0.085,0.004V4.417l4,1.422V7.614z M10,19.382V5.839l4-1.422v2.097c-2.234,0.846-3.83,3.001-3.83,5.528
		c0,1.815,1.479,4.086,2.869,5.82L10,19.382z M12.17,12.042c0-2.159,1.756-3.915,3.915-3.915S20,9.883,20,12.042
		c0,1.71-2.169,4.509-3.902,6.294C14.357,16.482,12.17,13.628,12.17,12.042z M18.53,18.647c0.476-0.542,0.985-1.172,1.47-1.85v2.585
		L18.53,18.647z"/>
	<path d="M16.085,9.163c-1.592,0-2.888,1.295-2.888,2.888c0,1.592,1.296,2.888,2.888,2.888s2.888-1.295,2.888-2.888
		C18.973,10.458,17.677,9.163,16.085,9.163z M16.085,12.939c-0.489,0-0.888-0.398-0.888-0.888c0-0.49,0.398-0.888,0.888-0.888
		s0.888,0.398,0.888,0.888C16.973,12.541,16.574,12.939,16.085,12.939z"/>
</g>
</svg>
