<?xml version="1.0" encoding="utf-8"?>
<!-- Generator: Adobe Illustrator 25.4.1, SVG Export Plug-In . SVG Version: 6.00 Build 0)  -->
<svg version="1.1" id="Icons" xmlns="http://www.w3.org/2000/svg" xmlns:xlink="http://www.w3.org/1999/xlink" x="0px" y="0px"
	 viewBox="0 0 24 24" style="enable-background:new 0 0 24 24;" xml:space="preserve">
<g id="Map-pin-4">
	<path d="M21.854,20.481l-3.093-5.1c-0.182-0.299-0.506-0.481-0.855-0.481h-3.516l0.737-1.944c1.744-1.083,2.812-2.975,2.812-5.023
		c0-3.275-2.664-5.939-5.939-5.939S6.061,4.659,6.061,7.934c0,2.047,1.067,3.938,2.811,5.022L9.609,14.9H6.094
		c-0.35,0-0.674,0.183-0.855,0.481l-3.093,5.1c-0.187,0.309-0.193,0.694-0.016,1.009C2.307,21.805,2.64,22,3.001,22h3.345
		c0.553,0,1-0.448,1-1s-0.447-1-1-1H4.777l1.88-3.1h3.711l0.698,1.839c0.147,0.388,0.52,0.645,0.935,0.645s0.788-0.257,0.935-0.646
		l0.697-1.838h3.711l1.88,3.1H9.756c-0.553,0-1,0.448-1,1s0.447,1,1,1h11.243c0.361,0,0.694-0.195,0.871-0.509
		C22.048,21.176,22.041,20.79,21.854,20.481z M10.614,11.914c-0.085-0.225-0.249-0.412-0.462-0.526
		c-1.29-0.693-2.092-2.017-2.092-3.455c0-2.172,1.768-3.939,3.939-3.939s3.939,1.767,3.939,3.939c0,1.439-0.802,2.763-2.093,3.455
		c-0.213,0.114-0.377,0.301-0.462,0.527L12,15.565L10.614,11.914z"/>
	<path d="M12.122,5.157c-1.651,0-2.995,1.344-2.995,2.995c0,0.552,0.447,1,1,1s1-0.448,1-1c0-0.549,0.446-0.995,0.995-0.995
		c0.553,0,1-0.448,1-1S12.675,5.157,12.122,5.157z"/>
</g>
</svg>
