<?xml version="1.0" encoding="utf-8"?>
<!-- Generator: Adobe Illustrator 25.4.1, SVG Export Plug-In . SVG Version: 6.00 Build 0)  -->
<svg version="1.1" id="Icons" xmlns="http://www.w3.org/2000/svg" xmlns:xlink="http://www.w3.org/1999/xlink" x="0px" y="0px"
	 viewBox="0 0 24 24" style="enable-background:new 0 0 24 24;" xml:space="preserve">
<g id="Map-3">
	<path d="M21.335,4.191l-6-2.133c-0.217-0.077-0.453-0.077-0.67,0L9,4.072L3.335,2.058C3.03,1.95,2.688,1.996,2.423,2.183
		C2.158,2.371,2,2.675,2,3v8.189c0,0.552,0.448,1,1,1s1-0.448,1-1V4.417l4,1.422v13.543l-4-2V14.6c0-0.552-0.448-1-1-1s-1,0.448-1,1
		V18c0,0.379,0.214,0.725,0.553,0.895l6,3c0.281,0.141,0.613,0.141,0.895,0L15,19.118l5.553,2.776C20.694,21.965,20.847,22,21,22
		c0.183,0,0.365-0.05,0.526-0.149C21.82,21.668,22,21.347,22,21V5.133C22,4.71,21.734,4.333,21.335,4.191z M10,5.839l4-1.422v12.965
		l-4,2V5.839z M20,19.382l-4-2V4.417l4,1.422V19.382z"/>
</g>
</svg>
