<?xml version="1.0" encoding="utf-8"?>
<!-- Generator: Adobe Illustrator 16.0.0, SVG Export Plug-In . SVG Version: 6.00 Build 0)  -->
<!DOCTYPE svg PUBLIC "-//W3C//DTD SVG 1.1//EN" "http://www.w3.org/Graphics/SVG/1.1/DTD/svg11.dtd">
<svg version="1.1" id="Icons" xmlns="http://www.w3.org/2000/svg" xmlns:xlink="http://www.w3.org/1999/xlink" x="0px" y="0px"
	 width="24px" height="24px" viewBox="0 0 24 24" enable-background="new 0 0 24 24" xml:space="preserve">
<path id="Maximize" d="M22,6.053v12c0,2.206-1.794,4-4,4H6c-2.206,0-4-1.794-4-4V10.84c0-0.553,0.448-1,1-1s1,0.447,1,1v7.213
	c0,1.103,0.897,2,2,2h12c1.103,0,2-0.897,2-2v-12c0-1.103-0.897-2-2-2H6c-1.103,0-2,0.897-2,2v1.375c0,0.553-0.448,1-1,1
	s-1-0.447-1-1V6.053c0-2.206,1.794-4,4-4h12C20.206,2.053,22,3.847,22,6.053z M6.438,12.97c-0.552,0-1,0.447-1,1v3.592
	c0,0.553,0.448,1,1,1h3.593c0.552,0,1-0.447,1-1s-0.448-1-1-1H8.853L12,13.414l3.147,3.147h-1.18c-0.552,0-1,0.447-1,1s0.448,1,1,1
	h3.595c0.552,0,1-0.447,1-1V13.97c0-0.553-0.448-1-1-1s-1,0.447-1,1v1.179L13.414,12l3.148-3.147v1.181c0,0.553,0.448,1,1,1
	s1-0.447,1-1V6.438c0-0.553-0.448-1-1-1h-3.595c-0.552,0-1,0.447-1,1s0.448,1,1,1h1.18L12,10.586L8.852,7.438h1.18
	c0.552,0,1-0.447,1-1s-0.448-1-1-1H6.438c-0.552,0-1,0.447-1,1v3.595c0,0.553,0.448,1,1,1s1-0.447,1-1v-1.18L10.585,12l-3.147,3.147
	V13.97C7.438,13.417,6.991,12.97,6.438,12.97z"/>
</svg>
