<?xml version="1.0" encoding="utf-8"?>
<!-- Generator: Adobe Illustrator 26.5.0, SVG Export Plug-In . SVG Version: 6.00 Build 0)  -->
<svg version="1.1" id="Icons" xmlns="http://www.w3.org/2000/svg" xmlns:xlink="http://www.w3.org/1999/xlink" x="0px" y="0px"
	 viewBox="0 0 24 24" enable-background="new 0 0 24 24" xml:space="preserve">
<path id="Microwave" d="M19.478,11.46c0,0.552-0.447,1-1,1h-0.47c-0.553,0-1-0.448-1-1s0.447-1,1-1h0.47
	C19.03,10.46,19.478,10.908,19.478,11.46z M18.478,13.46h-0.47c-0.553,0-1,0.448-1,1s0.447,1,1,1h0.47c0.553,0,1-0.448,1-1
	S19.03,13.46,18.478,13.46z M12.257,7.337c-0.391-0.39-1.023-0.39-1.414,0.002c-1.184,1.187-1.182,3.116,0.005,4.3
	c0.196,0.196,0.305,0.458,0.306,0.736c0,0.278-0.108,0.54-0.306,0.736c-0.391,0.391-0.391,1.024,0,1.415
	c0.195,0.195,0.451,0.293,0.707,0.293s0.512-0.098,0.707-0.292c0.575-0.575,0.892-1.339,0.892-2.152
	c-0.001-0.813-0.318-1.577-0.894-2.15c-0.405-0.406-0.406-1.066-0.001-1.473C12.648,8.361,12.648,7.728,12.257,7.337z M8.144,7.338
	c-0.391-0.39-1.024-0.391-1.415,0.001C6.155,7.914,5.839,8.678,5.84,9.49c0,0.812,0.317,1.576,0.893,2.15
	c0.196,0.196,0.306,0.458,0.306,0.736s-0.108,0.54-0.305,0.736c-0.391,0.391-0.391,1.024,0,1.415
	c0.195,0.195,0.451,0.292,0.707,0.292s0.512-0.098,0.707-0.293c0.574-0.575,0.891-1.339,0.891-2.151
	c-0.001-0.813-0.317-1.577-0.894-2.151C7.948,10.027,7.84,9.766,7.84,9.488C7.839,9.21,7.947,8.949,8.145,8.752
	C8.534,8.361,8.534,7.728,8.144,7.338z M21.993,5.112v11.641c0,1.223-0.994,2.217-2.217,2.217H18.5v1.135c0,0.552-0.447,1-1,1
	s-1-0.448-1-1V18.97h-9v1.135c0,0.552-0.447,1-1,1s-1-0.448-1-1V18.97H4.224c-1.223,0-2.217-0.995-2.217-2.217v-6.364
	c0-0.552,0.447-1,1-1s1,0.448,1,1v6.364c0,0.118,0.1,0.217,0.217,0.217h10.328V4.895H4.224c-0.117,0-0.217,0.1-0.217,0.217v1.862
	c0,0.552-0.447,1-1,1s-1-0.448-1-1V5.112c0-1.223,0.994-2.217,2.217-2.217h15.553C20.999,2.895,21.993,3.889,21.993,5.112z
	 M16.552,4.895v2.446h3.441V5.112c0-0.118-0.1-0.217-0.217-0.217H16.552z M19.993,16.753V9.341h-3.441v7.629h3.225
	C19.894,16.97,19.993,16.871,19.993,16.753z"/>
</svg>
