<?xml version="1.0" encoding="utf-8"?>
<!-- Generator: Adobe Illustrator 16.0.0, SVG Export Plug-In . SVG Version: 6.00 Build 0)  -->
<!DOCTYPE svg PUBLIC "-//W3C//DTD SVG 1.1//EN" "http://www.w3.org/Graphics/SVG/1.1/DTD/svg11.dtd">
<svg version="1.1" id="Icons" xmlns="http://www.w3.org/2000/svg" xmlns:xlink="http://www.w3.org/1999/xlink" x="0px" y="0px"
	 width="24px" height="24px" viewBox="0 0 24 24" enable-background="new 0 0 24 24" xml:space="preserve">
<path id="Minus" d="M20.999,15.002H3.001c-0.553,0-1-0.448-1-1V9.998c0-0.552,0.447-1,1-1h12.87c0.553,0,1,0.448,1,1s-0.447,1-1,1
	H4.001v2.004h15.998v-2.004h-0.716c-0.553,0-1-0.448-1-1s0.447-1,1-1h1.716c0.553,0,1,0.448,1,1v4.004
	C21.999,14.554,21.552,15.002,20.999,15.002z"/>
</svg>
