<?xml version="1.0" encoding="utf-8"?>
<!-- Generator: Adobe Illustrator 16.0.0, SVG Export Plug-In . SVG Version: 6.00 Build 0)  -->
<!DOCTYPE svg PUBLIC "-//W3C//DTD SVG 1.0//EN" "http://www.w3.org/TR/2001/REC-SVG-20010904/DTD/svg10.dtd">
<svg version="1.0" id="Layer_1" xmlns="http://www.w3.org/2000/svg" xmlns:xlink="http://www.w3.org/1999/xlink" x="0px" y="0px"
	 width="100px" height="100px" viewBox="0 0 100 100" enable-background="new 0 0 100 100" xml:space="preserve">
<path d="M90,36.667H76.667C76.667,21.94,64.727,10,50,10S23.333,21.94,23.333,36.667H10c0,20.963,16.14,38.135,36.667,39.831v6.836
	H23.333V90h53.334v-6.667H53.333v-6.836C73.86,74.802,90,57.63,90,36.667z M50,16.667c11.045,0,20,8.955,20,20
	c0,11.045-8.955,20-20,20s-20-8.955-20-20C30,25.622,38.955,16.667,50,16.667z M17.337,43.333h6.869
	c2.969,11.494,13.372,20,25.794,20s22.829-8.506,25.791-20h6.872C79.573,58.548,66.126,70,50,70S20.423,58.548,17.337,43.333z"/>
<path d="M50,30v-6.667c-7.363,0-13.333,5.97-13.333,13.333h6.666C43.333,32.985,46.318,30,50,30z"/>
</svg>
