<?xml version="1.0" encoding="utf-8"?>
<!-- Generator: Adobe Illustrator 16.0.0, SVG Export Plug-In . SVG Version: 6.00 Build 0)  -->
<!DOCTYPE svg PUBLIC "-//W3C//DTD SVG 1.0//EN" "http://www.w3.org/TR/2001/REC-SVG-20010904/DTD/svg10.dtd">
<svg version="1.0" id="Layer_1" xmlns="http://www.w3.org/2000/svg" xmlns:xlink="http://www.w3.org/1999/xlink" x="0px" y="0px"
	 width="100px" height="100px" viewBox="0 0 100 100" enable-background="new 0 0 100 100" xml:space="preserve">
<path d="M70,10H30c-3.665,0-6.667,3.001-6.667,6.667v56.667C23.333,76.999,26.335,80,30,80h3.333L30,90h7.028l3.333-10h19.277
	l3.333,10H70l-3.333-10H70c3.665,0,6.667-3.001,6.667-6.667V16.667C76.667,13.001,73.665,10,70,10z M30,73.333V48.047L46.667,31.38
	l-4.714-4.714L30,38.613V16.667h40v11.96L40,58.62l4.72,4.713L70,38.053v35.28H30z"/>
</svg>
