<?xml version="1.0" encoding="utf-8"?>
<!-- Generator: Adobe Illustrator 16.0.0, SVG Export Plug-In . SVG Version: 6.00 Build 0)  -->
<!DOCTYPE svg PUBLIC "-//W3C//DTD SVG 1.0//EN" "http://www.w3.org/TR/2001/REC-SVG-20010904/DTD/svg10.dtd">
<svg version="1.0" id="Layer_1" xmlns="http://www.w3.org/2000/svg" xmlns:xlink="http://www.w3.org/1999/xlink" x="0px" y="0px"
	 width="100px" height="100px" viewBox="0 0 100 100" enable-background="new 0 0 100 100" xml:space="preserve">
<path d="M10,10v26.667h9.999L20,90h60V36.667h10V10H10z M46.667,36.667v6.667H26.665v-6.667H46.667z M40,56.667V50h20v6.667H40z
	 M26.665,50h6.668v6.667h-6.668V50z M26.665,76.667h6.668v6.666h-6.668V76.667z M40,76.667h20v6.666H40V76.667z M26.665,70v-6.667
	h20.001V70H26.665z M73.333,83.333h-6.666v-6.666h6.666V83.333z M73.333,70h-20v-6.667h20V70z M73.333,56.667h-6.666V50h6.666
	V56.667z M73.333,43.333h-20v-6.667h20V43.333z M83.333,30H16.667V16.667h66.667V30z"/>
</svg>
