<?xml version="1.0" encoding="utf-8"?>
<!-- Generator: Adobe Illustrator 25.4.1, SVG Export Plug-In . SVG Version: 6.00 Build 0)  -->
<svg version="1.1" id="Icons" xmlns="http://www.w3.org/2000/svg" xmlns:xlink="http://www.w3.org/1999/xlink" x="0px" y="0px"
	 viewBox="0 0 24 24" style="enable-background:new 0 0 24 24;" xml:space="preserve">
<g id="Mobile-code">
	<path d="M11.116,10.438c-0.368-0.413-0.999-0.451-1.412-0.083l-2.23,1.982c-0.213,0.19-0.335,0.462-0.335,0.748
		s0.122,0.558,0.335,0.747l2.229,1.982c0.19,0.169,0.428,0.253,0.664,0.253c0.276,0,0.55-0.113,0.748-0.335
		c0.367-0.413,0.33-1.045-0.083-1.412l-1.389-1.235l1.39-1.234C11.445,11.482,11.482,10.851,11.116,10.438z"/>
	<path d="M12.885,15.73c0.197,0.222,0.472,0.335,0.747,0.335c0.236,0,0.474-0.083,0.665-0.253l2.229-1.983
		c0.213-0.189,0.335-0.461,0.335-0.747s-0.122-0.558-0.336-0.748l-2.229-1.982c-0.412-0.367-1.045-0.331-1.412,0.083
		c-0.367,0.413-0.33,1.045,0.083,1.412l1.389,1.234l-1.389,1.236C12.555,14.685,12.518,15.317,12.885,15.73z"/>
	<path d="M16.385,2H7.616C5.875,2,4.459,3.416,4.459,5.156v3.455c0,0.552,0.448,1,1,1s1-0.448,1-1V5.156
		c0-0.596,0.46-1.071,1.04-1.133l0.993,2.278C8.65,6.667,9.01,6.902,9.408,6.902h5.291c0.411,0,0.779-0.251,0.931-0.633l0.884-2.243
		c0.574,0.067,1.027,0.538,1.027,1.13v13.688c0,0.638-0.519,1.156-1.156,1.156H7.616c-0.638,0-1.157-0.519-1.157-1.156v-6.823
		c0-0.552-0.448-1-1-1s-1,0.448-1,1v6.823c0,1.74,1.416,3.156,3.157,3.156h8.769c1.74,0,3.156-1.416,3.156-3.156V5.156
		C19.541,3.416,18.125,2,16.385,2z M10.063,4.902L9.67,4h4.704l-0.355,0.902H10.063z"/>
</g>
</svg>
