<?xml version="1.0" encoding="utf-8"?>
<!-- Generator: Adobe Illustrator 25.4.1, SVG Export Plug-In . SVG Version: 6.00 Build 0)  -->
<svg version="1.1" id="Icons" xmlns="http://www.w3.org/2000/svg" xmlns:xlink="http://www.w3.org/1999/xlink" x="0px" y="0px"
	 viewBox="0 0 24 24" style="enable-background:new 0 0 24 24;" xml:space="preserve">
<g id="Money">
	<path d="M15.596,12c0-1.983-1.613-3.596-3.596-3.596S8.404,10.017,8.404,12s1.613,3.596,3.596,3.596S15.596,13.983,15.596,12z
		 M10.404,12c0-0.88,0.716-1.596,1.596-1.596S13.596,11.12,13.596,12S12.88,13.596,12,13.596S10.404,12.88,10.404,12z"/>
	<path d="M19.267,4.138H4.733C3.227,4.138,2,5.364,2,6.871v10.258c0,1.507,1.227,2.733,2.733,2.733h4.312c0.553,0,1-0.448,1-1
		s-0.447-1-1-1H7.851c0.075-1.021-0.276-2.057-1.031-2.812C6.061,14.293,5.023,13.942,4,14.019V9.98
		c1.023,0.077,2.062-0.273,2.82-1.031c0.755-0.756,1.106-1.791,1.031-2.812h8.299c-0.074,1.02,0.276,2.056,1.031,2.811
		c0.757,0.758,1.796,1.109,2.819,1.032v4.038c-1.023-0.077-2.062,0.274-2.819,1.032c-0.755,0.756-1.106,1.791-1.031,2.812h-3.694
		c-0.553,0-1,0.448-1,1s0.447,1,1,1h6.812c1.507,0,2.733-1.226,2.733-2.733V6.871C22,5.364,20.773,4.138,19.267,4.138z
		 M5.405,16.464c0.373,0.373,0.526,0.899,0.441,1.398H4.733C4.329,17.862,4,17.533,4,17.129v-1.106
		C4.502,15.936,5.031,16.09,5.405,16.464z M5.405,7.535C5.031,7.91,4.502,8.064,4,7.976V6.871c0-0.404,0.329-0.733,0.733-0.733
		h1.113C5.931,6.637,5.778,7.162,5.405,7.535z M18.595,7.534c-0.372-0.372-0.525-0.898-0.441-1.397h1.113
		C19.671,6.138,20,6.467,20,6.871v1.104C19.498,8.062,18.969,7.909,18.595,7.534z M19.267,17.862h-1.113
		c-0.085-0.499,0.068-1.025,0.441-1.397c0.374-0.374,0.903-0.528,1.405-0.441v1.105C20,17.533,19.671,17.862,19.267,17.862z"/>
</g>
</svg>
