<?xml version="1.0" encoding="utf-8"?>
<!-- Generator: Adobe Illustrator 26.3.1, SVG Export Plug-In . SVG Version: 6.00 Build 0)  -->
<svg version="1.1" id="Icons" xmlns="http://www.w3.org/2000/svg" xmlns:xlink="http://www.w3.org/1999/xlink" x="0px" y="0px"
	 viewBox="0 0 24 24" style="enable-background:new 0 0 24 24;" xml:space="preserve">
<g id="Mosque">
	<path d="M21,11.947h-0.47c0.303-1.387-0.055-2.573-1.077-3.595c-0.921-0.949-1.905-1.637-2.858-2.302
		c-1.38-0.964-2.683-1.874-3.756-3.54c-0.369-0.571-1.312-0.571-1.682,0c-1.09,1.692-2.4,2.61-3.788,3.582
		c-0.93,0.651-1.892,1.325-2.814,2.248c-1.031,1.03-1.382,2.22-1.08,3.606H3c-0.553,0-1,0.448-1,1v2.292c0,0.552,0.447,1,1,1
		s1-0.448,1-1v-1.292h16v6h-3.984V19.69c0-2.267-1.801-4.112-4.015-4.112s-4.015,1.845-4.015,4.112v0.257H4v-1.292
		c0-0.552-0.447-1-1-1s-1,0.448-1,1v2.292c0,0.552,0.447,1,1,1h5.986c0.553,0,1-0.448,1-1V19.69c0-1.165,0.903-2.112,2.015-2.112
		s2.015,0.947,2.015,2.112v1.257c0,0.552,0.447,1,1,1H21c0.553,0,1-0.448,1-1v-8C22,12.395,21.553,11.947,21,11.947z M5.969,9.756
		c0.8-0.8,1.649-1.395,2.548-2.024c1.176-0.824,2.384-1.67,3.482-2.992c1.086,1.299,2.284,2.135,3.451,2.95
		c0.915,0.639,1.78,1.243,2.578,2.066c0.453,0.454,0.847,1.001,0.426,2.191H5.545C5.166,10.878,5.423,10.3,5.969,9.756z"/>
</g>
</svg>
