<?xml version="1.0" encoding="utf-8"?>
<!-- Generator: Adobe Illustrator 26.3.1, SVG Export Plug-In . SVG Version: 6.00 Build 0)  -->
<svg version="1.1" id="Icons" xmlns="http://www.w3.org/2000/svg" xmlns:xlink="http://www.w3.org/1999/xlink" x="0px" y="0px"
	 viewBox="0 0 24 24" style="enable-background:new 0 0 24 24;" xml:space="preserve">
<g id="Museum">
	<path d="M21,11c0.553,0,1-0.448,1-1V7.73c0-0.372-0.206-0.712-0.535-0.885l-9-4.73c-0.291-0.153-0.64-0.153-0.931,0l-2.89,1.519
		c-0.489,0.257-0.677,0.862-0.42,1.351c0.257,0.488,0.861,0.678,1.351,0.42L12,4.13l8,4.204V9H4V8.334l2.552-1.341
		c0.489-0.257,0.677-0.862,0.42-1.351C6.714,5.154,6.11,4.965,5.621,5.223L2.535,6.845C2.206,7.018,2,7.358,2,7.73V10
		c0,0.552,0.448,1,1,1h0.993v6H3c-0.552,0-1,0.448-1,1v3c0,0.552,0.448,1,1,1h18c0.553,0,1-0.448,1-1v-3c0-0.552-0.447-1-1-1h-0.993
		v-6H21z M13,17v-6h1.503v6H13z M9.497,17v-6H11v6H9.497z M5.993,11h1.503v6H5.993V11z M20,20H4v-1h16V20z M18.007,17h-1.504v-6
		h1.504V17z"/>
</g>
</svg>
