<?xml version="1.0" encoding="utf-8"?>
<!-- Generator: Adobe Illustrator 25.4.1, SVG Export Plug-In . SVG Version: 6.00 Build 0)  -->
<svg version="1.1" id="Icons" xmlns="http://www.w3.org/2000/svg" xmlns:xlink="http://www.w3.org/1999/xlink" x="0px" y="0px"
	 viewBox="0 0 24 24" style="enable-background:new 0 0 24 24;" xml:space="preserve">
<g id="Navigation-2">
	<path d="M16.83,7.129c-0.849-0.769-1.845-0.651-2.267-0.473L6.565,9.682c-0.774,0.294-1.305,1.019-1.352,1.852
		c-0.045,0.875,0.434,1.693,1.261,2.104l2.718,1.198l1.234,2.788c0.377,0.735,1.137,1.196,1.96,1.196c0,0,1.408,0.088,1.955-1.357
		L17.394,9.4C17.394,9.4,17.851,8.054,16.83,7.129z M12.47,16.757c-0.138,0.215-0.238,0.006-0.238,0.006l-1.091-2.468l1.046-1.066
		c0.387-0.394,0.381-1.027-0.014-1.414c-0.394-0.387-1.026-0.381-1.414,0.013l-1.036,1.056l-2.398-1.056
		c-0.243-0.107-0.049-0.276-0.049-0.276l7.974-3.027c0,0,0.258-0.073,0.256,0.241L12.47,16.757z"/>
	<path d="M12,2C9.984,2,8.04,2.599,6.376,3.733C5.92,4.044,5.802,4.666,6.113,5.122c0.31,0.456,0.931,0.575,1.39,0.263
		C8.833,4.479,10.388,4,12,4c4.411,0,8,3.589,8,8s-3.589,8-8,8s-8-3.589-8-8c0-1.598,0.47-3.14,1.359-4.461
		c0.309-0.458,0.188-1.08-0.271-1.388c-0.456-0.308-1.08-0.188-1.388,0.271C2.588,8.074,2,10.003,2,12c0,5.514,4.486,10,10,10
		s10-4.486,10-10S17.514,2,12,2z"/>
</g>
</svg>
