<?xml version="1.0" encoding="utf-8"?>
<!-- Generator: Adobe Illustrator 25.4.1, SVG Export Plug-In . SVG Version: 6.00 Build 0)  -->
<svg version="1.1" id="Icons" xmlns="http://www.w3.org/2000/svg" xmlns:xlink="http://www.w3.org/1999/xlink" x="0px" y="0px"
	 viewBox="0 0 24 24" style="enable-background:new 0 0 24 24;" xml:space="preserve">
<g id="Navigation-1">
	<g>
		<path d="M11.915,18.068l-1.731-4.018l-4.018-1.732c-0.378-0.164-0.618-0.542-0.604-0.954c0.015-0.412,0.28-0.773,0.669-0.909
			l9.645-3.373c0.363-0.125,0.766-0.035,1.037,0.237c0.271,0.271,0.364,0.675,0.237,1.037l-3.373,9.645
			c-0.136,0.389-0.496,0.665-0.909,0.669C12.138,18.68,11.915,18.068,11.915,18.068z M9.312,11.497l2.027,0.874
			c0.234,0.101,0.421,0.288,0.522,0.522l0.874,2.027l1.841-5.264L9.312,11.497z"/>
	</g>
	<g>
		<path d="M12,22C6.486,22,2,17.514,2,12c0-1.997,0.588-3.926,1.701-5.578c0.309-0.458,0.93-0.579,1.388-0.271
			c0.458,0.309,0.58,0.93,0.271,1.388C4.47,8.86,4,10.402,4,12c0,4.411,3.589,8,8,8s8-3.589,8-8s-3.589-8-8-8
			c-1.612,0-3.167,0.479-4.498,1.385C7.047,5.697,6.424,5.579,6.113,5.122C5.802,4.666,5.92,4.044,6.376,3.733
			C8.04,2.599,9.984,2,12,2c5.514,0,10,4.486,10,10S17.514,22,12,22z"/>
	</g>
</g>
</svg>
