<svg fill="#000000" xmlns="http://www.w3.org/2000/svg"  viewBox="0 0 16 16" width="16px" height="16px"><path d="M 4.4921875 2 A 0.50005 0.50005 0 0 0 4.1464844 2.1464844 L 1.1464844 5.1464844 A 0.50005 0.50005 0 0 0 1 5.5 L 1 13.5 A 0.50005 0.50005 0 0 0 1.5 14 L 13.5 14 A 0.50005 0.50005 0 0 0 14 13.5 L 14 5.5 A 0.50005 0.50005 0 0 0 13.853516 5.1464844 L 10.853516 2.1464844 A 0.50005 0.50005 0 0 0 10.146484 2.1464844 L 7.5 4.7929688 L 4.8535156 2.1464844 A 0.50005 0.50005 0 0 0 4.4921875 2 z M 4.5 3.2070312 L 7.1464844 5.8535156 A 0.50005 0.50005 0 0 0 7.8535156 5.8535156 L 10.5 3.2070312 L 13 5.7070312 L 13 13 L 2 13 L 2 5.7070312 L 4.5 3.2070312 z M 5.5 6 C 4.6774952 6 4 6.6774952 4 7.5 C 4 8.3225048 4.6774952 9 5.5 9 C 6.3225048 9 7 8.3225048 7 7.5 C 7 6.6774952 6.3225048 6 5.5 6 z M 5.5 9 L 4.5 9 C 3.6774686 9 3 9.6774686 3 10.5 L 3 12 L 4 12 L 4 10.5 C 4 10.218531 4.2185314 10 4.5 10 L 6.5 10 C 6.7814686 10 7 10.218531 7 10.5 L 7 12 L 8 12 L 8 10.5 C 8 10.218531 8.2185314 10 8.5 10 L 10.5 10 C 10.781469 10 11 10.218531 11 10.5 L 11 12 L 12 12 L 12 10.5 C 12 9.6774686 11.322531 9 10.5 9 L 9.5 9 L 8.5 9 C 8.1159078 9 7.7666173 9.1513388 7.5 9.3925781 C 7.2333827 9.1513388 6.8840922 9 6.5 9 L 5.5 9 z M 9.5 9 C 10.322505 9 11 8.3225048 11 7.5 C 11 6.6774952 10.322505 6 9.5 6 C 8.6774952 6 8 6.6774952 8 7.5 C 8 8.3225048 8.6774952 9 9.5 9 z M 5.5 7 C 5.7820647 7 6 7.2179353 6 7.5 C 6 7.7820647 5.7820647 8 5.5 8 C 5.2179353 8 5 7.7820647 5 7.5 C 5 7.2179353 5.2179353 7 5.5 7 z M 9.5 7 C 9.7820647 7 10 7.2179353 10 7.5 C 10 7.7820647 9.7820647 8 9.5 8 C 9.2179353 8 9 7.7820647 9 7.5 C 9 7.2179353 9.2179353 7 9.5 7 z"/></svg>