<?xml version="1.0" encoding="utf-8"?>
<!-- Generator: Adobe Illustrator 26.3.1, SVG Export Plug-In . SVG Version: 6.00 Build 0)  -->
<svg version="1.1" id="Icons" xmlns="http://www.w3.org/2000/svg" xmlns:xlink="http://www.w3.org/1999/xlink" x="0px" y="0px"
	 viewBox="0 0 24 24" style="enable-background:new 0 0 24 24;" xml:space="preserve">
<g id="No-Alcohol">
	<path d="M21.707,20.293L17.5,16.086v-4.752c0-1.804-0.962-3.435-2.5-4.322V3c0-0.552-0.448-1-1-1c0,0-4,0-4,0
		c-1.315,0.022-1.313,1.978,0,2h3v3.632c0,0.406,0.246,0.772,0.622,0.926c1.141,0.466,1.878,1.556,1.878,2.775v2.752l-5.393-5.393
		c0.089-0.047,0.177-0.096,0.271-0.135C10.755,8.404,11.001,8.037,11,7.63c0,0-0.003-1.217-0.003-1.217
		c-0.026-1.315-1.981-1.309-2,0.005l0.001,0.595c-0.12,0.069-0.23,0.151-0.343,0.229L3.707,2.293c-0.391-0.391-1.023-0.391-1.414,0
		s-0.391,1.023,0,1.414L7.27,8.684C6.781,9.462,6.5,10.371,6.5,11.333V21c0,0.552,0.448,1,1,1h9c0.552,0,1-0.448,1-1v-2.086
		l2.793,2.793C20.488,21.902,20.744,22,21,22s0.512-0.098,0.707-0.293C22.098,21.316,22.098,20.684,21.707,20.293z M8.5,14h2.847v2
		H8.5V14z M10.586,12H8.5v-0.667c0-0.413,0.091-0.808,0.247-1.173L10.586,12z M15.5,20h-7v-2h3.847c0.552,0,1-0.448,1-1v-2.239
		l2.153,2.153V20z"/>
</g>
</svg>
