<?xml version="1.0" encoding="utf-8"?>
<!-- Generator: Adobe Illustrator 26.3.1, SVG Export Plug-In . SVG Version: 6.00 Build 0)  -->
<svg version="1.1" id="Icons" xmlns="http://www.w3.org/2000/svg" xmlns:xlink="http://www.w3.org/1999/xlink" x="0px" y="0px"
	 viewBox="0 0 24 24" style="enable-background:new 0 0 24 24;" xml:space="preserve">
<g id="No-Camera">
	<path d="M21.707,20.293l-1.629-1.629c0.778-0.677,1.281-1.662,1.281-2.772l-0.008-6.715c0-2.028-1.656-3.678-3.691-3.678h-0.764
		l-0.932-1.985C15.8,3.164,15.447,2.939,15.06,2.939H9.5c-0.388,0-0.741,0.224-0.905,0.576L7.664,5.5h-0.75L3.707,2.293
		c-0.391-0.391-1.023-0.391-1.414,0s-0.391,1.023,0,1.414l2.475,2.475C3.823,6.851,3.2,7.948,3.2,9.191v0.868c0,0.552,0.447,1,1,1
		s1-0.448,1-1V9.191c0-0.696,0.422-1.294,1.024-1.553l2.549,2.549c-0.441,0.665-0.701,1.46-0.701,2.316
		c0,2.32,1.888,4.208,4.208,4.208c0.856,0,1.651-0.26,2.316-0.701l1.575,1.575H6.892c-0.933,0-1.691-0.759-1.691-1.692v-2.418
		c0-0.552-0.447-1-1-1s-1,0.448-1,1v2.418c0,2.036,1.656,3.692,3.691,3.692H17.66c0.159,0,0.31-0.027,0.464-0.047l2.169,2.169
		C20.488,21.902,20.744,22,21,22s0.512-0.098,0.707-0.293C22.098,21.316,22.098,20.684,21.707,20.293z M9.205,6.924l0.931-1.984
		h4.288l0.932,1.985C15.521,7.275,15.873,7.5,16.261,7.5h1.399c0.933,0,1.691,0.752,1.691,1.679l0.008,6.715
		c0,0.558-0.276,1.049-0.695,1.357l-2.72-2.72c0.335-0.604,0.543-1.288,0.543-2.027c0-2.32-1.888-4.208-4.207-4.208
		c-0.739,0-1.423,0.208-2.027,0.544L8.782,7.368C8.963,7.268,9.114,7.118,9.205,6.924z M11.774,10.36
		c0.163-0.039,0.332-0.064,0.507-0.064c1.217,0,2.207,0.991,2.207,2.208c0,0.175-0.025,0.343-0.064,0.506L11.774,10.36z
		 M12.28,14.711c-1.218,0-2.208-0.991-2.208-2.208c0-0.3,0.061-0.586,0.17-0.847l2.885,2.885
		C12.866,14.65,12.58,14.711,12.28,14.711z"/>
	<path d="M17.201,10.251h0.4c0.553,0,1-0.448,1-1s-0.447-1-1-1h-0.4c-0.553,0-1,0.448-1,1S16.648,10.251,17.201,10.251z"/>
</g>
</svg>
