<?xml version="1.0" encoding="utf-8"?>
<!-- Generator: Adobe Illustrator 26.3.1, SVG Export Plug-In . SVG Version: 6.00 Build 0)  -->
<svg version="1.1" id="Icons" xmlns="http://www.w3.org/2000/svg" xmlns:xlink="http://www.w3.org/1999/xlink" x="0px" y="0px"
	 viewBox="0 0 24 24" style="enable-background:new 0 0 24 24;" xml:space="preserve">
<g id="No-Drugs">
	<path d="M21.707,20.293l-5.818-5.818l3.336-3.337l0.714,0.714c0.195,0.195,0.451,0.293,0.707,0.293s0.512-0.098,0.707-0.293
		c0.391-0.391,0.391-1.023,0-1.414l-1.773-1.773l0.707-0.707c0.195,0.195,0.451,0.293,0.707,0.293s0.512-0.098,0.707-0.293
		c0.391-0.391,0.391-1.023,0-1.414L17.458,2.3c-0.391-0.391-1.023-0.391-1.414,0c-0.39,0.39-0.39,1.022-0.001,1.413L15.336,4.42
		l-1.772-1.772c-0.391-0.391-1.023-0.391-1.414,0s-0.391,1.023,0,1.414l0.712,0.712L9.526,8.112L3.707,2.293
		c-0.391-0.391-1.023-0.391-1.414,0s-0.391,1.023,0,1.414l10.768,10.768l-0.745,0.745l-1.082-1.083
		c-0.391-0.392-1.024-0.391-1.414-0.001c-0.391,0.391-0.391,1.023-0.001,1.414l1.083,1.084l-0.863,0.864l-3.535-3.536l1.311-1.31
		c0.391-0.391,0.391-1.024,0-1.415c-0.391-0.391-1.024-0.39-1.415,0l-2.018,2.017c-0.188,0.188-0.293,0.442-0.293,0.707
		c0,0.266,0.105,0.52,0.293,0.708l0.346,0.346l-1.42,1.42c-0.188,0.188-0.293,0.442-0.293,0.707s0.105,0.52,0.293,0.707l0.715,0.715
		L2.3,20.286c-0.391,0.391-0.391,1.023,0,1.414c0.195,0.195,0.451,0.293,0.707,0.293s0.512-0.098,0.707-0.293l1.724-1.724
		l0.699,0.699c0.195,0.195,0.451,0.293,0.707,0.293c0.255,0,0.509-0.097,0.705-0.291l1.426-1.416l0.357,0.357
		c0.188,0.188,0.442,0.293,0.707,0.293s0.52-0.105,0.707-0.293l3.73-3.73l5.818,5.818C20.488,21.902,20.744,22,21,22
		s0.512-0.098,0.707-0.293C22.098,21.316,22.098,20.684,21.707,20.293z M6.846,18.557l-1.417-1.417l0.712-0.712l1.419,1.42
		L6.846,18.557z M17.457,5.127l1.415,1.415L18.165,7.25L16.75,5.834L17.457,5.127z M17.811,9.723l-1.059,1.059l-3.535-3.535
		l1.058-1.059L17.811,9.723z M10.94,9.526l0.864-0.864l3.535,3.535l-0.864,0.864L10.94,9.526z"/>
</g>
</svg>
