<?xml version="1.0" encoding="utf-8"?>
<!-- Generator: Adobe Illustrator 26.3.1, SVG Export Plug-In . SVG Version: 6.00 Build 0)  -->
<svg version="1.1" id="Icons" xmlns="http://www.w3.org/2000/svg" xmlns:xlink="http://www.w3.org/1999/xlink" x="0px" y="0px"
	 viewBox="0 0 24 24" style="enable-background:new 0 0 24 24;" xml:space="preserve">
<g id="No-Pets">
	<path d="M17.119,15.705V11.98c0.431-0.09,0.651,0.103,0.747,0.237c0.158,0.26,0.428,0.433,0.729,0.47
		c0.302,0.039,0.604-0.065,0.823-0.278l2.281-2.234C21.89,9.99,21.997,9.736,22,9.471s-0.1-0.521-0.285-0.71l-2.757-2.814V4.581
		c0-0.552-0.447-1-1-1h-2.361c-1.523,0-3.789,1.043-3.789,3.916v1.601L10.514,9.1L3.707,2.293c-0.391-0.391-1.023-0.391-1.414,0
		s-0.391,1.023,0,1.414l5.4,5.4c-0.435,0-1.893,0-1.901,0c-1.485,0-1.766-0.901-1.808-1.091C3.881,7.483,3.365,7.123,2.83,7.22
		C2.286,7.315,1.922,7.833,2.017,8.378c0.123,0.702,0.709,1.857,2.05,2.412c-0.279,0.486-0.451,1.041-0.451,1.64v1.37
		c0,0.552,0.447,1,1,1s1-0.448,1-1v-1.37c0-0.728,0.593-1.32,1.323-1.32l2.75-0.008l5.431,5.431v1.886H13.37v-1.025
		c0-1.668-1.357-3.025-3.025-3.025s-3.025,1.357-3.025,3.025v1.025H5.615v-1.205c0-0.552-0.447-1-1-1s-1,0.448-1,1v2.205
		c0,0.552,0.447,1,1,1h3.704c0.553,0,1-0.448,1-1v-2.025c0-0.565,0.46-1.025,1.025-1.025s1.025,0.46,1.025,1.025v2.025
		c0,0.552,0.447,1,1,1h3.749c0.553,0,1-0.448,1-1v-0.886l3.174,3.174C20.488,21.902,20.744,22,21,22s0.512-0.098,0.707-0.293
		c0.391-0.391,0.391-1.023,0-1.414L17.119,15.705z M15.647,10.418c-0.325,0.174-0.528,0.513-0.528,0.881v2.406l-2.61-2.61
		l0.302-0.001c0.551-0.001,0.997-0.449,0.997-1V7.496c0-1.746,1.376-1.908,1.789-1.916h1.361v0.775c0,0.262,0.103,0.513,0.285,0.7
		l2.343,2.391l-0.902,0.883C17.948,9.904,16.887,9.753,15.647,10.418z"/>
</g>
</svg>
