<?xml version="1.0" encoding="utf-8"?>
<!-- Generator: Adobe Illustrator 26.3.1, SVG Export Plug-In . SVG Version: 6.00 Build 0)  -->
<svg version="1.1" id="Icons" xmlns="http://www.w3.org/2000/svg" xmlns:xlink="http://www.w3.org/1999/xlink" x="0px" y="0px"
	 viewBox="0 0 24 24" style="enable-background:new 0 0 24 24;" xml:space="preserve">
<g id="No-Smoking">
	<path d="M14.634,6.841h3.251c0.231,0,0.42,0.188,0.42,0.42c0,0.552,0.447,1,1,1s1-0.448,1-1c0-1.334-1.086-2.42-2.42-2.42h-3.251
		c-0.232,0-0.421-0.188-0.421-0.42S14.401,4,14.634,4c0.553,0,1-0.448,1-1s-0.447-1-1-1c-1.335,0-2.421,1.086-2.421,2.42
		S13.299,6.841,14.634,6.841z"/>
	<path d="M22.002,14.583V9.417c0-0.552-0.447-1-1-1H17.79c-0.553,0-1,0.448-1,1v4.166h-1.793l-3.166-3.166h2.544
		c0.553,0,1-0.448,1-1s-0.447-1-1-1H9.831L3.707,2.293c-0.391-0.391-1.023-0.391-1.414,0s-0.391,1.023,0,1.414l4.71,4.71H2.998
		c-0.552,0-1,0.448-1,1v5.166c0,0.552,0.448,1,1,1h11.171l6.124,6.124C20.488,21.902,20.744,22,21,22s0.512-0.098,0.707-0.293
		c0.391-0.391,0.391-1.023,0-1.414l-4.71-4.71h4.005C21.555,15.583,22.002,15.135,22.002,14.583z M3.998,10.417h3.351v3.166H3.998
		V10.417z M9.349,13.583v-2.82l2.82,2.82H9.349z M20.002,13.583H18.79v-3.166h1.212V13.583z"/>
</g>
</svg>
