<?xml version="1.0" encoding="utf-8"?>
<!-- Generator: Adobe Illustrator 26.3.1, SVG Export Plug-In . SVG Version: 6.00 Build 0)  -->
<svg version="1.1" id="Icons" xmlns="http://www.w3.org/2000/svg" xmlns:xlink="http://www.w3.org/1999/xlink" x="0px" y="0px"
	 viewBox="0 0 24 24" style="enable-background:new 0 0 24 24;" xml:space="preserve">
<g id="Office-Building">
	<path d="M11.484,10.425h1.032c0.552,0,1-0.448,1-1s-0.448-1-1-1h-1.032c-0.552,0-1,0.448-1,1S10.932,10.425,11.484,10.425z"/>
	<path d="M15.632,10.425h1.032c0.552,0,1-0.448,1-1s-0.448-1-1-1h-1.032c-0.552,0-1,0.448-1,1S15.08,10.425,15.632,10.425z"/>
	<path d="M7.336,10.425h1.032c0.552,0,1-0.448,1-1s-0.448-1-1-1H7.336c-0.552,0-1,0.448-1,1S6.784,10.425,7.336,10.425z"/>
	<path d="M11.484,13.536h1.032c0.552,0,1-0.448,1-1s-0.448-1-1-1h-1.032c-0.552,0-1,0.448-1,1S10.932,13.536,11.484,13.536z"/>
	<path d="M15.632,13.536h1.032c0.552,0,1-0.448,1-1s-0.448-1-1-1h-1.032c-0.552,0-1,0.448-1,1S15.08,13.536,15.632,13.536z"/>
	<path d="M7.336,13.536h1.032c0.552,0,1-0.448,1-1s-0.448-1-1-1H7.336c-0.552,0-1,0.448-1,1S6.784,13.536,7.336,13.536z"/>
	<path d="M20.319,2.293C20.131,2.105,19.877,2,19.612,2H4.391c-0.552,0-1,0.448-1,1L3.389,13.861c0,0.552,0.448,1,1,1
		c1.002-0.059,1-1,1-1L5.39,7.417h13.221L18.608,20h-2.135v-4.042c0-0.552-0.448-1-1-1H8.53c-0.552,0-1,0.448-1,1V20H5.388l0-2.724
		c0-0.552-0.448-1-1-1c0,0-0.943,0.008-1,1l0,3.724c0,0.265,0.105,0.52,0.293,0.707S4.123,22,4.388,22h15.22c0.552,0,1-0.448,1-1
		l0.004-18C20.612,2.735,20.506,2.48,20.319,2.293z M14.473,20h-1.472v-3.042h1.472V20z M9.53,16.958h1.472V20H9.53V16.958z
		 M5.391,5.417l0-1.417h13.221l0,1.417H5.391z"/>
</g>
</svg>
