<?xml version="1.0" encoding="utf-8"?>
<!-- Generator: Adobe Illustrator 25.4.1, SVG Export Plug-In . SVG Version: 6.00 Build 0)  -->
<svg version="1.1" id="Icons" xmlns="http://www.w3.org/2000/svg" xmlns:xlink="http://www.w3.org/1999/xlink" x="0px" y="0px"
	 viewBox="0 0 24 24" style="enable-background:new 0 0 24 24;" xml:space="preserve">
<g id="Open-1">
	<path d="M11.009,18.361c0.256,0,0.512-0.098,0.707-0.293l4.754-4.755c0.391-0.391,0.391-1.023,0-1.414s-1.023-0.391-1.414,0
		l-4.048,4.048L8.91,13.851c-0.39-0.39-1.023-0.391-1.414,0.001c-0.39,0.391-0.39,1.024,0.001,1.414l2.806,2.803
		C10.498,18.264,10.753,18.361,11.009,18.361z"/>
	<path d="M19.591,7.966h-1.572c-0.532-0.568-5.288-5.651-5.288-5.651C12.542,2.113,12.277,1.999,12,1.999
		c-0.275,0-0.539,0.114-0.728,0.314c0,0-4.175,4.434-5.323,5.653h-1.54c-1.327,0-2.406,1.079-2.406,2.406v1.997c0,0.552,0.448,1,1,1
		s1-0.448,1-1v-1.997c0-0.22,0.186-0.406,0.406-0.406h15.182c0.22,0,0.405,0.186,0.405,0.406v9.224c0,0.22-0.186,0.406-0.405,0.406
		H4.409c-0.22,0-0.406-0.186-0.406-0.406v-3.813c0-0.552-0.448-1-1-1s-1,0.448-1,1v3.813c0,1.327,1.079,2.406,2.406,2.406h15.182
		c1.326,0,2.405-1.079,2.405-2.406v-9.224C21.996,9.045,20.917,7.966,19.591,7.966z M11.998,4.459l3.281,3.507H8.696L11.998,4.459z"
		/>
</g>
</svg>
