<?xml version="1.0" encoding="utf-8"?>
<!-- Generator: Adobe Illustrator 25.4.1, SVG Export Plug-In . SVG Version: 6.00 Build 0)  -->
<svg version="1.1" id="Icons" xmlns="http://www.w3.org/2000/svg" xmlns:xlink="http://www.w3.org/1999/xlink" x="0px" y="0px"
	 viewBox="0 0 24 24" style="enable-background:new 0 0 24 24;" xml:space="preserve">
<g id="Open-2">
	<path d="M21,4c0.552,0,1-0.448,1-1s-0.448-1-1-1H3C2.448,2,2,2.448,2,3v18c0,0.552,0.448,1,1,1s1-0.448,1-1V4h3.083v1H5.979
		c-0.552,0-1,0.448-1,1v3.134c0,0.552,0.448,1,1,1s1-0.448,1-1V7h12.041v12.041H6.979v-6.493c0-0.552-0.448-1-1-1s-1,0.448-1,1
		v7.493c0,0.552,0.448,1,1,1h14.041c0.552,0,1-0.448,1-1V6c0-0.552-0.448-1-1-1h-0.979V4H21z M17.042,5H9.083V4h7.959V5z"/>
	<path d="M12.116,16.342c0.256,0,0.512-0.098,0.707-0.293l4.314-4.314c0.391-0.391,0.391-1.023,0-1.414s-1.023-0.391-1.414,0
		l-3.607,3.607l-1.839-1.837c-0.391-0.391-1.024-0.391-1.414,0.001c-0.39,0.391-0.39,1.024,0.001,1.414l2.546,2.543
		C11.605,16.245,11.86,16.342,12.116,16.342z"/>
</g>
</svg>
