<?xml version="1.0" encoding="utf-8"?>
<!-- Generator: Adobe Illustrator 26.5.0, SVG Export Plug-In . SVG Version: 6.00 Build 0)  -->
<svg version="1.1" id="Icons" xmlns="http://www.w3.org/2000/svg" xmlns:xlink="http://www.w3.org/1999/xlink" x="0px" y="0px"
	 viewBox="0 0 24 24" enable-background="new 0 0 24 24" xml:space="preserve">
<path id="Oven" d="M5.001,8.274L5,18.182c0,0.265,0.105,0.52,0.293,0.707S5.734,19.182,6,19.182h12c0.553,0,1-0.448,1-1l0.001-9.908
	c0-0.265-0.105-0.52-0.293-0.707s-0.441-0.293-0.707-0.293h-12C5.449,7.274,5.001,7.722,5.001,8.274z M7.001,9.274h10L17,17.182H7
	L7.001,9.274z M11.653,6.635c-0.552-0.003-0.998-0.453-0.995-1.005c0.003-0.55,0.45-0.995,1-0.995c0.001,0,0.003,0,0.005,0
	l0.457,0.002c0.552,0.003,0.998,0.453,0.995,1.005c-0.003,0.55-0.45,0.995-1,0.995c-0.001,0-0.003,0-0.005,0L11.653,6.635z
	 M8.154,6.634C7.602,6.631,7.156,6.181,7.159,5.628c0.003-0.55,0.45-0.995,1-0.995c0.001,0,0.003,0,0.005,0l0.457,0.002
	c0.552,0.003,0.998,0.453,0.995,1.005c-0.003,0.55-0.45,0.995-1,0.995c-0.001,0-0.003,0-0.005,0L8.154,6.634z M15.379,6.635
	c-0.553-0.003-0.998-0.453-0.995-1.005c0.003-0.55,0.45-0.995,1-0.995c0.002,0,0.004,0,0.005,0l0.457,0.002
	c0.553,0.003,0.998,0.453,0.995,1.005c-0.003,0.55-0.45,0.995-1,0.995c-0.002,0-0.004,0-0.005,0L15.379,6.635z M16.063,11.269
	c0,0.552-0.447,1-1,1H8.937c-0.552,0-1-0.448-1-1s0.448-1,1-1h6.127C15.616,10.269,16.063,10.717,16.063,11.269z M21.994,4.217
	l-0.001,15.565c0,1.223-0.995,2.217-2.218,2.217H4.224c-1.223,0-2.217-0.995-2.217-2.217l0-9.394c0-0.552,0.448-1,1-1s1,0.448,1,1
	l0,9.394C4.006,19.9,4.106,20,4.224,20h15.552c0.118,0,0.218-0.1,0.218-0.217l0.001-15.565C19.994,4.1,19.895,4,19.776,4H4.224
	C4.106,4,4.007,4.1,4.007,4.217v2.756c0,0.552-0.448,1-1,1s-1-0.448-1-1V4.217C2.007,2.995,3.001,2,4.224,2h15.552
	C20.999,2,21.994,2.995,21.994,4.217z"/>
</svg>
