<?xml version="1.0" encoding="utf-8"?>
<!-- Generator: Adobe Illustrator 26.3.1, SVG Export Plug-In . SVG Version: 6.00 Build 0)  -->
<svg version="1.1" id="Icons" xmlns="http://www.w3.org/2000/svg" xmlns:xlink="http://www.w3.org/1999/xlink" x="0px" y="0px"
	 viewBox="0 0 24 24" style="enable-background:new 0 0 24 24;" xml:space="preserve">
<g id="Palace">
	<path d="M13.859,11.9h-3.722c-0.552,0-1,0.448-1,1s0.448,1,1,1h3.722c0.552,0,1-0.448,1-1S14.412,11.9,13.859,11.9z"/>
	<path d="M21.704,4.022L19.955,2.29c-0.39-0.386-1.018-0.386-1.407,0l-1.749,1.732c-0.19,0.188-0.296,0.444-0.296,0.71V8.79h-0.688
		V8.202c0-0.552-0.448-1-1-1s-1,0.448-1,1V8.79H13V8.202c0-0.552-0.448-1-1-1s-1,0.448-1,1V8.79h-0.814V8.202c0-0.552-0.448-1-1-1
		s-1,0.448-1,1V8.79H7.497V4.748c0-0.267-0.106-0.522-0.296-0.71L5.452,2.305c-0.39-0.386-1.018-0.386-1.407,0L2.296,4.038
		C2.106,4.226,2,4.481,2,4.748v7.959c0,0.552,0.448,1,1,1s1-0.448,1-1V8.983h1.497V20.01L4,20.013v-3.891c0-0.552-0.448-1-1-1
		s-1,0.448-1,1v4.894c0,0.266,0.105,0.521,0.294,0.708C2.481,21.911,2.735,22.016,3,22.016c0.001,0,0.001,0,0.002,0L9.735,22
		c0.551-0.001,0.998-0.449,0.998-1v-2.664c0-0.739,0.569-1.341,1.268-1.341s1.268,0.602,1.268,1.341V21c0,0.552,0.448,1,1,1H21
		c0.552,0,1-0.448,1-1V4.732C22,4.466,21.894,4.21,21.704,4.022z M19.251,4.408L20,5.149v1.834h-1.497V5.149L19.251,4.408z M4,6.983
		V5.165l0.749-0.742l0.749,0.742v1.818H4z M15.268,20v-1.664c0-1.842-1.466-3.341-3.268-3.341s-3.268,1.499-3.268,3.341v1.666
		l-1.235,0.003V10.79h9.006V20H15.268z M18.503,20V8.983H20V20H18.503z"/>
</g>
</svg>
