<?xml version="1.0" encoding="utf-8"?>
<!-- Generator: Adobe Illustrator 26.3.1, SVG Export Plug-In . SVG Version: 6.00 Build 0)  -->
<svg version="1.1" id="Icons" xmlns="http://www.w3.org/2000/svg" xmlns:xlink="http://www.w3.org/1999/xlink" x="0px" y="0px"
	 viewBox="0 0 24 24" style="enable-background:new 0 0 24 24;" xml:space="preserve">
<g id="Parking-Meter">
	<path d="M12.031,19.031c3.328-0.081,3.382-5.07-0.061-5.13C8.619,13.978,8.615,19.018,12.031,19.031z M12.031,17.031
		c-0.727,0.064-0.836-1.142,0-1.13C12.698,15.891,12.759,17.025,12.031,17.031z"/>
	<path d="M17.054,9.945C16.79,3.182,7.108,3.282,6.94,10.13c-0.101,1.182,0.811,2.241,2.014,2.235h6.088
		C16.318,12.395,17.222,11.16,17.054,9.945z M8.941,10.352c-0.117-1.834,1.289-3.493,3.058-3.464
		c1.64-0.037,3.087,1.419,3.055,3.058l-0.012,0.418l-2.416-0.005L13,9.694c0.271-0.481,0.1-1.091-0.381-1.362
		c-0.481-0.272-1.092-0.101-1.362,0.381l-0.923,1.641L8.941,10.352z"/>
	<path d="M19.907,9.909C19.907,5.548,16.359,2,11.998,2c-1.014,0-2.007,0.194-2.954,0.576c-0.512,0.207-0.76,0.79-0.553,1.301
		C8.698,4.39,9.28,4.64,9.792,4.43C10.5,4.145,11.242,4,11.998,4c3.258,0,5.909,2.65,5.909,5.909c0,1.845-0.845,3.552-2.317,4.683
		c-0.327,0.251-0.466,0.677-0.351,1.073c0.105,0.36,0.154,0.66,0.154,0.943C15.393,18.478,13.871,20,12,20s-3.393-1.522-3.393-3.393
		c0-0.282,0.049-0.581,0.154-0.941c0.115-0.396-0.024-0.822-0.352-1.073c-1.474-1.131-2.32-2.839-2.32-4.685
		c0-1.366,0.477-2.698,1.344-3.751c0.351-0.426,0.29-1.057-0.137-1.408C6.87,4.399,6.239,4.461,5.889,4.887
		C4.729,6.297,4.09,8.081,4.09,9.909c0,2.252,0.938,4.35,2.596,5.85c-0.053,0.292-0.078,0.571-0.078,0.849
		C6.607,19.581,9.026,22,12,22s5.393-2.419,5.393-5.393c0-0.279-0.025-0.559-0.079-0.852C18.97,14.256,19.907,12.16,19.907,9.909z"
		/>
</g>
</svg>
