<?xml version="1.0" encoding="utf-8"?>
<!-- Generator: Adobe Illustrator 26.3.1, SVG Export Plug-In . SVG Version: 6.00 Build 0)  -->
<svg version="1.1" id="Icons" xmlns="http://www.w3.org/2000/svg" xmlns:xlink="http://www.w3.org/1999/xlink" x="0px" y="0px"
	 viewBox="0 0 24 24" style="enable-background:new 0 0 24 24;" xml:space="preserve">
<g id="Parking">
	<path d="M11.015,15.706v-2.014h1.35c1.764,0,3.199-1.435,3.199-3.199s-1.436-3.199-3.199-3.199h-2.35c-0.552,0-1,0.448-1,1v7.411
		c0,0.552,0.448,1,1,1S11.015,16.258,11.015,15.706z M11.015,9.294h1.35c0.661,0,1.199,0.538,1.199,1.199s-0.538,1.199-1.199,1.199
		h-1.35V9.294z"/>
	<path d="M20.759,8.994l-5.753-5.752C14.206,2.441,13.139,2,12,2c-1.138,0-2.206,0.44-3.006,1.241L7.409,4.826
		c-0.391,0.391-0.391,1.023,0,1.414s1.023,0.391,1.414,0l1.584-1.584c0.846-0.846,2.338-0.846,3.184,0l5.753,5.752
		c0.878,0.878,0.878,2.307,0,3.185l-5.753,5.752c-0.846,0.846-2.338,0.846-3.184,0l-5.752-5.752c-0.878-0.878-0.878-2.307,0-3.185
		l1.753-1.753c0.391-0.39,0.391-1.023,0-1.414s-1.023-0.391-1.414,0L3.241,8.994c-1.658,1.658-1.658,4.355,0,6.013l5.752,5.752
		C9.794,21.56,10.862,22,12,22c1.139,0,2.206-0.441,3.006-1.241l5.753-5.752C22.417,13.349,22.417,10.651,20.759,8.994z"/>
</g>
</svg>
