<?xml version="1.0" encoding="utf-8"?>
<!-- Generator: Adobe Illustrator 16.0.0, SVG Export Plug-In . SVG Version: 6.00 Build 0)  -->
<!DOCTYPE svg PUBLIC "-//W3C//DTD SVG 1.0//EN" "http://www.w3.org/TR/2001/REC-SVG-20010904/DTD/svg10.dtd">
<svg version="1.0" id="Layer_1" xmlns="http://www.w3.org/2000/svg" xmlns:xlink="http://www.w3.org/1999/xlink" x="0px" y="0px"
	 width="100px" height="100px" viewBox="0 0 100 100" enable-background="new 0 0 100 100" xml:space="preserve">
<path d="M48.366,43.25C68.35,44.228,86.433,30.487,90,10.608C69.932,7.129,50.742,18.93,44.694,37.496l-5.837,5.836
	c-1.872,1.872-3.333,4.145-4.287,6.667H20v13.333h-3.333c-3.666,0-6.667,3.002-6.667,6.667v13.333c0,3.666,3.001,6.667,6.667,6.667
	h40c3.665,0,6.666-3.001,6.666-6.667V69.999c0-3.665-3.001-6.667-6.666-6.667h-3.334V49.999H41.992
	c0.456-0.696,0.977-1.351,1.579-1.953L48.366,43.25z M81.237,16.711c-4.968,11.4-16.176,19.268-29.141,19.912
	C57.063,25.221,68.269,17.355,81.237,16.711z M56.667,69.999v13.333h-40V69.999H56.667z M46.667,56.666v6.666h-20v-6.666H46.667z"/>
</svg>
