<?xml version="1.0" encoding="utf-8"?>
<!-- Generator: Adobe Illustrator 26.3.1, SVG Export Plug-In . SVG Version: 6.00 Build 0)  -->
<svg version="1.1" id="Icons" xmlns="http://www.w3.org/2000/svg" xmlns:xlink="http://www.w3.org/1999/xlink" x="0px" y="0px"
	 viewBox="0 0 24 24" style="enable-background:new 0 0 24 24;" xml:space="preserve">
<g id="Pharmacy">
	<path d="M20.996,3.999h-3.917V3.018c0-0.552-0.448-1-1-1H7.921c-0.552,0-1,0.448-1,1v0.981H3.004c-0.552,0-1,0.448-1,1v4.035
		c0,0.552,0.448,1,1,1h0.383c0,1.03,0.001,2.737,0,2.871c-0.033,0.452,0.432,1.03,1,1.002c0.552,0,1-0.448,1-1l0-2.873h1.533v1.141
		c0,0.552,0.448,1,1,1h8.158c0.552,0,1-0.448,1-1v-1.141h1.531l-0.003,9.949H5.387l0-3.661c0-0.552-0.448-1-1-1s-1,0.448-1,1
		l0,4.661c-0.011,0.537,0.463,1.01,1,1h15.22c0.552,0,1-0.448,1-1c0,0,0.003-8.31,0.004-10.95h0.386c0.552,0,1-0.448,1-1V4.999
		C21.996,4.446,21.548,3.999,20.996,3.999z M4.004,8.033V5.999h2.917v2.035H4.004z M15.079,10.174H8.921V4.018h6.158V10.174z
		 M17.079,5.999h2.917v2.035h-2.917V5.999z"/>
	<path d="M10.388,8.096H11v0.612c0,0.552,0.448,1,1,1s1-0.448,1-1V8.096h0.612c0.552,0,1-0.448,1-1s-0.448-1-1-1H13V5.484
		c0-0.552-0.448-1-1-1s-1,0.448-1,1v0.612h-0.612c-0.552,0-1,0.448-1,1S9.835,8.096,10.388,8.096z"/>
	<path d="M14.375,19.297c1.792,0,3.251-1.458,3.251-3.251c0-1.793-1.458-3.251-3.251-3.251H9.625c-1.792,0-3.251,1.458-3.251,3.251
		c0,1.792,1.458,3.251,3.251,3.251H14.375z M15.625,16.046c0,0.69-0.561,1.251-1.251,1.251H13l-0.001-2.502h1.376
		C15.064,14.794,15.625,15.356,15.625,16.046z M8.375,16.046c0-0.69,0.561-1.251,1.251-1.251h1.373L11,17.297H9.625
		C8.936,17.297,8.375,16.736,8.375,16.046z"/>
</g>
</svg>
