<?xml version="1.0" encoding="utf-8"?>
<!-- Generator: Adobe Illustrator 16.0.0, SVG Export Plug-In . SVG Version: 6.00 Build 0)  -->
<!DOCTYPE svg PUBLIC "-//W3C//DTD SVG 1.0//EN" "http://www.w3.org/TR/2001/REC-SVG-20010904/DTD/svg10.dtd">
<svg version="1.0" id="Layer_1" xmlns="http://www.w3.org/2000/svg" xmlns:xlink="http://www.w3.org/1999/xlink" x="0px" y="0px"
	 width="100px" height="100px" viewBox="0 0 100 100" enable-background="new 0 0 100 100" xml:space="preserve">
<path d="M63.142,59.902l-9.704,9.707c-9.382-5.769-17.278-13.665-23.044-23.043l9.704-9.707C35.788,28.864,33.333,19.72,33.333,10
	H10c0,44.17,35.801,80,80,80V66.667C80.28,66.667,71.136,64.212,63.142,59.902z M16.999,16.667h10.022
	c0.706,6.631,2.438,12.953,5.022,18.822l-7.52,7.52C20.459,34.967,17.852,26.068,16.999,16.667z M83.333,83.001
	c-9.404-0.853-18.301-3.46-26.341-7.522l7.522-7.522c5.866,2.584,12.188,4.319,18.818,5.022V83.001z"/>
</svg>
