<svg fill="#000000" xmlns="http://www.w3.org/2000/svg"  viewBox="0 0 16 16" width="16px" height="16px"><path d="M 1 4 L 1 5 L 2.9511719 5 L 2.5214844 9 L 0 9 L 0 10 L 2.4140625 10 L 2.0917969 12.998047 L 2.0996094 13 L 3.125 13 L 3.4316406 10 L 12.568359 10 L 12.875 13 L 13.900391 13 L 13.908203 12.998047 L 13.585938 10 L 16 10 L 16 9 L 13.478516 9 L 13.048828 5 L 15 5 L 15 4 L 1 4 z M 3.9433594 5 L 12.056641 5 L 12.158203 6 L 3.8417969 6 L 3.9433594 5 z M 3.7402344 7 L 12.259766 7 L 12.464844 9 L 3.5351562 9 L 3.7402344 7 z"/></svg>