<?xml version="1.0" encoding="utf-8"?>
<!-- Generator: Adobe Illustrator 25.4.1, SVG Export Plug-In . SVG Version: 6.00 Build 0)  -->
<svg version="1.1" id="Icons" xmlns="http://www.w3.org/2000/svg" xmlns:xlink="http://www.w3.org/1999/xlink" x="0px" y="0px"
	 viewBox="0 0 24 24" style="enable-background:new 0 0 24 24;" xml:space="preserve">
<g id="Pie">
	<path d="M13,9.921v-1.23c0-0.552-0.447-1-1-1s-1,0.448-1,1v1.23c0,0.552,0.447,1,1,1S13,10.474,13,9.921z"/>
	<path d="M15.269,10.913c0.61,0.005,1.094-0.561,0.987-1.164c0,0-0.201-1.213-0.201-1.213c-0.09-0.544-0.606-0.916-1.149-0.823
		c-0.545,0.09-0.914,0.605-0.823,1.15l0.201,1.213C14.364,10.566,14.788,10.913,15.269,10.913z"/>
	<path d="M8.731,10.913c0.48,0,0.904-0.347,0.985-0.836l0.201-1.213c0.091-0.545-0.278-1.06-0.823-1.15
		c-0.544-0.095-1.06,0.279-1.149,0.823L7.744,9.75C7.638,10.352,8.121,10.918,8.731,10.913z"/>
	<path d="M21.997,12.977c0.045-0.982-0.4-1.913-1.187-2.54c-0.378-3.691-4.199-6.609-8.812-6.609c-1.424,0-2.786,0.269-4.05,0.798
		C7.44,4.839,7.2,5.425,7.414,5.935c0.213,0.51,0.801,0.749,1.309,0.536c1.003-0.42,2.136-0.643,3.276-0.643
		c3.744,0,6.813,2.32,6.842,5.171c0.004,0.361,0.202,0.692,0.519,0.866c0.323,0.178,0.661,0.54,0.64,1.021
		c-0.049,1.08-0.722,1.258-1.199,1.258c-0.477-0.005-0.658-0.131-1.071-0.51c-0.477-0.437-1.129-1.035-2.36-1.035
		s-1.883,0.598-2.359,1.035c-0.395,0.362-0.572,0.509-1.008,0.509s-0.613-0.147-1.008-0.509c-0.477-0.437-1.128-1.035-2.359-1.035
		c-1.23,0-1.882,0.602-2.358,1.041c-0.379,0.35-0.543,0.516-0.999,0.504c-1.107-0.012-1.273-0.757-1.275-1.257
		c-0.021-0.48,0.315-0.842,0.639-1.02C4.956,11.692,5.153,11.361,5.157,11c0.01-1.007,0.404-1.985,1.141-2.828
		C6.66,7.755,6.617,7.124,6.201,6.761C5.787,6.398,5.155,6.439,4.79,6.856c-0.925,1.061-1.474,2.29-1.604,3.583
		c-0.784,0.625-1.229,1.546-1.185,2.468c-0.003,0.138-0.007,1.379,0.89,2.308c0.115,0.118,0.265,0.241,0.437,0.36l1.935,4.03
		c0.166,0.347,0.517,0.567,0.901,0.567h11.67c0.385,0,0.735-0.221,0.901-0.567l1.93-4.02c0.105-0.072,0.209-0.152,0.31-0.243
		C21.41,14.952,21.94,14.225,21.997,12.977z M17.206,18.172H6.794l-1.007-2.098c0.892-0.15,1.442-0.594,1.844-0.965
		c0.395-0.363,0.571-0.511,1.003-0.511c0.436,0,0.613,0.147,1.008,0.509c0.477,0.437,1.128,1.035,2.359,1.035
		s1.884-0.598,2.359-1.035c0.395-0.362,0.572-0.509,1.008-0.509s0.613,0.147,1.009,0.509c0.406,0.372,0.961,0.839,1.833,0.974
		L17.206,18.172z"/>
</g>
</svg>
