<svg fill="#000000" xmlns="http://www.w3.org/2000/svg"  viewBox="0 0 16 16" width="16px" height="16px"><path d="M 2.2011719 1.9980469 C 1.8919629 1.9790252 1.5656501 2.024985 1.2929688 2.2910156 C 1.1139773 2.4657597 1.0485205 2.7041105 1.0390625 2.890625 C 1.0295784 3.0776549 1.0592839 3.2380036 1.09375 3.3945312 C 1.1626822 3.7075867 1.2585063 4.0097917 1.2871094 4.2363281 C 1.3135232 4.4506976 1.2737175 4.5135902 1.1875 4.8300781 C 1.1010066 5.1475788 1 5.6295422 1 6.4433594 C 1 7.2657149 1.1617239 8.1374299 1.5058594 8.9199219 A 0.50051857 0.50051857 0 0 0 1.5039062 9.0664062 C 1.5198338 9.1857406 1.49532 9.5814184 1.4375 9.9589844 C 1.37968 10.33655 1.3020558 10.720798 1.2539062 10.957031 C 1.2398722 11.026131 1.1347005 11.308427 1.0683594 11.611328 C 1.0351884 11.762779 1.0087956 11.928058 1.0253906 12.117188 C 1.0419856 12.306316 1.1144956 12.53592 1.2929688 12.708984 L 1.2949219 12.710938 C 1.6591029 13.063016 2.1169645 13.026405 2.5039062 12.966797 C 2.8908482 12.907187 3.2779848 12.785199 3.6113281 12.693359 C 3.9357172 12.603929 4.5146769 12.648103 5.2460938 12.751953 C 5.9775138 12.855763 6.8612359 13 7.8496094 13 L 8 13 L 8.1503906 13 C 8.9890818 13 9.8270953 12.90237 10.482422 12.806641 C 10.810085 12.758771 11.091129 12.710751 11.300781 12.675781 C 11.509194 12.641021 11.718644 12.62567 11.621094 12.625 C 12.059164 12.628 12.113844 12.618803 12.388672 12.695312 C 12.722015 12.787152 13.109152 12.907189 13.496094 12.966797 C 13.883036 13.026407 14.340897 13.063017 14.705078 12.710938 C 14.973796 12.450809 14.987837 12.10136 14.960938 11.871094 C 14.934358 11.643558 14.873488 11.459984 14.851562 11.371094 L 14.849609 11.369141 C 14.788583 11.099965 14.70205 10.867424 14.605469 10.652344 A 0.50005 0.50005 0 0 0 14.619141 10.572266 C 14.695691 10.04303 15 8.4022887 15 7.5 C 15 6.6861828 14.905291 5.9815689 14.824219 5.4179688 C 14.743147 4.8543684 14.6903 4.41734 14.712891 4.2363281 C 14.741548 4.0089783 14.837485 3.709285 14.90625 3.3964844 C 14.940632 3.2400841 14.970334 3.0773759 14.960938 2.890625 C 14.951541 2.7038741 14.886624 2.4660207 14.707031 2.2910156 C 14.343456 1.9363081 13.884857 1.9734923 13.498047 2.0332031 C 13.111237 2.092914 12.72442 2.2154291 12.390625 2.3066406 C 12.048506 2.4002393 11.596605 2.3515475 10.964844 2.2480469 C 10.333082 2.1445463 9.5389774 2 8.5507812 2 L 8.4003906 2 L 8.25 2 C 7.7556152 2 6.9521276 2.1082288 6.1054688 2.5117188 A 0.50009536 0.50009536 0 0 0 5.9902344 2.5 C 5.742131 2.5051242 5.2081558 2.4816387 4.7109375 2.4414062 C 4.2137192 2.401174 3.6939102 2.3273612 3.6113281 2.3046875 L 3.609375 2.3046875 C 3.2755766 2.213476 2.888763 2.092914 2.5019531 2.0332031 C 2.4052507 2.0182754 2.3042415 2.0043874 2.2011719 1.9980469 z M 8.25 3 L 8.4003906 3 L 8.5507812 3 C 9.4415851 3 10.157246 3.1286256 10.802734 3.234375 C 11.448223 3.3401244 12.042416 3.4369328 12.654297 3.2695312 C 13.008502 3.1727432 13.3732 3.0642735 13.650391 3.0214844 C 13.883899 2.9854384 13.942661 3.0174846 13.953125 3.0097656 C 13.949725 3.0546256 13.948127 3.0978826 13.929688 3.1816406 C 13.878198 3.41584 13.767046 3.7436779 13.720703 4.1113281 C 13.665293 4.5553162 13.754053 5.0048972 13.833984 5.5605469 C 13.913916 6.116197 14 6.7638172 14 7.5 C 14 7.927846 13.887717 8.7250617 13.779297 9.4433594 C 13.402384 9.0374353 13.114766 8.7622661 12.974609 8.3417969 A 0.50005 0.50005 0 0 0 12.478516 7.9941406 A 0.50005 0.50005 0 0 0 12.025391 8.6582031 C 12.256811 9.3524647 12.712134 9.7650751 13.068359 10.150391 C 13.424585 10.535706 13.716732 10.891146 13.875 11.591797 L 13.876953 11.595703 L 13.876953 11.599609 C 13.914783 11.756041 13.95815 11.895595 13.96875 11.986328 C 13.969124 11.989532 13.968446 11.987344 13.96875 11.990234 C 13.967693 11.978297 13.893812 12.016314 13.648438 11.978516 C 13.372141 11.935956 13.0083 11.827491 12.65625 11.730469 L 12.654297 11.730469 C 12.298234 11.631519 12.060023 11.627973 11.628906 11.625 L 11.626953 11.625 C 11.421107 11.62401 11.348098 11.654203 11.136719 11.689453 C 10.92534 11.724703 10.652852 11.770393 10.337891 11.816406 C 9.7080137 11.908429 8.9106995 12 8.1503906 12 L 8 12 L 7.8496094 12 C 6.9589829 12 6.1325518 11.867617 5.3867188 11.761719 C 4.6408856 11.65582 3.975314 11.556897 3.3457031 11.730469 C 2.9930465 11.827629 2.6283707 11.935874 2.3515625 11.978516 C 2.1017051 12.017006 2.0220131 11.976014 2.0253906 11.990234 C 2.0259023 11.951784 2.0279509 11.901704 2.0449219 11.824219 C 2.0868309 11.63287 2.1804555 11.412145 2.2324219 11.15625 C 2.2735741 10.954345 2.3405016 10.604284 2.3984375 10.255859 C 2.6501138 10.516016 2.9283485 10.751909 3.2558594 10.935547 A 0.50005 0.50005 0 1 0 3.7441406 10.064453 C 2.6095321 9.428271 2 7.8631297 2 6.4433594 C 2 5.7071766 2.0778372 5.3672494 2.1523438 5.09375 C 2.2268503 4.8202506 2.3303787 4.5212925 2.2792969 4.1113281 C 2.2329 3.7438645 2.1218803 3.4138822 2.0703125 3.1796875 C 2.0517219 3.0952583 2.0502017 3.0525684 2.046875 3.0078125 C 2.057329 3.0155425 2.11609 2.9854364 2.3496094 3.0214844 C 2.6267995 3.0642734 2.9914984 3.1727429 3.3457031 3.2695312 C 3.6601211 3.3558573 4.1096247 3.3954824 4.6289062 3.4375 C 4.6795817 3.4416004 4.7130081 3.4395564 4.7636719 3.4433594 C 4.531416 3.6669357 4.3046866 3.9132294 4.09375 4.2089844 A 0.50005 0.50005 0 1 0 4.90625 4.7910156 C 6.0282017 3.2179231 7.5806654 3 8.25 3 z"/></svg>