<?xml version="1.0" encoding="utf-8"?>
<!-- Generator: Adobe Illustrator 25.4.1, SVG Export Plug-In . SVG Version: 6.00 Build 0)  -->
<svg version="1.1" id="Icons" xmlns="http://www.w3.org/2000/svg" xmlns:xlink="http://www.w3.org/1999/xlink" x="0px" y="0px"
	 viewBox="0 0 24 24" style="enable-background:new 0 0 24 24;" xml:space="preserve">
<g id="Pizza">
	<path d="M13.483,15.923c0.144,0,0.29-0.031,0.428-0.096l0.299-0.142c0.499-0.237,0.712-0.833,0.476-1.332
		c-0.237-0.5-0.834-0.712-1.332-0.476l-0.299,0.142c-0.499,0.237-0.712,0.833-0.476,1.332C12.75,15.712,13.109,15.923,13.483,15.923
		z"/>
	<path d="M10.745,13.664c-0.31-0.457-0.931-0.577-1.389-0.267c-0.457,0.31-0.577,0.932-0.267,1.389l0.186,0.274
		c0.193,0.285,0.508,0.439,0.829,0.439c0.193,0,0.388-0.056,0.56-0.172c0.457-0.31,0.577-0.932,0.267-1.389L10.745,13.664z"/>
	<path d="M10.036,11.189l0.05-0.327c0.083-0.546-0.292-1.056-0.838-1.139c-0.54-0.081-1.056,0.292-1.139,0.838l-0.05,0.327
		c-0.083,0.546,0.292,1.056,0.838,1.139c0.051,0.008,0.102,0.011,0.152,0.011C9.534,12.039,9.96,11.685,10.036,11.189z"/>
	<path d="M14.997,10.011c0,0,0.001,0,0.001,0l5.493-0.007c0.324,0,0.628-0.158,0.815-0.423c0.187-0.265,0.234-0.604,0.126-0.91
		c-0.997-2.825-3.278-5.106-6.103-6.104c-0.306-0.108-0.646-0.061-0.911,0.126c-0.265,0.188-0.422,0.492-0.422,0.816v5.5
		c0,0.266,0.105,0.52,0.293,0.708C14.478,9.906,14.731,10.011,14.997,10.011z M15.997,5.07c1.212,0.705,2.23,1.724,2.934,2.936
		l-2.934,0.003V5.07z"/>
	<path d="M21,11h-8V3c0-0.552-0.448-1-1-1c-1.93,0-3.808,0.557-5.433,1.611c-0.463,0.3-0.595,0.92-0.294,1.383
		c0.3,0.462,0.918,0.594,1.383,0.294C8.673,4.629,9.813,4.213,11,4.063V5.08C7.613,5.568,5,8.481,5,12c0,3.86,3.14,7,7,7
		c3.519,0,6.432-2.613,6.92-6h1.018c-0.494,3.941-3.866,7-7.938,7c-4.411,0-8-3.589-8-8c0-1.656,0.508-3.25,1.469-4.609
		C5.788,6.94,5.681,6.316,5.23,5.997C4.779,5.679,4.155,5.785,3.836,6.236C2.635,7.935,2,9.928,2,12c0,5.514,4.486,10,10,10
		s10-4.486,10-10C22,11.448,21.552,11,21,11z M12,17c-2.757,0-5-2.243-5-5c0-2.414,1.721-4.434,4-4.899V12c0,0.552,0.448,1,1,1
		h4.899C16.434,15.279,14.414,17,12,17z"/>
</g>
</svg>
