<?xml version="1.0" encoding="utf-8"?>
<!-- Generator: Adobe Illustrator 25.4.1, SVG Export Plug-In . SVG Version: 6.00 Build 0)  -->
<svg version="1.1" id="Icons" xmlns="http://www.w3.org/2000/svg" xmlns:xlink="http://www.w3.org/1999/xlink" x="0px" y="0px"
	 viewBox="0 0 24 24" style="enable-background:new 0 0 24 24;" xml:space="preserve">
<g id="Pizza-Slice">
	<path d="M19.563,13.927l-6.7-11.432C12.684,2.188,12.355,2,12.001,2s-0.683,0.188-0.862,0.494L4.437,13.928
		c-0.541,0.143-1.022,0.449-1.379,0.899c-0.823,1.04-0.757,2.532,0.156,3.471c0.757,0.778,1.634,1.461,2.605,2.03
		c0.474,0.28,1.088,0.119,1.368-0.357c0.278-0.477,0.118-1.089-0.358-1.368c-0.815-0.478-1.55-1.05-2.182-1.699
		c-0.211-0.217-0.221-0.583-0.022-0.834c0.139-0.174,0.312-0.224,0.435-0.234c0.185-0.018,0.364,0.045,0.509,0.171
		c1.774,1.569,4.058,2.433,6.43,2.433s4.656-0.865,6.432-2.435c0.145-0.127,0.326-0.189,0.509-0.171
		c0.166,0.015,0.315,0.093,0.422,0.22c0,0,0.412,0.435-0.009,0.851c-2.65,2.621-5.995,3.672-9.636,2.844
		c-0.537-0.124-1.074,0.215-1.196,0.753c-0.123,0.539,0.214,1.075,0.753,1.197c0.914,0.208,1.831,0.313,2.728,0.313
		c3.339,0,6.459-1.319,8.785-3.714c0.905-0.932,0.979-2.407,0.176-3.445C20.961,14.853,20.455,14.129,19.563,13.927z M13.528,9.831
		c0.147-0.406,0.571-0.645,0.993-0.556l0.659,1.124c-0.004,0.01-0.012,0.016-0.016,0.026c-0.079,0.218-0.238,0.393-0.448,0.491
		c-0.21,0.098-0.446,0.109-0.665,0.03C13.6,10.782,13.365,10.282,13.528,9.831z M9.281,15.374c0.111-0.468,0.582-0.761,1.049-0.647
		c0.467,0.11,0.756,0.581,0.646,1.047c-0.055,0.228-0.206,0.411-0.404,0.532c-0.414-0.078-0.818-0.191-1.212-0.335
		C9.264,15.786,9.233,15.575,9.281,15.374z M7.348,14.875c-0.155-0.117-0.309-0.237-0.455-0.367
		c-0.106-0.093-0.222-0.169-0.34-0.244l5.448-9.287l1.427,2.433c-0.803,0.274-1.476,0.897-1.781,1.741
		c-0.537,1.488,0.235,3.137,1.724,3.676C13.689,12.942,14.021,13,14.35,13c0.415,0,0.829-0.091,1.216-0.273
		c0.262-0.123,0.49-0.291,0.699-0.48l1.182,2.016c-0.118,0.075-0.236,0.151-0.342,0.244c-1.191,1.053-2.672,1.7-4.238,1.878
		c0,0,0.531-1.278-0.563-2.68c0,0-1.097-1.374-2.88-0.912C9.424,12.793,7.748,13.144,7.348,14.875z"/>
</g>
</svg>
