<?xml version="1.0" encoding="utf-8"?>
<!-- Generator: Adobe Illustrator 16.0.0, SVG Export Plug-In . SVG Version: 6.00 Build 0)  -->
<!DOCTYPE svg PUBLIC "-//W3C//DTD SVG 1.1//EN" "http://www.w3.org/Graphics/SVG/1.1/DTD/svg11.dtd">
<svg version="1.1" id="Icons" xmlns="http://www.w3.org/2000/svg" xmlns:xlink="http://www.w3.org/1999/xlink" x="0px" y="0px"
	 width="24px" height="24px" viewBox="0 0 24 24" enable-background="new 0 0 24 24" xml:space="preserve">
<path id="Plus" d="M20.999,8.998h-5.997V3.001c0-0.552-0.448-1-1-1H9.998c-0.552,0-1,0.448-1,1v1.716c0,0.552,0.448,1,1,1
	s1-0.448,1-1V4.001h2.004v15.998h-2.004V8.129c0-0.552-0.448-1-1-1s-1,0.448-1,1v0.869H3.001c-0.552,0-1,0.448-1,1v4.004
	c0,0.552,0.448,1,1,1h5.997v5.997c0,0.552,0.448,1,1,1h4.004c0.552,0,1-0.448,1-1v-5.997h5.997c0.552,0,1-0.448,1-1V9.998
	C21.999,9.446,21.551,8.998,20.999,8.998z M4.001,13.002v-2.004h4.997v2.004H4.001z M19.999,13.002h-4.997v-2.004h4.997V13.002z"/>
</svg>
