<?xml version="1.0" encoding="utf-8"?>
<!-- Generator: Adobe Illustrator 26.3.1, SVG Export Plug-In . SVG Version: 6.00 Build 0)  -->
<svg version="1.1" id="Icons" xmlns="http://www.w3.org/2000/svg" xmlns:xlink="http://www.w3.org/1999/xlink" x="0px" y="0px"
	 viewBox="0 0 24 24" style="enable-background:new 0 0 24 24;" xml:space="preserve">
<g id="Police-Station">
	<path d="M20.996,3.999H16.57c-0.026-0.249-0.131-0.485-0.321-0.652c-0.216-0.189-0.5-0.277-0.793-0.239
		c-0.086,0.013-1.773,0.209-2.731-0.797c-0.38-0.397-1.073-0.396-1.449,0C10.318,3.316,8.634,3.12,8.544,3.107
		C8.262,3.069,7.97,3.154,7.753,3.343C7.56,3.51,7.456,3.748,7.43,3.999H3.004c-0.553,0-1,0.448-1,1v4.035c0,0.552,0.447,1,1,1
		h0.384v1.991c0,0.552,0.447,1,1,1s1-0.448,1-1v-1.991h2.761c1.117,1.567,3.141,2.505,3.449,2.64
		c0.128,0.056,0.266,0.084,0.402,0.084s0.274-0.028,0.402-0.084c0.308-0.135,2.331-1.073,3.449-2.64h2.759l-0.004,9.949h-2.135
		v-5.006c0-0.552-0.447-1-1-1H8.528c-0.553,0-1,0.448-1,1v5.006H5.387v-4.543c0-0.552-0.447-1-1-1s-1,0.448-1,1v5.543
		c0,0.552,0.447,1,1,1h15.22c0.552,0,1-0.448,1-1l0.004-10.95h0.386c0.553,0,1-0.448,1-1V4.999
		C21.996,4.446,21.549,3.999,20.996,3.999z M14.472,19.982H13v-4.006h1.472V19.982z M9.528,15.976H11v4.006H9.528V15.976z
		 M4.004,8.033V5.999h3.404v1.916c0,0.041,0.008,0.079,0.01,0.119H4.004z M14.592,7.914c0,1.123-1.638,2.224-2.592,2.73
		c-0.954-0.506-2.592-1.607-2.592-2.73v-2.8C10.134,5.064,11.12,4.876,12,4.295c0.881,0.582,1.866,0.77,2.592,0.819V7.914z
		 M16.592,7.914V5.999h3.404v2.035h-3.414C16.584,7.993,16.592,7.955,16.592,7.914z"/>
</g>
</svg>
