<?xml version="1.0" encoding="utf-8"?>
<!-- Generator: Adobe Illustrator 26.3.1, SVG Export Plug-In . SVG Version: 6.00 Build 0)  -->
<svg version="1.1" id="Icons" xmlns="http://www.w3.org/2000/svg" xmlns:xlink="http://www.w3.org/1999/xlink" x="0px" y="0px"
	 viewBox="0 0 24 24" style="enable-background:new 0 0 24 24;" xml:space="preserve">
<g id="Port">
	<path d="M8.849,14.123c-0.077-0.546-0.583-0.928-1.13-0.851c-0.547,0.077-0.928,0.583-0.851,1.13
		c0.36,2.55,2.566,4.474,5.132,4.474s4.771-1.923,5.132-4.474c0.077-0.547-0.304-1.053-0.851-1.13
		c-0.551-0.078-1.053,0.304-1.13,0.851c-0.173,1.222-1.035,2.202-2.151,2.579l0.001-3.953h1.546c0.553,0,1-0.448,1-1s-0.447-1-1-1
		h-1.545l0-0.802c0.889-0.389,1.513-1.275,1.513-2.305c0-1.388-1.129-2.517-2.518-2.517c-1.388,0-2.517,1.129-2.517,2.517
		c0,1.034,0.628,1.923,1.521,2.31l0,0.798H9.458c-0.553,0-1,0.448-1,1s0.447,1,1,1h1.544L11,16.702
		C9.884,16.324,9.021,15.345,8.849,14.123z M11.998,7.125c0.285,0,0.518,0.232,0.518,0.517s-0.232,0.517-0.518,0.517
		s-0.517-0.232-0.517-0.517S11.713,7.125,11.998,7.125z"/>
	<path d="M12,2C6.486,2,2,6.486,2,12c0,1.479,0.325,2.914,0.965,4.267c0.236,0.499,0.833,0.713,1.332,0.476
		c0.499-0.236,0.713-0.833,0.477-1.332C4.26,14.328,4,13.18,4,12c0-4.411,3.589-8,8-8s8,3.589,8,8s-3.589,8-8,8
		c-2.015,0-3.943-0.76-5.432-2.14c-0.406-0.375-1.037-0.352-1.413,0.053c-0.375,0.405-0.352,1.038,0.054,1.414
		C7.067,21.051,9.479,22,12,22c5.514,0,10-4.486,10-10S17.514,2,12,2z"/>
</g>
</svg>
