<?xml version="1.0" encoding="utf-8"?>
<!-- Generator: Adobe Illustrator 26.3.1, SVG Export Plug-In . SVG Version: 6.00 Build 0)  -->
<svg version="1.1" id="Icons" xmlns="http://www.w3.org/2000/svg" xmlns:xlink="http://www.w3.org/1999/xlink" x="0px" y="0px"
	 viewBox="0 0 24 24" style="enable-background:new 0 0 24 24;" xml:space="preserve">
<g id="Post-Office">
	<path d="M12,2C6.486,2,2,6.486,2,12c0,1.479,0.325,2.914,0.965,4.267c0.237,0.5,0.833,0.712,1.332,0.476
		c0.5-0.236,0.712-0.833,0.476-1.332C4.26,14.328,4,13.18,4,12c0-4.411,3.589-8,8-8s8,3.589,8,8s-3.589,8-8,8
		c-2.014,0-3.943-0.76-5.432-2.14c-0.405-0.375-1.036-0.352-1.413,0.054c-0.375,0.405-0.352,1.038,0.054,1.413
		C7.068,21.051,9.48,22,12,22c5.514,0,10-4.486,10-10S17.514,2,12,2z"/>
	<path d="M8.223,16.625h7.553c1.146,0,2.079-0.933,2.079-2.079V9.455c0-1.146-0.933-2.079-2.079-2.079H8.223
		c-1.146,0-2.079,0.933-2.079,2.079v5.091C6.145,15.692,7.077,16.625,8.223,16.625z M14.137,9.375L12,11.244L9.86,9.375H14.137z
		 M8.145,10.533l3.198,2.792c0.188,0.165,0.423,0.247,0.658,0.247s0.47-0.083,0.658-0.247l3.197-2.795v4.095H8.145V10.533z"/>
</g>
</svg>
