<?xml version="1.0" encoding="utf-8"?>
<!-- Generator: Adobe Illustrator 26.5.0, SVG Export Plug-In . SVG Version: 6.00 Build 0)  -->
<svg version="1.1" id="Icons" xmlns="http://www.w3.org/2000/svg" xmlns:xlink="http://www.w3.org/1999/xlink" x="0px" y="0px"
	 viewBox="0 0 24 24" enable-background="new 0 0 24 24" xml:space="preserve">
<path id="Potted-Plant" d="M21.708,2.292c-0.234-0.235-0.569-0.336-0.895-0.275l-4.72,0.903c-1.612,0.291-2.906,1.464-3.378,3.062
	c-0.33,1.116-0.189,2.273,0.328,3.215C12.608,9.748,12.27,10.279,12,10.778c-0.271-0.502-0.611-1.035-1.049-1.589
	c0.524-0.957,0.66-2.102,0.334-3.208C10.812,4.384,9.519,3.21,7.917,2.921l-4.73-0.904C2.861,1.956,2.526,2.057,2.292,2.292
	C2.058,2.526,1.955,2.861,2.017,3.187l0.907,4.741c0.29,1.614,1.462,2.907,3.062,3.375c0.405,0.118,0.815,0.176,1.219,0.176
	c0.874,0,1.712-0.274,2.395-0.771c0.675,0.916,1.026,1.729,1.206,2.326H5.208c-0.552,0-1,0.448-1,1s0.448,1,1,1h0.109l0.179,1.284
	c0.076,0.548,0.585,0.931,1.128,0.852c0.547-0.076,0.929-0.582,0.852-1.128l-0.141-1.007h9.331l-0.581,4.161
	c-0.073,0.467-0.469,0.807-0.942,0.807H8.858c-0.423,0-0.798-0.289-0.912-0.702C7.8,18.766,7.25,18.452,6.717,18.6
	c-0.533,0.146-0.846,0.697-0.699,1.229c0.352,1.278,1.52,2.171,2.84,2.171h6.285c1.465,0,2.692-1.051,2.92-2.514l0.622-4.454h0.109
	c0.552,0,1-0.448,1-1s-0.448-1-1-1h-5.599c0.18-0.597,0.532-1.411,1.208-2.328c0.699,0.503,1.536,0.773,2.402,0.773
	c0.401,0,0.808-0.057,1.21-0.175c1.6-0.469,2.772-1.762,3.062-3.375l0.907-4.741C22.045,2.861,21.942,2.526,21.708,2.292z
	 M6.547,9.384c-0.68-0.199-1.473-0.78-1.656-1.813c0-0.004-0.001-0.008-0.002-0.013l-0.631-3.3l3.293,0.629
	c1.032,0.187,1.614,0.98,1.815,1.661c0.102,0.346,0.106,0.69,0.047,1.021C9.078,7.267,8.722,6.964,8.32,6.664
	c-0.443-0.329-1.069-0.239-1.4,0.203c-0.331,0.442-0.24,1.069,0.203,1.4c0.419,0.313,0.786,0.625,1.119,0.935
	C7.745,9.486,7.147,9.56,6.547,9.384z M19.111,7.558c0,0.004-0.001,0.009-0.002,0.013c-0.184,1.033-0.976,1.614-1.656,1.813
	c-0.587,0.172-1.174,0.1-1.685-0.19c0.331-0.307,0.695-0.617,1.11-0.927c0.442-0.331,0.533-0.958,0.203-1.4
	c-0.331-0.442-0.957-0.532-1.4-0.203c-0.404,0.302-0.761,0.605-1.098,0.909c-0.056-0.33-0.052-0.675,0.051-1.024
	c0.201-0.681,0.783-1.474,1.825-1.662l3.283-0.628L19.111,7.558z"/>
</svg>
