<?xml version="1.0" encoding="utf-8"?>
<!-- Generator: Adobe Illustrator 25.4.1, SVG Export Plug-In . SVG Version: 6.00 Build 0)  -->
<svg version="1.1" id="Icons" xmlns="http://www.w3.org/2000/svg" xmlns:xlink="http://www.w3.org/1999/xlink" x="0px" y="0px"
	 viewBox="0 0 24 24" style="enable-background:new 0 0 24 24;" xml:space="preserve">
<g id="Price-2">
	<path d="M12.01,7.196c-0.552,0-1,0.448-1,1v0.351l-0.9,0.001c-0.881,0.048-1.935,0.758-1.988,1.973l0.001,1.231
		c0.038,0.769,0.603,1.939,2.059,2.011h3.695l0,1.226l-3.719,0.012c-0.07-0.58-0.534-1.107-1.169-1.014
		c-0.547,0.074-0.931,0.578-0.857,1.125c0.186,1.374,1.264,1.873,1.943,1.873h0.936v0.378c0,0.552,0.448,1,1,1s1-0.448,1-1v-0.378
		h1.047c1.213-0.086,1.903-1.313,1.82-2.129l0-1.083c-0.056-1.279-1.07-1.956-2.01-2.009l-3.746-0.003v-1.216l3.505-0.002
		c0.078,0.005,0.222,0.015,0.276,0.197c0.3,1.257,2.185,0.869,1.958-0.409c-0.112-0.575-0.693-1.688-2.166-1.785l-0.684,0v-0.35
		C13.01,7.644,12.562,7.196,12.01,7.196z"/>
	<path d="M18.745,6.348l-4.929-3.78c-1.018-0.743-2.614-0.743-3.651,0.015L5.274,6.333c-0.962,0.7-1.538,1.749-1.637,3.023
		c0,0,0,1.895,0,1.895c0.022,1.315,1.978,1.314,2,0V9.417c0.086-0.667,0.34-1.121,0.834-1.483l4.891-3.751
		c0.321-0.234,0.952-0.235,1.255-0.015l4.929,3.78c0.476,0.348,0.729,0.802,0.815,1.469v9.849c0,0.404-0.329,0.733-0.733,0.733
		H6.371c-0.404,0-0.733-0.329-0.733-0.733v-4.604c0-0.552-0.448-1-1-1s-1,0.448-1,1v4.604C3.638,20.774,4.864,22,6.371,22h11.258
		c1.507,0,2.733-1.226,2.733-2.733v-9.91C20.264,8.084,19.687,7.032,18.745,6.348z"/>
</g>
</svg>
