<?xml version="1.0" encoding="utf-8"?>
<!-- Generator: Adobe Illustrator 25.4.1, SVG Export Plug-In . SVG Version: 6.00 Build 0)  -->
<svg version="1.1" id="Icons" xmlns="http://www.w3.org/2000/svg" xmlns:xlink="http://www.w3.org/1999/xlink" x="0px" y="0px"
	 viewBox="0 0 24 24" style="enable-background:new 0 0 24 24;" xml:space="preserve">
<g id="Price-1">
	<g>
		<path d="M12,11.685c-1.567,0-2.843-1.275-2.843-2.842S10.433,6,12,6s2.843,1.275,2.843,2.843S13.567,11.685,12,11.685z M12,8
			c-0.465,0-0.843,0.378-0.843,0.843c0,0.464,0.378,0.842,0.843,0.842s0.843-0.378,0.843-0.842C12.843,8.378,12.465,8,12,8z"/>
	</g>
	<g>
		<path d="M16,15H8c-0.553,0-1-0.448-1-1s0.447-1,1-1h8c0.553,0,1,0.448,1,1S16.553,15,16,15z"/>
	</g>
	<g>
		<path d="M16,18H8c-0.553,0-1-0.448-1-1s0.447-1,1-1h8c0.553,0,1,0.448,1,1S16.553,18,16,18z"/>
	</g>
	<g>
		<path d="M17.629,22H6.371c-1.507,0-2.733-1.226-2.733-2.733v-4.604c0-0.552,0.447-1,1-1s1,0.448,1,1v4.604
			C5.638,19.664,5.974,20,6.371,20h11.258c0.397,0,0.733-0.336,0.733-0.733v-9.85c-0.086-0.666-0.339-1.12-0.815-1.468l-4.929-3.78
			c-0.304-0.22-0.933-0.22-1.256,0.015l-4.89,3.751C5.977,8.296,5.724,8.751,5.638,9.417v1.835c-0.022,1.314-1.978,1.315-2,0
			c0,0,0-1.895,0-1.895c0.1-1.275,0.674-2.324,1.638-3.024l4.89-3.751c1.039-0.758,2.635-0.757,3.65-0.015l4.929,3.78
			c0.943,0.684,1.519,1.737,1.618,3.009c0,0,0,9.91,0,9.91C20.362,20.774,19.136,22,17.629,22z"/>
	</g>
</g>
</svg>
