<?xml version="1.0" encoding="utf-8"?>
<!-- Generator: Adobe Illustrator 25.4.1, SVG Export Plug-In . SVG Version: 6.00 Build 0)  -->
<svg version="1.1" id="Icons" xmlns="http://www.w3.org/2000/svg" xmlns:xlink="http://www.w3.org/1999/xlink" x="0px" y="0px"
	 viewBox="0 0 24 24" style="enable-background:new 0 0 24 24;" xml:space="preserve">
<g id="QR-code">
	<g>
		<path d="M17.963,11.498h-4.345c-0.553,0-1-0.448-1-1v-4.46c0-0.552,0.447-1,1-1h4.345c0.553,0,1,0.448,1,1v4.46
			C18.963,11.05,18.516,11.498,17.963,11.498z M14.618,9.498h2.345v-2.46h-2.345V9.498z"/>
	</g>
	<g>
		<path d="M10.382,11.498H6.037c-0.553,0-1-0.448-1-1v-4.46c0-0.552,0.447-1,1-1h4.345c0.553,0,1,0.448,1,1v4.46
			C11.382,11.05,10.935,11.498,10.382,11.498z M7.037,9.498h2.345v-2.46H7.037V9.498z"/>
	</g>
	<g>
		<path d="M17.963,18.963h-4.345c-0.553,0-1-0.448-1-1v-4.229c0-0.552,0.447-1,1-1h4.345c0.553,0,1,0.448,1,1v4.229
			C18.963,18.515,18.516,18.963,17.963,18.963z M14.618,16.963h2.345v-2.229h-2.345V16.963z"/>
	</g>
	<g>
		<path d="M3.003,8.153c-0.553,0-1-0.448-1-1V3c0-0.552,0.447-1,1-1h4.153c0.553,0,1,0.448,1,1s-0.447,1-1,1H4.003v3.153
			C4.003,7.706,3.556,8.153,3.003,8.153z"/>
	</g>
	<g>
		<path d="M21,8.153c-0.553,0-1-0.448-1-1V4h-3.153c-0.553,0-1-0.448-1-1s0.447-1,1-1H21c0.553,0,1,0.448,1,1v4.153
			C22,7.706,21.553,8.153,21,8.153z"/>
	</g>
	<g>
		<path d="M7.153,22H3c-0.553,0-1-0.448-1-1v-4.153c0-0.552,0.447-1,1-1s1,0.448,1,1V20h3.153c0.553,0,1,0.448,1,1
			S7.706,22,7.153,22z"/>
	</g>
	<g>
		<path d="M20.997,22h-4.153c-0.553,0-1-0.448-1-1s0.447-1,1-1h3.153v-3.153c0-0.552,0.447-1,1-1s1,0.448,1,1V21
			C21.997,21.552,21.55,22,20.997,22z"/>
	</g>
	<g>
		<path d="M10.382,18.963H6.037c-0.553,0-1-0.448-1-1v-0.808c0-0.552,0.447-1,1-1c0.486,0,0.892,0.347,0.981,0.808h2.363v-2.229
			H6.037c-0.553,0-1-0.448-1-1s0.447-1,1-1h4.345c0.553,0,1,0.448,1,1v4.229C11.382,18.515,10.935,18.963,10.382,18.963z"/>
	</g>
</g>
</svg>
