<?xml version="1.0" encoding="utf-8"?>
<!-- Generator: Adobe Illustrator 16.0.0, SVG Export Plug-In . SVG Version: 6.00 Build 0)  -->
<!DOCTYPE svg PUBLIC "-//W3C//DTD SVG 1.0//EN" "http://www.w3.org/TR/2001/REC-SVG-20010904/DTD/svg10.dtd">
<svg version="1.0" id="Layer_1" xmlns="http://www.w3.org/2000/svg" xmlns:xlink="http://www.w3.org/1999/xlink" x="0px" y="0px"
	 width="100px" height="100px" viewBox="0 0 100 100" enable-background="new 0 0 100 100" xml:space="preserve">
<path d="M90,46.667V40h-5c0-5.522-4.479-10-10-10s-10,4.478-10,10h-5c0-5.522-4.479-10-10-10c-5.522,0-10,4.478-10,10h-5
	c0-5.522-4.478-10-10-10s-10,4.478-10,10h-5v6.667h5v26.667h-5V80h5c0,5.521,4.479,10,10,10s10-4.479,10-10h5
	c0,5.521,4.479,10,10,10c5.521,0,10-4.479,10-10h5c0,5.521,4.479,10,10,10s10-4.479,10-10h5v-6.667h-5V46.667H90z M28.333,80
	c0,1.839-1.496,3.333-3.333,3.333S21.667,81.839,21.667,80V40c0-1.837,1.496-3.333,3.333-3.333s3.333,1.496,3.333,3.333V80z
	 M40,73.333h-5V46.667h5V73.333z M53.333,80c0,1.839-1.497,3.333-3.333,3.333S46.667,81.839,46.667,80V40
	c0-1.837,1.498-3.333,3.333-3.333s3.333,1.496,3.333,3.333V80z M65,73.333h-5V46.667h5V73.333z M78.333,80
	c0,1.839-1.497,3.333-3.333,3.333S71.667,81.839,71.667,80V40c0-1.837,1.497-3.333,3.333-3.333s3.333,1.496,3.333,3.333V80z"/>
<polygon points="36.41,10 29.743,26.667 36.924,26.667 43.59,10 "/>
<polygon points="53.076,10 46.41,26.667 53.591,26.667 60.257,10 "/>
<polygon points="69.743,10 63.076,26.667 70.257,26.667 76.924,10 "/>
</svg>
