<?xml version="1.0" encoding="utf-8"?>
<!-- Generator: Adobe Illustrator 16.0.0, SVG Export Plug-In . SVG Version: 6.00 Build 0)  -->
<!DOCTYPE svg PUBLIC "-//W3C//DTD SVG 1.1//EN" "http://www.w3.org/Graphics/SVG/1.1/DTD/svg11.dtd">
<svg version="1.1" id="Icons" xmlns="http://www.w3.org/2000/svg" xmlns:xlink="http://www.w3.org/1999/xlink" x="0px" y="0px"
	 width="24px" height="24px" viewBox="0 0 24 24" enable-background="new 0 0 24 24" xml:space="preserve">
<path id="Redo-Refresh" d="M21.561,11.998c0,5.281-4.297,9.578-9.578,9.578c-2.121,0-4.136-0.688-5.828-1.987
	c-0.438-0.337-0.52-0.965-0.184-1.402s0.965-0.52,1.402-0.184c1.339,1.029,2.933,1.573,4.609,1.573c4.178,0,7.578-3.399,7.578-7.578
	c0-0.553,0.447-1,1-1S21.561,11.445,21.561,11.998z M5.016,17.093c0.506-0.219,0.648-0.883,0.376-1.363
	c-0.646-1.139-0.987-2.429-0.987-3.731c0-4.178,3.399-7.577,7.578-7.577c2.216,0,4.254,0.952,5.68,2.579h-2.042
	c-0.553,0-1,0.447-1,1s0.447,1,1,1h4.325c0.553,0,1-0.447,1-1V3.677c0-0.553-0.447-1-1-1s-1,0.447-1,1v1.766
	c-1.789-1.91-4.271-3.021-6.963-3.021c-5.281,0-9.578,4.296-9.578,9.577c0,1.648,0.431,3.279,1.248,4.718
	C3.653,16.716,4.032,17.519,5.016,17.093z"/>
</svg>
