<?xml version="1.0" encoding="utf-8"?>
<!-- Generator: Adobe Illustrator 26.3.1, SVG Export Plug-In . SVG Version: 6.00 Build 0)  -->
<svg version="1.1" id="Icons" xmlns="http://www.w3.org/2000/svg" xmlns:xlink="http://www.w3.org/1999/xlink" x="0px" y="0px"
	 viewBox="0 0 24 24" style="enable-background:new 0 0 24 24;" xml:space="preserve">
<g id="Restaurant">
	<path d="M11.998,6.983c-0.552,0-1,0.448-1,1v0.833c-2.269,0.433-4.009,2.309-4.274,4.632c-0.54,0.014-0.975,0.452-0.975,0.995
		c0,0.552,0.448,1,1,1h10.5c0.553,0,1-0.448,1-1c0-0.543-0.435-0.981-0.975-0.995c-0.266-2.323-2.006-4.199-4.275-4.632V7.983
		C12.998,7.431,12.55,6.983,11.998,6.983z M15.273,13.443H8.724c0.287-1.549,1.643-2.728,3.274-2.728
		C13.63,10.715,14.985,11.894,15.273,13.443z"/>
	<path d="M6.749,18.443h10.5c0.553,0,1-0.448,1-1s-0.447-1-1-1h-10.5c-0.552,0-1,0.448-1,1S6.196,18.443,6.749,18.443z"/>
	<path d="M21.664,10.252l-9-8c-0.379-0.337-0.95-0.337-1.329,0l-9,8C2.122,10.442,2,10.714,2,11v3.138c0,0.552,0.448,1,1,1
		s1-0.448,1-1v-2.688l8-7.111l8,7.111V20H4v-2.447c0-0.552-0.448-1-1-1s-1,0.448-1,1V21c0,0.552,0.448,1,1,1h18c0.553,0,1-0.448,1-1
		V11C22,10.714,21.878,10.442,21.664,10.252z"/>
</g>
</svg>
