<?xml version="1.0" encoding="utf-8"?>
<!-- Generator: Adobe Illustrator 16.0.0, SVG Export Plug-In . SVG Version: 6.00 Build 0)  -->
<!DOCTYPE svg PUBLIC "-//W3C//DTD SVG 1.1//EN" "http://www.w3.org/Graphics/SVG/1.1/DTD/svg11.dtd">
<svg version="1.1" id="Icons" xmlns="http://www.w3.org/2000/svg" xmlns:xlink="http://www.w3.org/1999/xlink" x="0px" y="0px"
	 width="24px" height="24px" viewBox="0 0 24 24" enable-background="new 0 0 24 24" xml:space="preserve">
<path id="Right" d="M18,2H6C3.794,2,2,3.794,2,6v12c0,2.206,1.794,4,4,4h12c2.206,0,4-1.794,4-4V6C22,3.794,20.206,2,18,2z M20,6
	v3.583L14.428,4H18C19.103,4,20,4.897,20,6z M6,4h0.603l4.99,5H4V6C4,4.897,4.897,4,6,4z M4,18v-3h7.586l-5,5H6
	C4.897,20,4,19.103,4,18z M18.205,16.21L20,14.414V18c0,1.103-0.897,2-2,2h-3.587l1.377-1.377c0.391-0.391,0.391-1.023,0-1.414
	s-1.023-0.391-1.414,0L11.585,20H9.414l5.293-5.293c0.286-0.286,0.372-0.716,0.217-1.09S14.404,13,14,13H4v-2h10.004
	c0.404,0,0.769-0.243,0.924-0.617c0.155-0.373,0.069-0.803-0.216-1.089L9.428,4h2.175l7.983,7.999l-2.795,2.797
	c-0.391,0.391-0.391,1.023,0,1.414C16.791,16.21,17.438,16.896,18.205,16.21z"/>
</svg>
