<?xml version="1.0" encoding="utf-8"?>
<!-- Generator: Adobe Illustrator 25.4.1, SVG Export Plug-In . SVG Version: 6.00 Build 0)  -->
<svg version="1.1" id="Icons" xmlns="http://www.w3.org/2000/svg" xmlns:xlink="http://www.w3.org/1999/xlink" x="0px" y="0px"
	 viewBox="0 0 24 24" style="enable-background:new 0 0 24 24;" xml:space="preserve">
<g id="Roasted-Chicken">
	<path d="M21.72,16.621c-0.188-0.196-0.449-0.306-0.72-0.306h-0.583c0.088-0.354,0.143-0.73,0.143-1.144
		c0-1.85-0.875-3.531-2.294-4.791l0.616-1.188c1.126,0.068,2.25-0.512,2.792-1.561c0.358-0.692,0.425-1.481,0.188-2.224
		c-0.236-0.742-0.748-1.348-1.44-1.706c-0.477-0.246-1.001-0.351-1.525-0.315c-0.272-0.447-0.663-0.815-1.14-1.061
		c-0.692-0.359-1.482-0.426-2.224-0.188c-0.742,0.236-1.348,0.748-1.706,1.439c-0.541,1.047-0.374,2.301,0.342,3.179l-0.759,1.463
		C12.951,8.156,12.481,8.115,12,8.115c-0.877,0-1.75,0.111-2.592,0.331c-0.534,0.14-0.854,0.686-0.715,1.22
		c0.14,0.534,0.685,0.852,1.22,0.715c0.678-0.177,1.38-0.267,2.087-0.267c3.617,0,6.56,2.268,6.56,5.056
		c0,0.502-0.103,0.87-0.294,1.144H5.734c-0.191-0.273-0.294-0.641-0.294-1.144c0-1.288,0.639-2.519,1.799-3.465
		c0.428-0.35,0.492-0.979,0.143-1.407c-0.349-0.427-0.979-0.491-1.407-0.143C4.34,11.49,3.44,13.271,3.44,15.171
		c0,0.413,0.055,0.79,0.143,1.144H3c-0.271,0-0.532,0.11-0.72,0.306C2.091,16.816,1.991,17.08,2,17.352
		C2.058,18.897,2.901,21.858,5.736,22l12.579-0.001c2.784-0.14,3.628-3.101,3.685-4.647C22.009,17.08,21.909,16.816,21.72,16.621z
		 M15.939,5.686c-0.409-0.255-0.553-0.766-0.334-1.19c0.112-0.217,0.303-0.378,0.536-0.452c0.233-0.074,0.481-0.053,0.699,0.06
		c0.245,0.126,0.417,0.361,0.471,0.643c0.058,0.301,0.25,0.559,0.522,0.7c0.273,0.14,0.594,0.149,0.874,0.022
		c0.263-0.119,0.553-0.115,0.798,0.012c0.217,0.112,0.378,0.302,0.453,0.536c0.074,0.233,0.053,0.481-0.06,0.698
		c-0.219,0.423-0.719,0.602-1.164,0.416c-0.48-0.202-1.035,0-1.274,0.462l-0.852,1.643c-0.38-0.201-0.778-0.38-1.195-0.53
		l0.886-1.709C16.539,6.532,16.382,5.961,15.939,5.686z M18.264,20L5.786,20.001c-0.952-0.048-1.4-0.938-1.608-1.687h15.648
		C19.623,19.064,19.187,19.953,18.264,20z"/>
	<path d="M8.207,14.903c0.497,0.212,1.095-0.024,1.308-0.538c0.424-1.038,2.156-1.491,3.087-0.843
		c1.126,0.674,2.162-0.984,1.057-1.698c-1.932-1.306-5.137-0.384-5.989,1.772C7.456,14.105,7.697,14.69,8.207,14.903z"/>
	<path d="M5,8.691c0.552,0,1-0.448,1-1V5.547c0-0.552-0.448-1-1-1s-1,0.448-1,1v2.145C4,8.244,4.448,8.691,5,8.691z"/>
	<path d="M9,7.144c0.552,0,1-0.448,1-1V4c0-0.552-0.448-1-1-1S8,3.447,8,4v2.145C8,6.696,8.448,7.144,9,7.144z"/>
</g>
</svg>
