<?xml version="1.0" encoding="utf-8"?>
<!-- Generator: Adobe Illustrator 25.4.1, SVG Export Plug-In . SVG Version: 6.00 Build 0)  -->
<svg version="1.1" id="Icons" xmlns="http://www.w3.org/2000/svg" xmlns:xlink="http://www.w3.org/1999/xlink" x="0px" y="0px"
	 viewBox="0 0 24 24" style="enable-background:new 0 0 24 24;" xml:space="preserve">
<g id="Rolling-pin">
	<path d="M21.172,2.813c-1.082-1.083-2.844-1.084-3.926,0l-0.995,0.995C15.091,3.067,13.53,3.2,12.518,4.213L7.746,8.985
		c-0.391,0.391-0.391,1.023,0,1.414s1.023,0.391,1.414,0l4.772-4.772c0.389-0.391,1.024-0.39,1.415,0l3.015,3.015
		c0.39,0.39,0.39,1.024,0,1.415l-8.3,8.3c-0.391,0.39-1.026,0.389-1.415,0l-3.015-3.015c-0.39-0.39-0.39-1.024,0-1.415l1.117-1.117
		c0.391-0.39,0.391-1.023,0-1.414c-0.39-0.391-1.023-0.391-1.414,0l-1.117,1.117c-1.013,1.013-1.145,2.575-0.403,3.735l-1.01,1.01
		c-0.523,0.523-0.811,1.22-0.811,1.963s0.288,1.44,0.811,1.963c0.523,0.523,1.22,0.811,1.963,0.811s1.44-0.288,1.963-0.811
		l1.011-1.01c0.49,0.313,1.051,0.474,1.614,0.474c0.768,0,1.536-0.292,2.121-0.877l8.3-8.3c1.014-1.013,1.146-2.576,0.403-3.737
		l0.994-0.994C22.254,5.657,22.254,3.896,21.172,2.813z M4.218,19.771c-0.146-0.145-0.225-0.34-0.225-0.548s0.08-0.403,0.225-0.549
		l0.958-0.959l1.098,1.098l-0.959,0.958C5.025,20.062,4.509,20.063,4.218,19.771z M19.758,4.228c0.303,0.303,0.303,0.795,0,1.098
		l-0.943,0.942L17.718,5.17l0.942-0.942C18.963,3.925,19.456,3.924,19.758,4.228z"/>
</g>
</svg>
