<?xml version="1.0" encoding="utf-8"?>
<!-- Generator: Adobe Illustrator 16.0.0, SVG Export Plug-In . SVG Version: 6.00 Build 0)  -->
<!DOCTYPE svg PUBLIC "-//W3C//DTD SVG 1.1//EN" "http://www.w3.org/Graphics/SVG/1.1/DTD/svg11.dtd">
<svg version="1.1" id="Icons" xmlns="http://www.w3.org/2000/svg" xmlns:xlink="http://www.w3.org/1999/xlink" x="0px" y="0px"
	 width="24px" height="24px" viewBox="0 0 24 24" enable-background="new 0 0 24 24" xml:space="preserve">
<path id="Route" d="M6.831,18.222l-1.676-1.675c-0.391-0.39-0.391-1.023,0-1.414c0.382-0.382,0.99-0.384,1.383-0.021V8.59
	c0-1.654,1.346-3,3-3H10c1.654,0,3,1.346,3,3v6.925c0,0.552,0.448,1,1,1h0.461c0.552,0,1-0.448,1-1V8.992
	c-0.191,0.178-0.432,0.272-0.676,0.272c-0.256,0-0.512-0.098-0.707-0.293c-0.391-0.391-0.391-1.024,0-1.414l1.676-1.675
	c0.391-0.391,1.022-0.39,1.413-0.001l1.676,1.672c0.392,0.391,0.392,1.023,0.002,1.414c-0.382,0.384-0.991,0.385-1.384,0.022v6.524
	c0,1.654-1.346,3-3,3H14c-1.654,0-3-1.346-3-3V8.59c0-0.552-0.448-1-1-1H9.538c-0.552,0-1,0.448-1,1v6.526
	c0.394-0.363,1.004-0.36,1.384,0.021c0.39,0.391,0.39,1.024-0.002,1.414l-1.676,1.671C7.441,18.867,6.831,18.222,6.831,18.222z
	 M18,2.053H6c-2.206,0-4,1.794-4,4v1.375c0,0.553,0.447,1,1,1s1-0.447,1-1V6.053c0-1.103,0.897-2,2-2h12c1.103,0,2,0.897,2,2v12
	c0,1.103-0.897,2-2,2H6c-1.103,0-2-0.897-2-2V10.84c0-0.553-0.447-1-1-1s-1,0.447-1,1v7.213c0,2.206,1.794,4,4,4h12
	c2.206,0,4-1.794,4-4v-12C22,3.847,20.206,2.053,18,2.053z"/>
</svg>
