<?xml version="1.0" encoding="utf-8"?>
<!-- Generator: Adobe Illustrator 26.5.0, SVG Export Plug-In . SVG Version: 6.00 Build 0)  -->
<svg version="1.1" id="Icons" xmlns="http://www.w3.org/2000/svg" xmlns:xlink="http://www.w3.org/1999/xlink" x="0px" y="0px"
	 viewBox="0 0 24 24" enable-background="new 0 0 24 24" xml:space="preserve">
<path id="Rug" d="M15.47,17.337c0.552,0,1-0.448,1-1l0-6.577c0-0.265-0.105-0.52-0.293-0.707S15.735,8.76,15.47,8.76h-0.54
	c-0.417-1.219-1.574-2.097-2.932-2.097S9.484,7.542,9.067,8.76H8.53c-0.552,0-1,0.448-1,1l0,6.577c0,0.265,0.105,0.52,0.293,0.707
	s0.442,0.293,0.707,0.293H15.47z M9.53,10.76h0.371c0.552,0,1-0.448,1-1c0-0.605,0.492-1.097,1.097-1.097s1.097,0.492,1.097,1.097
	c0,0.552,0.448,1,1,1h0.375l0,4.577H9.53L9.53,10.76z M19.833,3v18c0,0.552-0.448,1-1,1s-1-0.448-1-1v-0.603h-1.417V21
	c0,0.552-0.448,1-1,1s-1-0.448-1-1v-0.603H13V21c0,0.552-0.448,1-1,1s-1-0.448-1-1v-0.603H9.583V21c0,0.552-0.448,1-1,1
	s-1-0.448-1-1v-0.603H6.167V21c0,0.552-0.448,1-1,1s-1-0.448-1-1v-9.913c0-0.552,0.448-1,1-1s1,0.448,1,1v7.311h11.666V5.599H6.167
	v2.073c0,0.552-0.448,1-1,1s-1-0.448-1-1V3c0-0.552,0.448-1,1-1s1,0.448,1,1v0.599h1.417V3c0-0.552,0.448-1,1-1s1,0.448,1,1v0.599
	H11V3c0-0.552,0.448-1,1-1s1,0.448,1,1v0.599h1.417V3c0-0.552,0.448-1,1-1s1,0.448,1,1v0.599h1.417V3c0-0.552,0.448-1,1-1
	S19.833,2.448,19.833,3z"/>
</svg>
