<?xml version="1.0" encoding="utf-8"?>
<!-- Generator: Adobe Illustrator 25.4.1, SVG Export Plug-In . SVG Version: 6.00 Build 0)  -->
<svg version="1.1" id="Icons" xmlns="http://www.w3.org/2000/svg" xmlns:xlink="http://www.w3.org/1999/xlink" x="0px" y="0px"
	 viewBox="0 0 24 24" style="enable-background:new 0 0 24 24;" xml:space="preserve">
<g id="Sale-2">
	<g>
		<path d="M7.96,17.04c-0.256,0-0.512-0.098-0.707-0.293c-0.391-0.391-0.391-1.023,0-1.414l8.08-8.08
			c0.391-0.391,1.023-0.391,1.414,0s0.391,1.023,0,1.414l-8.08,8.08C8.472,16.942,8.216,17.04,7.96,17.04z"/>
	</g>
	<g>
		<g>
			<path d="M9.125,11.694c-1.432,0-2.597-1.165-2.597-2.596c0-1.432,1.165-2.597,2.597-2.597c1.432,0,2.597,1.165,2.597,2.597
				C11.722,10.529,10.557,11.694,9.125,11.694z M9.125,8.5c-0.329,0-0.597,0.268-0.597,0.597c0,0.329,0.268,0.596,0.597,0.596
				s0.597-0.268,0.597-0.596C9.722,8.769,9.454,8.5,9.125,8.5z"/>
		</g>
		<g>
			<path d="M14.875,17.5c-1.432,0-2.597-1.165-2.597-2.597c0-1.432,1.165-2.597,2.597-2.597c1.432,0,2.597,1.165,2.597,2.597
				C17.472,16.334,16.307,17.5,14.875,17.5z M14.875,14.306c-0.329,0-0.597,0.268-0.597,0.597s0.268,0.597,0.597,0.597
				s0.597-0.268,0.597-0.597S15.204,14.306,14.875,14.306z"/>
		</g>
	</g>
	<g>
		<path d="M11.99,21.979c-0.748,0-1.495-0.285-2.064-0.854l-0.943-0.943c-0.173-0.173-0.41-0.272-0.65-0.272h-1.32
			c-1.612,0-2.923-1.311-2.923-2.923v-0.536c0-0.552,0.448-1,1-1s1,0.448,1,1v0.536c0,0.509,0.414,0.923,0.923,0.923h1.32
			c0.766,0,1.519,0.313,2.064,0.858l0.943,0.943c0.365,0.365,0.937,0.365,1.3,0l0.943-0.943c0.546-0.546,1.299-0.858,2.064-0.858
			h1.338c0.509,0,0.923-0.414,0.923-0.923v-1.32c0-0.766,0.313-1.519,0.858-2.064l0.943-0.943c0.177-0.177,0.274-0.413,0.272-0.663
			c-0.001-0.241-0.095-0.464-0.264-0.628l-0.952-0.952c-0.545-0.545-0.858-1.298-0.858-2.064V7.014c0-0.509-0.414-0.923-0.923-0.923
			h-1.319c-0.767,0-1.519-0.313-2.064-0.858L12.66,4.29c-0.364-0.364-0.936-0.363-1.3,0l-0.943,0.943
			C9.871,5.778,9.119,6.091,8.352,6.091H7.014c-0.509,0-0.923,0.414-0.923,0.923v1.32c0,0.766-0.313,1.519-0.858,2.064L4.29,11.34
			c-0.364,0.365-0.364,0.936,0,1.3c0.391,0.391,0.405,1.038,0.014,1.428c-0.39,0.39-1.008,0.406-1.4,0.014
			c-1.167-1.167-1.167-3.019-0.028-4.157l0.943-0.943c0.173-0.173,0.272-0.41,0.272-0.65v-1.32c0-1.612,1.311-2.923,2.923-2.923
			h1.338c0.24,0,0.477-0.099,0.65-0.272l0.943-0.943c1.137-1.139,2.99-1.14,4.128,0l0.943,0.943c0.173,0.173,0.41,0.272,0.65,0.272
			h1.319c1.612,0,2.923,1.311,2.923,2.923v1.338c0,0.24,0.099,0.477,0.272,0.65l0.943,0.943c0.545,0.531,0.854,1.258,0.858,2.038
			c0.005,0.79-0.3,1.532-0.858,2.09l-0.943,0.943c-0.173,0.173-0.272,0.41-0.272,0.65v1.32c0,1.612-1.311,2.923-2.923,2.923h-1.338
			c-0.24,0-0.477,0.1-0.651,0.273l-0.942,0.942C13.486,21.694,12.738,21.979,11.99,21.979z"/>
	</g>
</g>
</svg>
