<?xml version="1.0" encoding="utf-8"?>
<!-- Generator: Adobe Illustrator 25.4.1, SVG Export Plug-In . SVG Version: 6.00 Build 0)  -->
<svg version="1.1" id="Icons" xmlns="http://www.w3.org/2000/svg" xmlns:xlink="http://www.w3.org/1999/xlink" x="0px" y="0px"
	 viewBox="0 0 24 24" style="enable-background:new 0 0 24 24;" xml:space="preserve">
<g id="Sale-1">
	<g>
		<path d="M7.96,17.04c-0.256,0-0.512-0.098-0.707-0.293c-0.391-0.391-0.391-1.023,0-1.414l8.08-8.08
			c0.391-0.391,1.023-0.391,1.414,0s0.391,1.023,0,1.414l-8.08,8.08C8.472,16.942,8.216,17.04,7.96,17.04z"/>
	</g>
	<g>
		<g>
			<path d="M9.125,11.694c-1.432,0-2.597-1.165-2.597-2.596c0-1.432,1.165-2.597,2.597-2.597c1.432,0,2.597,1.165,2.597,2.597
				C11.722,10.529,10.557,11.694,9.125,11.694z M9.125,8.5c-0.329,0-0.597,0.268-0.597,0.597c0,0.329,0.268,0.596,0.597,0.596
				s0.597-0.268,0.597-0.596C9.722,8.769,9.454,8.5,9.125,8.5z"/>
		</g>
		<g>
			<path d="M14.875,17.5c-1.432,0-2.597-1.165-2.597-2.597c0-1.432,1.165-2.597,2.597-2.597s2.597,1.165,2.597,2.597
				C17.472,16.334,16.307,17.5,14.875,17.5z M14.875,14.306c-0.329,0-0.597,0.268-0.597,0.597s0.268,0.597,0.597,0.597
				s0.597-0.268,0.597-0.597S15.204,14.306,14.875,14.306z"/>
		</g>
	</g>
	<g>
		<path d="M11.998,22c-4.223,0-8.009-2.679-9.421-6.667c-0.184-0.521,0.088-1.092,0.609-1.276c0.516-0.186,1.091,0.088,1.276,0.609
			C5.592,17.856,8.621,20,11.998,20C16.41,20,20,16.41,20,11.998s-3.59-8.001-8.002-8.001c-4.3,0-7.807,3.369-7.983,7.669
			c-0.022,0.552-0.477,0.978-1.04,0.958c-0.552-0.022-0.981-0.488-0.958-1.04c0.221-5.376,4.605-9.587,9.981-9.587
			C17.513,1.997,22,6.483,22,11.998C22,17.513,17.513,22,11.998,22z"/>
	</g>
</g>
</svg>
