<?xml version="1.0" encoding="utf-8"?>
<!-- Generator: Adobe Illustrator 25.4.1, SVG Export Plug-In . SVG Version: 6.00 Build 0)  -->
<svg version="1.1" id="Icons" xmlns="http://www.w3.org/2000/svg" xmlns:xlink="http://www.w3.org/1999/xlink" x="0px" y="0px"
	 viewBox="0 0 24 24" style="enable-background:new 0 0 24 24;" xml:space="preserve">
<g id="Sandwich">
	<path d="M21.571,15.749c-0.028-0.657-0.068-1.558-0.953-2.442c-0.885-0.885-1.785-0.924-2.443-0.953
		c-0.555-0.024-0.793-0.047-1.115-0.369c-0.322-0.322-0.344-0.56-0.368-1.115c-0.029-0.657-0.067-1.558-0.953-2.443
		c-0.885-0.885-1.785-0.924-2.443-0.953c-0.555-0.024-0.793-0.046-1.115-0.368s-0.344-0.56-0.368-1.115
		c-0.029-0.658-0.067-1.558-0.953-2.443C9.976,2.664,9.075,2.625,8.418,2.596C8.278,2.59,8.139,2.585,7.999,2.568
		C7.57,2.519,7.156,2.744,6.972,3.135L6.197,4.783L5.85,4.436C5.203,3.789,4.238,3.597,3.392,3.947C2.546,4.297,2,5.115,2,6.03v5.15
		c0,0.552,0.448,1,1,1s1-0.448,1-1V6.03c0-0.113,0.053-0.192,0.158-0.236C4.263,5.75,4.355,5.77,4.436,5.85L18.15,19.564
		c0.08,0.08,0.098,0.173,0.055,0.278C18.162,19.947,18.083,20,17.97,20H4.495C4.222,20,4,19.778,4,19.505v-4.914
		c0-0.552-0.448-1-1-1s-1,0.448-1,1v4.914C2,20.881,3.119,22,4.495,22H17.97c0.916,0,1.733-0.546,2.083-1.392
		s0.159-1.811-0.489-2.458l-0.177-0.177l1.647-0.779c0.39-0.185,0.618-0.598,0.564-1.027C21.582,16.028,21.577,15.888,21.571,15.749
		z M17.886,16.472L7.7,6.286l0.792-1.684c0.444,0.024,0.666,0.072,0.955,0.361c0.322,0.322,0.344,0.56,0.368,1.115
		c0.029,0.657,0.067,1.558,0.953,2.442c0.885,0.885,1.785,0.924,2.443,0.953c0.555,0.024,0.793,0.046,1.115,0.368
		s0.344,0.56,0.368,1.115c0.029,0.657,0.067,1.558,0.953,2.443c0.885,0.885,1.785,0.924,2.443,0.953
		c0.555,0.024,0.793,0.047,1.115,0.369c0.29,0.289,0.337,0.511,0.361,0.957L17.886,16.472z"/>
	<path d="M12.474,18.707C12.669,18.902,12.925,19,13.181,19s0.512-0.098,0.707-0.293c0.391-0.391,0.391-1.023,0-1.414l-6.897-6.896
		c-0.391-0.391-1.023-0.391-1.414,0s-0.391,1.023,0,1.414L12.474,18.707z"/>
	<path d="M5.498,16.363l2.344,2.344C8.038,18.902,8.293,19,8.549,19s0.512-0.098,0.707-0.293c0.391-0.391,0.391-1.023,0-1.414
		l-2.344-2.344c-0.391-0.391-1.023-0.391-1.414,0S5.107,15.972,5.498,16.363z"/>
</g>
</svg>
