<?xml version="1.0" encoding="utf-8"?>
<!-- Generator: Adobe Illustrator 16.0.0, SVG Export Plug-In . SVG Version: 6.00 Build 0)  -->
<!DOCTYPE svg PUBLIC "-//W3C//DTD SVG 1.0//EN" "http://www.w3.org/TR/2001/REC-SVG-20010904/DTD/svg10.dtd">
<svg version="1.0" id="Layer_1" xmlns="http://www.w3.org/2000/svg" xmlns:xlink="http://www.w3.org/1999/xlink" x="0px" y="0px"
	 width="100px" height="100px" viewBox="0 0 100 100" enable-background="new 0 0 100 100" xml:space="preserve">
<path d="M80,50h-9.817c-0.629-1.237-1.364-2.386-2.152-3.489l-3.77,6.533c1.514,3.014,2.402,6.526,2.406,10.296l6.666-0.007
	c-0.003-2.308-0.286-4.531-0.768-6.666h3.313L82.546,70H17.455l6.667-13.333h3.311c-0.482,2.135-0.765,4.358-0.765,6.666h6.667
	c0-9.59,5.657-17.617,13.177-19.551l4.083-7.07c-0.195-0.006-0.388-0.045-0.586-0.045c-8.64,0-16.159,5.371-20.196,13.333H20L10,70
	v20h80V70L80,50z M83.333,83.333H16.667v-6.666h66.667V83.333z"/>
<polygon points="68.457,19.108 62.683,15.774 66.016,10 83.333,20 80,25.774 74.229,22.441 54.47,56.667 46.771,56.667 "/>
</svg>
