<?xml version="1.0" encoding="utf-8"?>
<!-- Generator: Adobe Illustrator 25.4.1, SVG Export Plug-In . SVG Version: 6.00 Build 0)  -->
<svg version="1.1" id="Icons" xmlns="http://www.w3.org/2000/svg" xmlns:xlink="http://www.w3.org/1999/xlink" x="0px" y="0px"
	 viewBox="0 0 24 24" style="enable-background:new 0 0 24 24;" xml:space="preserve">
<g id="Saucepan">
	<path d="M19.737,7.317h-3.285c-0.144-1.034-1.025-1.836-2.098-1.836h-4.027l0.001-1.008h0.741c0.553,0,1-0.448,1-1s-0.447-1-1-1
		H7.576c-0.553,0-1,0.448-1,1s0.447,1,1,1h0.751L8.326,5.481H4.127C2.954,5.481,2,6.436,2,7.608v3.513c0,0.552,0.447,1,1,1
		s1-0.448,1-1v-0.312h10.481v3.625c0,0.79-0.643,1.432-1.433,1.432H5.433c-0.767,0-1.393-0.604-1.424-1.375
		c-0.022-0.552-0.47-0.991-1.04-0.958c-0.552,0.022-0.98,0.488-0.958,1.04c0.058,1.426,0.97,2.605,2.23,3.072L4.24,19.555H3.24
		c-0.553,0-1,0.448-1,1s0.447,1,1,1h12c0.553,0,1-0.448,1-1s-0.447-1-1-1H14.24l0.001-1.915c1.305-0.487,2.241-1.734,2.241-3.206
		v-1.959h3.256c1.282,0,2.325-1.043,2.325-2.326V9.643C22.062,8.36,21.02,7.317,19.737,7.317z M6.24,17.866h2L8.24,19.555h-2
		L6.24,17.866z M10.24,19.555l0.001-1.689h2l-0.001,1.689H10.24z M4,8.809V7.608c0-0.07,0.057-0.127,0.127-0.127h10.227
		c0.07,0,0.128,0.057,0.128,0.127v1.201H4z M20.062,10.149c0,0.18-0.146,0.326-0.325,0.326h-3.256V9.317h3.256
		c0.18,0,0.325,0.146,0.325,0.326V10.149z"/>
</g>
</svg>
