<?xml version="1.0" encoding="utf-8"?>
<!-- Generator: Adobe Illustrator 26.3.1, SVG Export Plug-In . SVG Version: 6.00 Build 0)  -->
<svg version="1.1" id="Icons" xmlns="http://www.w3.org/2000/svg" xmlns:xlink="http://www.w3.org/1999/xlink" x="0px" y="0px"
	 viewBox="0 0 24 24" style="enable-background:new 0 0 24 24;" xml:space="preserve">
<g id="School">
	<path d="M12,14.112c1.509,0,2.736-1.228,2.736-2.736S13.509,8.639,12,8.639s-2.736,1.228-2.736,2.736S10.491,14.112,12,14.112z
		 M12,10.639c0.406,0,0.736,0.33,0.736,0.736s-0.33,0.736-0.736,0.736s-0.736-0.33-0.736-0.736S11.594,10.639,12,10.639z"/>
	<path d="M21,10.204h-2.5v-1.04c0-0.332-0.165-0.642-0.439-0.828L13,4.906V4h1.441c0.552,0,1-0.448,1-1s-0.448-1-1-1H12
		c-0.552,0-1,0.448-1,1v1.906L5.939,8.337C5.665,8.523,5.5,8.833,5.5,9.165v1.04H3c-0.552,0-1,0.448-1,1v2.91c0,0.552,0.448,1,1,1
		s1-0.448,1-1v-1.91h1.5V20H4v-2.471c0-0.552-0.448-1-1-1s-1,0.448-1,1V21c0,0.552,0.448,1,1,1h18c0.552,0,1-0.448,1-1v-9.796
		C22,10.652,21.552,10.204,21,10.204z M7.5,9.695L12,6.644l4.5,3.051V20h-1.389v-2c0-1.753-1.396-3.179-3.111-3.179
		S8.889,16.247,8.889,18v2H7.5V9.695z M13.111,20h-2.222v-2c0-0.65,0.499-1.179,1.111-1.179S13.111,17.35,13.111,18V20z M20,20h-1.5
		v-7.796H20V20z"/>
</g>
</svg>
