<?xml version="1.0" encoding="utf-8"?>
<!-- Generator: Adobe Illustrator 25.4.1, SVG Export Plug-In . SVG Version: 6.00 Build 0)  -->
<svg version="1.1" id="Icons" xmlns="http://www.w3.org/2000/svg" xmlns:xlink="http://www.w3.org/1999/xlink" x="0px" y="0px"
	 viewBox="0 0 24 24" style="enable-background:new 0 0 24 24;" xml:space="preserve">
<g id="Scroll">
	<g>
		<g>
			<path d="M12,18.537c-0.276,0.024-0.65-0.197-0.748-0.337c-0.131-0.152-2.814-3.16-2.879-3.242
				c-0.796-1.072,0.749-2.201,1.535-1.28C9.967,13.744,12,16.031,12,16.031l2.096-2.356c0.871-0.974,2.36,0.348,1.494,1.329
				c0,0-2.843,3.197-2.843,3.197C12.558,18.415,12.285,18.537,12,18.537z"/>
		</g>
		<g>
			<path d="M9.157,10.661c-0.236,0-0.474-0.083-0.664-0.252C8.08,10.042,8.043,9.409,8.41,8.997l2.841-3.197
				c0.377-0.427,1.113-0.429,1.494,0l2.843,3.197c0.367,0.413,0.33,1.045-0.083,1.412c-0.413,0.366-1.045,0.33-1.411-0.083
				l-2.096-2.356l-2.094,2.356C9.707,10.547,9.433,10.661,9.157,10.661z"/>
		</g>
	</g>
	<g>
		<path d="M12,22C6.486,22,2,17.514,2,12c0-1.186,0.216-2.362,0.641-3.497c0.194-0.517,0.771-0.781,1.287-0.586
			c0.518,0.194,0.779,0.77,0.586,1.287C4.173,10.114,4,11.055,4,12c0,4.411,3.589,8,8,8s8-3.589,8-8s-3.589-8-8-8
			C9.765,4,7.612,4.954,6.096,6.618C5.722,7.026,5.089,7.054,4.683,6.683C4.274,6.311,4.245,5.679,4.617,5.271
			C6.513,3.192,9.203,2,12,2c5.514,0,10,4.486,10,10S17.514,22,12,22z"/>
	</g>
</g>
</svg>
