<?xml version="1.0" encoding="utf-8"?>
<!-- Generator: Adobe Illustrator 25.4.1, SVG Export Plug-In . SVG Version: 6.00 Build 0)  -->
<svg version="1.1" id="Icons" xmlns="http://www.w3.org/2000/svg" xmlns:xlink="http://www.w3.org/1999/xlink" x="0px" y="0px"
	 viewBox="0 0 24 24" style="enable-background:new 0 0 24 24;" xml:space="preserve">
<g id="Search-code">
	<path d="M21.219,17.496l-3.482-3.482c0.559-1.117,0.882-2.372,0.882-3.704C18.618,5.728,14.892,2,10.311,2
		C6.455,2,3.135,4.62,2.236,8.371c-0.128,0.537,0.203,1.077,0.74,1.206c0.537,0.127,1.077-0.202,1.206-0.74
		C4.863,5.989,7.384,4,10.311,4c3.479,0,6.308,2.831,6.308,6.311c0,3.479-2.829,6.31-6.308,6.31c-2.928,0-5.449-1.99-6.13-4.838
		c-0.128-0.537-0.666-0.867-1.205-0.74c-0.538,0.128-0.869,0.668-0.74,1.205C3.133,16,6.454,18.62,10.311,18.62
		c1.332,0,2.587-0.323,3.704-0.883l3.481,3.482C18.018,21.74,18.701,22,19.382,22c0.674,0,1.345-0.254,1.854-0.765
		C22.263,20.209,22.255,18.532,21.219,17.496z M19.822,19.822c-0.243,0.243-0.662,0.233-0.912-0.017l-3.198-3.193
		c0.321-0.276,0.621-0.576,0.897-0.897l3.196,3.196C20.057,19.162,20.064,19.58,19.822,19.822z"/>
	<path d="M9.214,7.408c-0.368-0.414-1-0.451-1.412-0.083L5.284,9.563c-0.214,0.19-0.336,0.462-0.336,0.748s0.122,0.558,0.335,0.747
		l2.518,2.239c0.19,0.169,0.428,0.253,0.664,0.253c0.276,0,0.55-0.113,0.748-0.335c0.367-0.413,0.33-1.045-0.083-1.412L7.453,10.31
		L9.13,8.82C9.543,8.453,9.581,7.821,9.214,7.408z"/>
	<path d="M11.404,13.212c0.198,0.222,0.472,0.335,0.748,0.335c0.236,0,0.474-0.083,0.664-0.252l2.518-2.239
		c0.214-0.19,0.336-0.462,0.336-0.748s-0.122-0.558-0.336-0.748l-2.519-2.238c-0.412-0.367-1.045-0.331-1.412,0.083
		c-0.367,0.413-0.33,1.045,0.083,1.412l1.678,1.49L11.487,11.8C11.075,12.167,11.038,12.799,11.404,13.212z"/>
</g>
</svg>
