<?xml version="1.0" encoding="utf-8"?>
<!-- Generator: Adobe Illustrator 26.5.0, SVG Export Plug-In . SVG Version: 6.00 Build 0)  -->
<svg version="1.1" id="Icons" xmlns="http://www.w3.org/2000/svg" xmlns:xlink="http://www.w3.org/1999/xlink" x="0px" y="0px"
	 viewBox="0 0 24 24" enable-background="new 0 0 24 24" xml:space="preserve">
<path id="Shampoo" d="M14.881,5.973V4h0.338c0.521,0,0.945,0.424,0.945,0.944c0,0.552,0.448,1,1,1s1-0.448,1-1
	C18.164,3.321,16.843,2,15.219,2H7.836c-0.552,0-1,0.448-1,1s0.448,1,1,1h1.283v1.973C6.925,6.367,5.252,8.28,5.252,10.586v2.447
	c0,0.552,0.448,1,1,1s1-0.448,1-1v-0.273h9.495v2.689H6.252c-0.552,0-1,0.448-1,1v2.521c0,1.671,1.359,3.03,3.03,3.03h7.436
	c1.67,0,3.03-1.359,3.03-3.03v-8.384C18.748,8.28,17.075,6.367,14.881,5.973z M16.748,18.97c0,0.568-0.462,1.03-1.03,1.03H8.282
	c-0.568,0-1.03-0.462-1.03-1.03v-1.521h9.495V18.97z M12.881,4v1.889h-1.762V4H12.881z M7.252,10.759v-0.173
	c0-1.487,1.21-2.697,2.697-2.697h4.102c1.487,0,2.697,1.21,2.697,2.697v0.173H7.252z"/>
</svg>
