<svg fill="#000000" xmlns="http://www.w3.org/2000/svg"  viewBox="0 0 16 16" width="16px" height="16px"><path d="M 8.015625 2 A 0.50005 0.50005 0 0 0 7.7910156 2.046875 L 1.2910156 5.046875 A 0.50005 0.50005 0 0 0 1.2910156 5.953125 L 7.7910156 8.953125 A 0.50005 0.50005 0 0 0 8.2089844 8.953125 L 14.708984 5.953125 A 0.50005 0.50005 0 0 0 14.708984 5.046875 L 8.2089844 2.046875 A 0.50005 0.50005 0 0 0 8.015625 2 z M 8 3.0488281 L 13.308594 5.5 L 8 7.9492188 L 2.6914062 5.5 L 8 3.0488281 z M 14.517578 6.9863281 A 0.50005 0.50005 0 0 0 14.291016 7.046875 L 8 9.9492188 L 1.7089844 7.046875 A 0.50005 0.50005 0 0 0 1.4667969 6.9980469 A 0.50005 0.50005 0 0 0 1.2910156 7.953125 L 7.7910156 10.953125 A 0.50005 0.50005 0 0 0 8.2089844 10.953125 L 14.708984 7.953125 A 0.50005 0.50005 0 0 0 14.517578 6.9863281 z M 14.517578 8.9863281 A 0.50005 0.50005 0 0 0 14.291016 9.046875 L 8 11.949219 L 1.7089844 9.046875 A 0.50005 0.50005 0 0 0 1.4667969 8.9980469 A 0.50005 0.50005 0 0 0 1.2910156 9.953125 L 7.7910156 12.953125 A 0.50005 0.50005 0 0 0 8.2089844 12.953125 L 14.708984 9.953125 A 0.50005 0.50005 0 0 0 14.517578 8.9863281 z"/></svg>