<?xml version="1.0" encoding="utf-8"?>
<!-- Generator: Adobe Illustrator 16.0.0, SVG Export Plug-In . SVG Version: 6.00 Build 0)  -->
<!DOCTYPE svg PUBLIC "-//W3C//DTD SVG 1.0//EN" "http://www.w3.org/TR/2001/REC-SVG-20010904/DTD/svg10.dtd">
<svg version="1.0" id="Layer_1" xmlns="http://www.w3.org/2000/svg" xmlns:xlink="http://www.w3.org/1999/xlink" x="0px" y="0px"
	 width="100px" height="100px" viewBox="0 0 100 100" enable-background="new 0 0 100 100" xml:space="preserve">
<path d="M84.453,66.301l-31.12-20.745V40c0-1.832-1.5-3.333-3.333-3.333c-3.682,0-6.667-2.985-6.667-6.667s2.985-6.667,6.667-6.667
	s6.667,2.985,6.667,6.667h6.666c0-7.363-5.97-13.333-13.333-13.333s-13.333,5.97-13.333,13.333c0,6.205,4.258,11.374,10,12.863
	v2.692l-31.12,20.745C12.497,68.34,10,73,10,76.666v6.666h80v-6.666C90,73,87.503,68.34,84.453,66.301z M16.667,76.666
	c0-1.445,1.373-4.01,2.578-4.818L50,51.348l30.755,20.5c1.205,0.809,2.578,3.373,2.578,4.818H16.667z"/>
</svg>
