<?xml version="1.0" encoding="utf-8"?>
<!-- Generator: Adobe Illustrator 26.5.0, SVG Export Plug-In . SVG Version: 6.00 Build 0)  -->
<svg version="1.1" id="Icons" xmlns="http://www.w3.org/2000/svg" xmlns:xlink="http://www.w3.org/1999/xlink" x="0px" y="0px"
	 viewBox="0 0 24 24" enable-background="new 0 0 24 24" xml:space="preserve">
<path id="Shower" d="M15,18.708V21c0,0.552-0.447,1-1,1s-1-0.448-1-1v-2.292c0-0.552,0.447-1,1-1S15,18.156,15,18.708z M10,17.708
	c-0.552,0-1,0.448-1,1V21c0,0.552,0.448,1,1,1s1-0.448,1-1v-2.292C11,18.156,10.552,17.708,10,17.708z M18,17.708
	c-0.553,0-1,0.448-1,1V21c0,0.552,0.447,1,1,1s1-0.448,1-1v-2.292C19,18.156,18.553,17.708,18,17.708z M6,17.708
	c-0.552,0-1,0.448-1,1V21c0,0.552,0.448,1,1,1s1-0.448,1-1v-2.292C7,18.156,6.552,17.708,6,17.708z M20.586,14.613
	C20.134,10.636,16.975,7.472,13,7.012L13,3c0-0.552-0.448-1-1-1s-1,0.448-1,1l0,4.008C9.98,7.126,8.994,7.425,8.061,7.904
	C7.569,8.156,7.375,8.759,7.627,9.25C7.878,9.742,8.48,9.936,8.973,9.684C9.924,9.196,10.942,8.949,12,8.949
	c3.324,0,6.078,2.456,6.563,5.646H5.434c0.164-1.081,0.591-2.103,1.266-2.997c0.333-0.441,0.246-1.068-0.195-1.401
	c-0.442-0.333-1.068-0.247-1.401,0.195c-0.943,1.248-1.497,2.693-1.672,4.216C2.913,14.646,2.5,15.067,2.5,15.596
	c0,0.552,0.448,1,1,1h17c0.553,0,1-0.448,1-1C21.5,15.074,21.096,14.659,20.586,14.613z"/>
</svg>
