<svg fill="#000000" xmlns="http://www.w3.org/2000/svg"  viewBox="0 0 16 16" width="16px" height="16px"><path d="M 1.5 2 A 0.50005 0.50005 0 0 0 1 2.5 L 1 12.5 A 0.50005 0.50005 0 0 0 1.5 13 L 4.5 13 L 11.5 13 L 14.5 13 A 0.50005 0.50005 0 0 0 15 12.5 L 15 2.5 A 0.50005 0.50005 0 0 0 14.5 2 C 13.116667 2 12.200747 2.5811223 11.685547 3.1699219 C 11.570635 3.3012495 11.479765 3.4333264 11.398438 3.5605469 C 10.781207 2.8979791 9.6232847 2 7.875 2 C 6.1871084 2 5.1386811 2.8542384 4.5722656 3.5214844 C 4.4962725 3.4061162 4.4177913 3.2880226 4.3144531 3.1699219 C 3.7992535 2.5811223 2.8833333 2 1.5 2 z M 7.875 3 C 10.013385 3 10.921622 4.5358379 11 4.671875 L 11 12 L 5 12 L 5 4.6445312 C 5.0448204 4.5389653 5.715837 3 7.875 3 z M 2 3.0996094 C 2.7493261 3.2159622 3.2691989 3.497109 3.5605469 3.8300781 C 3.6126544 3.8896296 3.6485089 3.9438202 3.6894531 4 L 2 4 L 2 3.0996094 z M 14 3.0996094 L 14 4 L 12.310547 4 C 12.351489 3.9438202 12.387346 3.8896296 12.439453 3.8300781 C 12.730801 3.497109 13.250674 3.2159622 14 3.0996094 z M 2 5 L 4 5 L 4 6 L 2 6 L 2 5 z M 12 5 L 14 5 L 14 6 L 12 6 L 12 5 z M 2 7 L 4 7 L 4 8 L 2 8 L 2 7 z M 12 7 L 14 7 L 14 8 L 12 8 L 12 7 z M 2 9 L 4 9 L 4 10 L 2 10 L 2 9 z M 12 9 L 14 9 L 14 10 L 12 10 L 12 9 z M 2 11 L 4 11 L 4 12 L 2 12 L 2 11 z M 12 11 L 14 11 L 14 12 L 12 12 L 12 11 z"/></svg>