<?xml version="1.0" encoding="utf-8"?>
<!-- Generator: Adobe Illustrator 25.4.1, SVG Export Plug-In . SVG Version: 6.00 Build 0)  -->
<svg version="1.1" id="Icons" xmlns="http://www.w3.org/2000/svg" xmlns:xlink="http://www.w3.org/1999/xlink" x="0px" y="0px"
	 viewBox="0 0 24 24" style="enable-background:new 0 0 24 24;" xml:space="preserve">
<g id="Sieve">
	<path d="M21,4.296H3c-0.553,0-1,0.448-1,1s0.447,1,1,1h0.517c-0.1,0.529-0.169,1.057-0.169,1.577c0,0.925,0.15,1.846,0.448,2.737
		c0.14,0.419,0.529,0.684,0.948,0.684c0.104,0,0.212-0.017,0.316-0.052c0.523-0.175,0.807-0.741,0.632-1.265
		C5.464,9.29,5.348,8.582,5.348,7.873c0-0.514,0.074-1.044,0.205-1.577h12.895c0.131,0.532,0.205,1.062,0.205,1.577
		c0,3.668-2.984,6.652-6.652,6.652c-1.807,0-3.498-0.715-4.762-2.013c-0.386-0.396-1.019-0.404-1.414-0.019
		c-0.396,0.385-0.404,1.019-0.02,1.414c0.492,0.505,1.039,0.933,1.619,1.298l-1.362,3.097c-0.137,0.309-0.107,0.666,0.077,0.949
		c0.186,0.283,0.5,0.454,0.838,0.454h10.045c0.338,0,0.652-0.17,0.838-0.454c0.185-0.283,0.214-0.64,0.077-0.949l-1.363-3.099
		c2.444-1.531,4.078-4.24,4.078-7.33c0-0.519-0.069-1.047-0.169-1.577H21c0.553,0,1-0.448,1-1S21.553,4.296,21,4.296z M15.49,17.704
		H8.51l0.72-1.639c0.881,0.298,1.811,0.46,2.77,0.46c0.969,0,1.898-0.167,2.769-0.463L15.49,17.704z"/>
	<path d="M7.494,7.438H7.101c-0.553,0-1,0.448-1,1s0.447,1,1,1h0.394c0.553,0,1-0.448,1-1S8.047,7.438,7.494,7.438z"/>
	<path d="M10.629,7.438h-0.394c-0.553,0-1,0.448-1,1s0.447,1,1,1h0.394c0.553,0,1-0.448,1-1S11.182,7.438,10.629,7.438z"/>
	<path d="M13.765,7.438h-0.394c-0.553,0-1,0.448-1,1s0.447,1,1,1h0.394c0.553,0,1-0.448,1-1S14.317,7.438,13.765,7.438z"/>
	<path d="M16.506,9.438h0.394c0.553,0,1-0.448,1-1s-0.447-1-1-1h-0.394c-0.553,0-1,0.448-1,1S15.953,9.438,16.506,9.438z"/>
	<path d="M7.87,11.285c0,0.552,0.447,1,1,1h0.394c0.553,0,1-0.448,1-1s-0.447-1-1-1H8.87C8.317,10.285,7.87,10.732,7.87,11.285z"/>
	<path d="M11.005,11.285c0,0.552,0.447,1,1,1h0.394c0.553,0,1-0.448,1-1s-0.447-1-1-1h-0.394
		C11.452,10.285,11.005,10.732,11.005,11.285z"/>
	<path d="M14.141,11.285c0,0.552,0.447,1,1,1h0.394c0.553,0,1-0.448,1-1s-0.447-1-1-1h-0.394
		C14.588,10.285,14.141,10.732,14.141,11.285z"/>
</g>
</svg>
