<?xml version="1.0" encoding="utf-8"?>
<!-- Generator: Adobe Illustrator 16.0.0, SVG Export Plug-In . SVG Version: 6.00 Build 0)  -->
<!DOCTYPE svg PUBLIC "-//W3C//DTD SVG 1.1//EN" "http://www.w3.org/Graphics/SVG/1.1/DTD/svg11.dtd">
<svg version="1.1" id="Icons" xmlns="http://www.w3.org/2000/svg" xmlns:xlink="http://www.w3.org/1999/xlink" x="0px" y="0px"
	 width="24px" height="24px" viewBox="0 0 24 24" enable-background="new 0 0 24 24" xml:space="preserve">
<path id="Sign-out" d="M16.923,15.084c-0.392-0.39-0.392-1.023-0.002-1.415l1.669-1.672H15v6.001c0,2.206-1.794,4-4,4H6
	c-2.206,0-4-1.794-4-4V10.07c0-0.552,0.447-1,1-1s1,0.448,1,1v7.929c0,1.103,0.897,2,2,2h5c1.103,0,2-0.897,2-2v-6.001H7.053
	c-0.553,0-1-0.448-1-1s0.447-1,1-1H13V6.001c0-1.103-0.897-2-2-2H6c-1.103,0-2,0.897-2,2v0.656c0,0.552-0.447,1-1,1s-1-0.448-1-1
	V6.001c0-2.206,1.794-4,4-4h5c2.206,0,4,1.794,4,4v3.997h3.586l-1.672-1.671c-0.391-0.39-0.391-1.023,0-1.414s1.023-0.391,1.414,0
	l3.379,3.378c0.391,0.39,0.391,1.022,0.001,1.414l-3.371,3.378C17.621,15.8,16.923,15.084,16.923,15.084z M10,19.001
	c0.553,0,1-0.448,1-1s-0.447-1-1-1H7c-0.553,0-1,0.448-1,1s0.447,1,1,1H10z"/>
</svg>
