<?xml version="1.0" encoding="utf-8"?>
<!-- Generator: Adobe Illustrator 16.0.0, SVG Export Plug-In . SVG Version: 6.00 Build 0)  -->
<!DOCTYPE svg PUBLIC "-//W3C//DTD SVG 1.1//EN" "http://www.w3.org/Graphics/SVG/1.1/DTD/svg11.dtd">
<svg version="1.1" id="Icons" xmlns="http://www.w3.org/2000/svg" xmlns:xlink="http://www.w3.org/1999/xlink" x="0px" y="0px"
	 width="24px" height="24px" viewBox="0 0 24 24" enable-background="new 0 0 24 24" xml:space="preserve">
<path id="Sign-in" d="M22,10.998c0,0.552-0.447,1-1,1h-6v6.001c0,2.206-1.794,4-4,4H6c-2.206,0-4-1.794-4-4V10.07
	c0-0.552,0.447-1,1-1s1,0.448,1,1v7.929c0,1.103,0.897,2,2,2h5c1.103,0,2-0.897,2-2v-6.001H9.463l1.669,1.672
	c0.39,0.391,0.39,1.024-0.002,1.415c-0.195,0.195-0.45,0.292-0.706,0.292s-0.513-0.098-0.708-0.293l-3.371-3.378
	c-0.39-0.391-0.39-1.023,0.001-1.414l3.379-3.378c0.391-0.391,1.023-0.391,1.414,0s0.391,1.024,0,1.414L9.467,9.998H13V6.001
	c0-1.103-0.897-2-2-2H6c-1.103,0-2,0.897-2,2v0.656c0,0.552-0.447,1-1,1s-1-0.448-1-1V6.001c0-2.206,1.794-4,4-4h5
	c2.206,0,4,1.794,4,4v3.997h6C21.553,9.998,22,10.446,22,10.998z M10,19.001c0.553,0,1-0.448,1-1s-0.447-1-1-1H7
	c-0.553,0-1,0.448-1,1s0.447,1,1,1H10z"/>
</svg>
