<?xml version="1.0" encoding="utf-8"?>
<!-- Generator: Adobe Illustrator 26.5.0, SVG Export Plug-In . SVG Version: 6.00 Build 0)  -->
<svg version="1.1" id="Icons" xmlns="http://www.w3.org/2000/svg" xmlns:xlink="http://www.w3.org/1999/xlink" x="0px" y="0px"
	 viewBox="0 0 24 24" enable-background="new 0 0 24 24" xml:space="preserve">
<path id="Sink" d="M22,11.201c0-1.441-1.173-2.614-2.614-2.614l-2.027,0V8.148c0-0.552-0.447-1-1-1s-1,0.448-1,1v0.439l-2.358,0
	l0-3.408C13.028,4.057,13.987,4,14.179,4c0.192,0,1.151,0.057,1.18,1.18c0.015,0.552,0.469,1.008,1.025,0.974
	c0.552-0.014,0.988-0.473,0.975-1.025C17.306,3.074,15.72,2,14.18,2c-0.001,0-0.001,0-0.001,0C12.638,2,11.052,3.075,11,5.155v3.433
	l-2.358,0v-0.44c0-0.552-0.448-1-1-1s-1,0.448-1,1v0.44l-2.028,0C3.172,8.588,2,9.761,2,11.202c0,1.157,0.761,2.13,1.805,2.473
	c0.092,1.056,0.382,2.087,0.873,3.013c0.179,0.338,0.526,0.531,0.884,0.531c0.158,0,0.318-0.038,0.468-0.117
	c0.488-0.259,0.673-0.864,0.415-1.352c-0.317-0.598-0.522-1.256-0.617-1.935l12.336-0.001c-0.355,2.573-2.3,4.552-4.659,4.552
	h-3.008c-0.723,0-1.423-0.187-2.081-0.556c-0.479-0.27-1.09-0.099-1.361,0.383c-0.271,0.481-0.099,1.091,0.383,1.361
	c0.96,0.539,1.989,0.812,3.059,0.812H11l0.002,0.637c0.001,0.551,0.449,0.998,1,0.998c0.553,0,1.001-0.449,1-1.002L13,20.367h0.503
	c3.501,0,6.383-2.946,6.702-6.697C21.244,13.324,22,12.354,22,11.201z M4.614,10.588l14.772-0.001c0.339,0,0.614,0.275,0.614,0.614
	s-0.275,0.614-0.614,0.614L4.614,11.816C4.275,11.816,4,11.541,4,11.202S4.275,10.588,4.614,10.588z"/>
</svg>
