<?xml version="1.0" encoding="utf-8"?>
<!-- Generator: Adobe Illustrator 26.5.0, SVG Export Plug-In . SVG Version: 6.00 Build 0)  -->
<svg version="1.1" id="Icons" xmlns="http://www.w3.org/2000/svg" xmlns:xlink="http://www.w3.org/1999/xlink" x="0px" y="0px"
	 viewBox="0 0 24 24" enable-background="new 0 0 24 24" xml:space="preserve">
<path id="Sink-Mirror" d="M19.716,12.988H19.41V9.41C19.41,5.324,16.086,2,12,2C9.043,2,6.373,3.756,5.197,6.473
	C4.979,6.979,5.211,7.568,5.718,7.788c0.509,0.218,1.097-0.014,1.315-0.521C7.892,5.282,9.841,4,12,4c2.983,0,5.41,2.427,5.41,5.41
	v3.578h-5.296v-2.201c0-0.277,0.226-0.503,0.504-0.503s0.504,0.226,0.504,0.503c0,0.552,0.447,1,1,1s1-0.448,1-1
	c0-1.38-1.123-2.503-2.504-2.503s-2.504,1.123-2.504,2.503v2.201H6.59v-2.745c0-0.552-0.447-1-1-1s-1,0.448-1,1v2.745H4.284
	c-0.553,0-1,0.448-1,1c0,3.438,2.557,6.234,5.699,6.234h2.015V21c0,0.552,0.447,1,1,1s1-0.448,1-1v-0.777h2.019
	c3.143,0,5.699-2.797,5.699-6.234C20.716,13.436,20.269,12.988,19.716,12.988z M15.017,18.223H8.983
	c-1.739,0-3.201-1.38-3.595-3.234h13.223C18.218,16.842,16.756,18.223,15.017,18.223z"/>
</svg>
