<?xml version="1.0" encoding="utf-8"?>
<!-- Generator: Adobe Illustrator 26.3.1, SVG Export Plug-In . SVG Version: 6.00 Build 0)  -->
<svg version="1.1" id="Icons" xmlns="http://www.w3.org/2000/svg" xmlns:xlink="http://www.w3.org/1999/xlink" x="0px" y="0px"
	 viewBox="0 0 24 24" style="enable-background:new 0 0 24 24;" xml:space="preserve">
<g id="Skyscraper">
	<path d="M19.426,20H18.18V8.119c0-0.552-0.448-1-1-1h-0.982l0.003-1.913c0-0.265-0.105-0.52-0.292-0.708s-0.442-0.293-0.708-0.293
		h-2.198C13.001,3.67,13,2.981,13,2.981c-0.001-0.552-0.449-0.998-1-0.998c-0.553,0-1.001,0.449-1,1.002l0.002,1.22H8.799
		c-0.552,0-0.999,0.447-1,0.999L7.797,7.119H6.82c-0.552,0-1,0.448-1,1v3.366c0,0.552,0.448,1,1,1s1-0.448,1-1V9.119h8.359V20
		h-1.434v-8.946c0-0.552-0.448-1-1-1s-1,0.448-1,1V20h-1.491v-8.946c0-0.552-0.448-1-1-1s-1,0.448-1,1V20H7.82v-5.1
		c0-0.552-0.448-1-1-1s-1,0.448-1,1V20H4.574c-0.552,0-1,0.448-1,1s0.448,1,1,1h14.853c0.552,0,1-0.448,1-1S19.979,20,19.426,20z
		 M9.798,6.205h4.401l-0.001,0.914H9.797L9.798,6.205z"/>
</g>
</svg>
