<?xml version="1.0" encoding="utf-8"?>
<!-- Generator: Adobe Illustrator 26.5.0, SVG Export Plug-In . SVG Version: 6.00 Build 0)  -->
<svg version="1.1" id="Icons" xmlns="http://www.w3.org/2000/svg" xmlns:xlink="http://www.w3.org/1999/xlink" x="0px" y="0px"
	 viewBox="0 0 24 24" enable-background="new 0 0 24 24" xml:space="preserve">
<path id="Soap-Dispenser" d="M19.741,18.851l-1.004-8.411c-0.352-2.399-1.859-4.101-3.856-4.472V4h0.339
	c0.521,0,0.944,0.424,0.944,0.944c0,0.552,0.447,1,1,1s1-0.448,1-1C18.164,3.321,16.843,2,15.22,2H7.836c-0.553,0-1,0.448-1,1
	s0.447,1,1,1h1.283v1.966c-2.033,0.359-3.512,2.037-3.86,4.502l-0.078,0.659c-0.033,0.284,0.056,0.568,0.246,0.782
	c0.189,0.214,0.461,0.336,0.747,0.336H11l0,2.345c0,0.63-0.513,1.144-1.144,1.144c-0.553,0-1,0.448-1,1s0.447,1,1,1
	c1.733,0,3.144-1.41,3.144-3.144l0-2.345h3.939l0.809,6.774C17.721,19.564,17.27,20,16.718,20H7.282
	c-0.552,0-1.003-0.436-1.029-0.981l0.506-4.237c0.065-0.549-0.326-1.046-0.875-1.112c-0.554-0.061-1.046,0.327-1.111,0.875
	l-0.514,4.307c0,0-0.104,1.221,0.75,2.12c0,0,0.847,1.029,2.273,1.029h9.436c1.461,0,2.3-1.06,2.3-1.06
	C19.832,19.98,19.741,18.851,19.741,18.851z M12.881,4v1.889h-1.762V4H12.881z M7.336,10.245c0.302-1.212,1.111-2.356,2.613-2.356
	h1.05l0,2.356H7.336z M12.999,10.245l0-2.356h1.052c1.492,0,2.31,1.193,2.611,2.356H12.999z"/>
</svg>
