<?xml version="1.0" encoding="utf-8"?>
<!-- Generator: Adobe Illustrator 16.0.0, SVG Export Plug-In . SVG Version: 6.00 Build 0)  -->
<!DOCTYPE svg PUBLIC "-//W3C//DTD SVG 1.0//EN" "http://www.w3.org/TR/2001/REC-SVG-20010904/DTD/svg10.dtd">
<svg version="1.0" id="Layer_1" xmlns="http://www.w3.org/2000/svg" xmlns:xlink="http://www.w3.org/1999/xlink" x="0px" y="0px"
	 width="100px" height="100px" viewBox="0 0 100 100" enable-background="new 0 0 100 100" xml:space="preserve">
<path d="M83.333,57.278v-0.615c0-7.36-5.97-13.332-13.333-13.332l-40,0.002c-7.363,0-13.333,5.97-13.333,13.333v0.611
	C12.792,58.655,10,62.321,10,66.667V90h80V66.667C90,62.321,87.207,58.659,83.333,57.278z M30,50h40
	c3.675,0,6.667,2.988,6.667,6.663v0.615C72.793,58.655,70,62.321,70,66.667V70H30v-3.333c0-4.346-2.792-8.008-6.667-9.389v-0.611
	C23.333,52.988,26.323,50,30,50z M16.667,83.333V66.667c0-1.84,1.493-3.334,3.333-3.334s3.333,1.494,3.333,3.334v10h53.333v-10
	c0-1.84,1.49-3.334,3.333-3.334c1.839,0,3.333,1.494,3.333,3.334v16.666H16.667z"/>
<path d="M10,10v26.667h20V10H10z M23.333,30h-6.667V16.667h6.667V30z"/>
<path d="M36.667,10v26.667h26.667V10H36.667z M56.667,30H43.333V16.667h13.333V30z"/>
<path d="M70,10v26.667h20V10H70z M83.333,30h-6.666V16.667h6.666V30z"/>
</svg>
