<?xml version="1.0" encoding="utf-8"?>
<!-- Generator: Adobe Illustrator 26.5.0, SVG Export Plug-In . SVG Version: 6.00 Build 0)  -->
<svg version="1.1" id="Icons" xmlns="http://www.w3.org/2000/svg" xmlns:xlink="http://www.w3.org/1999/xlink" x="0px" y="0px"
	 viewBox="0 0 24 24" enable-background="new 0 0 24 24" xml:space="preserve">
<path id="Sofa" d="M21.001,9.713c-0.353-0.431-0.824-0.725-1.342-0.884V5.313C19.659,3.487,18.173,2,16.346,2H7.654
	C5.827,2,4.341,3.487,4.341,5.313v3.516C3.823,8.988,3.352,9.282,2.999,9.713c-0.533,0.649-0.744,1.494-0.58,2.318l0.166,0.828
	c0.107,0.542,0.633,0.893,1.176,0.785c0.542-0.108,0.893-0.635,0.785-1.176L4.38,11.64c-0.064-0.32,0.076-0.55,0.165-0.658
	c0.089-0.108,0.287-0.29,0.612-0.29c0.382,0,0.71,0.272,0.779,0.648l0.716,3.863c0.088,0.474,0.501,0.818,0.983,0.818h8.729
	c0.482,0,0.896-0.344,0.983-0.818l0.716-3.862c0.069-0.376,0.397-0.648,0.779-0.648c0.326,0,0.523,0.182,0.612,0.29
	c0.089,0.108,0.229,0.338,0.165,0.658l-0.938,4.706C18.43,17.319,17.551,18,16.544,18H7.456c-1.007,0-1.886-0.681-2.126-1.6
	l-0.116-0.583c-0.108-0.542-0.635-0.893-1.176-0.785c-0.542,0.108-0.894,0.634-0.785,1.176l0.128,0.639
	c0.354,1.365,1.356,2.422,2.623,2.889V21c0,0.552,0.448,1,1,1s1-0.448,1-1v-1h7.99v1c0,0.552,0.448,1,1,1s1-0.448,1-1v-1.264
	c1.269-0.469,2.274-1.538,2.637-2.944l0.95-4.761C21.745,11.207,21.534,10.362,21.001,9.713z M8.467,14.021l-0.206-1.115
	c2.461-0.408,5.018-0.411,7.48-0.008l-0.208,1.123H8.467z M16.109,10.933c-2.705-0.448-5.513-0.446-8.215,0.007
	c-0.178-0.891-0.771-1.605-1.553-1.974V5.313C6.341,4.589,6.93,4,7.654,4h8.692c0.724,0,1.313,0.589,1.313,1.313v3.653
	C16.88,9.333,16.288,10.045,16.109,10.933z"/>
</svg>
