<?xml version="1.0" encoding="utf-8"?>
<!-- Generator: Adobe Illustrator 16.0.0, SVG Export Plug-In . SVG Version: 6.00 Build 0)  -->
<!DOCTYPE svg PUBLIC "-//W3C//DTD SVG 1.0//EN" "http://www.w3.org/TR/2001/REC-SVG-20010904/DTD/svg10.dtd">
<svg version="1.0" id="Layer_1" xmlns="http://www.w3.org/2000/svg" xmlns:xlink="http://www.w3.org/1999/xlink" x="0px" y="0px"
	 width="100px" height="100px" viewBox="0 0 100 100" enable-background="new 0 0 100 100" xml:space="preserve">
<path d="M53.333,70H90L80,13.333H20L10,70h36.667v10H33.333v6.666h33.333V80H53.333V70z M66.687,63.334l-0.769-10H80.29l1.764,10
	H66.687z M42.051,36.667h15.898l0.769,10H41.283L42.051,36.667z M34.596,46.667H20.887l1.764-10h12.713L34.596,46.667z
	 M64.636,36.667h12.711l1.768,10H65.403L64.636,36.667z M76.172,30H64.121l-0.769-10h11.055L76.172,30z M56.667,20l0.768,10H42.563
	l0.77-10H56.667z M36.647,20l-0.77,10H23.828l1.764-10H36.647z M19.71,53.334h14.372l-0.768,10H17.946L19.71,53.334z M40,63.334
	l0.77-10h18.461l0.769,10H40z"/>
</svg>
