<?xml version="1.0" encoding="utf-8"?>
<!-- Generator: Adobe Illustrator 25.4.1, SVG Export Plug-In . SVG Version: 6.00 Build 0)  -->
<svg version="1.1" id="Icons" xmlns="http://www.w3.org/2000/svg" xmlns:xlink="http://www.w3.org/1999/xlink" x="0px" y="0px"
	 viewBox="0 0 24 24" style="enable-background:new 0 0 24 24;" xml:space="preserve">
<g id="Soup">
	<path d="M21.966,10.272c0-0.851-0.117-1.72-0.35-2.585c-0.117-0.437-0.514-0.741-0.966-0.741h-1.524l0.318-0.317
		c0.511-0.511,0.793-1.19,0.793-1.912c0-0.723-0.282-1.402-0.793-1.913c-1.056-1.054-2.772-1.052-3.824,0l-4.143,4.142H3.35
		c-0.452,0-0.849,0.304-0.966,0.741c-0.232,0.865-0.35,1.734-0.35,2.585c0,3.136,1.482,6.053,3.967,7.934V21c0,0.552,0.447,1,1,1
		h9.994c0.553,0,1-0.448,1-1v-2.792C20.483,16.327,21.966,13.409,21.966,10.272z M17.034,4.219c0.275-0.274,0.721-0.274,0.996,0
		c0.133,0.133,0.207,0.31,0.207,0.498c0,0.188-0.074,0.364-0.207,0.498l-1.733,1.732h-1.991L17.034,4.219z M4.373,12.526
		l2.756-0.001c0.553,0,1-0.448,1-1c0-0.552-0.448-1-1-1l-3.08,0.001c-0.003-0.085-0.015-0.169-0.015-0.254
		c0-0.436,0.039-0.879,0.117-1.326h15.697c0.078,0.447,0.117,0.89,0.117,1.326c0,0.084-0.012,0.166-0.015,0.25l-9.412,0.003
		c-0.553,0-1,0.448-1,1c0,0.552,0.448,1,1,1l9.089-0.003c-0.491,1.667-1.509,3.149-2.948,4.195l-9.364-0.002
		C5.881,15.67,4.865,14.19,4.373,12.526z M8.001,20v-1.285l7.994,0.002V20H8.001z"/>
	<path d="M6,6.144c0.553,0,1-0.448,1-1V3c0-0.552-0.447-1-1-1S5,2.447,5,3v2.145C5,5.696,5.447,6.144,6,6.144z"/>
	<path d="M10,6.144c0.553,0,1-0.448,1-1V3c0-0.552-0.447-1-1-1S9,2.447,9,3v2.145C9,5.696,9.447,6.144,10,6.144z"/>
</g>
</svg>
