<?xml version="1.0" encoding="utf-8"?>
<!-- Generator: Adobe Illustrator 25.4.1, SVG Export Plug-In . SVG Version: 6.00 Build 0)  -->
<svg version="1.1" id="Icons" xmlns="http://www.w3.org/2000/svg" xmlns:xlink="http://www.w3.org/1999/xlink" x="0px" y="0px"
	 viewBox="0 0 24 24" style="enable-background:new 0 0 24 24;" xml:space="preserve">
<g id="Spatula">
	<path d="M14.317,6.335l-2.411,2.41c-0.391,0.391-0.391,1.024,0,1.415c0.195,0.195,0.452,0.293,0.708,0.293s0.512-0.098,0.707-0.292
		l2.411-2.41c0.391-0.391,0.391-1.024,0-1.415C15.341,5.945,14.708,5.946,14.317,6.335z"/>
	<path d="M13.84,12.094c0.195,0.195,0.452,0.293,0.708,0.293s0.512-0.098,0.707-0.292l2.411-2.409c0.391-0.391,0.391-1.023,0-1.415
		c-0.391-0.391-1.024-0.39-1.415,0l-2.411,2.409C13.45,11.07,13.45,11.703,13.84,12.094z"/>
	<path d="M21.682,8.459L15.543,2.32c-0.391-0.391-1.023-0.391-1.414,0l-1.607,1.607c-0.391,0.39-0.391,1.023,0,1.414
		s1.023,0.391,1.414,0l0.9-0.9l4.725,4.725l-4.162,4.161c-0.177,0.178-0.413,0.275-0.664,0.275s-0.487-0.098-0.665-0.275
		l-3.396-3.396c-0.367-0.367-0.367-0.963,0-1.329l0.85-0.849c0.391-0.391,0.391-1.024,0-1.415c-0.391-0.391-1.024-0.39-1.415,0
		l-0.85,0.85c-1.146,1.146-1.146,3.011,0,4.157l0.99,0.99l-1.7,1.698l-0.62-0.62c-0.391-0.391-1.023-0.391-1.414,0l-3.646,3.646
		c-1.121,1.122-1.121,2.947,0,4.07c0.561,0.561,1.298,0.841,2.035,0.841s1.474-0.281,2.034-0.841l3.646-3.646
		c0.188-0.188,0.293-0.442,0.293-0.707s-0.105-0.52-0.293-0.707l-0.621-0.621l1.7-1.698l0.992,0.992
		c0.555,0.555,1.293,0.861,2.078,0.861c0,0,0,0,0,0c0.785,0,1.523-0.306,2.078-0.861l4.868-4.868
		c0.188-0.188,0.293-0.442,0.293-0.707S21.87,8.646,21.682,8.459z M5.527,19.714c-0.342,0.342-0.898,0.342-1.24,0
		c-0.342-0.342-0.342-0.899,0-1.241l2.938-2.938l1.241,1.241L5.527,19.714z"/>
</g>
</svg>
