<?xml version="1.0" encoding="utf-8"?>
<!-- Generator: Adobe Illustrator 25.4.1, SVG Export Plug-In . SVG Version: 6.00 Build 0)  -->
<svg version="1.1" id="Icons" xmlns="http://www.w3.org/2000/svg" xmlns:xlink="http://www.w3.org/1999/xlink" x="0px" y="0px"
	 viewBox="0 0 24 24" style="enable-background:new 0 0 24 24;" xml:space="preserve">
<g id="Spoon">
	<path d="M20.471,3.518c-2.311-2.311-6.454-1.933-9.233,0.848C9.342,6.26,8.565,8.788,8.993,10.938l-1.998,1.998
		c-0.391,0.391-0.391,1.023,0,1.414c0.195,0.195,0.451,0.293,0.707,0.293s0.512-0.098,0.707-0.293l1.426-1.426
		c0.165,0.237,0.345,0.466,0.554,0.675c0.214,0.214,0.451,0.391,0.693,0.559l-5.556,5.556c-0.342,0.342-0.898,0.342-1.24,0
		c-0.342-0.342-0.342-0.899,0-1.241l1.712-1.712c0.391-0.391,0.391-1.023,0-1.414s-1.023-0.391-1.414,0l-1.712,1.712
		c-1.121,1.122-1.121,2.947,0,4.07c0.561,0.561,1.298,0.841,2.035,0.841s1.474-0.28,2.034-0.841l6.134-6.134
		c0.377,0.074,0.763,0.117,1.157,0.117c1.851,0,3.835-0.804,5.392-2.361C22.402,9.971,22.783,5.829,20.471,3.518z M18.209,11.337
		c-1.999,1.999-4.873,2.38-6.405,0.848c-1.532-1.532-1.152-4.406,0.848-6.405c1.173-1.172,2.646-1.788,3.972-1.788
		c0.936,0,1.799,0.307,2.433,0.94C20.588,6.464,20.208,9.337,18.209,11.337z"/>
	<path d="M17.481,5.482c-2.06-0.782-4.333,0.778-5.036,2.823c-0.193,0.518,0.071,1.093,0.588,1.286
		c0.504,0.193,1.094-0.066,1.286-0.588c0.234-0.629,0.659-1.164,1.165-1.465c0.443-0.264,0.904-0.327,1.299-0.182
		C18.019,7.795,18.708,5.961,17.481,5.482z"/>
</g>
</svg>
