<?xml version="1.0" encoding="utf-8"?>
<!-- Generator: Adobe Illustrator 25.4.1, SVG Export Plug-In . SVG Version: 6.00 Build 0)  -->
<svg version="1.1" id="Icons" xmlns="http://www.w3.org/2000/svg" xmlns:xlink="http://www.w3.org/1999/xlink" x="0px" y="0px"
	 viewBox="0 0 24 24" style="enable-background:new 0 0 24 24;" xml:space="preserve">
<g id="Steak">
	<g>
		<path d="M6.21,18.754c-0.736-0.558-1.099-1.606-1.077-3.117c0-0.281,0.051-4.148,1.948-7.208c2.408-3.884,6.41-3.628,6.41-3.628
			c2.878,0,5.274,2.398,5.274,5.347c0.002,0.068,0.047,2.336-1.446,3.808s-3.6,1.181-3.6,1.181
			c-0.091-0.016-2.353-0.381-3.371,1.569c-0.166,0.455-0.928,2.274-2.577,2.417C6.781,19.209,6.21,18.754,6.21,18.754z
			 M13.294,6.795c-0.578,0-2.928,0.156-4.517,2.695c-1.638,2.616-1.644,6.115-1.644,6.15c0,0-0.022,0.863,0.15,1.273
			c0,0,0.088,0.413,0.476,0.159c0.423-0.278,0.737-1.121,0.737-1.121c0.579-1.306,1.701-1.987,1.701-1.987
			c1.817-1.153,3.809-0.808,3.809-0.808c0.852,0.026,1.459-0.181,1.909-0.625c0.867-0.854,0.852-2.341,0.851-2.356
			C16.574,6.618,13.294,6.795,13.294,6.795z"/>
	</g>
	<g>
		<path d="M13.189,12.657c-1.455,0-2.639-1.184-2.639-2.639s1.184-2.639,2.639-2.639s2.639,1.184,2.639,2.639
			S14.645,12.657,13.189,12.657z M13.189,9.379c-0.353,0-0.639,0.287-0.639,0.639c0,0.353,0.287,0.639,0.639,0.639
			s0.639-0.287,0.639-0.639C13.828,9.666,13.542,9.379,13.189,9.379z"/>
	</g>
	<g>
		<path d="M8.227,19.904c-2.657,0.461-3.368-1.134-3.454-1.351c-1.635-3.909,1.019-9.54,1.066-9.642
			c0.138-0.33,0.293-0.649,0.461-0.948C6.571,7.481,6.4,6.872,5.918,6.602c-0.483-0.27-1.091-0.098-1.362,0.382
			C4.352,7.35,4.163,7.738,4.016,8.091C3.889,8.354,0.944,14.583,2.91,19.279c0.368,1.018,1.729,2.704,4.426,2.704
			c0.394,0,0.816-0.036,1.268-0.115c0.117-0.024,2.877-0.622,4-2.785c0.35-0.675,0.859-0.716,0.979-0.717
			c4.508,0,8.175-3.667,8.175-8.175c0-4.532-3.256-7.816-8.097-8.172c-0.146-0.01-3.622-0.255-6.625,2.077
			C6.599,4.435,6.521,5.062,6.859,5.499c0.338,0.437,0.967,0.516,1.403,0.176c2.375-1.845,5.218-1.662,5.247-1.662
			c3.854,0.284,6.248,2.651,6.248,6.178c0,3.405-2.77,6.175-6.127,6.176c-0.69-0.019-2.031,0.31-2.802,1.794
			C10.828,18.162,10.281,19.392,8.227,19.904z"/>
	</g>
</g>
</svg>
