<?xml version="1.0" encoding="utf-8"?>
<!-- Generator: Adobe Illustrator 26.5.0, SVG Export Plug-In . SVG Version: 6.00 Build 0)  -->
<svg version="1.1" id="Icons" xmlns="http://www.w3.org/2000/svg" xmlns:xlink="http://www.w3.org/1999/xlink" x="0px" y="0px"
	 viewBox="0 0 24 24" enable-background="new 0 0 24 24" xml:space="preserve">
<path id="Steam-Iron" d="M15.883,15.721c0.552,0,1-0.448,1-1c0-2.314-2.981-5.3-6.147-5.3H6.172c-0.552,0-1,0.448-1,1v4.3
	c0,0.552,0.448,1,1,1H15.883z M7.172,11.421h3.563c1.586,0,3.145,1.194,3.811,2.3h-3.833V13.28c0-0.552-0.448-1-1-1s-1,0.448-1,1
	v0.441H7.172V11.421z M21.992,17.986c0-6.372-5.122-11.961-10.96-11.961H6.272V4.743c0-1.509-1.228-2.737-2.737-2.737H3.008
	c-0.552,0-1,0.448-1,1s0.448,1,1,1h0.527c0.406,0,0.737,0.331,0.737,0.737v1.301C3.019,6.136,2.024,7.174,2.024,8.451v1.843
	c0,0.552,0.448,1,1,1s1-0.448,1-1V8.451c0-0.234,0.191-0.425,0.425-0.425h6.582c4.767,0,8.414,4.544,8.904,8.961H4.024v-3.277
	c0-0.552-0.448-1-1-1s-1,0.448-1,1v4.277c0,0.547,0.44,0.988,0.984,0.997v0.778c0,1.231,1.002,2.233,2.233,2.233h13.533
	c1.231,0,2.233-1.002,2.233-2.233v-0.778C21.552,18.974,21.992,18.533,21.992,17.986z M18.775,19.994H5.242
	c-0.129,0-0.233-0.104-0.233-0.233v-0.774h14v0.774C19.008,19.89,18.904,19.994,18.775,19.994z"/>
</svg>
