<?xml version="1.0" encoding="utf-8"?>
<!-- Generator: Adobe Illustrator 25.4.1, SVG Export Plug-In . SVG Version: 6.00 Build 0)  -->
<svg version="1.1" id="Icons" xmlns="http://www.w3.org/2000/svg" xmlns:xlink="http://www.w3.org/1999/xlink" x="0px" y="0px"
	 viewBox="0 0 24 24" style="enable-background:new 0 0 24 24;" xml:space="preserve">
<g id="Store">
	<path d="M21.867,6.475l-2.326-3.979C19.361,2.188,19.033,2,18.678,2H5.463C5.116,2,4.795,2.179,4.612,2.474L2.149,6.453
		C2.052,6.611,2,6.793,2,6.979L1.999,11c0,0.265,0.105,0.52,0.293,0.707S2.733,12,2.999,12h0.708v1.835c0,0.552,0.447,1,1,1
		s1-0.448,1-1V12h12.582v8h-1.857l-0.002-5.651c0-0.552-0.448-1-1-1H8.565c-0.266,0-0.52,0.105-0.707,0.293
		s-0.293,0.442-0.293,0.708L7.567,20h-1.86v-2.75c0-0.552-0.447-1-1-1s-1,0.448-1,1V21c0,0.552,0.447,1,1,1h14.582
		c0.553,0,1-0.448,1-1v-9h0.713c0.552,0,1-0.447,1-1l0.002-4.021C22.004,6.802,21.957,6.628,21.867,6.475z M14.432,20H13
		l-0.001-4.651h1.432L14.432,20z M9.565,15.349h1.433L11,20H9.567L9.565,15.349z M20.002,10H3.999L4,7.979h16.004L20.002,10z
		 M13.478,4l0.741,1.979H9.923L10.663,4H13.478z M19.261,5.979h-2.907L15.613,4h2.49L19.261,5.979z M6.02,4h2.509l-0.74,1.979H4.795
		L6.02,4z"/>
</g>
</svg>
