<?xml version="1.0" encoding="utf-8"?>
<!-- Generator: Adobe Illustrator 16.0.0, SVG Export Plug-In . SVG Version: 6.00 Build 0)  -->
<!DOCTYPE svg PUBLIC "-//W3C//DTD SVG 1.1//EN" "http://www.w3.org/Graphics/SVG/1.1/DTD/svg11.dtd">
<svg version="1.1" id="Icons" xmlns="http://www.w3.org/2000/svg" xmlns:xlink="http://www.w3.org/1999/xlink" x="0px" y="0px"
	 width="24px" height="24px" viewBox="0 0 24 24" enable-background="new 0 0 24 24" xml:space="preserve">
<path id="Stretch" d="M22,6v12c0,2.206-1.794,4-4,4H6c-2.206,0-4-1.794-4-4v-7.212c0-0.553,0.447-1,1-1s1,0.447,1,1V18
	c0,1.103,0.897,2,2,2h12c1.103,0,2-0.897,2-2V6c0-1.103-0.897-2-2-2H6C4.897,4,4,4.897,4,6v1.375c0,0.553-0.447,1-1,1s-1-0.447-1-1
	V6c0-2.206,1.794-4,4-4h12C20.206,2,22,3.794,22,6z M6.439,12.97c-0.553,0-1,0.447-1,1v3.592c0,0.553,0.447,1,1,1h3.592
	c0.553,0,1-0.447,1-1s-0.447-1-1-1H8.854l7.707-7.709v1.181c0,0.553,0.447,1,1,1s1-0.447,1-1V6.438c0-0.553-0.447-1-1-1h-3.594
	c-0.553,0-1,0.447-1,1s0.447,1,1,1h1.18l-7.707,7.709V13.97C7.439,13.417,6.992,12.97,6.439,12.97z"/>
</svg>
