<?xml version="1.0" encoding="utf-8"?>
<!-- Generator: Adobe Illustrator 25.4.1, SVG Export Plug-In . SVG Version: 6.00 Build 0)  -->
<svg version="1.1" id="Icons" xmlns="http://www.w3.org/2000/svg" xmlns:xlink="http://www.w3.org/1999/xlink" x="0px" y="0px"
	 viewBox="0 0 24 24" style="enable-background:new 0 0 24 24;" xml:space="preserve">
<g id="Street-view">
	<path d="M15.123,15.445l0.114-0.464h1.409c0.552,0,1-0.447,1-1l0.002-3.791c0-1.421-0.696-2.753-1.814-3.598
		c0.041-0.226,0.07-0.456,0.07-0.694c0-2.152-1.751-3.904-3.903-3.904S8.098,3.746,8.098,5.898c0,0.238,0.029,0.468,0.07,0.694
		c-1.119,0.845-1.814,2.177-1.814,3.598L6.352,13.98c0,0.265,0.105,0.52,0.293,0.708c0.188,0.188,0.441,0.293,0.707,0.293h1.409
		l0.115,0.465C6.164,15.697,2,16.441,2,18.652c0,1.35,1.544,2.323,4.59,2.892c0.062,0.012,0.124,0.017,0.185,0.017
		c0.472,0,0.893-0.335,0.982-0.816c0.101-0.543-0.257-1.065-0.8-1.167c-1.681-0.314-2.503-0.7-2.829-0.93
		c0.524-0.376,2.186-0.983,5.234-1.234l0.219,0.887c0.11,0.446,0.511,0.76,0.971,0.76h2.897c0.46,0,0.861-0.314,0.971-0.761
		l0.218-0.886c3.063,0.252,4.726,0.865,5.242,1.239C19.17,19.184,16.467,20,12,20c-0.609,0-1.204-0.017-1.778-0.047
		c-0.554-0.03-1.022,0.393-1.053,0.945c-0.029,0.552,0.394,1.022,0.945,1.052C10.724,21.982,11.354,22,12,22
		c1.023,0,10-0.094,10-3.348C22,16.438,17.812,15.695,15.123,15.445z M12.001,3.994c1.05,0,1.903,0.854,1.903,1.904
		s-0.854,1.904-1.903,1.904s-1.903-0.854-1.903-1.904S10.951,3.994,12.001,3.994z M12.666,17.062h-1.331l-0.82-3.321
		c-0.11-0.446-0.511-0.76-0.971-0.76H8.353l0.001-2.791c0-0.656,0.278-1.269,0.724-1.732c0.716,0.817,1.754,1.344,2.923,1.344
		s2.207-0.527,2.923-1.344c0.446,0.463,0.724,1.077,0.724,1.732l-0.001,2.791h-1.193c-0.46,0-0.861,0.314-0.971,0.761L12.666,17.062
		z"/>
</g>
</svg>
