<?xml version="1.0" encoding="utf-8"?>
<!-- Generator: Adobe Illustrator 26.3.1, SVG Export Plug-In . SVG Version: 6.00 Build 0)  -->
<svg version="1.1" id="Icons" xmlns="http://www.w3.org/2000/svg" xmlns:xlink="http://www.w3.org/1999/xlink" x="0px" y="0px"
	 viewBox="0 0 24 24" style="enable-background:new 0 0 24 24;" xml:space="preserve">
<g id="Street-Light">
	<path d="M16.142,2C14.438,2,12.936,2.843,12,4.123C11.063,2.843,9.562,2,7.857,2H2.999c-0.265,0-0.52,0.105-0.708,0.293
		C2.104,2.481,1.999,2.735,1.999,3L2,4.676C2,6.255,3.285,7.54,4.864,7.54h1.115c1.58,0,2.865-1.285,2.865-2.865l0-0.517
		c1.25,0.415,2.155,1.595,2.156,2.982l-0.001,2.832c-1.166,0.415-2.007,1.518-2.007,2.824v2.833c0,0.552,0.448,1,1,1s1-0.448,1-1
		v-2.833c0-0.556,0.453-1.009,1.009-1.009s1.009,0.453,1.009,1.009V20h-2.018v-0.955c0-0.552-0.448-1-1-1s-1,0.448-1,1V21
		c0,0.552,0.448,1,1,1h4.018c0.552,0,1-0.448,1-1v-8.203c0-1.307-0.843-2.411-2.01-2.825L13,7.142c0-1.388,0.906-2.569,2.157-2.983
		l0,0.518c0,1.58,1.285,2.864,2.865,2.864h1.115c1.58,0,2.865-1.285,2.865-2.865L22,3c0-0.552-0.448-1-1-1H16.142z M5.979,5.54
		H4.864C4.387,5.54,4,5.152,4,4.675l0-0.675h2.845l0,0.676C6.844,5.152,6.457,5.54,5.979,5.54z M19.137,5.54h-1.115
		c-0.477,0-0.865-0.388-0.865-0.865l0-0.675h2.845l0,0.676C20.001,5.152,19.614,5.54,19.137,5.54z"/>
</g>
</svg>
