<?xml version="1.0" encoding="utf-8"?>
<!-- Generator: Adobe Illustrator 26.3.1, SVG Export Plug-In . SVG Version: 6.00 Build 0)  -->
<svg version="1.1" id="Icons" xmlns="http://www.w3.org/2000/svg" xmlns:xlink="http://www.w3.org/1999/xlink" x="0px" y="0px"
	 viewBox="0 0 24 24" style="enable-background:new 0 0 24 24;" xml:space="preserve">
<g id="Street-Sign">
	<path d="M18,2H6C3.794,2,2,3.794,2,6v1.925c0,0.552,0.448,1,1,1s1-0.448,1-1V6c0-1.103,0.897-2,2-2h12c1.103,0,2,0.897,2,2v12
		c0,1.103-0.897,2-2,2h-3.374l0-2.099h3.708c0.393,0,0.75-0.23,0.911-0.588c0.162-0.358,0.099-0.778-0.161-1.073l-1.171-1.331
		l1.173-1.338c0.259-0.295,0.321-0.715,0.159-1.072s-0.518-0.587-0.911-0.587l-3.708,0l0-1.011h1.729
		c0.267,0,0.522-0.106,0.71-0.296l1.979-1.995c0.387-0.39,0.387-1.019,0-1.408l-1.979-1.995c-0.188-0.189-0.443-0.296-0.71-0.296
		l-10.689,0c-0.393,0-0.749,0.229-0.911,0.587s-0.1,0.777,0.159,1.072l1.173,1.338L4.916,9.24c-0.26,0.295-0.323,0.714-0.161,1.073
		c0.162,0.358,0.518,0.588,0.911,0.588h3.708l0,1.01l-1.73,0c-0.267,0-0.522,0.106-0.71,0.296l-1.979,1.995
		c-0.387,0.39-0.387,1.019,0,1.408l1.979,1.995c0.188,0.189,0.443,0.296,0.71,0.296h1.729L9.375,20H6c-1.103,0-2-0.897-2-2v-6.66
		c0-0.552-0.448-1-1-1s-1,0.448-1,1V18c0,2.206,1.794,4,4,4h12c2.206,0,4-1.794,4-4V6C22,3.794,20.206,2,18,2z M8.169,7.251
		l-0.298-0.34l8.067,0l0.987,0.995l-0.987,0.995H7.878l0.29-0.33C8.5,8.194,8.5,7.629,8.169,7.251z M11.374,10.901h1.251l0,1.01
		l-1.251,0L11.374,10.901z M7.075,14.906l0.987-0.995l8.067,0l-0.298,0.34c-0.331,0.378-0.331,0.943,0.001,1.32l0.29,0.33H8.062
		L7.075,14.906z M11.374,17.901h1.251l0,2.099h-1.251L11.374,17.901z"/>
</g>
</svg>
