<?xml version="1.0" encoding="utf-8"?>
<!-- Generator: Adobe Illustrator 25.4.1, SVG Export Plug-In . SVG Version: 6.00 Build 0)  -->
<svg version="1.1" id="Icons" xmlns="http://www.w3.org/2000/svg" xmlns:xlink="http://www.w3.org/1999/xlink" x="0px" y="0px"
	 viewBox="0 0 24 24" style="enable-background:new 0 0 24 24;" xml:space="preserve">
<g id="Street-Sign-2">
	<path d="M20.244,13.896l1.519-1.736c0.258-0.295,0.32-0.714,0.158-1.072s-0.518-0.587-0.911-0.587l-5.822,0l0-1.72l3.452,0
		c0.267,0,0.522-0.106,0.71-0.296l2.37-2.391c0.386-0.39,0.386-1.018,0-1.408l-2.37-2.391C19.164,2.106,18.908,2,18.641,2h-2.936
		c-0.552,0-1,0.448-1,1s0.448,1,1,1h2.519l1.378,1.391l-1.378,1.391l-13.025,0l0.638-0.726c0.332-0.377,0.332-0.941,0.001-1.319
		L5.193,4h7.102c0.552,0,1-0.448,1-1s-0.448-1-1-1H2.989C2.597,2,2.241,2.229,2.079,2.587s-0.1,0.776,0.158,1.072l1.519,1.736
		L2.238,7.122c-0.259,0.295-0.322,0.714-0.16,1.072C2.24,8.552,2.597,8.782,2.989,8.782l5.822,0l0,1.72l-3.452,0
		c-0.267,0-0.522,0.106-0.71,0.296l-2.37,2.391c-0.386,0.39-0.386,1.018,0,1.408l2.37,2.391c0.188,0.189,0.444,0.296,0.71,0.296
		l3.452,0l0,3.717c0,0.265,0.105,0.52,0.293,0.707S9.545,22,9.81,22h4.378c0.552,0,1-0.448,1-1l0-3.716l5.822,0
		c0.393,0,0.749-0.23,0.911-0.588s0.099-0.777-0.16-1.072L20.244,13.896z M10.811,8.781l2.377,0l0,1.72l-2.377,0L10.811,8.781z
		 M13.188,20H10.81l0-2.717l2.378,0L13.188,20z M18.163,14.558l0.637,0.725l-13.024,0l-1.378-1.391l1.378-1.391l13.031,0
		l-0.646,0.737C17.831,13.617,17.832,14.181,18.163,14.558z"/>
</g>
</svg>
