<?xml version="1.0" encoding="utf-8"?>
<!-- Generator: Adobe Illustrator 25.4.1, SVG Export Plug-In . SVG Version: 6.00 Build 0)  -->
<svg version="1.1" id="Icons" xmlns="http://www.w3.org/2000/svg" xmlns:xlink="http://www.w3.org/1999/xlink" x="0px" y="0px"
	 viewBox="0 0 24 24" style="enable-background:new 0 0 24 24;" xml:space="preserve">
<g id="Sushi">
	<path d="M21,12.847h-2.131c0.139-0.358,0.241-0.723,0.31-1.086c0.241,0.016,0.497,0.002,0.757-0.072
		c0.514-0.144,0.929-0.477,1.189-0.941c0.091-0.154,0.853-1.555-0.354-3.417c-0.119-0.219-2.999-5.351-9.172-4.793
		c-0.233,0.008-5.754,0.258-8.584,5.135C2.603,8.358,2.151,9.838,3.06,11.011c0.245,0.343,0.812,0.762,1.65,0.762
		c0.198,0,0.415-0.033,0.643-0.086c0.068,0.385,0.171,0.778,0.319,1.16H3c-0.553,0-1,0.448-1,1v3.341c0,0.552,0.447,1,1,1h1.329
		V20.5c0,0.552,0.447,1,1,1h4.342c0.553,0,1-0.448,1-1v-2.312h2.658V20.5c0,0.552,0.447,1,1,1h4.342c0.553,0,1-0.448,1-1v-2.312H21
		c0.553,0,1-0.448,1-1v-3.341C22,13.295,21.553,12.847,21,12.847z M19.053,8.352c0.568,0.879,0.34,1.394,0.343,1.412
		c-0.089,0.029-0.364-0.042-0.472-0.095c-0.541-0.357-1.105-0.644-1.67-0.883c0.407-0.679,0.579-1.349,0.606-1.977
		C18.609,7.576,19.001,8.26,19.053,8.352z M15.267,8.135c-0.859-0.207-1.643-0.312-2.269-0.365c0.298-1.323,0.007-2.427-0.506-3.264
		c1.051,0.003,1.965,0.213,2.753,0.534c0,0,0.829,0.936,0.568,1.943C15.813,6.982,15.711,7.549,15.267,8.135z M8.695,8.161
		c-0.203-0.997-0.74-1.705-1.348-2.185c0.978-0.626,1.97-0.979,2.765-1.179c0.502,0.376,1.415,1.331,0.812,2.979
		C10.106,7.847,9.36,7.983,8.695,8.161z M4.632,9.772C4.37,9.355,4.729,8.705,4.737,8.692C5.04,8.17,5.384,7.718,5.75,7.318
		C6.164,7.523,6.683,7.952,6.766,8.83c-0.778,0.343-1.251,0.64-1.283,0.661C4.985,9.797,4.714,9.795,4.632,9.772z M8.671,19.5H6.329
		v-1.312h2.342V19.5z M17.671,19.5h-2.342v-1.312h2.342V19.5z M17.277,11.017c-0.097,0.789-0.391,1.801-0.847,1.83h-3.844
		c-0.553,0-1,0.448-1,1s0.447,1,1,1H20v1.341H4v-1.341h5.177c0.553,0,1-0.448,1-1s-0.447-1-1-1H8.116
		c-0.498-0.032-0.804-1.237-0.868-2.04c0,0,2.134-1.204,5.127-1.065C12.375,9.742,14.904,9.795,17.277,11.017z"/>
</g>
</svg>
