<?xml version="1.0" encoding="utf-8"?>
<!-- Generator: Adobe Illustrator 26.3.1, SVG Export Plug-In . SVG Version: 6.00 Build 0)  -->
<svg version="1.1" id="Icons" xmlns="http://www.w3.org/2000/svg" xmlns:xlink="http://www.w3.org/1999/xlink" x="0px" y="0px"
	 viewBox="0 0 24 24" style="enable-background:new 0 0 24 24;" xml:space="preserve">
<g id="Swimming-Pool">
	<path d="M18,2H6C3.794,2,2,3.794,2,6v1.925c0,0.552,0.447,1,1,1s1-0.448,1-1V6c0-1.103,0.897-2,2-2h12c1.103,0,2,0.897,2,2v9.44
		c-0.412-0.363-1.003-0.798-2-0.798c-1.095,0-1.708,0.526-2.122,0.904l-0.005-8.37c0-0.265,0.216-0.48,0.48-0.48
		s0.48,0.215,0.48,0.48c0,0.552,0.447,1,1,1s1-0.448,1-1c0-1.368-1.112-2.48-2.48-2.48s-2.48,1.113-2.48,2.481l0.001,1.561h-5
		L8.873,7.176c0-0.265,0.216-0.48,0.48-0.48s0.48,0.215,0.48,0.48c0,0.552,0.447,1,1,1s1-0.448,1-1c0-1.368-1.112-2.48-2.48-2.48
		s-2.48,1.113-2.48,2.481l0.005,7.607C6.622,14.702,6.34,14.642,6,14.642c-0.997,0-1.588,0.434-2,0.798v-4.1c0-0.552-0.447-1-1-1
		s-1,0.448-1,1V18c0,2.206,1.794,4,4,4h12c2.206,0,4-1.794,4-4V6C22,3.794,20.206,2,18,2z M8.879,16.006l-0.001-2.037h5l0.001,1.366
		c-0.407-0.337-0.979-0.693-1.879-0.693c-1.14,0-1.764,0.572-2.176,0.951C9.472,15.916,9.344,16.018,9,16.018
		C8.953,16.018,8.918,16.01,8.879,16.006z M13.875,10.737l0.001,1.231h-5l-0.001-1.231H13.875z M18,20H6c-1.103,0-2-0.897-2-2
		v-0.172c0.531-0.199,0.907-0.514,1.176-0.761C5.527,16.744,5.655,16.642,6,16.642s0.473,0.102,0.824,0.425
		C7.237,17.445,7.861,18.018,9,18.018s1.763-0.572,2.175-0.951c0.352-0.323,0.479-0.425,0.824-0.425s0.473,0.102,0.824,0.425
		c0.413,0.378,1.037,0.951,2.176,0.951s1.763-0.572,2.176-0.951c0.353-0.323,0.48-0.425,0.825-0.425s0.473,0.102,0.824,0.425
		c0.269,0.246,0.645,0.561,1.176,0.761V18C20,19.103,19.103,20,18,20z"/>
</g>
</svg>
