<?xml version="1.0" encoding="utf-8"?>
<!-- Generator: Adobe Illustrator 16.0.0, SVG Export Plug-In . SVG Version: 6.00 Build 0)  -->
<!DOCTYPE svg PUBLIC "-//W3C//DTD SVG 1.1//EN" "http://www.w3.org/Graphics/SVG/1.1/DTD/svg11.dtd">
<svg version="1.1" id="Icons" xmlns="http://www.w3.org/2000/svg" xmlns:xlink="http://www.w3.org/1999/xlink" x="0px" y="0px"
	 width="24px" height="24px" viewBox="0 0 24 24" enable-background="new 0 0 24 24" xml:space="preserve">
<path id="Synchronize-2" d="M3.01,7.995V3.672c0-0.553,0.447-1,1-1s1,0.447,1,1v1.921c1.782-1.94,4.293-3.075,6.973-3.075
	c0.892,0,1.785,0.129,2.656,0.384c0.53,0.155,0.835,0.711,0.68,1.24s-0.708,0.835-1.24,0.68c-2.791-0.813-5.761,0.101-7.646,2.174
	h1.902c0.553,0,1,0.447,1,1s-0.447,1-1,1H4.01C3.457,8.995,3.01,8.548,3.01,7.995z M19.99,15.005h-4.325c-0.553,0-1,0.447-1,1
	s0.447,1,1,1h1.872c-1.41,1.563-3.424,2.474-5.555,2.474c-4.125,0-7.48-3.355-7.48-7.48c0-0.553-0.447-1-1-1s-1,0.447-1,1
	c0,5.228,4.253,9.48,9.48,9.48c2.686,0,5.223-1.144,7.008-3.104v1.953c0,0.553,0.447,1,1,1s1-0.447,1-1v-4.323
	C20.99,15.452,20.543,15.005,19.99,15.005z M18.016,4.684c-0.426-0.351-1.056-0.29-1.408,0.135
	c-0.352,0.426-0.291,1.057,0.135,1.408c1.729,1.427,2.722,3.531,2.722,5.771c0,0.553,0.447,1,1,1s1-0.447,1-1
	C21.464,9.158,20.207,6.492,18.016,4.684z"/>
</svg>
