<?xml version="1.0" encoding="utf-8"?>
<!-- Generator: Adobe Illustrator 16.0.0, SVG Export Plug-In . SVG Version: 6.00 Build 0)  -->
<!DOCTYPE svg PUBLIC "-//W3C//DTD SVG 1.1//EN" "http://www.w3.org/Graphics/SVG/1.1/DTD/svg11.dtd">
<svg version="1.1" id="Icons" xmlns="http://www.w3.org/2000/svg" xmlns:xlink="http://www.w3.org/1999/xlink" x="0px" y="0px"
	 width="24px" height="24px" viewBox="0 0 24 24" enable-background="new 0 0 24 24" xml:space="preserve">
<path id="Synchronize-1" d="M15.235,21.707c-0.391-0.391-0.391-1.023,0-1.414l1.351-1.352H5c-0.552,0-1-0.447-1-1v-7.413
	c0-0.553,0.448-1,1-1s1,0.447,1,1v6.413h10.586l-1.35-1.35c-0.391-0.391-0.391-1.023,0-1.414s1.023-0.391,1.414,0l3.057,3.057
	C19.895,17.422,20,17.676,20,17.941c0,0.265-0.105,0.52-0.293,0.707l-3.058,3.059C15.906,22.375,15.235,21.707,15.235,21.707z
	 M19,10.787c-0.552,0-1,0.447-1,1v1.684c0,0.553,0.448,1,1,1s1-0.447,1-1v-1.684C20,11.234,19.552,10.787,19,10.787z M19,5.057
	H7.414l1.35-1.35c0.391-0.391,0.391-1.023,0-1.414s-1.023-0.391-1.414,0L4.293,5.35C4.105,5.537,4,5.791,4,6.057
	c0,0.265,0.105,0.52,0.293,0.707l3.058,3.059c0.195,0.195,0.451,0.293,0.707,0.293s0.512-0.098,0.707-0.293
	c0.391-0.391,0.391-1.023,0-1.414L7.414,7.057H18v1.318c0,0.553,0.448,1,1,1s1-0.447,1-1V6.057C20,5.504,19.552,5.057,19,5.057z"/>
</svg>
