<?xml version="1.0" encoding="utf-8"?>
<!-- Generator: Adobe Illustrator 26.5.0, SVG Export Plug-In . SVG Version: 6.00 Build 0)  -->
<svg version="1.1" id="Icons" xmlns="http://www.w3.org/2000/svg" xmlns:xlink="http://www.w3.org/1999/xlink" x="0px" y="0px"
	 viewBox="0 0 24 24" enable-background="new 0 0 24 24" xml:space="preserve">
<path id="Table-lamp" d="M21.832,11.445l-6.004-9C15.643,2.167,15.331,2,14.996,2H9C8.666,2,8.354,2.167,8.168,2.445L6.249,5.324
	C5.943,5.783,6.067,6.404,6.526,6.71c0.458,0.306,1.08,0.181,1.387-0.277L9.535,4h4.926l4.67,7H4.869l1.149-1.725
	C6.324,8.816,6.2,8.195,5.741,7.889c-0.46-0.308-1.08-0.182-1.387,0.277l-2.186,3.279c-0.205,0.307-0.224,0.701-0.05,1.026
	C2.292,12.797,2.631,13,3,13h5.854v0.963c-1.116,0.929-1.768,2.301-1.768,3.769c0,1.655,0.829,3.189,2.218,4.104
	C9.467,21.943,9.659,22,9.854,22h4.292c0.195,0,0.387-0.057,0.55-0.165c1.389-0.914,2.218-2.448,2.218-4.104
	c0-1.468-0.652-2.84-1.768-3.769V13h2.009v1.499c0,0.552,0.448,1,1,1s1-0.448,1-1V13H21c0.369,0,0.708-0.203,0.882-0.528
	C22.056,12.146,22.037,11.752,21.832,11.445z M13.597,15.3c0.825,0.542,1.317,1.452,1.317,2.432c0,0.887-0.403,1.716-1.091,2.268
	h-3.646c-0.688-0.552-1.091-1.381-1.091-2.268c0-0.98,0.492-1.89,1.317-2.432c0.281-0.185,0.451-0.499,0.451-0.835V13h2.292v1.464
	C13.146,14.801,13.315,15.115,13.597,15.3z"/>
</svg>
