<?xml version="1.0" encoding="utf-8"?>
<!-- Generator: Adobe Illustrator 25.4.1, SVG Export Plug-In . SVG Version: 6.00 Build 0)  -->
<svg version="1.1" id="Icons" xmlns="http://www.w3.org/2000/svg" xmlns:xlink="http://www.w3.org/1999/xlink" x="0px" y="0px"
	 viewBox="0 0 24 24" style="enable-background:new 0 0 24 24;" xml:space="preserve">
<g id="Terminal-window">
	<path d="M6.955,5.111H6.416c-0.553,0-1,0.448-1,1s0.447,1,1,1h0.539c0.553,0,1-0.448,1-1S7.508,5.111,6.955,5.111z"/>
	<path d="M14.539,5.111H10c-0.553,0-1,0.448-1,1s0.447,1,1,1h4.539c0.553,0,1-0.448,1-1S15.092,5.111,14.539,5.111z"/>
	<path d="M8.693,11.79c-0.413-0.368-1.044-0.331-1.412,0.083c-0.366,0.413-0.329,1.045,0.084,1.412l1.815,1.613l-1.814,1.613
		c-0.413,0.367-0.45,1-0.083,1.412c0.197,0.222,0.472,0.335,0.747,0.335c0.236,0,0.474-0.083,0.664-0.252l2.655-2.361
		c0.214-0.19,0.336-0.462,0.336-0.748s-0.122-0.558-0.336-0.748L8.693,11.79z"/>
	<path d="M12.377,18.258h3.63c0.553,0,1-0.448,1-1s-0.447-1-1-1h-3.63c-0.553,0-1,0.448-1,1S11.824,18.258,12.377,18.258z"/>
	<path d="M17.002,2H7C4.243,2,2.001,4.243,2.001,6.999v3.296c0,0.552,0.447,1,1,1s1-0.448,1-1v-0.148H20v6.856
		C20,18.655,18.655,20,17.002,20H7c-1.653,0-2.999-1.345-2.999-2.998v-3.297c0-0.552-0.447-1-1-1s-1,0.448-1,1v3.297
		C2.001,19.758,4.243,22,7,22h10.002C19.758,22,22,19.758,22,17.002V6.999C22,4.243,19.758,2,17.002,2z M4.001,8.146V6.999
		C4.001,5.345,5.347,4,7,4h10.002C18.655,4,20,5.345,20,6.999v1.147H4.001z"/>
</g>
</svg>
