<?xml version="1.0" encoding="utf-8"?>
<!-- Generator: Adobe Illustrator 25.4.1, SVG Export Plug-In . SVG Version: 6.00 Build 0)  -->
<svg version="1.1" id="Icons" xmlns="http://www.w3.org/2000/svg" xmlns:xlink="http://www.w3.org/1999/xlink" x="0px" y="0px"
	 viewBox="0 0 24 24" style="enable-background:new 0 0 24 24;" xml:space="preserve">
<g id="Terminal">
	<g>
		<g>
			<path d="M6.944,15.993c-0.276,0-0.55-0.113-0.748-0.335c-0.367-0.413-0.33-1.045,0.083-1.412L8.805,12L6.279,9.755
				c-0.413-0.367-0.45-0.999-0.083-1.412C6.563,7.93,7.194,7.892,7.608,8.26l3.367,2.992c0.213,0.19,0.335,0.462,0.335,0.748
				s-0.122,0.558-0.335,0.747L7.608,15.74C7.418,15.909,7.181,15.993,6.944,15.993z"/>
		</g>
		<g>
			<path d="M17.057,15.992h-4.602c-0.552,0-1-0.448-1-1s0.448-1,1-1h4.602c0.552,0,1,0.448,1,1S17.609,15.992,17.057,15.992z"/>
		</g>
	</g>
	<g>
		<path d="M17.002,22H7C4.243,22,2,19.758,2,17.002v-5.75c0-0.552,0.448-1,1-1s1,0.448,1,1v5.75C4,18.655,5.346,20,7,20h10.002
			C18.655,20,20,18.655,20,17.002V6.999C20,5.345,18.655,4,17.002,4H7C5.346,4,4,5.345,4,6.999v0.844c0,0.552-0.448,1-1,1
			s-1-0.448-1-1V6.999C2,4.243,4.243,2,7,2h10.002C19.758,2,22,4.243,22,6.999v10.003C22,19.758,19.758,22,17.002,22z"/>
	</g>
</g>
</svg>
