<?xml version="1.0" encoding="utf-8"?>
<!-- Generator: Adobe Illustrator 26.5.0, SVG Export Plug-In . SVG Version: 6.00 Build 0)  -->
<svg version="1.1" id="Icons" xmlns="http://www.w3.org/2000/svg" xmlns:xlink="http://www.w3.org/1999/xlink" x="0px" y="0px"
	 viewBox="0 0 24 24" enable-background="new 0 0 24 24" xml:space="preserve">
<path id="Tissue-Box" d="M20.999,9.783h-3.061V3c0-0.367-0.201-0.704-0.523-0.879c-0.322-0.176-0.713-0.161-1.022,0.041
	l-1.924,1.252l-1.924-1.252c-0.332-0.216-0.76-0.216-1.092,0L9.529,3.415L7.605,2.162C7.296,1.96,6.906,1.945,6.583,2.121
	C6.261,2.296,6.06,2.633,6.06,3v6.783H3.001c-0.553,0-1,0.448-1,1v3.459c0,0.552,0.447,1,1,1s1-0.448,1-1v-2.459H6.06v1.451H5.833
	c-0.553,0-1,0.448-1,1s0.447,1,1,1h12.333c0.553,0,1-0.448,1-1s-0.447-1-1-1h-0.228v-1.451h2.061v4.875H3.001c-0.553,0-1,0.448-1,1
	V21c0,0.552,0.447,1,1,1h17.998c0.553,0,1-0.448,1-1V10.783C21.999,10.231,21.552,9.783,20.999,9.783z M8.06,13.234v-8.39
	l0.924,0.602c0.332,0.216,0.76,0.216,1.092,0l1.924-1.252l1.924,1.252c0.332,0.216,0.76,0.216,1.092,0l0.924-0.602v8.39H8.06z
	 M19.999,20H4.001v-1.342h15.998V20z"/>
</svg>
