<?xml version="1.0" encoding="utf-8"?>
<!-- Generator: Adobe Illustrator 25.4.1, SVG Export Plug-In . SVG Version: 6.00 Build 0)  -->
<svg version="1.1" id="Icons" xmlns="http://www.w3.org/2000/svg" xmlns:xlink="http://www.w3.org/1999/xlink" x="0px" y="0px"
	 viewBox="0 0 24 24" style="enable-background:new 0 0 24 24;" xml:space="preserve">
<g id="Toast">
	<g>
		<path d="M9.498,16.003c-0.256,0-0.512-0.098-0.707-0.293c-0.391-0.391-0.391-1.023,0-1.414l5.006-5.006
			c0.391-0.391,1.023-0.391,1.414,0s0.391,1.023,0,1.414l-5.006,5.006C10.01,15.905,9.754,16.003,9.498,16.003z"/>
	</g>
	<g>
		<g>
			<path d="M13.388,16.356c-0.256,0-0.512-0.098-0.707-0.293c-0.391-0.39-0.391-1.023,0-1.414l1.47-1.47
				c0.391-0.391,1.023-0.391,1.414,0c0.391,0.39,0.391,1.023,0,1.414l-1.47,1.47C13.899,16.259,13.644,16.356,13.388,16.356z"/>
		</g>
		<g>
			<path d="M9.145,12.114c-0.256,0-0.512-0.098-0.707-0.293c-0.391-0.391-0.391-1.024,0-1.414l1.471-1.47
				c0.391-0.391,1.023-0.391,1.414,0s0.391,1.024,0,1.414l-1.471,1.47C9.656,12.016,9.4,12.114,9.145,12.114z"/>
		</g>
	</g>
	<g>
		<path d="M18.775,21.5H5.22c-0.537,0.01-1.01-0.463-1-1c0,0,0.001-4.909,0.001-4.909c0-0.552,0.448-1,1-1c0.553,0,1,0.448,1,1
			L6.22,19.5h11.556l0.003-10.463c0-0.475,0.334-0.884,0.799-0.979c2.083-0.442,1.779-3.545-0.364-3.558c0,0-12.426,0-12.426,0
			C3.65,4.514,3.334,7.612,5.423,8.058c0.465,0.095,0.799,0.505,0.799,0.979v3.144c-0.019,1.312-1.979,1.316-2,0
			c0,0,0-2.424,0-2.424C0.553,8.082,1.715,2.522,5.787,2.5c0,0,12.426,0,12.426,0c4.067,0.02,5.238,5.582,1.565,7.258L19.775,20.5
			C19.775,21.052,19.327,21.5,18.775,21.5z"/>
	</g>
</g>
</svg>
