<?xml version="1.0" encoding="utf-8"?>
<!-- Generator: Adobe Illustrator 26.3.1, SVG Export Plug-In . SVG Version: 6.00 Build 0)  -->
<svg version="1.1" id="Icons" xmlns="http://www.w3.org/2000/svg" xmlns:xlink="http://www.w3.org/1999/xlink" x="0px" y="0px"
	 viewBox="0 0 24 24" style="enable-background:new 0 0 24 24;" xml:space="preserve">
<g id="Toilet">
	<path d="M6.423,10.655c-0.552,0-1,0.448-1,1c0,2.134,0.996,3.35,2.173,4.306L6.94,17.21c-0.163,0.31-0.152,0.683,0.029,0.982
		c0.181,0.299,0.506,0.482,0.856,0.482h8.383c0.353,0,0.679-0.186,0.858-0.488c0.181-0.303,0.188-0.678,0.021-0.988l-0.678-1.253
		c1.174-0.958,2.166-2.172,2.166-4.292c0-0.552-0.447-1-1-1h-0.623v-3.33h0.22c0.553,0,1-0.448,1-1s-0.447-1-1-1H6.826
		c-0.552,0-1,0.448-1,1s0.448,1,1,1h0.22v3.33H6.423z M14.538,14.862c-0.405,0.294-0.53,0.843-0.292,1.284l0.286,0.529H9.48
		l0.279-0.533c0.231-0.44,0.104-0.983-0.298-1.274c-1.051-0.762-1.667-1.348-1.913-2.213h8.903
		C16.204,13.512,15.587,14.099,14.538,14.862z M9.046,7.325h5.908v3.33H9.046V7.325z"/>
	<path d="M18,2H6C3.794,2,2,3.794,2,6v1.925c0,0.552,0.448,1,1,1s1-0.448,1-1V6c0-1.103,0.897-2,2-2h12c1.103,0,2,0.897,2,2v12
		c0,1.103-0.897,2-2,2H6c-1.103,0-2-0.897-2-2v-6.66c0-0.552-0.448-1-1-1s-1,0.448-1,1V18c0,2.206,1.794,4,4,4h12
		c2.206,0,4-1.794,4-4V6C22,3.794,20.206,2,18,2z"/>
</g>
</svg>
