<?xml version="1.0" encoding="utf-8"?>
<!-- Generator: Adobe Illustrator 26.5.0, SVG Export Plug-In . SVG Version: 6.00 Build 0)  -->
<svg version="1.1" id="Icons" xmlns="http://www.w3.org/2000/svg" xmlns:xlink="http://www.w3.org/1999/xlink" x="0px" y="0px"
	 viewBox="0 0 24 24" enable-background="new 0 0 24 24" xml:space="preserve">
<path id="Towel" d="M21,5.998h-0.998V5.692c0-2.038-1.658-3.696-3.696-3.696H7.694c-2.038,0-3.696,1.658-3.696,3.696v0.306H3
	c-0.552,0-1,0.448-1,1s0.448,1,1,1h0.998v9.579c0,0.552,0.448,1,1,1s1-0.448,1-1v-0.602c0.153-0.119,0.267-0.164,0.467-0.164
	c0.29,0,0.394,0.083,0.708,0.372c0.39,0.357,0.979,0.897,2.059,0.897c1.081,0,1.67-0.54,2.06-0.897
	c0.314-0.289,0.418-0.372,0.708-0.372c0.29,0,0.393,0.083,0.708,0.372c0.39,0.357,0.979,0.897,2.06,0.897s1.67-0.54,2.06-0.897
	c0.314-0.289,0.418-0.372,0.708-0.372c0.201,0,0.314,0.045,0.468,0.165V20H4.998c-0.552,0-1,0.448-1,1s0.448,1,1,1h14.004
	c0.553,0,1-0.448,1-1V7.998H21c0.553,0,1-0.448,1-1S21.553,5.998,21,5.998z M7.694,3.997h8.611c0.936,0,1.696,0.761,1.696,1.696
	v5.176c-0.15-0.025-0.293-0.058-0.468-0.058c-1.081,0-1.67,0.54-2.06,0.897c-0.314,0.289-0.418,0.372-0.708,0.372
	s-0.394-0.083-0.708-0.372C13.669,11.35,13.08,10.81,12,10.81c-1.081,0-1.67,0.54-2.06,0.897c-0.314,0.289-0.418,0.372-0.708,0.372
	c-0.29,0-0.393-0.083-0.708-0.372c-0.39-0.357-0.979-0.897-2.06-0.897c-0.174,0-0.317,0.033-0.467,0.058V5.692
	C5.998,4.757,6.759,3.997,7.694,3.997z M17.534,14.81c-1.081,0-1.67,0.54-2.06,0.897c-0.314,0.289-0.418,0.372-0.708,0.372
	s-0.394-0.083-0.708-0.372C13.669,15.35,13.08,14.81,12,14.81c-1.081,0-1.67,0.54-2.06,0.897c-0.314,0.289-0.418,0.372-0.708,0.372
	c-0.29,0-0.393-0.083-0.708-0.372c-0.39-0.357-0.979-0.897-2.06-0.897c-0.174,0-0.317,0.033-0.467,0.058v-1.894
	c0.153-0.119,0.267-0.164,0.467-0.164c0.29,0,0.394,0.083,0.708,0.372c0.39,0.357,0.979,0.897,2.059,0.897
	c1.081,0,1.67-0.54,2.06-0.897c0.314-0.289,0.418-0.372,0.708-0.372c0.29,0,0.393,0.083,0.708,0.372
	c0.39,0.357,0.979,0.897,2.06,0.897s1.67-0.54,2.06-0.897c0.314-0.289,0.418-0.372,0.708-0.372c0.201,0,0.314,0.045,0.468,0.165
	v1.893C17.852,14.843,17.709,14.81,17.534,14.81z"/>
</svg>
