<?xml version="1.0" encoding="utf-8"?>
<!-- Generator: Adobe Illustrator 26.3.1, SVG Export Plug-In . SVG Version: 6.00 Build 0)  -->
<svg version="1.1" id="Icons" xmlns="http://www.w3.org/2000/svg" xmlns:xlink="http://www.w3.org/1999/xlink" x="0px" y="0px"
	 viewBox="0 0 24 24" style="enable-background:new 0 0 24 24;" xml:space="preserve">
<g id="Train-Station">
	<path d="M13.842,16.5h1.437c0.553,0,1-0.448,1-1s-0.447-1-1-1h-1.437c-0.553,0-1,0.448-1,1S13.289,16.5,13.842,16.5z"/>
	<path d="M10.158,16.5c0.553,0,1-0.448,1-1s-0.447-1-1-1H8.722c-0.553,0-1,0.448-1,1s0.447,1,1,1H10.158z"/>
	<path d="M18,2H6C3.794,2,2,3.794,2,6v1.925c0,0.552,0.447,1,1,1s1-0.448,1-1V6c0-1.103,0.897-2,2-2h12c1.103,0,2,0.897,2,2v12
		c0,1.103-0.897,2-2,2h-1.291l-0.45-1.051c1.564-0.306,2.749-1.684,2.749-3.337V8.403C19.008,6.527,17.481,5,15.604,5H8.396
		C6.519,5,4.992,6.527,4.992,8.403v7.209c0,1.652,1.185,3.031,2.749,3.337L7.291,20H6c-1.103,0-2-0.897-2-2v-6.66
		c0-0.552-0.447-1-1-1s-1,0.448-1,1V18c0,2.206,1.794,4,4,4h12c2.206,0,4-1.794,4-4V6C22,3.794,20.206,2,18,2z M6.992,10.039H11
		v2.005H6.992V10.039z M13,10.039h4.008v2.005H13V10.039z M8.396,7h7.209c0.647,0,1.188,0.442,1.349,1.039H7.046
		C7.208,7.442,7.749,7,8.396,7z M6.992,15.612v-1.568h10.016v1.569c0,0.773-0.63,1.403-1.403,1.403H8.396
		C7.622,17.016,6.992,16.386,6.992,15.612z M9.888,19.016h4.223L14.533,20H9.467L9.888,19.016z"/>
</g>
</svg>
