<?xml version="1.0" encoding="utf-8"?>
<!-- Generator: Adobe Illustrator 25.4.1, SVG Export Plug-In . SVG Version: 6.00 Build 0)  -->
<svg version="1.1" id="Icons" xmlns="http://www.w3.org/2000/svg" xmlns:xlink="http://www.w3.org/1999/xlink" x="0px" y="0px"
	 viewBox="0 0 24 24" style="enable-background:new 0 0 24 24;" xml:space="preserve">
<g id="Train">
	<path d="M16.165,14.072h-1.824c-0.552,0-1,0.448-1,1s0.448,1,1,1h1.824c0.552,0,1-0.448,1-1S16.717,14.072,16.165,14.072z"/>
	<path d="M9.659,14.072H7.835c-0.552,0-1,0.448-1,1s0.448,1,1,1h1.824c0.552,0,1-0.448,1-1S10.211,14.072,9.659,14.072z"/>
	<path d="M16.58,2.001h-4.583c-0.552,0-1,0.448-1,1s0.448,1,1,1h4.583c1.067,0,1.935,0.82,2.034,1.861H5.386
		C5.485,4.822,6.353,4.001,7.42,4.001h1.167c0.552,0,1-0.448,1-1s-0.448-1-1-1H7.42c-2.235,0-4.053,1.818-4.053,4.053v9.16
		c0,2.014,1.481,3.677,3.409,3.988L6,20.479c-0.287,0.472-0.137,1.087,0.335,1.374c0.163,0.099,0.342,0.146,0.519,0.146
		c0.338,0,0.667-0.171,0.855-0.48l1.367-2.25h5.847l1.367,2.25c0.188,0.31,0.518,0.48,0.855,0.48c0.177,0,0.356-0.047,0.519-0.146
		c0.472-0.287,0.622-0.902,0.335-1.374l-0.775-1.276c1.928-0.311,3.409-1.974,3.409-3.988v-9.16
		C20.633,3.82,18.815,2.001,16.58,2.001z M5.367,7.863H11v3.088H5.367V7.863z M13,7.863h5.633v3.088H13V7.863z M16.58,17.268H7.42
		c-1.132,0-2.053-0.921-2.053-2.053v-2.264h13.267v2.264C18.633,16.347,17.712,17.268,16.58,17.268z"/>
</g>
</svg>
