<?xml version="1.0" encoding="utf-8"?>
<!-- Generator: Adobe Illustrator 25.4.1, SVG Export Plug-In . SVG Version: 6.00 Build 0)  -->
<svg version="1.1" id="Icons" xmlns="http://www.w3.org/2000/svg" xmlns:xlink="http://www.w3.org/1999/xlink" x="0px" y="0px"
	 viewBox="0 0 24 24" style="enable-background:new 0 0 24 24;" xml:space="preserve">
<g id="Transport-location">
	<path d="M16.521,12.051V7.827c0-1.328-1.08-2.408-2.408-2.408H9.888c-1.328,0-2.408,1.08-2.408,2.408v4.224
		c0,0.928,0.534,1.726,1.305,2.128l-0.012,0.02c-0.287,0.472-0.137,1.087,0.335,1.374c0.163,0.099,0.342,0.146,0.519,0.146
		c0.338,0,0.667-0.171,0.855-0.48l0.473-0.779h2.09l0.474,0.779c0.188,0.31,0.518,0.48,0.855,0.48c0.177,0,0.356-0.047,0.519-0.146
		c0.472-0.287,0.622-0.902,0.335-1.374l-0.012-0.02C15.987,13.778,16.521,12.98,16.521,12.051z M9.888,7.419h4.225
		c0.222,0,0.408,0.187,0.408,0.408v1.615H9.479V7.827C9.479,7.606,9.667,7.419,9.888,7.419z M14.112,12.459H9.888
		c-0.221,0-0.408-0.187-0.408-0.408v-0.609h5.041v0.609C14.521,12.272,14.334,12.459,14.112,12.459z"/>
	<path d="M12,2c-4.415,0-8.007,3.592-8.007,8.007c0,1.375,0.596,3.004,1.822,4.983c0.291,0.469,0.907,0.614,1.377,0.323
		c0.469-0.291,0.614-0.907,0.323-1.377c-1.258-2.03-1.522-3.257-1.522-3.929C5.993,6.695,8.688,4,12,4s6.007,2.695,6.007,6.007
		c0,2.928-3.839,7.407-5.99,9.579c-0.625-0.659-1.6-1.726-2.584-2.961c-0.344-0.433-0.973-0.503-1.405-0.16s-0.504,0.973-0.16,1.405
		c1.716,2.157,3.36,3.776,3.429,3.844C11.492,21.904,11.745,22,11.998,22c0.245,0,0.49-0.089,0.683-0.27
		c0.75-0.7,7.326-6.982,7.326-11.723C20.007,5.592,16.415,2,12,2z"/>
</g>
</svg>
