<?xml version="1.0" encoding="utf-8"?>
<!-- Generator: Adobe Illustrator 26.3.1, SVG Export Plug-In . SVG Version: 6.00 Build 0)  -->
<svg version="1.1" id="Icons" xmlns="http://www.w3.org/2000/svg" xmlns:xlink="http://www.w3.org/1999/xlink" x="0px" y="0px"
	 viewBox="0 0 24 24" style="enable-background:new 0 0 24 24;" xml:space="preserve">
<g id="Trash-Bin">
	<path d="M14.419,4.795H9.581c-0.552,0-1,0.448-1,1v1.75H6.269c-0.552,0-1,0.448-1,1s0.448,1,1,1h0.215v7.091
		c0,1.417,1.152,2.569,2.569,2.569h5.895c1.417,0,2.569-1.152,2.569-2.569V9.545h0.215c0.552,0,1-0.448,1-1s-0.448-1-1-1h-2.312
		v-1.75C15.419,5.243,14.971,4.795,14.419,4.795z M10.581,6.795h2.838v0.75h-2.838V6.795z M15.516,16.636
		c0,0.313-0.255,0.569-0.569,0.569H9.053c-0.313,0-0.569-0.255-0.569-0.569V9.545h7.032V16.636z"/>
	<path d="M10.529,16.606c0.552,0,1-0.448,1-1v-4.462c0-0.552-0.448-1-1-1s-1,0.448-1,1v4.462
		C9.529,16.158,9.977,16.606,10.529,16.606z"/>
	<path d="M13.471,16.606c0.552,0,1-0.448,1-1v-4.462c0-0.552-0.448-1-1-1s-1,0.448-1,1v4.462
		C12.471,16.158,12.919,16.606,13.471,16.606z"/>
	<path d="M18,2H6C3.794,2,2,3.794,2,6v1.925c0,0.552,0.448,1,1,1s1-0.448,1-1V6c0-1.103,0.897-2,2-2h12c1.103,0,2,0.897,2,2v12
		c0,1.103-0.897,2-2,2H6c-1.103,0-2-0.897-2-2v-6.66c0-0.552-0.448-1-1-1s-1,0.448-1,1V18c0,2.206,1.794,4,4,4h12
		c2.206,0,4-1.794,4-4V6C22,3.794,20.206,2,18,2z"/>
</g>
</svg>
