<?xml version="1.0" encoding="utf-8"?>
<!-- Generator: Adobe Illustrator 16.0.0, SVG Export Plug-In . SVG Version: 6.00 Build 0)  -->
<!DOCTYPE svg PUBLIC "-//W3C//DTD SVG 1.0//EN" "http://www.w3.org/TR/2001/REC-SVG-20010904/DTD/svg10.dtd">
<svg version="1.0" id="Layer_1" xmlns="http://www.w3.org/2000/svg" xmlns:xlink="http://www.w3.org/1999/xlink" x="0px" y="0px"
	 width="100px" height="100px" viewBox="0 0 100 100" enable-background="new 0 0 100 100" xml:space="preserve">
<path d="M70,70.612V30L30,10l-2.981,5.963L55.091,30H23.333l8.77,46.78c0.678,3.604,4.232,6.553,7.897,6.553h3.333V90H50v-6.667
	h7.278C58.659,87.207,62.321,90,66.667,90c5.521,0,10-4.479,10-10C76.667,75.654,73.874,71.992,70,70.612z M57.278,76.667H40
	c-0.456,0-1.26-0.668-1.341-1.113l-7.292-38.887h31.966v33.946C60.508,71.618,58.284,73.841,57.278,76.667z M66.667,83.333
	c-1.843,0-3.334-1.494-3.334-3.333s1.491-3.333,3.334-3.333C68.506,76.667,70,78.161,70,80S68.506,83.333,66.667,83.333z"/>
</svg>
