<svg fill="#000000" xmlns="http://www.w3.org/2000/svg"  viewBox="0 0 16 16" width="16px" height="16px"><path d="M 7.5 1 C 6.6122566 1 5.8394274 1.4722872 5.3984375 2.1738281 C 5.1181516 2.065329 4.8163224 2 4.5 2 C 3.1698373 2 2.0837286 3.0556435 2.0136719 4.3691406 C 1.429871 4.7873068 1 5.4158987 1 6.1875 C 1 7.0200257 1.4502473 7.7434353 2.1152344 8.1484375 C 2.044614 8.3559215 2 8.5774789 2 8.8125 C 2 10.013819 2.9844035 11 4.1875 11 L 6 11 L 6 12.5 C 6 12.781469 5.7814686 13 5.5 13 A 0.50005 0.50005 0 1 0 5.5 14 C 6.3225314 14 7 13.322531 7 12.5 L 7 10.580078 A 0.50005 0.50005 0 0 0 6.9433594 10.259766 A 0.50005 0.50005 0 0 0 6.9414062 10.253906 A 0.50005 0.50005 0 0 0 6.9179688 10.216797 A 0.50005 0.50005 0 0 0 6.8867188 10.175781 A 0.50005 0.50005 0 0 0 6.8847656 10.171875 A 0.50005 0.50005 0 0 0 6.8535156 10.138672 A 0.50005 0.50005 0 0 0 6.8496094 10.136719 A 0.50005 0.50005 0 0 0 6.8164062 10.105469 A 0.50005 0.50005 0 0 0 6.8125 10.103516 A 0.50005 0.50005 0 0 0 6.4921875 9.9921875 A 0.50005 0.50005 0 0 0 6.4179688 10 L 4.1875 10 C 3.5245965 10 3 9.4731813 3 8.8125 C 3 8.5836429 3.0712337 8.3779114 3.1972656 8.1855469 A 0.50005 0.50005 0 0 0 3.1992188 8.1816406 A 0.50007723 0.50007723 0 0 0 3.2226562 8.1425781 A 0.50005 0.50005 0 0 0 3.2246094 8.1386719 A 0.50007723 0.50007723 0 0 0 3.2441406 8.0976562 A 0.50005 0.50005 0 0 0 3.2460938 8.09375 A 0.50007723 0.50007723 0 0 0 3.2480469 8.0839844 A 0.50005 0.50005 0 0 0 2.9023438 7.4199219 C 2.3797206 7.2454395 2 6.7687826 2 6.1875 C 2 5.6709272 2.2973186 5.2357423 2.7304688 5.0195312 A 0.50005 0.50005 0 0 0 3.0039062 4.5097656 C 2.998998 4.4704998 3 4.4716667 3 4.5 C 3 3.6649849 3.6649849 3 4.5 3 C 4.7855026 3 5.0436128 3.084133 5.2695312 3.2207031 A 0.50005 0.50005 0 0 0 5.6425781 3.359375 A 0.50005 0.50005 0 0 0 6.140625 2.9140625 C 6.3696978 2.3805096 6.8800241 2 7.5 2 C 8.1521434 2 8.6947925 2.4139545 8.9042969 2.9921875 C 8.9042969 2.9921875 8.9042969 2.9941406 8.9042969 2.9941406 C 8.9054982 2.9981122 8.903382 2.9933488 8.90625 3.0019531 A 0.50005 0.50005 0 0 0 8.921875 3.0410156 A 0.50005 0.50005 0 0 0 8.9433594 3.0859375 A 0.50005 0.50005 0 0 0 8.953125 3.1035156 A 0.50005 0.50005 0 0 0 8.9746094 3.1347656 A 0.50005 0.50005 0 0 0 9 3.1679688 A 0.50005 0.50005 0 0 0 9.0058594 3.1738281 A 0.50005 0.50005 0 0 0 9.6816406 3.2460938 C 9.9177559 3.0912977 10.194697 3 10.5 3 C 11.335015 3 12 3.6649849 12 4.5 C 12 4.471667 12.000994 4.4704956 11.996094 4.5097656 A 0.50005 0.50005 0 0 0 12.275391 5.0214844 C 12.297461 5.0321864 12.314545 5.0424533 12.328125 5.0507812 A 0.50005 0.50005 0 0 0 12.339844 5.0566406 A 0.50005 0.50005 0 0 0 12.341797 5.0566406 C 12.737183 5.2851501 13 5.6986013 13 6.1875 C 13 6.7678365 12.623425 7.2417839 12.103516 7.4179688 A 0.50005 0.50005 0 0 0 11.746094 8.0683594 A 0.50007723 0.50007723 0 0 0 11.759766 8.1035156 A 0.50005 0.50005 0 0 0 11.761719 8.109375 A 0.50007723 0.50007723 0 0 0 11.765625 8.1191406 A 0.50005 0.50005 0 0 0 11.785156 8.1542969 A 0.50007723 0.50007723 0 0 0 11.804688 8.1875 C 11.929271 8.3800469 12 8.5861221 12 8.8125 C 12 9.4744714 11.475404 10.001953 10.8125 10.001953 L 8.6640625 10.001953 A 0.50005 0.50005 0 0 0 8.625 10 L 8.5 10 A 0.50005 0.50005 0 0 0 8 10.5 L 8 12.5 C 8 13.322531 8.6774686 14 9.5 14 A 0.50005 0.50005 0 1 0 9.5 13 C 9.2185314 13 9 12.781469 9 12.5 L 9 11.001953 L 10.8125 11.001953 C 12.015596 11.001953 13 10.014529 13 8.8125 C 13 8.5768943 12.955142 8.3554484 12.884766 8.1484375 C 13.549647 7.7436297 14 7.0206116 14 6.1875 C 14 5.366552 13.558034 4.6540578 12.912109 4.2460938 A 0.50005 0.50005 0 0 0 12.882812 4.2207031 C 12.723788 2.9961214 11.766093 2 10.5 2 C 10.186853 2 9.9116783 2.1132088 9.6425781 2.2382812 C 9.2092459 1.5009057 8.4150701 1 7.5 1 z M 7.4707031 4 A 0.50005 0.50005 0 0 0 7.1621094 4.1308594 L 5.1621094 5.9648438 A 0.50005 0.50005 0 0 0 5 6.3320312 L 5 8.5 A 0.50005 0.50005 0 0 0 5.5 9 L 9.5 9 A 0.50005 0.50005 0 0 0 10 8.5 L 10 6.3320312 A 0.50005 0.50005 0 0 0 9.8378906 5.9648438 L 7.8378906 4.1308594 A 0.50005 0.50005 0 0 0 7.4707031 4 z M 7.5 5.1777344 L 9 6.5527344 L 9 8 L 6 8 L 6 6.5527344 L 7.5 5.1777344 z"/></svg>