<?xml version="1.0" encoding="utf-8"?>
<!-- Generator: Adobe Illustrator 16.0.0, SVG Export Plug-In . SVG Version: 6.00 Build 0)  -->
<!DOCTYPE svg PUBLIC "-//W3C//DTD SVG 1.0//EN" "http://www.w3.org/TR/2001/REC-SVG-20010904/DTD/svg10.dtd">
<svg version="1.0" id="Layer_1" xmlns="http://www.w3.org/2000/svg" xmlns:xlink="http://www.w3.org/1999/xlink" x="0px" y="0px"
	 width="100px" height="100px" viewBox="0 0 100 100" enable-background="new 0 0 100 100" xml:space="preserve">
<circle cx="63.333" cy="66.667" r="3.333"/>
<path d="M53.333,50v-6.667H70c3.665,0,6.667-3.001,6.667-6.666v-20C76.667,13.001,73.665,10,70,10H30
	c-3.665,0-6.667,3.001-6.667,6.667v20c0,3.665,3.002,6.666,6.667,6.666h16.667V50H10v40h6.667v-6.667h66.666V90H90V50H53.333z
	 M30,36.667v-20h40v20H30z M16.667,56.667h30v6.666h-30V56.667z M16.667,76.667V70h30v6.667H16.667z M83.333,76.667h-30v-20h30
	V76.667z"/>
</svg>
