<?xml version="1.0" encoding="utf-8"?>
<!-- Generator: Adobe Illustrator 16.0.0, SVG Export Plug-In . SVG Version: 6.00 Build 0)  -->
<!DOCTYPE svg PUBLIC "-//W3C//DTD SVG 1.0//EN" "http://www.w3.org/TR/2001/REC-SVG-20010904/DTD/svg10.dtd">
<svg version="1.0" id="Layer_1" xmlns="http://www.w3.org/2000/svg" xmlns:xlink="http://www.w3.org/1999/xlink" x="0px" y="0px"
	 width="100px" height="100px" viewBox="0 0 100 100" enable-background="new 0 0 100 100" xml:space="preserve">
<path d="M86.667,53.333c1.832,0,3.333-1.5,3.333-3.333V16.667c0-1.833-1.501-3.334-3.333-3.334H13.333
	c-1.832,0-3.333,1.501-3.333,3.334V50c0,1.833,1.501,3.333,3.333,3.333h33.334V60H10v20h6.667v6.667h6.666V80h53.334v6.667h6.666V80
	H90V60H53.333v-6.667H86.667z M83.333,66.667v6.666H16.667v-6.666H83.333z M16.667,46.667V20h66.666v26.667H16.667z"/>
</svg>
