<?xml version="1.0" encoding="utf-8"?>
<!-- Generator: Adobe Illustrator 16.0.0, SVG Export Plug-In . SVG Version: 6.00 Build 0)  -->
<!DOCTYPE svg PUBLIC "-//W3C//DTD SVG 1.0//EN" "http://www.w3.org/TR/2001/REC-SVG-20010904/DTD/svg10.dtd">
<svg version="1.0" id="Layer_1" xmlns="http://www.w3.org/2000/svg" xmlns:xlink="http://www.w3.org/1999/xlink" x="0px" y="0px"
	 width="100px" height="100px" viewBox="0 0 100 100" enable-background="new 0 0 100 100" xml:space="preserve">
<path d="M53.333,56.667V50h23.334c3.665,0,6.666-3.001,6.666-6.667V16.667C83.333,13,80.332,10,76.667,10H23.333
	c-3.665,0-6.666,3-6.666,6.667v26.667c0,3.666,3.001,6.667,6.666,6.667h23.334v6.667H10V90h26.667l6.666-13.333h13.334L63.333,90H90
	V56.667H53.333z M36.667,75.091l-4.121,8.242H16.667v-20h20V75.091z M23.333,43.333V16.667h53.334v26.667H23.333z M56.667,70H43.333
	v-6.667h13.334V70z M83.333,83.333H67.454l-4.121-8.242V63.333h20V83.333z"/>
<path d="M30,73.337c0,1.836-1.491,3.33-3.333,3.33c-1.843,0-3.334-1.494-3.334-3.33c0-1.843,1.491-3.337,3.334-3.337
	C28.509,70,30,71.494,30,73.337z"/>
<path d="M76.667,73.337c0,1.836-1.491,3.33-3.334,3.33c-1.842,0-3.333-1.494-3.333-3.33C70,71.494,71.491,70,73.333,70
	C75.176,70,76.667,71.494,76.667,73.337z"/>
</svg>
