<?xml version="1.0" encoding="utf-8"?>
<!-- Generator: Adobe Illustrator 16.0.0, SVG Export Plug-In . SVG Version: 6.00 Build 0)  -->
<!DOCTYPE svg PUBLIC "-//W3C//DTD SVG 1.1//EN" "http://www.w3.org/Graphics/SVG/1.1/DTD/svg11.dtd">
<svg version="1.1" id="Icons" xmlns="http://www.w3.org/2000/svg" xmlns:xlink="http://www.w3.org/1999/xlink" x="0px" y="0px"
	 width="24px" height="24px" viewBox="0 0 24 24" enable-background="new 0 0 24 24" xml:space="preserve">
<path id="Undo" d="M17.993,18.187c0.337,0.438,0.255,1.065-0.183,1.402c-1.691,1.3-3.706,1.987-5.828,1.987
	c-5.281,0-9.578-4.297-9.578-9.578c0-0.553,0.448-1,1-1s1,0.447,1,1c0,4.179,3.399,7.578,7.578,7.578
	c1.677,0,3.27-0.544,4.608-1.573C17.029,17.667,17.656,17.749,17.993,18.187z M20.313,16.717c0.891-1.498,1.248-3.07,1.248-4.719
	c0-5.281-4.296-9.577-9.578-9.577c-2.693,0-5.174,1.111-6.963,3.021V3.677c0-0.553-0.448-1-1-1s-1,0.447-1,1V8c0,0.553,0.448,1,1,1
	h4.325c0.552,0,1-0.447,1-1s-0.448-1-1-1H6.302c1.426-1.627,3.463-2.579,5.681-2.579c4.178,0,7.578,3.399,7.578,7.577
	c0,1.303-0.341,2.593-0.987,3.73c-0.272,0.48-0.104,1.091,0.376,1.364C18.949,17.093,19.799,17.58,20.313,16.717z"/>
</svg>
