<?xml version="1.0" encoding="utf-8"?>
<!-- Generator: Adobe Illustrator 16.0.0, SVG Export Plug-In . SVG Version: 6.00 Build 0)  -->
<!DOCTYPE svg PUBLIC "-//W3C//DTD SVG 1.1//EN" "http://www.w3.org/Graphics/SVG/1.1/DTD/svg11.dtd">
<svg version="1.1" id="Icons" xmlns="http://www.w3.org/2000/svg" xmlns:xlink="http://www.w3.org/1999/xlink" x="0px" y="0px"
	 width="24px" height="24px" viewBox="0 0 24 24" enable-background="new 0 0 24 24" xml:space="preserve">
<path id="Up-down_1_" d="M9.475,21.971c-0.256,0-0.512-0.097-0.706-0.292l-5.051-5.042c-0.188-0.188-0.294-0.442-0.294-0.708v-4.511
	c0-0.404,0.243-0.769,0.617-0.924c0.371-0.154,0.803-0.07,1.089,0.216l4.344,4.334l4.345-4.344c0.286-0.286,0.716-0.372,1.09-0.217
	c0.374,0.155,0.617,0.52,0.617,0.924v4.511c0,0.265-0.105,0.52-0.293,0.707l-5.051,5.053C9.986,21.873,9.73,21.971,9.475,21.971z
	 M5.424,15.514l4.05,4.043l4.052-4.053v-1.683l-3.344,3.344c-0.391,0.391-1.022,0.391-1.413,0.001l-3.345-3.337V15.514z
	 M10.182,13.3l4.345-4.344l4.344,4.334c0.286,0.286,0.719,0.37,1.089,0.216c0.374-0.155,0.617-0.52,0.617-0.924V8.071
	c0-0.265-0.105-0.52-0.293-0.708l-1.313-1.312c-0.391-0.39-1.023-0.39-1.414,0s-0.391,1.024,0,1.415l1.02,1.019v1.686l-3.345-3.337
	c-0.391-0.39-1.022-0.39-1.413,0.001l-3.344,3.344V8.496l4.052-4.054l0.615,0.613c0.392,0.391,1.024,0.39,1.414-0.002
	c0.39-0.391,0.389-1.024-0.002-1.414l-1.322-1.318c-0.391-0.39-1.022-0.39-1.413,0.001L8.768,7.375
	C8.58,7.563,8.475,7.817,8.475,8.082v4.511c0,0.404,0.243,0.769,0.617,0.924C9.092,13.517,9.676,13.726,10.182,13.3z"/>
</svg>
