<?xml version="1.0" encoding="utf-8"?>
<!-- Generator: Adobe Illustrator 16.0.0, SVG Export Plug-In . SVG Version: 6.00 Build 0)  -->
<!DOCTYPE svg PUBLIC "-//W3C//DTD SVG 1.1//EN" "http://www.w3.org/Graphics/SVG/1.1/DTD/svg11.dtd">
<svg version="1.1" id="Icons" xmlns="http://www.w3.org/2000/svg" xmlns:xlink="http://www.w3.org/1999/xlink" x="0px" y="0px"
	 width="24px" height="24px" viewBox="0 0 24 24" enable-background="new 0 0 24 24" xml:space="preserve">
<path id="Up-Left_1_" d="M6.69,20.833l-3.535-3.536c-0.188-0.188-0.293-0.442-0.293-0.708L2.874,3.873c0-0.552,0.448-0.999,1-0.999
	h4.953c0.552,0,1,0.447,1,1s-0.448,1-1,1H4.873l-0.01,11.302L6.4,17.714l0.007-7.479c0-0.404,0.244-0.769,0.618-0.923
	c0.373-0.156,0.803-0.069,1.089,0.217l7.074,7.074l1.414-1.414l-7.07-7.071c-0.286-0.286-0.372-0.716-0.217-1.09
	s0.52-0.617,0.924-0.617h7.484l-1.535-1.535h-3.947c-0.552,0-1-0.447-1-1s0.448-1,1-1h4.361c0.265,0,0.52,0.105,0.707,0.293
	l3.535,3.535c0.286,0.286,0.372,0.716,0.217,1.09s-0.52,0.617-0.924,0.617h-7.484l6.07,6.071c0.391,0.391,0.391,1.023,0,1.414
	l-2.828,2.828c-0.391,0.391-1.023,0.391-1.414,0l-6.077-6.076l-0.007,7.479c0,0.404-0.251,0.752-0.618,0.923
	C7.169,21.334,6.69,20.833,6.69,20.833z"/>
</svg>
