<?xml version="1.0" encoding="utf-8"?>
<!-- Generator: Adobe Illustrator 16.0.0, SVG Export Plug-In . SVG Version: 6.00 Build 0)  -->
<!DOCTYPE svg PUBLIC "-//W3C//DTD SVG 1.1//EN" "http://www.w3.org/Graphics/SVG/1.1/DTD/svg11.dtd">
<svg version="1.1" id="Icons" xmlns="http://www.w3.org/2000/svg" xmlns:xlink="http://www.w3.org/1999/xlink" x="0px" y="0px"
	 width="24px" height="24px" viewBox="0 0 24 24" enable-background="new 0 0 24 24" xml:space="preserve">
<path id="Up-Right_1_" d="M16.207,21.062c-0.374-0.155-0.617-0.52-0.617-0.924v-7.485l-6.071,6.071
	c-0.391,0.391-1.023,0.391-1.414,0l-2.828-2.828c-0.391-0.391-0.391-1.023,0-1.414l6.076-6.077L3.873,8.397
	c-0.404,0-0.769-0.244-0.923-0.618S2.881,6.976,3.167,6.69l3.536-3.535C6.891,2.968,7.145,2.862,7.41,2.862h0.001l12.716,0.012
	c0.552,0,0.999,0.448,0.999,1v4.953c0,0.552-0.447,1-1,1s-1-0.448-1-1V4.873L7.824,4.863L6.286,6.4l7.479,0.007
	c0.404,0,0.769,0.244,0.923,0.618s0.069,0.804-0.217,1.089l-7.074,7.074l1.414,1.414l7.071-7.071
	c0.287-0.286,0.716-0.372,1.09-0.217c0.374,0.155,0.617,0.52,0.617,0.924v7.485l1.535-1.535v-3.947c0-0.552,0.447-1,1-1s1,0.448,1,1
	v4.361c0,0.265-0.105,0.52-0.293,0.707l-3.535,3.535C16.75,21.361,16.207,21.062,16.207,21.062z"/>
</svg>
