<?xml version="1.0" encoding="utf-8"?>
<!-- Generator: Adobe Illustrator 16.0.0, SVG Export Plug-In . SVG Version: 6.00 Build 0)  -->
<!DOCTYPE svg PUBLIC "-//W3C//DTD SVG 1.1//EN" "http://www.w3.org/Graphics/SVG/1.1/DTD/svg11.dtd">
<svg version="1.1" id="Icons" xmlns="http://www.w3.org/2000/svg" xmlns:xlink="http://www.w3.org/1999/xlink" x="0px" y="0px"
	 width="24px" height="24px" viewBox="0 0 24 24" enable-background="new 0 0 24 24" xml:space="preserve">
<path id="Up" d="M18,2H6C3.794,2,2,3.794,2,6v12c0,2.206,1.794,4,4,4h12c2.206,0,4-1.794,4-4V6C22,3.794,20.206,2,18,2z M20,6v3.586
	l-1.377-1.377c-0.391-0.391-1.023-0.391-1.414,0s-0.391,1.023,0,1.414L20,12.414v2.172l-5.293-5.293
	c-0.287-0.286-0.716-0.373-1.09-0.217C13.243,9.23,13,9.596,13,10v10h-2V9.996c0-0.404-0.243-0.769-0.617-0.924
	c-0.374-0.153-0.804-0.069-1.089,0.216L4,14.571v-2.174l7.999-7.984l2.796,2.796c0.391,0.391,1.023,0.391,1.414,0
	s0.391-1.023,0-1.414L14.414,4H18C19.103,4,20,4.897,20,6z M6,4h3.583L4,9.571V6C4,4.897,4.897,4,6,4z M4,18v-0.603l5-4.99V20H6
	C4.897,20,4,19.103,4,18z M18,20h-3v-7.586l5,5V18C20,19.103,19.103,20,18,20z"/>
</svg>
