<?xml version="1.0" encoding="utf-8"?>
<!-- Generator: Adobe Illustrator 26.5.0, SVG Export Plug-In . SVG Version: 6.00 Build 0)  -->
<svg version="1.1" id="Icons" xmlns="http://www.w3.org/2000/svg" xmlns:xlink="http://www.w3.org/1999/xlink" x="0px" y="0px"
	 viewBox="0 0 24 24" enable-background="new 0 0 24 24" xml:space="preserve">
<path id="Vacuum-Cleaner" d="M19,17.018V7.795C19,4.6,16.4,2,13.205,2c-2.868,0-5.25,2.097-5.709,4.838
	C7.385,6.832,7.274,6.821,7.161,6.821H5.947c-1.513,0-2.744,1.231-2.744,2.744v1.358c0,0.552,0.448,1,1,1s1-0.448,1-1V9.565
	c0-0.41,0.333-0.744,0.744-0.744h1.214c0.086,0,0.166,0.02,0.25,0.025v4.949c0,0.552,0.448,1,1,1h3.145v3.978
	c0,0.41-0.333,0.744-0.744,0.744H8.317c0.054-0.232,0.089-0.471,0.089-0.72c0-1.766-1.437-3.203-3.203-3.203v-1.256
	c0-0.552-0.448-1-1-1s-1,0.448-1,1v1.977C2.476,16.903,2,17.791,2,18.797C2,20.563,3.437,22,5.203,22
	c0.614,0,1.183-0.182,1.671-0.483h3.937c1.513,0,2.744-1.231,2.744-2.744v-5.557c0-2.713-1.701-5.031-4.09-5.959
	C9.729,5.421,11.297,4,13.205,4C15.298,4,17,5.702,17,7.795v9.227c-2.196,0.293-2.89,2.666-2.937,3.941
	c-0.01,0.271,0.091,0.536,0.279,0.731C14.531,21.89,14.791,22,15.062,22H21c0.271,0,0.532-0.11,0.72-0.306
	c0.188-0.195,0.289-0.459,0.279-0.731C21.952,19.685,21.255,17.301,19,17.018z M5.203,20C4.54,20,4,19.46,4,18.797
	c0-0.663,0.54-1.203,1.203-1.203c0.663,0,1.203,0.54,1.203,1.203C6.406,19.46,5.866,20,5.203,20z M11.513,12.795H9.411V9.461
	C10.574,10.161,11.375,11.377,11.513,12.795z M16.265,20c0.171-0.5,0.482-0.998,1.044-1.027l1.394-0.001
	c0.588,0.03,0.912,0.528,1.088,1.028H16.265z"/>
</svg>
