<?xml version="1.0" encoding="utf-8"?>
<!-- Generator: Adobe Illustrator 16.0.0, SVG Export Plug-In . SVG Version: 6.00 Build 0)  -->
<!DOCTYPE svg PUBLIC "-//W3C//DTD SVG 1.1//EN" "http://www.w3.org/Graphics/SVG/1.1/DTD/svg11.dtd">
<svg version="1.1" id="Icons" xmlns="http://www.w3.org/2000/svg" xmlns:xlink="http://www.w3.org/1999/xlink" x="0px" y="0px"
	 width="24px" height="24px" viewBox="0 0 24 24" enable-background="new 0 0 24 24" xml:space="preserve">
<path id="Waiting_1_" d="M12,9.263c-0.553,0-1-0.448-1-1V5.952c0-0.552,0.447-1,1-1s1,0.448,1,1v2.312
	C13,8.815,12.553,9.263,12,9.263z M10.103,10.048c0.414-0.365,0.389-1.024-0.002-1.414l-1.635-1.63
	c-0.391-0.39-1.023-0.388-1.414,0.002C6.662,7.397,6.663,8.031,7.054,8.42l1.635,1.63C8.688,10.05,9.359,10.703,10.103,10.048z
	 M9.316,11.948c0-0.552-0.447-1-1-1H6.004c-0.553,0-1,0.448-1,1s0.447,1,1,1h2.313C8.869,12.948,9.316,12.5,9.316,11.948z
	 M18.996,11.948c0-0.552-0.447-1-1-1h-2.312c-0.553,0-1,0.448-1,1s0.447,1,1,1h2.312C18.549,12.948,18.996,12.5,18.996,11.948z
	 M15.314,10.048l1.629-1.634C17.334,8.023,17.332,7.39,16.941,7c-0.392-0.389-1.024-0.388-1.414,0.002l-1.629,1.634
	c-0.391,0.391-0.389,1.024,0.002,1.415C13.9,10.051,14.563,10.703,15.314,10.048z M16.947,16.895c0.399-0.381,0.391-1.023,0-1.414
	l-1.634-1.634c-0.391-0.391-1.023-0.391-1.414,0c-0.391,0.39-0.391,1.023,0,1.414l1.634,1.634
	C15.533,16.895,16.254,17.555,16.947,16.895z M13,17.944v-2.312c0-0.552-0.447-1-1-1s-1,0.448-1,1v2.312c0,0.552,0.447,1,1,1
	S13,18.496,13,17.944z M8.467,16.895l1.635-1.634c0.391-0.39,0.391-1.023,0-1.414s-1.023-0.391-1.414,0L7.053,15.48
	c-0.391,0.39-0.391,1.023,0,1.414C7.053,16.895,7.767,17.561,8.467,16.895z M22,18V6c0-2.206-1.794-4-4-4H6C3.794,2,2,3.794,2,6
	v1.375c0,0.552,0.447,1,1,1s1-0.448,1-1V6c0-1.103,0.897-2,2-2h12c1.103,0,2,0.897,2,2v12c0,1.103-0.897,2-2,2H6
	c-1.103,0-2-0.897-2-2v-7.212c0-0.552-0.447-1-1-1s-1,0.448-1,1V18c0,2.206,1.794,4,4,4h12C20.206,22,22,20.206,22,18z"/>
</svg>
