<?xml version="1.0" encoding="utf-8"?>
<!-- Generator: Adobe Illustrator 25.4.1, SVG Export Plug-In . SVG Version: 6.00 Build 0)  -->
<svg version="1.1" id="Icons" xmlns="http://www.w3.org/2000/svg" xmlns:xlink="http://www.w3.org/1999/xlink" x="0px" y="0px"
	 viewBox="0 0 24 24" style="enable-background:new 0 0 24 24;" xml:space="preserve">
<g id="Walk">
	<path d="M19.676,13.652l-1.613-0.653l-1.644-7.254c-0.122-0.534-0.646-0.874-1.188-0.756c-0.724,0.156-2.836,0.373-3.921-0.49
		c-0.222-0.175-0.821-0.766-0.929-1.382c-0.042-0.238-0.168-0.453-0.355-0.605C9.537,2.116,8.305,1.602,7.14,2.495
		c-0.053,0.04-0.101,0.084-0.144,0.133L2.249,8.024c-0.325,0.37-0.333,0.922-0.018,1.301l3.036,3.642
		c0.354,0.424,0.983,0.481,1.409,0.128c0.424-0.354,0.481-0.984,0.128-1.408L4.316,8.703l1.018-1.158l7.718,9.41
		c0.119,0.155,1.228,1.51,3.548,1.51l3.405-0.001l0.005,1.533h-3.894c-0.001,0-0.001,0-0.002,0
		c-2.362-0.008-3.595-1.452-3.595-1.452l-3.532-4.238c-0.354-0.424-0.983-0.482-1.409-0.128c-0.424,0.354-0.481,0.984-0.128,1.408
		l3.581,4.295c0,0,1.7,2.114,5.085,2.114h4.896c0.266,0,0.521-0.106,0.708-0.294c0.188-0.188,0.293-0.443,0.292-0.709L22,16.935
		C22.014,14.548,19.676,13.652,19.676,13.652z M13.853,10.284l1.505-0.172l0.199,0.879l-1.186,0.136
		c-0.549,0.063-0.943,0.559-0.88,1.107c0,0,0.073,0.944,1.106,0.88l1.404-0.161l0.226,0.997c0.072,0.319,0.297,0.583,0.601,0.706
		l2.045,0.828c0.701,0.387,0.97,0.756,1.075,0.979l-3.348,0.001c-1.339,0-1.948-0.713-1.981-0.753L6.674,6.023L8.33,4.14
		c0.204-0.219,0.269,0,0.269,0c0.406,1.08,1.473,1.93,1.473,1.93c1.41,1.119,3.406,1.138,4.601,1.021l0.24,1.058l-1.287,0.147
		c-0.549,0.063-0.943,0.559-0.88,1.107C12.746,9.404,12.817,10.315,13.853,10.284z"/>
</g>
</svg>
