<?xml version="1.0" encoding="utf-8"?>
<!-- Generator: Adobe Illustrator 26.5.0, SVG Export Plug-In . SVG Version: 6.00 Build 0)  -->
<svg version="1.1" id="Icons" xmlns="http://www.w3.org/2000/svg" xmlns:xlink="http://www.w3.org/1999/xlink" x="0px" y="0px"
	 viewBox="0 0 24 24" enable-background="new 0 0 24 24" xml:space="preserve">
<path id="Wardrobe" d="M21,2H3C2.448,2,2,2.448,2,3s0.448,1,1,1h0.498v8.564c0,0.552,0.448,1,1,1s1-0.448,1-1V4h5.5v10.979h-6.5
	c-0.552,0-1,0.448-1,1V21c0,0.552,0.448,1,1,1s1-0.448,1-1v-0.498h13.004V21c0,0.552,0.447,1,1,1s1-0.448,1-1V4H21
	c0.553,0,1-0.448,1-1S21.553,2,21,2z M5.498,18.502v-1.522h13.004v1.522H5.498z M18.502,14.979h-5.504V4h5.504V14.979z
	 M8.998,10.922c-0.552,0-1-0.448-1-1V9.22c0-0.552,0.448-1,1-1s1,0.448,1,1v0.703C9.998,10.475,9.55,10.922,8.998,10.922z
	 M13.998,9.922V9.22c0-0.552,0.447-1,1-1s1,0.448,1,1v0.703c0,0.552-0.447,1-1,1S13.998,10.475,13.998,9.922z"/>
</svg>
