<?xml version="1.0" encoding="utf-8"?>
<!-- Generator: Adobe Illustrator 26.5.0, SVG Export Plug-In . SVG Version: 6.00 Build 0)  -->
<svg version="1.1" id="Icons" xmlns="http://www.w3.org/2000/svg" xmlns:xlink="http://www.w3.org/1999/xlink" x="0px" y="0px"
	 viewBox="0 0 24 24" enable-background="new 0 0 24 24" xml:space="preserve">
<path id="Warehouse" d="M21.664,10.252l-9-8c-0.379-0.337-0.949-0.337-1.328,0l-9,8C2.122,10.442,2,10.714,2,11v6.578
	c0,0.552,0.447,1,1,1s1-0.448,1-1v-6.128l8-7.111l8,7.111V20h-2.241v-8.191c0-0.552-0.447-1-1-1H7.241c-0.553,0-1,0.448-1,1V20H3
	c-0.553,0-1,0.448-1,1s0.447,1,1,1h18c0.553,0,1-0.448,1-1V11C22,10.714,21.878,10.442,21.664,10.252z M11.467,12.809h1.066v1.818
	h-1.066V12.809z M8.241,12.809h1.226v2.818c0,0.552,0.447,1,1,1h3.066c0.553,0,1-0.448,1-1v-2.818h1.226V20H8.241V12.809z"/>
</svg>
