<?xml version="1.0" encoding="utf-8"?>
<!-- Generator: Adobe Illustrator 26.5.0, SVG Export Plug-In . SVG Version: 6.00 Build 0)  -->
<svg version="1.1" id="Icons" xmlns="http://www.w3.org/2000/svg" xmlns:xlink="http://www.w3.org/1999/xlink" x="0px" y="0px"
	 viewBox="0 0 24 24" enable-background="new 0 0 24 24" xml:space="preserve">
<path id="Washing-Machine" d="M6.277,13.563c0,3.155,2.567,5.723,5.723,5.723s5.723-2.567,5.723-5.723S15.155,7.841,12,7.841
	S6.277,10.408,6.277,13.563z M12,17.286c-1.704,0-3.129-1.157-3.569-2.723c0.106-0.089,0.219-0.17,0.32-0.263
	c0.39-0.358,0.566-0.503,0.996-0.503s0.605,0.146,0.996,0.503c0.474,0.435,1.123,1.03,2.348,1.03c1.226,0,1.875-0.595,2.349-1.03
	c0.086-0.079,0.159-0.143,0.229-0.202C15.407,15.896,13.87,17.286,12,17.286z M12,9.841c1.491,0,2.771,0.887,3.365,2.156
	c-0.567,0.21-0.969,0.547-1.277,0.829c-0.391,0.358-0.566,0.504-0.997,0.504c-0.43,0-0.605-0.146-0.996-0.503
	c-0.474-0.435-1.123-1.03-2.348-1.03c-0.453,0-0.808,0.096-1.123,0.221C9.213,10.737,10.5,9.841,12,9.841z M9.223,7.007
	C8.67,7.004,8.225,6.554,8.228,6.002c0.003-0.55,0.45-0.995,1-0.995c0.001,0,0.003,0,0.005,0l0.368,0.002
	c0.552,0.003,0.998,0.453,0.995,1.005c-0.003,0.55-0.45,0.995-1,0.995c-0.001,0-0.003,0-0.005,0L9.223,7.007z M7.779,6.014
	c-0.003,0.55-0.45,0.995-1,0.995c-0.001,0-0.003,0-0.005,0L6.405,7.006C5.853,7.003,5.408,6.553,5.411,6.001
	c0.003-0.55,0.45-0.995,1-0.995c0.001,0,0.003,0,0.005,0l0.368,0.002C7.336,5.011,7.782,5.461,7.779,6.014z M12.228,7.007
	c-0.552,0-1-0.448-1-1s0.448-1,1-1c0,0,0,0,0,0l5.367,0.002c0.553,0,1,0.448,1,1s-0.448,1-1,1L12.228,7.007z M21.5,6v12
	c0,2.206-1.794,4-4,4h-11c-2.206,0-4-1.794-4-4v-6.641c0-0.552,0.448-1,1-1s1,0.448,1,1V18c0,1.103,0.897,2,2,2h11
	c1.103,0,2-0.897,2-2V6c0-1.103-0.897-2-2-2h-11c-1.103,0-2,0.897-2,2v1.944c0,0.552-0.448,1-1,1s-1-0.448-1-1V6
	c0-2.206,1.794-4,4-4h11C19.706,2,21.5,3.794,21.5,6z"/>
</svg>
