<?xml version="1.0" encoding="utf-8"?>
<!-- Generator: Adobe Illustrator 26.5.0, SVG Export Plug-In . SVG Version: 6.00 Build 0)  -->
<svg version="1.1" id="Icons" xmlns="http://www.w3.org/2000/svg" xmlns:xlink="http://www.w3.org/1999/xlink" x="0px" y="0px"
	 viewBox="0 0 24 24" enable-background="new 0 0 24 24" xml:space="preserve">
<path id="Water-Pipe" d="M21,2.004h-3.527c-0.553,0-1,0.448-1,1v0.224H9.812c-3.638,0-6.597,2.959-6.597,6.597v0.98
	c0,0.552,0.447,1,1,1s1-0.448,1-1v-0.98c0-2.535,2.062-4.597,4.597-4.597h6.661v4.568h-3.421c-1.803,0-3.269,1.466-3.269,3.269
	v3.403H5.215V14.22c0-0.552-0.447-1-1-1s-1,0.448-1,1v2.249H3c-0.553,0-1,0.448-1,1v3.527c0,0.552,0.447,1,1,1h8.998
	c0.553,0,1-0.448,1-1v-3.527c0-0.552-0.447-1-1-1h-0.215v-3.403c0-0.7,0.569-1.269,1.269-1.269h3.421v0.206c0,0.552,0.447,1,1,1H21
	c0.553,0,1-0.448,1-1V3.004C22,2.452,21.553,2.004,21,2.004z M10.998,19.996H4v-1.527h6.998V19.996z M20,11.002h-1.527V4.004H20
	V11.002z"/>
</svg>
