<?xml version="1.0" encoding="utf-8"?>
<!-- Generator: Adobe Illustrator 26.5.0, SVG Export Plug-In . SVG Version: 6.00 Build 0)  -->
<svg version="1.1" id="Icons" xmlns="http://www.w3.org/2000/svg" xmlns:xlink="http://www.w3.org/1999/xlink" x="0px" y="0px"
	 viewBox="0 0 24 24" enable-background="new 0 0 24 24" xml:space="preserve">
<path id="Water-Heater" d="M14.421,7.883l-1.589-2.403c-0.185-0.28-0.498-0.449-0.834-0.449c-0.336,0-0.649,0.169-0.834,0.449
	L9.586,7.872C8.22,9.733,9.687,12.562,12,12.499C14.306,12.563,15.775,9.744,14.421,7.883z M11.241,8.994l0.758-1.148
	c0.012,0.019,0.763,1.153,0.773,1.169c0.436,0.591-0.044,1.501-0.772,1.484C11.262,10.511,10.782,9.597,11.241,8.994z
	 M10.439,16.792c0-0.552,0.448-1,1-1h1.122c0.552,0,1,0.448,1,1s-0.448,1-1,1h-1.122C10.887,17.792,10.439,17.344,10.439,16.792z
	 M15.5,2h-7c-2.206,0-4,1.794-4,4v4.851c0,0.552,0.448,1,1,1s1-0.448,1-1V6c0-1.103,0.897-2,2-2h7c1.103,0,2,0.897,2,2v7.266h-12
	c-0.552,0-1,0.448-1,1v2.082c0,2.161,1.726,3.917,3.871,3.987V21c0,0.552,0.448,1,1,1s1-0.448,1-1v-0.653h3.258V21
	c0,0.552,0.447,1,1,1s1-0.448,1-1v-0.666c2.145-0.07,3.871-1.826,3.871-3.987V6C19.5,3.794,17.706,2,15.5,2z M17.5,16.347
	c0,1.103-0.897,2-2,2h-7c-1.103,0-2-0.897-2-2v-1.082h11V16.347z"/>
</svg>
