<?xml version="1.0" encoding="utf-8"?>
<!-- Generator: Adobe Illustrator 26.5.0, SVG Export Plug-In . SVG Version: 6.00 Build 0)  -->
<svg version="1.1" id="Icons" xmlns="http://www.w3.org/2000/svg" xmlns:xlink="http://www.w3.org/1999/xlink" x="0px" y="0px"
	 viewBox="0 0 24 24" enable-background="new 0 0 24 24" xml:space="preserve">
<path id="Water-Tap" d="M17.973,10.001c0,0-3.734,0.004-7.471,0.007l6.112-3.656c0.433-0.259,0.604-0.8,0.401-1.262
	c-0.825-1.871-2.985-2.813-4.917-2.143L6.314,4.953c-2.581,0.895-4.312,3.333-4.308,6.063v2.481c0,0.552,0.447,1,1,1s1-0.448,1-1
	v-1.482c3.348-0.003,13.968-0.014,13.968-0.014c1.347-0.01,2.185,1.228,2.021,2.498h-9.002c-0.266,0-0.52,0.105-0.707,0.293
	c-0.188,0.188-0.293,0.442-0.293,0.708L9.997,20H4.001c0,0,0.002-3.088,0.002-3.088c-0.022-1.315-1.977-1.314-2-0.001L2,21
	c0,0.265,0.105,0.52,0.293,0.708C2.48,21.895,2.734,22,3,22h7.998c0.538,0.011,1.01-0.464,1-1.001l-0.004-4.5h1.958v0.62
	c0,1.225,0.997,2.222,2.222,2.222h1.586c1.225,0,2.222-0.997,2.222-2.222v-0.62h1.012c0.552,0,0.999-0.446,1-0.998
	c0,0,0.003-1.476,0.003-1.476C22.043,11.861,20.136,9.954,17.973,10.001z M6.97,6.842l5.782-2.005
	c0.669-0.231,1.39-0.075,1.902,0.355l-8.056,4.819c-0.981,0.001-1.834,0.002-2.464,0.002C4.471,8.562,5.518,7.346,6.97,6.842z
	 M17.981,17.119c0,0.122-0.1,0.222-0.222,0.222h-1.586c-0.122,0-0.222-0.1-0.222-0.222v-0.62h2.029V17.119z"/>
</svg>
