<?xml version="1.0" encoding="utf-8"?>
<!-- Generator: Adobe Illustrator 26.5.0, SVG Export Plug-In . SVG Version: 6.00 Build 0)  -->
<svg version="1.1" id="Icons" xmlns="http://www.w3.org/2000/svg" xmlns:xlink="http://www.w3.org/1999/xlink" x="0px" y="0px"
	 viewBox="0 0 24 24" enable-background="new 0 0 24 24" xml:space="preserve">
<path id="Water-Dispenser" d="M18.271,5.375V4.74c0-1.511-1.229-2.74-2.739-2.74H8.469C6.958,2,5.729,3.229,5.729,4.74v0.635
	C3.659,5.466,2,7.165,2,9.257v1.82c0,0.552,0.447,1,1,1s1-0.448,1-1v-1.82c0-1.047,0.853-1.899,1.899-1.899h12.201
	C19.147,7.357,20,8.209,20,9.257V20h-1.602v-9.594c0-0.552-0.447-1-1-1H6.602c-0.553,0-1,0.448-1,1V20H4v-5.508c0-0.552-0.447-1-1-1
	s-1,0.448-1,1V21c0,0.552,0.447,1,1,1h18c0.553,0,1-0.448,1-1V9.257C22,7.165,20.341,5.466,18.271,5.375z M8.469,4h7.062
	c0.407,0,0.739,0.332,0.739,0.74v0.618H7.729V4.74C7.729,4.332,8.062,4,8.469,4z M7.602,11.406h1.396v1.52
	c-0.395,0.134-0.683,0.496-0.683,0.936c0,0.552,0.447,1,1,1h1.369c0.553,0,1-0.448,1-1c0-0.441-0.29-0.804-0.687-0.937v-1.519h2
	v1.52c-0.395,0.134-0.683,0.496-0.683,0.936c0,0.552,0.447,1,1,1h1.369c0.553,0,1-0.448,1-1c0-0.441-0.29-0.804-0.687-0.937v-1.519
	h1.4V20H7.602V11.406z"/>
</svg>
