<svg fill="#000000" xmlns="http://www.w3.org/2000/svg"  viewBox="0 0 16 16" width="16px" height="16px"><path d="M 3 1 L 3 3 L 4 3 L 4 1 L 3 1 z M 7 1 L 7 3 L 8 3 L 8 1 L 7 1 z M 11 1 L 11 3 L 12 3 L 12 1 L 11 1 z M 5 2 L 5 3 L 6 3 L 6 2 L 5 2 z M 9 2 L 9 3 L 10 3 L 10 2 L 9 2 z M 2.5 4 A 0.50005 0.50005 0 0 0 2 4.5 C 2 6.629605 3.2201311 8.477304 4.9960938 9.390625 L 3.0527344 13.277344 A 0.50005 0.50005 0 1 0 3.9472656 13.722656 L 4.8085938 12 L 9.9804688 12 L 10.181641 12.427734 A 1 1 0 0 0 10 13 A 1 1 0 0 0 11 14 A 1 1 0 0 0 12 13 A 1 1 0 0 0 11.085938 12.003906 L 9.8925781 9.4433594 C 11.728085 8.5509045 13 6.6733306 13 4.5 A 0.50005 0.50005 0 0 0 12.5 4 L 2.5 4 z M 3.1015625 5 L 11.898438 5 C 11.639582 7.2421691 9.8131235 9 7.5 9 C 5.1868765 9 3.3604184 7.2421691 3.1015625 5 z M 5.9257812 9.7675781 C 6.425109 9.91726 6.9527911 10 7.5 10 C 8.0035653 10 8.4893505 9.9263431 8.953125 9.7988281 L 9.5136719 11 L 5.3085938 11 L 5.9257812 9.7675781 z"/></svg>