<?xml version="1.0" encoding="utf-8"?>
<!-- Generator: Adobe Illustrator 16.0.0, SVG Export Plug-In . SVG Version: 6.00 Build 0)  -->
<!DOCTYPE svg PUBLIC "-//W3C//DTD SVG 1.0//EN" "http://www.w3.org/TR/2001/REC-SVG-20010904/DTD/svg10.dtd">
<svg version="1.0" id="Layer_1" xmlns="http://www.w3.org/2000/svg" xmlns:xlink="http://www.w3.org/1999/xlink" x="0px" y="0px"
	 width="100px" height="100px" viewBox="0 0 100 100" enable-background="new 0 0 100 100" xml:space="preserve">
<path d="M10,10v80h20V70h40v20h20V10H10z M60,16.667v6.667c0,4.796,1.152,9.313,3.157,13.333h-9.824v-20H60z M46.667,36.667h-9.822
	C38.846,32.646,40,28.13,40,23.333v-6.667h6.667V36.667z M16.667,16.667h16.667v6.667c0,10.568-7.031,19.484-16.667,22.354V16.667z
	 M16.667,83.333v-28.15c3.968,2.311,6.667,6.565,6.667,11.484v16.666H16.667z M29.701,63.333c-0.859-5.107-3.647-9.551-7.598-12.562
	c3.922-1.735,7.388-4.289,10.213-7.438h14.351v20H29.701z M53.333,43.333h14.35c2.825,3.149,6.292,5.703,10.215,7.438
	c-3.952,3.011-6.738,7.454-7.598,12.562H53.333V43.333z M83.333,83.333h-6.666V66.667c0-4.919,2.698-9.174,6.666-11.484V83.333z
	 M66.667,23.333v-6.667h16.666v29.021C73.698,42.817,66.667,33.901,66.667,23.333z"/>
</svg>
