<?xml version="1.0" encoding="utf-8"?>
<!-- Generator: Adobe Illustrator 26.3.1, SVG Export Plug-In . SVG Version: 6.00 Build 0)  -->
<svg version="1.1" id="Icons" xmlns="http://www.w3.org/2000/svg" xmlns:xlink="http://www.w3.org/1999/xlink" x="0px" y="0px"
	 viewBox="0 0 24 24" style="enable-background:new 0 0 24 24;" xml:space="preserve">
<g id="Wine-Bar">
	<path d="M16.378,13.099c0.746-1.104,1.005-2.559,0.71-3.991L16.41,5.816c-0.096-0.465-0.505-0.798-0.979-0.798H8.57
		c-0.475,0-0.884,0.333-0.979,0.798L6.912,9.108c-0.295,1.432-0.036,2.887,0.71,3.991c0.794,1.176,2.015,1.96,3.378,2.223
		l0.001,1.661H9.853c-0.552,0-1,0.448-1,1s0.448,1,1,1h4.294c0.552,0,1-0.448,1-1s-0.448-1-1-1h-1.146L13,15.321
		C14.364,15.058,15.584,14.274,16.378,13.099z M14.615,7.018l0.264,1.283H9.12l0.264-1.283H14.615z M9.279,11.979
		c-0.315-0.467-0.474-1.054-0.478-1.678h6.398c-0.005,0.623-0.163,1.211-0.478,1.678c-0.612,0.906-1.629,1.447-2.721,1.447
		S9.891,12.885,9.279,11.979z"/>
	<path d="M18,2H6C3.794,2,2,3.794,2,6v1.925c0,0.552,0.448,1,1,1s1-0.448,1-1V6c0-1.103,0.897-2,2-2h12c1.103,0,2,0.897,2,2v12
		c0,1.103-0.897,2-2,2H6c-1.103,0-2-0.897-2-2v-6.66c0-0.552-0.448-1-1-1s-1,0.448-1,1V18c0,2.206,1.794,4,4,4h12
		c2.206,0,4-1.794,4-4V6C22,3.794,20.206,2,18,2z"/>
</g>
</svg>
