<?xml version="1.0" encoding="UTF-8"?>
<svg id="uuid-53e6f50b-817d-4a68-9712-eceb6b6bd8be" data-name="Calque 1" xmlns="http://www.w3.org/2000/svg" viewBox="0 0 800 800">
  <defs>
    <style>
      .uuid-45e49630-f009-4e84-a952-d499eb737e31 {
        stroke-width: 0px;
      }
    </style>
  </defs>
  <path class="uuid-45e49630-f009-4e84-a952-d499eb737e31" d="m161.13,649.67v-23.77h16.89V208.67h-17.17c4.9-12.08,9.43-23.38,14.09-34.63,1.7-4.11,5.61-4.19,9.19-4.26,8.11-.16,16.22-.05,24.32-.07,1.25,0,2.51-.12,4.29-.22v-19.15h238.24v19.27c7.79,0,14.97.56,22.01-.13,10.12-.99,16.16,2.43,19.22,12.56,2.67,8.86,6.92,17.25,10.77,26.57h-17.15v131.67h150.66c0,9.97.12,19.29-.2,28.59-.03.9-2.75,2.33-4.3,2.45-9.77.75-9.77.65-9.77,10.52,0,78.75,0,157.49,0,236.24,0,2.31,0,4.62,0,7.44h16.91v24.15H161.13Zm270.83-300.99v-79.6h-39.13v79.6h39.13Zm.09,120.8v-79.53h-39.27v79.53h39.27Zm-.02,121.28v-79.61h-39.32v79.61h39.32Zm-162.08-242.21v-79.43h-38.34v79.43h38.34Zm81.09-.46v-78.96h-38.83v78.96h38.83Zm-119.42,121.34h38.34v-79.31h-38.34v79.31Zm80.62-79.31v79.26h38.87v-79.26h-38.87Zm-42.12,121.22h-38.51v79.37h38.51v-79.37Zm42.22-.09v79.52h38.77v-79.52h-38.77Zm199.25,13.31v-32.64h-31.87v32.64h31.87Zm.18,65.29v-32.13h-32.14v32.13h32.14Zm.49-131.9v-32.43h-32.01v32.43h32.01Zm33.94-.09h31.96v-32.26h-31.96v32.26Zm.13,33.87v32.09h31.79v-32.09h-31.79Zm-.03,65.9v32.13h31.85v-32.13h-31.85Z"/>
</svg>
