<?xml version="1.0" encoding="UTF-8"?>
<svg id="uuid-d2807840-be82-4daa-a87d-b097e9c7e739" data-name="Layer 1" xmlns="http://www.w3.org/2000/svg" viewBox="0 0 487.77 511.91">
  <defs>
    <style>
      .uuid-a4b003d4-8e39-488f-b0a7-b4b52c6455a7 {
        fill: #fff;
        stroke-width: 0px;
      }
    </style>
  </defs>
  <path class="uuid-a4b003d4-8e39-488f-b0a7-b4b52c6455a7" d="M182.06,511.91c-16.6,0-30.2-6.8-41-20.5L9.36,318.71c-7.8-11.7-10.7-24.4-8.8-38s8.3-24.9,19-33.7,23.2-12.2,37.3-10.2,25.6,8.8,34.4,20.5l86.3,112.7L394.26,23.21c7.8-11.7,18.3-19,31.5-21.9,13.2-2.9,26.1-1,38.8,5.9,11.7,7.8,19,18.3,21.9,31.5s1,26.1-5.9,38.8L224.46,487.01c-9.8,15.6-23.4,23.4-41,23.4l-1.4,1.5"/>
</svg>