<?xml version="1.0" encoding="UTF-8"?>
<svg id="uuid-a3190744-c17b-4b82-8eb0-df64099d56b2" data-name="Calque 1" xmlns="http://www.w3.org/2000/svg" viewBox="0 0 800 800">
  <defs>
    <style>
      .uuid-133db24d-327d-4b78-a1f6-ca43b377bedf {
        stroke-width: 0px;
      }
    </style>
  </defs>
  <path class="uuid-133db24d-327d-4b78-a1f6-ca43b377bedf" d="m690.14,591.71c-4.14,9.45-11.28,13.23-21.6,12.59-9.59-.59-19.25-.08-28.88-.14-10.37-.07-17.49-7.04-17.5-17.33-.04-79.11-.04-158.23,0-237.34,0-10.29,7.13-17.27,17.49-17.34,9.63-.06,19.28.44,28.88-.14,10.31-.63,17.46,3.13,21.6,12.59v247.11Z"/>
  <path class="uuid-133db24d-327d-4b78-a1f6-ca43b377bedf" d="m109.86,484.02c2.63-11.88,9.67-21.51,16.02-31.5,27.01-42.51,54.09-84.97,80.94-127.59,6.89-10.94,15.89-18.83,27.83-23.83,19.63-8.23,39.01-17.04,58.61-25.35,4.43-1.88,9.31-2.69,14.74-2.9-1.08,1.61-2.11,3.25-3.25,4.81-54.68,75.3-109.46,150.53-163.93,225.97-5.72,7.92-9.68,17.11-14.56,25.9-7.48-6.21-12.13-15.04-15.05-24.98-.35-1.2-.89-2.35-1.34-3.52,0-5.67,0-11.34,0-17Z"/>
  <path class="uuid-133db24d-327d-4b78-a1f6-ca43b377bedf" d="m359.55,433.24c26.62-36.64,52.32-72.03,78.29-107.77,2.12.95,4.14,1.8,6.1,2.75,35.6,17.23,71.14,34.57,106.84,51.58,4.22,2.01,9.23,2.88,13.95,3.2,7.5.52,15.06.14,23.13.14.1,2.07.26,3.88.26,5.69.01,56.47-.04,112.94.12,169.42.01,4.26-1.29,6.25-5.18,7.91-69.2,29.53-137.71,28.55-205.5-4.46-15.75-7.67-31.26-15.84-46.99-23.56-2.58-1.27-5.73-1.89-8.63-1.9-36.45-.13-72.89-.06-109.34-.09-19.85-.02-34.72-14.59-34.73-33.93-.01-19.4,14.82-34.04,34.62-34.05,45.51-.03,91.02.1,136.53-.05,36.51-.12,68.23-12.47,94.61-37.98,5.13-4.96,7.46-10.76,5.22-17.91-2.06-6.59-6.66-10.36-13.26-11.67-6.07-1.2-11.1,1.18-15.37,5.32-14.79,14.36-32.44,23.04-52.69,26.51-2.19.37-4.42.48-7.97.84Z"/>
  <path class="uuid-133db24d-327d-4b78-a1f6-ca43b377bedf" d="m363.16,254.68c18.74,13.63,36.84,26.79,55.21,40.15-14.14,19.48-27.98,38.53-41.81,57.58-18.73,25.79-37.5,51.56-56.14,77.42-2.16,3-4.33,4.45-8.27,4.42-26.01-.21-52.03-.11-79.35-.11,43.74-60.22,86.88-119.61,130.36-179.46Z"/>
  <path class="uuid-133db24d-327d-4b78-a1f6-ca43b377bedf" d="m438.23,267.53c-18.61-13.52-36.76-26.72-55.29-40.19,10.54-14.39,20.62-28.73,31.34-42.57,5.31-6.86,14.76-7.84,22-2.88,9.65,6.61,19.14,13.48,28.39,20.63,7.66,5.93,9.21,15.36,3.73,23.2-9.72,13.91-19.85,27.54-30.18,41.81Z"/>
  <path class="uuid-133db24d-327d-4b78-a1f6-ca43b377bedf" d="m228.85,570.42h50.82c0,9.98.8,19.8-.19,29.44-1.37,13.32-14.11,22.4-28.11,21.27-12.28-.99-22.33-12.04-22.49-24.89-.11-8.45-.02-16.91-.02-25.82Z"/>
  <path class="uuid-133db24d-327d-4b78-a1f6-ca43b377bedf" d="m158.57,543.91c15.55,18.48,34.79,26.73,59.59,26.32-4.96,3.66-8.5,6.29-12.06,8.89-11.72,8.59-23.42,17.21-35.18,25.73-6.67,4.83-13.59,4.86-19.95.33-6.39-4.55-8.62-11.56-6.05-19.51,4.39-13.57,8.86-27.12,13.66-41.77Z"/>
  <path class="uuid-133db24d-327d-4b78-a1f6-ca43b377bedf" d="m314.11,569.8c2.83.62,5.5.7,7.69,1.77,13.2,6.43,26.23,13.21,39.45,19.57,3.19,1.53,3.78,3.54,3.61,6.64-.65,12.05-11.5,22.88-23.58,23.38-13.93.58-26.15-8.86-27.22-21.74-.67-8.06-.21-16.22-.22-24.34,0-1.48.14-2.96.25-5.27Z"/>
</svg>
