<?xml version="1.0" encoding="UTF-8"?>
<svg id="uuid-3f366b7a-cdcd-4e91-8b04-531f5eaa6f25" data-name="uuid-85d55355-37f6-4eef-95ec-a794a123d625" xmlns="http://www.w3.org/2000/svg" viewBox="0 0 800 800">
  <defs>
    <style>
      .uuid-d615f2eb-4e8f-4817-9eec-84201266e563 {
        stroke-width: 0px;
      }
    </style>
  </defs>
  <path class="uuid-d615f2eb-4e8f-4817-9eec-84201266e563" d="M558.9,118.33c-4.6,15.86-9.09,31.75-13.82,47.57-11.41,38.2-22.92,76.37-34.38,114.55-.47,1.55-.83,3.13-1.42,5.41h123.28c-80.54,132.6-160.47,264.2-240.4,395.8-.33-.11-.66-.21-.98-.32,13.74-92.49,27.49-184.98,41.33-278.09h-85.18c1.41-5.23,2.61-9.81,3.89-14.37,25.08-89.33,50.16-178.66,75.26-267.99.25-.88.65-1.72.98-2.57,43.82,0,87.64,0,131.46,0Z"/>
  <path class="uuid-d615f2eb-4e8f-4817-9eec-84201266e563" d="M167.45,202.43h201.3c-2.93,10.39-5.68,20.47-8.7,30.47-.34,1.12-2.11,2.39-3.34,2.54-3.09.37-6.25.13-9.38.13-57.63,0-115.25,0-172.88,0h-7.01v-33.14Z"/>
  <path class="uuid-d615f2eb-4e8f-4817-9eec-84201266e563" d="M376.1,554.27c-1.66,11.29-3.22,21.96-4.83,32.97h-170.06v-32.97h174.89Z"/>
  <path class="uuid-d615f2eb-4e8f-4817-9eec-84201266e563" d="M386.09,487.43c-1.67,11.24-3.27,21.94-4.89,32.82h-113.26v-32.82h118.15Z"/>
  <path class="uuid-d615f2eb-4e8f-4817-9eec-84201266e563" d="M234.35,302.72v-33.13h115.48c-2.99,10.73-5.82,21.11-8.86,31.43-.23.79-1.97,1.63-3.01,1.63-34.39.08-68.77.07-103.61.07Z"/>
  <path class="uuid-d615f2eb-4e8f-4817-9eec-84201266e563" d="M200.47,269.5v32.82h-32.96v-32.82h32.96Z"/>
  <path class="uuid-d615f2eb-4e8f-4817-9eec-84201266e563" d="M233.75,520.27h-32.62v-32.8h32.62v32.8Z"/>
</svg>
