<?xml version="1.0" encoding="UTF-8"?>
<svg id="uuid-b5e6d039-9584-4a94-8d42-503e14db96a9" data-name="Calque 1" xmlns="http://www.w3.org/2000/svg" viewBox="0 0 800 800">
  <defs>
    <style>
      .uuid-a0e232a4-89e3-4c5b-86e8-b73a16dc5313 {
        stroke-width: 0px;
      }
    </style>
  </defs>
  <path class="uuid-a0e232a4-89e3-4c5b-86e8-b73a16dc5313" d="m602.75,667.54c-3.79-3.19-7.84-6.12-11.34-9.6-28.15-28-56.19-56.1-84.26-84.18-9.4-9.4-9.36-17.46.11-26.94,2.82-2.82,5.67-5.61,7.96-7.87-4.07-8.07-8.95-15.26-11.47-23.21-8.43-26.63-3.08-50.58,16.65-70.64,22.95-23.34,46.31-46.29,69.38-69.51,15.03-15.13,16.07-36.34,2.77-51.76-12.12-14.06-33.42-16.62-49.7-5.05,4.8,4.51,9.54,8.78,14.07,13.26,12,11.88,12.02,18.9.24,30.67-65.14,65.14-130.27,130.27-195.41,195.4-10.35,10.35-18.13,10.35-28.46.02-17.98-17.97-35.97-35.94-53.93-53.93-9.11-9.12-9.12-17.52-.02-26.62,65.99-66,131.99-132,198-197.99,9.54-9.54,17.72-9.48,27.36.19,5.27,5.29,10.45,10.67,15.76,16.11,10.3-8.15,21.33-13.16,33.8-15.31,35.26-6.1,71.27,18.6,77.67,53.76,4.5,24.72-2.19,46.08-20.03,63.88-22.93,22.88-45.87,45.74-68.7,68.71-13.06,13.14-15.36,31.37-6.12,46.32.36.58.86,1.09,2.37,2.98,3.2-3.75,6-7.53,9.31-10.79,7.13-7.04,16.14-7.14,23.18-.14,30.36,30.22,60.63,60.53,90.86,90.88,1.89,1.9,3.2,4.36,4.78,6.56v9.41c-3,3.71-5.73,7.68-9.05,11.08-11.63,11.88-23.39,23.64-35.27,35.27-3.39,3.32-7.36,6.05-11.07,9.04h-9.41Z"/>
  <path class="uuid-a0e232a4-89e3-4c5b-86e8-b73a16dc5313" d="m306.99,132.46c45.96,27.44,91.93,54.88,137.89,82.32,4.18,2.5,8.42,4.9,12.52,7.51,8.28,5.28,10.72,14.3,6.11,22.07-4.47,7.54-13.94,9.64-22.41,4.98-1.18-.65-2.38-1.28-4.48-2.41,0,8.96.17,17.2-.11,25.43-.07,2.17-.96,4.86-2.44,6.35-27.11,27.33-54.36,54.52-81.59,81.72-.57.57-1.22,1.05-2.64,2.25,0-2.57,0-4.22,0-5.88,0-25.08.01-50.16,0-75.24,0-12.11-6.25-18.45-18.23-18.46-19.51-.03-39.02-.06-58.52.01-10.44.04-17.24,6.55-17.28,16.77-.1,31-.04,62.01-.03,93.01,0,.84.1,1.68.18,2.8h30.91v-80.88h31.43v81h17.17c.25.47.49.94.74,1.4-6.78,6.61-14.14,12.74-20.19,19.97-6.85,8.19-14.62,10.68-25.26,10.53-46.15-.63-92.31-.42-138.47-.14-9.45.06-16.18-2.85-19.84-11.76v-8.36c4.04-8.85,10.96-12.34,20.55-11.53,4.78.4,9.62.07,14.56.07v-128.08c-1.35.64-2.28,1.04-3.16,1.5-8.69,4.56-17.91,2.43-22.33-5.16-4.66-8.02-1.98-16.97,6.7-22.25,3.12-1.9,6.24-3.79,9.37-5.66,46.83-27.97,93.65-55.93,140.48-83.9,2.79,0,5.57,0,8.36,0Z"/>
</svg>
