<?xml version="1.0" encoding="UTF-8"?>
<svg id="uuid-27db7a63-4d71-4c56-a1b1-38d6422a9824" data-name="uuid-85d55355-37f6-4eef-95ec-a794a123d625" xmlns="http://www.w3.org/2000/svg" viewBox="0 0 800 800">
  <defs>
    <style>
      .uuid-02048dc2-3455-41a8-8a35-1944170e6a0d {
        stroke-width: 0px;
      }
    </style>
  </defs>
  <path class="uuid-02048dc2-3455-41a8-8a35-1944170e6a0d" d="M134.22,632.53v-339.48h531.54v6.3c0,107.95,0,215.89,0,323.84,0,26.54-16.08,42.56-42.7,42.56-68.33,0-136.66,0-204.99,0-81.13,0-162.26-.03-243.4.03-11.1,0-20.61-3.57-28.68-11.18-6.42-6.05-9.45-13.86-11.76-22.07ZM338.61,414.32h81.32c-21.47,47.14-42.6,93.56-64.06,140.69,12.83,0,24.75-.17,36.65.1,3.88.09,5.77-1.11,7.29-4.71,19.44-45.97,38.84-91.96,58.77-137.72,4.14-9.51,2.56-18.83,2.94-28.58h-122.91v30.23Z"/>
  <path class="uuid-02048dc2-3455-41a8-8a35-1944170e6a0d" d="M134.22,269.18c0-22.15,0-44.29,0-66.44.22-.26.55-.48.64-.78,6.56-22.2,19.36-31.84,42.38-31.85,20.07-.01,40.14,0,60.2,0,1.83,0,3.66.17,5.88.28,0,13.08-.11,25.68.03,38.27.12,11.01,4.33,20.29,13.14,26.99,10.65,8.11,22.52,9.69,34.71,4.16,12.8-5.81,19.52-16.27,19.98-30.3.37-11.23.11-22.49.16-33.73,0-1.81.18-3.63.27-5.35h177.03c0,2.19,0,4.04,0,5.89.02,10.9-.33,21.81.15,32.69.88,19.81,15.85,33.71,35.16,33.2,18.32-.48,32.5-15.5,32.69-34.77.11-10.55.02-21.11.02-31.66,0-1.8,0-3.61,0-5.61,24.23,0,47.59-.46,70.92.13,22.56.57,38.06,17.35,38.16,40.1.08,17.99.02,35.98,0,53.98,0,1.49-.18,2.98-.3,4.78H134.22Z"/>
  <path class="uuid-02048dc2-3455-41a8-8a35-1944170e6a0d" d="M282.68,134.21c11.49,4.6,15.65,13.28,15.28,25.36-.49,15.87.05,31.77-.18,47.65-.22,15.77-14.06,25.84-27.78,20.34-8.36-3.35-12.94-9.89-13.08-18.79-.29-18.3-.23-36.6-.03-54.9.11-9.75,6.35-15.46,14.36-19.65h11.42Z"/>
  <path class="uuid-02048dc2-3455-41a8-8a35-1944170e6a0d" d="M526.64,134.21c12.79,4.5,17.18,13.79,16.67,26.92-.62,15.69-.02,31.43-.2,47.14-.12,10.5-7.49,19.02-17.13,20.41-10.05,1.45-19.38-3.93-22.48-13.38-1-3.04-1.27-6.43-1.3-9.67-.13-15.2-.06-30.4-.06-45.59,0-15.24,3.3-20.18,17.24-25.83h7.27Z"/>
</svg>
